<svg width="260" height="95" viewBox="0 0 260 95" fill="none" xmlns="http://www.w3.org/2000/svg">
<path d="M121.768 58.9461C121.945 66.1626 121.845 73.3901 119.701 80.3861C116.018 92.3713 103.713 97.537 92.4556 91.8255C88.7288 89.9346 86.5126 86.7812 85.002 83.0378C83.1717 78.4951 82.3668 73.7209 82.0636 68.875C81.4186 58.5492 81.0933 48.2123 83.8994 38.107C87.3285 25.7524 98.9113 20.4655 110.709 25.7249C115.026 27.6489 117.44 31.2048 119.056 35.4277C120.699 39.7389 121.421 44.2595 121.73 48.8188C121.956 52.1817 121.774 55.5722 121.774 58.9516L121.768 58.9461ZM111.365 58.8689C111.293 52.744 111.58 46.6081 110.924 40.4997C110.582 37.3021 110.048 34.1432 108.427 31.304C105.273 25.769 98.5475 25.769 95.372 31.2709C94.2143 33.2777 93.492 35.4718 93.2605 37.7487C91.9043 51.0681 92.3508 64.4205 92.9352 77.7564C93.073 80.9429 93.8338 84.1073 95.5594 86.9024C98.6798 91.9578 105.036 91.9579 108.184 86.9245C109.369 85.0336 109.981 82.9331 110.384 80.7665C111.735 73.5169 111.255 66.1791 111.36 58.8744L111.365 58.8689Z" fill="#5B4CFF"/>
<path d="M245.009 59.0509C245.147 66.0083 244.684 72.8995 242.981 79.7025C239.188 94.8577 226.243 95.4035 216.689 92.3438C212.51 91.0042 210.029 87.6578 208.326 83.7491C206.556 79.686 205.702 75.3859 205.305 71.0031C204.335 60.2252 204.12 49.4473 206.727 38.8458C208.265 32.5831 211.082 27.1197 217.93 25.1075C222.605 23.7347 227.335 23.7844 232.015 25.1295C237.016 26.5629 239.932 30.1629 241.812 34.7662C244.023 40.1745 244.623 45.9024 244.982 51.6525C245.136 54.1113 245.009 56.5866 245.009 59.0509ZM234.154 58.6815C234.154 53.2843 234.248 47.8871 234.121 42.4899C234.038 39.1049 233.476 35.7531 232.098 32.6051C230.72 29.4572 228.636 27.23 224.876 27.2575C221.111 27.2851 219.043 29.5675 217.72 32.7099C217.125 34.1267 216.617 35.6538 216.452 37.1754C214.886 51.5863 214.941 66.0028 216.402 80.4192C216.645 82.8008 217.422 85.0667 218.729 87.101C221.794 91.8807 227.903 91.9469 231.05 87.2333C232.611 84.9013 233.239 82.2275 233.664 79.5041C234.744 72.5908 234.132 65.6224 234.16 58.6815H234.154Z" fill="#5B4CFF"/>
<path d="M52.4634 33.4101C51.7688 31.7893 50.5229 30.9954 49.3376 30.2236C44.8886 27.3183 39.9435 26.6953 34.8219 27.5443C31.1282 28.1562 28.9396 30.6371 27.6881 34.0607C26.1555 38.2615 25.8633 42.6609 25.8027 47.0327C25.6594 56.8182 25.3782 66.6093 26.0177 76.3893C26.1169 77.933 26.3154 79.4876 26.6186 81.0037C28.1678 88.8487 33.2893 92.0683 41.1177 90.2214C46.2558 89.0086 49.8889 85.8606 52.6123 81.5054C54.4261 78.6056 55.6003 75.4466 56.4714 72.1609C56.6643 71.4387 56.7746 70.6338 57.8772 71.1134C58.6545 71.4552 59.5807 71.3725 59.4705 72.8279C58.2962 87.939 41.5808 98.1105 27.6054 92.1509C23.2226 90.2821 20.4496 86.8695 18.5476 82.6466C16.6511 78.4236 15.7194 73.9361 15.3501 69.3713C14.6168 60.4127 14.6334 51.4596 16.2542 42.5727C18.7957 28.6359 26.5911 22.8031 40.7429 24.2641C44.7949 24.6831 48.7091 25.6148 52.0775 28.0625C57.3976 31.9271 59.4429 37.3298 58.7152 43.6587C58.1198 48.8299 53.3014 52.1487 48.1909 51.3824C43.2016 50.6327 39.7009 46.2774 40.2522 41.5197C40.8641 36.2769 45.3848 32.6493 50.6497 33.1896C51.1845 33.2447 51.7192 33.3164 52.4689 33.4046L52.4634 33.4101Z" fill="#5B4CFF"/>
<path d="M160.843 46.4537C160.865 58.9847 160.97 71.5212 160.363 84.0467C160.264 86.1472 160.06 88.2421 160 90.3426C159.956 91.7208 159.41 92.228 157.993 92.2115C152.949 92.1398 147.904 92.1729 142.865 92.1894C141.834 92.1894 141.112 92.0571 141.123 90.734C141.134 89.4495 141.812 89.2124 142.86 89.2234C144.602 89.2345 146.344 89.1628 148.086 89.2179C150.093 89.2841 150.925 88.2862 150.887 86.3842C150.876 85.7447 150.898 85.1052 150.898 84.4657C150.898 58.9406 150.898 33.4155 150.898 7.88489C150.898 4.75352 149.319 3.18784 146.162 3.18784C144.971 3.18784 143.775 3.14925 142.584 3.18784C141.531 3.22643 141.123 2.80743 141.129 1.74342C141.129 0.646341 141.382 0.0454386 142.65 0.0509516C147.877 0.0950555 153.103 0.100568 158.329 0.0509516C160.038 0.0344127 159.967 1.22521 160.005 2.2837C160.308 10.2334 160.667 18.1831 160.821 26.1384C160.953 32.9083 160.849 39.6783 160.849 46.4482L160.843 46.4537Z" fill="#5B4CFF"/>
<path d="M164.763 45.7812C164.763 31.5136 164.807 17.246 164.719 2.97838C164.708 0.811778 165.105 -0.0427306 167.525 0.00137326C174.686 0.128172 174.686 0.0123972 174.686 7.08004C174.686 33.0517 174.686 59.0288 174.686 85.0005C174.686 89.036 174.846 89.1904 178.827 89.2069C180.111 89.2124 181.396 89.2124 182.675 89.2179C183.651 89.2179 184.467 89.2786 184.478 90.6458C184.494 91.9138 183.915 92.195 182.818 92.1895C177.686 92.1674 172.553 92.1288 167.42 92.2005C165.204 92.2335 165.524 90.6844 165.447 89.3833C164.802 78.8811 164.713 68.3679 164.752 57.8491C164.769 53.8246 164.752 49.8001 164.752 45.7757L164.763 45.7812Z" fill="#5B4CFF"/>
<path d="M66.83 58.7586C67.0285 48.0468 70.408 38.7079 78.7657 31.5465C79.5265 30.896 80.3754 30.3391 81.2024 29.7713C81.5828 29.5122 82.0238 29.3082 82.4538 29.6831C82.9279 30.0966 82.5806 30.4549 82.3877 30.8684C75.0554 46.5859 76.2517 62.8271 79.5099 79.1731C79.973 81.4996 81.037 83.6607 82.101 85.7942C82.4318 86.4558 83.3855 87.2662 82.4593 87.9553C81.6269 88.5783 80.9708 87.5639 80.3699 87.1174C73.2581 81.8525 69.1455 74.7352 67.4806 66.1349C67.012 63.7037 66.7529 61.2504 66.8356 58.7586H66.83Z" fill="#5B4CFF"/>
<path d="M259.989 58.9297C259.796 69.9887 256.07 79.438 247.249 86.5497C246.681 87.0073 246.064 87.4043 245.463 87.8177C245.088 88.0713 244.696 88.38 244.261 87.9335C243.875 87.5366 244.024 87.0955 244.233 86.671C251.29 72.5357 250.193 57.6066 248.462 42.6388C248.021 38.8183 246.868 35.1522 244.994 31.7342C244.663 31.1277 243.461 30.4662 244.492 29.6944C245.292 29.099 246.014 30.0362 246.631 30.4882C252.403 34.6671 256.086 40.3344 258.225 47.0382C259.455 50.8863 260.089 54.8501 259.989 58.9242V58.9297Z" fill="#5B4CFF"/>
<path d="M0.0351562 58.803C0.349396 47.5951 3.89977 37.9529 12.93 30.8357C13.5034 30.3836 14.1153 29.9701 14.7659 29.6449C15.025 29.5181 15.4991 29.5787 15.7582 29.7441C16.1165 29.9701 15.9732 30.345 15.7747 30.6923C10.0412 40.522 10.4547 51.4101 10.4933 62.1825C10.5209 70.5622 11.6069 78.7931 15.67 86.3514C15.9622 86.8917 16.5024 87.5091 15.7196 88.0163C15.0139 88.4739 14.5288 87.7682 14.0602 87.4264C5.83481 81.4945 1.54023 73.3132 0.343916 63.3898C0.156474 61.8462 0.139914 60.286 0.046193 58.803H0.0351562Z" fill="#5B4CFF"/>
<path d="M136.906 61.1404C136.757 70.3636 132.777 79.9837 123.476 87.0458C122.853 87.52 122.175 88.7439 121.199 87.8508C120.378 87.101 121.398 86.3622 121.729 85.6952C126.398 76.3727 126.701 66.3226 126.58 56.2338C126.519 51.3934 126.249 46.553 125.301 41.7732C124.568 38.0795 123.614 34.4796 121.624 31.2214C121.365 30.7969 120.736 30.3504 121.221 29.8046C121.789 29.1706 122.396 29.6392 122.93 29.9975C125.075 31.4309 126.999 33.1124 128.653 35.0915C134.414 41.9993 136.933 50.0262 136.906 61.1348V61.1404Z" fill="#5B4CFF"/>
<path d="M204.991 29.5565C205.939 29.6723 205.785 30.1795 205.46 30.8852C198.127 46.6964 199.224 63.0093 202.654 79.4325C203.161 81.8527 204.263 84.0854 205.416 86.2796C205.68 86.7868 206.342 87.3601 205.603 87.9666C204.897 88.5454 204.407 87.8508 203.938 87.5145C197.129 82.7072 192.725 76.1743 190.988 68.1143C188.149 54.8887 190.497 42.8594 200.294 32.8864C202.036 31.1167 204.379 29.54 204.991 29.5565Z" fill="#5B4CFF"/>
</svg>
