<svg width="589" height="189" xmlns="http://www.w3.org/2000/svg" xmlns:xlink="http://www.w3.org/1999/xlink" overflow="hidden"><defs><clipPath id="clip0"><rect x="0" y="0" width="589" height="189"/></clipPath></defs><g clip-path="url(#clip0)"><path d="M2.68719 28.7559 8.72593 28.7559C16.252 28.7559 21.1306 23.4311 21.1306 15.429 21.1306 9.98524 18.0666 6.74276 12.5931 6.74276L6.55436 6.74276 2.68719 28.7559ZM4.82901 27.1495 8.13098 8.34912 12.4741 8.34912C16.8172 8.34912 19.197 11.0859 19.197 15.6373 19.197 22.5387 15.2704 27.1495 9.17214 27.1495L4.82901 27.1495ZM26.309 10.6694 28.0938 10.6694 28.5698 7.81367 26.7849 7.81367 26.309 10.6694ZM23.126 28.7559 24.9108 28.7559 27.4691 14.1201 25.6843 14.1201 23.126 28.7559ZM34.5976 29.0534C38.792 29.0534 41.4395 27.1793 41.4395 24.1153 41.4395 21.3785 38.8217 20.8728 36.4419 20.3969 34.5381 20.0101 32.7533 19.6234 32.7533 18.1063 32.7533 16.3214 34.4191 15.191 37.0369 15.191 39.1192 15.191 40.2794 16.1727 40.2794 17.8981 40.2794 18.136 40.2794 18.4038 40.2199 18.6715L41.975 18.6715C42.0345 18.2848 42.094 17.9576 42.094 17.6006 42.094 15.191 40.3389 13.8227 37.2749 13.8227 33.4077 13.8227 30.9684 15.6373 30.9684 18.4633 30.9684 20.9026 33.3185 21.3488 35.609 21.8247 37.6616 22.2114 39.6249 22.5982 39.6249 24.4723 39.6249 26.4653 37.8103 27.6552 34.8356 27.6552 32.4855 27.6552 31.1469 26.6141 31.1469 24.7995 31.1469 24.5615 31.1766 24.3235 31.2361 24.026L29.481 24.026C29.4215 24.4128 29.3918 24.7697 29.3918 25.0672 29.3918 27.5957 31.2659 29.0534 34.5976 29.0534ZM52.9255 13.8227C47.9577 13.8227 44.7747 17.5708 44.7747 23.1634 44.7747 26.8521 46.738 29.0534 50.2185 29.0534 53.9369 29.0534 56.7332 27.0305 57.7744 23.6393L55.9895 23.6393C55.1566 26.1084 53.104 27.566 50.4862 27.566 47.9874 27.566 46.5893 25.8109 46.5893 22.9254 46.5893 22.5387 46.6191 22.152 46.6488 21.795L58.1016 21.795 58.1611 21.4678C58.3098 20.6943 58.3991 19.9506 58.3991 19.2962 58.3991 15.8157 56.406 13.8227 52.9255 13.8227ZM52.6578 15.2803C55.1566 15.2803 56.5547 16.8569 56.5547 19.6532 56.5547 19.9506 56.525 20.2779 56.4952 20.6051L46.8273 20.6051C47.5115 17.3626 49.6533 15.2803 52.6578 15.2803ZM68.2702 8.91433C69.7278 8.91433 70.1145 10.9669 72.1968 10.9669 73.9817 10.9669 75.2608 9.62827 75.6773 7.30796L74.5171 7.30796C74.1602 8.67635 73.4165 9.47953 72.524 9.47953 71.0664 9.47953 70.6797 7.42695 68.5974 7.42695 66.8423 7.42695 65.5631 8.79534 65.1467 11.0859L66.3068 11.0859C66.634 9.74726 67.348 8.91433 68.2702 8.91433ZM70.412 13.8227C67.1992 13.8227 64.9682 15.7562 64.3732 19.088L64.3137 19.088 65.1764 14.1201 63.3916 14.1201 60.8333 28.7559 62.6181 28.7559 64.0163 20.7241C64.6112 17.3031 66.6935 15.31 69.579 15.31 71.8101 15.31 73.0595 16.4999 73.0595 18.5525 73.0595 18.85 73.0298 19.207 72.9703 19.5937L71.3639 28.7559 73.1487 28.7559 74.7551 19.5639C74.8443 19.0285 74.9038 18.5525 74.9038 18.1063 74.9038 15.3695 73.2975 13.8227 70.412 13.8227ZM83.9543 29.0534C89.1304 29.0534 92.4324 25.3647 92.4324 19.8019 92.4324 16.0537 90.3798 13.8227 86.6316 13.8227 81.4853 13.8227 78.1536 17.5113 78.1536 23.0444 78.1536 26.7926 80.2359 29.0534 83.9543 29.0534ZM84.222 27.5362C81.4853 27.5362 79.9979 25.7811 79.9979 22.8064 79.9979 18.374 82.4967 15.31 86.3639 15.31 89.1006 15.31 90.6178 17.0949 90.6178 20.0399 90.6178 24.502 88.119 27.5362 84.222 27.5362ZM117.488 5.85034 115.197 18.8202 115.138 18.8202C115.197 18.4335 115.227 18.0765 115.227 17.7196 115.227 15.2505 113.531 13.8227 110.527 13.8227 105.737 13.8227 102.614 17.6006 102.614 23.1634 102.614 26.8521 104.458 29.0534 107.82 29.0534 111.27 29.0534 113.65 27.1793 114.215 24.0558L114.275 24.0558 113.442 28.7559 115.227 28.7559 119.273 5.85034 117.488 5.85034ZM108.682 27.5362C105.946 27.5362 104.488 25.7811 104.488 22.8064 104.488 18.374 106.957 15.31 110.824 15.31 113.561 15.31 115.078 16.9759 115.078 19.7424 115.078 20.2779 115.019 20.7836 114.9 21.438 114.245 25.2159 111.925 27.5362 108.682 27.5362ZM128.514 13.8227C123.546 13.8227 120.363 17.5708 120.363 23.1634 120.363 26.8521 122.327 29.0534 125.807 29.0534 129.525 29.0534 132.322 27.0305 133.363 23.6393L131.578 23.6393C130.745 26.1084 128.693 27.566 126.075 27.566 123.576 27.566 122.178 25.8109 122.178 22.9254 122.178 22.5387 122.208 22.152 122.237 21.795L133.69 21.795 133.75 21.4678C133.898 20.6943 133.988 19.9506 133.988 19.2962 133.988 15.8157 131.995 13.8227 128.514 13.8227ZM128.246 15.2803C130.745 15.2803 132.143 16.8569 132.143 19.6532 132.143 19.9506 132.113 20.2779 132.084 20.6051L122.416 20.6051C123.1 17.3626 125.242 15.2803 128.246 15.2803Z" transform="matrix(1 0 0 1.00026 0 -41.0027)"/><path d="M4.40263 86.2677 14.7547 86.2677 14.7547 42.2414 4.40263 42.2414 4.40263 86.2677ZM23.5758 86.2677 38.8065 86.2677C53.2043 86.2677 61.7715 78.0574 61.7715 64.2545 61.7715 50.4517 53.2043 42.2414 38.8065 42.2414L23.5758 42.2414 23.5758 86.2677ZM33.9279 78.3548 33.9279 50.1542 39.3419 50.1542C46.7193 50.1542 51.0624 55.3898 51.0624 64.2545 51.0624 73.1193 46.7193 78.3548 39.3419 78.3548L33.9279 78.3548ZM78.6072 78.3548 78.6072 67.7053 98.538 67.7053 98.538 59.7924 78.6072 59.7924 78.6072 50.1542 100.621 50.1542 100.621 42.2414 68.2551 42.2414 68.2551 86.2677 101.275 86.2677 101.275 78.3548 78.6072 78.3548ZM135.306 42.2414 135.782 85.4348 135.663 85.4348 124.657 42.2414 107.879 42.2414 107.879 86.2677 117.696 86.2677 117.22 43.0743 117.339 43.0743 128.345 86.2677 145.064 86.2677 145.064 42.2414 135.306 42.2414ZM185.606 42.2414 150.445 42.2414 150.445 50.1542 162.82 50.1542 162.82 86.2677 173.172 86.2677 173.172 50.1542 185.606 50.1542 185.606 42.2414ZM190.905 86.2677 201.258 86.2677 201.258 42.2414 190.905 42.2414 190.905 86.2677ZM210.079 86.2677 225.309 86.2677C239.707 86.2677 248.274 78.0574 248.274 64.2545 248.274 50.4517 239.707 42.2414 225.309 42.2414L210.079 42.2414 210.079 86.2677ZM220.431 78.3548 220.431 50.1542 225.845 50.1542C233.222 50.1542 237.565 55.3898 237.565 64.2545 237.565 73.1193 233.222 78.3548 225.845 78.3548L220.431 78.3548ZM282.502 86.2677 293.389 86.2677 280.717 42.2414 262.571 42.2414 249.78 86.2677 260.072 86.2677 262.75 76.0345 279.884 76.0345 282.502 86.2677ZM264.772 68.1812 271.257 43.0743 271.376 43.0743 277.861 68.1812 264.772 68.1812ZM298.1 86.2677 313.331 86.2677C327.729 86.2677 336.296 78.0574 336.296 64.2545 336.296 50.4517 327.729 42.2414 313.331 42.2414L298.1 42.2414 298.1 86.2677ZM308.453 78.3548 308.453 50.1542 313.867 50.1542C321.244 50.1542 325.587 55.3898 325.587 64.2545 325.587 73.1193 321.244 78.3548 313.867 78.3548L308.453 78.3548ZM380.893 42.2414 370.897 85.4348 370.778 85.4348 360.843 42.2414 349.896 42.2414 361.378 86.2677 379.643 86.2677 391.126 42.2414 380.893 42.2414ZM396.175 86.2677 406.527 86.2677 406.527 42.2414 396.175 42.2414 396.175 86.2677ZM431.59 86.8626C443.37 86.8626 450.331 81.3891 450.331 72.1674 450.331 61.8748 441.169 60.5064 433.732 59.4355 428.675 58.7215 424.332 58.0671 424.332 54.5569 424.332 51.5226 426.831 49.7378 430.995 49.7378 435.636 49.7378 438.551 52.4745 438.908 57.1746L449.082 57.1746C448.07 47.4175 441.585 41.6465 431.59 41.6465 420.465 41.6465 413.861 46.4061 413.861 55.4493 413.861 65.6229 422.666 66.8128 429.865 67.8242 435.219 68.5382 439.86 69.2521 439.86 73.3573 439.86 76.7485 436.885 78.7713 431.828 78.7713 426.712 78.7713 423.38 75.7371 422.785 70.6205L412.611 70.6205C413.623 80.8536 420.643 86.8626 431.59 86.8626ZM482.714 70.918C482.714 75.8561 479.74 78.7713 474.682 78.7713 469.625 78.7713 466.651 75.8561 466.651 70.918L466.651 42.2414 456.358 42.2414 456.358 70.442C456.358 80.7941 463.081 86.8626 474.385 86.8626 485.808 86.8626 492.531 80.7941 492.531 70.442L492.531 42.2414 482.714 42.2414 482.714 70.918ZM528.79 86.2677 539.678 86.2677 527.005 42.2414 508.859 42.2414 496.068 86.2677 506.361 86.2677 509.038 76.0345 526.172 76.0345 528.79 86.2677ZM511.061 68.1812 517.546 43.0743 517.665 43.0743 524.15 68.1812 511.061 68.1812ZM554.741 78.1169 554.741 42.2414 544.389 42.2414 544.389 86.2677 573.422 86.2677 573.422 78.1169 554.741 78.1169Z" transform="matrix(1 0 0 1.00026 0 -41.0027)"/><path d="M151.514 155.678 166.745 155.678C183.344 155.678 193.993 145.326 193.993 129.501 193.993 118.316 186.973 111.652 174.479 111.652L159.248 111.652 151.514 155.678ZM163.234 147.766 168.172 119.565 173.646 119.565C179.774 119.565 183.225 123.611 183.225 130.393 183.225 140.745 177.454 147.766 168.648 147.766L163.234 147.766ZM235.098 119.565 236.407 111.652 204.101 111.652 196.367 155.678 229.327 155.678 230.755 147.766 208.088 147.766 209.991 137.116 229.922 137.116 231.231 129.203 211.36 129.203 213.085 119.565 235.098 119.565ZM251.707 156.273C264.975 156.273 273.304 149.669 273.304 139.496 273.304 131.048 265.213 129.798 258.609 128.846 254.028 128.132 250.101 127.478 250.101 124.503 250.101 121.231 252.957 119.149 257.716 119.149 262 119.149 264.32 121.469 264.32 125.574L264.32 126.585 274.553 126.585 274.553 124.979C274.553 116.233 269.139 111.057 259.68 111.057 247.067 111.057 239.273 116.828 239.273 126.942 239.273 135.212 246.948 136.283 253.433 137.235 258.252 137.949 262.476 138.603 262.476 142.054 262.476 145.802 258.966 148.182 253.373 148.182 248.554 148.182 245.758 145.445 245.758 140.864 245.758 140.626 245.758 140.269 245.817 140.031L235.584 140.031C235.525 140.626 235.525 141.281 235.525 141.816 235.525 150.978 241.415 156.273 251.707 156.273ZM305.217 155.678 316.164 155.678 311.226 111.652 293.021 111.652 272.554 155.678 282.847 155.678 287.309 145.445 304.384 145.445 305.217 155.678ZM290.7 137.592 301.588 112.485 301.707 112.485 303.73 137.592 290.7 137.592ZM341.82 138.484 341.82 138.365C354.195 138.365 361.93 132.178 361.93 122.599 361.93 115.757 356.337 111.652 346.461 111.652L328.553 111.652 320.819 155.678 331.111 155.678 334.145 138.484 340.868 138.484 346.461 155.678 357.943 155.678 354.076 145.029C352.589 140.864 347.889 138.484 341.82 138.484ZM335.454 131.048 337.537 119.565 345.569 119.565C349.079 119.565 351.042 121.29 351.042 124.206 351.042 128.37 348.127 131.048 343.546 131.048L335.454 131.048ZM384.35 138.484 384.35 138.365C396.725 138.365 404.46 132.178 404.46 122.599 404.46 115.757 398.867 111.652 388.991 111.652L371.083 111.652 363.349 155.678 373.641 155.678 376.675 138.484 383.398 138.484 388.991 155.678 400.473 155.678 396.606 145.029C395.119 140.864 390.419 138.484 384.35 138.484ZM377.984 131.048 380.067 119.565 388.098 119.565C391.609 119.565 393.572 121.29 393.572 124.206 393.572 128.37 390.657 131.048 386.076 131.048L377.984 131.048ZM424.625 156.273C440.332 156.273 450.387 145.445 450.387 128.965 450.387 117.721 444.08 111.057 432.598 111.057 416.951 111.057 406.836 121.885 406.836 138.365 406.836 149.55 413.202 156.273 424.625 156.273ZM426.113 148.182C420.58 148.182 417.605 144.077 417.605 137.354 417.605 126.704 422.9 119.149 431.229 119.149 436.643 119.149 439.618 123.254 439.618 129.917 439.618 140.626 434.264 148.182 426.113 148.182ZM464.546 147.528 470.792 111.652 460.5 111.652 452.766 155.678 481.74 155.678 483.167 147.528 464.546 147.528ZM498.766 147.528 505.013 111.652 494.72 111.652 486.986 155.678 515.96 155.678 517.388 147.528 498.766 147.528ZM538.096 156.273C553.803 156.273 563.857 145.445 563.857 128.965 563.857 117.721 557.551 111.057 546.068 111.057 530.421 111.057 520.307 121.885 520.307 138.365 520.307 149.55 526.673 156.273 538.096 156.273ZM539.583 148.182C534.05 148.182 531.076 144.077 531.076 137.354 531.076 126.704 536.371 119.149 544.7 119.149 550.114 119.149 553.089 123.254 553.089 129.917 553.089 140.626 547.734 148.182 539.583 148.182ZM151.514 227.072 166.745 227.072C183.344 227.072 193.993 216.72 193.993 200.895 193.993 189.71 186.973 183.046 174.479 183.046L159.248 183.046 151.514 227.072ZM163.234 219.16 168.172 190.959 173.646 190.959C179.774 190.959 183.225 195.005 183.225 201.787 183.225 212.139 177.454 219.16 168.648 219.16L163.234 219.16ZM235.098 190.959 236.407 183.046 204.101 183.046 196.367 227.072 229.327 227.072 230.755 219.16 208.088 219.16 209.991 208.51 229.922 208.51 231.231 200.597 211.36 200.597 213.085 190.959 235.098 190.959Z" transform="matrix(1 0 0 1.00026 0 -41.0027)"/><path d="M288.477 183.046 274.555 226.239 274.436 226.239 276.281 183.046 256.528 183.046 247.128 227.072 256.885 227.072 265.929 183.879 266.048 183.879 265.036 227.072 282.944 227.072 297.937 183.879 298.056 183.879 291.868 227.072 302.161 227.072 308.229 183.046 288.477 183.046ZM338.625 227.072 349.573 227.072 344.634 183.046 326.429 183.046 305.963 227.072 316.255 227.072 320.717 216.839 337.793 216.839 338.625 227.072ZM324.109 208.986 334.996 183.879 335.115 183.879 337.138 208.986 324.109 208.986ZM375.229 209.878 375.229 209.759C387.604 209.759 395.338 203.572 395.338 193.993 395.338 187.151 389.745 183.046 379.869 183.046L361.961 183.046 354.227 227.072 364.52 227.072 367.554 209.878 374.277 209.878 379.869 227.072 391.352 227.072 387.485 216.423C385.997 212.258 381.297 209.878 375.229 209.878ZM368.863 202.441 370.945 190.959 378.977 190.959C382.487 190.959 384.45 192.684 384.45 195.6 384.45 199.764 381.535 202.441 376.954 202.441L368.863 202.441ZM438.29 209.7 428.474 209.7C426.451 215.887 422.227 219.576 416.872 219.576 411.399 219.576 408.483 215.471 408.483 208.807 408.483 198.098 413.838 190.542 421.989 190.542 427.105 190.542 430.08 193.934 430.14 199.645L430.14 200.3 439.956 200.3C440.016 199.645 440.075 199.05 440.075 198.455 440.075 188.341 433.947 182.451 423.357 182.451 407.769 182.451 397.715 193.279 397.715 209.759 397.715 221.004 404.021 227.667 415.385 227.667 426.57 227.667 435.078 220.944 438.29 209.7ZM469.293 227.072 480.24 227.072 475.302 183.046 457.097 183.046 436.63 227.072 446.923 227.072 451.385 216.839 468.46 216.839 469.293 227.072ZM454.776 208.986 465.664 183.879 465.783 183.879 467.806 208.986 454.776 208.986ZM485.311 216.78 483.526 227.072 494.235 227.072 496.02 216.78 485.311 216.78Z" fill="#5B4CFF" transform="matrix(1 0 0 1.00026 0 -41.0027)"/><path d="M127.399 158.177 112.168 152.624C96.3025 188.797 72.1872 210.215 47.4373 210.215 34.1104 210.215 26.6537 204.504 26.6537 195.619 26.6537 180.071 43.1537 174.36 60.4469 168.014 80.5958 160.557 102.649 152.783 102.649 130.73 102.649 115.5 90.4323 107.091 69.0141 107.091 42.6777 107.091 26.4951 117.721 26.4951 133.745 26.4951 144.85 39.1873 151.831 60.9228 151.831 57.9084 152.942 54.7354 153.894 51.4036 155.004 29.9855 161.826 4.12498 169.918 4.12498 198.634 4.12498 216.562 17.9278 227.667 42.3604 227.667 59.3363 227.667 75.8362 221.004 90.591 208.47L108.995 227.667 123.115 214.658 104.076 195.143C112.802 184.99 120.735 172.456 127.399 158.177ZM47.12 139.298C47.12 130.096 54.418 124.543 66.1584 124.543 74.8843 124.543 79.8026 128.35 79.8026 134.855 79.8026 143.264 72.1872 147.706 61.8748 151.514 52.6729 151.514 47.12 146.754 47.12 139.298Z" transform="matrix(1 0 0 1.00026 0 -41.0027)"/></g></svg>