<?xml version="1.0" encoding="UTF-8"?><svg id="Layer_2" xmlns="http://www.w3.org/2000/svg" viewBox="0 0 347.46 250.59"><defs><style>.cls-1{fill:#fefefe;}.cls-2,.cls-3,.cls-4{fill:#5b4cff;}.cls-3{opacity:.7;}.cls-4{opacity:.4;}</style></defs><g id="Layer_1-2"><g><g><path class="cls-2" d="M71.67,58.26c.39-5.78,2.88-10.62,6.89-14.65,13.61-13.68,27.29-27.3,40.94-40.95,1.63-1.63,3.43-2.83,5.87-2.64,1.21,1.29,.88,2.91,.88,4.43,.03,12.31,.19,24.62-.04,36.92-.16,8.83,3.55,14.83,11.67,18.18,.63,.26,1.25,.53,1.78,.97,.85,.87,.29,1.46-.51,1.69-6.43,1.85-10.5,6.06-12.68,12.29-.3,.86-.9,1.88-2.13,.82-1.17-2.11-1.74-4.51-3.28-6.45-3.69-4.63-8.53-6.89-14.39-6.92-9.68-.06-19.37-.01-29.05-.02-.97,0-1.94,.02-2.9-.02-3.14-.14-3.35-.4-3.05-3.66Z"/><path class="cls-2" d="M187.9,188.25c-.11,.34-.22,.68-.33,1.02-1.33,1.1-2.94,.85-4.47,.85-12.61,.02-25.22,0-37.84,.02-8.56,.01-15.03,3.33-18.23,11.7-.31,.82-.68,1.61-1.52,2.05-1.42,.2-1.45-1.05-1.74-1.84-2.01-5.5-5.74-9.2-11.25-11.17-.73-.26-1.8-.31-1.76-1.54,.71-1.19,2-1.48,3.13-1.99,7.16-3.2,10.61-8.79,10.65-16.53,.05-10.57,0-21.13,.03-31.7,0-1.42-.27-2.94,.87-4.14,2.58-.67,4.72,1.17,7.17,1.27,4.63-.11,7.49,2.79,10.48,5.81,14.14,14.29,28.41,28.45,42.6,42.68,.98,.98,2.41,1.75,2.21,3.51Z"/><path class="cls-4" d="M124.87,203.8c2.16-1.94,2.07-5.03,3.91-7.28,3.91-4.77,8.84-7.15,14.82-7.21,14.65-.13,29.31-.05,43.97-.05-1.05,2.66-2.68,4.9-4.7,6.91-17.22,17.2-34.43,34.4-51.63,51.61-1.63,1.63-3.33,2.96-5.81,2.73-.96-1.01-.94-2.3-.95-3.55-.1-13.75,.13-27.51-.12-41.26-.01-.68,0-1.36,.51-1.91Z"/><path class="cls-3" d="M139.96,61.1c-9-2.14-14.93-9.64-14.67-19.24,.38-13.94,.09-27.89,.08-41.84,2.21-.12,3.89,.91,5.39,2.4,17.54,17.54,35.1,35.06,52.63,52.61,1.71,1.71,3.21,3.62,3.91,6.01-1.07,1.11-2.48,.96-3.81,.97-13.23,.03-26.47,.03-39.7,0-1.33,0-2.74,.16-3.83-.92Z"/><path class="cls-3" d="M124.87,203.8c.46,1.69,.56,3.4,.56,5.16-.02,13.86,0,27.71,0,41.57-2.34,.34-4.09-.74-5.65-2.3-13.81-13.8-27.69-27.52-41.39-41.43-5.69-5.78-8.05-12.87-6.65-21.02,1.08,2.22,2.94,2.65,5.26,2.62,9.48-.09,18.97-.06,28.45-.02,1.91,0,3.92-.18,5.42,1.46,7.19,1.3,12.66,6.76,14,13.97Z"/><path class="cls-4" d="M110.87,189.83c-10.03-1.22-20.1-.26-30.15-.55-1.84-.05-3.7-.19-5.52,.04-2.89,.37-3.84-.87-3.47-3.55,.09-3.7,1.63-6.88,3.54-9.94-.31-1.31,.72-1.93,1.43-2.65,13.85-13.88,27.72-27.74,41.6-41.58,.81-.81,1.6-1.77,2.98-1.48,1.75,1.46,3.89,2.55,4.64,4.95-.86,.9-.5,2.02-.5,3.04-.03,10.64-.02,21.27-.02,31.91,0,9.73-3.76,15.2-12.86,18.76-.61,.24-1.12,.7-1.68,1.06Z"/><path class="cls-3" d="M71.67,58.26c-.26,2.27,.73,2.9,2.98,2.88,10.93-.12,21.86-.09,32.79-.04,8.57,.04,15.85,6.14,17.42,14.5,1.53,1.17,1.41,2.88,1.43,4.5,.05,6.47,0,12.93,.05,19.39,.06,.84-.27,1.55-.91,2.04-4.67,3.61-5.65,8.83-6.24,14.21-.08,.77-.07,1.56-.49,2.25-.66,.69-1.31,.27-1.78-.16-1.84-1.7-3.96-3.17-4.96-5.61-.27-1.12-.49-2.25-.68-3.39-1.08-6.47-4.28-9.28-10.93-9.66-1.62-.09-3.28,.21-4.87-.36,.68-2.66-1.52-3.72-2.94-5.16-5.16-5.22-10.38-10.37-15.54-15.58-.82-.83-2.1-1.49-1.77-3.04-2.88-5.23-4.82-10.65-3.57-16.76Z"/><path class="cls-4" d="M187.9,188.25c-.76-.87-1.48-1.79-2.3-2.61-14.28-14.29-28.57-28.58-42.87-42.85-2.74-2.74-5.09-6.2-9.72-5.8,.9-1.23,2.26-.95,3.48-.96,2.05-.03,4.07-.17,6.07-.64,2.25-.53,2.59-2.09,2.3-4.01-.3-1.98-1.78-1.72-3.15-1.54-2.62,.34-5.24,.39-7.85,.13-3.22-.32-4.96-2.06-5.03-4.76,.73-.78,1.7-.9,2.66-.91,7.8-.07,15.59-.12,23.39,.03,.48,0,.95,.12,1.41,.27,1.58,.75,1.53,2.36,1.91,3.72,1.69,6.09,8.21,9.57,14.22,7.55,1.51-.51,1.73-1.67,1.7-3.01-.03-1.42-.8-2.1-2.18-2.19-1.46-.1-2.91-.22-4.24-.91-2.15-1.12-2.73-2.65-1.88-4.92,2.6-.92,5.26-.5,7.91-.34,5.28,1.03,9.77,3.38,13.02,7.78,1.63,2.21,2.52,4.71,2.72,7.44,.03,14.05,.09,28.1,.05,42.15,0,2.2-.45,4.41-1.6,6.38Z"/><path class="cls-2" d="M57.87,178.88c-5.45-.43-10.11-2.7-13.92-6.48-13.9-13.78-27.72-27.65-41.56-41.49-1.55-1.55-2.74-3.28-2.29-5.66,.99-.99,2.28-1,3.54-1,12.44-.03,24.87-.03,37.31,0,1.07,0,2.14,.02,3.13,.52,1.37,1.05,1.13,2.59,1.14,4,.05,6.28,.02,12.57,.02,18.85,0,.97-.01,1.93,.12,2.89,.25,1.84,1.42,2.69,3.17,2.77,1.9,.09,3.18-.77,3.52-2.7,.36-2.01,.16-4.05,.18-6.08,.03-2.42-.08-4.84,.05-7.25,.16-2.87,.76-3.34,3.39-2.49,1.83,.6,3.79,.86,5.43,1.98,1.05,1.08,1.09,2.46,1.09,3.82,.04,11.55,.06,23.1,0,34.65-.02,3.78-.44,4.06-4.32,3.67Z"/><path class="cls-4" d="M125.96,100.14c-.9-.87-.53-1.99-.54-3.01-.03-5.48-.05-10.95,0-16.43,.02-1.74-.13-3.43-.56-5.11,1.65-1.88,1.92-4.45,3.3-6.5,2.88-4.28,7.06-6.51,11.79-7.99,15.78-.02,31.56-.03,47.34-.05,.47,.26,.53,.71,.54,1.18,.28,1.03-.41,1.64-1.01,2.24-8.39,8.31-16.56,16.84-25.15,24.96-2.1,.83-4.21,1.65-4.46,4.38-2.33,2.99-5.21,5.45-7.86,8.13-2.49,2.52-2.64,2.46-4.37-.69-1.66-1.62-3.82-1.89-5.93-1.98-3.66-.16-7.36-.4-10.91,.96-.71,.27-1.48,.52-2.2-.07Z"/><path class="cls-3" d="M44.33,125.21c-14.74,.01-29.49,.02-44.23,.03-.44-2.27,.71-3.95,2.18-5.42,13.85-13.87,27.66-27.78,41.62-41.54,4.73-4.66,10.58-7.08,17.38-6.69,1.08,1.21,.89,2.71,.9,4.14,.03,5.7,.05,11.41-.01,17.11-.02,1.92,.33,3.62,1.55,5.12-.83,1.76-2.49,1.15-3.82,1.21-4.56,.2-8.47,1.73-11.73,5.01-1.97,1.98-2.95,4.26-2.95,7.02,0,3.49,.03,6.98-.02,10.46-.02,1.23,.21,2.55-.86,3.55Z"/><path class="cls-3" d="M57.87,178.88c2.56,.32,3.47-.59,3.43-3.36-.17-11.72-.07-23.45-.07-35.17,0-1.16,.14-2.33-.47-3.41,.84-1.11,2.08-.84,3.19-.87,5.56-.16,9.19-2.96,11.2-8.04,.46-1.15,.69-2.43,1.84-3.19,1.99-.18,3.66-1.21,5.43-2,.84,1.1,.59,2.4,.66,3.64,.27,5.16,3.69,8.91,8.86,9.43,3.28,.33,6.59,.34,9.7-1.08,1.86-.85,3.55-.87,5.53,.02,3.84,1.73,5.42,.36,4.93-3.77-.25-2.06-.94-4.16,.12-6.21,2.11-.89,4.28-.59,6.45-.33,2.09,1.41,2.75,3.44,2.53,5.85-.86,.04-1.37,.65-1.91,1.2-14.37,14.36-28.74,28.73-43.11,43.1-.34,.34-.59,.76-.89,1.14-1.08-.48-1.79,.33-2.63,.73-4.69,2.25-9.56,3.44-14.78,2.32Z"/><path class="cls-3" d="M161.57,88.94c7.98-8.04,15.97-16.08,23.95-24.13,.81-.82,1.54-1.72,2.31-2.59,1.22,1.94,1.64,4.17,1.65,6.35,.06,14.02,0,28.05-.04,42.07-1.09,8.11-6.8,14.04-14.21,14.76-.3,.03-.56-.04-.81-.21-2.9,0-5.81,0-8.71-.01-.95-.77-.9-1.88-.92-2.93-.05-4.25-.1-8.5,.01-12.75,.08-3.07,.75-3.66,3.83-3.82,.97-.05,1.93-.02,2.9-.06,1.45-.06,2.4-.62,2.44-2.23,.04-1.59-.66-2.57-2.27-2.84-1.25-.21-2.51-.13-3.76-.17-1.98-.06-3.04-1.01-3.12-3.02-.05-1.06-.15-2.14-.04-3.18,.28-2.61-.48-4.51-3.22-5.23Z"/><path class="cls-4" d="M82.11,122.87c-.57,3.27-3.14,2.13-5.1,2.31-.89-.88-.65-1.96-.49-3.01,.58-3.98,.28-7.92-.46-11.86-1.07-5.7-4.2-9.46-9.93-10.9-.91-.23-1.97-.23-2.55-1.19-1.92-.37-2.4-1.5-2.37-3.44,.13-7.72,.05-15.45,.05-23.18,4.16-.45,7.95,.79,11.61,2.6,.75,.37,1.39,1.07,2.36,.82,5.73,5.83,11.46,11.67,17.21,17.49,1.55,1.57,3.17,3.07,4.7,4.55-.48,1.15-1.59,.43-2.03,1.13-1.01,1.37-2.64,.98-3.99,1.39-1.11,.33-2.31,.39-3.38,.85-1.97,.85-1.91,2.55-1.57,4.21,.39,1.91,1.87,1.26,3.05,1.04,3.72-.69,7.41-1.71,11.22-.53,1.54,.48,2.88,1.16,3.61,2.69,1.37,2.87,.32,4.77-2.79,5.41-2.96,.61-6,.31-8.96,1.05-4.19,1.04-7.62,2.89-9.12,7.26-.19,.55-.5,1.06-1.08,1.31Z"/><path class="cls-2" d="M174.43,125.2c8.13-1.63,12.92-6.71,15.02-14.55,0,9.69,0,19.39,0,29.08-2.21-7.73-7.32-12.47-15.02-14.53Z"/><path class="cls-1" d="M121.19,130.4c-.7-1.75-1.39-3.5-2.09-5.25-1.25-2.22-1.76-4.52-.71-6.98,.3-2.67,.46-5.37,.92-8.01,.74-4.27,3.04-7.61,6.65-10.02,5.43-2.34,11.02-2.31,16.69-1.14,1.43,.3,2.85,.68,3.33,2.35,.2,.65,.09,1.33,.18,1.99,.38,2.94,.09,3.33-2.93,3.94-2.49-.41-5-.6-7.54-.52-3.92,.12-6.38,2.02-7.28,5.83-.72,3.06-.53,6.17-.2,9.26,.32,1.28,.46,2.6,.68,3.9,1.07,2.58,3.3,3.37,5.79,3.66,2.42,.29,4.83,.1,7.21-.41,1.43-.3,3.14-1.34,3.92,.87,1,2.83-.1,5.49-2.42,6.21-3.39,1.05-6.91,.74-10.38,.9-2.47-.24-4.79-1.03-7.09-1.92-1.82-1.31-3.42-2.85-4.74-4.67Z"/><path class="cls-1" d="M82.11,122.87c1.62-6.36,5.16-9.06,12.98-9.83,1.93-.19,3.9-.12,5.79-.5,1-.2,2.8,.81,2.94-1.31,.12-1.9-.11-3.71-2-4.79-1.21-.69-2.54-.91-3.9-.98-3.03-.15-5.99,.33-8.91,1.11-1.45,.39-3.09,1.34-3.83-.94-.9-2.77,.05-5.49,2.23-6.03,2.53-.63,5.13-.95,7.7-1.4,2.03,.07,4.08,.04,6.1,.24,6.92,.68,10.21,4,10.9,10.89,.1,.96,.25,1.91,.37,2.87,.46,4.34,.82,8.67-.02,13.01-.29,2.14,.11,4.22,.44,6.32,.23,1.45,1.21,3.4-.45,4.25-1.87,.95-4.33,1.17-6.05-.33-1.33-1.16-2.18-1-3.48-.3-3.56,1.89-7.43,2.15-11.33,1.64-5.62-.73-9.2-4.77-9.44-10.42-.05-1.16-.04-2.32-.06-3.48Z"/><path class="cls-4" d="M112.47,125.2c-.35-4.34-.39-8.67,.02-13.01,1.67,2.28,3.72,4.2,5.9,5.98,.24,2.32,.47,4.65,.71,6.98-2.21,.02-4.42,.03-6.63,.05Z"/><path class="cls-1" d="M161.57,88.94c3.46-.65,3.95-.26,3.97,3.15,.01,1.65,.16,3.32-.04,4.94-.3,2.42,.77,3.06,2.94,2.79,.96-.12,1.94,.06,2.91-.03,2.75-.26,3.8,.81,3.69,3.67-.09,2.38-.81,3.22-3.23,3.21-6.28-.03-6.3,.06-6.27,6.32,.02,4.06,.1,8.13,.16,12.19,.42,3.33,1.82,4.71,5.38,4.59,2.67-.09,4.25,.3,3.93,3.54-.29,2.99-.71,3.57-4.26,3.59-2.03,.02-4.04,.03-6.04-.55-4.27-1.22-6.75-3.93-7.39-8.33-.14-.95-.31-1.9-.47-2.86-.9-1.06-.82-2.34-.83-3.6-.03-3.68-.04-7.37,0-11.05,.02-1.93-.48-3.18-2.72-3.19-2.37-.01-3.84-1.22-4.07-3.66-.19-2.15,1.2-3.92,3.76-4.37,2.07-.36,3.13-1.28,3.1-3.42-.01-.79,.38-1.49,.76-2.18-.29-3.42,2.27-4.04,4.71-4.78Z"/><path class="cls-3" d="M156.87,93.72c.04,.48,.11,.96,.12,1.44,.07,4.39,.07,4.49-4.19,4.88-2.46,.22-2.67,1.67-2.66,3.6,.01,2.02,.78,2.98,2.93,3.02,3.92,.07,3.94,.16,3.92,4.03-.03,4.83-.08,9.67-.12,14.5-8.32,0-16.63-.02-24.95,.01-1.02,0-2.15-.37-3.02,.55-.9-.97-1.27-2.13-1.22-3.44,.23-1.12,1.12-1.78,1.86-2.51,4.49-4.36,8.69-9.01,13.39-13.15,2.17,.34,3.22-.5,2.99-2.78-.08-.83,.03-1.68,.06-2.53,.22,.6,.45,1.21,.76,2.06,3.42-3.27,6.77-6.48,10.13-9.68Z"/><path class="cls-1" d="M63.58,98.22c9.5,1.37,13.48,6.29,13.94,17.12,.14,3.3-.33,6.56-.51,9.84-.35,.99-.69,1.99-1.05,2.98-2.03,5.62-5.99,8.5-12.02,8.74-1.06,.04-2.13,.03-3.19,.04-2.59-.37-5.04-1.2-7.92-2.63,0,2.39,0,4.43,0,6.48,0,3,.01,5.99,0,8.99-.02,3.72-.53,4.24-4.14,4.24-3.63,0-4.21-.57-4.23-4.18-.05-8.21-.09-16.43-.14-24.64,.04-4.35,.29-8.71,.09-13.05-.27-5.86,2.77-9.42,7.57-11.92,3.64-1.9,7.61-2.04,11.6-2.02Z"/><path class="cls-4" d="M142.93,106.65c-.1,1.2-1.06,1.8-1.81,2.52-4.52,4.35-8.65,9.08-13.45,13.14-1.04-3.92-.89-7.82,.46-11.61,1.02-2.85,3.15-4.54,6.25-4.86,2.9-.3,5.77-.26,8.54,.8Z"/><path class="cls-4" d="M90.52,125.18c-.04-3.65,1.13-5.2,4.59-5.86,1.52-.29,3.07-.44,4.61-.59,4.13-.39,4.14-.38,4.12,3.84,0,.87-.06,1.74-.09,2.61-4.41,1.47-8.81,1.47-13.22,0Z"/><path class="cls-3" d="M90.52,125.18c4.41,0,8.81,0,13.22,0,.52,1.95-.33,3.03-2.13,3.74-2.1,.83-4.23,1.3-6.48,1.08-2.89-.29-4.62-1.74-4.61-4.82Z"/><path class="cls-4" d="M61.27,105.46c4.22,.31,6.15,1.84,7.08,5.86,.92,4,.85,8.04,.13,12.07-.57,3.22-2.22,5.69-5.61,6.21-3.7,.57-7.32,.32-9.84-3.12-.67-2.86-.04-5.2,2.24-7.26,2.73-2.46,4.23-5.67,4.85-9.34,.25-1.48,.04-3.13,1.14-4.41Z"/><path class="cls-3" d="M61.27,105.46c.09,6-1.63,11.32-6.37,15.22-2.03,1.67-1.69,3.73-1.86,5.79-.56-5.67-.19-11.36-.18-17.03,0-2.16,2.09-2.61,3.61-3.28,1.49-.66,3.12-1.03,4.8-.7Z"/></g><g><path class="cls-2" d="M211.44,70.93h4.58v10c.65-.5,1.43-.92,2.37-1.24,.93-.32,1.95-.48,3.05-.48,1.44,0,2.67,.27,3.69,.8s1.85,1.24,2.49,2.13c.65,.89,1.12,1.91,1.42,3.08,.3,1.17,.45,2.39,.45,3.65,0,1.71-.27,3.2-.82,4.45-.55,1.26-1.26,2.3-2.14,3.13-.88,.83-1.87,1.44-2.98,1.84-1.11,.4-2.23,.6-3.37,.6-.88,0-1.69,0-2.43-.03-.74-.02-1.45-.04-2.14-.08s-1.37-.09-2.04-.15c-.68-.06-1.38-.15-2.12-.26v-27.45Zm4.58,24.58c.49,.18,1.06,.32,1.72,.43,.65,.11,1.33,.17,2.03,.17s1.37-.16,1.97-.49c.6-.33,1.12-.81,1.55-1.43,.43-.63,.77-1.39,1.01-2.29,.24-.9,.36-1.92,.36-3.05,0-.93-.09-1.77-.26-2.53-.18-.76-.45-1.41-.83-1.95-.38-.54-.85-.96-1.44-1.25-.58-.29-1.28-.44-2.09-.44-.38,0-.75,.03-1.14,.08-.38,.05-.75,.12-1.1,.21-.35,.09-.68,.19-.99,.31-.31,.12-.58,.25-.8,.39v11.85Z"/><path class="cls-2" d="M237.09,79.5v13.03c0,.5,.07,.94,.22,1.3,.15,.36,.34,.66,.59,.89,.25,.23,.54,.4,.87,.5,.33,.11,.7,.16,1.08,.16,.87,0,1.77-.11,2.69-.33,.93-.22,1.77-.55,2.52-1.01v-14.54h4.58v15.7c0,.31,.04,.74,.11,1.31,.07,.57,.18,1.24,.32,2h-4.33c-.02-.07-.06-.2-.11-.4-.05-.19-.11-.4-.16-.62-.05-.22-.1-.43-.15-.63-.05-.2-.08-.35-.09-.44-.4,.35-.85,.68-1.35,.98-.5,.3-1.02,.56-1.57,.77-.55,.22-1.09,.38-1.65,.5-.55,.12-1.08,.18-1.58,.18-1.27,0-2.32-.17-3.16-.52-.84-.35-1.51-.82-2.02-1.42-.5-.6-.86-1.3-1.07-2.11-.21-.81-.32-1.68-.32-2.61v-12.69h4.58Z"/><path class="cls-2" d="M253.81,73.55c0-.36,.07-.7,.2-1,.13-.3,.32-.57,.55-.79,.23-.22,.5-.4,.81-.52,.31-.12,.64-.19,.99-.19,.38,0,.72,.07,1.02,.2,.31,.14,.57,.32,.79,.55,.22,.23,.39,.5,.51,.81s.18,.64,.18,.98-.06,.66-.18,.97-.29,.58-.51,.81c-.22,.23-.49,.42-.79,.56s-.65,.21-1.02,.21c-.35,0-.68-.07-.99-.22-.31-.15-.58-.34-.81-.58-.23-.24-.41-.52-.55-.83-.14-.31-.2-.63-.2-.96Zm.23,5.95h4.58v19.01h-4.58v-19.01Z"/><path class="cls-2" d="M262.6,70.93h4.58v22.99c0,.6,.1,1.02,.29,1.27,.19,.25,.46,.37,.8,.37,.39,0,.72-.05,.99-.16,.27-.11,.58-.23,.93-.37l.77,2.36c-.29,.2-.61,.39-.96,.56-.35,.18-.71,.33-1.09,.47-.38,.13-.77,.24-1.18,.33-.4,.08-.81,.12-1.21,.12-.5,0-.99-.05-1.46-.16s-.89-.31-1.25-.61c-.36-.3-.66-.71-.88-1.24s-.33-1.21-.33-2.04v-23.89Z"/><path class="cls-2" d="M280.72,79.21c.92,0,1.69,.1,2.32,.3,.63,.2,1.16,.45,1.58,.76v-9.33h4.58v21.04c0,.49,.02,1.02,.07,1.57,.05,.55,.12,1.11,.23,1.68,.11,.57,.24,1.14,.4,1.7,.16,.56,.36,1.1,.6,1.6h-4.28c-.12-.09-.24-.22-.36-.37s-.24-.32-.36-.49c-.12-.18-.22-.36-.32-.55s-.17-.38-.23-.55c-.63,.74-1.36,1.31-2.19,1.72-.83,.4-1.77,.61-2.83,.61-1.33,0-2.51-.25-3.56-.76-1.05-.5-1.94-1.2-2.67-2.08-.73-.88-1.28-1.92-1.66-3.13-.38-1.21-.57-2.52-.57-3.93,0-1.27,.21-2.49,.63-3.66s1.03-2.21,1.83-3.12c.8-.9,1.77-1.63,2.9-2.17,1.14-.55,2.43-.82,3.87-.82Zm.04,16.2c.72,0,1.37-.07,1.97-.22,.6-.15,1.23-.41,1.9-.78v-11.02c-.49-.22-1.02-.4-1.57-.53-.55-.13-1.14-.19-1.78-.19-.8,0-1.51,.16-2.12,.49s-1.14,.77-1.56,1.33c-.42,.56-.75,1.21-.97,1.95-.22,.75-.33,1.53-.33,2.37s.09,1.66,.27,2.46c.18,.79,.46,1.5,.83,2.11,.37,.62,.83,1.11,1.39,1.48,.56,.37,1.21,.55,1.96,.55Z"/><path class="cls-2" d="M293.85,73.55c0-.36,.07-.7,.2-1,.13-.3,.32-.57,.55-.79,.23-.22,.5-.4,.81-.52,.31-.12,.64-.19,.99-.19,.38,0,.72,.07,1.02,.2,.31,.14,.57,.32,.79,.55,.22,.23,.39,.5,.51,.81s.18,.64,.18,.98-.06,.66-.18,.97-.29,.58-.51,.81c-.22,.23-.49,.42-.79,.56s-.65,.21-1.02,.21c-.35,0-.68-.07-.99-.22-.31-.15-.58-.34-.81-.58-.23-.24-.41-.52-.55-.83-.14-.31-.2-.63-.2-.96Zm.23,5.95h4.58v19.01h-4.58v-19.01Z"/><path class="cls-2" d="M303.05,82.76c0-.38,0-.86-.03-1.45-.02-.59-.08-1.19-.2-1.8h4.31c.03,.08,.07,.2,.11,.34,.03,.15,.07,.31,.11,.48,.04,.17,.08,.35,.11,.53,.03,.18,.06,.35,.08,.5,.28-.26,.62-.52,1.02-.77,.4-.26,.84-.49,1.31-.7,.48-.21,.99-.37,1.54-.49,.55-.12,1.13-.18,1.73-.18,.99,0,1.9,.15,2.75,.46,.85,.31,1.59,.75,2.22,1.32,.63,.58,1.12,1.28,1.49,2.11,.36,.83,.55,1.78,.55,2.83v12.59h-4.58v-11.73c0-.76-.08-1.41-.23-1.94-.15-.53-.38-.95-.68-1.28-.3-.32-.67-.56-1.1-.7-.43-.15-.93-.22-1.5-.22-.33,0-.68,.03-1.06,.08-.38,.05-.76,.13-1.15,.24-.39,.11-.78,.23-1.16,.37s-.74,.3-1.06,.48v14.7h-4.58v-15.76Z"/><path class="cls-2" d="M337.83,82.41c.29,.35,.55,.85,.77,1.5,.22,.65,.33,1.43,.33,2.34,0,1.03-.22,1.95-.65,2.76-.43,.81-.99,1.49-1.66,2.05-.67,.56-1.41,.98-2.22,1.28-.8,.29-1.58,.44-2.32,.44-1.04,0-1.9-.07-2.58-.2-.68-.13-1.24-.31-1.7-.52-.23,.2-.45,.44-.63,.71-.19,.28-.28,.6-.28,.96,0,.16,.1,.32,.29,.46,.19,.14,.45,.28,.76,.4,.31,.13,.67,.25,1.08,.36,.41,.11,.83,.21,1.27,.3s.87,.17,1.29,.25c.43,.08,.82,.14,1.19,.2,.61,.11,1.24,.21,1.87,.32,.64,.11,1.26,.23,1.87,.39,.61,.15,1.19,.34,1.73,.56,.54,.22,1.02,.5,1.43,.85,.41,.34,.73,.75,.97,1.22,.23,.48,.35,1.04,.35,1.7,0,.88-.16,1.64-.47,2.29-.31,.65-.73,1.2-1.25,1.66-.52,.46-1.13,.84-1.82,1.13-.69,.29-1.42,.52-2.19,.69-.77,.17-1.56,.28-2.36,.34-.8,.06-1.58,.09-2.32,.09-1.36,0-2.54-.09-3.54-.28-1-.19-1.82-.45-2.46-.79-.65-.34-1.12-.75-1.44-1.21s-.47-.99-.47-1.57c0-.65,.11-1.21,.33-1.71,.22-.49,.5-.94,.85-1.33,.35-.39,.75-.74,1.21-1.04,.45-.3,.91-.58,1.38-.84-.25-.14-.55-.3-.91-.47-.36-.17-.7-.39-1.04-.66-.33-.27-.62-.6-.85-1-.23-.4-.35-.89-.35-1.48,0-.41,.08-.79,.24-1.14s.38-.67,.66-.97c.28-.29,.61-.56,.99-.79,.38-.23,.8-.44,1.24-.62-.48-.35-.89-.72-1.21-1.09-.33-.38-.6-.78-.81-1.21-.21-.43-.36-.89-.46-1.38-.09-.49-.14-1.04-.14-1.64,0-1.06,.2-1.98,.59-2.78,.39-.8,.94-1.48,1.64-2.03,.7-.56,1.53-.98,2.5-1.27,.97-.29,2.03-.43,3.18-.43,.5,0,.95,.02,1.35,.07,.39,.05,.76,.12,1.11,.21s.69,.21,1.04,.34c.35,.14,.74,.3,1.17,.48,1.01-.31,1.97-.51,2.89-.63,.92-.11,1.78-.17,2.59-.17l-.76,3.42-3.27-.53Zm-9.61,16.39c-.25,.19-.45,.4-.62,.64-.16,.24-.3,.49-.4,.76s-.18,.53-.23,.79-.07,.52-.07,.77c0,.35,.12,.7,.35,1.05,.23,.35,.54,.65,.92,.92,.38,.26,.82,.48,1.31,.64,.49,.16,1,.25,1.51,.25,1.1,0,2.03-.08,2.78-.24,.75-.16,1.35-.37,1.8-.64,.45-.27,.77-.59,.96-.95,.19-.36,.29-.76,.29-1.18,0-.27-.11-.51-.32-.71-.21-.21-.5-.39-.87-.55-.37-.16-.81-.3-1.31-.42s-1.06-.25-1.65-.38c-.94-.2-1.76-.36-2.47-.48-.71-.12-1.37-.21-1.98-.26Zm3.33-8.73c.65,0,1.16-.12,1.55-.36,.39-.24,.68-.56,.89-.95,.21-.39,.34-.85,.4-1.37,.06-.52,.1-1.07,.1-1.63,0-1.35-.28-2.33-.84-2.94-.56-.61-1.37-.92-2.44-.92-.93,0-1.68,.31-2.26,.93-.58,.62-.87,1.56-.87,2.8,0,.59,.06,1.15,.18,1.68,.12,.53,.32,1,.6,1.41,.28,.4,.63,.73,1.07,.98,.44,.25,.98,.37,1.61,.37Z"/></g><g><path class="cls-2" d="M211.26,109.08h4.58v22.99c0,.6,.1,1.02,.29,1.27,.19,.25,.46,.37,.8,.37,.39,0,.72-.05,.99-.16,.27-.11,.58-.23,.93-.37l.77,2.36c-.29,.2-.61,.39-.96,.56-.35,.18-.71,.33-1.09,.47-.38,.13-.77,.24-1.18,.33-.4,.08-.81,.12-1.21,.12-.5,0-.99-.05-1.46-.16s-.89-.31-1.25-.61c-.36-.3-.66-.71-.88-1.24s-.33-1.21-.33-2.04v-23.89Z"/><path class="cls-2" d="M229.71,137.15c-1.55,0-2.92-.24-4.11-.72-1.19-.48-2.19-1.16-3-2.05-.81-.89-1.42-1.95-1.84-3.2-.42-1.25-.63-2.64-.63-4.18,0-1.3,.19-2.54,.58-3.7,.39-1.16,.97-2.18,1.76-3.06,.79-.88,1.78-1.58,2.97-2.1,1.19-.52,2.59-.77,4.2-.77s2.99,.26,4.16,.77c1.16,.52,2.12,1.22,2.87,2.12,.75,.9,1.31,1.95,1.66,3.17,.36,1.21,.54,2.51,.54,3.9s-.21,2.62-.63,3.81-1.02,2.23-1.81,3.12c-.79,.89-1.75,1.6-2.89,2.11-1.13,.52-2.41,.77-3.83,.77Zm-.16-3.17c.77,0,1.44-.21,2.01-.63,.56-.42,1.03-.98,1.39-1.67,.36-.69,.63-1.47,.81-2.34,.18-.87,.26-1.75,.26-2.66,0-.83-.08-1.62-.24-2.37-.16-.75-.42-1.4-.78-1.95-.36-.56-.83-1-1.41-1.33-.58-.33-1.27-.49-2.1-.49-.74,0-1.39,.17-1.96,.51-.57,.34-1.04,.81-1.42,1.4-.38,.59-.66,1.3-.85,2.11-.19,.82-.29,1.7-.29,2.65,0,.77,.08,1.56,.26,2.36,.17,.8,.44,1.53,.81,2.18,.37,.66,.85,1.19,1.43,1.61,.58,.42,1.28,.62,2.09,.62Z"/><path class="cls-2" d="M258.49,133.41c-.53,.75-1.09,1.36-1.69,1.81-.6,.46-1.23,.81-1.88,1.07-.66,.25-1.34,.42-2.03,.5-.7,.08-1.41,.12-2.12,.12-1.69,0-3.13-.28-4.32-.83-1.19-.55-2.17-1.28-2.92-2.18-.76-.9-1.31-1.93-1.65-3.09-.35-1.16-.52-2.34-.52-3.55,0-1.42,.21-2.73,.63-3.94,.42-1.21,1.04-2.26,1.87-3.14,.82-.89,1.85-1.58,3.07-2.08,1.23-.5,2.65-.75,4.27-.75,.65,0,1.27,.03,1.87,.09,.6,.06,1.18,.17,1.73,.34,.56,.17,1.09,.4,1.6,.7s1,.68,1.47,1.14l-2.85,2.94c-.34-.35-.66-.65-.95-.9s-.6-.45-.92-.61-.65-.27-.99-.34c-.35-.07-.74-.11-1.17-.11-.85,0-1.57,.19-2.17,.56-.6,.38-1.1,.86-1.5,1.46-.39,.6-.68,1.27-.86,2.01-.18,.74-.27,1.47-.27,2.2,0,.95,.09,1.84,.28,2.68,.19,.83,.48,1.56,.88,2.17,.4,.62,.9,1.1,1.51,1.45,.61,.35,1.34,.53,2.18,.53,.4,0,.78-.04,1.15-.11s.73-.2,1.08-.4,.7-.46,1.05-.8c.35-.34,.7-.78,1.06-1.32l3.12,2.36Z"/><path class="cls-2" d="M260.39,120.24c1-.9,2.18-1.61,3.56-2.12,1.37-.51,2.82-.77,4.33-.77,1.02,0,2,.12,2.94,.35s1.77,.59,2.5,1.07c.73,.48,1.31,1.1,1.74,1.86,.43,.76,.65,1.65,.65,2.68v8.49c0,.41,.02,.75,.07,1.03,.05,.28,.13,.49,.24,.65,.11,.16,.25,.27,.43,.33,.18,.06,.39,.1,.65,.1,.09,0,.27-.02,.53-.05,.26-.04,.5-.08,.74-.12l.49,2.02c-.28,.18-.57,.34-.86,.49-.29,.15-.61,.28-.94,.4s-.7,.2-1.09,.27-.82,.11-1.29,.11c-.88,0-1.62-.2-2.21-.61-.59-.4-.97-.98-1.14-1.73-.49,.46-1,.84-1.53,1.14s-1.06,.55-1.59,.72c-.53,.18-1.07,.3-1.6,.37-.53,.07-1.05,.11-1.56,.11-.86,0-1.63-.11-2.31-.33-.68-.22-1.26-.55-1.74-.99-.48-.44-.85-.99-1.11-1.64-.26-.65-.39-1.41-.39-2.28,0-.97,.15-1.83,.45-2.56,.3-.73,.71-1.36,1.24-1.89,.53-.53,1.16-.97,1.88-1.31,.73-.35,1.52-.62,2.39-.82,.86-.2,1.78-.34,2.74-.42,.96-.08,1.94-.12,2.94-.12v-.69c0-.62-.09-1.16-.26-1.6-.18-.45-.42-.81-.73-1.09-.31-.28-.68-.49-1.12-.63-.43-.13-.92-.2-1.44-.2-.45,0-.87,.04-1.27,.11-.4,.08-.8,.21-1.21,.4s-.82,.45-1.26,.77-.92,.74-1.44,1.24l-2.41-2.75Zm11.14,6.5c-1.36,.06-2.48,.21-3.35,.44-.87,.23-1.57,.54-2.08,.92-.51,.38-.87,.83-1.07,1.34-.2,.51-.3,1.07-.3,1.68,0,.52,.06,.94,.18,1.29,.12,.34,.28,.62,.5,.83,.22,.21,.48,.36,.78,.45,.31,.09,.64,.13,1,.13,.33,0,.67-.02,1.01-.05,.35-.04,.7-.1,1.06-.2,.36-.1,.73-.24,1.11-.41,.38-.18,.76-.4,1.14-.67v-5.74Z"/><path class="cls-2" d="M280.73,109.08h4.58v22.99c0,.6,.1,1.02,.29,1.27,.19,.25,.46,.37,.8,.37,.39,0,.72-.05,.99-.16,.27-.11,.58-.23,.93-.37l.77,2.36c-.29,.2-.61,.39-.96,.56-.35,.18-.71,.33-1.09,.47-.38,.13-.77,.24-1.18,.33-.4,.08-.81,.12-1.21,.12-.5,0-.99-.05-1.46-.16s-.89-.31-1.25-.61c-.36-.3-.66-.71-.88-1.24s-.33-1.21-.33-2.04v-23.89Z"/></g><g><path class="cls-2" d="M215.7,155.15c.07,.18,.15,.43,.23,.75s.14,.64,.18,.94c.28-.25,.58-.49,.9-.73,.32-.24,.67-.45,1.06-.63s.82-.33,1.29-.45c.48-.12,1.01-.18,1.61-.18,1.53,0,2.81,.26,3.84,.79,1.03,.53,1.86,1.23,2.47,2.11s1.06,1.9,1.32,3.05,.4,2.35,.4,3.59c0,1.35-.18,2.64-.54,3.88s-.9,2.33-1.62,3.27c-.72,.95-1.63,1.7-2.73,2.26-1.1,.56-2.39,.85-3.86,.85s-2.81-.45-3.96-1.36v8.84h-4.58v-23.38c0-.07,0-.25,0-.53,0-.28-.02-.6-.04-.96-.02-.36-.05-.73-.09-1.12s-.1-.72-.18-1h4.31Zm4.17,3.15c-.62,0-1.22,.07-1.79,.22s-1.17,.39-1.8,.73v10.88c.32,.26,.63,.46,.94,.6,.31,.14,.63,.25,.95,.32,.32,.07,.65,.11,.99,.12,.33,.01,.68,.02,1.03,.02,.7,0,1.31-.2,1.8-.59,.5-.39,.91-.91,1.22-1.56,.32-.65,.55-1.38,.7-2.2s.23-1.66,.23-2.52-.08-1.67-.25-2.41c-.16-.74-.42-1.38-.76-1.91-.34-.53-.78-.95-1.33-1.25s-1.19-.45-1.95-.45Z"/><path class="cls-2" d="M236.21,155.15c.25,1.24,.42,2.51,.53,3.8,.22-.52,.55-1.02,.97-1.51,.42-.49,.89-.93,1.41-1.31,.52-.38,1.06-.69,1.63-.92,.57-.23,1.11-.35,1.63-.35,.65,0,1.13,.04,1.44,.12,.32,.08,.57,.16,.76,.25l-.99,4.14c-.38-.18-.72-.3-1.05-.36s-.64-.1-.96-.1c-1.09,0-2.03,.26-2.81,.77-.78,.52-1.42,1.2-1.91,2.04l.04,12.45h-4.61v-15.81c0-.2,0-.45,0-.76,0-.31-.01-.62-.02-.93,0-.32-.02-.61-.04-.89-.02-.28-.04-.48-.06-.63h4.05Z"/><path class="cls-2" d="M254.93,174.64c-1.55,0-2.92-.24-4.11-.72-1.19-.48-2.19-1.16-3-2.05s-1.42-1.95-1.84-3.2c-.42-1.25-.63-2.64-.63-4.18,0-1.3,.19-2.54,.58-3.7s.97-2.18,1.76-3.06c.79-.88,1.78-1.58,2.97-2.1,1.19-.52,2.59-.77,4.2-.77s2.99,.26,4.16,.77c1.16,.52,2.12,1.22,2.87,2.12,.75,.9,1.31,1.95,1.66,3.17,.36,1.21,.54,2.51,.54,3.9s-.21,2.62-.63,3.81c-.42,1.19-1.02,2.23-1.81,3.12-.79,.89-1.75,1.6-2.89,2.11s-2.41,.77-3.83,.77Zm-.16-3.17c.77,0,1.44-.21,2.01-.63,.56-.42,1.03-.98,1.39-1.67s.63-1.47,.81-2.34,.26-1.75,.26-2.66c0-.83-.08-1.62-.24-2.37s-.42-1.4-.78-1.95c-.36-.56-.83-1-1.41-1.33-.58-.33-1.27-.49-2.1-.49-.74,0-1.39,.17-1.96,.51-.57,.34-1.04,.81-1.42,1.4-.38,.59-.66,1.3-.85,2.11-.19,.82-.29,1.7-.29,2.65,0,.77,.08,1.56,.26,2.36,.17,.8,.44,1.53,.81,2.18,.37,.66,.85,1.19,1.43,1.61,.58,.42,1.28,.62,2.09,.62Z"/><path class="cls-2" d="M271.27,155.15c.07,.19,.15,.46,.23,.8,.08,.35,.15,.66,.19,.94,.29-.26,.65-.51,1.08-.75s.89-.46,1.39-.65c.5-.19,1.03-.35,1.58-.47,.56-.12,1.11-.18,1.66-.18,1.04,0,1.98,.18,2.8,.55,.82,.37,1.46,.85,1.9,1.44,.54-.36,1.06-.67,1.57-.92,.5-.25,1.01-.46,1.51-.62,.5-.16,1.02-.27,1.55-.34,.53-.07,1.09-.11,1.69-.11,1.02,0,1.9,.15,2.62,.45,.73,.3,1.32,.71,1.79,1.23s.8,1.14,1.02,1.85,.33,1.47,.33,2.28v13.5h-4.58v-12.24c0-.72-.07-1.31-.22-1.77-.15-.46-.36-.83-.63-1.11-.28-.28-.61-.47-1.01-.58-.4-.11-.85-.17-1.36-.17-.56,0-1.11,.06-1.65,.18-.53,.12-1.11,.32-1.73,.6,.09,.27,.16,.58,.21,.92,.05,.35,.07,.75,.07,1.21v12.96h-4.58v-12.24c0-.73-.07-1.33-.2-1.8-.13-.47-.34-.84-.61-1.11-.27-.27-.6-.46-1-.56-.4-.11-.87-.16-1.41-.16-.7,0-1.32,.08-1.86,.25-.53,.17-1.07,.41-1.59,.71v14.89h-4.58v-16.8c0-.4,0-.8-.02-1.2-.01-.4-.05-.74-.11-1.02h3.93Z"/><path class="cls-2" d="M298.09,149.2c0-.36,.07-.7,.2-1,.13-.3,.32-.57,.55-.79,.23-.22,.5-.4,.81-.52,.31-.12,.64-.19,.99-.19,.38,0,.72,.07,1.02,.2,.31,.14,.57,.32,.79,.55,.22,.23,.39,.5,.51,.81s.18,.64,.18,.98-.06,.66-.18,.97-.29,.58-.51,.81c-.22,.23-.49,.42-.79,.56s-.65,.21-1.02,.21c-.35,0-.68-.07-.99-.22-.31-.15-.58-.34-.81-.58-.23-.24-.41-.52-.55-.83-.14-.31-.2-.63-.2-.96Zm.23,5.95h4.58v19.01h-4.58v-19.01Z"/><path class="cls-2" d="M308.05,168.62c1.74,1.93,3.59,2.89,5.56,2.89,.43,0,.84-.04,1.21-.13,.38-.09,.7-.23,.97-.41,.27-.19,.48-.43,.64-.72,.16-.29,.24-.65,.24-1.06,0-.29-.06-.56-.19-.79-.13-.23-.3-.44-.51-.62-.21-.18-.45-.33-.7-.47-.26-.14-.52-.25-.77-.34-.48-.2-.96-.38-1.44-.54-.48-.16-.95-.34-1.43-.54-.27-.09-.6-.21-.98-.36-.38-.15-.78-.33-1.19-.55-.41-.22-.82-.47-1.21-.77-.4-.29-.76-.65-1.08-1.06s-.58-.88-.78-1.4c-.2-.52-.3-1.12-.3-1.8,0-.84,.21-1.58,.62-2.22s.96-1.16,1.64-1.59c.68-.43,1.45-.75,2.32-.97,.86-.22,1.75-.33,2.67-.33,1.46,0,2.78,.17,3.97,.51,1.19,.34,2.28,.91,3.27,1.71l-2.08,3.2c-.36-.36-.72-.69-1.06-.98s-.71-.53-1.1-.74c-.39-.2-.81-.36-1.27-.47-.46-.11-.98-.16-1.57-.16-.49,0-.92,.06-1.27,.18-.35,.12-.64,.28-.87,.48-.23,.2-.4,.43-.5,.69-.11,.26-.16,.53-.16,.81,0,.32,.08,.59,.23,.82,.15,.23,.35,.43,.59,.6s.51,.32,.82,.44,.62,.24,.93,.34c.49,.18,.99,.35,1.49,.52,.5,.17,.99,.34,1.49,.52,.25,.09,.55,.21,.9,.33,.35,.13,.72,.29,1.09,.49,.38,.2,.75,.44,1.12,.73,.37,.29,.7,.63,.99,1.04s.53,.87,.71,1.41c.18,.53,.27,1.15,.27,1.86,0,.88-.22,1.66-.65,2.33-.43,.68-1.01,1.24-1.72,1.69s-1.52,.8-2.42,1.03c-.9,.23-1.83,.35-2.78,.35-.85,0-1.64-.05-2.39-.14-.75-.09-1.46-.25-2.14-.48-.68-.22-1.32-.52-1.93-.91s-1.19-.86-1.73-1.44l2.5-3.01Z"/><path class="cls-2" d="M340.41,171.01c-.73,.77-1.43,1.4-2.1,1.87s-1.35,.83-2.02,1.08-1.35,.42-2.04,.5c-.69,.08-1.41,.12-2.17,.12-1.62,0-3.01-.28-4.16-.85-1.16-.56-2.1-1.31-2.83-2.25-.73-.94-1.27-2.02-1.62-3.24-.35-1.22-.52-2.49-.52-3.8s.18-2.48,.54-3.64c.36-1.16,.9-2.17,1.64-3.05s1.65-1.58,2.76-2.11c1.11-.53,2.41-.79,3.92-.79,1.34,0,2.51,.18,3.52,.55,1.01,.36,1.85,.89,2.53,1.57,.67,.68,1.18,1.51,1.52,2.47,.34,.97,.51,2.05,.51,3.25,0,.46-.01,.93-.04,1.42-.03,.49-.09,.99-.19,1.52h-11.88c0,.55,.1,1.16,.3,1.81,.2,.66,.49,1.28,.87,1.86,.38,.58,.85,1.07,1.42,1.45,.56,.39,1.21,.58,1.94,.58,.63,0,1.19-.05,1.66-.14,.48-.09,.92-.25,1.32-.46s.79-.49,1.16-.84c.37-.35,.77-.78,1.19-1.29l2.78,2.41Zm-8.87-12.73c-.74,0-1.35,.13-1.83,.39-.48,.26-.86,.6-1.14,1.02s-.48,.9-.6,1.44c-.12,.54-.18,1.1-.18,1.67h7.27c0-.49-.04-1.01-.11-1.54-.07-.53-.23-1.02-.48-1.46-.25-.44-.6-.8-1.06-1.09-.46-.29-1.09-.43-1.88-.43Z"/><path class="cls-2" d="M342.6,171.89c0-.35,.06-.68,.19-.99,.13-.31,.31-.57,.53-.8,.22-.23,.48-.41,.78-.54,.3-.13,.61-.19,.94-.19s.64,.07,.93,.19c.29,.13,.55,.31,.77,.54,.22,.23,.4,.5,.52,.8s.18,.63,.18,.99-.06,.68-.18,.99-.3,.57-.52,.8c-.22,.23-.48,.41-.77,.54-.29,.13-.6,.19-.93,.19s-.64-.06-.94-.19c-.3-.13-.56-.31-.78-.54-.22-.23-.4-.5-.53-.8-.13-.31-.19-.63-.19-.99Z"/></g></g></g></svg>