<?xml version="1.0" encoding="UTF-8"?><svg id="Layer_2" xmlns="http://www.w3.org/2000/svg" viewBox="0 0 491.04 107.97"><defs><style>.cls-1{fill:#5b4cff;}</style></defs><g id="Layer_1-2"><g><path class="cls-1" d="M230.05,0V59.99c-2.27,0-4.45,.05-6.64-.04-.39-.02-.83-.56-1.14-.94-11.46-14.19-22.91-28.38-34.37-42.58-.24-.3-.5-.58-.96-1.11V59.9h-8.43c-.03-.34-.09-.68-.09-1.02,0-19.39,0-38.77,0-58.16,0-.24,.03-.48,.04-.72,2.32,0,4.64,0,6.96,0,.06,.1,.12,.21,.19,.3,11.71,14.51,23.41,29.03,35.12,43.54,.16,.2,.35,.38,.69,.76,.03-.63,.07-1.01,.07-1.39,0-14.01,0-28.02,0-42.02,0-.4-.06-.79-.09-1.19,2.88,0,5.76,0,8.64,0Z"/><path class="cls-1" d="M101.47,0V7.39h-33.73V25.87h29.98v7.27h-30.02v19.44h34.9v7.43c-.52,0-.99,0-1.46,0-13.51,0-27.02-.02-40.53,.03-1.19,0-1.54-.27-1.54-1.51,.04-18.99,.03-37.99,.03-56.98,0-.51-.06-1.03-.09-1.54,14.15,0,28.31,0,42.46,0Z"/><path class="cls-1" d="M167.44,0c-.29,.37-.56,.76-.88,1.11-7.88,8.31-15.77,16.62-23.66,24.94-.3,.31-.58,.64-.93,1.02,9.04,10.92,18.03,21.8,27.2,32.88-.59,.03-.96,.06-1.33,.06-2.44,0-4.88-.04-7.31,.02-.94,.03-1.54-.3-2.13-.99-7.01-8.19-14.05-16.35-21.08-24.52-.31-.36-.63-.71-1.04-1.18-.32,.3-.61,.55-.88,.82-3.17,3.21-6.36,6.4-9.5,9.64-.39,.4-.67,1.09-.67,1.65-.05,4.78-.03,9.57-.03,14.46h-8.56c0-.51,0-1.01,0-1.5,0-18.95,0-37.9,0-56.84,0-.52-.04-1.03-.05-1.55,2.88,0,5.76,0,8.64,0V33.54c.47-.45,.76-.7,1.03-.98,4.76-4.89,9.52-9.78,14.27-14.68C146.3,11.92,152.07,5.96,157.84,0,161.04,0,164.24,0,167.44,0Z"/><path class="cls-1" d="M429.15,0c-.01,1.95-.08,3.91,0,5.86,.04,1.13-.27,1.5-1.46,1.5-10.23-.05-20.47-.03-30.7-.03q-1.7,0-1.7,1.71c0,5.15,0,10.29,0,15.44,0,1.57,.03,1.6,1.62,1.6,8.95,0,17.91,0,26.86,0q1.71,0,1.71,1.69c0,1.32-.06,2.64,.02,3.95,.06,1.02-.32,1.28-1.3,1.27-6.56-.04-13.11-.02-19.67-.02-2.56,0-5.12,.05-7.67-.02-1.19-.04-1.61,.31-1.59,1.54,.06,5.55,.02,11.09,.03,16.64,0,1.6,0,1.61,1.59,1.61,10.59,0,21.18,0,31.78,0q1.67,0,1.67,1.72c0,1.36-.05,2.72,.02,4.07,.05,1-.31,1.3-1.3,1.29-8.43-.03-16.87-.02-25.3-.02-5.08,0-10.15-.04-15.23,.03-1.25,.02-1.51-.38-1.51-1.56,.04-18.91,.03-37.83,.02-56.74,0-.51-.06-1.03-.09-1.54,14.07,0,28.15,0,42.22,0Z"/><path class="cls-1" d="M299.37,0c1.58,.19,3.16,.34,4.73,.57,6.61,.98,12.4,3.45,16.1,9.36,7.52,12.01,1.22,27.25-12.74,30.63-2.99,.72-6.14,.92-9.23,1.03-4.51,.17-9.03,.08-13.54,.02-1.13-.01-1.51,.31-1.5,1.48,.06,5.14,0,10.29,.05,15.44,0,.99-.27,1.33-1.28,1.3-1.92-.07-3.84-.07-5.75,0-1.03,.04-1.37-.36-1.26-1.32,.04-.35,0-.72,0-1.08,0-18.63,0-37.26,0-55.88,0-.52-.02-1.04-.03-1.55,8.16,0,16.31,0,24.47,0Zm-16.17,20.89c0,4.19,.02,8.37-.01,12.56,0,.81,.23,1.14,1.08,1.12,5.79-.1,11.58-.04,17.35-.29,3.39-.14,6.58-1.25,9.19-3.57,3.44-3.06,4.32-7.07,3.93-11.41-.46-5.09-3.07-8.8-7.96-10.49-2.34-.81-4.87-1.3-7.34-1.41-4.98-.21-9.98-.04-14.97-.09-.97,0-1.31,.25-1.3,1.26,.05,4.11,.02,8.21,.02,12.32Z"/><path class="cls-1" d="M489.6,0c-3.09,4.26-6.17,8.54-9.27,12.79-3.69,5.06-7.38,10.13-11.11,15.16-.59,.79-.55,1.31,.02,2.08,6.98,9.48,13.93,18.98,20.89,28.48,.25,.34,.49,.7,.92,1.3-1.8,0-3.34,.01-4.88,0-1.52-.02-3.26,.4-4.48-.22-1.21-.62-1.91-2.27-2.8-3.49-4.8-6.57-9.6-13.16-14.39-19.73-.28-.38-.57-.74-.95-1.24-.43,.54-.78,.95-1.1,1.4-5.29,7.35-10.6,14.7-15.85,22.08-.66,.93-1.35,1.27-2.47,1.24-2.54-.08-5.09-.02-7.82-.02,.29-.46,.46-.76,.66-1.04,6.94-9.46,13.87-18.93,20.86-28.36,.7-.94,.59-1.51-.04-2.36-6.51-8.93-12.99-17.89-19.48-26.84-.28-.38-.5-.81-.75-1.21,3.12,0,6.24,0,9.36,0,.07,.14,.13,.29,.22,.42,5.34,7.31,10.68,14.63,16.03,21.94,.18,.25,.41,.46,.7,.77,.3-.37,.56-.66,.79-.97,5.13-7.07,10.26-14.15,15.38-21.23,.2-.28,.31-.62,.46-.93,3.04,0,6.08,0,9.12,0Z"/><path class="cls-1" d="M49.66,0V7.4H29.09V59.93h-8.41V7.47H0V0H49.66Z"/><path class="cls-1" d="M344.47,0c-.03,.43-.09,.87-.09,1.3,0,16.59,0,33.19,0,49.78q0,1.66,1.71,1.67c9.75,0,19.5,.02,29.25-.02,1.13,0,1.58,.26,1.5,1.45-.1,1.47-.07,2.95,0,4.43,.04,.95-.3,1.23-1.24,1.23-4.87-.04-9.75-.02-14.62-.02-7.79,0-15.58-.03-23.38,.03-1.24,0-1.53-.39-1.53-1.57,.03-19.43,.02-38.85,.02-58.28C338.87,0,341.67,0,344.47,0Z"/><path class="cls-1" d="M256.67,0V59.99c-2.73,0-5.36,.01-7.99-.03-.19,0-.47-.36-.53-.6-.09-.33-.03-.71-.03-1.07,0-18.92,0-37.83,0-56.75,0-.52-.05-1.03-.08-1.55h8.64Z"/><path class="cls-1" d="M34.23,90.27c-1.82,3.04-3.63,6.09-5.45,9.13-.88,1.47-1.75,2.95-2.64,4.42-.76,1.27-1.87,1.28-2.63,.01-2.55-4.24-5.1-8.48-7.64-12.72-.14-.23-.3-.46-.66-.66v17.16h-3.29v-24.13c2.41-.48,2.62-.39,3.77,1.54,2.81,4.73,5.63,9.46,8.44,14.19,.22,.37,.45,.72,.76,1.22,.32-.52,.57-.91,.81-1.31,2.73-4.64,5.56-9.23,8.12-13.96,.96-1.78,2.14-2.09,3.94-1.71v24.17h-3.2v-17.29c-.11-.02-.22-.04-.33-.06Z"/><path class="cls-1" d="M327.45,104.93c.43-.9,.82-1.72,1.25-2.63,2.17,1.61,4.54,2.65,7.19,2.69,1.57,.02,3.18-.21,4.7-.61,1.35-.36,2.16-1.44,2.25-2.93,.09-1.55-.73-2.55-2.06-3.04-1.75-.65-3.58-1.09-5.36-1.65-1.33-.42-2.68-.81-3.95-1.37-4.7-2.06-4.16-8.09-1.17-10.2,1.29-.91,2.89-1.61,4.44-1.88,3.62-.64,7.15-.16,10.46,1.88-.38,.9-.74,1.77-1.13,2.71-2.37-1.44-4.85-2.13-7.51-1.89-1.16,.11-2.4,.38-3.42,.93-2.39,1.29-2.39,4.48,.05,5.64,1.74,.83,3.7,1.19,5.56,1.79,1.33,.42,2.68,.79,3.96,1.34,4.85,2.07,4.2,8.23,.84,10.48-2.35,1.58-4.97,1.92-7.68,1.76-3.04-.18-5.9-.94-8.44-3.01Z"/><path class="cls-1" d="M181.84,102.3c3.11,2.26,6.42,3.17,10.07,2.59,.92-.15,1.89-.47,2.66-.97,1.96-1.27,1.95-4.01-.06-5.16-1.26-.72-2.72-1.08-4.12-1.54-1.85-.61-3.77-1.04-5.58-1.75-2.22-.87-3.53-2.58-3.63-5.03-.11-2.5,.86-4.51,3-5.88,3.56-2.27,10.62-1.95,14.11,.69-.35,.84-.7,1.7-1.08,2.61-2.93-1.72-5.96-2.35-9.18-1.66-1.59,.34-2.94,1.07-3.37,2.83-.4,1.62,.16,2.94,1.91,3.66,1.72,.71,3.57,1.11,5.36,1.66,1.26,.39,2.53,.73,3.74,1.24,2.09,.88,3.49,2.37,3.67,4.75,.2,2.62-.79,4.67-3.02,6.09-1.96,1.24-4.17,1.55-6.43,1.54-2.93-.02-5.68-.69-8.22-2.21-.88-.53-1.16-1.08-.53-1.98,.29-.42,.46-.91,.73-1.47Z"/><path class="cls-1" d="M96.11,99.59h-15.02c.36,2.21,1.41,3.83,3.36,4.68,3.13,1.36,6.07,.99,8.76-1.4,.58,.66,1.14,1.31,1.75,2.02-1.32,1.65-3.06,2.58-5.02,2.77-1.8,.18-3.7,.17-5.45-.23-4.12-.95-6.71-4.58-6.72-8.93-.01-4.39,2.6-7.99,6.59-9.07,4.2-1.14,8.41,.4,10.46,3.84,1.14,1.91,1.51,3.98,1.29,6.33Zm-3.18-2.44c-.22-3.16-2.63-5.3-5.88-5.29-3.24,0-5.65,2.15-5.88,5.29h11.77Z"/><path class="cls-1" d="M247.21,102.86c.59,.69,1.16,1.34,1.77,2.05-1.81,2.04-4.08,2.78-6.62,2.97-7.49,.58-12.63-6.26-9.89-13.18,1.7-4.3,6.35-6.53,11.16-5.33,4.3,1.07,7.01,5.27,6.45,10.16h-14.99c.37,2.35,1.49,3.98,3.51,4.8,3.1,1.27,6.02,.88,8.62-1.48Zm-.27-5.7c-.26-3.21-2.65-5.31-5.91-5.3-3.25,.02-5.68,2.19-5.86,5.3h11.77Z"/><path class="cls-1" d="M312.12,102.88c.57,.66,1.11,1.29,1.72,2-1.26,1.62-2.96,2.56-4.86,2.74-1.91,.18-3.96,.21-5.79-.27-3.64-.96-5.87-3.55-6.37-7.3-.53-3.97,.54-7.45,4.17-9.6,3.37-2,6.9-1.97,10.21,.16,2.91,1.88,3.9,4.82,3.88,8.17,0,.85-.55,.8-1.13,.8-4.16,0-8.32,0-12.47,0-.43,0-.87,0-1.42,0,.21,2.15,1.24,3.67,3.01,4.54,3.2,1.58,6.26,1.2,9.07-1.23Zm-.3-5.71c-.16-3.32-2.89-5.51-6.4-5.29-3,.19-5.47,2.65-5.26,5.29h11.66Z"/><path class="cls-1" d="M55.98,97.09c.31-3.05-1.25-4.93-4.05-5.14-2.44-.18-4.67,.44-6.72,1.89-.45-.8-.87-1.55-1.34-2.39,1.59-1.32,3.41-2.05,5.37-2.16,1.85-.1,3.76-.07,5.56,.3,2.39,.5,4.13,2.2,4.27,4.61,.25,4.44,.07,8.9,.07,13.42h-2.8c-.07-.66-.13-1.3-.21-2.13-2.24,2.31-4.9,2.64-7.73,2.24-3.11-.44-5.12-2.61-5.06-5.4,.06-2.82,1.98-4.78,5.19-5.07,1.98-.18,3.99-.13,5.99-.18,.47-.01,.94,0,1.47,0Zm-3.27,2.34s0-.05,0-.08c-1.27,.09-2.55,.12-3.81,.3-1.22,.17-2.02,.93-2.27,2.16-.23,1.12,.16,2.05,1.07,2.74,2.37,1.81,7.06,.66,8.15-2.09,.33-.83,.23-1.89,.07-2.79-.03-.18-1.22-.18-1.88-.23-.44-.03-.88,0-1.32,0Z"/><path class="cls-1" d="M135.93,97.09c.35-3.08-1.21-4.96-4.09-5.15-2.4-.16-4.58,.45-6.64,1.9-.45-.79-.87-1.54-1.44-2.56,1.23-.57,2.33-1.19,3.51-1.58,2.2-.72,4.46-.84,6.74-.37,2.9,.59,4.92,2.31,5.1,5.25,.28,4.31,.07,8.66,.07,13.06h-2.87c-.03-.68-.06-1.34-.11-2.29-1.52,1.77-3.34,2.42-5.39,2.52-1.79,.09-3.52-.13-5.07-1.1-1.75-1.09-2.57-2.69-2.42-4.74,.15-2.02,1.16-3.54,3.07-4.17,1.41-.47,2.95-.63,4.45-.74,1.66-.12,3.34-.03,5.08-.03Zm.03,2.54c-2.41,0-4.76-.09-7.09,.04-1.29,.07-2.12,1.1-2.26,2.28-.15,1.31,.37,2.39,1.6,2.92,2.09,.9,4.14,.69,6.05-.51,1.77-1.11,2.04-2.81,1.69-4.72Z"/><path class="cls-1" d="M349.22,98.51c-.03-5.46,3.92-9.39,9.45-9.43,5.66-.03,9.69,3.81,9.74,9.28,.05,5.46-3.97,9.48-9.53,9.53-5.54,.05-9.63-3.92-9.66-9.39Zm3.33-.03c.01,3.84,2.61,6.54,6.28,6.53,3.69-.01,6.25-2.69,6.26-6.55,0-3.83-2.59-6.53-6.28-6.52-3.67,0-6.26,2.72-6.25,6.54Z"/><path class="cls-1" d="M438.63,89.09c5.62,0,9.64,3.91,9.62,9.4-.02,5.46-4.1,9.44-9.65,9.42-5.5-.02-9.52-3.98-9.56-9.39-.04-5.47,3.98-9.42,9.58-9.43Zm-6.26,9.41c.03,3.83,2.65,6.53,6.31,6.51,3.7-.02,6.25-2.7,6.24-6.56,0-3.84-2.59-6.52-6.29-6.51-3.66,0-6.29,2.76-6.26,6.56Z"/><path class="cls-1" d="M382.85,89.32h3.11c0,.91,0,1.77,0,2.63,0,2.43,0,4.87,0,7.3,.02,3.71,1.65,5.62,4.83,5.67,3.57,.06,5.84-2.01,5.95-5.58,.09-3.03,.03-6.06,.03-9.09,0-.27,.02-.54,.04-.9h3.18v18.26h-3.01v-2.42c-.28,.15-.43,.19-.52,.28-2.44,2.77-6.91,2.97-9.87,1.6-2.22-1.02-3.59-2.84-3.7-5.2-.19-4.13-.05-8.27-.05-12.55Z"/><path class="cls-1" d="M453,107.64v-18.28h3.07v2.64c1.52-1.64,3.12-2.53,5.02-2.79,5.35-.76,9.35,1.84,9.35,7.55,0,3.59,0,7.17,0,10.85h-3.16c-.03-.39-.1-.81-.1-1.23-.01-2.51,0-5.03,0-7.54,0-.52,0-1.04-.02-1.56-.16-4.2-3.06-6.23-7.12-4.98-2.38,.73-3.74,2.65-3.78,5.49-.04,2.83-.01,5.66-.02,8.5,0,.43,0,.86,0,1.34h-3.24Z"/><path class="cls-1" d="M258.18,107.66h-3.16v-18.27h2.99c.04,.75,.07,1.52,.12,2.47,2.52-2.6,5.49-3.19,8.76-2.53,2.88,.58,5.08,2.57,5.26,5.47,.26,4.24,.07,8.5,.07,12.84h-3.08c0-.47,0-.89,0-1.32,0-3.03,.04-6.06-.02-9.09-.06-3.29-1.77-5.09-4.84-5.21-3.25-.13-5.71,1.73-5.94,4.8-.23,3.02-.13,6.05-.17,9.08,0,.55,0,1.1,0,1.77Z"/><path class="cls-1" d="M474.43,105.75c.48-.91,.91-1.71,1.36-2.55,2.61,1.43,5.3,2.21,8.22,1.71,.61-.11,1.27-.29,1.78-.63,1.39-.93,1.27-2.82-.27-3.44-1.24-.5-2.62-.66-3.93-.98-1.16-.28-2.34-.51-3.47-.88-1.78-.59-2.9-1.8-3.08-3.73-.19-2.04,.54-3.69,2.28-4.81,2.24-1.44,4.76-1.57,7.29-1.21,1.62,.23,3.19,.79,4.95,1.25-.61,1.14-1.04,1.93-1.53,2.83-2.01-1.26-4.17-1.57-6.39-1.34-.81,.08-1.67,.33-2.35,.76-1.47,.93-1.35,2.84,.24,3.53,1.15,.5,2.45,.67,3.68,.99,1.39,.36,2.83,.57,4.14,1.12,3.03,1.28,3.66,5.12,1.28,7.42-1.89,1.83-4.32,2.14-6.8,2.11-2.58-.03-5.06-.58-7.39-2.13Z"/><path class="cls-1" d="M168.2,90.44c-.65,1.2-1.09,2-1.56,2.86-2.02-1.27-4.18-1.57-6.4-1.34-.8,.08-1.67,.34-2.34,.77-1.48,.96-1.34,2.82,.27,3.52,1.15,.5,2.45,.67,3.68,.99,1.31,.34,2.68,.53,3.93,1.02,3.39,1.35,3.95,5.55,1.11,7.86-1.67,1.35-3.67,1.72-5.73,1.77-2.84,.07-5.55-.48-8.08-2.11,.46-.87,.89-1.69,1.35-2.57,2.63,1.43,5.31,2.2,8.23,1.71,.47-.08,.95-.19,1.37-.39,.87-.4,1.34-1.09,1.31-2.09-.02-.95-.6-1.5-1.4-1.73-1.22-.36-2.48-.57-3.72-.86-1.12-.26-2.27-.47-3.36-.84-1.79-.61-2.99-1.76-3.16-3.79-.17-2.11,.57-3.76,2.38-4.87,2.19-1.35,4.63-1.49,7.07-1.15,1.63,.23,3.21,.77,5.06,1.24Z"/><path class="cls-1" d="M217.18,102.45c.79,.5,1.53,.96,2.25,1.41-1.08,2.9-5.05,4.52-9.35,3.87-4.43-.67-7.6-4.33-7.78-8.98-.17-4.49,2.68-8.3,7.01-9.36,4.36-1.06,8.71,.47,10.17,3.65-.75,.49-1.51,.98-2.26,1.47-3.63-3.18-7.34-3.38-9.93-.57-2.31,2.51-2.19,7,.26,9.37,2.62,2.54,6.5,2.23,9.63-.85Z"/><path class="cls-1" d="M294.13,93.05c-.74,.48-1.5,.98-2.26,1.47-2.79-3.53-7.45-3.15-9.82-.67-2.4,2.51-2.3,7.04,.19,9.45,2.63,2.54,6.47,2.23,9.63-.85,.74,.46,1.5,.94,2.25,1.42-1.12,2.93-5.23,4.58-9.47,3.85-4.49-.78-7.56-4.44-7.62-9.09-.06-4.67,2.81-8.35,7.2-9.29,4.85-1.03,8.99,1.07,9.9,3.71Z"/><path class="cls-1" d="M66.17,91.94h-3.05v-2.68c.51,0,1.01,0,1.51,0q1.53,0,1.53-1.58c0-.64,0-1.28,.01-1.91,0-.12,.04-.23,.07-.45h3.18v3.94h5.28v2.66h-5.26c0,1.69,0,3.23,0,4.77,0,1.67-.02,3.35,0,5.02,.04,2.9,1.97,4.17,4.66,3.07,.26-.1,.5-.24,.87-.42,.33,.73,.66,1.43,1.02,2.24-2.09,1.53-4.33,1.61-6.61,.84-2.08-.7-3.11-2.35-3.18-4.48-.09-3.15-.05-6.3-.06-9.45,0-.47,0-.94,0-1.57Z"/><path class="cls-1" d="M403.92,91.99v-2.72c.62,0,1.2-.05,1.77,.01,1.02,.12,1.48-.21,1.36-1.31-.09-.86-.02-1.73-.02-2.67h3.23v3.94h5.3v2.65h-5.26c0,.96,0,1.78,0,2.6,0,2.31-.01,4.63,0,6.94,.02,3.35,2,4.59,5.05,3.18,.14-.06,.28-.12,.51-.22,.33,.75,.64,1.47,.99,2.27-2.23,1.5-4.54,1.62-6.88,.68-2.11-.84-2.9-2.63-2.93-4.79-.04-3.03-.02-6.06-.02-9.09,0-.43,0-.87,0-1.46h-3.12Z"/><path class="cls-1" d="M373.17,81.93h3.13v25.69h-3.13v-25.69Z"/><path class="cls-1" d="M145.71,81.92h3.15v25.72h-3.15v-25.72Z"/><path class="cls-1" d="M110.75,89.1v3.03c-.64,.06-1.23,.09-1.81,.19-2.72,.46-4.43,2.12-4.61,4.87-.19,2.94-.12,5.9-.16,8.85,0,.51,0,1.02,0,1.6h-3.17v-18.27h3.03v2.88c1.82-2.37,4.03-3.18,6.72-3.15Z"/><path class="cls-1" d="M115.04,89.33h3.14v18.31h-3.14v-18.31Z"/><path class="cls-1" d="M424.23,107.65h-3.12v-18.29h3.12v18.29Z"/><path class="cls-1" d="M226.94,107.71c-.66,0-1.22,0-1.77,0-.39,0-.79,0-1.29,0v-18.35h3.06v18.35Z"/><path class="cls-1" d="M223.15,83.46c.02-1.2,1-2.11,2.27-2.1,1.31,0,2.24,.9,2.21,2.14-.03,1.23-1,2.16-2.25,2.14-1.24-.01-2.25-.99-2.23-2.17Z"/><path class="cls-1" d="M116.68,81.36c1.29,.02,2.24,.95,2.19,2.16-.05,1.22-1.04,2.14-2.29,2.11-1.27-.03-2.19-.96-2.17-2.2,.02-1.25,.95-2.1,2.26-2.08Z"/><path class="cls-1" d="M422.69,81.36c1.33,.02,2.19,.88,2.16,2.16-.03,1.24-.98,2.15-2.24,2.12-1.26-.02-2.21-.97-2.18-2.19,.02-1.24,.95-2.1,2.26-2.08Z"/></g></g></svg>