<svg width="44" height="42" viewBox="0 0 44 42" fill="none" xmlns="http://www.w3.org/2000/svg">
<g clip-path="url(#clip0_28_1419)">
<g filter="url(#filter0_d_28_1419)">
<path d="M22.5003 35.0006C32.1654 35.0006 40.0006 27.1654 40.0006 17.5003C40.0006 7.83514 32.1654 0 22.5003 0C12.8351 0 5 7.83514 5 17.5003C5 27.1654 12.8351 35.0006 22.5003 35.0006Z" fill="#5B4CFF"/>
</g>
<path d="M31.9028 23.3567L30.6099 21.9807C30.1278 21.4677 29.4816 21.1856 28.7905 21.1856C28.3174 21.1856 27.8522 21.3221 27.4443 21.5801L26.2154 22.3583C25.7929 22.6257 25.3153 22.7673 24.8343 22.7673C24.2449 22.7673 23.6831 22.5617 23.21 22.1728C22.3975 21.5053 21.6148 20.7721 20.8832 19.9939C20.1528 19.2174 19.4701 18.3903 18.8531 17.5368C18.1918 16.622 18.1924 15.4398 18.8543 14.5257L19.7066 13.348C20.4214 12.3607 20.3371 11.0516 19.5027 10.1638L18.2098 8.78832C17.7524 8.30173 17.1315 8.02248 16.4646 8.00169C16.4343 8.00056 16.4039 8 16.3736 8C15.7392 8 15.1335 8.24105 14.6688 8.67819L13.2136 10.0458C12.5399 10.679 12.2775 11.5578 12.4932 12.4568C13.3703 16.1045 15.3161 19.6095 18.1188 22.592C20.9214 25.5744 24.2989 27.7337 27.8853 28.8356C28.1399 28.9137 28.3972 28.9536 28.6506 28.9536C29.2749 28.9536 29.8581 28.7159 30.3363 28.267L31.9685 26.733V26.7151C32.3444 26.2824 32.5591 25.7363 32.5787 25.1508C32.5995 24.4805 32.359 23.8439 31.9022 23.3578L31.9028 23.3567Z" fill="white"/>
</g>
<defs>
<filter id="filter0_d_28_1419" x="1" y="0" width="43.0005" height="43.0006" filterUnits="userSpaceOnUse" color-interpolation-filters="sRGB">
<feFlood flood-opacity="0" result="BackgroundImageFix"/>
<feColorMatrix in="SourceAlpha" type="matrix" values="0 0 0 0 0 0 0 0 0 0 0 0 0 0 0 0 0 0 127 0" result="hardAlpha"/>
<feOffset dy="4"/>
<feGaussianBlur stdDeviation="2"/>
<feComposite in2="hardAlpha" operator="out"/>
<feColorMatrix type="matrix" values="0 0 0 0 0 0 0 0 0 0 0 0 0 0 0 0 0 0 0.25 0"/>
<feBlend mode="normal" in2="BackgroundImageFix" result="effect1_dropShadow_28_1419"/>
<feBlend mode="normal" in="SourceGraphic" in2="effect1_dropShadow_28_1419" result="shape"/>
</filter>
<clipPath id="clip0_28_1419">
<rect width="44" height="42" fill="white"/>
</clipPath>
</defs>
</svg>
