<?xml version="1.0" encoding="UTF-8"?><svg id="Layer_2" xmlns="http://www.w3.org/2000/svg" viewBox="0 0 35.42 53.72"><g id="Layer_1-2"><path d="M17.71,0C7.94,0,0,7.94,0,17.71c0,3.83,2.31,8.78,3.82,11.56l12.82,23.82h0c.22,.39,.62,.63,1.07,.63s.85-.24,1.07-.63l12.82-23.82c1.5-2.79,3.82-7.73,3.82-11.56C35.42,7.94,27.47,0,17.71,0h0Zm0,2.44c8.45,0,15.27,6.82,15.27,15.27,0,2.73-2.12,7.81-3.51,10.4l-11.75,21.83L5.95,28.11c-1.39-2.59-3.51-7.67-3.51-10.4C2.44,9.26,9.26,2.44,17.71,2.44h0Zm0,6.11c-5.04,0-9.16,4.12-9.16,9.16s4.12,9.16,9.16,9.16,9.16-4.12,9.16-9.16-4.12-9.16-9.16-9.16Zm0,2.44c3.72,0,6.72,2.99,6.72,6.72s-2.99,6.72-6.72,6.72-6.72-2.99-6.72-6.72,2.99-6.72,6.72-6.72h0Z"/></g></svg>