<?xml version="1.0" encoding="UTF-8"?><svg id="Layer_2" xmlns="http://www.w3.org/2000/svg" viewBox="0 0 51.01 36.43"><g id="Layer_1-2"><path d="M4.86,0C2.19,0,0,2.19,0,4.86V31.58c0,2.67,2.19,4.86,4.86,4.86H46.15c2.67,0,4.86-2.19,4.86-4.86V4.86c0-2.67-2.19-4.86-4.86-4.86H4.86Zm0,2.43H46.15c.23,0,.44,.04,.65,.09L27.17,22.32c-.96,.97-2.42,.97-3.38,0L4.23,2.5c.2-.05,.41-.08,.63-.08h0Zm-2.33,1.82l14.46,14.63L2.54,32.28c-.07-.22-.11-.45-.11-.7V4.86c0-.21,.05-.41,.09-.61h0Zm45.96,0c.05,.2,.09,.39,.09,.61V31.58c0,.25-.05,.48-.11,.7l-14.44-13.42,14.46-14.61Zm-16.19,16.34l14.38,13.34c-.17,.04-.35,.08-.53,.08H4.86c-.19,0-.36-.04-.53-.08l14.37-13.32,3.38,3.42c1.88,1.9,4.96,1.9,6.83,0l3.4-3.43h0Z"/></g></svg>