<svg width="324" height="61" viewBox="0 0 324 61" fill="none" xmlns="http://www.w3.org/2000/svg">
<path d="M287.995 49.0006C290.153 49.0006 292.323 48.9878 294.481 49.0135C295.068 49.0135 295.196 48.8206 295.196 48.2676C295.183 43.4189 295.196 38.5575 295.183 33.7088C295.183 31.6639 294.711 29.7219 293.791 27.8828C291.225 22.6998 282.645 20.7192 278.56 26.6996C278.381 26.9568 278.202 27.2011 278.024 27.4584C277.96 27.4326 277.896 27.4198 277.832 27.3941V23.7415H270.057V48.9621H277.845V48.0618C277.845 43.8434 277.819 39.6249 277.845 35.4065C277.87 32.5256 279.951 30.455 282.696 30.4807C285.339 30.5064 287.318 32.6414 287.318 35.4708C287.318 39.6892 287.318 43.9077 287.318 48.1261C287.318 48.3962 287.318 48.6534 287.318 48.9492C287.599 48.9621 287.791 48.9878 287.995 48.9878V49.0006Z" fill="#5B4CFF"/>
<path d="M299.027 12.0508V48.9492H306.892V38.6217C307.173 38.969 307.326 39.149 307.467 39.3419C309.803 42.4029 312.14 45.4509 314.463 48.5247C314.744 48.8848 315.025 49.0263 315.485 49.0263C318.076 49.0006 320.668 49.0263 323.26 49.0263H324.001C323.745 48.6791 323.605 48.4733 323.452 48.2804C320.579 44.525 317.706 40.7695 314.808 37.027C314.425 36.5382 314.387 36.2296 314.77 35.7023C317.451 31.9983 320.094 28.2686 322.737 24.5389C322.903 24.3074 323.056 24.063 323.273 23.7415C322.928 23.7286 322.711 23.7029 322.494 23.7029C319.928 23.7029 317.361 23.7029 314.782 23.7029C314.297 23.7029 314.004 23.8444 313.723 24.2431C311.629 27.2268 309.522 30.1977 307.416 33.1686C307.275 33.3616 307.135 33.5416 306.994 33.7217C306.943 33.6959 306.879 33.6831 306.828 33.6574V12.0508H299.027Z" fill="#5B4CFF"/>
<path d="M266.126 48.975V23.7416H258.478V26.3009C258.159 26.0437 257.993 25.9022 257.827 25.7608C254.648 22.867 250.971 22.2754 247.077 23.8188C242.046 25.7994 239.199 29.6963 238.701 35.0465C238.178 40.5896 240.425 44.9752 245.136 47.9332C248.839 50.2482 254.073 50.5955 257.993 46.7886C258.108 46.6729 258.274 46.5957 258.529 46.4156V48.975H266.139H266.126ZM252.35 42.3515C249.069 42.3515 246.375 39.6379 246.387 36.3068C246.387 32.9887 249.107 30.275 252.388 30.3136C255.657 30.3522 258.325 33.0401 258.338 36.3197C258.338 39.6121 255.618 42.3515 252.35 42.3515Z" fill="#5B4CFF"/>
<path d="M44.7243 10.919C47.8523 7.47227 50.9548 3.99979 54.0701 0.527303C54.1977 0.385832 54.2999 0.231499 54.4786 0H53.8786C44.0987 0 34.3188 0 24.5389 0.0257221C23.3771 0.0257221 22.1897 0.167194 21.0534 0.411554C11.0437 2.64938 4.78764 11.7293 6.1793 21.9924C6.47295 24.1402 7.14963 26.1722 8.20933 28.14C8.54128 26.8153 8.77109 25.5935 9.16689 24.4103C11.8098 16.5136 19.0361 11.3306 27.3095 11.3306C32.7867 11.3306 38.2639 11.3306 43.7412 11.3177C44.0731 11.3177 44.52 11.1763 44.7371 10.9319L44.7243 10.919Z" fill="#5B4CFF"/>
<path d="M11.9639 30.5065C11.9639 38.9819 18.769 45.8626 27.17 45.8626C35.6476 45.8626 42.4654 39.0334 42.4654 30.5322C42.4654 21.9925 35.6859 15.1504 27.2211 15.1504C18.7562 15.1504 11.9512 21.9925 11.9512 30.5065H11.9639Z" fill="#5B4CFF"/>
<path d="M80.7282 41.2713C79.5536 41.5156 78.3024 41.5928 77.1278 41.4642C75.0339 41.2455 73.1954 40.2167 71.3824 39.1878C71.076 39.0077 70.7696 38.8405 70.4249 38.6476C69.212 40.7697 68.0629 42.8146 66.8755 44.8466C66.5563 45.3868 66.5691 45.6826 67.0926 46.0556C72.4677 49.8753 78.2769 50.7113 84.4053 48.3577C88.8994 46.6343 91.5295 43.3162 91.7848 38.3389C91.9891 34.4549 90.6868 31.3168 87.3035 29.2076C85.3245 27.9858 83.1796 27.1884 80.9836 26.4682C79.9494 26.1209 78.928 25.6708 77.9577 25.1435C77.2299 24.7448 76.6554 24.1017 76.4383 23.2272C75.9532 21.3881 77.0512 19.6132 79.1323 19.2403C80.2941 19.0345 81.5709 19.0602 82.7327 19.3046C84.1244 19.6004 85.4394 20.2306 86.8694 20.7579C87.9163 18.6615 89.0015 16.488 90.1251 14.2502C89.908 14.1087 89.7676 14.0058 89.6144 13.9158C86.8311 12.1924 83.7669 11.4593 80.5367 11.3693C77.2172 11.2793 74.153 11.9866 71.5612 14.2759C66.6712 18.5972 65.5477 27.8443 73.5274 31.947C75.0595 32.7315 76.7448 33.246 78.3407 33.9019C79.4387 34.3649 80.5622 34.7893 81.5964 35.368C82.7582 36.0239 83.3839 37.0914 83.154 38.4933C82.9242 39.9337 82.1071 40.9626 80.7027 41.2584L80.7282 41.2713Z" fill="#5B4CFF"/>
<path d="M107.182 30.5191C109.378 30.1847 111.204 30.9435 112.608 32.4997C114.357 30.7378 116.055 29.0272 117.766 27.3167C115.226 24.2172 109.94 21.8636 103.926 23.6256C98.347 25.2718 94.6955 30.0047 94.504 35.805C94.3125 41.7726 97.6192 46.7626 103.071 48.7304C108.816 50.801 114.587 49.0648 117.754 45.3479C116.043 43.6245 114.319 41.8883 112.608 40.1649C109.57 42.7243 106.467 42.8915 104.092 40.5765C101.858 38.3901 101.641 35.0205 103.582 32.6155C104.514 31.458 105.714 30.7249 107.182 30.5063V30.5191Z" fill="#5B4CFF"/>
<path d="M29.8376 61C30.3993 61 30.9611 60.9486 31.5229 60.8843C42.7838 59.6753 50.4953 48.8721 48.044 37.7344C47.6737 36.0496 47.112 34.4291 46.2055 32.8086C46.1416 33.0787 46.0906 33.2201 46.065 33.3616C45.8224 34.3776 45.6692 35.4194 45.35 36.3968C42.7327 44.3964 35.4936 49.6566 27.1309 49.6566C21.6792 49.6566 16.2275 49.6566 10.7757 49.6694C10.4183 49.6694 9.94586 49.8238 9.71604 50.0681C6.56248 53.5278 3.44722 57.026 0.331954 60.5113C0.229814 60.6271 0.140442 60.7814 0 60.9872H0.638373C10.3672 60.9872 20.1088 60.9872 29.8376 60.9872V61Z" fill="#5B4CFF"/>
<path d="M158.737 30.8023C159.644 30.8538 160.563 30.8152 161.469 30.8152V23.6901C160.486 23.6901 159.554 23.6644 158.635 23.6901C158.073 23.7159 157.907 23.523 157.907 22.9571C157.933 20.7964 157.907 18.6486 157.92 16.488C157.92 16.0893 157.92 15.7935 157.371 15.7935C155.047 15.8192 152.724 15.7935 150.413 15.8063C150.311 15.8063 150.209 15.8449 150.043 15.8835V23.6773C149.047 23.6773 148.102 23.703 147.157 23.6773C146.583 23.6516 146.429 23.8702 146.442 24.4232C146.468 26.2109 146.442 28.0115 146.442 29.7991C146.442 30.4765 146.783 30.8152 147.464 30.8152C148.306 30.8152 149.149 30.8152 150.068 30.8152V49.0007C152.443 49.0007 154.728 49.0007 157.026 49.0007C157.907 49.0007 157.907 49.0007 157.907 48.1133C157.907 42.6216 157.907 37.13 157.895 31.6383C157.895 30.9952 158.048 30.7509 158.712 30.7895L158.737 30.8023Z" fill="#5B4CFF"/>
<path d="M169.233 11.3693C166.808 11.3307 164.816 13.2727 164.778 15.7035C164.752 18.1599 166.642 20.1405 169.08 20.1791C171.481 20.2177 173.485 18.3143 173.523 15.9093C173.574 13.4142 171.672 11.395 169.221 11.3564L169.233 11.3693Z" fill="#5B4CFF"/>
<path d="M197.167 49.0006C199.197 49.0006 201.227 48.9749 203.257 49.0135C203.896 49.0263 204.049 48.8206 204.049 48.2161C204.023 44.5378 204.049 40.8596 204.049 37.1942C204.049 32.9243 204.049 28.6673 204.049 24.3974C204.049 23.973 204.036 23.6772 203.449 23.6772C201.291 23.7029 199.121 23.7029 196.963 23.6772C196.516 23.6772 196.376 23.8444 196.388 24.2688C196.414 24.8861 196.388 25.5163 196.388 26.3266C196.044 26.0308 195.852 25.8764 195.674 25.7221C192.482 22.8284 188.805 22.2625 184.911 23.8187C179.918 25.7993 177.097 29.6705 176.573 35.0078C176.037 40.4995 178.233 44.8465 182.855 47.8431C186.519 50.2096 191.856 50.6726 195.878 46.7628C195.993 46.6599 196.12 46.5827 196.363 46.4027V49.0135H197.18L197.167 49.0006ZM190.081 42.3515C186.787 42.2614 184.144 39.4706 184.234 36.1782C184.323 32.8986 187.081 30.2363 190.311 30.3135C193.656 30.4035 196.274 33.1558 196.171 36.5125C196.082 39.7792 193.312 42.4415 190.069 42.3515H190.081Z" fill="#5B4CFF"/>
<path d="M165.262 48.949H173.05V23.7285H165.262V48.949Z" fill="#5B4CFF"/>
<path d="M208.238 12.0381V48.9493H215.886V46.39C216.192 46.6472 216.384 46.8015 216.55 46.9559C219.537 49.6695 223.01 50.3255 226.751 49.0393C231.794 47.316 234.756 43.612 235.561 38.3775C236.391 32.9502 234.424 28.5131 230.032 25.2593C226.432 22.597 220.687 21.6967 216.333 25.9152C216.231 26.0181 216.09 26.0695 215.848 26.211V12.0381H208.251H208.238ZM221.963 30.3265C225.257 30.3265 227.951 33.0273 227.951 36.3455C227.951 39.6636 225.257 42.3773 221.963 42.3645C218.708 42.3645 216.026 39.6636 216.001 36.3841C215.975 33.0916 218.682 30.3394 221.963 30.3394V30.3265Z" fill="#5B4CFF"/>
<path d="M118.277 36.3454C118.277 43.7019 124.176 49.618 131.492 49.618C138.795 49.618 144.693 43.6762 144.693 36.3197C144.693 28.9888 138.769 23.0342 131.466 23.0342C124.163 23.0342 118.277 28.976 118.277 36.3325V36.3454ZM137.339 36.3454C137.339 39.5992 134.671 42.2357 131.402 42.21C128.198 42.1843 125.631 39.5221 125.644 36.2296C125.67 33.0272 128.3 30.4164 131.504 30.4293C134.735 30.4421 137.339 33.0787 137.339 36.3325V36.3454Z" fill="#5B4CFF"/>
</svg>
