<svg width="121" height="38" viewBox="0 0 121 38" fill="none" xmlns="http://www.w3.org/2000/svg">
<g clip-path="url(#clip0_509_485)">
<path d="M0 28.3758H7.09179C7.09179 31.4881 9.34315 33.3276 13.1463 33.3276C16.9495 33.3276 18.9677 31.9926 18.9677 29.6564C18.9677 26.7071 15.5666 26.1482 11.7634 25.5428C6.74605 24.7667 0.755815 23.8198 0.755815 17.4244C0.755815 12.1388 5.36307 8.97217 13.1463 8.97217C20.9296 8.97217 25.4806 12.3639 25.4806 18.1539H18.3888C18.3888 15.2046 16.4832 13.5359 13.1463 13.5359C9.97836 13.5359 8.07274 14.7622 8.07274 16.819C8.07274 19.3259 11.2407 19.8227 14.9314 20.4358C20.0612 21.274 26.2847 22.2753 26.2847 28.8337C26.2847 34.5616 21.3879 38.0155 13.1463 38.0155C4.90475 38.0155 0 34.4374 0 28.3758Z" fill="black"/>
<path d="M58.7203 9.51537V37.441H51.114V27.8168H51.0014C51.0014 34.2123 47.1419 37.9998 40.6853 37.9998C33.4247 37.9998 29.1632 32.6056 29.1632 23.4782C29.1632 14.3507 33.4247 8.95654 40.6853 8.95654C47.1419 8.95654 51.0014 12.7364 51.0014 19.0775H51.114V9.51537H58.7203ZM51.516 23.4782C51.516 18.3013 48.8063 14.7466 44.1991 14.7466C39.5918 14.7466 36.8821 18.0297 36.8821 23.4782C36.8821 28.9267 39.5918 32.1555 44.1991 32.1555C48.8063 32.1555 51.516 28.593 51.516 23.4782Z" fill="black"/>
<path d="M90.0063 32.3265V37.4413H63.4402V25.5896L88.165 14.6847V14.5761H63.7859V9.51562H88.9127V21.3673L64.188 32.2178V32.3265H90.0063Z" fill="black"/>
<path d="M120.609 9.51562V37.4413H113.002V27.592H112.89C112.89 34.1039 109.545 37.9923 103.844 37.9923C97.6207 37.9923 93.9301 33.708 93.9301 26.5365V9.51562H101.536V26.2027C101.536 29.9825 103.555 32.1557 106.956 32.1557C110.759 32.1557 113.01 29.3771 113.01 24.5883V9.51562H120.617H120.609Z" fill="black"/>
<path d="M114.056 0L101.689 5.44853V8.76266H102.067L114.425 3.33742V0H114.056Z" fill="black"/>
</g>
<defs>
<clipPath id="clip0_509_485">
<rect width="120.609" height="38" fill="white"/>
</clipPath>
</defs>
</svg>
