<svg width="214" height="79" viewBox="0 0 214 79" fill="none" xmlns="http://www.w3.org/2000/svg">
<path d="M7.52789 11.4907C7.5024 13.3094 7.63837 14.9837 8.05481 16.6324C8.82819 19.6835 10.4005 22.2756 12.5421 24.5447C15.0153 27.1623 17.9559 29.134 21.0919 30.8593C25.0013 33.0009 29.1486 34.6157 33.262 36.2984C36.0071 37.4203 38.7352 38.6101 41.4377 39.8254C42.6106 40.3523 43.6814 41.0662 44.6077 41.9841C45.9165 43.2929 46.095 44.6187 45.1517 46.2164C44.5823 47.1853 44.0894 48.1796 43.8939 49.293C43.6134 50.8822 43.9959 52.3355 44.8968 53.6188C45.7551 54.8341 46.7579 55.9474 47.6758 57.1203C48.6956 58.4121 49.7835 59.6529 50.6843 61.0212C52.5965 63.9192 53.0555 67.1402 52.4776 70.5312C52.0611 72.9873 51.1943 75.282 50.1065 77.5086C50.03 77.6616 49.826 77.8146 49.6475 77.8571C46.9194 78.469 44.1404 78.5625 41.3613 78.4775C36.9675 78.3415 32.6925 77.5256 28.5452 76.0469C21.7547 73.6077 15.9247 69.7153 11.0974 64.3612C6.04918 58.769 2.72616 52.276 1.08591 44.9246C0.253039 41.1852 -0.0784227 37.3863 0.117048 33.5534C0.516487 25.6836 2.92162 18.4767 7.23897 11.8987C7.30696 11.7967 7.37491 11.7032 7.51939 11.4992L7.52789 11.4907Z" fill="#5B4CFF"/>
<path d="M204.383 36.8768C205.454 37.5142 206.533 38.0921 207.545 38.7805C211.038 41.1602 212.746 44.5257 212.984 48.6985C213.111 51.0017 212.839 53.2368 211.93 55.37C210.655 58.353 208.454 60.4522 205.607 61.9055C203.066 63.2058 200.338 63.9112 197.516 64.1577C195.561 64.3361 193.59 64.4041 191.618 64.4126C183.969 64.4381 176.312 64.4211 168.663 64.4211H168.145V12.0181C168.272 12.0096 168.374 11.9926 168.485 11.9926C176.779 11.9926 185.074 11.9756 193.369 12.0181C196.607 12.0351 199.768 12.6045 202.683 14.1003C206.448 16.038 209.04 18.9701 209.822 23.2109C210.485 26.8059 210.086 30.2733 207.953 33.3839C207.103 34.6162 206.049 35.6445 204.859 36.5369C204.698 36.6644 204.528 36.7833 204.392 36.8768H204.383ZM180.612 53.1178C180.731 53.1178 180.833 53.1348 180.927 53.1348C185.006 53.1348 189.085 53.1348 193.165 53.1348C194.372 53.1348 195.561 53.0244 196.726 52.7014C199.445 51.9535 200.822 49.5824 200.083 46.9308C199.649 45.3925 198.51 44.5766 197.083 44.0922C195.68 43.6163 194.219 43.5058 192.748 43.5058C188.856 43.5058 184.955 43.5058 181.063 43.5058C180.927 43.5058 180.791 43.5058 180.621 43.5058V53.1093L180.612 53.1178ZM180.612 32.5935C180.706 32.602 180.757 32.619 180.808 32.619C184.173 32.619 187.539 32.636 190.896 32.602C192.289 32.585 193.675 32.381 194.966 31.7861C195.952 31.3357 196.76 30.6728 197.125 29.6274C197.814 27.6302 197.474 25.0976 194.61 24.0693C193.411 23.6358 192.17 23.4914 190.913 23.4914C187.615 23.4914 184.326 23.4914 181.029 23.4914C180.893 23.4914 180.757 23.4999 180.604 23.5084V32.5935H180.612Z" fill="#5B4CFF"/>
<path d="M54.6355 76.6505C55.5278 75.2907 56.3862 73.9054 57.3211 72.5711C60.1172 68.6022 63.2192 64.8628 66.3297 61.1319C68.7603 58.2168 71.2164 55.3273 73.63 52.3952C74.4629 51.3839 75.1258 50.2535 75.5763 49.0042C76.4601 46.5651 75.8567 44.5084 73.8085 42.9191C72.1767 41.6528 70.2986 40.888 68.3609 40.2336C65.1824 39.1542 61.9103 38.4488 58.6383 37.7179C54.083 36.6981 49.5022 35.7802 45.0404 34.3695C42.2698 33.4941 39.5758 32.4657 37.1196 30.885C35.4369 29.8057 33.9496 28.5053 32.9467 26.7376C31.3405 23.899 31.519 21.1285 33.3037 18.4259C34.6635 16.3607 36.5077 14.7884 38.4879 13.3692C41.6834 11.0745 45.1254 9.20479 48.7034 7.59004C53.4372 5.44836 58.2219 3.43417 62.9896 1.36898C63.984 0.935547 64.9954 0.527611 65.9812 0.085678C66.2702 -0.0418026 66.4741 -0.0333023 66.7376 0.153669C75.1513 5.92429 80.8794 13.6666 83.8285 23.4316C85.2903 28.2844 85.9022 33.2561 85.5793 38.3129C84.9844 47.6444 81.6528 55.9052 75.6698 63.0781C70.1456 69.6986 63.2021 74.2114 54.9414 76.693C54.8734 76.71 54.8139 76.7185 54.7459 76.7355C54.7035 76.7015 54.6694 76.676 54.627 76.642L54.6355 76.6505ZM48.8988 27.6385C49.5872 27.545 50.2842 27.511 50.9556 27.3325C51.7799 27.1116 52.0179 26.5166 51.5759 25.7858C51.27 25.2843 50.8705 24.8084 50.4285 24.426C48.9328 23.1682 47.1736 22.4458 45.2529 22.1568C43.6636 21.9103 42.1084 22.0548 40.6381 22.7687C40.1792 22.9897 40.0092 23.2786 40.1962 23.7461C40.3576 24.1455 40.6041 24.5449 40.893 24.8594C41.5559 25.5733 42.4059 26.0322 43.3067 26.4062C45.0914 27.154 46.9696 27.4515 48.8988 27.63V27.6385ZM54.661 26.4232C54.508 26.4827 54.1 26.5251 54.0066 26.7121C53.9046 26.9161 54.1 27.2645 54.168 27.5535C54.1765 27.596 54.2105 27.63 54.236 27.6555C54.9839 28.6243 55.9273 29.3127 57.1171 29.6272C57.763 29.7971 58.4173 29.7801 59.0462 29.4997C59.5562 29.2787 59.6836 28.8623 59.3522 28.4119C59.1652 28.1569 58.9273 27.9189 58.6638 27.7575C57.491 27.0096 56.1908 26.6186 54.6695 26.4062L54.661 26.4232ZM64.2305 32.8142C64.3665 32.8142 64.4259 32.8312 64.4769 32.8142C64.6639 32.7462 64.8424 32.6612 65.0209 32.5847C64.9274 32.4233 64.8679 32.2193 64.7319 32.1088C63.8736 31.3864 62.8707 31.0465 61.7489 31.2419C61.5194 31.2844 61.3154 31.4884 61.103 31.6159C61.2729 31.8028 61.4089 32.0493 61.6214 32.1598C62.4627 32.6017 63.3806 32.7547 64.2389 32.8142H64.2305Z" fill="#5B4CFF"/>
<path d="M115.997 64.4549V12.0434C116.141 12.0349 116.26 12.0179 116.379 12.0179C123.323 12.0179 130.258 11.9669 137.201 12.0349C143.388 12.0944 149.15 13.7006 154.207 17.3805C159.825 21.4684 163.139 27.0011 164.125 33.868C165.034 40.1656 164.074 46.1657 160.759 51.6728C157.216 57.5709 152.006 61.3189 145.436 63.2396C142.581 64.0724 139.649 64.4549 136.674 64.4549C129.926 64.4549 123.187 64.4549 116.439 64.4549C116.303 64.4549 116.167 64.4549 115.988 64.4549H115.997ZM128.872 52.7607C129 52.7607 129.102 52.7777 129.195 52.7777C131.711 52.7777 134.227 52.8201 136.734 52.7607C137.966 52.7267 139.224 52.6162 140.422 52.3527C144.926 51.3499 148.198 48.7663 149.992 44.4659C151.224 41.5169 151.402 38.4318 150.91 35.3043C150.442 32.3128 149.218 29.6782 147.026 27.5535C144.34 24.9614 141.042 23.8311 137.371 23.7376C134.634 23.6611 131.898 23.7121 129.161 23.7121C129.068 23.7121 128.974 23.7291 128.864 23.7376V52.7692L128.872 52.7607Z" fill="#5B4CFF"/>
<path d="M111.008 64.4209H98.2773V11.8989C98.4473 11.8989 98.5918 11.8989 98.7448 11.8989C100.64 11.8989 102.544 11.8989 104.439 11.8989C108.263 11.8989 111.008 14.644 111.008 18.4769C111.008 33.6301 111.008 48.7833 111.008 63.9365V64.4209Z" fill="#5B4CFF"/>
<path d="M48.9082 27.6384C46.979 27.4599 45.1008 27.1624 43.316 26.4145C42.4237 26.0406 41.5738 25.5817 40.9024 24.8678C40.605 24.5533 40.3671 24.1539 40.2056 23.7544C40.0186 23.287 40.1886 22.9981 40.6475 22.7771C42.1178 22.0632 43.673 21.9187 45.2623 22.1652C47.183 22.4626 48.9422 23.1765 50.4379 24.4343C50.8884 24.8168 51.2879 25.2927 51.5854 25.7941C52.0273 26.525 51.7807 27.1199 50.9649 27.3409C50.302 27.5194 49.5966 27.5449 48.9082 27.6468V27.6384Z" fill="white"/>
<path d="M54.6625 26.4233C56.1838 26.6358 57.4841 27.0267 58.6569 27.7746C58.9203 27.9446 59.1584 28.1741 59.3453 28.429C59.6683 28.8795 59.5492 29.2874 59.0393 29.5169C58.4189 29.7888 57.7561 29.8143 57.1102 29.6443C55.9288 29.3214 54.977 28.633 54.2291 27.6727C54.2036 27.6387 54.1695 27.6047 54.161 27.5707C54.093 27.2817 53.8976 26.9333 53.9996 26.7293C54.1016 26.5338 54.501 26.4998 54.654 26.4403L54.6625 26.4233Z" fill="white"/>
<path d="M64.2318 32.8142C63.3734 32.7548 62.4555 32.6018 61.6141 32.1599C61.4016 32.0494 61.2657 31.8029 61.0957 31.6159C61.3082 31.4885 61.5121 31.2845 61.7416 31.242C62.8634 31.0465 63.8663 31.3865 64.7247 32.1089C64.8606 32.2193 64.9201 32.4233 65.0136 32.5848C64.8351 32.6613 64.6566 32.7463 64.4697 32.8142C64.4187 32.8312 64.3593 32.8142 64.2233 32.8142H64.2318Z" fill="white"/>
</svg>
