<svg width="1262" height="466" viewBox="0 0 1262 466" fill="none" xmlns="http://www.w3.org/2000/svg">
<g opacity="0.25">
<g clip-path="url(#clip0_16_1305)">
<path d="M1261.65 0.413086H0.362793V465.598H1261.65V0.413086Z" stroke="black" stroke-width="0.75" stroke-miterlimit="10"/>
<path d="M1261.65 66.8647H0.362793" stroke="black" stroke-width="0.75" stroke-miterlimit="10"/>
<path d="M1261.65 133.317H0.362793" stroke="black" stroke-width="0.75" stroke-miterlimit="10"/>
<path d="M1261.65 199.769H0.362793" stroke="black" stroke-width="0.75" stroke-miterlimit="10"/>
<path d="M1261.65 266.231H0.362793" stroke="black" stroke-width="0.75" stroke-miterlimit="10"/>
<path d="M1261.65 332.683H0.362793" stroke="black" stroke-width="0.75" stroke-miterlimit="10"/>
<path d="M1261.65 399.135H0.362793" stroke="black" stroke-width="0.75" stroke-miterlimit="10"/>
<path d="M60.4194 465.587V0.413086" stroke="black" stroke-width="0.75" stroke-miterlimit="10"/>
<path d="M120.476 465.587V0.413086" stroke="black" stroke-width="0.75" stroke-miterlimit="10"/>
<path d="M180.542 465.587V0.413086" stroke="black" stroke-width="0.75" stroke-miterlimit="10"/>
<path d="M240.599 465.587V0.413086" stroke="black" stroke-width="0.75" stroke-miterlimit="10"/>
<path d="M300.665 465.587V0.413086" stroke="black" stroke-width="0.75" stroke-miterlimit="10"/>
<path d="M360.721 465.587V0.413086" stroke="black" stroke-width="0.75" stroke-miterlimit="10"/>
<path d="M420.788 465.587V0.413086" stroke="black" stroke-width="0.75" stroke-miterlimit="10"/>
<path d="M480.844 465.587V0.413086" stroke="black" stroke-width="0.75" stroke-miterlimit="10"/>
<path d="M540.91 465.587V0.413086" stroke="black" stroke-width="0.75" stroke-miterlimit="10"/>
<path d="M600.967 465.587V0.413086" stroke="black" stroke-width="0.75" stroke-miterlimit="10"/>
<path d="M661.033 465.587V0.413086" stroke="black" stroke-width="0.75" stroke-miterlimit="10"/>
<path d="M721.09 465.587V0.413086" stroke="black" stroke-width="0.75" stroke-miterlimit="10"/>
<path d="M781.156 465.587V0.413086" stroke="black" stroke-width="0.75" stroke-miterlimit="10"/>
<path d="M841.212 465.587V0.413086" stroke="black" stroke-width="0.75" stroke-miterlimit="10"/>
<path d="M901.279 465.587V0.413086" stroke="black" stroke-width="0.75" stroke-miterlimit="10"/>
<path d="M961.335 465.587V0.413086" stroke="black" stroke-width="0.75" stroke-miterlimit="10"/>
<path d="M1021.4 465.587V0.413086" stroke="black" stroke-width="0.75" stroke-miterlimit="10"/>
<path d="M1081.46 465.587V0.413086" stroke="black" stroke-width="0.75" stroke-miterlimit="10"/>
<path d="M1141.52 465.587V0.413086" stroke="black" stroke-width="0.75" stroke-miterlimit="10"/>
<path d="M1201.58 465.587V0.413086" stroke="black" stroke-width="0.75" stroke-miterlimit="10"/>
</g>
</g>
<defs>
<clipPath id="clip0_16_1305">
<rect width="1262" height="466" fill="white"/>
</clipPath>
</defs>
</svg>
