<svg width="264" height="1039" viewBox="0 0 264 1039" fill="none" xmlns="http://www.w3.org/2000/svg">
<g opacity="0.3" clip-path="url(#clip0_16_1310)">
<mask id="mask0_16_1310" style="mask-type:luminance" maskUnits="userSpaceOnUse" x="0" y="0" width="264" height="1039">
<path d="M264 1039L264 0L0 0L0 1039H264Z" fill="white"/>
</mask>
<g mask="url(#mask0_16_1310)">
<path d="M263.673 1038.71V0.298844L-104.532 0.298828V1038.71H263.673Z" stroke="white" stroke-width="0.7" stroke-miterlimit="10"/>
<path d="M211.075 1038.71V0.298828" stroke="white" stroke-width="0.7" stroke-miterlimit="10"/>
<path d="M158.476 1038.71V0.298828" stroke="white" stroke-width="0.7" stroke-miterlimit="10"/>
<path d="M105.878 1038.71V0.298828" stroke="white" stroke-width="0.7" stroke-miterlimit="10"/>
<path d="M53.2712 1038.71V0.298828" stroke="white" stroke-width="0.7" stroke-miterlimit="10"/>
<path d="M0.672974 1038.71L0.67302 0.298828" stroke="white" stroke-width="0.7" stroke-miterlimit="10"/>
<path d="M-104.524 49.7432L263.673 49.7433" stroke="white" stroke-width="0.7" stroke-miterlimit="10"/>
<path d="M-104.524 99.1875H263.673" stroke="white" stroke-width="0.7" stroke-miterlimit="10"/>
<path d="M-104.524 148.64H263.673" stroke="white" stroke-width="0.7" stroke-miterlimit="10"/>
<path d="M-104.524 198.084H263.673" stroke="white" stroke-width="0.7" stroke-miterlimit="10"/>
<path d="M-104.524 247.536H263.673" stroke="white" stroke-width="0.7" stroke-miterlimit="10"/>
<path d="M-104.524 296.98H263.673" stroke="white" stroke-width="0.7" stroke-miterlimit="10"/>
<path d="M-104.524 346.433H263.673" stroke="white" stroke-width="0.7" stroke-miterlimit="10"/>
<path d="M-104.524 395.877H263.673" stroke="white" stroke-width="0.7" stroke-miterlimit="10"/>
<path d="M-104.524 445.33H263.673" stroke="white" stroke-width="0.7" stroke-miterlimit="10"/>
<path d="M-104.524 494.774H263.673" stroke="white" stroke-width="0.7" stroke-miterlimit="10"/>
<path d="M-104.524 544.226H263.673" stroke="white" stroke-width="0.7" stroke-miterlimit="10"/>
<path d="M-104.524 593.67H263.673" stroke="white" stroke-width="0.7" stroke-miterlimit="10"/>
<path d="M-104.524 643.123H263.673" stroke="white" stroke-width="0.7" stroke-miterlimit="10"/>
<path d="M-104.524 692.567H263.673" stroke="white" stroke-width="0.7" stroke-miterlimit="10"/>
<path d="M-104.524 742.02H263.673" stroke="white" stroke-width="0.7" stroke-miterlimit="10"/>
<path d="M-104.524 791.464H263.673" stroke="white" stroke-width="0.7" stroke-miterlimit="10"/>
<path d="M-104.524 840.916H263.673" stroke="white" stroke-width="0.7" stroke-miterlimit="10"/>
<path d="M-104.524 890.36H263.673" stroke="white" stroke-width="0.7" stroke-miterlimit="10"/>
<path d="M-104.524 939.812H263.673" stroke="white" stroke-width="0.7" stroke-miterlimit="10"/>
<path d="M-104.524 989.257H263.673" stroke="white" stroke-width="0.7" stroke-miterlimit="10"/>
</g>
</g>
<defs>
<clipPath id="clip0_16_1310">
<rect width="264" height="1039" fill="white"/>
</clipPath>
</defs>
</svg>
