<svg width="1262" height="264" viewBox="0 0 1262 264" fill="none" xmlns="http://www.w3.org/2000/svg">
<g opacity="0.15">
<g clip-path="url(#clip0_603_1771)">
<path d="M0.353271 263.673L1261.64 263.673L1261.64 -104.533L0.353304 -104.533L0.353271 263.673Z" stroke="black" stroke-width="0.75" stroke-miterlimit="10"/>
<path d="M0.353244 211.075L1261.64 211.075" stroke="black" stroke-width="0.75" stroke-miterlimit="10"/>
<path d="M0.353244 158.476L1261.64 158.477" stroke="black" stroke-width="0.75" stroke-miterlimit="10"/>
<path d="M0.353271 105.878L1261.64 105.878" stroke="black" stroke-width="0.75" stroke-miterlimit="10"/>
<path d="M0.353244 53.2714L1261.64 53.2715" stroke="black" stroke-width="0.75" stroke-miterlimit="10"/>
<path d="M0.353244 0.672741L1261.64 0.672852" stroke="black" stroke-width="0.75" stroke-miterlimit="10"/>
<path d="M1201.58 -104.524L1201.58 263.673" stroke="black" stroke-width="0.75" stroke-miterlimit="10"/>
<path d="M1141.52 -104.524L1141.52 263.673" stroke="black" stroke-width="0.75" stroke-miterlimit="10"/>
<path d="M1081.46 -104.524L1081.46 263.673" stroke="black" stroke-width="0.75" stroke-miterlimit="10"/>
<path d="M1021.4 -104.524L1021.4 263.673" stroke="black" stroke-width="0.75" stroke-miterlimit="10"/>
<path d="M961.335 -104.524L961.335 263.673" stroke="black" stroke-width="0.75" stroke-miterlimit="10"/>
<path d="M901.279 -104.524L901.279 263.673" stroke="black" stroke-width="0.75" stroke-miterlimit="10"/>
<path d="M841.212 -104.524L841.212 263.673" stroke="black" stroke-width="0.75" stroke-miterlimit="10"/>
<path d="M781.156 -104.524L781.156 263.673" stroke="black" stroke-width="0.75" stroke-miterlimit="10"/>
<path d="M721.09 -104.524L721.09 263.673" stroke="black" stroke-width="0.75" stroke-miterlimit="10"/>
<path d="M661.033 -104.524L661.033 263.673" stroke="black" stroke-width="0.75" stroke-miterlimit="10"/>
<path d="M600.967 -104.524L600.967 263.673" stroke="black" stroke-width="0.75" stroke-miterlimit="10"/>
<path d="M540.91 -104.524L540.91 263.673" stroke="black" stroke-width="0.75" stroke-miterlimit="10"/>
<path d="M480.844 -104.524L480.844 263.673" stroke="black" stroke-width="0.75" stroke-miterlimit="10"/>
<path d="M420.788 -104.524L420.788 263.673" stroke="black" stroke-width="0.75" stroke-miterlimit="10"/>
<path d="M360.721 -104.524L360.721 263.673" stroke="black" stroke-width="0.75" stroke-miterlimit="10"/>
<path d="M300.665 -104.524L300.665 263.673" stroke="black" stroke-width="0.75" stroke-miterlimit="10"/>
<path d="M240.599 -104.524L240.599 263.673" stroke="black" stroke-width="0.75" stroke-miterlimit="10"/>
<path d="M180.542 -104.524L180.542 263.673" stroke="black" stroke-width="0.75" stroke-miterlimit="10"/>
<path d="M120.476 -104.524L120.476 263.673" stroke="black" stroke-width="0.75" stroke-miterlimit="10"/>
<path d="M60.4195 -104.524L60.4194 263.673" stroke="black" stroke-width="0.75" stroke-miterlimit="10"/>
</g>
</g>
<defs>
<clipPath id="clip0_603_1771">
<rect width="1262" height="264" fill="white" transform="translate(1262 264) rotate(-180)"/>
</clipPath>
</defs>
</svg>
