<svg width="504" height="336" viewBox="0 0 504 336" fill="none" xmlns="http://www.w3.org/2000/svg">
<g clip-path="url(#clip0_9_391)">
<path d="M130.889 131.124C128.793 135.089 126.878 138.766 124.919 142.427C111.837 167.131 98.7107 191.82 85.66 216.539C85.1434 217.526 84.5813 217.845 83.5178 217.8C81.4211 217.739 79.3245 217.769 77 217.769C77.3646 217.025 77.5925 216.478 77.8812 215.946C94.6694 184.299 111.442 152.637 128.246 120.99C128.626 120.291 129.081 119.243 129.659 119.137C130.996 118.878 132.439 119.015 133.806 119.167C134.095 119.197 134.369 119.957 134.521 120.413C138.957 133.631 143.393 146.864 147.814 160.082C151.066 169.79 154.317 179.513 157.568 189.222C157.751 189.753 157.918 190.27 158.115 190.893H151.339C144.578 171.081 137.787 151.285 130.905 131.139L130.889 131.124Z" fill="#5B4CFF"/>
<path d="M182.561 167.071C185.797 167.207 189.063 167.511 192.33 167.405C199.227 167.192 204.408 162.194 205.183 155.311C205.623 151.452 205.092 147.912 202.144 145.056C199.926 142.914 197.176 142.2 194.198 142.169C190.172 142.124 186.161 142.169 182.12 142.124C181.041 142.124 180.753 142.504 180.631 143.537C179.142 157.727 177.608 171.902 176.088 186.092C175.891 187.87 175.708 189.663 175.526 191.486H168.72C170.664 173.193 172.624 154.977 174.584 136.639C175.055 136.594 175.511 136.533 175.952 136.533C182.606 136.533 189.261 136.457 195.915 136.533C200.929 136.594 205.547 137.9 208.951 141.881C212.84 146.408 213.144 151.726 211.746 157.195C209.771 164.898 204.651 169.517 196.979 171.385C196.599 171.477 196.189 171.568 195.824 171.659C201.385 178.146 206.915 184.603 212.445 191.06C212.354 191.212 212.248 191.364 212.156 191.531C209.665 191.531 207.173 191.562 204.681 191.501C204.408 191.501 204.089 191.136 203.876 190.878C197.374 182.537 190.279 174.697 182.697 167.314C182.591 167.207 182.545 167.071 182.53 167.025V167.055L182.561 167.071Z" fill="#5B4CFF"/>
<path d="M241.373 179.711C243.105 178.663 244.776 177.66 246.508 176.612C246.72 176.87 246.948 177.068 247.085 177.326C249.941 182.431 254.454 184.983 260.105 185.621C264.192 186.077 268.264 185.758 272.108 184.117C275.42 182.689 277.79 180.41 278.276 176.627C278.686 173.406 277.334 171.127 274.6 169.593C271.166 167.663 267.292 167.238 263.509 166.463C259.847 165.718 256.11 164.989 252.585 163.758C241.798 159.991 243.591 147.532 249.212 142.914C252.631 140.118 256.566 138.614 260.865 137.946C265.833 137.156 270.741 137.384 275.526 139.055C279.674 140.513 282.804 143.187 284.946 147.183C283.229 148.216 281.619 149.188 279.902 150.222C276.529 145.39 271.637 143.673 266.122 143.415C262.202 143.233 258.419 143.977 255.046 146.15C253.39 147.213 252.16 148.611 251.567 150.541C250.686 153.427 251.689 156.04 254.408 157.681C257.371 159.489 260.759 159.975 264.101 160.644C267.778 161.373 271.515 162.011 275.086 163.09C280.191 164.624 284.095 167.633 284.657 173.391C285.235 179.529 283.092 184.558 277.744 187.915C272.366 191.288 266.38 192.078 260.197 191.698C254.818 191.379 249.85 189.906 245.718 186.244C243.864 184.618 242.239 182.218 241.373 179.726V179.696V179.711Z" fill="#5B4CFF"/>
<path d="M426.985 147.153C425.253 148.186 423.627 149.173 421.91 150.191C418.538 145.345 413.645 143.613 408.13 143.4C403.816 143.233 399.668 144.023 396.189 146.788C391.828 150.237 392.315 155.949 397.419 158.092C400.731 159.489 404.439 160.021 407.963 160.902C411.306 161.738 414.77 162.239 417.991 163.409C427.152 166.767 429.765 176.779 423.658 184.451C420.968 187.824 417.322 189.647 413.22 190.68C406.444 192.367 399.729 192.321 393.181 189.647C388.577 187.779 385.25 184.573 383.32 179.742C385.068 178.678 386.769 177.66 388.532 176.597C388.714 176.794 388.866 176.9 388.957 177.068C391.676 182.066 395.991 184.786 401.552 185.515C406.064 186.107 410.546 185.819 414.709 183.783C415.94 183.175 417.125 182.355 418.067 181.367C421.986 177.28 421.06 171.431 415.879 169.258C412.597 167.876 408.966 167.344 405.487 166.463C401.795 165.536 397.951 165.004 394.442 163.637C386.04 160.34 384.126 150.085 390.507 143.628C393.469 140.62 397.207 139.07 401.263 138.219C406.976 137.019 412.658 137.171 418.158 139.267C422.017 140.741 424.888 143.37 427 147.153H426.985Z" fill="#5B4CFF"/>
<path d="M325.253 190.908C327.319 187.019 329.264 183.357 331.224 179.681C338.516 166.007 345.809 152.333 353.086 138.645C353.603 137.657 354.165 137.216 355.32 137.232C358.708 137.277 358.723 137.232 359.832 140.452C365.378 156.77 370.908 173.087 376.453 189.419C376.59 189.86 376.711 190.301 376.894 190.923C374.828 190.923 372.883 190.999 370.953 190.863C370.528 190.832 369.966 190.103 369.799 189.586C365.803 178.025 361.853 166.417 357.887 154.84C357.021 152.303 356.155 149.781 355.213 146.97C354.818 147.639 354.53 148.095 354.271 148.566C347.009 162.27 339.747 175.958 332.546 189.662C332.029 190.65 331.467 190.984 330.403 190.923C328.778 190.847 327.152 190.893 325.283 190.893L325.253 190.908Z" fill="#5B4CFF"/>
<path d="M316.091 142.169C314.329 158.745 312.567 175.077 310.819 191.501H304.089C305.836 175.107 307.568 158.76 309.346 142.184H290.005C290.218 140.224 290.4 138.447 290.582 136.639H336.009C335.857 138.295 335.782 139.829 335.478 141.334C335.402 141.698 334.536 142.124 334.034 142.124C328.717 142.169 323.414 142.169 318.082 142.169H316.076H316.091Z" fill="#5B4CFF"/>
<path d="M228.99 191.516H222.184C223.946 174.621 225.724 157.788 227.486 140.908H234.293C232.53 157.788 230.768 174.576 228.99 191.516Z" fill="#5B4CFF"/>
<path d="M231.087 135.044C228.565 135.074 226.924 133.524 226.909 131.109C226.878 128.07 229.097 125.776 232.105 125.73C234.566 125.685 236.359 127.326 236.42 129.62C236.511 132.628 234.156 135.013 231.087 135.059V135.044Z" fill="#5B4CFF"/>
</g>
<defs>
<clipPath id="clip0_9_391">
<rect width="350" height="98.8149" fill="white" transform="translate(77 119)"/>
</clipPath>
</defs>
</svg>
