<svg width="504" height="336" viewBox="0 0 504 336" fill="none" xmlns="http://www.w3.org/2000/svg">
<g clip-path="url(#clip0_9_182)">
<path d="M329.918 230.131H321.218V232.829H347.259V230.131H340.28V184.736C338.109 186.984 334.649 187.218 331.208 187.218H322.587V189.838H329.938V230.131" fill="#5B4CFF"/>
<path d="M165.17 230.131H156.47V232.829H182.511V230.131H175.532V184.736C173.362 186.984 169.901 187.218 166.461 187.218H157.839V189.838H165.19V230.131" fill="#5B4CFF"/>
<path d="M360.005 230.131H351.677V232.829H378.167V230.131H370.523V189.838H389.194V230.131H382.214V232.829H407.942V230.131H399.536V184.736C397.366 186.984 393.612 187.218 390.093 187.218H370.445V172.067C370.445 161.94 374.199 153.847 385.753 153.847C390.328 153.847 393.71 155.723 393.71 157.678C393.71 158.949 392.576 159.399 391.676 159.927C390.249 160.67 388.9 162.097 388.9 164.208C388.9 167.062 391.676 169.017 394.081 169.017C397.6 169.017 400.161 166.241 400.161 162.116C400.161 157.248 395.137 151.168 384.638 151.168C366.418 151.168 359.81 165.948 359.81 179.985V187.336H350.367V189.955H359.81V230.17" fill="#5B4CFF"/>
<path d="M83.8617 199.457C95.1811 201.783 100.284 208.606 100.284 216.035C100.284 224.579 93.4608 231.48 83.0211 231.48C72.5814 231.48 62.083 222.78 60.4408 205.302H57.5279V233.513H60.4604C60.695 231.636 61.4379 230.209 63.6861 230.209C67.8894 230.209 72.3858 234.627 83.197 234.627C98.9543 234.627 107.576 225.106 107.576 210.542C107.576 199.144 101.867 190.659 86.716 186.984L80.9488 185.635C67.5961 182.566 63.6861 176.407 63.6861 170.19C63.6861 161.647 70.294 155.86 78.3095 155.86C90.841 155.86 98.2701 165.987 99.7559 178.675H102.825V155.274H100.049C99.7559 156.701 98.9934 158.128 96.7452 158.128C92.9133 158.128 89.7658 152.654 77.9967 152.654C66.2276 152.654 57 161.197 57 173.944C57 187.59 63.8229 194.804 78.0749 198.108L83.8421 199.457" fill="#5B4CFF"/>
<path d="M294.513 224.207C294.513 231.851 299.772 234.627 306.673 234.627C315.001 234.627 317.777 230.052 319.048 227.276L316.956 225.849C315.607 228.176 313.496 231.03 309.899 231.03C307.123 231.03 304.874 229.603 304.874 225.263V189.858H317.034V187.238H304.953V173.357H302.919C301.121 184.169 296.018 187.238 285.891 187.238V189.858H294.591V224.207" fill="#5B4CFF"/>
<path d="M261.493 230.131H269.215V196.29C269.215 190.894 266.283 188.646 262.47 188.646C255.647 188.646 250.545 195.175 248.297 198.323V230.131H256.254V232.829H229.763V230.131H237.935V189.838H229.763V187.14H238.307C243.487 187.14 246.029 187.14 247.984 184.657V193.729H248.218C250.467 191.031 255.804 184.657 265.032 184.657C274.865 184.657 279.655 191.031 279.655 198.694V230.131H287.827V232.829H261.493V230.131Z" fill="#5B4CFF"/>
<path d="M150.547 217.755C149.354 223.679 144.701 230.952 136.588 230.952C128.475 230.952 124.878 226.299 124.878 215.957V205.458C124.878 195.332 128.631 188.059 137.175 188.059C142.277 188.059 145.131 190.542 145.131 192.477C145.131 193.533 144.447 194.119 143.782 194.882C143.098 195.703 142.433 196.681 142.433 198.186C142.433 200.512 144.232 202.839 147.536 202.839C150.605 202.839 153.088 200.434 153.088 196.681C153.088 191.128 146.559 185.361 136.353 185.361C123.529 185.361 113.539 195.195 113.539 210.033C113.539 223.62 120.518 234.705 135.513 234.705C145.64 234.705 152.169 226.533 153.518 217.677H150.527" fill="#5B4CFF"/>
<path d="M445.009 217.599C443.875 223.523 439.163 230.795 431.05 230.795C422.937 230.795 419.34 226.143 419.34 215.801V205.302C419.34 195.175 423.093 187.903 431.637 187.903C436.739 187.903 439.594 190.386 439.594 192.321C439.594 193.377 438.909 193.963 438.245 194.726C437.56 195.547 436.896 196.524 436.896 198.03C436.896 200.356 438.694 202.683 441.998 202.683C444.989 202.683 447.55 200.278 447.55 196.524C447.55 190.972 441.021 185.205 430.816 185.205C417.991 185.205 408.001 195.038 408.001 209.877C408.001 223.464 414.98 234.549 429.975 234.549C440.102 234.549 446.632 226.377 447.981 217.521H444.989" fill="#5B4CFF"/>
<path d="M223.175 217.521C221.982 224.129 217.017 230.952 209.373 230.952C201.729 230.952 197.662 226.221 197.662 216.7V205.889H225.951C226.635 205.889 226.929 205.595 226.929 204.911V203.269C226.929 196.368 220.712 185.263 206.89 185.263C194.886 185.263 186.03 197.033 186.03 209.936C186.03 225.38 195.023 234.608 207.34 234.608C217.017 234.608 224.153 227.785 226.01 217.501H223.155L223.175 217.521ZM216.645 202.291C216.645 202.741 216.411 203.034 215.902 203.034H198.131V199.574C198.131 192.301 201.885 187.864 207.515 187.864C213.146 187.864 216.665 191.989 216.665 199.574V202.272" fill="#5B4CFF"/>
<path d="M126.012 104.483H128.788C139.286 104.483 144.916 110.406 144.916 117.757C144.916 128.256 137.781 131.853 129.159 131.853H126.09V104.483H126.012ZM115.298 166.3H108.162V168.841H137.116C146.95 168.841 158.562 163.211 158.562 150.093C158.562 139.673 149.256 134.042 140.107 133.515V133.065C147.829 132.381 155.63 127.435 155.63 117.093C155.63 108.158 148.044 102.02 134.183 102.02H108.143V104.502H115.337V166.319H115.259L115.298 166.3ZM126.012 134.414H131.036C141.691 134.414 147.399 141.393 147.399 150.015C147.399 159.457 141.691 166.3 131.955 166.3H125.953V134.414" fill="#5B4CFF"/>
<path d="M163 148.744C163 160.591 171.328 170.425 183.176 170.425C195.023 170.425 203.351 160.513 203.351 148.744C203.351 136.975 195.023 127.063 183.176 127.063C171.328 127.141 163 136.897 163 148.744ZM193.166 151.207C193.166 159.457 192.188 167.571 183.195 167.571C174.202 167.571 173.225 159.477 173.225 151.207V146.339C173.225 138.089 173.968 129.976 183.195 129.976C192.423 129.976 193.166 138.07 193.166 146.339V151.207Z" fill="#5B4CFF"/>
<path d="M266.459 148.803C266.459 160.65 274.787 170.484 286.634 170.484C298.482 170.484 306.81 160.572 306.81 148.803C306.81 137.034 298.482 127.122 286.634 127.122C274.787 127.122 266.459 136.877 266.459 148.803ZM296.605 151.207C296.605 159.458 295.627 167.571 286.634 167.571C277.641 167.571 276.586 159.477 276.586 151.207V146.339C276.586 138.089 277.329 129.976 286.634 129.976C295.94 129.976 296.605 138.07 296.605 146.339V151.207Z" fill="#5B4CFF"/>
<path d="M335.627 166.3H341.335V137.952C341.335 133.143 338.266 131.266 334.962 131.266C330.68 131.266 326.262 135.391 324.229 139.81V166.359H331.208V168.9H306.908V166.359H314.493V131.403H307.064V128.862H314.259C318.618 128.862 322.294 128.862 323.936 126.692V134.414H324.092C327.846 129.839 332.948 126.692 338.872 126.692C348.1 126.692 351.247 133.221 351.247 138.695V166.3H356.721V168.841H335.568V166.3" fill="#5B4CFF"/>
<path d="M222.569 152.498C228.121 153.241 230.448 156.545 230.448 160.083C230.448 165.107 226.401 167.727 221.904 167.727C213.361 167.727 210.272 160.142 209.744 155.117H207.574L207.867 169.897H209.959C210.116 168.392 210.643 167.805 211.601 167.805C213.635 167.805 215.961 170.503 222.022 170.503C231.015 170.503 236.508 164.873 236.508 156.408C236.508 150.328 233.048 144.932 225.404 143.798L220.829 143.055C214.749 142.078 212.657 139.986 212.657 136.369C212.657 132.752 215.648 129.839 220.751 129.839C226.674 129.839 230.135 133.515 231.112 139.36H233.204L232.97 127.728H231.093C231.015 128.627 230.643 129.448 229.666 129.448C227.945 129.448 225.619 127.122 220.594 127.122C213.459 127.122 207.985 132.068 207.985 139.126C207.985 148.06 213.83 151.286 219.91 152.107L222.53 152.478" fill="#5B4CFF"/>
<path d="M265.403 162.625C264.425 164.208 262.412 166.671 259.401 166.671C256.86 166.671 254.67 165.538 254.67 161.569V131.403H265.403V128.862H254.67V115.216H252.871C251.288 124.815 245.97 128.862 238.17 128.862V131.345H244.993V161.432C244.993 168.04 249.646 170.581 256.175 170.581C262.177 170.581 265.325 167.512 266.987 164.951L265.403 162.625Z" fill="#5B4CFF"/>
</g>
<defs>
<clipPath id="clip0_9_182">
<rect width="391" height="132.705" fill="white" transform="translate(57 102)"/>
</clipPath>
</defs>
</svg>
