<svg width="287" height="79" viewBox="0 0 287 79" fill="none" xmlns="http://www.w3.org/2000/svg">
<path d="M50.3304 31.776C50.3304 30.9856 50.3304 30.4162 50.3304 29.8383C50.3304 20.4727 50.3559 11.1072 50.3049 1.74159C50.3049 0.407291 50.6363 -0.0686441 52.0216 0.00784422C54.1208 0.118327 56.2285 0.0333393 58.4126 0.0333393C58.9566 25.7334 57.7413 51.2635 59.271 76.8701H51.0443C50.8998 74.0655 50.7638 71.295 50.6108 68.2949C50.1859 68.6519 49.948 68.8133 49.7695 69.0173C44.9507 74.5755 38.8146 77.499 31.5228 78.026C24.3499 78.5444 17.4744 77.567 11.3638 73.4706C4.56487 68.9238 1.18237 62.3033 0.434484 54.357C-0.0414439 49.3258 0.128527 44.2776 1.78577 39.3823C5.10877 29.5493 12.1712 24.2037 22.2252 22.6229C27.7153 21.756 33.197 21.96 38.5427 23.7362C42.5966 25.0875 46.03 27.3651 48.9111 30.4927C49.2086 30.8156 49.506 31.1471 49.812 31.4615C49.8715 31.521 49.9734 31.555 50.3474 31.759L50.3304 31.776ZM50.4239 50.1502C50.2624 48.3994 50.2199 46.6232 49.9139 44.8895C48.4862 36.7222 44.1518 30.9516 35.9506 28.5465C32.7126 27.5946 29.3896 27.4161 26.0241 27.7901C18.4008 28.6485 12.9956 32.4389 10.327 39.7223C8.43178 44.898 8.18532 50.2522 9.02669 55.6659C9.68959 59.9152 11.1769 63.8331 14.2109 66.9777C19.4121 72.3658 25.9731 73.5386 33.061 72.6293C40.1999 71.7114 45.3501 68.006 48.2397 61.3515C49.7865 57.7821 50.3304 54.0256 50.4154 50.1502H50.4239Z" fill="#5B4CFF"/>
<path d="M196.661 60.051C195.896 64.4788 193.975 67.9633 190.924 70.8359C187.04 74.4818 182.307 76.4365 177.148 77.3714C169.499 78.7482 161.884 78.7482 154.465 76.1051C143.918 72.3487 137.468 63.578 137.026 52.4022C136.686 43.844 138.904 36.1782 145.295 30.1101C150.063 25.5888 155.901 23.3111 162.335 22.4528C169.38 21.5094 176.298 22.0108 182.834 24.9854C191.689 29.0222 196.457 36.0422 197.46 45.6542C197.63 47.2945 197.655 48.9517 197.766 50.83C196.941 50.83 196.321 50.83 195.701 50.83C179.766 50.83 163.839 50.83 147.904 50.83C146.026 50.83 145.898 50.8554 146.179 52.7081C146.57 55.2662 146.867 57.8923 147.742 60.2975C150.513 67.8613 156.462 71.4648 164.145 72.5951C168.989 73.309 173.766 73.003 178.346 71.1333C183.123 69.1871 186.658 66.0001 188.315 60.9774C188.434 60.612 188.893 60.102 189.208 60.085C191.604 60.0085 194.009 60.0425 196.661 60.0425V60.051ZM188.604 45.7392C189.055 38.9742 184.219 31.7589 177.42 28.9968C172.788 27.1186 167.986 26.8636 163.091 27.5265C154.04 28.7588 146.952 36.5096 146.527 45.7307H188.604V45.7392Z" fill="#5B4CFF"/>
<path d="M283.9 36.3143H275.512C275.444 36.0083 275.359 35.6939 275.291 35.3794C274.56 31.9119 272.478 29.5239 269.181 28.419C262.39 26.1499 255.532 26.1923 248.835 28.7419C247.152 29.3878 245.503 30.7307 244.407 32.1839C242.036 35.32 242.987 39.6543 246.523 41.32C249.464 42.7053 252.685 43.5467 255.855 44.3456C262.458 46.0113 269.155 47.3541 275.733 49.1304C277.994 49.7423 280.152 51.0341 282.116 52.3684C284.81 54.2041 286.084 56.9321 286.331 60.2466C286.79 66.4082 284.121 70.8275 278.997 73.955C274.977 76.4027 270.506 77.567 265.875 77.9919C259.144 78.6038 252.421 78.6124 245.843 76.7002C242.886 75.8418 240.149 74.567 237.82 72.5018C235.033 70.0372 233.435 66.6037 233.418 62.9832H241.67C242.818 69.4677 247.602 71.6774 253.322 72.6378C258.974 73.5896 264.617 73.4196 270.03 71.4139C271.917 70.7085 273.778 69.6207 275.291 68.2949C279.005 65.0569 279.608 58.292 273.37 55.8188C269.164 54.1446 264.676 53.1333 260.274 52.0029C255.617 50.8046 250.874 49.9632 246.251 48.6629C244.126 48.068 242.07 46.9462 240.208 45.7139C233.673 41.3625 234.684 33.3482 238.041 29.2859C239.868 27.0677 242.155 25.4359 244.823 24.5011C254.758 21.0251 264.778 20.9061 274.705 24.3906C279.6 26.1073 282.889 29.5238 283.756 34.8695C283.824 35.3029 283.841 35.7364 283.9 36.3313V36.3143Z" fill="#5B4CFF"/>
<path d="M87.8863 76.9296H79.668V23.4728H87.2828C87.4358 26.3538 87.5888 29.2009 87.7588 32.3709C88.6171 31.6145 89.263 31.0451 89.9089 30.4757C98.5691 22.8609 108.572 21.0761 119.51 23.9317C126.972 25.8779 130.847 31.0961 131.901 38.541C132.156 40.3257 132.258 42.1529 132.258 43.9631C132.292 54.51 132.275 65.0484 132.275 75.5953C132.275 75.9862 132.232 76.3687 132.207 76.8616H124.091C124.091 76.2752 124.091 75.7058 124.091 75.1364C124.074 64.394 124.091 53.6602 124.014 42.9178C124.006 41.2691 123.751 39.5948 123.394 37.9801C122.323 33.1528 119.306 30.1272 114.462 29.0904C108.946 27.9091 103.481 28.2235 98.2802 30.5012C91.5407 33.4587 87.8268 38.507 87.8777 46.0793C87.9372 55.7423 87.8948 65.3968 87.8948 75.0599C87.8948 75.6378 87.8948 76.2157 87.8948 76.9296H87.8863Z" fill="#5B4CFF"/>
<path d="M233.988 23.2518V29.3453C233.368 29.3453 232.807 29.3623 232.246 29.3453C228.49 29.2263 224.767 29.3878 221.206 30.7306C215.002 33.0762 211.475 37.6061 211.314 44.1756C211.067 54.425 211.212 64.6744 211.195 74.9239C211.195 75.5528 211.195 76.1732 211.195 76.8871H202.832V23.3707C204.914 23.3707 207.353 23.3282 209.792 23.4302C210.09 23.4387 210.557 24.2121 210.6 24.6625C210.804 26.8042 210.897 28.9543 211.059 31.5549C213.795 27.7135 217.152 25.3084 221.325 24.1101C225.447 22.9288 229.645 22.8778 234.005 23.2518H233.988Z" fill="#5B4CFF"/>
<path d="M65.3906 23.4302H73.3964V76.8956H65.3906V23.4302Z" fill="#5B4CFF"/>
<path d="M73.6075 19.4783H65.4062V11.0391H73.6075V19.4783Z" fill="#5B4CFF"/>
</svg>
