<svg width="504" height="336" viewBox="0 0 504 336" fill="none" xmlns="http://www.w3.org/2000/svg">
<g clip-path="url(#clip0_9_520)">
<path d="M242.479 182.03C242.687 190.362 242.572 198.694 240.091 206.772C235.844 220.609 221.638 226.564 208.643 219.974C204.339 217.793 201.788 214.158 200.046 209.83C197.934 204.591 196.999 199.075 196.653 193.489C195.914 181.568 195.534 169.647 198.776 157.98C202.735 143.728 216.098 137.623 229.716 143.693C234.701 145.909 237.482 150.017 239.352 154.887C241.245 159.861 242.075 165.077 242.433 170.34C242.699 174.217 242.479 178.129 242.479 182.03ZM230.478 181.937C230.397 174.875 230.731 167.789 229.97 160.738C229.577 157.045 228.954 153.398 227.085 150.121C223.45 143.728 215.683 143.728 212.013 150.086C210.674 152.406 209.844 154.933 209.578 157.565C208.009 172.936 208.528 188.342 209.197 203.737C209.359 207.418 210.236 211.065 212.221 214.296C215.821 220.136 223.161 220.136 226.785 214.319C228.158 212.138 228.862 209.715 229.323 207.211C230.881 198.844 230.327 190.373 230.454 181.949L230.478 181.937Z" fill="#5B4CFF"/>
<path d="M384.701 182.145C384.863 190.177 384.332 198.128 382.359 205.976C377.985 223.471 363.04 224.094 352.019 220.562C347.195 219.016 344.333 215.15 342.372 210.649C340.329 205.964 339.348 201.002 338.887 195.936C337.767 183.495 337.525 171.055 340.525 158.822C342.302 151.598 345.545 145.285 353.45 142.966C358.851 141.385 364.31 141.443 369.71 142.989C375.481 144.639 378.85 148.794 381.02 154.114C383.57 160.357 384.263 166.97 384.678 173.605C384.851 176.444 384.713 179.295 384.713 182.145H384.701ZM372.18 181.718C372.18 175.486 372.284 169.266 372.145 163.034C372.053 159.134 371.395 155.256 369.814 151.633C368.222 147.997 365.821 145.424 361.482 145.459C357.132 145.493 354.754 148.124 353.219 151.748C352.527 153.387 351.95 155.141 351.754 156.906C349.942 173.536 350.011 190.177 351.696 206.806C351.973 209.553 352.873 212.173 354.385 214.515C357.928 220.032 364.967 220.112 368.603 214.665C370.403 211.976 371.13 208.884 371.615 205.745C372.861 197.77 372.157 189.727 372.192 181.718H372.18Z" fill="#5B4CFF"/>
<path d="M162.506 152.556C161.709 150.686 160.267 149.775 158.893 148.875C153.758 145.516 148.057 144.801 142.137 145.782C137.879 146.486 135.351 149.348 133.909 153.306C132.143 158.153 131.809 163.231 131.728 168.274C131.566 179.572 131.243 190.869 131.982 202.156C132.097 203.933 132.328 205.733 132.674 207.476C134.463 216.535 140.371 220.239 149.407 218.116C155.339 216.72 159.528 213.084 162.667 208.053C164.756 204.706 166.118 201.06 167.122 197.274C167.341 196.443 167.468 195.509 168.749 196.063C169.649 196.455 170.711 196.363 170.584 198.036C169.233 215.473 149.938 227.21 133.805 220.332C128.75 218.174 125.542 214.238 123.35 209.368C121.157 204.499 120.084 199.317 119.657 194.043C118.814 183.703 118.826 173.374 120.695 163.115C123.626 147.028 132.628 140.3 148.957 141.985C153.631 142.47 158.155 143.543 162.032 146.37C168.172 150.825 170.538 157.068 169.695 164.373C169.003 170.339 163.452 174.171 157.555 173.282C151.796 172.417 147.757 167.397 148.392 161.903C149.096 155.856 154.312 151.667 160.394 152.29C161.005 152.36 161.628 152.441 162.494 152.533L162.506 152.556Z" fill="#5B4CFF"/>
<path d="M287.579 167.604C287.602 182.064 287.729 196.536 287.025 210.984C286.909 213.408 286.678 215.831 286.609 218.254C286.563 219.847 285.928 220.436 284.29 220.412C278.473 220.332 272.645 220.366 266.829 220.389C265.641 220.389 264.81 220.239 264.821 218.704C264.833 217.227 265.617 216.95 266.829 216.962C268.837 216.973 270.845 216.893 272.865 216.962C275.184 217.043 276.142 215.889 276.096 213.696C276.084 212.957 276.108 212.219 276.108 211.48V123.105C276.108 119.493 274.284 117.681 270.637 117.681C269.264 117.681 267.879 117.635 266.506 117.681C265.294 117.727 264.821 117.243 264.821 116.019C264.821 114.75 265.11 114.058 266.575 114.069C272.611 114.115 278.635 114.127 284.67 114.069C286.644 114.046 286.563 115.419 286.609 116.643C286.955 125.817 287.371 134.992 287.555 144.166C287.705 151.979 287.59 159.792 287.59 167.604H287.579Z" fill="#5B4CFF"/>
<path d="M292.102 166.831C292.102 150.363 292.148 133.895 292.056 117.439C292.045 114.935 292.506 113.954 295.299 114C303.562 114.15 303.562 114.012 303.562 122.171V212.092C303.562 216.754 303.746 216.927 308.339 216.951C309.817 216.951 311.305 216.951 312.782 216.962C313.913 216.962 314.848 217.031 314.86 218.612C314.883 220.078 314.213 220.401 312.944 220.39C307.024 220.366 301.104 220.32 295.172 220.401C292.61 220.436 292.979 218.647 292.899 217.147C292.148 205.029 292.056 192.889 292.091 180.76C292.114 176.121 292.091 171.47 292.091 166.831H292.102Z" fill="#5B4CFF"/>
<path d="M179.077 181.81C179.308 169.451 183.209 158.672 192.856 150.409C193.733 149.659 194.714 149.013 195.672 148.355C196.111 148.055 196.618 147.824 197.115 148.251C197.657 148.725 197.265 149.14 197.034 149.625C188.575 167.766 189.948 186.507 193.71 205.364C194.241 208.053 195.476 210.546 196.699 213.004C197.08 213.765 198.176 214.7 197.115 215.496C196.157 216.212 195.395 215.046 194.703 214.527C186.498 208.457 181.755 200.24 179.827 190.316C179.285 187.511 178.985 184.684 179.089 181.799L179.077 181.81Z" fill="#5B4CFF"/>
<path d="M401.988 182.007C401.769 194.77 397.465 205.676 387.286 213.881C386.628 214.412 385.924 214.862 385.22 215.346C384.782 215.635 384.332 215.993 383.836 215.485C383.386 215.023 383.559 214.515 383.801 214.031C391.948 197.713 390.679 180.495 388.683 163.219C388.175 158.811 386.848 154.575 384.678 150.64C384.297 149.936 382.912 149.175 384.101 148.286C385.024 147.594 385.855 148.678 386.571 149.198C393.229 154.021 397.488 160.565 399.946 168.297C401.365 172.74 402.092 177.31 401.977 182.018L401.988 182.007Z" fill="#5B4CFF"/>
<path d="M102 181.857C102.358 168.92 106.455 157.795 116.875 149.578C117.533 149.059 118.249 148.574 118.999 148.205C119.299 148.055 119.841 148.124 120.141 148.321C120.557 148.586 120.395 149.013 120.164 149.417C113.552 160.761 114.025 173.328 114.071 185.757C114.106 195.428 115.352 204.925 120.049 213.65C120.384 214.273 121.007 214.989 120.107 215.566C119.287 216.096 118.733 215.277 118.191 214.885C108.693 208.041 103.743 198.601 102.358 187.153C102.138 185.376 102.127 183.576 102.012 181.857H102Z" fill="#5B4CFF"/>
<path d="M259.951 184.557C259.778 195.197 255.185 206.299 244.453 214.458C243.737 215 242.953 216.42 241.822 215.393C240.875 214.527 242.052 213.673 242.433 212.9C247.823 202.144 248.169 190.546 248.03 178.902C247.961 173.317 247.649 167.731 246.553 162.215C245.711 157.957 244.603 153.802 242.306 150.04C242.006 149.555 241.279 149.036 241.845 148.401C242.502 147.674 243.206 148.205 243.818 148.621C246.288 150.271 248.515 152.21 250.419 154.495C257.066 162.469 259.974 171.724 259.94 184.545L259.951 184.557Z" fill="#5B4CFF"/>
<path d="M338.529 148.113C339.625 148.252 339.44 148.829 339.071 149.648C330.612 167.893 331.87 186.715 335.828 205.676C336.417 208.468 337.686 211.042 339.013 213.581C339.313 214.169 340.087 214.827 339.233 215.531C338.413 216.2 337.848 215.393 337.317 215.012C329.458 209.461 324.38 201.925 322.372 192.624C319.095 177.356 321.807 163.485 333.116 151.967C335.124 149.925 337.825 148.101 338.54 148.125L338.529 148.113Z" fill="#5B4CFF"/>
</g>
<defs>
<clipPath id="clip0_9_520">
<rect width="300" height="108.651" fill="white" transform="translate(102 114)"/>
</clipPath>
</defs>
</svg>
