<svg width="392" height="87" viewBox="0 0 392 87" fill="none" xmlns="http://www.w3.org/2000/svg">
<g clip-path="url(#clip0_9_304)">
<path d="M183.652 0V47.9024C181.849 47.9024 180.104 47.9416 178.36 47.8632C178.046 47.8632 177.694 47.4124 177.458 47.1184C168.305 35.7896 159.172 24.4608 150.018 13.132C149.822 12.8968 149.626 12.6616 149.254 12.25V47.8436H142.531C142.512 47.5692 142.453 47.2948 142.453 47.0204C142.453 31.5364 142.453 16.072 142.453 0.588C142.453 0.392 142.472 0.2156 142.492 0.0196C144.334 0.0196 146.196 0.0196 148.039 0.0196C148.098 0.098 148.137 0.1764 148.196 0.2548C157.545 11.8384 166.894 23.422 176.224 35.0056C176.361 35.1624 176.498 35.3192 176.772 35.6132C176.792 35.1036 176.831 34.8096 176.831 34.496C176.831 23.3044 176.831 12.1324 176.831 0.9408C176.831 0.6272 176.792 0.3136 176.753 0C179.046 0 181.339 0 183.652 0Z" fill="#5B4CFF"/>
<path d="M81.0068 0V5.8996H54.0764V20.6584H78.008V26.46H54.0372V41.9832H81.8888V47.9024C81.4772 47.9024 81.1048 47.9024 80.7324 47.9024C69.9524 47.9024 59.1724 47.9024 48.3728 47.922C47.4124 47.922 47.138 47.7064 47.138 46.7264C47.1772 31.556 47.1576 16.4052 47.1576 1.2348C47.1576 0.8232 47.1184 0.4116 47.0792 0C58.3688 0 69.678 0 80.9676 0L81.0068 0Z" fill="#5B4CFF"/>
<path d="M133.672 0C133.437 0.294 133.221 0.6076 132.966 0.882C126.675 7.5264 120.383 14.1512 114.072 20.7956C113.837 21.0504 113.602 21.3052 113.327 21.5992C120.54 30.3212 127.714 39.004 135.044 47.8436C134.574 47.8632 134.28 47.8828 133.986 47.8828C132.045 47.8828 130.085 47.8436 128.145 47.9024C127.4 47.922 126.91 47.6672 126.44 47.1184C120.854 40.5916 115.228 34.0648 109.623 27.538C109.368 27.244 109.113 26.9696 108.8 26.5972C108.545 26.8324 108.31 27.0284 108.094 27.244C105.566 29.8116 103.018 32.3596 100.509 34.9468C100.195 35.2604 99.9796 35.8092 99.9796 36.26C99.9404 40.082 99.96 43.904 99.96 47.8044H93.1392C93.1392 47.3928 93.1392 47.0008 93.1392 46.6088C93.1392 31.4776 93.1392 16.3464 93.1392 1.2348C93.1392 0.8232 93.1196 0.4116 93.1 0C95.3932 0 97.6864 0 99.9992 0V26.7736C100.372 26.4208 100.607 26.2052 100.822 25.9896C104.625 22.0892 108.427 18.1888 112.21 14.2688C116.796 9.5256 121.402 4.7628 126.008 0C128.556 0 131.104 0 133.672 0Z" fill="#5B4CFF"/>
<path opacity="0.7" d="M342.588 0C342.588 1.568 342.53 3.1164 342.588 4.6844C342.628 5.586 342.373 5.88 341.432 5.88C333.259 5.8408 325.086 5.8604 316.932 5.8604C316.03 5.8604 315.58 6.31773 315.58 7.2324C315.58 11.3484 315.58 15.4448 315.58 19.5608C315.58 20.8152 315.599 20.8348 316.873 20.8348C324.027 20.8348 331.162 20.8348 338.316 20.8348C339.23 20.8348 339.688 21.2856 339.688 22.1872C339.688 23.2456 339.648 24.2844 339.688 25.3428C339.746 26.166 339.433 26.362 338.649 26.362C333.416 26.3424 328.182 26.362 322.949 26.362C320.911 26.362 318.872 26.4012 316.814 26.362C315.874 26.3424 315.54 26.6168 315.54 27.5968C315.58 32.0264 315.54 36.456 315.56 40.8856C315.56 42.1596 315.56 42.1596 316.834 42.1596C325.282 42.1596 333.749 42.1596 342.196 42.1596C343.085 42.1596 343.529 42.6169 343.529 43.5316C343.529 44.6096 343.49 45.7072 343.529 46.7852C343.568 47.5888 343.274 47.824 342.49 47.824C335.748 47.8044 329.025 47.824 322.283 47.824C318.226 47.824 314.168 47.7848 310.131 47.8436C309.131 47.8436 308.916 47.53 308.935 46.5892C308.955 31.4972 308.955 16.3856 308.935 1.2936C308.935 0.882 308.896 0.4704 308.857 0.0588C320.088 0.0588 331.318 0.0588 342.569 0.0588L342.588 0Z" fill="#5B4CFF"/>
<path opacity="0.7" d="M238.983 -5.33201e-05C240.237 0.156747 241.511 0.274347 242.746 0.450747C248.018 1.23475 252.644 3.21435 255.604 7.91835C261.601 17.5027 256.584 29.6743 245.431 32.3792C243.04 32.9475 240.531 33.1043 238.062 33.2024C234.455 33.3396 230.849 33.2612 227.242 33.2024C226.341 33.2024 226.047 33.4571 226.047 34.3783C226.086 38.4944 226.047 42.5907 226.086 46.7067C226.086 47.4907 225.87 47.7651 225.067 47.7455C223.538 47.6867 222.009 47.6867 220.48 47.7455C219.657 47.7847 219.383 47.4515 219.481 46.6871C219.52 46.4127 219.481 46.1187 219.481 45.8247C219.481 30.9483 219.481 16.0915 219.481 1.21515C219.481 0.803547 219.481 0.391947 219.461 -0.0196533C225.968 -0.0196533 232.476 -0.0196533 239.002 -0.0196533L238.983 -5.33201e-05ZM226.086 16.6795C226.086 20.0115 226.086 23.3631 226.086 26.6951C226.086 27.3419 226.262 27.5967 226.948 27.5967C231.574 27.5183 236.18 27.5575 240.806 27.3615C243.51 27.2439 246.058 26.3619 248.136 24.4999C250.88 22.0499 251.586 18.8551 251.272 15.3859C250.9 11.3287 248.822 8.36915 244.922 7.01675C243.06 6.36995 241.041 5.97795 239.061 5.89955C235.082 5.72315 231.084 5.86035 227.105 5.82115C226.321 5.82115 226.066 6.01715 226.066 6.82075C226.106 10.0939 226.066 13.3671 226.066 16.6599L226.086 16.6795Z" fill="#5B4CFF"/>
<path opacity="0.7" d="M390.844 -5.33219e-05C388.374 3.41035 385.924 6.82075 383.435 10.2115C380.495 14.2491 377.535 18.3063 374.556 22.3047C374.086 22.9319 374.105 23.3435 374.556 23.9707C380.122 31.5363 385.669 39.1215 391.236 46.7067C391.432 46.9811 391.628 47.2555 391.961 47.7455C390.51 47.7455 389.295 47.7455 388.06 47.7455C386.845 47.7455 385.454 48.0591 384.493 47.5691C383.533 47.0791 382.964 45.7659 382.259 44.7859C378.417 39.5331 374.595 34.2803 370.773 29.0275C370.558 28.7335 370.322 28.4395 370.009 28.0475C369.676 28.4787 369.382 28.8119 369.127 29.1647C364.893 35.0251 360.66 40.9051 356.485 46.7851C355.956 47.5299 355.407 47.8043 354.505 47.7651C352.467 47.7063 350.448 47.7455 348.253 47.7455C348.488 47.3731 348.625 47.1379 348.782 46.9223C354.329 39.3763 359.856 31.8107 365.422 24.2843C365.971 23.5395 365.893 23.0887 365.403 22.4027C360.209 15.2683 355.034 8.11435 349.86 0.979947C349.644 0.666347 349.468 0.333147 349.252 0.0195467C351.742 0.0195467 354.231 0.0195467 356.72 0.0195467C356.779 0.137147 356.818 0.254747 356.896 0.352747C361.15 6.19355 365.422 12.0343 369.695 17.8555C369.832 18.0515 370.028 18.2279 370.244 18.4631C370.479 18.1691 370.695 17.9339 370.871 17.6791C374.968 12.0343 379.064 6.38955 383.141 0.725147C383.298 0.509547 383.396 0.235147 383.513 -0.0196533C385.944 -0.0196533 388.374 -0.0196533 390.785 -0.0196533L390.844 -5.33219e-05Z" fill="#5B4CFF"/>
<path d="M39.6312 0V5.8996H23.2064V47.8436H16.4836V5.9584H0V0H39.6312Z" fill="#5B4CFF"/>
<path opacity="0.7" d="M274.988 0C274.968 0.3528 274.91 0.686 274.91 1.0388C274.91 14.2884 274.91 27.538 274.91 40.7876C274.91 41.6761 275.367 42.1204 276.282 42.1204C284.063 42.1204 291.844 42.1204 299.625 42.1204C300.527 42.1204 300.88 42.336 300.821 43.2768C300.742 44.4528 300.762 45.6288 300.821 46.8048C300.86 47.5692 300.586 47.7848 299.841 47.7848C295.94 47.7456 292.06 47.7848 288.159 47.7848C281.946 47.7848 275.713 47.7652 269.5 47.8044C268.5 47.8044 268.285 47.4908 268.285 46.55C268.304 31.0464 268.285 15.5428 268.285 0.0196C270.519 0 272.754 0 274.988 0Z" fill="#5B4CFF"/>
<path d="M204.898 0V47.8828C202.723 47.8828 200.626 47.8828 198.528 47.8632C198.372 47.8632 198.156 47.5692 198.097 47.3928C198.019 47.1184 198.078 46.8244 198.078 46.5304C198.078 31.4384 198.078 16.3268 198.078 1.2348C198.078 0.8232 198.038 0.4116 198.019 0H204.918L204.898 0Z" fill="#5B4CFF"/>
<path d="M27.3224 72.0692C25.872 74.4996 24.4216 76.93 22.9712 79.3604C22.2656 80.5364 21.5796 81.7124 20.874 82.8884C20.2664 83.9076 19.3844 83.9076 18.7768 82.8884C16.7384 79.4976 14.7 76.1264 12.6812 72.7356C12.5636 72.5396 12.446 72.3632 12.152 72.2064V85.9068H9.52563V66.64C11.4464 66.2676 11.6228 66.3264 12.544 67.8748C14.798 71.6576 17.0324 75.4208 19.2864 79.2036C19.4628 79.4976 19.6392 79.772 19.894 80.1836C20.1488 79.772 20.3448 79.4584 20.5408 79.1448C22.7164 75.4404 24.9704 71.7752 27.0284 67.9924C27.7928 66.5812 28.7336 66.3264 30.1644 66.6204V85.9264H27.6164V72.128C27.6164 72.128 27.44 72.0888 27.3616 72.0888L27.3224 72.0692Z" fill="#5B4CFF"/>
<path d="M261.405 83.7705C261.738 83.0453 262.052 82.3984 262.405 81.6732C264.13 82.9668 266.031 83.79 268.148 83.8096C269.402 83.8292 270.696 83.6528 271.891 83.3196C272.969 83.0256 273.616 82.1632 273.694 80.9676C273.773 79.7329 273.106 78.9292 272.048 78.5372C270.656 78.008 269.186 77.6749 267.775 77.2241C266.717 76.8909 265.639 76.5772 264.62 76.1264C260.876 74.48 261.307 69.678 263.698 67.9728C264.737 67.2476 266.011 66.6988 267.246 66.4636C270.147 65.954 272.95 66.3264 275.596 67.9728C275.302 68.698 275.008 69.384 274.694 70.1288C272.812 68.9724 270.813 68.4236 268.696 68.6196C267.775 68.698 266.776 68.9332 265.972 69.3644C264.071 70.4032 264.071 72.9512 266.011 73.8724C267.403 74.5388 268.971 74.8328 270.46 75.3032C271.519 75.6364 272.597 75.9304 273.616 76.3616C277.497 78.008 276.968 82.9276 274.282 84.7308C272.401 85.9852 270.323 86.2596 268.148 86.142C265.717 86.0048 263.444 85.3972 261.405 83.7508V83.7705Z" fill="#5B4CFF"/>
<path d="M145.158 81.6732C147.647 83.4764 150.293 84.2017 153.194 83.7313C153.919 83.6136 154.703 83.3588 155.31 82.9472C156.878 81.928 156.859 79.7525 155.252 78.8313C154.252 78.2629 153.076 77.9688 151.959 77.5964C150.489 77.1064 148.94 76.7733 147.51 76.2049C145.726 75.4993 144.687 74.1469 144.609 72.1869C144.53 70.1877 145.295 68.5804 147 67.5024C149.842 65.6992 155.487 65.9541 158.27 68.0513C157.996 68.7177 157.702 69.4036 157.408 70.1288C155.075 68.7568 152.645 68.2472 150.077 68.796C148.803 69.0704 147.725 69.6584 147.392 71.05C147.078 72.3436 147.51 73.4021 148.921 73.9705C150.293 74.5389 151.763 74.8524 153.194 75.3032C154.193 75.6168 155.212 75.8912 156.173 76.2832C157.839 76.9888 158.956 78.1844 159.093 80.066C159.25 82.1632 158.466 83.7901 156.682 84.9269C155.114 85.9265 153.35 86.1616 151.547 86.1616C149.215 86.1616 147 85.6129 144.981 84.3976C144.276 83.9664 144.06 83.5352 144.55 82.81C144.785 82.4768 144.922 82.0849 145.138 81.6341L145.158 81.6732Z" fill="#5B4CFF"/>
<path d="M76.7144 79.4975H64.7192C65.0132 81.2615 65.8364 82.5551 67.4044 83.2215C69.8936 84.2995 72.2456 84.0055 74.4016 82.1043C74.8524 82.6335 75.3032 83.1431 75.7932 83.7115C74.7348 85.0247 73.3432 85.7695 71.7948 85.9263C70.364 86.0635 68.8352 86.0635 67.4436 85.7499C64.1508 84.9855 62.0928 82.1043 62.0732 78.6155C62.0732 75.1071 64.1508 72.2455 67.326 71.3635C70.6776 70.4619 74.0488 71.6771 75.6756 74.4211C76.5772 75.9499 76.8712 77.5963 76.6948 79.4779L76.7144 79.4975ZM74.186 77.5571C74.0096 75.0287 72.0888 73.3235 69.482 73.3431C66.8948 73.3431 64.974 75.0483 64.778 77.5571H74.1664H74.186Z" fill="#5B4CFF"/>
<path d="M197.352 82.1044C197.823 82.6532 198.274 83.1824 198.764 83.7508C197.313 85.3776 195.51 85.9656 193.472 86.1224C187.494 86.5732 183.397 81.1244 185.573 75.5972C186.925 72.1672 190.649 70.3836 194.471 71.344C197.901 72.2064 200.077 75.558 199.626 79.4584H187.65C187.944 81.34 188.846 82.6336 190.453 83.3C192.923 84.3192 195.255 84.0056 197.333 82.124L197.352 82.1044ZM197.137 77.5572C196.941 74.9896 195.02 73.3236 192.413 73.3236C189.826 73.3236 187.886 75.068 187.729 77.5572H197.117H197.137Z" fill="#5B4CFF"/>
<path d="M249.155 82.1241C249.606 82.6533 250.037 83.1628 250.527 83.7116C249.528 85.0052 248.175 85.7501 246.646 85.9069C245.118 86.0441 243.491 86.0833 242.021 85.6913C239.12 84.9269 237.336 82.8689 236.944 79.8701C236.513 76.6949 237.376 73.9313 240.276 72.2065C242.962 70.6189 245.784 70.6385 248.43 72.3437C250.762 73.8529 251.546 76.1853 251.527 78.8705C251.527 79.5565 251.096 79.5173 250.625 79.5173C247.313 79.5173 243.981 79.5173 240.668 79.5173C240.316 79.5173 239.982 79.5173 239.532 79.5173C239.708 81.2225 240.531 82.4376 241.923 83.1432C244.49 84.3976 246.921 84.1036 249.175 82.1632L249.155 82.1241ZM248.92 77.5769C248.783 74.9309 246.607 73.1669 243.804 73.3629C241.413 73.5197 239.434 75.4797 239.61 77.5769H248.92Z" fill="#5B4CFF"/>
<path d="M44.688 77.4985C44.9428 75.0681 43.6884 73.5589 41.454 73.4021C39.494 73.2649 37.73 73.7549 36.0836 74.9113C35.7308 74.2645 35.378 73.6765 35.0252 73.0101C36.2992 71.9517 37.7496 71.3833 39.3176 71.2853C40.7876 71.2069 42.3164 71.2265 43.7472 71.5205C45.668 71.9125 47.04 73.2845 47.1576 75.2053C47.3536 78.7529 47.2164 82.3005 47.2164 85.9265H44.982C44.9232 85.3973 44.884 84.8877 44.8056 84.2213C43.022 86.0637 40.9052 86.3381 38.6316 86.0049C36.1424 85.6521 34.5352 83.9273 34.594 81.6929C34.6528 79.4389 36.1816 77.8709 38.7296 77.6357C40.3172 77.4985 41.9244 77.5377 43.512 77.4985C43.8844 77.4985 44.2568 77.4985 44.688 77.4985ZM42.0812 79.3801C42.0812 79.3801 42.0812 79.3409 42.0812 79.3213C41.062 79.3997 40.0428 79.4193 39.0432 79.5565C38.0632 79.6937 37.436 80.3013 37.24 81.2813C37.0636 82.1829 37.3772 82.9081 38.0828 83.4569C39.984 84.9073 43.7276 83.9861 44.59 81.7909C44.8448 81.1245 44.7664 80.2817 44.6488 79.5565C44.6292 79.3997 43.6688 79.4193 43.1396 79.3801C42.7868 79.3605 42.434 79.3801 42.0812 79.3801Z" fill="#5B4CFF"/>
<path d="M108.525 77.4983C108.8 75.0483 107.565 73.5391 105.252 73.3823C103.331 73.2647 101.606 73.7351 99.9404 74.8915C99.5876 74.2643 99.2544 73.6567 98.784 72.8531C99.764 72.4023 100.646 71.9123 101.587 71.5987C103.331 71.0107 105.154 70.9323 106.977 71.3047C109.29 71.7751 110.897 73.1471 111.054 75.4991C111.269 78.9487 111.112 82.4179 111.112 85.9263H108.819C108.8 85.3775 108.76 84.8483 108.741 84.1035C107.526 85.5147 106.075 86.0243 104.448 86.1223C103.018 86.2007 101.646 86.0243 100.411 85.2403C99.0192 84.3583 98.3528 83.0843 98.49 81.4575C98.6076 79.8503 99.4112 78.6351 100.94 78.1255C102.077 77.7531 103.292 77.6159 104.488 77.5375C105.82 77.4395 107.153 77.5179 108.545 77.5179L108.525 77.4983ZM108.545 79.5367C106.624 79.5367 104.742 79.4583 102.88 79.5759C101.842 79.6347 101.195 80.4579 101.077 81.3987C100.96 82.4571 101.371 83.2999 102.351 83.7311C104.017 84.4563 105.664 84.2799 107.192 83.3195C108.604 82.4375 108.819 81.0851 108.545 79.5563V79.5367Z" fill="#5B4CFF"/>
<path d="M278.79 78.6351C278.771 74.2839 281.926 71.1283 286.336 71.1087C290.844 71.0891 294.078 74.1467 294.118 78.5175C294.157 82.8687 290.942 86.0831 286.513 86.1223C282.083 86.1615 278.83 82.9863 278.81 78.6351H278.79ZM281.436 78.6155C281.436 81.6731 283.514 83.8291 286.454 83.8291C289.394 83.8291 291.452 81.6731 291.452 78.5959C291.452 75.5383 289.374 73.3823 286.434 73.3823C283.494 73.3823 281.436 75.5579 281.436 78.6155Z" fill="#5B4CFF"/>
<path d="M350.174 71.1284C354.662 71.1284 357.857 74.2448 357.857 78.6352C357.857 82.9864 354.584 86.1812 350.154 86.1616C345.764 86.142 342.549 82.9864 342.53 78.6744C342.49 74.3036 345.705 71.148 350.174 71.148V71.1284ZM345.176 78.6352C345.195 81.6928 347.292 83.8488 350.213 83.8292C353.172 83.8292 355.211 81.6732 355.191 78.596C355.191 75.5384 353.114 73.402 350.174 73.402C347.253 73.402 345.156 75.5972 345.176 78.6352Z" fill="#5B4CFF"/>
<path d="M305.642 71.3048H308.132C308.132 72.03 308.132 72.716 308.132 73.402C308.132 75.3424 308.132 77.2828 308.132 79.2232C308.132 82.1828 309.445 83.7116 311.993 83.7508C314.835 83.79 316.658 82.1436 316.736 79.3016C316.814 76.8908 316.756 74.4604 316.756 72.0496C316.756 71.834 316.756 71.6184 316.795 71.3244H319.343V85.9068H316.932V83.9664C316.716 84.084 316.579 84.1232 316.52 84.2016C314.58 86.4164 311.013 86.5732 308.641 85.4756C306.877 84.6524 305.78 83.202 305.682 81.3204C305.525 78.0276 305.642 74.7152 305.642 71.3048Z" fill="#5B4CFF"/>
<path d="M361.64 85.9264V71.3244H364.09V73.4412C365.305 72.128 366.579 71.4224 368.088 71.2068C372.361 70.5992 375.556 72.6768 375.556 77.2436C375.556 80.1052 375.556 82.9668 375.556 85.9068H373.027C373.008 85.5932 372.949 85.26 372.949 84.9268C372.949 82.9276 372.949 80.9088 372.949 78.9096C372.949 78.498 372.949 78.0864 372.949 77.6748C372.812 74.3232 370.518 72.6964 367.265 73.696C365.364 74.284 364.286 75.8128 364.246 78.0864C364.207 80.3404 364.246 82.614 364.246 84.868C364.246 85.2012 364.246 85.554 364.246 85.946H361.659L361.64 85.9264Z" fill="#5B4CFF"/>
<path d="M206.094 85.946H203.566V71.3636H205.957C205.976 71.9712 206.016 72.5788 206.055 73.3432C208.054 71.2656 210.426 70.7952 213.052 71.3244C215.345 71.7948 217.109 73.3824 217.246 75.6952C217.462 79.086 217.305 82.4768 217.305 85.946H214.855C214.855 85.5736 214.855 85.2404 214.855 84.8876C214.855 82.4768 214.875 80.0464 214.855 77.6356C214.816 75.0092 213.444 73.5784 210.994 73.4804C208.407 73.3824 206.427 74.8524 206.251 77.3024C206.074 79.7132 206.153 82.1436 206.114 84.5544C206.114 84.9856 206.114 85.4364 206.114 85.9656L206.094 85.946Z" fill="#5B4CFF"/>
<path d="M378.731 84.4172C379.123 83.692 379.456 83.0452 379.809 82.3788C381.886 83.5156 384.042 84.1428 386.375 83.7312C386.865 83.6528 387.394 83.496 387.786 83.2216C388.903 82.4768 388.805 80.9676 387.57 80.4776C386.571 80.0856 385.473 79.9484 384.434 79.6936C383.513 79.4584 382.572 79.282 381.671 78.988C380.26 78.5176 379.358 77.5572 379.221 76.0088C379.064 74.382 379.652 73.0688 381.044 72.1672C382.827 71.0108 384.846 70.9128 386.865 71.2068C388.158 71.4028 389.413 71.834 390.804 72.2064C390.314 73.108 389.962 73.7548 389.589 74.4604C387.982 73.4608 386.257 73.206 384.493 73.3824C383.846 73.4412 383.16 73.6372 382.612 73.99C381.436 74.7348 381.534 76.2636 382.808 76.8124C383.729 77.2044 384.768 77.3416 385.748 77.5964C386.845 77.8904 388.002 78.0472 389.06 78.498C391.471 79.5172 391.98 82.5748 390.079 84.4172C388.57 85.8676 386.63 86.1224 384.65 86.1028C382.592 86.0832 380.612 85.6324 378.75 84.3976L378.731 84.4172Z" fill="#5B4CFF"/>
<path d="M134.28 72.2064C133.75 73.1668 133.417 73.794 133.045 74.4996C131.438 73.4804 129.713 73.2452 127.929 73.4216C127.282 73.4804 126.596 73.696 126.067 74.0292C124.891 74.7936 124.989 76.2832 126.283 76.832C127.204 77.224 128.243 77.3612 129.223 77.616C130.262 77.8904 131.359 78.0276 132.359 78.4392C135.064 79.5172 135.514 82.8688 133.241 84.7112C131.908 85.7892 130.301 86.0832 128.674 86.1224C126.4 86.1812 124.244 85.75 122.226 84.4368C122.598 83.7508 122.931 83.0844 123.304 82.3788C125.401 83.5156 127.537 84.1428 129.87 83.7508C130.242 83.692 130.614 83.594 130.967 83.4372C131.653 83.1236 132.026 82.5748 132.006 81.7712C132.006 81.0068 131.516 80.5756 130.889 80.3992C129.909 80.1248 128.909 79.9484 127.91 79.7132C127.008 79.4976 126.087 79.3408 125.224 79.0468C123.794 78.5568 122.833 77.6356 122.696 76.0284C122.559 74.3428 123.147 73.0296 124.597 72.1476C126.342 71.0696 128.302 70.952 130.242 71.2264C131.536 71.4028 132.81 71.834 134.28 72.2064Z" fill="#5B4CFF"/>
<path d="M173.382 81.7908C174.009 82.1828 174.597 82.5552 175.185 82.9276C174.322 85.2404 171.147 86.534 167.717 86.0244C164.17 85.4952 161.661 82.5748 161.504 78.8508C161.367 75.264 163.64 72.226 167.09 71.3832C170.579 70.5404 174.048 71.7556 175.204 74.284C174.597 74.676 173.989 75.068 173.401 75.46C170.5 72.9316 167.541 72.7552 165.483 75.0092C163.64 77.0084 163.738 80.5952 165.679 82.4964C167.776 84.5152 170.873 84.28 173.362 81.8104L173.382 81.7908Z" fill="#5B4CFF"/>
<path d="M234.808 74.284C234.22 74.676 233.612 75.068 233.005 75.46C230.77 72.6376 227.046 72.9512 225.165 74.9308C223.244 76.93 223.322 80.556 225.322 82.4768C227.419 84.5152 230.496 84.2604 233.005 81.7908C233.593 82.1632 234.2 82.5356 234.808 82.9276C233.926 85.26 230.633 86.5928 227.242 86.0048C223.656 85.3776 221.206 82.4572 221.166 78.7528C221.127 75.0288 223.401 72.0888 226.909 71.344C230.77 70.5208 234.083 72.1868 234.808 74.3036V74.284Z" fill="#5B4CFF"/>
<path d="M52.822 73.402H50.3916V71.2656C50.8032 71.2656 51.1952 71.2656 51.6068 71.2656C52.4169 71.2656 52.822 70.8475 52.822 70.0112C52.822 69.5016 52.822 68.992 52.822 68.4824C52.822 68.3844 52.8612 68.306 52.8808 68.1296H55.4092V71.2852H59.6232V73.402H55.4288C55.4288 74.7544 55.4288 75.9696 55.4288 77.2044C55.4288 78.5372 55.4288 79.87 55.4288 81.2224C55.468 83.5352 56.9968 84.5544 59.1528 83.6724C59.3488 83.594 59.5448 83.4764 59.8388 83.3392C60.1132 83.9272 60.368 84.476 60.662 85.1228C58.996 86.338 57.2124 86.4164 55.3896 85.7892C53.7236 85.2208 52.9004 83.9076 52.8612 82.2024C52.7828 79.6936 52.822 77.1652 52.822 74.6564C52.822 74.284 52.822 73.9116 52.822 73.402Z" fill="#5B4CFF"/>
<path d="M322.459 73.4413V71.2657C322.949 71.2657 323.42 71.2265 323.87 71.2657C324.694 71.3637 325.046 71.0893 324.968 70.2269C324.89 69.5409 324.968 68.8353 324.968 68.0905H327.536V71.2265H331.769V73.3432H327.575C327.575 74.1076 327.575 74.7741 327.575 75.4209C327.575 77.2633 327.575 79.1057 327.575 80.9677C327.575 83.6333 329.182 84.6328 331.612 83.496C331.73 83.4372 331.828 83.398 332.024 83.3196C332.279 83.9272 332.534 84.4957 332.808 85.1229C331.024 86.3185 329.182 86.4164 327.32 85.6716C325.634 85.0052 325.007 83.5744 324.988 81.8496C324.948 79.4388 324.988 77.0085 324.988 74.5977C324.988 74.2449 324.988 73.9117 324.988 73.4413H322.498H322.459Z" fill="#5B4CFF"/>
<path d="M297.9 65.4052H300.409V85.9068H297.9V65.4052Z" fill="#5B4CFF"/>
<path d="M116.326 65.4052H118.835V85.9264H116.326V65.4052Z" fill="#5B4CFF"/>
<path d="M88.4156 71.1284V73.5392C87.906 73.598 87.4356 73.6176 86.9652 73.696C84.7896 74.0684 83.4372 75.3816 83.2804 77.5768C83.1236 79.9288 83.1824 82.2808 83.1628 84.6328C83.1628 85.0444 83.1628 85.4364 83.1628 85.9068H80.6344V71.3244H83.0452V73.6176C84.4956 71.736 86.2596 71.0892 88.4156 71.1088V71.1284Z" fill="#5B4CFF"/>
<path d="M91.826 71.3048H94.3349V85.9264H91.826V71.3048Z" fill="#5B4CFF"/>
<path d="M338.668 85.9263H336.179V71.3243H338.668V85.9263Z" fill="#5B4CFF"/>
<path d="M181.163 85.9851C180.634 85.9851 180.183 85.9851 179.752 85.9851C179.438 85.9851 179.124 85.9851 178.713 85.9851V71.3243H181.163V85.9851Z" fill="#5B4CFF"/>
<path d="M178.144 66.6204C178.144 65.66 178.948 64.9348 179.967 64.9348C181.006 64.9348 181.751 65.66 181.731 66.64C181.712 67.62 180.928 68.3648 179.928 68.3452C178.928 68.3452 178.125 67.5612 178.144 66.6008V66.6204Z" fill="#5B4CFF"/>
<path d="M93.1392 64.9544C94.178 64.9544 94.9228 65.7188 94.8836 66.6792C94.8444 67.6592 94.0604 68.3844 93.0608 68.3648C92.0416 68.3452 91.3164 67.6004 91.336 66.6008C91.336 65.6012 92.1004 64.9348 93.1392 64.9348V64.9544Z" fill="#5B4CFF"/>
<path d="M337.434 64.9544C338.492 64.9544 339.178 65.66 339.158 66.6792C339.139 67.6788 338.374 68.3844 337.375 68.3648C336.375 68.3648 335.611 67.5808 335.63 66.6204C335.63 65.6208 336.395 64.9348 337.434 64.9544Z" fill="#5B4CFF"/>
</g>
<defs>
<clipPath id="clip0_9_304">
<rect width="392" height="86.2008" fill="white"/>
</clipPath>
</defs>
</svg>
