<svg width="504" height="336" viewBox="0 0 504 336" fill="none" xmlns="http://www.w3.org/2000/svg">
<g clip-path="url(#clip0_9_305)">
<path d="M331.963 166.804C332.285 166.444 332.529 166.187 332.76 165.917C340.911 156.275 349.074 146.62 357.186 136.953C357.791 136.233 358.382 135.924 359.333 135.937C362.354 135.989 365.388 135.937 368.409 135.963C368.834 135.963 369.245 136.001 369.888 136.04C369.502 136.541 369.258 136.901 368.975 137.236C367.304 139.254 365.671 141.324 363.936 143.278C362.997 144.332 362.624 145.425 362.624 146.865C362.663 163.68 362.65 180.495 362.65 197.311V198.969H353.6C353.574 196.154 353.6 193.326 353.6 190.484V156.224C353.497 156.172 353.471 156.147 353.432 156.134C353.394 156.134 353.342 156.134 353.317 156.134C353.24 156.172 353.162 156.237 353.111 156.301C352.957 156.468 352.828 156.635 352.687 156.815C345.925 164.901 339.162 172.988 332.4 181.074C332.349 181.138 332.272 181.19 332.195 181.241C332.169 181.267 332.117 181.28 331.963 181.318C324.995 172.911 317.989 164.477 310.982 156.044L310.687 156.134V198.956H301.662C301.662 198.416 301.623 197.838 301.623 197.285C301.623 180.431 301.598 163.564 301.649 146.71C301.649 145.36 301.302 144.358 300.428 143.355C298.409 141.054 296.494 138.65 294.437 136.181C294.771 136.079 294.99 135.976 295.221 135.976C298.602 135.976 301.983 136.014 305.364 135.937C306.252 135.937 306.637 136.451 307.074 136.991C312.937 144.023 318.812 151.068 324.674 158.113C326.834 160.71 329.006 163.307 331.179 165.904C331.41 166.174 331.642 166.444 331.989 166.817H331.963V166.804Z" fill="#5B4CFF"/>
<path d="M400.061 198.944V136.207C401.038 135.899 441.495 135.77 444.169 136.053C444.426 136.979 444.516 142.777 444.272 145.258C442.009 145.361 439.721 145.296 437.432 145.296C435.067 145.296 432.714 145.296 430.362 145.296H409.471C409.137 146.312 409.047 159.862 409.355 161.739H434.836V171.291H409.278V189.7C412.518 189.752 415.745 189.726 418.971 189.726H448V198.841C447.087 199.124 402.902 199.239 400.061 198.944Z" fill="#5B4CFF"/>
<path d="M111.383 198.995H102.307V171.445C101.15 171.111 66.7476 171.072 65.2563 171.381V198.969H56.2315C55.9744 197.941 55.8973 137.801 56.1801 135.976C59.1112 135.976 62.0681 135.95 65.2177 135.976C65.2177 137.711 65.2434 139.383 65.2434 141.054V161.546C66.3362 161.855 100.687 161.919 102.217 161.623V136.246C103.271 135.899 109.725 135.834 111.37 136.13V198.995H111.383Z" fill="#5B4CFF"/>
<path d="M241.908 130.152V128.931C242.088 128.892 242.255 128.815 242.41 128.828C244.737 129.085 246.935 129.805 248.928 131.026C253.003 133.507 255.908 136.914 257.04 141.645C257.734 144.525 257.335 147.392 256.782 150.246C256.448 151.994 256.037 153.717 255.703 155.465C254.623 161.006 258.081 164.438 261.411 165.698C262.529 166.123 263.686 166.431 264.856 166.791V168.218C264.406 168.334 263.943 168.475 263.493 168.604C261.925 169.002 260.472 169.658 259.161 170.609C256.281 172.743 255.034 175.533 255.69 179.094C256.024 180.881 256.397 182.668 256.782 184.442C257.438 187.515 257.875 190.6 257.014 193.686C255.355 199.663 251.28 203.353 245.585 205.423C244.467 205.821 243.271 206.001 241.921 206.336C241.883 205.731 241.87 205.281 241.844 204.754C242.397 204.613 242.847 204.497 243.322 204.382C247.385 203.379 250.072 200.923 251.152 196.848C251.614 195.1 251.422 193.313 251.177 191.539C250.869 189.43 250.406 187.348 250.123 185.226C249.93 183.735 249.789 182.205 249.84 180.714C249.956 177.346 251.434 174.569 253.851 172.255C255.934 170.262 258.351 168.797 261.308 167.627C260.729 167.357 260.369 167.164 259.996 167.01C257.58 165.917 255.394 164.49 253.581 162.536C250.676 159.438 249.288 155.825 249.905 151.557C250.29 148.922 250.805 146.299 251.152 143.663C251.332 142.262 251.409 140.822 251.332 139.408C251.216 136.618 249.969 134.343 247.655 132.775C246.421 131.939 244.994 131.373 243.631 130.731C243.117 130.486 242.538 130.358 241.883 130.152H241.908Z" fill="#5B4CFF"/>
<path d="M169.298 128.802V130.242C168.63 130.409 167.987 130.551 167.357 130.731C163.218 131.939 160.672 134.652 159.862 138.894C159.528 140.707 159.862 142.532 160.132 144.319C160.467 146.428 160.968 148.51 161.186 150.619C161.366 152.29 161.392 154 161.186 155.671C160.865 158.371 159.489 160.595 157.561 162.472C155.723 164.259 153.64 165.66 151.3 166.714C150.902 166.894 150.503 167.074 149.938 167.331C150.49 167.601 150.902 167.807 151.313 168C153.319 168.912 155.131 170.069 156.764 171.548C160.582 175.045 162.035 179.339 161.212 184.429C160.749 187.232 160.235 190.035 159.862 192.85C159.22 197.928 161.328 201.553 166.033 203.623C167.049 204.073 168.103 204.395 169.273 204.819C169.298 205.179 169.311 205.59 169.35 206.194C168.733 206.104 168.219 206.079 167.717 205.95C160.968 204.42 156.378 200.461 154.296 193.801C153.46 191.102 153.743 188.338 154.244 185.612C154.643 183.388 155.17 181.177 155.543 178.953C156.16 175.212 154.566 171.792 151.21 169.967C149.745 169.17 148.112 168.694 146.389 168.038V166.688C147.225 166.431 148.035 166.226 148.832 165.968C150.632 165.364 152.2 164.387 153.512 162.986C155.196 161.186 155.954 159.065 155.568 156.622C155.26 154.694 154.887 152.778 154.476 150.863C153.846 147.983 153.409 145.078 153.961 142.134C154.926 137.017 158.062 133.469 162.421 130.885C164.118 129.882 165.982 129.278 167.91 128.879C168.321 128.789 168.759 128.802 169.26 128.764H169.298V128.802Z" fill="#5B4CFF"/>
</g>
<defs>
<clipPath id="clip0_9_305">
<rect width="392" height="77.5464" fill="white" transform="translate(56 128.802)"/>
</clipPath>
</defs>
</svg>
