<svg width="504" height="336" viewBox="0 0 504 336" fill="none" xmlns="http://www.w3.org/2000/svg">
<g clip-path="url(#clip0_9_997)">
<path d="M171.498 149.17C171.498 147.738 172.726 146.51 174.158 146.51H174.912C176.139 146.51 176.882 147.124 177.636 148.072L206.57 184.963V149.03C206.57 147.598 207.722 146.37 209.229 146.37C210.737 146.37 211.814 147.598 211.814 149.03V192.048C211.814 193.481 210.791 194.568 209.358 194.568H209.089C207.937 194.568 207.119 193.89 206.3 192.931L176.753 155.146V192.038C176.753 193.47 175.601 194.697 174.093 194.697C172.586 194.697 171.509 193.47 171.509 192.038V149.17H171.498Z" fill="#5B4CFF"/>
<path d="M249.566 190.832L268.895 148.556C269.573 147.059 270.596 146.177 272.298 146.177H272.567C274.204 146.177 275.291 147.059 275.905 148.556L295.234 190.767C295.438 191.241 295.578 191.715 295.578 192.124C295.578 193.556 294.415 194.708 292.994 194.708C291.702 194.708 290.819 193.825 290.334 192.738L285.37 181.776H259.225L254.25 192.867C253.777 194.03 252.894 194.708 251.666 194.708C250.309 194.708 249.211 193.621 249.211 192.253C249.211 191.844 249.276 191.37 249.556 190.821L249.566 190.832ZM283.27 176.876L272.308 152.508L261.347 176.876H283.27Z" fill="#5B4CFF"/>
<path d="M328.528 170.674V170.534C328.528 157.397 338.403 145.886 352.896 145.886C367.39 145.886 377.135 157.257 377.135 170.394V170.534C377.135 183.671 367.261 195.182 352.767 195.182C338.273 195.182 328.528 183.811 328.528 170.674ZM371.557 170.674V170.534C371.557 159.712 363.664 150.861 352.767 150.861C341.87 150.861 334.117 159.572 334.117 170.394V170.534C334.117 181.356 342.01 190.207 352.907 190.207C363.804 190.207 371.557 181.496 371.557 170.674Z" fill="#5B4CFF"/>
<path d="M413.693 188.646C413.079 188.236 412.67 187.493 412.67 186.6C412.67 185.103 413.822 183.94 415.254 183.94C415.933 183.94 416.546 184.209 416.891 184.554C421.381 188.366 425.882 190.207 431.934 190.207C438.33 190.207 442.551 186.804 442.551 182.109V181.969C442.551 177.544 440.172 175.024 430.157 172.913C419.195 170.534 414.156 166.991 414.156 159.163V159.023C414.156 151.539 420.757 146.026 429.813 146.026C436.08 146.026 440.635 147.587 444.996 150.721C445.545 151.13 446.159 151.873 446.159 152.896C446.159 154.328 444.996 155.48 443.574 155.48C442.96 155.48 442.487 155.34 442.013 155.006C437.996 152.077 434.12 150.85 429.694 150.85C423.503 150.85 419.551 154.252 419.551 158.538V158.678C419.551 163.168 422.006 165.688 432.483 167.939C443.1 170.254 448 174.13 448 181.42V181.56C448 189.733 441.194 195.042 431.729 195.042C424.784 195.042 419.002 192.867 413.693 188.646Z" fill="#5B4CFF"/>
<path opacity="0.5" d="M96.0894 143.312C99.9228 148.179 102.658 153.962 103.907 160.272C110.217 161.521 115.999 164.256 120.867 168.089C130.192 160.746 136.179 149.375 136.179 136.582C136.179 133.901 135.91 131.295 135.414 128.765C132.884 128.269 130.267 128 127.597 128C114.815 128 103.433 133.987 96.0894 143.312Z" fill="#5B4CFF"/>
<path opacity="0.5" d="M120.877 168.089C116.01 171.923 110.228 174.658 103.918 175.907C102.669 182.217 99.9335 187.999 96.1001 192.867C103.444 202.192 114.815 208.179 127.607 208.179C130.289 208.179 132.895 207.91 135.425 207.414C135.92 204.884 136.19 202.267 136.19 199.597C136.19 186.815 130.203 175.433 120.877 168.089Z" fill="#5B4CFF"/>
<path opacity="0.7" d="M104.682 168.089C104.682 170.771 104.413 173.376 103.918 175.907C110.228 174.658 116.01 171.923 120.878 168.089C116.01 164.256 110.228 161.521 103.918 160.272C104.413 162.802 104.682 165.419 104.682 168.089Z" fill="#5B4CFF"/>
<path opacity="0.5" d="M71.3122 168.089C76.1793 164.256 81.9618 161.521 88.2718 160.272C89.5209 153.962 92.256 148.179 96.0894 143.312C88.7564 133.987 77.3746 128 64.5929 128C61.9117 128 59.295 128.269 56.7645 128.765C56.2692 131.295 56 133.912 56 136.593C56 149.375 61.987 160.756 71.3122 168.1V168.089Z" fill="#5B4CFF"/>
<path opacity="0.5" d="M96.0894 192.877C92.256 188.01 89.5209 182.228 88.2718 175.918C81.9618 174.669 76.1793 171.934 71.3122 168.1C61.987 175.433 56 186.815 56 199.597C56 202.278 56.2692 204.884 56.7645 207.414C59.295 207.91 61.9117 208.179 64.5821 208.179C77.3638 208.179 88.7456 202.192 96.0894 192.867V192.877Z" fill="#5B4CFF"/>
<path opacity="0.7" d="M88.2717 160.272C81.9616 161.521 76.1792 164.256 71.312 168.089C76.1792 171.923 81.9616 174.658 88.2717 175.907C87.7764 173.376 87.5072 170.76 87.5072 168.089C87.5072 165.419 87.7764 162.802 88.2717 160.272Z" fill="#5B4CFF"/>
<path opacity="0.7" d="M103.918 160.272C102.669 153.962 99.9337 148.179 96.1003 143.312C92.2669 148.179 89.5318 153.962 88.2827 160.272C90.8132 159.777 93.4298 159.507 96.1003 159.507C98.7708 159.507 101.387 159.777 103.918 160.272Z" fill="#5B4CFF"/>
<path opacity="0.7" d="M88.272 175.918C89.5211 182.228 92.2562 188.01 96.0896 192.877C99.923 188.01 102.658 182.228 103.907 175.918C101.377 176.413 98.7601 176.682 96.0896 176.682C93.4191 176.682 90.8025 176.413 88.272 175.918Z" fill="#5B4CFF"/>
<path d="M103.918 160.272C101.387 159.777 98.7707 159.507 96.1002 159.507C93.4297 159.507 90.8131 159.777 88.2826 160.272C87.7873 162.802 87.5181 165.419 87.5181 168.089C87.5181 170.76 87.7873 173.377 88.2826 175.907C90.8131 176.402 93.4297 176.672 96.1002 176.672C98.7707 176.672 101.387 176.402 103.918 175.907C104.413 173.377 104.682 170.76 104.682 168.089C104.682 165.419 104.413 162.802 103.918 160.272Z" fill="#5B4CFF"/>
</g>
<defs>
<clipPath id="clip0_9_997">
<rect width="392" height="80.1897" fill="white" transform="translate(56 128)"/>
</clipPath>
</defs>
</svg>
