<svg width="504" height="336" viewBox="0 0 504 336" fill="none" xmlns="http://www.w3.org/2000/svg">
<g clip-path="url(#clip0_9_916)">
<path d="M178.511 119.849C178.792 115.697 180.581 112.22 183.463 109.325C193.245 99.499 203.078 89.7157 212.888 79.9108C214.06 78.74 215.353 77.878 217.107 78.0145C217.977 78.9411 217.74 80.1047 217.74 81.1966C217.761 90.0389 217.876 98.8812 217.711 107.716C217.596 114.059 220.262 118.369 226.099 120.775C226.551 120.962 226.997 121.156 227.378 121.472C227.989 122.097 227.586 122.521 227.011 122.686C222.39 124.015 219.465 127.039 217.898 131.514C217.682 132.132 217.251 132.864 216.367 132.103C215.526 130.587 215.116 128.863 214.009 127.47C211.357 124.144 207.879 122.521 203.667 122.499C196.71 122.456 189.745 122.492 182.788 122.485C182.091 122.485 181.394 122.499 180.704 122.47C178.447 122.37 178.296 122.183 178.511 119.841V119.849Z" fill="#5B4CFF"/>
<path d="M262.049 213.221C261.97 213.465 261.891 213.709 261.812 213.954C260.856 214.744 259.699 214.564 258.599 214.564C249.536 214.578 240.473 214.564 231.402 214.578C225.25 214.586 220.6 216.97 218.3 222.983C218.077 223.572 217.811 224.139 217.208 224.455C216.187 224.599 216.165 223.701 215.957 223.133C214.512 219.183 211.831 216.525 207.871 215.11C207.347 214.923 206.578 214.887 206.606 214.004C207.117 213.149 208.044 212.941 208.856 212.574C214.002 210.276 216.482 206.261 216.51 200.701C216.546 193.108 216.51 185.523 216.532 177.931C216.532 176.911 216.338 175.819 217.157 174.957C219.012 174.476 220.55 175.797 222.31 175.869C225.638 175.79 227.694 177.873 229.843 180.042C240.006 190.307 250.262 200.478 260.461 210.7C261.165 211.404 262.193 211.957 262.049 213.221Z" fill="#5B4CFF"/>
<path opacity="0.4" d="M216.748 224.391C218.3 222.997 218.236 220.778 219.558 219.161C222.368 215.735 225.912 214.025 230.21 213.982C240.739 213.889 251.276 213.946 261.812 213.946C261.058 215.857 259.886 217.466 258.434 218.91C246.058 231.265 233.688 243.62 221.326 255.982C220.155 257.152 218.933 258.108 217.15 257.943C216.46 257.217 216.475 256.291 216.468 255.393C216.396 245.516 216.561 235.632 216.381 225.755C216.374 225.267 216.381 224.778 216.748 224.383V224.391Z" fill="#5B4CFF"/>
<path opacity="0.7" d="M227.594 121.888C221.125 120.351 216.863 114.964 217.05 108.068C217.323 98.0551 217.115 88.0347 217.107 78.0144C218.696 77.9282 219.903 78.668 220.981 79.7383C233.588 92.3374 246.209 104.922 258.808 117.528C260.037 118.757 261.115 120.129 261.618 121.845C260.849 122.643 259.836 122.535 258.88 122.542C249.371 122.564 239.855 122.564 230.346 122.542C229.39 122.542 228.377 122.657 227.594 121.881V121.888Z" fill="#5B4CFF"/>
<path opacity="0.7" d="M216.748 224.391C217.079 225.605 217.15 226.833 217.15 228.097C217.136 238.053 217.15 248.001 217.15 257.957C215.469 258.201 214.211 257.425 213.09 256.305C203.164 246.392 193.188 236.537 183.341 226.546C179.252 222.394 177.556 217.301 178.562 211.447C179.338 213.041 180.675 213.35 182.342 213.329C189.156 213.264 195.977 213.286 202.79 213.314C204.163 213.314 205.608 213.185 206.686 214.363C211.853 215.297 215.785 219.219 216.748 224.398V224.391Z" fill="#5B4CFF"/>
<path opacity="0.4" d="M206.685 214.356C199.476 213.479 192.239 214.169 185.016 213.961C183.693 213.925 182.356 213.824 181.048 213.989C178.971 214.255 178.288 213.364 178.554 211.439C178.619 208.782 179.726 206.497 181.099 204.299C180.876 203.358 181.616 202.913 182.126 202.396C192.081 192.426 202.05 182.47 212.025 172.529C212.608 171.947 213.175 171.257 214.167 171.466C215.425 172.514 216.963 173.297 217.502 175.021C216.884 175.668 217.143 176.472 217.143 177.205C217.121 184.848 217.128 192.483 217.128 200.126C217.128 207.115 214.426 211.044 207.886 213.601C207.447 213.774 207.081 214.104 206.678 214.363L206.685 214.356Z" fill="#5B4CFF"/>
<path opacity="0.7" d="M178.511 119.848C178.325 121.479 179.036 121.931 180.653 121.917C188.509 121.831 196.365 121.852 204.22 121.888C210.38 121.917 215.612 126.299 216.741 132.304C217.84 133.144 217.754 134.373 217.768 135.536C217.804 140.184 217.768 144.824 217.804 149.464C217.847 150.067 217.61 150.577 217.15 150.929C213.794 153.523 213.089 157.272 212.665 161.137C212.608 161.69 212.615 162.257 212.313 162.753C211.839 163.248 211.372 162.947 211.034 162.638C209.711 161.417 208.188 160.361 207.469 158.608C207.275 157.804 207.117 156.992 206.98 156.173C206.204 151.526 203.904 149.507 199.125 149.234C197.96 149.17 196.767 149.385 195.624 148.976C196.113 147.065 194.532 146.304 193.511 145.269C189.803 141.52 186.051 137.82 182.342 134.078C181.753 133.482 180.833 133.008 181.07 131.894C179 128.138 177.606 124.244 178.504 119.856L178.511 119.848Z" fill="#5B4CFF"/>
<path opacity="0.4" d="M262.049 213.221C261.503 212.596 260.985 211.935 260.396 211.346C250.133 201.081 239.862 190.817 229.584 180.567C227.615 178.598 225.926 176.113 222.598 176.4C223.245 175.517 224.222 175.718 225.099 175.711C226.573 175.689 228.024 175.589 229.462 175.251C231.079 174.87 231.323 173.75 231.115 172.371C230.899 170.949 229.836 171.135 228.851 171.265C226.968 171.509 225.085 171.545 223.209 171.358C220.895 171.128 219.644 169.878 219.594 167.939C220.118 167.379 220.816 167.292 221.506 167.285C227.112 167.235 232.711 167.199 238.317 167.307C238.662 167.307 238.999 167.393 239.33 167.501C240.466 168.039 240.43 169.196 240.703 170.173C241.917 174.547 246.604 177.047 250.923 175.596C252.008 175.23 252.167 174.396 252.145 173.434C252.123 172.414 251.57 171.925 250.578 171.861C249.529 171.789 248.487 171.703 247.531 171.207C245.985 170.403 245.569 169.304 246.18 167.673C248.048 167.012 249.96 167.314 251.865 167.429C255.66 168.169 258.887 169.857 261.223 173.017C262.394 174.605 263.034 176.4 263.178 178.361C263.199 188.454 263.242 198.546 263.213 208.638C263.213 210.218 262.89 211.806 262.063 213.221H262.049Z" fill="#5B4CFF"/>
<path d="M168.593 206.49C164.676 206.181 161.327 204.551 158.588 201.836C148.598 191.937 138.665 181.975 128.718 172.033C127.604 170.92 126.749 169.677 127.072 167.968C127.784 167.256 128.711 167.249 129.616 167.249C138.557 167.228 147.491 167.228 156.432 167.249C157.201 167.249 157.97 167.264 158.682 167.623C159.666 168.377 159.494 169.483 159.501 170.496C159.537 175.007 159.516 179.525 159.516 184.036C159.516 184.733 159.508 185.422 159.602 186.112C159.781 187.434 160.622 188.044 161.88 188.102C163.246 188.166 164.166 187.549 164.41 186.162C164.669 184.718 164.525 183.253 164.539 181.795C164.561 180.057 164.482 178.318 164.575 176.587C164.69 174.526 165.122 174.188 167.012 174.799C168.327 175.23 169.736 175.416 170.915 176.221C171.669 176.997 171.698 177.988 171.698 178.965C171.727 187.261 171.741 195.558 171.698 203.854C171.684 206.569 171.382 206.77 168.593 206.49Z" fill="#5B4CFF"/>
<path opacity="0.4" d="M217.531 149.931C216.884 149.306 217.15 148.502 217.143 147.769C217.122 143.833 217.107 139.904 217.143 135.967C217.158 134.717 217.05 133.503 216.741 132.297C217.927 130.946 218.121 129.1 219.113 127.628C221.182 124.553 224.187 122.952 227.586 121.888C238.928 121.874 250.269 121.867 261.611 121.853C261.949 122.039 261.992 122.363 261.999 122.7C262.2 123.44 261.704 123.878 261.273 124.309C255.243 130.278 249.371 136.405 243.197 142.238C241.688 142.834 240.171 143.423 239.992 145.384C238.317 147.532 236.247 149.299 234.342 151.224C232.553 153.034 232.445 152.991 231.202 150.728C230.008 149.565 228.456 149.371 226.939 149.306C224.309 149.191 221.65 149.019 219.098 149.996C218.588 150.19 218.034 150.369 217.517 149.945L217.531 149.931Z" fill="#5B4CFF"/>
<path opacity="0.7" d="M158.861 167.939C148.267 167.946 137.666 167.953 127.072 167.96C126.755 166.33 127.582 165.123 128.639 164.067C138.593 154.104 148.519 144.113 158.552 134.229C161.952 130.882 166.156 129.143 171.044 129.423C171.82 130.292 171.683 131.37 171.69 132.397C171.712 136.491 171.726 140.593 171.683 144.687C171.669 146.066 171.92 147.288 172.797 148.365C172.201 149.629 171.008 149.191 170.052 149.234C166.774 149.378 163.964 150.477 161.621 152.833C160.205 154.255 159.501 155.893 159.501 157.875C159.501 160.382 159.522 162.889 159.486 165.389C159.472 166.272 159.637 167.221 158.868 167.939H158.861Z" fill="#5B4CFF"/>
<path opacity="0.7" d="M168.593 206.49C170.433 206.72 171.087 206.067 171.058 204.077C170.936 195.658 171.008 187.233 171.008 178.814C171.008 177.981 171.108 177.14 170.67 176.365C171.274 175.567 172.165 175.761 172.963 175.74C176.959 175.625 179.568 173.614 181.012 169.965C181.343 169.139 181.508 168.219 182.335 167.673C183.765 167.544 184.965 166.804 186.238 166.237C186.841 167.027 186.662 167.961 186.712 168.851C186.906 172.558 189.364 175.251 193.08 175.625C195.437 175.862 197.816 175.869 200.052 174.849C201.388 174.238 202.603 174.224 204.026 174.863C206.786 176.106 207.922 175.122 207.569 172.155C207.39 170.676 206.894 169.167 207.656 167.695C209.172 167.055 210.732 167.271 212.292 167.458C213.794 168.471 214.268 169.929 214.11 171.66C213.492 171.689 213.125 172.127 212.737 172.522C202.409 182.837 192.081 193.159 181.753 203.481C181.508 203.725 181.329 204.027 181.113 204.3C180.337 203.955 179.827 204.537 179.223 204.824C175.852 206.44 172.352 207.295 168.6 206.49H168.593Z" fill="#5B4CFF"/>
<path opacity="0.7" d="M243.125 141.886C248.861 136.111 254.603 130.336 260.339 124.553C260.921 123.964 261.446 123.318 261.999 122.693C262.876 124.086 263.178 125.688 263.185 127.254C263.228 137.325 263.185 147.403 263.156 157.473C262.373 163.299 258.269 167.558 252.943 168.075C252.728 168.097 252.541 168.047 252.361 167.925C250.277 167.925 248.185 167.925 246.101 167.917C245.418 167.364 245.454 166.567 245.44 165.813C245.404 162.76 245.368 159.707 245.447 156.654C245.504 154.449 245.986 154.025 248.2 153.91C248.897 153.874 249.587 153.896 250.284 153.867C251.326 153.824 252.009 153.422 252.038 152.265C252.066 151.123 251.563 150.419 250.406 150.225C249.508 150.075 248.602 150.132 247.704 150.103C246.281 150.06 245.519 149.378 245.461 147.934C245.425 147.173 245.353 146.397 245.432 145.65C245.634 143.775 245.087 142.41 243.118 141.893L243.125 141.886Z" fill="#5B4CFF"/>
<path opacity="0.4" d="M186.015 166.258C185.605 168.607 183.758 167.788 182.35 167.917C181.71 167.285 181.882 166.509 181.997 165.755C182.414 162.896 182.199 160.066 181.667 157.236C180.898 153.142 178.648 150.441 174.53 149.407C173.876 149.241 173.114 149.241 172.697 148.552C171.317 148.286 170.972 147.474 170.994 146.081C171.087 140.536 171.03 134.983 171.03 129.431C174.019 129.107 176.743 129.998 179.374 131.298C179.913 131.564 180.373 132.067 181.07 131.887C185.189 136.075 189.307 140.27 193.44 144.45C194.554 145.578 195.718 146.656 196.818 147.719C196.473 148.545 195.675 148.028 195.359 148.53C194.633 149.514 193.461 149.234 192.491 149.529C191.693 149.766 190.831 149.809 190.062 150.139C188.646 150.75 188.689 151.971 188.933 153.163C189.213 154.535 190.277 154.068 191.125 153.91C193.799 153.415 196.451 152.682 199.189 153.53C200.296 153.875 201.259 154.363 201.784 155.462C202.769 157.524 202.014 158.888 199.779 159.348C197.651 159.786 195.466 159.571 193.339 160.102C190.327 160.849 187.862 162.178 186.784 165.317C186.648 165.712 186.425 166.079 186.008 166.258H186.015Z" fill="#5B4CFF"/>
<path d="M252.368 167.932C258.211 166.761 261.654 163.112 263.163 157.48C263.163 164.441 263.163 171.408 263.163 178.369C261.575 172.816 257.902 169.412 252.368 167.932Z" fill="#5B4CFF"/>
<path d="M214.103 171.667C213.6 170.41 213.104 169.153 212.6 167.896C211.702 166.301 211.336 164.649 212.09 162.882C212.306 160.964 212.421 159.025 212.751 157.128C213.283 154.061 214.936 151.662 217.531 149.931C221.434 148.25 225.451 148.272 229.527 149.112C230.554 149.328 231.575 149.601 231.92 150.8C232.064 151.267 231.985 151.755 232.049 152.23C232.322 154.341 232.114 154.622 229.943 155.06C228.154 154.765 226.35 154.629 224.524 154.686C221.707 154.772 219.939 156.137 219.292 158.874C218.774 161.072 218.911 163.306 219.148 165.525C219.378 166.445 219.479 167.393 219.637 168.327C220.406 170.18 222.009 170.747 223.798 170.956C225.538 171.164 227.27 171.028 228.98 170.661C230.008 170.446 231.237 169.699 231.798 171.286C232.516 173.319 231.726 175.23 230.058 175.747C227.622 176.501 225.092 176.278 222.598 176.393C220.823 176.221 219.155 175.653 217.502 175.014C216.194 174.073 215.044 172.967 214.095 171.66L214.103 171.667Z" fill="#FEFEFE"/>
<path d="M186.015 166.258C187.179 161.69 189.724 159.75 195.344 159.197C196.731 159.061 198.147 159.111 199.505 158.838C200.224 158.694 201.518 159.42 201.618 157.897C201.705 156.532 201.539 155.232 200.181 154.456C199.311 153.961 198.355 153.803 197.378 153.752C195.2 153.645 193.073 153.99 190.974 154.55C189.932 154.83 188.753 155.512 188.221 153.875C187.575 151.885 188.257 149.931 189.824 149.543C191.643 149.091 193.511 148.861 195.358 148.538C196.817 148.588 198.291 148.566 199.743 148.71C204.716 149.198 207.081 151.583 207.577 156.532C207.649 157.222 207.756 157.904 207.843 158.594C208.173 161.711 208.432 164.822 207.828 167.939C207.62 169.476 207.907 170.97 208.145 172.479C208.31 173.52 209.014 174.921 207.821 175.531C206.477 176.214 204.709 176.372 203.473 175.294C202.517 174.461 201.906 174.576 200.972 175.079C198.413 176.437 195.631 176.623 192.828 176.257C188.789 175.733 186.216 172.831 186.044 168.772C186.008 167.939 186.015 167.106 186 166.273L186.015 166.258Z" fill="#FEFEFE"/>
<path opacity="0.4" d="M207.835 167.932C207.584 164.814 207.555 161.704 207.85 158.587C209.05 160.224 210.523 161.604 212.09 162.882C212.263 164.549 212.428 166.222 212.601 167.896C211.012 167.91 209.424 167.917 207.835 167.932Z" fill="#5B4CFF"/>
<path d="M243.125 141.886C245.612 141.419 245.964 141.699 245.979 144.149C245.986 145.334 246.094 146.534 245.95 147.697C245.734 149.436 246.503 149.895 248.063 149.701C248.753 149.615 249.457 149.744 250.154 149.68C252.131 149.493 252.885 150.262 252.806 152.316C252.742 154.025 252.224 154.629 250.485 154.622C245.971 154.6 245.957 154.665 245.979 159.161C245.993 162.078 246.05 165.001 246.094 167.917C246.395 170.309 247.402 171.301 249.96 171.215C251.879 171.15 253.015 171.43 252.785 173.757C252.576 175.905 252.275 176.322 249.723 176.336C248.264 176.35 246.819 176.358 245.382 175.941C242.313 175.065 240.531 173.118 240.071 169.957C239.97 169.275 239.848 168.593 239.733 167.903C239.086 167.142 239.143 166.222 239.136 165.317C239.115 162.674 239.107 160.023 239.136 157.38C239.151 155.994 238.791 155.096 237.181 155.089C235.478 155.081 234.421 154.212 234.256 152.46C234.119 150.915 235.119 149.644 236.958 149.321C238.446 149.062 239.208 148.401 239.187 146.864C239.179 146.297 239.46 145.794 239.733 145.298C239.524 142.841 241.364 142.396 243.118 141.865L243.125 141.886Z" fill="#FEFEFE"/>
<path opacity="0.7" d="M239.747 145.32C239.776 145.664 239.826 146.009 239.833 146.354C239.884 149.507 239.884 149.579 236.822 149.859C235.054 150.017 234.903 151.059 234.91 152.445C234.917 153.896 235.471 154.586 237.016 154.614C239.833 154.665 239.848 154.729 239.833 157.509C239.812 160.979 239.776 164.455 239.747 167.925C233.767 167.925 227.795 167.91 221.815 167.932C221.082 167.932 220.269 167.666 219.644 168.327C218.997 167.63 218.731 166.797 218.767 165.856C218.933 165.051 219.572 164.577 220.104 164.053C223.331 160.921 226.35 157.581 229.728 154.607C231.288 154.851 232.042 154.248 231.877 152.61C231.819 152.014 231.899 151.404 231.92 150.793C232.078 151.224 232.244 151.662 232.466 152.273C234.924 149.924 237.332 147.618 239.747 145.32Z" fill="#5B4CFF"/>
<path d="M172.697 148.552C179.525 149.536 182.385 153.07 182.716 160.849C182.816 163.22 182.479 165.561 182.349 167.917C182.098 168.628 181.853 169.347 181.595 170.058C180.136 174.095 177.289 176.163 172.955 176.336C172.194 176.365 171.425 176.357 170.663 176.365C168.801 176.099 167.04 175.503 164.97 174.475C164.97 176.192 164.97 177.657 164.97 179.13C164.97 181.285 164.978 183.433 164.97 185.588C164.956 188.26 164.589 188.633 161.995 188.633C159.386 188.633 158.969 188.224 158.955 185.631C158.919 179.733 158.89 173.829 158.854 167.932C158.883 164.807 159.062 161.675 158.919 158.558C158.725 154.349 160.91 151.791 164.359 149.996C166.976 148.631 169.829 148.53 172.697 148.545V148.552Z" fill="#FEFEFE"/>
<path opacity="0.4" d="M229.728 154.607C229.656 155.469 228.966 155.9 228.427 156.417C225.179 159.542 222.21 162.94 218.76 165.856C218.013 163.04 218.121 160.239 219.091 157.516C219.824 155.469 221.355 154.255 223.583 154.025C225.667 153.81 227.73 153.839 229.721 154.6L229.728 154.607Z" fill="#5B4CFF"/>
<path opacity="0.4" d="M192.059 167.917C192.031 165.296 192.871 164.182 195.358 163.708C196.451 163.5 197.565 163.392 198.672 163.284C201.64 163.004 201.647 163.011 201.633 166.043C201.633 166.668 201.59 167.292 201.568 167.917C198.398 168.973 195.236 168.973 192.066 167.917H192.059Z" fill="#5B4CFF"/>
<path opacity="0.7" d="M192.06 167.917C195.229 167.917 198.392 167.917 201.561 167.917C201.935 169.318 201.324 170.094 200.03 170.604C198.521 171.2 196.99 171.538 195.373 171.38C193.296 171.171 192.052 170.13 192.06 167.917Z" fill="#5B4CFF"/>
<path opacity="0.4" d="M171.037 153.752C174.07 153.975 175.457 155.074 176.125 157.962C176.786 160.835 176.736 163.737 176.219 166.632C175.809 168.945 174.623 170.719 172.186 171.092C169.527 171.502 166.925 171.322 165.114 168.851C164.633 166.797 165.085 165.116 166.724 163.636C168.686 161.869 169.764 159.564 170.21 156.927C170.39 155.864 170.239 154.679 171.029 153.76L171.037 153.752Z" fill="#5B4CFF"/>
<path opacity="0.7" d="M171.037 153.752C171.101 158.062 169.865 161.884 166.458 164.685C164.999 165.885 165.244 167.364 165.122 168.844C164.719 164.771 164.985 160.684 164.992 156.611C164.992 155.06 166.494 154.737 167.587 154.255C168.658 153.781 169.829 153.515 171.037 153.752Z" fill="#5B4CFF"/>
<path d="M278.968 128.949H282.26V136.132C282.727 135.773 283.288 135.472 283.963 135.242C284.632 135.012 285.365 134.897 286.156 134.897C287.191 134.897 288.075 135.091 288.808 135.472C289.541 135.852 290.137 136.362 290.597 137.002C291.064 137.641 291.402 138.373 291.618 139.214C291.834 140.054 291.941 140.931 291.941 141.836C291.941 143.064 291.747 144.134 291.352 145.032C290.957 145.937 290.446 146.684 289.814 147.28C289.181 147.877 288.47 148.315 287.672 148.602C286.874 148.889 286.069 149.033 285.25 149.033C284.617 149.033 284.035 149.033 283.503 149.012C282.972 148.997 282.461 148.983 281.965 148.954C281.469 148.925 280.981 148.889 280.499 148.846C280.01 148.803 279.507 148.739 278.975 148.66V128.942L278.968 128.949ZM282.26 146.605C282.612 146.735 283.022 146.835 283.496 146.914C283.963 146.993 284.452 147.036 284.955 147.036C285.458 147.036 285.94 146.921 286.371 146.684C286.802 146.447 287.176 146.102 287.485 145.657C287.794 145.205 288.039 144.659 288.211 144.012C288.384 143.366 288.47 142.633 288.47 141.821C288.47 141.153 288.405 140.55 288.283 140.004C288.154 139.458 287.96 138.991 287.686 138.603C287.413 138.215 287.076 137.914 286.651 137.705C286.235 137.497 285.731 137.389 285.149 137.389C284.876 137.389 284.61 137.411 284.33 137.447C284.057 137.483 283.791 137.533 283.539 137.598C283.288 137.662 283.051 137.734 282.828 137.82C282.605 137.907 282.411 138 282.253 138.101V146.612L282.26 146.605Z" fill="#5B4CFF"/>
<path d="M297.404 135.105V144.465C297.404 144.824 297.454 145.14 297.562 145.399C297.67 145.657 297.806 145.873 297.986 146.038C298.165 146.203 298.374 146.325 298.611 146.397C298.848 146.476 299.114 146.512 299.387 146.512C300.013 146.512 300.659 146.433 301.321 146.275C301.989 146.117 302.593 145.88 303.132 145.549V135.105H306.424V146.383C306.424 146.605 306.452 146.914 306.503 147.324C306.553 147.733 306.632 148.214 306.733 148.76H303.621C303.606 148.71 303.577 148.617 303.542 148.473C303.506 148.336 303.462 148.186 303.427 148.028C303.391 147.869 303.355 147.719 303.319 147.575C303.283 147.431 303.261 147.324 303.254 147.259C302.967 147.51 302.643 147.747 302.284 147.963C301.924 148.178 301.551 148.365 301.155 148.516C300.76 148.674 300.372 148.789 299.969 148.875C299.574 148.961 299.193 149.004 298.834 149.004C297.921 149.004 297.166 148.882 296.563 148.631C295.959 148.379 295.477 148.042 295.111 147.611C294.751 147.18 294.493 146.677 294.342 146.095C294.191 145.513 294.112 144.889 294.112 144.221V135.105H297.404Z" fill="#5B4CFF"/>
<path d="M309.421 130.831C309.421 130.573 309.471 130.329 309.565 130.113C309.658 129.898 309.795 129.704 309.96 129.546C310.125 129.388 310.319 129.258 310.542 129.172C310.765 129.086 311.002 129.036 311.254 129.036C311.527 129.036 311.771 129.086 311.987 129.179C312.21 129.28 312.396 129.409 312.555 129.574C312.713 129.74 312.835 129.934 312.921 130.156C313.007 130.379 313.05 130.616 313.05 130.86C313.05 131.104 313.007 131.334 312.921 131.557C312.835 131.78 312.713 131.974 312.555 132.139C312.396 132.304 312.202 132.44 311.987 132.541C311.771 132.642 311.52 132.692 311.254 132.692C311.002 132.692 310.765 132.642 310.542 132.534C310.319 132.426 310.125 132.29 309.96 132.117C309.795 131.945 309.665 131.744 309.565 131.521C309.464 131.298 309.421 131.068 309.421 130.831ZM309.586 135.105H312.878V148.76H309.586V135.105Z" fill="#5B4CFF"/>
<path d="M315.738 128.949H319.03V145.463C319.03 145.894 319.102 146.196 319.238 146.376C319.375 146.555 319.569 146.641 319.813 146.641C320.094 146.641 320.331 146.605 320.525 146.526C320.719 146.447 320.942 146.361 321.193 146.261L321.747 147.956C321.538 148.099 321.308 148.236 321.057 148.358C320.805 148.487 320.547 148.595 320.273 148.696C320 148.789 319.72 148.868 319.425 148.933C319.138 148.99 318.843 149.019 318.556 149.019C318.196 149.019 317.844 148.983 317.506 148.904C317.169 148.825 316.867 148.681 316.608 148.466C316.349 148.25 316.134 147.956 315.975 147.575C315.817 147.194 315.738 146.706 315.738 146.11V128.949Z" fill="#5B4CFF"/>
<path d="M328.762 134.897C329.423 134.897 329.976 134.969 330.429 135.112C330.882 135.256 331.263 135.436 331.565 135.658V128.957H334.856V144.07C334.856 144.422 334.871 144.802 334.907 145.197C334.943 145.592 334.993 145.995 335.072 146.404C335.151 146.814 335.244 147.223 335.359 147.625C335.474 148.028 335.618 148.415 335.791 148.775H332.715C332.628 148.71 332.542 148.617 332.456 148.509C332.37 148.401 332.283 148.279 332.197 148.157C332.111 148.028 332.039 147.898 331.967 147.762C331.895 147.625 331.845 147.489 331.802 147.367C331.349 147.898 330.824 148.308 330.228 148.602C329.631 148.889 328.956 149.04 328.194 149.04C327.238 149.04 326.39 148.861 325.635 148.494C324.88 148.135 324.241 147.632 323.716 147C323.191 146.368 322.796 145.621 322.523 144.752C322.25 143.883 322.113 142.942 322.113 141.929C322.113 141.017 322.264 140.141 322.566 139.3C322.868 138.46 323.306 137.713 323.881 137.059C324.456 136.413 325.153 135.888 325.966 135.5C326.785 135.105 327.712 134.911 328.747 134.911L328.762 134.897ZM328.783 146.526C329.301 146.526 329.768 146.476 330.199 146.368C330.63 146.261 331.083 146.074 331.565 145.808V137.892C331.212 137.734 330.831 137.605 330.436 137.512C330.041 137.418 329.617 137.375 329.157 137.375C328.582 137.375 328.072 137.49 327.633 137.727C327.195 137.964 326.814 138.28 326.512 138.682C326.21 139.085 325.973 139.552 325.815 140.083C325.657 140.622 325.578 141.182 325.578 141.785C325.578 142.389 325.642 142.978 325.772 143.552C325.901 144.12 326.102 144.63 326.368 145.068C326.634 145.513 326.965 145.865 327.367 146.131C327.77 146.397 328.237 146.526 328.776 146.526H328.783Z" fill="#5B4CFF"/>
<path d="M338.199 130.831C338.199 130.573 338.249 130.329 338.342 130.113C338.436 129.898 338.572 129.704 338.738 129.546C338.903 129.388 339.097 129.258 339.32 129.172C339.543 129.086 339.78 129.036 340.031 129.036C340.305 129.036 340.549 129.086 340.765 129.179C340.987 129.28 341.174 129.409 341.332 129.574C341.491 129.74 341.613 129.934 341.699 130.156C341.785 130.379 341.828 130.616 341.828 130.86C341.828 131.104 341.785 131.334 341.699 131.557C341.613 131.78 341.491 131.974 341.332 132.139C341.174 132.304 340.98 132.44 340.765 132.541C340.549 132.642 340.297 132.692 340.031 132.692C339.78 132.692 339.543 132.642 339.32 132.534C339.097 132.426 338.903 132.29 338.738 132.117C338.572 131.945 338.443 131.744 338.342 131.521C338.242 131.298 338.199 131.068 338.199 130.831ZM338.357 135.105H341.649V148.76H338.357V135.105Z" fill="#5B4CFF"/>
<path d="M344.811 137.447C344.811 137.174 344.811 136.829 344.789 136.405C344.775 135.982 344.732 135.551 344.646 135.112H347.743C347.765 135.17 347.794 135.256 347.822 135.357C347.844 135.464 347.873 135.579 347.901 135.701C347.93 135.823 347.959 135.953 347.98 136.082C348.002 136.211 348.024 136.333 348.038 136.441C348.239 136.254 348.484 136.068 348.771 135.888C349.058 135.701 349.375 135.536 349.713 135.385C350.058 135.234 350.424 135.12 350.819 135.033C351.215 134.947 351.632 134.904 352.063 134.904C352.774 134.904 353.428 135.012 354.039 135.234C354.65 135.457 355.182 135.773 355.635 136.183C356.088 136.599 356.44 137.102 356.706 137.698C356.965 138.294 357.101 138.977 357.101 139.731V148.775H353.809V140.349C353.809 139.803 353.752 139.336 353.644 138.955C353.536 138.575 353.371 138.273 353.155 138.036C352.94 137.806 352.674 137.634 352.365 137.533C352.056 137.425 351.696 137.375 351.287 137.375C351.049 137.375 350.798 137.397 350.525 137.432C350.252 137.468 349.978 137.526 349.698 137.605C349.418 137.684 349.138 137.77 348.864 137.871C348.591 137.971 348.333 138.086 348.103 138.215V148.775H344.811V137.454V137.447Z" fill="#5B4CFF"/>
<path d="M369.809 137.196C370.017 137.447 370.204 137.806 370.362 138.273C370.52 138.74 370.599 139.3 370.599 139.954C370.599 140.694 370.441 141.355 370.132 141.936C369.823 142.518 369.42 143.007 368.939 143.409C368.457 143.811 367.925 144.113 367.343 144.328C366.768 144.537 366.208 144.644 365.676 144.644C364.928 144.644 364.31 144.594 363.822 144.501C363.333 144.407 362.93 144.278 362.6 144.127C362.434 144.271 362.276 144.443 362.147 144.637C362.01 144.838 361.946 145.068 361.946 145.327C361.946 145.442 362.017 145.557 362.154 145.657C362.291 145.758 362.477 145.858 362.7 145.944C362.923 146.038 363.182 146.124 363.477 146.203C363.771 146.282 364.073 146.354 364.389 146.419C364.706 146.483 365.015 146.541 365.316 146.598C365.626 146.656 365.906 146.699 366.172 146.742C366.61 146.821 367.063 146.893 367.516 146.972C367.976 147.051 368.421 147.137 368.86 147.252C369.298 147.36 369.715 147.496 370.103 147.654C370.491 147.812 370.836 148.013 371.131 148.265C371.426 148.509 371.656 148.803 371.828 149.141C371.993 149.486 372.08 149.888 372.08 150.362C372.08 150.994 371.965 151.54 371.742 152.007C371.519 152.474 371.217 152.869 370.843 153.199C370.47 153.53 370.031 153.803 369.535 154.011C369.039 154.219 368.515 154.385 367.961 154.507C367.408 154.629 366.84 154.708 366.265 154.751C365.69 154.794 365.13 154.816 364.598 154.816C363.62 154.816 362.772 154.751 362.053 154.614C361.335 154.478 360.745 154.291 360.285 154.047C359.818 153.803 359.48 153.508 359.25 153.178C359.02 152.847 358.913 152.467 358.913 152.05C358.913 151.583 358.992 151.181 359.15 150.822C359.308 150.47 359.509 150.147 359.761 149.866C360.012 149.586 360.3 149.335 360.63 149.119C360.954 148.904 361.284 148.703 361.622 148.516C361.443 148.415 361.227 148.301 360.968 148.178C360.709 148.056 360.465 147.898 360.221 147.704C359.983 147.51 359.775 147.273 359.61 146.986C359.444 146.699 359.358 146.347 359.358 145.923C359.358 145.628 359.416 145.355 359.531 145.104C359.646 144.853 359.804 144.623 360.005 144.407C360.206 144.199 360.443 144.005 360.717 143.84C360.99 143.675 361.292 143.524 361.608 143.395C361.263 143.143 360.968 142.877 360.738 142.612C360.501 142.339 360.307 142.051 360.156 141.742C360.005 141.434 359.897 141.103 359.825 140.751C359.761 140.399 359.725 140.004 359.725 139.573C359.725 138.812 359.869 138.151 360.149 137.576C360.429 137.002 360.824 136.513 361.328 136.118C361.831 135.716 362.427 135.414 363.124 135.206C363.822 134.998 364.583 134.897 365.41 134.897C365.769 134.897 366.093 134.911 366.38 134.947C366.66 134.983 366.926 135.033 367.178 135.098C367.43 135.163 367.674 135.249 367.925 135.342C368.177 135.443 368.457 135.558 368.766 135.687C369.492 135.464 370.182 135.321 370.843 135.235C371.505 135.156 372.123 135.112 372.705 135.112L372.159 137.569L369.809 137.188V137.196ZM362.902 148.969C362.722 149.105 362.578 149.256 362.456 149.428C362.341 149.601 362.24 149.78 362.168 149.974C362.097 150.168 362.039 150.355 362.003 150.542C361.967 150.728 361.953 150.915 361.953 151.095C361.953 151.346 362.039 151.598 362.204 151.849C362.37 152.1 362.592 152.316 362.866 152.51C363.139 152.697 363.455 152.855 363.807 152.97C364.159 153.084 364.526 153.149 364.892 153.149C365.683 153.149 366.351 153.092 366.89 152.977C367.43 152.862 367.861 152.711 368.184 152.517C368.508 152.323 368.738 152.093 368.874 151.835C369.011 151.576 369.083 151.289 369.083 150.987C369.083 150.793 369.004 150.621 368.853 150.477C368.702 150.326 368.493 150.197 368.227 150.082C367.961 149.967 367.645 149.866 367.286 149.78C366.926 149.694 366.524 149.601 366.1 149.507C365.424 149.364 364.835 149.249 364.325 149.163C363.814 149.076 363.34 149.012 362.902 148.976V148.969ZM365.295 142.698C365.762 142.698 366.129 142.612 366.409 142.439C366.689 142.267 366.898 142.037 367.049 141.757C367.2 141.477 367.293 141.146 367.336 140.773C367.379 140.399 367.408 140.004 367.408 139.602C367.408 138.632 367.207 137.928 366.804 137.49C366.402 137.052 365.82 136.829 365.051 136.829C364.382 136.829 363.843 137.052 363.426 137.497C363.009 137.943 362.801 138.618 362.801 139.508C362.801 139.932 362.844 140.335 362.93 140.715C363.017 141.096 363.16 141.434 363.362 141.728C363.563 142.015 363.814 142.252 364.131 142.432C364.447 142.612 364.835 142.698 365.288 142.698H365.295Z" fill="#5B4CFF"/>
<path d="M278.839 156.353H282.131V172.867C282.131 173.298 282.203 173.599 282.339 173.779C282.476 173.958 282.67 174.045 282.914 174.045C283.194 174.045 283.432 174.009 283.626 173.93C283.82 173.851 284.042 173.764 284.294 173.664L284.847 175.359C284.639 175.503 284.409 175.639 284.157 175.761C283.906 175.891 283.647 175.998 283.374 176.099C283.101 176.192 282.821 176.271 282.526 176.336C282.238 176.393 281.944 176.422 281.656 176.422C281.297 176.422 280.945 176.386 280.607 176.307C280.269 176.228 279.967 176.085 279.709 175.869C279.45 175.654 279.234 175.359 279.076 174.978C278.918 174.598 278.839 174.109 278.839 173.513V156.353Z" fill="#5B4CFF"/>
<path d="M292.099 176.515C290.985 176.515 290.001 176.343 289.145 175.998C288.29 175.653 287.571 175.165 286.989 174.526C286.407 173.886 285.969 173.125 285.667 172.227C285.365 171.329 285.214 170.331 285.214 169.225C285.214 168.291 285.35 167.4 285.631 166.567C285.911 165.734 286.328 165.001 286.896 164.369C287.463 163.737 288.175 163.234 289.03 162.86C289.886 162.487 290.892 162.307 292.049 162.307C293.206 162.307 294.198 162.494 295.039 162.86C295.873 163.234 296.563 163.737 297.102 164.383C297.641 165.03 298.043 165.784 298.295 166.66C298.553 167.529 298.683 168.463 298.683 169.462C298.683 170.46 298.532 171.344 298.23 172.198C297.928 173.053 297.497 173.8 296.929 174.44C296.361 175.079 295.671 175.589 294.852 175.955C294.04 176.329 293.12 176.508 292.099 176.508V176.515ZM291.984 174.238C292.538 174.238 293.019 174.088 293.429 173.786C293.831 173.484 294.169 173.082 294.428 172.586C294.687 172.091 294.881 171.53 295.01 170.905C295.14 170.281 295.197 169.648 295.197 168.995C295.197 168.399 295.14 167.831 295.025 167.292C294.91 166.754 294.723 166.287 294.464 165.892C294.205 165.489 293.867 165.173 293.451 164.936C293.034 164.699 292.538 164.584 291.941 164.584C291.409 164.584 290.942 164.707 290.532 164.951C290.123 165.195 289.785 165.533 289.512 165.956C289.239 166.38 289.038 166.89 288.901 167.472C288.764 168.061 288.693 168.693 288.693 169.375C288.693 169.929 288.75 170.496 288.879 171.071C289.002 171.645 289.196 172.17 289.462 172.637C289.727 173.111 290.072 173.491 290.489 173.793C290.906 174.095 291.409 174.238 291.991 174.238H291.984Z" fill="#5B4CFF"/>
<path d="M312.784 173.829C312.404 174.368 312.001 174.806 311.57 175.129C311.139 175.459 310.686 175.711 310.219 175.898C309.744 176.077 309.256 176.199 308.76 176.257C308.256 176.314 307.746 176.343 307.236 176.343C306.021 176.343 304.986 176.142 304.131 175.747C303.276 175.352 302.571 174.827 302.032 174.181C301.486 173.534 301.091 172.795 300.846 171.961C300.595 171.128 300.473 170.281 300.473 169.411C300.473 168.391 300.624 167.45 300.925 166.581C301.227 165.712 301.673 164.958 302.269 164.326C302.859 163.686 303.599 163.191 304.476 162.832C305.36 162.473 306.381 162.293 307.545 162.293C308.012 162.293 308.458 162.315 308.889 162.358C309.32 162.401 309.737 162.48 310.132 162.602C310.535 162.724 310.916 162.889 311.282 163.105C311.649 163.32 312.001 163.593 312.339 163.924L310.291 166.035C310.046 165.784 309.816 165.568 309.608 165.389C309.399 165.209 309.176 165.066 308.946 164.951C308.716 164.836 308.479 164.757 308.235 164.706C307.983 164.656 307.703 164.627 307.394 164.627C306.783 164.627 306.266 164.764 305.834 165.03C305.403 165.303 305.044 165.647 304.756 166.078C304.476 166.509 304.268 166.991 304.138 167.522C304.009 168.054 303.944 168.578 303.944 169.103C303.944 169.785 304.009 170.424 304.145 171.028C304.282 171.624 304.49 172.148 304.778 172.586C305.065 173.032 305.425 173.376 305.863 173.628C306.302 173.879 306.826 174.009 307.43 174.009C307.717 174.009 307.991 173.98 308.256 173.93C308.522 173.879 308.781 173.786 309.033 173.642C309.284 173.499 309.536 173.312 309.787 173.068C310.039 172.823 310.291 172.507 310.549 172.119L312.792 173.815L312.784 173.829Z" fill="#5B4CFF"/>
<path d="M314.15 164.369C314.869 163.722 315.717 163.212 316.709 162.846C317.693 162.48 318.736 162.293 319.821 162.293C320.554 162.293 321.258 162.379 321.934 162.544C322.609 162.71 323.206 162.968 323.731 163.313C324.255 163.658 324.672 164.103 324.981 164.649C325.29 165.195 325.448 165.834 325.448 166.574V172.672C325.448 172.967 325.463 173.211 325.499 173.412C325.535 173.613 325.592 173.764 325.671 173.879C325.75 173.994 325.851 174.073 325.98 174.116C326.11 174.159 326.261 174.188 326.447 174.188C326.512 174.188 326.642 174.174 326.828 174.152C327.015 174.123 327.188 174.095 327.36 174.066L327.712 175.517C327.511 175.646 327.303 175.761 327.094 175.869C326.886 175.977 326.656 176.07 326.419 176.156C326.182 176.242 325.916 176.3 325.635 176.35C325.355 176.4 325.046 176.429 324.708 176.429C324.076 176.429 323.544 176.286 323.12 175.991C322.696 175.704 322.423 175.287 322.3 174.748C321.948 175.079 321.582 175.352 321.201 175.567C320.82 175.783 320.439 175.962 320.058 176.084C319.677 176.214 319.289 176.3 318.908 176.35C318.527 176.4 318.153 176.429 317.787 176.429C317.169 176.429 316.615 176.35 316.127 176.192C315.638 176.034 315.221 175.797 314.876 175.481C314.531 175.165 314.265 174.77 314.078 174.303C313.891 173.836 313.798 173.29 313.798 172.665C313.798 171.969 313.906 171.351 314.121 170.826C314.337 170.302 314.632 169.85 315.013 169.469C315.393 169.088 315.846 168.772 316.364 168.528C316.888 168.276 317.456 168.083 318.081 167.939C318.7 167.795 319.361 167.695 320.051 167.637C320.741 167.58 321.445 167.551 322.164 167.551V167.055C322.164 166.61 322.099 166.222 321.977 165.906C321.848 165.583 321.675 165.324 321.452 165.123C321.23 164.922 320.964 164.771 320.647 164.671C320.338 164.577 319.986 164.527 319.612 164.527C319.289 164.527 318.987 164.556 318.7 164.606C318.412 164.663 318.125 164.757 317.83 164.893C317.535 165.03 317.241 165.216 316.924 165.446C316.608 165.676 316.263 165.978 315.889 166.337L314.157 164.362L314.15 164.369ZM322.157 169.038C321.179 169.081 320.374 169.189 319.749 169.354C319.124 169.519 318.621 169.742 318.254 170.015C317.887 170.288 317.629 170.611 317.485 170.977C317.341 171.344 317.269 171.746 317.269 172.184C317.269 172.558 317.312 172.859 317.399 173.111C317.485 173.355 317.6 173.556 317.758 173.707C317.916 173.858 318.103 173.965 318.319 174.03C318.541 174.095 318.779 174.123 319.037 174.123C319.275 174.123 319.519 174.109 319.763 174.088C320.015 174.059 320.266 174.016 320.525 173.944C320.784 173.872 321.05 173.771 321.323 173.649C321.596 173.52 321.869 173.362 322.142 173.168V169.045L322.157 169.038Z" fill="#5B4CFF"/>
<path d="M328.769 156.353H332.061V172.867C332.061 173.298 332.133 173.599 332.269 173.779C332.406 173.958 332.6 174.045 332.844 174.045C333.125 174.045 333.362 174.009 333.556 173.93C333.75 173.851 333.973 173.764 334.224 173.664L334.778 175.359C334.569 175.503 334.339 175.639 334.088 175.761C333.836 175.891 333.577 175.998 333.304 176.099C333.031 176.192 332.751 176.271 332.456 176.336C332.169 176.393 331.874 176.422 331.586 176.422C331.227 176.422 330.875 176.386 330.537 176.307C330.199 176.228 329.897 176.085 329.639 175.869C329.38 175.654 329.164 175.359 329.006 174.978C328.848 174.598 328.769 174.109 328.769 173.513V156.353Z" fill="#5B4CFF"/>
<path d="M282.03 189.445C282.08 189.574 282.138 189.754 282.195 189.984C282.253 190.214 282.296 190.443 282.325 190.659C282.526 190.479 282.742 190.307 282.972 190.135C283.202 189.962 283.453 189.811 283.733 189.682C284.014 189.553 284.323 189.445 284.661 189.359C285.006 189.273 285.386 189.229 285.818 189.229C286.917 189.229 287.837 189.416 288.578 189.797C289.318 190.178 289.914 190.68 290.353 191.313C290.791 191.945 291.115 192.677 291.302 193.503C291.488 194.329 291.589 195.191 291.589 196.082C291.589 197.052 291.46 197.978 291.201 198.869C290.942 199.76 290.554 200.543 290.037 201.218C289.519 201.9 288.865 202.439 288.075 202.841C287.284 203.244 286.357 203.452 285.3 203.452C284.244 203.452 283.281 203.129 282.454 202.475V208.825H279.162V192.031C279.162 191.981 279.162 191.851 279.162 191.65C279.162 191.449 279.148 191.219 279.134 190.961C279.119 190.702 279.098 190.436 279.069 190.156C279.04 189.876 278.997 189.639 278.939 189.438H282.037L282.03 189.445ZM285.027 191.708C284.581 191.708 284.15 191.758 283.741 191.866C283.331 191.973 282.9 192.146 282.447 192.39V200.205C282.677 200.392 282.9 200.536 283.122 200.636C283.345 200.737 283.575 200.816 283.805 200.866C284.035 200.916 284.272 200.945 284.517 200.952C284.754 200.959 285.006 200.967 285.257 200.967C285.76 200.967 286.199 200.823 286.551 200.543C286.91 200.263 287.205 199.889 287.428 199.422C287.658 198.955 287.823 198.431 287.931 197.842C288.039 197.253 288.096 196.65 288.096 196.032C288.096 195.414 288.039 194.832 287.916 194.301C287.801 193.769 287.615 193.309 287.37 192.929C287.126 192.548 286.81 192.246 286.414 192.031C286.019 191.815 285.559 191.708 285.013 191.708H285.027Z" fill="#5B4CFF"/>
<path d="M296.771 189.445C296.951 190.336 297.073 191.248 297.152 192.174C297.31 191.801 297.547 191.442 297.849 191.09C298.151 190.738 298.489 190.422 298.862 190.149C299.236 189.876 299.624 189.653 300.034 189.488C300.444 189.323 300.832 189.237 301.205 189.237C301.673 189.237 302.018 189.265 302.24 189.323C302.47 189.38 302.65 189.438 302.787 189.502L302.075 192.476C301.802 192.347 301.558 192.261 301.32 192.218C301.083 192.174 300.86 192.146 300.63 192.146C299.847 192.146 299.171 192.332 298.611 192.699C298.05 193.072 297.59 193.561 297.238 194.164L297.267 203.107H293.953V191.751C293.953 191.607 293.953 191.427 293.953 191.205C293.953 190.982 293.946 190.759 293.939 190.537C293.939 190.307 293.925 190.099 293.91 189.897C293.896 189.696 293.882 189.553 293.867 189.445H296.778H296.771Z" fill="#5B4CFF"/>
<path d="M310.226 203.445C309.112 203.445 308.127 203.272 307.272 202.927C306.416 202.583 305.698 202.094 305.116 201.455C304.533 200.816 304.095 200.054 303.793 199.156C303.491 198.258 303.34 197.26 303.34 196.154C303.34 195.22 303.477 194.329 303.757 193.496C304.037 192.663 304.454 191.93 305.022 191.298C305.59 190.666 306.301 190.163 307.157 189.79C308.012 189.416 309.018 189.237 310.175 189.237C311.333 189.237 312.324 189.423 313.165 189.79C313.999 190.163 314.689 190.666 315.228 191.312C315.767 191.959 316.17 192.713 316.421 193.589C316.68 194.459 316.809 195.392 316.809 196.391C316.809 197.389 316.658 198.273 316.357 199.128C316.055 199.982 315.623 200.729 315.056 201.369C314.488 202.008 313.798 202.518 312.978 202.884C312.159 203.251 311.246 203.437 310.226 203.437V203.445ZM310.118 201.168C310.671 201.168 311.153 201.017 311.563 200.715C311.965 200.413 312.303 200.011 312.562 199.516C312.82 199.02 313.014 198.46 313.144 197.835C313.273 197.21 313.331 196.578 313.331 195.924C313.331 195.328 313.273 194.76 313.158 194.222C313.043 193.683 312.856 193.216 312.598 192.821C312.339 192.419 312.001 192.103 311.584 191.866C311.167 191.629 310.671 191.514 310.075 191.514C309.543 191.514 309.076 191.636 308.666 191.88C308.256 192.124 307.919 192.462 307.646 192.886C307.372 193.309 307.171 193.819 307.035 194.401C306.898 194.99 306.826 195.622 306.826 196.305C306.826 196.858 306.884 197.425 307.013 198C307.135 198.575 307.329 199.099 307.595 199.566C307.861 200.04 308.206 200.421 308.623 200.722C309.04 201.024 309.543 201.168 310.125 201.168H310.118Z" fill="#5B4CFF"/>
<path d="M321.97 189.445C322.02 189.582 322.078 189.776 322.135 190.02C322.193 190.271 322.243 190.494 322.272 190.695C322.48 190.508 322.739 190.329 323.048 190.156C323.357 189.984 323.688 189.826 324.047 189.689C324.406 189.553 324.787 189.438 325.183 189.352C325.585 189.266 325.98 189.222 326.376 189.222C327.123 189.222 327.799 189.352 328.388 189.617C328.977 189.883 329.437 190.228 329.754 190.652C330.142 190.393 330.516 190.171 330.882 189.991C331.241 189.811 331.608 189.661 331.967 189.546C332.327 189.431 332.7 189.352 333.081 189.301C333.462 189.251 333.865 189.222 334.296 189.222C335.029 189.222 335.662 189.33 336.179 189.546C336.704 189.761 337.128 190.056 337.466 190.429C337.803 190.803 338.041 191.248 338.199 191.758C338.357 192.268 338.436 192.814 338.436 193.396V203.093H335.144V194.301C335.144 193.784 335.094 193.36 334.986 193.029C334.878 192.699 334.727 192.433 334.533 192.232C334.332 192.031 334.095 191.895 333.807 191.815C333.52 191.736 333.196 191.693 332.83 191.693C332.427 191.693 332.032 191.736 331.644 191.823C331.263 191.909 330.846 192.053 330.401 192.254C330.465 192.448 330.516 192.67 330.551 192.914C330.587 193.166 330.602 193.453 330.602 193.784V203.093H327.31V194.301C327.31 193.776 327.26 193.345 327.166 193.008C327.073 192.67 326.922 192.405 326.728 192.211C326.534 192.017 326.297 191.88 326.009 191.808C325.722 191.729 325.384 191.693 324.996 191.693C324.493 191.693 324.047 191.751 323.659 191.873C323.278 191.995 322.89 192.167 322.516 192.383V203.079H319.224V191.011C319.224 190.724 319.224 190.436 319.21 190.149C319.203 189.862 319.174 189.617 319.131 189.416H321.955L321.97 189.445Z" fill="#5B4CFF"/>
<path d="M341.246 185.171C341.246 184.912 341.296 184.668 341.39 184.453C341.483 184.237 341.62 184.043 341.785 183.885C341.95 183.727 342.145 183.598 342.367 183.512C342.59 183.426 342.827 183.375 343.079 183.375C343.352 183.375 343.596 183.426 343.812 183.519C344.035 183.619 344.222 183.749 344.38 183.914C344.538 184.079 344.66 184.273 344.746 184.496C344.833 184.718 344.876 184.956 344.876 185.2C344.876 185.444 344.833 185.674 344.746 185.897C344.66 186.119 344.538 186.313 344.38 186.478C344.222 186.644 344.028 186.78 343.812 186.881C343.596 186.981 343.345 187.031 343.079 187.031C342.827 187.031 342.59 186.981 342.367 186.873C342.145 186.766 341.95 186.629 341.785 186.457C341.62 186.284 341.49 186.083 341.39 185.861C341.289 185.638 341.246 185.408 341.246 185.171ZM341.411 189.445H344.703V203.1H341.411V189.445Z" fill="#5B4CFF"/>
<path d="M348.405 199.121C349.655 200.507 350.985 201.197 352.401 201.197C352.71 201.197 353.004 201.168 353.27 201.103C353.543 201.039 353.773 200.938 353.967 200.809C354.162 200.672 354.312 200.5 354.427 200.291C354.542 200.083 354.6 199.825 354.6 199.53C354.6 199.322 354.557 199.128 354.463 198.963C354.37 198.797 354.248 198.647 354.097 198.517C353.946 198.388 353.773 198.28 353.594 198.18C353.407 198.079 353.22 198 353.04 197.935C352.695 197.792 352.35 197.662 352.005 197.548C351.66 197.433 351.323 197.303 350.978 197.16C350.784 197.095 350.546 197.009 350.273 196.901C350 196.793 349.713 196.664 349.418 196.506C349.123 196.348 348.829 196.168 348.548 195.953C348.261 195.745 348.002 195.486 347.772 195.192C347.542 194.897 347.355 194.559 347.211 194.186C347.068 193.812 346.996 193.381 346.996 192.893C346.996 192.29 347.147 191.758 347.441 191.298C347.736 190.839 348.131 190.465 348.62 190.156C349.109 189.847 349.662 189.617 350.288 189.459C350.906 189.301 351.545 189.222 352.207 189.222C353.256 189.222 354.205 189.345 355.06 189.589C355.915 189.833 356.699 190.242 357.41 190.817L355.915 193.116C355.656 192.857 355.398 192.62 355.153 192.412C354.909 192.203 354.643 192.031 354.363 191.88C354.082 191.736 353.781 191.622 353.45 191.543C353.119 191.464 352.746 191.428 352.322 191.428C351.969 191.428 351.66 191.471 351.409 191.557C351.157 191.643 350.949 191.758 350.783 191.902C350.618 192.045 350.496 192.211 350.424 192.397C350.345 192.584 350.309 192.778 350.309 192.979C350.309 193.209 350.367 193.403 350.474 193.568C350.582 193.733 350.726 193.877 350.898 193.999C351.071 194.121 351.265 194.229 351.488 194.315C351.711 194.401 351.933 194.488 352.156 194.559C352.508 194.689 352.868 194.811 353.227 194.933C353.587 195.055 353.939 195.177 354.298 195.306C354.478 195.371 354.693 195.457 354.945 195.543C355.197 195.637 355.462 195.752 355.728 195.895C356.001 196.039 356.267 196.212 356.533 196.42C356.799 196.628 357.036 196.872 357.245 197.167C357.453 197.461 357.626 197.792 357.755 198.18C357.885 198.56 357.949 199.006 357.949 199.516C357.949 200.148 357.791 200.708 357.482 201.189C357.173 201.678 356.756 202.08 356.246 202.403C355.736 202.727 355.153 202.978 354.507 203.143C353.86 203.308 353.191 203.395 352.508 203.395C351.898 203.395 351.33 203.359 350.791 203.294C350.252 203.229 349.741 203.114 349.253 202.949C348.764 202.791 348.304 202.576 347.865 202.296C347.427 202.015 347.01 201.678 346.622 201.261L348.419 199.099L348.405 199.121Z" fill="#5B4CFF"/>
<path d="M371.663 200.837C371.138 201.39 370.635 201.843 370.153 202.181C369.672 202.518 369.183 202.777 368.702 202.956C368.22 203.136 367.731 203.258 367.235 203.315C366.739 203.373 366.222 203.402 365.676 203.402C364.511 203.402 363.512 203.201 362.686 202.791C361.852 202.389 361.177 201.85 360.652 201.175C360.127 200.5 359.739 199.724 359.488 198.848C359.236 197.971 359.114 197.059 359.114 196.118C359.114 195.177 359.243 194.337 359.502 193.503C359.761 192.67 360.149 191.945 360.681 191.313C361.212 190.68 361.867 190.178 362.664 189.797C363.462 189.416 364.396 189.229 365.482 189.229C366.445 189.229 367.286 189.359 368.012 189.625C368.738 189.883 369.341 190.264 369.83 190.752C370.312 191.241 370.678 191.837 370.922 192.527C371.167 193.223 371.289 193.999 371.289 194.861C371.289 195.191 371.282 195.529 371.26 195.881C371.239 196.233 371.196 196.592 371.124 196.973H362.585C362.585 197.368 362.657 197.806 362.801 198.273C362.945 198.747 363.153 199.192 363.426 199.609C363.699 200.026 364.037 200.378 364.447 200.651C364.849 200.931 365.316 201.067 365.841 201.067C366.294 201.067 366.696 201.031 367.034 200.967C367.379 200.902 367.695 200.787 367.983 200.636C368.27 200.485 368.551 200.284 368.817 200.033C369.083 199.781 369.37 199.473 369.672 199.106L371.67 200.837H371.663ZM365.28 191.7C364.749 191.7 364.31 191.794 363.965 191.981C363.62 192.167 363.347 192.412 363.146 192.713C362.945 193.015 362.801 193.36 362.715 193.748C362.628 194.136 362.585 194.538 362.585 194.947H367.81C367.81 194.595 367.782 194.222 367.731 193.841C367.681 193.46 367.566 193.108 367.386 192.792C367.207 192.476 366.955 192.218 366.624 192.009C366.294 191.801 365.841 191.7 365.273 191.7H365.28Z" fill="#5B4CFF"/>
<path d="M373.237 201.469C373.237 201.218 373.28 200.981 373.373 200.758C373.467 200.536 373.596 200.349 373.754 200.184C373.912 200.018 374.099 199.889 374.315 199.796C374.531 199.702 374.753 199.659 374.991 199.659C375.228 199.659 375.45 199.709 375.659 199.796C375.867 199.889 376.054 200.018 376.212 200.184C376.37 200.349 376.5 200.543 376.586 200.758C376.672 200.974 376.715 201.211 376.715 201.469C376.715 201.728 376.672 201.958 376.586 202.18C376.5 202.403 376.37 202.59 376.212 202.755C376.054 202.92 375.867 203.05 375.659 203.143C375.45 203.236 375.228 203.279 374.991 203.279C374.753 203.279 374.531 203.236 374.315 203.143C374.099 203.05 373.912 202.92 373.754 202.755C373.596 202.59 373.467 202.396 373.373 202.18C373.28 201.958 373.237 201.728 373.237 201.469Z" fill="#5B4CFF"/>
</g>
<defs>
<clipPath id="clip0_9_916">
<rect width="249.73" height="180" fill="white" transform="translate(127 78)"/>
</clipPath>
</defs>
</svg>
