<svg width="504" height="336" viewBox="0 0 504 336" fill="none" xmlns="http://www.w3.org/2000/svg">
<g clip-path="url(#clip0_9_7)">
<path d="M404.321 190.435C406.941 190.435 409.573 190.423 412.193 190.447C412.909 190.447 413.067 190.217 413.067 189.538C413.055 183.655 413.067 177.76 413.055 171.877C413.055 169.402 412.484 167.037 411.368 164.805C408.251 158.522 397.844 156.12 392.895 163.374C392.677 163.689 392.458 163.98 392.24 164.296C392.167 164.259 392.082 164.247 392.01 164.223V159.796H382.585V190.387H392.034V189.295C392.034 184.176 391.997 179.058 392.034 173.939C392.058 170.446 394.593 167.935 397.917 167.959C401.119 167.995 403.521 170.579 403.521 174.012V190.362C403.86 190.375 404.091 190.411 404.345 190.411L404.321 190.435Z" fill="#5B4CFF"/>
<path d="M417.712 145.616V190.375H427.246V177.845C427.586 178.269 427.768 178.488 427.95 178.718C430.788 182.43 433.614 186.129 436.44 189.853C436.78 190.29 437.12 190.459 437.678 190.459C440.819 190.423 443.961 190.459 447.115 190.459H448.012C447.697 190.035 447.527 189.792 447.345 189.55C443.864 184.989 440.37 180.44 436.865 175.904C436.404 175.31 436.356 174.934 436.816 174.303C440.067 169.815 443.269 165.29 446.484 160.766C446.69 160.487 446.872 160.184 447.139 159.796C446.714 159.784 446.46 159.747 446.193 159.747H436.841C436.246 159.747 435.895 159.917 435.555 160.402C433.02 164.017 430.461 167.619 427.901 171.234C427.731 171.464 427.562 171.683 427.392 171.901C427.331 171.865 427.258 171.853 427.186 171.828V145.616H417.724H417.712Z" fill="#5B4CFF"/>
<path d="M377.806 190.399V159.796H368.527V162.901C368.139 162.586 367.944 162.416 367.738 162.246C363.881 158.74 359.417 158.013 354.699 159.893C348.598 162.294 345.141 167.025 344.534 173.514C343.904 180.234 346.621 185.559 352.334 189.149C356.822 191.951 363.178 192.376 367.932 187.767C368.066 187.621 368.272 187.536 368.587 187.318V190.423H377.818H377.806V190.399ZM361.091 182.369C357.113 182.369 353.838 179.082 353.862 175.043C353.862 171.016 357.161 167.729 361.14 167.777C365.106 167.826 368.345 171.088 368.357 175.067C368.357 179.058 365.058 182.381 361.091 182.381V182.369Z" fill="#5B4CFF"/>
<path d="M109.244 144.246C113.04 140.061 116.8 135.852 120.585 131.643C120.743 131.473 120.864 131.279 121.082 131H120.354C108.492 131 96.6289 131 84.7661 131.036C83.3591 131.036 81.9157 131.206 80.5329 131.509C68.3911 134.214 60.8101 145.228 62.4961 157.673C62.8479 160.281 63.6727 162.743 64.9584 165.133C65.3587 163.532 65.6377 162.04 66.1229 160.608C69.3251 151.026 78.0948 144.743 88.126 144.743C94.7731 144.743 101.408 144.743 108.055 144.731C108.455 144.731 109.001 144.561 109.268 144.258H109.256L109.244 144.246Z" fill="#5B4CFF"/>
<path d="M69.507 168.007C69.507 178.293 77.7673 186.639 87.9562 186.639C98.1451 186.639 106.515 178.354 106.515 168.044C106.515 157.734 98.2906 149.388 88.029 149.388C77.7673 149.388 69.507 157.685 69.507 168.02H69.5191L69.507 168.007Z" fill="#5B4CFF"/>
<path d="M152.922 181.059C151.503 181.35 149.975 181.447 148.556 181.289C146.021 181.023 143.789 179.773 141.581 178.524C141.205 178.306 140.841 178.099 140.417 177.869C138.949 180.44 137.554 182.927 136.111 185.389C135.723 186.044 135.735 186.408 136.378 186.857C142.903 191.49 149.939 192.509 157.374 189.647C162.82 187.56 166.01 183.533 166.326 177.493C166.568 172.787 164.991 168.978 160.892 166.418C158.49 164.939 155.894 163.968 153.226 163.095C151.976 162.67 150.727 162.125 149.55 161.494C148.665 161.009 147.974 160.232 147.707 159.165C147.112 156.933 148.447 154.786 150.97 154.325C152.377 154.071 153.929 154.107 155.336 154.398C157.022 154.762 158.623 155.526 160.358 156.157C161.632 153.61 162.942 150.977 164.312 148.26C164.045 148.091 163.876 147.969 163.694 147.86C160.322 145.774 156.598 144.876 152.68 144.767C148.653 144.658 144.941 145.519 141.787 148.297C135.856 153.537 134.498 164.757 144.177 169.73C146.033 170.676 148.083 171.307 150.011 172.095C151.346 172.653 152.704 173.175 153.966 173.878C155.373 174.679 156.137 175.965 155.858 177.675C155.579 179.421 154.584 180.671 152.886 181.035H152.922V181.059Z" fill="#5B4CFF"/>
<path d="M185.005 168.02C187.674 167.619 189.881 168.529 191.592 170.421C193.714 168.286 195.776 166.212 197.851 164.138C194.77 160.378 188.353 157.527 181.063 159.662C174.295 161.664 169.868 167.401 169.637 174.436C169.407 181.678 173.422 187.73 180.032 190.12C187.007 192.631 194.006 190.52 197.839 186.02C195.764 183.934 193.678 181.823 191.592 179.737C187.904 182.842 184.144 183.048 181.257 180.234C178.552 177.578 178.286 173.49 180.639 170.579C181.767 169.172 183.222 168.286 185.005 168.02Z" fill="#5B4CFF"/>
<path d="M91.1948 204.991C91.8741 204.991 92.5533 204.93 93.2447 204.845C106.903 203.377 116.255 190.277 113.283 176.765C112.834 174.727 112.155 172.75 111.051 170.785C110.978 171.113 110.918 171.282 110.881 171.452C110.59 172.69 110.396 173.951 110.008 175.14C106.83 184.843 98.048 191.224 87.9077 191.224C81.297 191.224 74.6864 191.224 68.0636 191.236C67.6269 191.236 67.0569 191.418 66.7779 191.721C62.957 195.918 59.1726 200.163 55.4003 204.384C55.279 204.53 55.1698 204.712 55 204.966H91.1948V204.991Z" fill="#5B4CFF"/>
<path d="M247.546 168.359C248.65 168.42 249.765 168.371 250.857 168.371V159.723C249.668 159.723 248.54 159.686 247.424 159.723C246.745 159.759 246.539 159.517 246.539 158.837C246.575 156.217 246.539 153.61 246.551 150.99C246.551 150.504 246.551 150.153 245.884 150.153C243.07 150.189 240.244 150.153 237.442 150.165C237.32 150.165 237.199 150.213 236.993 150.262V159.711C235.78 159.711 234.64 159.747 233.487 159.711C232.796 159.674 232.602 159.941 232.626 160.62C232.663 162.792 232.626 164.975 232.626 167.146C232.626 167.971 233.039 168.383 233.864 168.383H237.017V190.447H245.459C246.171 190.447 246.527 190.087 246.527 189.368C246.527 182.709 246.527 176.049 246.515 169.378C246.515 168.602 246.697 168.299 247.509 168.347H247.534L247.546 168.359Z" fill="#5B4CFF"/>
<path d="M260.27 144.791C257.322 144.743 254.908 147.096 254.86 150.044C254.824 153.027 257.116 155.429 260.076 155.478C262.987 155.526 265.413 153.222 265.461 150.298C265.522 147.266 263.217 144.828 260.245 144.779H260.258L260.27 144.791Z" fill="#5B4CFF"/>
<path d="M294.16 190.435C296.622 190.435 299.085 190.399 301.547 190.447C302.323 190.46 302.505 190.217 302.505 189.477C302.469 185.013 302.505 180.55 302.505 176.11V160.584C302.505 160.075 302.493 159.711 301.777 159.711C299.157 159.747 296.525 159.747 293.905 159.711C293.359 159.711 293.19 159.917 293.214 160.427C293.25 161.179 293.214 161.943 293.214 162.925C292.801 162.561 292.559 162.379 292.353 162.197C288.483 158.692 284.02 158.001 279.301 159.893C273.248 162.295 269.828 166.989 269.185 173.466C268.53 180.125 271.199 185.401 276.802 189.04C281.242 191.915 287.719 192.473 292.595 187.73C292.729 187.609 292.886 187.512 293.19 187.294V190.46H294.184H294.172L294.16 190.435ZM285.56 182.369C281.569 182.26 278.355 178.876 278.464 174.885C278.573 170.907 281.921 167.68 285.839 167.777C289.902 167.886 293.068 171.222 292.947 175.297C292.838 179.264 289.478 182.49 285.548 182.381H285.56V182.369Z" fill="#5B4CFF"/>
<path d="M255.454 190.375H264.903V159.784H255.454V190.375Z" fill="#5B4CFF"/>
<path d="M307.587 145.604V190.374H316.867V187.269C317.243 187.585 317.473 187.767 317.667 187.961C321.294 191.248 325.503 192.048 330.039 190.484C336.153 188.397 339.743 183.897 340.726 177.553C341.732 170.967 339.343 165.594 334.018 161.639C329.651 158.413 322.677 157.321 317.4 162.44C317.279 162.561 317.109 162.622 316.818 162.804V145.616H307.587V145.604ZM324.229 167.789C328.22 167.789 331.495 171.064 331.495 175.091C331.495 179.118 328.232 182.405 324.229 182.393C320.275 182.393 317.024 179.118 317 175.14C316.964 171.149 320.251 167.813 324.229 167.813V167.789Z" fill="#5B4CFF"/>
<path d="M198.469 175.091C198.469 184.019 205.626 191.187 214.505 191.187C223.383 191.187 230.516 183.982 230.516 175.055C230.516 166.127 223.335 158.935 214.468 158.935C205.601 158.935 198.469 166.14 198.469 175.067V175.091ZM221.588 175.091C221.588 179.033 218.35 182.236 214.383 182.199C210.502 182.163 207.385 178.936 207.397 174.946C207.433 171.064 210.623 167.898 214.505 167.91C218.422 167.923 221.588 171.125 221.588 175.067V175.091Z" fill="#5B4CFF"/>
</g>
<defs>
<clipPath id="clip0_9_7">
<rect width="393" height="73.9907" fill="white" transform="translate(55 131)"/>
</clipPath>
</defs>
</svg>
