<?xml version="1.0" encoding="UTF-8"?><svg id="Layer_2" xmlns="http://www.w3.org/2000/svg" viewBox="0 0 501.01 102.49"><defs><style>.cls-1,.cls-2,.cls-3{fill:#5b4cff;}.cls-2{opacity:.5;}.cls-3{opacity:.7;}</style></defs><g id="Layer_1-2"><g><g><path class="cls-1" d="M147.62,27.05c0-1.83,1.57-3.39,3.39-3.39h.96c1.57,0,2.52,.78,3.48,2l36.98,47.16V26.88c0-1.83,1.48-3.39,3.39-3.39s3.31,1.57,3.31,3.39v54.99c0,1.83-1.31,3.22-3.13,3.22h-.35c-1.48,0-2.52-.87-3.57-2.09l-37.76-48.29v47.16c0,1.83-1.48,3.39-3.39,3.39s-3.31-1.57-3.31-3.39V27.05Z"/><path class="cls-1" d="M247.4,80.3l24.71-54.03c.87-1.91,2.17-3.05,4.35-3.05h.35c2.09,0,3.48,1.13,4.26,3.05l24.71,53.94c.26,.61,.44,1.22,.44,1.74,0,1.83-1.48,3.31-3.31,3.31-1.65,0-2.78-1.13-3.39-2.52l-6.35-14.01h-33.41l-6.35,14.18c-.61,1.48-1.74,2.35-3.31,2.35-1.74,0-3.13-1.39-3.13-3.13,0-.52,.09-1.13,.43-1.83Zm43.07-17.84l-14.01-31.15-14.01,31.15h28.02Z"/><path class="cls-1" d="M348.32,54.55v-.17c0-16.79,12.62-31.5,31.15-31.5s30.97,14.53,30.97,31.32v.17c0,16.79-12.62,31.5-31.15,31.5s-30.97-14.53-30.97-31.32Zm54.99,0v-.17c0-13.83-10.09-25.14-24.01-25.14s-23.84,11.14-23.84,24.97v.17c0,13.83,10.09,25.14,24.01,25.14s23.84-11.14,23.84-24.97Z"/><path class="cls-1" d="M457.16,77.52c-.78-.52-1.3-1.48-1.3-2.61,0-1.91,1.48-3.39,3.31-3.39,.87,0,1.65,.35,2.09,.78,5.74,4.87,11.49,7.22,19.23,7.22,8.18,0,13.57-4.35,13.57-10.35v-.17c0-5.66-3.05-8.87-15.83-11.57-14.01-3.05-20.45-7.57-20.45-17.58v-.17c0-9.57,8.44-16.62,20.01-16.62,8,0,13.83,2,19.4,6,.7,.52,1.48,1.48,1.48,2.78,0,1.83-1.48,3.31-3.31,3.31-.78,0-1.39-.17-2-.61-5.13-3.74-10.09-5.31-15.75-5.31-7.92,0-12.96,4.35-12.96,9.83v.17c0,5.74,3.13,8.96,16.53,11.83,13.57,2.96,19.84,7.92,19.84,17.23v.17c0,10.44-8.7,17.23-20.79,17.23-8.88,0-16.27-2.78-23.06-8.18Z"/></g><g><path class="cls-2" d="M51.24,19.57c4.9,6.23,8.4,13.61,10,21.68,8.07,1.6,15.45,5.09,21.68,10,11.91-9.38,19.57-23.93,19.57-40.27,0-3.42-.34-6.76-.98-10-3.23-.64-6.57-.98-10-.98-16.34,0-30.88,7.66-40.27,19.57Z"/><path class="cls-2" d="M82.92,51.24c-6.23,4.9-13.61,8.4-21.68,10-1.6,8.07-5.09,15.45-10,21.68,9.38,11.91,23.93,19.57,40.27,19.57,3.42,0,6.76-.34,10-.98,.64-3.23,.98-6.57,.98-10,0-16.34-7.66-30.88-19.57-40.27Z"/><path class="cls-3" d="M62.22,51.24c0,3.42-.34,6.76-.98,10,8.07-1.6,15.45-5.09,21.68-10-6.23-4.9-13.61-8.4-21.68-10,.64,3.23,.98,6.57,.98,10Z"/><path class="cls-2" d="M19.57,51.24c6.23-4.9,13.61-8.4,21.68-10,1.6-8.07,5.09-15.45,10-21.68C41.86,7.66,27.32,0,10.98,0,7.56,0,4.22,.34,.98,.98,.34,4.22,0,7.56,0,10.98c0,16.34,7.66,30.88,19.57,40.27Z"/><path class="cls-2" d="M51.24,82.92c-4.9-6.23-8.4-13.61-10-21.68-8.07-1.6-15.45-5.09-21.68-10C7.66,60.63,0,75.17,0,91.51c0,3.42,.34,6.76,.98,10,3.23,.64,6.57,.98,10,.98,16.34,0,30.88-7.66,40.27-19.57Z"/><path class="cls-3" d="M41.25,41.25c-8.07,1.6-15.45,5.09-21.68,10,6.23,4.9,13.61,8.4,21.68,10-.64-3.23-.98-6.57-.98-10s.34-6.76,.98-10Z"/><path class="cls-3" d="M61.24,41.25c-1.6-8.07-5.09-15.45-10-21.68-4.9,6.23-8.4,13.61-10,21.68,3.23-.64,6.57-.98,10-.98s6.76,.34,10,.98Z"/><path class="cls-3" d="M41.25,61.24c1.6,8.07,5.09,15.45,10,21.68,4.9-6.23,8.4-13.61,10-21.68-3.23,.64-6.57,.98-10,.98s-6.76-.34-10-.98Z"/><path class="cls-1" d="M61.24,41.25c-3.23-.64-6.57-.98-10-.98s-6.76,.34-10,.98c-.64,3.23-.98,6.57-.98,10s.34,6.76,.98,10c3.23,.64,6.57,.98,10,.98s6.76-.34,10-.98c.64-3.23,.98-6.57,.98-10s-.34-6.76-.98-10Z"/></g></g></g></svg>