<svg width="232" height="66" viewBox="0 0 232 66" fill="none" xmlns="http://www.w3.org/2000/svg">
<path d="M36.2802 7.97519C34.9034 10.5843 33.6371 13.0064 32.3538 15.4201C23.7361 31.6781 15.1015 47.9276 6.50927 64.2026C6.16932 64.857 5.79538 65.061 5.09849 65.0355C3.7217 64.993 2.33641 65.0185 0.806641 65.0185C1.0446 64.5256 1.19758 64.1686 1.38455 63.8202C12.4329 42.9813 23.4812 22.1425 34.538 1.31221C34.7845 0.853278 35.0904 0.164889 35.4644 0.0968993C36.3397 -0.0730748 37.2916 0.0119029 38.1924 0.113887C38.3794 0.130885 38.5579 0.632301 38.6599 0.929756C41.5834 9.63243 44.4985 18.3351 47.4135 27.0378C49.5552 33.4288 51.6969 39.8283 53.8301 46.2194C53.949 46.5678 54.0595 46.9078 54.187 47.3157H49.7252C45.2719 34.2787 40.81 21.2417 36.2717 7.9837L36.2802 7.97519Z" fill="#5B4CFF"/>
<path d="M70.2843 31.6442C72.4175 31.7292 74.5677 31.9331 76.7179 31.8651C81.2562 31.7292 84.6641 28.4317 85.1826 23.9019C85.4715 21.3608 85.1231 19.0321 83.1854 17.1539C81.7236 15.7431 79.9134 15.2757 77.9587 15.2502C75.3071 15.2162 72.664 15.2587 70.0124 15.2247C69.307 15.2162 69.1115 15.4712 69.035 16.151C68.0577 25.4911 67.0463 34.8227 66.0435 44.1628C65.916 45.3356 65.797 46.5084 65.678 47.7152H61.1992C62.4825 35.6726 63.7658 23.6809 65.0576 11.6127C65.3721 11.5872 65.6695 11.5448 65.9585 11.5448C70.3353 11.5448 74.7207 11.4938 79.0975 11.5532C82.395 11.5957 85.4375 12.4541 87.6727 15.0717C90.2308 18.0548 90.4348 21.5562 89.5084 25.1512C88.2081 30.2164 84.8426 33.259 79.7859 34.4913C79.5309 34.5508 79.2675 34.6102 79.0295 34.6697C82.6924 38.9446 86.3299 43.1939 89.9673 47.4433C89.9078 47.5453 89.8399 47.6472 89.7804 47.7492C88.1401 47.7492 86.4999 47.7662 84.8596 47.7322C84.6811 47.7322 84.4687 47.4943 84.3327 47.3243C80.0493 41.8341 75.3836 36.6754 70.3948 31.8142C70.3268 31.7462 70.2928 31.6527 70.2843 31.6272V31.6442Z" fill="#5B4CFF"/>
<path d="M108.996 39.9642C110.135 39.2758 111.231 38.6129 112.379 37.9246C112.523 38.0945 112.668 38.222 112.761 38.392C114.639 41.749 117.614 43.4317 121.336 43.8481C124.03 44.1456 126.707 43.9416 129.232 42.8538C131.416 41.9105 132.971 40.4147 133.294 37.9246C133.566 35.8084 132.673 34.3041 130.872 33.2928C128.611 32.018 126.061 31.746 123.571 31.2361C121.158 30.7431 118.702 30.2672 116.381 29.4513C109.285 26.9697 110.458 18.7685 114.163 15.7344C116.415 13.8902 118.999 12.9044 121.829 12.4624C125.101 11.944 128.331 12.097 131.475 13.1933C134.203 14.1537 136.268 15.9129 137.679 18.5475C136.549 19.2274 135.487 19.8648 134.356 20.5447C132.138 17.3662 128.917 16.2359 125.288 16.0659C122.705 15.9469 120.214 16.4398 117.996 17.8676C116.908 18.5645 116.093 19.4909 115.71 20.7572C115.132 22.6524 115.795 24.3776 117.58 25.457C119.534 26.6468 121.761 26.9697 123.962 27.4117C126.384 27.8961 128.841 28.3125 131.195 29.0264C134.552 30.0378 137.127 32.018 137.492 35.8084C137.875 39.8453 136.464 43.1598 132.945 45.3694C129.41 47.5876 125.467 48.106 121.396 47.8595C117.86 47.6471 114.588 46.6782 111.869 44.2731C110.653 43.2022 109.582 41.6215 109.005 39.9812L108.996 39.9642Z" fill="#5B4CFF"/>
<path d="M231.164 18.5305C230.026 19.2104 228.955 19.8563 227.825 20.5277C225.606 17.3407 222.385 16.2019 218.756 16.0574C215.918 15.9469 213.19 16.4653 210.895 18.2841C208.023 20.5532 208.345 24.3181 211.702 25.7289C213.887 26.6468 216.317 26.9952 218.646 27.5816C220.847 28.1341 223.125 28.457 225.241 29.2304C231.266 31.4401 232.992 38.0265 228.972 43.0833C227.204 45.3014 224.799 46.5083 222.105 47.1797C217.643 48.293 213.224 48.259 208.915 46.4997C205.889 45.2674 203.697 43.1598 202.422 39.9813C203.569 39.2844 204.691 38.613 205.855 37.9161C205.974 38.0436 206.076 38.12 206.136 38.2305C207.929 41.5195 210.768 43.3127 214.422 43.7887C217.388 44.1796 220.337 43.9926 223.082 42.6498C223.89 42.2504 224.671 41.7065 225.292 41.0606C227.876 38.375 227.264 34.5251 223.856 33.0888C221.697 32.1794 219.309 31.831 217.014 31.2531C214.584 30.6412 212.059 30.2927 209.748 29.3919C204.215 27.2247 202.957 20.4767 207.156 16.2189C209.11 14.2387 211.566 13.2188 214.235 12.6579C218 11.8675 221.731 11.9695 225.351 13.3463C227.892 14.3152 229.779 16.0489 231.173 18.539L231.164 18.5305Z" fill="#5B4CFF"/>
<path d="M164.203 47.333C165.563 44.7749 166.846 42.3613 168.13 39.9476C172.931 30.9475 177.733 21.9474 182.518 12.9388C182.858 12.2929 183.223 11.9954 183.988 12.0124C186.215 12.0464 186.232 12.0124 186.954 14.1286C190.609 24.8709 194.246 35.6133 197.892 46.3557C197.985 46.6446 198.062 46.9336 198.181 47.3415C196.821 47.3415 195.538 47.3925 194.272 47.299C193.991 47.282 193.626 46.7976 193.507 46.4577C190.881 38.8428 188.28 31.211 185.671 23.5876C185.101 21.9219 184.532 20.2561 183.912 18.4119C183.657 18.8539 183.461 19.1513 183.291 19.4658C178.515 28.4829 173.73 37.4915 168.988 46.5172C168.648 47.1631 168.274 47.384 167.577 47.35C166.506 47.299 165.435 47.333 164.203 47.333Z" fill="#5B4CFF"/>
<path d="M158.177 15.2502C157.013 26.1626 155.857 36.9134 154.71 47.7153H150.282C151.429 36.9219 152.576 26.1626 153.741 15.2587H141.01C141.146 13.9669 141.265 12.8026 141.392 11.6128H171.291C171.189 12.7006 171.146 13.712 170.942 14.6978C170.891 14.9358 170.322 15.2162 169.99 15.2162C166.489 15.2502 162.996 15.2417 159.494 15.2417C159.095 15.2417 158.687 15.2417 158.186 15.2417L158.177 15.2502Z" fill="#5B4CFF"/>
<path d="M100.844 47.7319H96.3652C97.5296 36.6071 98.6939 25.5333 99.8582 14.417H104.337C103.173 25.5248 102.017 36.5731 100.844 47.7319Z" fill="#5B4CFF"/>
<path d="M102.23 10.5589C100.573 10.5759 99.4937 9.55601 99.4767 7.96675C99.4597 5.96956 100.921 4.4568 102.893 4.42281C104.508 4.39731 105.689 5.46813 105.732 6.9809C105.791 8.9611 104.244 10.5334 102.222 10.5589H102.23Z" fill="#5B4CFF"/>
</svg>
