<svg width="286" height="98" viewBox="0 0 286 98" fill="none" xmlns="http://www.w3.org/2000/svg">
<path d="M142.193 43.1893C143.17 42.2714 143.782 41.5575 144.53 41.0136C148.898 37.8606 153.666 37.2657 158.638 39.2459C161.935 40.5547 163.822 43.2913 164.23 46.7163C165.326 55.9118 162.819 64.0111 155.808 70.2662C151.771 73.8696 146.714 74.3795 141.53 73.4532C139.448 73.0792 137.816 71.8554 136.499 70.2152C136.193 69.8412 135.895 69.4588 135.47 68.9404C134.705 69.7732 133.941 70.4871 133.312 71.3115C132.445 72.4588 131.399 72.9857 129.963 72.7818C129.334 72.6968 128.688 72.7648 127.855 72.7648C128.314 70.6316 128.722 68.6939 129.156 66.7732C133.125 49.3763 137.111 31.988 141.054 14.5826C141.317 13.4353 141.725 12.9254 142.966 13.0274C144.462 13.1464 145.983 13.1039 147.479 13.0359C148.592 12.9849 148.89 13.2993 148.618 14.4467C147.131 20.7357 145.72 27.0417 144.283 33.3393C143.629 36.1948 142.975 39.0419 142.329 41.8975C142.261 42.1949 142.252 42.5094 142.176 43.1808L142.193 43.1893ZM138.691 62.8468C138.912 63.8411 139.159 65.8298 139.813 67.674C140.595 69.8752 142.38 70.9376 144.759 70.9291C147.657 70.9206 149.774 69.4333 151.49 67.2831C154.601 63.3822 156.046 58.8099 156.709 53.9401C157.083 51.1866 157.201 48.4245 156.267 45.7474C155.23 42.7898 152.672 41.2941 149.587 41.651C146.06 42.059 143.876 44.2346 142.346 47.1667C139.941 51.7475 138.963 56.7022 138.7 62.8383L138.691 62.8468Z" fill="#5B4CFF"/>
<path d="M0.0605469 97.3343C0.205025 95.4306 0.366483 95.1247 1.98124 94.9377C5.4912 94.5298 7.78586 92.4051 9.02667 89.4051C10.395 86.1246 11.4233 82.6656 12.2392 79.1981C15.0013 67.3679 17.6019 55.4952 20.2535 43.631C20.3554 43.1636 20.4064 42.6877 20.5084 42.0843C19.905 42.0503 19.4291 42.0078 18.9531 42.0078C15.9786 42.0078 13.0041 42.0248 10.038 41.9823C9.56209 41.9823 8.78872 42.3562 8.69523 41.4214C8.58475 40.274 9.30713 39.2372 10.1995 39.2287C12.1117 39.2117 14.0239 39.2287 15.9446 39.2287C17.2449 39.2287 18.5537 39.1692 19.854 39.2457C20.9418 39.3137 21.4093 38.9567 21.6558 37.8434C23.211 30.9 24.8343 23.982 26.483 17.0556C27.4519 12.9762 28.9646 9.1263 31.8372 5.96478C35.7381 1.66443 40.5484 -0.460241 46.421 0.0836758C46.9224 0.126169 47.5003 0.143166 47.3048 0.882553C47.1604 1.42647 47.3813 2.23385 46.2935 2.19985C41.5342 2.03838 38.1177 4.09506 36.4435 8.56538C35.2367 11.7864 34.4208 15.1689 33.6304 18.5174C32.1262 24.8829 30.7494 31.2824 29.3301 37.6734C29.2366 38.0984 29.1856 38.5318 29.0751 39.1777H41.1093C41.1348 41.5659 40.8543 41.8548 38.7806 41.8548C35.9676 41.8548 33.163 41.8548 30.3499 41.8548C28.9845 41.8548 28.1488 42.5375 27.8428 43.903C25.1487 55.7927 22.4716 67.6909 19.752 79.5721C18.6217 84.5183 16.7945 89.1331 12.9701 92.7026C9.5961 95.8386 5.60169 97.4023 1.00389 97.4193C0.689439 97.4193 0.374999 97.3683 0.0605469 97.3343Z" fill="#5B4CFF"/>
<path d="M60.664 68.5832C59.7121 69.3311 58.9558 69.9515 58.1739 70.5209C53.9245 73.6314 49.1992 74.2093 44.2445 72.8495C39.8592 71.6427 37.6665 68.3622 37.3181 64.0534C36.7062 56.5405 38.2869 49.5291 43.3776 43.6905C47.525 38.9312 52.8622 37.155 59.0917 38.1918C61.2674 38.5573 63.0351 39.6621 64.2929 41.5233C64.4289 41.7273 64.5819 41.9142 64.7434 42.0927C64.7944 42.1437 64.8879 42.1607 65.1343 42.2797C65.3553 41.4978 65.6187 40.7499 65.7547 39.9765C65.8992 39.1862 66.2732 38.8802 67.072 38.8972C69.0097 38.9312 70.9474 38.9057 73.0551 38.9057C72.9276 39.6706 72.8681 40.223 72.7492 40.7669C70.5565 50.8549 68.3638 60.9344 66.1627 71.0223C66.0437 71.5832 66.0607 72.4076 65.1853 72.2971C64.1145 72.1696 62.7632 72.994 62.0663 71.4388C61.6498 70.5209 61.1909 69.637 60.664 68.5662V68.5832ZM63.4771 49.3506C63.4261 48.2628 63.4346 47.4469 63.3411 46.6395C62.8397 42.4412 59.8906 40.359 55.7518 41.2768C53.5591 41.7613 51.8338 43.0021 50.3976 44.6848C47.1256 48.5262 45.7318 53.192 44.7119 57.9853C44.117 60.7729 43.6496 63.5859 44.4315 66.4245C45.2473 69.4161 47.6185 70.9203 50.712 70.5464C53.933 70.1554 56.3042 68.4472 58.1314 65.8976C61.7348 60.8749 63.0861 55.1127 63.4941 49.3421L63.4771 49.3506Z" fill="#5B4CFF"/>
<path d="M120.64 42.4415C120.895 41.5066 121.15 40.8522 121.235 40.1808C121.371 39.1525 121.897 38.8635 122.892 38.8975C124.787 38.9655 126.682 38.9145 128.756 38.9145C128.153 41.6851 127.609 44.2092 127.056 46.7418C125.322 54.7221 123.606 62.7109 121.855 70.6827C121.71 71.3541 121.846 72.2719 120.657 72.3484C118.438 72.4929 118.158 72.4334 117.521 71.0906C117.138 70.2917 116.756 69.5013 116.305 68.575C115.787 68.9744 115.396 69.2549 115.031 69.5608C110.96 73.0878 106.226 74.1501 101.016 73.1558C96.5458 72.2974 93.5798 69.3739 93.0444 64.7421C92.118 56.7703 93.8602 49.4104 99.3589 43.3253C103.464 38.7785 108.716 37.1893 114.742 38.2006C116.875 38.5576 118.591 39.6794 119.866 41.4471C120.045 41.7021 120.257 41.94 120.648 42.433L120.64 42.4415ZM99.6819 63.0423C99.6819 63.7307 99.6309 64.4276 99.6819 65.116C99.9963 68.9234 102.673 71.0141 106.464 70.5127C109.311 70.1387 111.546 68.7025 113.178 66.4758C117.538 60.5352 119.382 53.8127 118.778 46.5038C118.438 42.365 115.166 40.2488 111.113 41.2176C108.92 41.7446 107.195 43.0024 105.826 44.7361C101.577 50.0988 100.26 56.4558 99.6733 63.0508L99.6819 63.0423Z" fill="#5B4CFF"/>
<path d="M259.696 68.5491C259.143 68.9996 258.769 69.297 258.404 69.603C254.316 73.1045 249.582 74.1753 244.372 73.1469C239.911 72.2631 237.03 69.399 236.46 64.8182C235.474 56.8294 237.302 49.512 242.724 43.393C246.761 38.8377 251.962 37.2229 257.953 38.1663C260.231 38.5232 262.041 39.696 263.35 41.6083C263.461 41.7782 263.597 41.9312 263.733 42.0757C263.775 42.1182 263.877 42.1097 264.115 42.1607C264.31 41.4043 264.455 40.6139 264.744 39.883C264.897 39.5091 265.305 38.9737 265.619 38.9567C267.718 38.8717 269.826 38.9142 272.138 38.9142C271.704 40.9794 271.322 42.8661 270.914 44.7528C269.044 53.3705 267.183 61.9881 265.279 70.5973C265.135 71.2687 265.279 72.2036 264.132 72.3311C262.058 72.552 261.565 72.3906 260.902 71.0308C260.528 70.2659 260.163 69.5095 259.696 68.5406V68.5491ZM262.458 49.1211C262.373 48.1947 262.356 47.2089 262.186 46.257C261.446 42.1012 258.387 40.104 254.324 41.3108C252.931 41.7187 251.511 42.5006 250.466 43.495C249.132 44.7613 248.01 46.3165 247.092 47.9228C245.027 51.5262 244.075 55.5291 243.361 59.583C242.97 61.7927 242.766 64.0108 243.319 66.229C244.092 69.382 246.48 70.9458 249.684 70.5548C253.254 70.1129 255.71 68.0562 257.579 65.1922C260.758 60.3309 262.016 54.8747 262.466 49.1296L262.458 49.1211Z" fill="#5B4CFF"/>
<path d="M193.236 70.0959C190.797 71.9402 188.205 73.028 185.333 73.3934C180.879 73.9544 176.723 73.147 173.086 70.4189C169.432 67.6823 168.063 63.7814 168.055 59.4046C168.046 54.2544 169.168 49.3506 172.568 45.2882C177.429 39.4836 183.692 37.087 191.163 38.3023C196.508 39.1692 200.316 43.6905 200.571 49.2741C200.664 51.3648 200.324 53.4725 200.171 55.5717C200.095 56.566 199.568 56.889 198.548 56.889C191.265 56.8465 183.981 56.8635 176.689 56.872C175.024 56.872 174.947 56.906 174.99 58.5802C175.015 59.7105 175.1 60.8579 175.304 61.9712C176.664 69.1951 182.724 70.2574 187.364 69.0846C188.299 68.8466 189.225 68.4642 190.066 67.9883C190.848 67.5463 191.307 67.6908 191.792 68.3792C192.183 68.9401 192.667 69.433 193.236 70.0959ZM184.678 53.311C187.279 53.311 189.879 53.294 192.48 53.3195C193.194 53.3195 193.636 53.1155 193.763 52.3592C194.129 50.175 194.239 47.9993 193.576 45.8491C192.854 43.5205 191.358 41.9567 188.902 41.5828C186.352 41.1919 183.973 41.6933 181.882 43.308C178.976 45.5602 177.335 48.6452 176.137 52.0277C175.772 53.0475 176.129 53.328 177.114 53.3195C179.63 53.2855 182.154 53.311 184.678 53.311Z" fill="#5B4CFF"/>
<path d="M93.6476 12.8404C93.2991 14.3531 93.0102 15.6449 92.7127 16.9367C89.2963 31.58 85.8713 46.2148 82.4888 60.8665C82.1403 62.3623 81.9619 63.9091 81.7834 65.4388C81.384 68.7618 82.8542 70.2746 86.1772 70.0706C86.7126 70.0366 87.571 69.4587 87.673 70.6145C87.7835 71.8469 87.3076 72.4758 86.1857 72.5098C84.52 72.5607 82.8372 72.6287 81.1885 72.4758C77.1261 72.1018 74.9589 69.8667 75.1884 65.7958C75.3584 62.7362 76.0043 59.6852 76.6757 56.6767C79.8627 42.4838 83.1347 28.308 86.3472 14.1237C86.5682 13.1633 86.9421 12.7639 87.9705 12.8149C89.7807 12.8998 91.6079 12.8404 93.6391 12.8404H93.6476Z" fill="#5B4CFF"/>
<path d="M218.409 12.7297C219.522 12.8487 220.627 12.9677 221.74 13.0866C221.545 14.149 221.383 15.2283 221.145 16.2821C217.78 30.7299 214.389 45.1692 211.049 59.617C210.598 61.5547 210.318 63.5264 210.063 65.4981C209.646 68.7701 211.185 70.2914 214.525 70.0619C215.026 70.028 215.825 69.501 215.969 70.5464C216.122 71.6172 215.596 72.4586 214.669 72.4841C212.842 72.5351 210.989 72.6456 209.187 72.4246C205.219 71.9317 203.255 69.756 203.485 65.7361C203.655 62.7616 204.284 59.7785 204.938 56.855C208.142 42.5856 211.431 28.3248 214.669 14.064C214.873 13.1546 215.239 12.7212 216.216 12.8232C216.938 12.8997 217.678 12.8402 218.409 12.8402C218.409 12.7977 218.409 12.7637 218.417 12.7212L218.409 12.7297Z" fill="#5B4CFF"/>
<path d="M237.821 12.8401C236.962 16.4266 236.163 19.6986 235.399 22.9706C232.382 35.9481 229.373 48.9256 226.39 61.9116C226.127 63.059 226.008 64.2318 225.872 65.4046C225.472 68.7021 227.053 70.3084 230.393 70.0364C230.826 70.0024 231.26 69.9939 231.676 69.9684C231.94 72.0761 231.651 72.5095 229.772 72.5265C227.988 72.5435 226.178 72.5605 224.427 72.2971C221.019 71.7786 219.192 69.7389 219.336 66.2545C219.455 63.4329 219.939 60.6028 220.56 57.8408C223.823 43.291 227.189 28.7667 230.469 14.2254C230.716 13.1291 231.149 12.7551 232.254 12.8146C234.03 12.8996 235.807 12.8401 237.821 12.8401Z" fill="#5B4CFF"/>
<path d="M281.053 72.0251C278.461 72.0506 276.472 70.1044 276.455 67.5293C276.438 65.0052 278.461 62.923 280.96 62.8805C283.416 62.838 285.574 64.9372 285.617 67.4103C285.651 69.875 283.552 72.0081 281.062 72.0251H281.053Z" fill="#5B4CFF"/>
</svg>
