<svg width="305" height="61" viewBox="0 0 305 61" fill="none" xmlns="http://www.w3.org/2000/svg">
<path d="M214.701 29.5582C214.956 29.2777 215.143 29.0738 215.321 28.8698C221.661 21.3654 228.01 13.8611 234.324 6.33973C234.792 5.77882 235.259 5.54085 235.99 5.54935C238.344 5.59185 240.698 5.55785 243.053 5.56635C243.384 5.56635 243.707 5.60034 244.2 5.62584C243.902 6.01678 243.707 6.29724 243.495 6.5522C242.194 8.12446 240.928 9.73071 239.577 11.252C238.846 12.0764 238.557 12.9262 238.557 14.0396C238.591 27.1191 238.582 40.1986 238.582 53.2781C238.582 53.686 238.582 54.0939 238.582 54.5699H231.537C231.52 52.3772 231.537 50.176 231.537 47.9749C231.537 45.7567 231.537 43.5471 231.537 41.3289V21.3229C231.46 21.2805 231.435 21.2635 231.409 21.255C231.375 21.255 231.341 21.2465 231.316 21.255C231.256 21.289 231.197 21.3314 231.154 21.3824C231.035 21.5099 230.933 21.6459 230.823 21.7819C225.562 28.0709 220.302 34.36 215.041 40.649C214.998 40.7 214.939 40.7425 214.879 40.7765C214.854 40.7935 214.82 40.802 214.701 40.836C209.279 34.3005 203.831 27.7395 198.383 21.1785L198.154 21.2465C198.154 26.7961 198.154 32.3458 198.154 37.8954C198.154 43.4451 198.154 48.9607 198.154 54.5529H191.134C191.125 54.1279 191.1 53.686 191.1 53.2526C191.1 40.1391 191.083 27.0256 191.117 13.9121C191.117 12.8667 190.845 12.0849 190.165 11.303C188.593 9.50974 187.106 7.64003 185.508 5.71932C185.763 5.64283 185.941 5.55785 186.12 5.55785C188.746 5.54935 191.38 5.58335 194.007 5.53236C194.695 5.52386 194.992 5.9318 195.341 6.34823C199.905 11.8214 204.468 17.2946 209.032 22.7762C210.715 24.7989 212.398 26.8131 214.089 28.8358C214.267 29.0483 214.446 29.2522 214.718 29.5497L214.701 29.5582Z" fill="#5B4CFF"/>
<path d="M267.674 54.5613V5.76177C268.43 5.5238 299.901 5.42182 301.983 5.64279C302.187 6.36518 302.255 10.8695 302.068 12.7987C300.309 12.8752 298.533 12.8242 296.748 12.8327C294.912 12.8412 293.076 12.8327 291.249 12.8327H275C274.736 13.6231 274.668 24.1615 274.906 25.6232H294.725V33.0511H274.847V47.3714C277.371 47.4139 279.878 47.3884 282.385 47.3884C284.875 47.3884 287.365 47.3884 289.855 47.3884H304.966V54.4763C304.252 54.6973 269.883 54.7908 267.674 54.5613Z" fill="#5B4CFF"/>
<path d="M43.1207 54.5956H36.0583V33.1703C35.1575 32.9153 8.39506 32.8814 7.23924 33.1193V54.5785H0.22781C0.0238409 53.7797 -0.0356915 7.0028 0.185275 5.57502C2.46293 5.56652 4.76609 5.55802 7.21372 5.57502C7.21372 6.92631 7.23073 8.22662 7.23073 9.52692C7.23073 10.8782 7.23073 12.2295 7.23073 13.5723V25.462C8.0806 25.7 34.8005 25.7509 35.9903 25.5215V5.78749C36.8062 5.51553 41.8289 5.46453 43.1122 5.694V54.5956H43.1207Z" fill="#5B4CFF"/>
<path d="M144.654 1.04528V0.10192C144.79 0.0679254 144.926 0.00843578 145.045 0.0169345C146.855 0.220903 148.563 0.78182 150.119 1.72518C153.289 3.65438 155.549 6.30598 156.433 9.98592C156.968 12.2296 156.663 14.4562 156.229 16.6744C155.966 18.0342 155.651 19.377 155.388 20.7368C154.546 25.0456 157.24 27.7142 159.833 28.7001C160.699 29.0315 161.6 29.2695 162.51 29.5499V30.6633C162.161 30.7568 161.804 30.8672 161.447 30.9607C160.223 31.2667 159.102 31.7766 158.082 32.5245C155.838 34.1817 154.869 36.3574 155.379 39.128C155.634 40.5218 155.932 41.9071 156.229 43.2923C156.739 45.6805 157.079 48.0856 156.408 50.4822C155.116 55.131 151.946 58.0036 147.518 59.6099C146.651 59.9243 145.716 60.0603 144.671 60.3153C144.645 59.8478 144.628 59.4909 144.611 59.0829C145.036 58.9725 145.393 58.879 145.759 58.794C148.92 58.0121 151.011 56.0999 151.852 52.9299C152.209 51.5701 152.065 50.1763 151.869 48.7995C151.631 47.1592 151.274 45.536 151.053 43.8872C150.9 42.7229 150.79 41.5416 150.832 40.3773C150.926 37.7597 152.073 35.601 153.951 33.7993C155.575 32.2525 157.453 31.1052 159.748 30.1958C159.297 29.9834 159.017 29.8389 158.728 29.7114C156.85 28.8615 155.15 27.7482 153.739 26.2354C151.478 23.8218 150.399 21.0172 150.883 17.6942C151.181 15.6461 151.58 13.6064 151.852 11.5497C151.997 10.4618 152.048 9.34001 151.997 8.24368C151.903 6.07651 150.934 4.30028 149.141 3.08497C148.181 2.43057 147.067 1.99714 146.014 1.49571C145.614 1.30874 145.164 1.20675 144.654 1.04528Z" fill="#5B4CFF"/>
<path d="M88.1727 0.00850052V1.13033C87.6543 1.25781 87.1528 1.36829 86.6599 1.51277C83.4389 2.45612 81.4587 4.5638 80.8298 7.8613C80.5663 9.27209 80.8213 10.6914 81.0423 12.0852C81.3057 13.7254 81.6882 15.3487 81.8581 16.9889C81.9941 18.2892 82.0196 19.6235 81.8581 20.9153C81.6117 23.0145 80.5408 24.7482 79.0366 26.21C77.6088 27.5953 75.9856 28.6916 74.1668 29.5075C73.8524 29.6435 73.5464 29.788 73.1045 29.9919C73.5379 30.2044 73.8523 30.3659 74.1753 30.5103C75.7305 31.2157 77.1499 32.1166 78.4162 33.2724C81.3822 35.992 82.521 39.332 81.8751 43.2924C81.5182 45.4766 81.1102 47.6522 80.8298 49.8449C80.3284 53.7968 81.9686 56.6099 85.6316 58.2246C86.422 58.5731 87.2463 58.828 88.1472 59.1595C88.1642 59.4399 88.1812 59.7629 88.2067 60.2303C87.7222 60.1623 87.3228 60.1368 86.9404 60.0433C81.6882 58.8535 78.1187 55.7685 76.504 50.5928C75.8496 48.4936 76.0705 46.3434 76.4614 44.2188C76.7759 42.485 77.1838 40.7683 77.4728 39.0345C77.9572 36.128 76.7164 33.4679 74.1073 32.0486C72.9685 31.4282 71.6937 31.0628 70.3594 30.5443V29.4905C71.0138 29.295 71.6427 29.1336 72.2631 28.9296C73.6654 28.4622 74.8807 27.6973 75.9005 26.6094C77.2093 25.2072 77.7958 23.5584 77.4983 21.6632C77.2603 20.1589 76.9714 18.6717 76.6484 17.1844C76.1555 14.9407 75.8155 12.6801 76.249 10.3939C76.9969 6.41652 79.436 3.65444 82.827 1.64875C84.1443 0.86687 85.5976 0.39944 87.0933 0.0934863C87.4163 0.0254966 87.7562 0.0339948 88.1472 0L88.1727 0.00850052Z" fill="#5B4CFF"/>
</svg>
