<?xml version="1.0" encoding="UTF-8"?><svg id="Layer_2" xmlns="http://www.w3.org/2000/svg" viewBox="0 0 221.56 181.18"><defs><style>.cls-1{fill:#5b4cff;}</style></defs><g id="Layer_1-2"><g><path class="cls-1" d="M77.37,128.08c-.02,8.23-.68,16.37-3.15,24.3-7.97,25.55-33.79,36.15-57.36,23.37-3.62-1.96-6.87-4.64-10.21-7.08-2.01-1.47-2.26-3.14-.34-5.07,2.73-2.75,5.37-5.59,7.94-8.5,1.52-1.73,2.91-1.69,4.81-.57,3.25,1.92,6.53,3.89,10.03,5.25,10.95,4.28,20.87,.11,24.92-10.88,1.82-4.93,2.31-10.36,3.26-15.6,.13-.72-.4-1.96-.99-2.29-.59-.33-1.86-.09-2.47,.37-10.34,8.01-21.6,6.76-32.59,2.44-11.17-4.4-18.23-12.92-20.48-24.95-.47-2.52-.64-5.13-.65-7.7C.01,90.11,.25,79.03,.01,67.97-.49,44.71,17.75,30.89,37.79,31.53c5.68,.18,10.98,1.1,15.45,4.97,1.66,1.44,3.32,.8,3.46-1.43,.17-2.83,1.67-3.28,4.02-3.23,4.34,.09,8.69,0,13.03,.04,3.13,.03,3.66,.6,3.66,3.78,0,16.42,0,78.03-.04,92.42Zm-20.72-61.29c-.18-3.02-.78-6.35-2.27-8.9-3.88-6.65-13.46-9.6-21.59-7.27-7.65,2.2-12.98,9.25-13,17.28-.02,10.79-.02,21.58,0,32.37,.01,9.39,6.4,16.67,15.72,18.1,9.69,1.48,21.32-4.52,21.32-18.11,.07-5.13,.16-27.68-.18-33.47Z"/><path class="cls-1" d="M183.2,136.78c-11.27,0-22.55,0-33.82,0-4.39,0-4.87-.78-2.81-4.63,13.52-25.27,27.05-50.53,40.58-75.79,.22-.41,.46-.8,.66-1.21,1.54-3.06,.86-4.3-2.55-4.31-11.18-.04-22.36-.01-33.54-.02-3.57,0-3.72-.16-3.73-3.78,0-3.97,.05-7.93-.02-11.89-.03-1.77,.75-2.54,2.44-2.58,.74-.01,1.48-.04,2.22-.04,21.16,0,42.32,0,63.48,0,.55,0,1.11-.01,1.66,.01,3.65,.16,4.15,1.09,2.35,4.48-10.52,19.87-21.06,39.73-31.59,59.59-3.11,5.86-6.24,11.71-9.31,17.59-1.64,3.14-.85,4.4,2.75,4.4,11.92,.03,23.84,0,35.76,.01,3.43,0,3.8,.37,3.81,3.79,.02,3.78-.03,7.56,.01,11.34,.03,2.19-.85,3.09-3.16,3.07-11.73-.08-23.47-.04-35.2-.04Z"/><path class="cls-1" d="M122.53,84.5c0,16.05,0,32.1,0,48.16,0,3.92-.21,4.12-4.02,4.13-4.25,0-8.51-.06-12.76,.02-2.03,.04-2.9-.83-2.88-2.77,0-.74-.02-1.48-.02-2.21,0-31.46-.02-62.92-.02-94.38,0-4.93,.14-5.06,5.19-5.06,3.61,0,7.21-.02,10.82,0,3.27,.03,3.68,.43,3.68,3.68,.01,16.14,0,32.29,0,48.43Z"/><path class="cls-1" d="M122.69,10.63c0,2.48-.03,4.97,0,7.45,.03,2.17-.91,3.19-3.16,3.15-4.24-.07-8.48,.06-12.71-.07-1.17-.03-3.13-.43-3.33-1.09-.44-1.43-.61-3.65,.21-4.65,4.19-5.12,8.63-10.06,13.25-14.8,.79-.81,2.97-.72,4.33-.36,.68,.18,1.26,1.87,1.34,2.92,.19,2.47,.06,4.96,.06,7.44Z"/></g></g></svg>