<svg width="103" height="103" viewBox="0 0 103 103" fill="none" xmlns="http://www.w3.org/2000/svg">
<path d="M62.8717 51.0659H53.0388V60.8716H62.8717V51.0659Z" fill="white"/>
<path d="M72.8476 41.0969H63.0146V50.9026H72.8476V41.0969Z" fill="white"/>
<path d="M42.9271 51.0659H33.0942V60.8716H42.9271V51.0659Z" fill="white"/>
<path d="M32.9513 41.0969H23.1184V50.9026H32.9513V41.0969Z" fill="white"/>
<path d="M52.896 61.0416H43.0631V70.8473H52.896V61.0416Z" fill="white"/>
<path d="M82.8231 31.1211H72.9902V40.9268H82.8231V31.1211Z" fill="white"/>
<path d="M92.799 21.1458H82.9388V30.9515H92.799V21.1458Z" fill="white"/>
<path d="M85.9417 16H75.8232V25.9757H65.8203V35.9514H55.8718V45.9271H45.896V55.9029H36.0631V45.9271H26.0874V35.9514H15.9757V45.9271H6V56.0729H15.9757V66.0486H25.9514V76.0243H35.9271V86H46.0457V76.0243H56.0214V66.0486H65.9971V56.0729H75.9728V46.0971H85.9485V36.1214H95.9242V25.9757H85.9485V16H85.9417ZM25.9514 55.8961H16.1185V46.0903H25.9514V55.8961ZM35.9271 65.8718H26.0942V56.0661H35.9271V65.8718ZM45.9029 75.8475H36.0699V66.0418H45.9029V75.8475ZM55.8786 65.8718H46.0457V56.0661H55.8786V65.8718ZM65.8543 55.8961H56.0214V46.0903H65.8543V55.8961ZM75.83 45.9203H65.9971V36.1146H75.83V45.9203ZM85.8057 35.9446H75.9456V26.1457H85.8057V35.9514V35.9446Z" fill="black"/>
</svg>
