<svg width="44" height="43" viewBox="0 0 44 43" fill="none" xmlns="http://www.w3.org/2000/svg">
<g filter="url(#filter0_d_504_816)">
<path d="M22.5003 35.0006C32.1654 35.0006 40.0006 27.1654 40.0006 17.5003C40.0006 7.83514 32.1654 0 22.5003 0C12.8351 0 5 7.83514 5 17.5003C5 27.1654 12.8351 35.0006 22.5003 35.0006Z" fill="#5B4CFF"/>
</g>
<path fill-rule="evenodd" clip-rule="evenodd" d="M24.7568 23.2483L21.3225 24.576C21.0793 24.6699 20.8702 24.3782 21.0382 24.1782L22.5486 22.3802C20.5775 21.2368 19.2812 19.3028 19.2812 17.1092C19.2812 13.5969 22.6031 10.7493 26.7014 10.7493C30.7998 10.7493 34.1216 13.5969 34.1216 17.1092C34.1216 20.6215 30.7998 23.4691 26.7014 23.4691C26.0288 23.4691 25.3765 23.3921 24.7568 23.2477V23.2483ZM15.2059 20.2838L12.5005 21.33C12.3055 21.4053 12.1386 21.1716 12.2729 21.012L13.4607 19.5989C11.9032 18.6954 10.8789 17.166 10.8789 15.4326C10.8789 12.6569 13.504 10.406 16.7427 10.406C18.289 10.406 19.6948 10.919 20.7433 11.7573C19.8347 12.5288 19.1003 13.5014 18.6424 14.6594C18.3328 15.441 18.1738 16.2686 18.1738 17.1092C18.1738 17.9498 18.3334 18.778 18.6424 19.5596C18.7171 19.7484 18.7997 19.9321 18.8885 20.1102C18.2238 20.3344 17.5001 20.4575 16.7432 20.4575C16.2111 20.4575 15.6959 20.3962 15.2065 20.2833L15.2059 20.2838ZM30.2862 15.8922C31.0391 15.8326 31.6622 16.4563 31.6032 17.2092C31.5566 17.8014 31.0768 18.2813 30.4845 18.3279C29.7316 18.3875 29.1085 17.7638 29.1675 17.0109C29.2141 16.4187 29.694 15.9388 30.2862 15.8922ZM26.6025 15.8922C27.3554 15.8326 27.9786 16.4563 27.9196 17.2092C27.8729 17.8014 27.3931 18.2813 26.8009 18.3279C26.048 18.3875 25.4248 17.7638 25.4838 17.0109C25.5305 16.4187 26.0103 15.9388 26.6025 15.8922ZM22.9188 15.8922C23.6718 15.8326 24.2949 16.4563 24.2359 17.2092C24.1893 17.8014 23.7094 18.2813 23.1172 18.3279C22.3643 18.3875 21.7411 17.7638 21.8001 17.0109C21.8468 16.4187 22.3266 15.9388 22.9188 15.8922Z" fill="white"/>
<defs>
<filter id="filter0_d_504_816" x="1" y="0" width="43.0005" height="43.0006" filterUnits="userSpaceOnUse" color-interpolation-filters="sRGB">
<feFlood flood-opacity="0" result="BackgroundImageFix"/>
<feColorMatrix in="SourceAlpha" type="matrix" values="0 0 0 0 0 0 0 0 0 0 0 0 0 0 0 0 0 0 127 0" result="hardAlpha"/>
<feOffset dy="4"/>
<feGaussianBlur stdDeviation="2"/>
<feComposite in2="hardAlpha" operator="out"/>
<feColorMatrix type="matrix" values="0 0 0 0 0 0 0 0 0 0 0 0 0 0 0 0 0 0 0.25 0"/>
<feBlend mode="normal" in2="BackgroundImageFix" result="effect1_dropShadow_504_816"/>
<feBlend mode="normal" in="SourceGraphic" in2="effect1_dropShadow_504_816" result="shape"/>
</filter>
</defs>
</svg>
