<?xml version="1.0" encoding="UTF-8"?><svg id="Layer_2" xmlns="http://www.w3.org/2000/svg" viewBox="0 0 1260.75 860.75"><defs><style>.cls-1{fill:#d7d7d7;}</style></defs><g id="Layer_1-2"><path class="cls-1" d="M0,0V860.75H1260.75V0H0ZM1215,515.99c-5.68-.01-11.88-.04-18.57-.09-8.94-.46-17.99-.93-30.21-3.95-.43-2.21-.9-4.45-1.43-6.74-4.57-18.26-12.67-34.97-21.72-50.96,22.39,9.12,45.51,16.08,69.76,18.53,0,7.67,.62,15.78,1.22,23.67,.35,4.67,.72,9.5,.95,14.13v5.41Zm-45,43.01h-19.45c-9.23,.37-18.2-.26-27.05-1.54-3.89-24.95-12.43-48.45-22.72-71.95,20.66,11.21,42.02,20.99,64.68,26.53,2.74,13.97,3.75,26.33,4.54,37.86v9.1Zm44.99-387h-18.54c-7.44,.44-16.52,.98-27.12,2.43,1.79-14.16,1.78-27.35,1.42-39.68v-5h44.25v36.44c0,1.92,0,3.87,0,5.81Zm.29,43.36c-6.32,.35-13.82,1.05-22.66,2.43-14.12,3.3-27.76,7.81-41.04,13.04,6.9-13.37,12.58-27.37,15.44-42.49,.94-4.47,1.66-8.84,2.22-13.13,10.67-1.46,19.79-2.01,27.25-2.45h18.51c-.01,8.82-.03,17.86-.06,27.13,.49,5.2,.53,10.36,.34,15.48Zm-90.28,386.64h-44.25v-13.76c-1.05-14.23-3.09-28.26-5.78-42.11,16.1,5,31.78,9.59,47.88,11.99,1.5,9.8,2.29,19.82,2.16,30.15v13.73Zm-989.25-42.25h1.25c16.9-1.94,32.17,1.91,47.55,7.31,4.45,18.87,11.42,36.92,18.67,55.65,2.58,6.66,5.19,13.4,7.7,20.24-8.06-3.68-16.08-8.48-24.28-13.39-11.33-6.79-23.06-13.81-35.15-17.72-2.1-.77-4.17-1.49-6.22-2.17-2.68-5.9-4.71-11.99-5.55-18.33-2.65-10.25-3.39-19.36-3.98-28.54v-3.06Zm887.26-205.49c.35,2.03,.72,4.05,1.1,6.06-4.28-.23-8.57-.4-12.86-.5-.12-3.88-.19-7.77-.21-11.65,3.77,.02,7.54,.04,11.31,.06,.09,1.99,.29,4,.65,6.03Zm26.73,101.6c9.01,29,18.22,58.67,24.25,89.18-1.66-.52-3.32-1.04-4.99-1.56-12.57-3.93-25.47-7.96-38.69-11.02-2.68-25.97-5.88-51.72-9.01-76.93-.63-5.06-1.26-10.15-1.89-15.27,5.01,1.75,10.25,4.16,15.79,7.27,4.85,2.7,9.71,5.5,14.54,8.33,0,0,0,.01,0,.02Zm30.26,146.14h-44.9c-.17-7.13-.34-14.52-.64-22.64-1.1-15.41-2.5-30.8-4.07-46.12,13.1,3.05,25.91,7.05,38.39,10.96,1.8,.56,3.59,1.12,5.38,1.68,2.73,13.95,4.79,28.08,5.85,42.39v13.73Zm-845.15,82.02c-.01-4.5-.04-9.03-.11-13.57,.54,.04,1.08,.08,1.62,.12,1.97,.09,3.94,.13,5.92,.13,2.32,0,4.63-.07,6.95-.19-.26,4.5-.4,9.02-.35,13.55-4.66-.03-9.33-.04-14.03-.04Zm-54.1-167.27h44.4c.07,3,.12,5.87,.17,8.69,.11,6.03,.22,11.73,.43,18.44,1.43,12.85,2.67,25.52,3.73,38.03-10.39-2.62-20.46-6.46-30.27-10.21-4.63-1.77-9.29-3.55-14.01-5.2-2.24-9.6-3.84-19.4-4.44-29.62v-20.13Zm809.25,108.63v19.62h-44.25v-19.6l.13-2.48c.34-6.72,.69-13.54,.99-20.16h43.35c0,.43,0,.85-.01,1.28-.06,6.82-.12,13.69-.21,21.35ZM225.75,510.58v-36.83h44.25s0,36.81,0,36.81l-.18,3.93c-.02,.51-.05,1.01-.07,1.51h-43.86c-.04-1.75-.08-3.54-.13-5.42Zm771.16-150.82c-3.14,.05-6.27,.15-9.41,.28,.34-3.99,.42-8,.12-12.05,3.09,.03,6.18,.05,9.26,.07,.01,3.91,.02,7.81,.02,11.69ZM270.75,510.58v-36.83h44.25s0,42.25,0,42.25h-44.5c.02-.49,.05-.98,.07-1.48l.18-3.94Zm692.45-194.76c2.27,6.16,3.79,12.26,4.66,18.3-10.81-1.93-21.56-3.89-32.12-5.83-.62-1.43-1.29-2.85-2.03-4.26-3.54-7.32-7.32-14.6-11.21-21.81,12.13,4.21,24.45,8.42,36.76,12.33,1.32,.42,2.63,.84,3.94,1.27Zm22.81,25.44c.38,2.01,.63,4,.8,5.97-5.76-.05-11.51-.11-17.25-.17-.02-3.98-.28-7.99-.82-12.02,2.86,.51,5.71,1.02,8.57,1.52,2.83,.51,5.52,.96,8.16,1.33,.18,1.13,.36,2.25,.53,3.37Zm.74,18.82c-3.8,.18-7.6,.42-11.4,.74-2.24,.19-4.49,.41-6.74,.62,.6-4.51,.94-9.05,.96-13.62,5.76,.06,11.53,.12,17.31,.17,.3,4.07,.22,8.08-.13,12.09Zm-18.91,1.43c-9.7,.91-19.42,1.95-29.13,3.12,1.49-5.67,2.08-11.42,1.73-17.16,9.44,.12,18.89,.23,28.37,.34-.02,4.6-.36,9.16-.97,13.7Zm-29.94,3.22c-20.01,2.42-39.94,5.28-59.47,8.07-6.55,.94-13.15,1.88-19.77,2.82,1-5.68,1.72-11.47,2.09-17.4,.28-4.01,.35-7.97,.26-11.9,5.85,.09,11.68,.17,17.48,.26,20.28,.3,40.7,.61,61.2,.88,.35,5.77-.25,11.57-1.79,17.27Zm-217.89,65.46c-1.32-.06-2.63-.12-3.95-.19h-40.3v-42.25h40.29c1.3,.03,2.62,.05,3.96,.06v42.38Zm.75-42.38c1.24,.01,2.49,.02,3.76,.02,12.16,0,25.6-.45,38.57-.95,1.55-.09,3.1-.2,4.66-.31-.5,13.72-1.25,27.97-2.24,42.86-2.02,.16-4.04,.32-6.07,.44-13.3,.77-26,.89-38.68,.35v-42.41Zm-45.75,42.19h-44.25v-42.25h44.25v42.25Zm-45,0h-44.25v-42.25h44.25v42.25Zm-45,0h-44.25v-42.25h44.25v42.25Zm-45,0h-44.25v-42.25h44.25v42.25Zm-45,0h-44.25v-42.25h44.25v42.25Zm0,.75v42.25h-44.25v-42.25h44.25Zm.75,0h44.25s0,42.25,0,42.25h-44.25v-42.25Zm45,0h44.25s0,42.25,0,42.25h-44.25v-42.25Zm45,0h44.25s0,42.25,0,42.25h-44.25v-42.25Zm45,0h44.25s0,42.25,0,42.25h-44.25v-42.25Zm45,0h40.28c1.32,.07,2.65,.13,3.97,.19v42.06h-44.25v-42.25Zm45,.23c5.2,.22,10.4,.33,15.64,.33,7.56,0,15.22-.23,23.08-.69,2-.12,3.99-.27,5.97-.43,0,.01,0,.03,0,.04,.2,9.84-.02,20.02-.24,29.87-.08,3.51-.15,7.02-.21,10.53v2.01c-.36,.02-.73,.04-1.09,.06-1.82,.1-3.65,.19-5.47,.3h-37.69v-42.02Zm45,39.66c.06-3.5,.13-7.01,.21-10.52,.21-9.86,.43-20.05,.23-29.87,0-.04,0-.08,0-.12,27.61-2.3,53.98-8.13,80.4-15.48-5.23,13.5-11.47,26.81-17.87,40.44-1.44,3.08-2.9,6.18-4.36,9.31-5.81,1.66-11.68,3.11-17.65,4.28-15.33,2.5-27.88,3.24-40.98,3.94v-1.97Zm.5-41.27c.99-14.87,1.74-29.12,2.24-42.84,29.89-2.03,59.87-5.89,89.25-10.02-2.34,12.84-6.15,25.14-10.8,37.26-26.53,7.41-52.99,13.28-80.69,15.6Zm92.27-52.98c6.7-.94,13.38-1.9,20.01-2.85,19.42-2.78,39.24-5.62,59.14-8.03-1.11,3.89-2.63,7.74-4.62,11.5-2.24,4.2-4.56,8.4-6.9,12.6-10.15,3.05-20.19,6.2-30.13,9.32-16.28,5.11-32.25,10.11-48.18,14.58,4.6-12.07,8.37-24.32,10.68-37.12Zm1.48-18.22c-.37,5.99-1.11,11.83-2.12,17.56-29.43,4.14-59.45,8.01-89.37,10.05,.5-14.05,.75-27.55,.74-40.62,.75,0,1.48,.01,2.23,.02,29.55,.27,59.46,.69,88.77,1.13,.1,3.92,.03,7.87-.25,11.86Zm-92.24,27.66c-1.57,.11-3.15,.21-4.72,.31-14.3,.55-29.2,1.03-42.29,.93v-42.29c14.5,.08,30.53,.2,47.75,.38,0,13.09-.24,26.61-.74,40.67Zm-47.76,1.23c-1.34-.01-2.66-.03-3.95-.06h-40.3v-42.25h40.3c1.3,0,2.63,.01,3.95,.02v42.29Zm-45-.06h-44.25v-42.25h44.25v42.25Zm-45,0h-44.25v-42.25h44.25v42.25Zm-45,0h-44.25v-42.25h44.25v42.25Zm-45,0h-44.25v-42.25h44.25v42.25Zm-45,0h-44.25v-42.25h44.25v42.25Zm-45,0h-44.25v-42.25h44.25v42.25Zm0,.75v42.25h-44.25v-42.25h44.25Zm-45,42.25h-44.25v-42.25h44.25v42.25Zm0,.75v42.25h-44.25v-42.25h44.25Zm.75,0h44.25s0,42.25,0,42.25h-44.25v-42.25Zm44.25,43v42.25h-44.25v-42.25h44.25Zm.75,0h44.25v42.25h-44.25v-42.25Zm45,0h44.25s0,42.25,0,42.25h-44.25v-42.25Zm45,0h44.25v42.25h-44.25v-42.25Zm45,0h44.25v42.25h-44.25v-42.25Zm45,0h44.25s0,42.25,0,42.25h-44.25v-42.25Zm45,0h44.25s0,42.25,0,42.25h-44.25v-42.25Zm45,0h37.71c1.84-.1,3.66-.2,5.49-.3,.35-.02,.7-.04,1.05-.06v42.57l-6.56,.03h-37.69v-42.25Zm45-.39c12.63-.67,25.75-1.45,41.11-3.96,5.78-1.13,11.47-2.53,17.1-4.12-3.77,8.13-7.52,16.41-10.92,24.74-2.47,4.94-2.28,10.56-2.09,15.99,.04,1.28,.09,2.55,.1,3.81,0,1.82,0,3.67-.03,5.53-3.46,.26-6.96,.41-10.5,.41h-.11c-11.49,.09-23.04,.15-34.67,.2v-42.61Zm45.95,32.63c-.19-5.34-.38-10.85,2.02-15.65,3.49-8.54,7.33-17.01,11.19-25.32,26.89-7.71,52.16-20.07,76.73-32.27-12.22,21.74-23.89,43.99-32.51,67.28-18.22,7.88-37.19,13.66-57.36,15.27,.02-1.84,.04-3.67,.03-5.48,0-1.27-.05-2.55-.1-3.83Zm13.62-41.86c1.36-2.93,2.73-5.84,4.09-8.73,6.49-13.82,12.82-27.3,18.1-41.01,16.12-4.51,32.26-9.57,48.73-14.74,9.69-3.04,19.48-6.11,29.38-9.09-4.29,7.69-8.67,15.35-12.96,22.84-3.46,6.03-6.93,12.09-10.36,18.18-24.66,12.25-50.01,24.74-76.97,32.54Zm87.98-50.35c4.42-7.71,8.93-15.6,13.35-23.52,12.28-3.69,24.72-7.23,37.34-10.4-2.58,9.26-5.99,18.42-9.76,27.48-17.39,7.09-34.12,15.39-50.51,23.54-.08,.04-.16,.08-.24,.12,3.26-5.77,6.54-11.51,9.82-17.22Zm13.87-24.47c2.21-3.98,4.4-7.96,6.53-11.94,2.07-3.91,3.64-7.91,4.77-11.96,9.75-1.18,19.51-2.23,29.25-3.14-.79,5.62-2,11.21-3.51,16.75-12.52,3.13-24.86,6.64-37.04,10.29Zm13.2-42.59c-.44-5.94-1.87-11.84-4.28-17.6,10.48,1.92,21.15,3.87,31.87,5.78,.55,4.08,.82,8.13,.84,12.15-9.49-.1-18.97-.21-28.42-.34Zm-.76-.01c-20.48-.27-40.87-.57-61.13-.88-5.8-.09-11.65-.17-17.51-.26-.32-10.43-1.87-20.6-4.28-30.57,23.9,3.92,47.94,8.34,72.57,12.86,1.96,.36,3.96,.73,5.94,1.09,2.48,5.8,3.96,11.76,4.41,17.75Zm-79.39-1.15c-29.3-.44-59.2-.86-88.74-1.13-.75,0-1.49-.01-2.24-.02-.02-14.08-.34-27.67-.96-40.91,29.53,2.59,58.47,6.6,87.6,11.37,2.43,10.01,4.01,20.22,4.33,30.69Zm-91.73-1.16c-17.23-.17-33.25-.3-47.75-.38v-42.31c13.19-.03,27.44,.54,39.89,1.13,2.31,.18,4.6,.39,6.9,.59,.62,13.26,.94,26.87,.96,40.97Zm-48.5-.38c-1.32,0-2.66-.01-3.95-.02h-40.3v-42.25h40.3c1.3-.02,2.62-.02,3.95-.03v42.3Zm-45-.02h-44.25v-42.25h44.25v42.25Zm-45,0h-44.25v-42.25h44.25v42.25Zm-45,0h-44.25v-42.25h44.25v42.25Zm-45,0h-44.25v-42.25h44.25v42.25Zm-45,0h-44.25v-42.25h44.25v42.25Zm-45,0h-44.25v-42.25h44.25v42.25Zm-45,0h-44.25v-42.25h44.25v42.25Zm0,.75v42.25h-44.25v-42.25h44.25Zm-45,42.25h-44.25v-42.25h44.25v42.25Zm0,.75v42.25h-44.25v-42.25h44.25Zm0,43v42.25h-44.25v-42.25h44.25Zm0,43v42.25h-44.25v-42.25h44.25Zm.75,0h44.25v42.25h-44.25v-42.25Zm44.25,43v42.25h-44.25v-42.25h44.25Zm.75,0h44.25v42.25h-44.25v-42.25Zm45,0h44.25v42.25h-44.25v-42.25Zm45,0h44.25v42.25h-44.25v-42.25Zm45,0h44.25v42.25h-44.25v-42.25Zm45,0h44.25v42.25h-44.25v-42.25Zm45,0h44.25v42.25h-44.25v-42.25Zm45,0h44.25v42.25h-44.25v-42.25Zm45,0h37.69l6.56-.03v42.28h-44.25v-42.25Zm45-.04c11.62-.06,23.18-.11,34.67-.2h.12c3.54,0,7.03-.15,10.49-.41-.09,6.24-.32,12.61-.55,18.83-.18,4.93-.37,10.03-.48,14.96v9.1h-44.25v-42.29Zm45,33.19c.11-4.91,.29-10.01,.48-14.94,.23-6.25,.46-12.65,.55-18.92,20.05-1.59,38.9-7.29,57.01-15.06-6.5,17.77-11.22,36.14-13.04,55.36-.04,.57-.07,1.14-.11,1.72-4.65,.27-9.41,.56-14.19,.93h-30.7v-9.1Zm45.74,6.51c1.83-19.38,6.63-37.91,13.24-55.82,19.31-8.38,37.78-19.07,55.96-29.6,.82-.48,1.65-.95,2.47-1.43-.39,1.17-.78,2.34-1.14,3.51-1.71,5.41-3.49,10.89-5.21,16.18-6.64,20.46-13.42,41.38-17.64,62.88-6.86,1.71-13.81,3.09-20.87,3.89-8.49,.93-16.65,1.39-25.29,1.89-.54,.03-1.09,.06-1.63,.09,.04-.54,.06-1.07,.1-1.61Zm68.82-86.07c-17.95,10.39-36.18,20.95-55.22,29.27,8.71-23.35,20.47-45.66,32.74-67.46,.41-.2,.82-.41,1.23-.61,16.16-8.03,32.65-16.22,49.77-23.24-2.87,6.86-5.94,13.67-8.99,20.44-5.85,12.99-11.86,26.38-16.35,39.75-1.07,.62-2.13,1.23-3.19,1.85Zm20.22-41.29c3.15-7,6.32-14.05,9.28-21.15,8.14-3.31,16.42-6.36,24.88-8.99-2.2,10.14-4.43,20.19-6.6,29.99-1.29,5.82-2.57,11.61-3.84,17.36-13.54,6.62-26.81,14.18-39.77,21.67,4.44-13.07,10.34-26.17,16.06-38.88Zm9.68-22.12c3.72-9,7.09-18.09,9.62-27.3,6.52-1.63,13.09-3.15,19.71-4.55-.39,2.07-.8,4.14-1.21,6.24-.45,2.25-.89,4.51-1.32,6.79-.7,3.32-1.42,6.64-2.13,9.95-8.39,2.59-16.59,5.6-24.66,8.86Zm9.84-28.12c1.48-5.5,2.67-11.03,3.45-16.61,2.3-.21,4.6-.44,6.9-.63,3.76-.32,7.51-.55,11.27-.73-.42,4.47-1.14,8.94-1.98,13.46-6.59,1.38-13.14,2.9-19.63,4.51Zm12.38-42.98c-2.93-.52-5.87-1.04-8.8-1.56-.85-5.99-2.33-12.04-4.54-18.14,.98,.32,1.96,.65,2.93,.97,5.34,1.78,10.59,3.52,15.83,4.89,.87,5.03,1.7,10.08,2.49,15.14-2.56-.36-5.17-.8-7.91-1.29Zm-44.4-11.46c.66,1.24,1.25,2.5,1.82,3.76-1.82-.33-3.65-.67-5.45-1-24.74-4.55-48.89-8.98-72.9-12.92-3.24-13.18-7.94-26.01-13.17-38.6,21.33,6.37,42.64,13.83,64.5,21.49,4.5,1.58,9.05,3.17,13.62,4.76,4.02,7.45,7.93,14.96,11.58,22.51Zm-77.34-10.29c-29.07-4.75-57.96-8.76-87.44-11.34-.49-10.21-1.15-20.21-1.99-30.07,.13-4.52,.12-9.09,.05-13.64,25.99,2.95,51.06,8.87,76.09,16.31,5.27,12.64,10.01,25.52,13.29,38.74Zm-90.18-41.39c.84,9.84,1.5,19.81,1.98,29.99-2.27-.2-4.54-.4-6.82-.58-12.48-.58-26.74-1.15-39.94-1.13v-42.53c13.73-.84,27.53-.78,42.03,.2,.93,.1,1.87,.2,2.8,.31,.07,4.58,.08,9.18-.05,13.75Zm-45.53,28.28c-1.33,0-2.65,0-3.95,.03h-40.3v-42.25h40.33c1.31-.1,2.62-.18,3.92-.26v42.49Zm-45,.03h-44.25v-42.25h44.25s0,42.25,0,42.25Zm-45,0h-44.25v-42.25h44.25s0,42.25,0,42.25Zm-45,0h-44.25v-42.25h44.25s0,42.25,0,42.25Zm-45,0h-44.25v-42.25h44.25s0,42.25,0,42.25Zm-45,0h-44.25v-42.25h44.25s0,42.25,0,42.25Zm-45,0h-44.25v-42.25h44.25s0,42.25,0,42.25Zm-45,0h-44.25v-42.25h44.25s0,42.25,0,42.25Zm-45,0h-44.25v-42.25h44.25s0,42.25,0,42.25Zm0,.75v42.25h-44.25v-42.25h44.25Zm-45,42.25h-44.25v-42.25h44.25v42.25Zm0,.75v42.25h-44.25v-42.25h44.25Zm0,43v42.25h-44.25v-42.25h44.25Zm0,43v42.25h-44.25v-42.25h44.25Zm0,86v20.14c.17,8.48-.62,16.71-2.13,24.74-13.51,2.63-26.04,7.72-38.23,12.69-2.96,1.21-5.97,2.43-9,3.63,1.9-11.4,3.33-22.9,3.71-34.38,.24-8,.66-17.15,1.11-26.83h44.54Zm.75,20.13v-20.13h44.25v42.25h-12.91c-3.45,.07-7.04,.29-10.52,.51-3.94,.24-8.02,.5-11.82,.52-3.78,.27-7.46,.77-11.08,1.45,1.48-7.98,2.25-16.17,2.08-24.6Zm9.03,23.9c3.8-.02,7.89-.28,11.84-.52,3.47-.21,7.05-.44,10.48-.51h12.9v3.05l-.05,10.66c-.02,4.97-.04,9.92-.07,14.82-.19,5.49-.96,10.87-2.1,16.16-20.33,4.28-39.2,13.54-57.58,22.56-4.8,2.36-9.65,4.73-14.56,7.04,.77-1.59,1.54-3.17,2.3-4.75,10.39-21.4,21.04-43.34,25.57-67.04,3.68-.7,7.43-1.22,11.26-1.49Zm35.85,27.52c.03-4.91,.05-9.86,.07-14.83l.05-10.66v-3.06h44.25s0,42.25,0,42.25h-5.96l-4.71,.03c-6.66,.04-13.28,.08-19.88,.15-5.4,.32-10.69,1.05-15.88,2.11,1.11-5.23,1.86-10.55,2.05-15.98Zm45.12-28.55h44.25s0,42.25,0,42.25h-44.25v-42.25Zm45,0h44.25v42.25h-44.25v-42.25Zm45,0h44.25s0,42.25,0,42.25h-44.25v-42.25Zm45,0h44.25s0,42.25,0,42.25h-44.25v-42.25Zm45,0h44.25v42.25h-44.25v-42.25Zm45,0h44.25s0,42.25,0,42.25h-44.25v-42.25Zm45,0h44.25v42.25h-44.25v-42.25Zm45,0h44.25s0,42.25,0,42.25h-44.25v-42.25Zm45,0h44.25s0,42.25,0,42.25h-44.25v-42.25Zm45,0h30.73c4.76-.37,9.49-.66,14.11-.93-.68,9.83-.89,19.72-.59,29.44v13.73h-44.25v-42.25Zm45.59-.97c.57-.03,1.15-.07,1.72-.1,8.65-.5,16.82-.97,25.33-1.89,6.98-.79,13.85-2.14,20.62-3.82-2.23,11.59-3.72,23.35-4.01,35.3v13.73h-44.25v-13.75c-.3-9.74-.09-19.65,.59-29.48Zm44.41,29.5c.3-12.02,1.8-23.85,4.07-35.52,10.59-2.67,20.96-6.13,31.11-9.52,5.21-1.74,10.45-3.49,15.74-5.14-2.01,13.86-3.65,27.81-4.76,41.99-.12,6.69-.41,14.15-.76,21.91h-45.4v-13.72Zm34.94-45.75c-10.03,3.35-20.26,6.76-30.71,9.41,4.21-21.34,10.95-42.12,17.55-62.45,1.72-5.3,3.5-10.78,5.21-16.19,.44-1.43,.92-2.87,1.4-4.3,13.01-7.53,26.33-15.14,39.91-21.81-6.68,30.39-12.86,60-17.25,90.08-5.41,1.68-10.78,3.47-16.1,5.25Zm34.22-95.75c4.51-2.2,9.05-4.3,13.62-6.25,4.08-1.81,8.27-2.94,12.61-3.43-.63,31.08-1.63,61.55-3.03,91.59-13.95,.92-27.39,4.28-40.53,8.33,4.41-30.12,10.62-59.79,17.32-90.25Zm13.32-6.93c-4.4,1.88-8.77,3.89-13.12,6,1.23-5.57,2.47-11.16,3.71-16.79,2.21-9.93,4.47-20.12,6.69-30.4,3.62-1.11,7.26-2.15,10.95-3.1,1.76-.41,3.53-.71,5.29-.92-.12,14.04-.32,27.93-.6,41.71-4.24,.47-8.58,1.57-12.93,3.5Zm8.05-45.02c-3.56,.92-7.09,1.93-10.59,3,.69-3.18,1.37-6.37,2.05-9.56,.43-2.28,.88-4.54,1.32-6.79,.44-2.2,.87-4.38,1.27-6.54,3.83-.8,7.68-1.56,11.55-2.26-.02,7.11-.07,14.18-.13,21.22-1.83,.21-3.66,.52-5.48,.95Zm5.61-22.93c-3.82,.69-7.62,1.44-11.4,2.23,.83-4.47,1.54-8.9,1.95-13.33,3.16-.14,6.31-.24,9.47-.29,0,3.81,0,7.6-.02,11.39Zm-9.33-24.66c-.17-2.02-.43-4.05-.82-6.11-.16-1.05-.33-2.09-.5-3.14,3.57,.48,7.05,.8,10.6,.91,.01,2.81,.03,5.61,.04,8.41-3.11-.02-6.22-.05-9.32-.07Zm-1.44-10.03c-.79-5.03-1.61-10.04-2.47-15.03,4.35,1.11,8.7,1.94,13.1,2.31,.04,4.57,.07,9.13,.09,13.66-3.59-.12-7.11-.45-10.72-.94Zm-2.61-15.84c-1.56-9.03-3.22-18.01-4.95-26.92,.89,.37,1.78,.74,2.68,1.09,5.45,1.98,10.51,3.22,15.22,3.72,.12,8.21,.21,16.36,.28,24.47-4.44-.38-8.83-1.23-13.23-2.36Zm-.8-.21c-5.11-1.35-10.24-3.05-15.45-4.79-1.16-.39-2.32-.77-3.48-1.15-.02-.05-.04-.11-.06-.16-4.18-11.2-8.72-22.48-13.29-33.59,8.95,4.51,18.04,8.81,27.3,12.64,1.74,8.95,3.41,17.98,4.98,27.06Zm-19.85-6.24c-1.13-.37-2.25-.74-3.39-1.09-12.56-4-25.14-8.29-37.51-12.59-4.71-8.73-9.57-17.37-14.34-25.85-4.45-7.9-8.92-15.85-13.27-23.89,7.89,4.13,15.68,8.38,23.41,12.6,10.36,5.65,20.9,11.41,31.64,16.85,4.62,11.23,9.22,22.64,13.46,33.97Zm-55.88-39.17c4.64,8.24,9.36,16.64,13.95,25.12-4.31-1.5-8.6-3-12.85-4.49-21.37-7.48-43.08-15.08-65.1-21.62-3.26-7.8-6.71-15.52-10.14-23.18-4.35-9.73-8.78-19.65-12.79-29.66,25.94,5.94,49.96,16.89,73.11,28.96,4.53,8.37,9.18,16.65,13.81,24.87Zm-74.82-23.86c3.34,7.47,6.71,14.99,9.89,22.59-24.85-7.34-50.11-13.31-75.75-16.23-.07-4.08-.18-8.14-.29-12.13-.1-3.61-.2-7.21-.27-10.76v-19.24c9.23,.54,18.8,1.31,28.11,2.07,3.71,.3,7.39,.6,10.99,.88,4.85,.7,9.62,1.6,14.33,2.66,4.06,10.2,8.56,20.28,12.98,30.16Zm-66.9-5.74c.11,3.96,.22,7.99,.29,12.03-.91-.1-1.81-.21-2.72-.3-14.54-.98-28.36-1.04-42.09-.2v-41.94h37.67c2.16,.1,4.36,.21,6.58,.34v19.29c.07,3.56,.17,7.16,.27,10.78Zm-45.27,11.58c-1.32,.08-2.64,.16-3.95,.26h-40.3v-42.25h44.25s0,41.99,0,41.99Zm-45,.26h-44.25v-42.25h44.25v42.25Zm-45,0h-44.25v-42.25h44.25s0,42.25,0,42.25Zm-45,0h-44.25v-42.25h44.25v42.25Zm-45,0h-44.25v-42.25h44.25s0,42.25,0,42.25Zm-45,0h-44.25v-42.25h44.25v42.25Zm-45,0h-44.25v-42.25h44.25s0,42.25,0,42.25Zm-45,0h-44.25v-42.25h44.25v42.25Zm-45,0h-44.25v-42.25h44.25s0,42.25,0,42.25Zm-45,0h-44.25v-42.25h44.25v42.25Zm0,.75v42.25h-44.25v-42.25h44.25Zm-45,42.25h-44.25v-42.25h44.25s0,42.25,0,42.25Zm0,.75v42.25h-44.25v-42.25h44.25Zm0,43v42.25s-44.25,0-44.25,0v-42.25h44.25Zm0,43v42.25s-44.25,0-44.25,0v-42.25h44.25Zm0,43v42.25h-44.25v-42.25h44.25Zm-.29,86c-.45,9.67-.87,18.8-1.11,26.8-.38,11.59-1.84,23.2-3.78,34.72-3.15,1.24-6.33,2.44-9.51,3.55l-2.24,.38c-5.09,.87-9.49,1.62-14.63,1.62-2.75-.47-5.48-1.06-8.19-1.72-1.07-12.58-2.31-25.34-3.75-38.27-.21-6.67-.32-12.37-.43-18.4-.05-2.82-.11-5.69-.17-8.68h43.81Zm-31.34,67.82c5.27,0,9.7-.75,14.82-1.63l2.3-.39c3.08-1.07,6.15-2.23,9.18-3.41-1.71,10.06-3.78,20.04-5.82,29.87-2.62,12.61-5.27,25.43-7.19,38.42-.47,.14-.93,.28-1.4,.41-5.47,1.56-10.8,2.03-16.04,1.66-.7-21.69-2.01-43.86-3.92-66.6,2.66,.65,5.35,1.22,8.06,1.68Zm21.22,24.59c2.07-9.98,4.17-20.12,5.9-30.34,3.18-1.25,6.33-2.54,9.43-3.8,12.07-4.92,24.47-9.96,37.79-12.6-4.54,23.5-15.12,45.29-25.45,66.56-.9,1.85-1.8,3.71-2.71,5.58-10.4,4.86-21.07,9.37-32.1,12.63,1.91-12.85,4.54-25.55,7.13-38.04Zm24.46,26.47c-5.03,10.42-9.98,21.08-14.06,31.86-6.64,1.09-13.31,1.88-19.98,2.25,.46-7.29,1.27-14.53,2.32-21.72,10.9-3.2,21.44-7.61,31.71-12.38Zm1.07-.5c5.2-2.43,10.33-4.95,15.4-7.44,18.23-8.95,36.95-18.14,57.07-22.44-2.94,13.12-8.24,25.66-13.43,37.92-1.11,2.62-2.24,5.29-3.35,7.97-10.07,2.08-20.09,4.64-29.93,7.16-13.15,3.37-26.55,6.78-40.03,9.04,4.14-10.89,9.18-21.68,14.27-32.21Zm59.74,8.33c5.25-12.39,10.61-25.08,13.54-38.38,5.26-1.09,10.61-1.84,16.07-2.16,6.59-.06,13.2-.11,19.86-.15l4.7-.03h5.95v42.25h-5.97l-.7,.03c-9.04,.33-18.39,.67-31.35,2.15-8.41,.7-16.86,2.07-25.27,3.78,1.05-2.52,2.11-5.03,3.15-7.49Zm60.89-40.71h44.25v42.25h-44.25v-42.25Zm45,0h44.25v42.25h-44.25v-42.25Zm45,0h44.25v42.25h-44.25v-42.25Zm45,0h44.25v42.25h-44.25v-42.25Zm45,0h44.25v42.25h-44.25v-42.25Zm45,0h44.25v42.25h-44.25v-42.25Zm45,0h44.25v42.25h-44.25v-42.25Zm45,0h44.25v42.25h-44.25v-42.25Zm45,0h44.25v42.25h-44.25v-42.25Zm45,0h44.25v42.25h-44.25v-42.25Zm45,0h44.25v42.25h-44.25v-42.25Zm45,0h45.37c-.3,6.61-.65,13.42-.99,20.12l-.13,2.5v19.62h-44.25v-42.25Zm46.16-.75c.35-7.74,.63-15.2,.75-21.87,1.12-14.27,2.77-28.32,4.8-42.28,13.17-4.07,26.65-7.47,40.62-8.4-.75,16.14-1.61,32.17-2.59,48.1-.12,8.9-.2,16.81-.26,24.44h-43.32Zm44.33-24.41c.98-15.96,1.84-32.01,2.59-48.18,7.67-.46,15.48-.18,23.48,1.15,4.13,.72,8.23,1.57,12.3,2.51,1.59,15.39,2.99,30.85,4.09,46.33,.3,8.1,.47,15.47,.64,22.6h-43.37c.07-7.62,.14-15.54,.26-24.41Zm26.2-47.76c-8.03-1.34-15.88-1.63-23.57-1.17,1.39-30.06,2.4-60.53,3.03-91.63,6.79-.64,13.97,.34,21.72,2.95,.65,5.24,1.29,10.46,1.94,15.64,3.12,25.13,6.31,50.79,8.99,76.67-4.01-.92-8.04-1.76-12.1-2.46Zm-20.53-93.54c.27-13.78,.47-27.68,.6-41.72,5.27-.53,10.55-.2,15.81,.74,1.64,14.68,3.4,29.35,5.19,43.8-6.66-2.2-13.98-3.51-21.59-2.81Zm.6-42.48c.06-7.05,.11-14.13,.13-21.25,4.71-.5,9.19-.16,13.52,.56,.23,3.38,.51,6.75,.85,10.13,.4,3.76,.81,7.52,1.23,11.28-5.22-.91-10.48-1.24-15.72-.72Zm.13-22.01c.01-3.75,.02-7.52,.02-11.29,4.29-.06,8.58-.04,12.86,.05,.13,3.93,.32,7.85,.59,11.78-4.3-.7-8.76-1.03-13.47-.54Zm.02-12.05c0-3.88,0-7.77-.02-11.67,4.22,.03,8.43,.07,12.65,.09,.01,3.88,.08,7.76,.2,11.64-4.28-.09-8.56-.11-12.84-.05Zm-.02-12.42c0-2.79-.02-5.59-.04-8.4,.75,.02,1.5,.03,2.26,.03,2.75,0,5.58-.13,8.57-.4,.65-.09,1.3-.19,1.95-.28-.06,3.04-.09,6.08-.09,9.13-4.22-.03-8.44-.06-12.66-.09Zm10.7-9.5c-3.78,.34-7.3,.43-10.74,.35-.02-4.52-.05-9.06-.09-13.61,1.38,.1,2.76,.16,4.15,.16,3.04,0,6.11-.25,9.24-.82-.23,4.54-.39,9.08-.49,13.63-.69,.1-1.37,.2-2.06,.3Zm-10.84-14.02c-.07-8.11-.16-16.26-.28-24.47,1.34,.12,2.66,.19,3.95,.19,4.16,0,8.03-.65,11.66-1.92-.8,8.48-1.45,16.98-1.89,25.51-4.56,.84-9.03,1-13.44,.68Zm-.29-25.22c-.26-17.69-.62-35.65-1.1-53.89,1.37,.1,2.75,.17,4.14,.17,6.41,0,12.99-1.11,19.57-3.29-2.64,18.23-5.14,36.66-6.91,55.22-4.75,1.72-9.96,2.32-15.7,1.79Zm-.75-.08c-4.63-.5-9.59-1.71-14.94-3.66-1.04-.42-2.08-.85-3.12-1.27-2.87-14.75-5.89-29.31-8.87-43.64-1.1-5.27-2.18-10.51-3.26-15.73,4.31,2.19,8.63,4.32,12.96,6.33,5.12,2.24,10.54,3.6,16.13,4.1,.47,18.23,.84,36.18,1.1,53.87Zm-27.67-48.41c2.95,14.16,5.93,28.57,8.77,43.14-9.34-3.89-18.52-8.24-27.56-12.82-1.62-3.94-3.25-7.87-4.85-11.75-7.91-19.11-15.92-38.46-22.83-58.19,4.04,2.2,8.06,4.42,12.07,6.63,10.15,5.6,20.55,11.33,31.03,16.67,1.12,5.41,2.24,10.85,3.38,16.32Zm-24.33,18.86c1.5,3.62,3.01,7.28,4.52,10.95-10.47-5.32-20.74-10.93-30.85-16.45-8.05-4.4-16.17-8.83-24.4-13.12-11.62-21.51-22.35-43.64-29.45-67.08,19.69,6.96,38.56,16.62,57.06,26.68,6.98,20.02,15.1,39.64,23.12,59.01Zm-51.91-19.23c-23.04-11.96-46.97-22.77-72.82-28.62-2.64-6.64-5.08-13.33-7.16-20.02-.97-9.94-1.29-19.26-1.59-28.28,18.25,.44,35.63,4.29,52.42,10.15,7.01,23.34,17.62,45.37,29.15,66.77Zm-82.32-76.92c.3,9.04,.61,18.38,1.61,28.43,2.05,6.59,4.43,13.16,7.01,19.68-4.58-1.01-9.21-1.88-13.91-2.56-3.62-.28-7.3-.58-11.01-.88-9.33-.76-18.91-1.53-28.17-2.07v-42.61c11.6,.04,23.15,.07,34.63,.14,3.31-.17,6.59-.21,9.85-.15,0,0,0,.01,0,.02Zm-45.23,42.55c-2.21-.13-4.4-.24-6.56-.34h-37.69v-42.25h37.92c2.12,0,4.22,.01,6.33,.02v42.57Zm-45-.34h-44.25v-42.25h44.25v42.25Zm-45,0h-44.25v-42.25h44.25v42.25Zm-45,0h-44.25v-42.25h44.25v42.25Zm-45,0h-44.25v-42.25h44.25v42.25Zm-45,0h-44.25v-42.25h44.25v42.25Zm-45,0h-44.25v-42.25h44.25v42.25Zm-45,0h-44.25v-42.25h44.25v42.25Zm-45,0h-44.25v-42.25h44.25v42.25Zm-45,0h-44.25v-42.25h44.25v42.25Zm-45,0h-44.25v-42.25h44.25v42.25Zm-45,0h-44.25v-42.25h44.25v42.25Zm0,.75v42.25s-44.25,0-44.25,0v-42.25h44.25Zm-45,42.25h-44.25v-42.25h44.25v42.25Zm0,.75v42.25h-44.25v-42.25h44.25Zm0,43v42.25h-44.25v-42.25h44.25Zm0,43v42.25h-44.25v-42.25h44.25Zm0,43v42.25h-44.25v-42.25h44.25Zm0,43v42.25h-44.25v-42.25h44.25Zm0,43v36.84c.05,1.88,.09,3.66,.13,5.41h-44.38v-42.25h44.25Zm-26.06,98.65c9.9,3.78,20.06,7.66,30.61,10.29,1.92,22.79,3.23,45.01,3.94,66.74-7.33-.63-14.48-2.88-21.6-6.05-2.59-7.08-5.28-14.06-7.95-20.95-7.19-18.55-14.09-36.43-18.53-55.08,4.49,1.59,8.99,3.31,13.54,5.05Zm34.57,77.79c.21,6.53,.37,13.01,.46,19.45-4.63-.34-9.27-.81-13.89-1.4-2.33-8.1-5.01-16.06-7.85-23.88,7,3.06,14.05,5.22,21.28,5.83Zm.75,.06c1.1,.08,2.21,.12,3.32,.12,4.22,0,8.51-.56,12.89-1.81,.36-.1,.72-.21,1.07-.31-1.03,7.12-1.83,14.3-2.28,21.52-4.29,.21-8.58,.25-12.87,.06-.56-.03-1.12-.08-1.68-.12-.1-6.44-.25-12.92-.46-19.44Zm15.72,20.23c6.58-.35,13.16-1.13,19.71-2.19-.22,.59-.45,1.17-.67,1.76-1.91,4.79-2.72,9.81-2.3,14.16-5.67-.06-11.37-.11-17.1-.14-.05-4.55,.09-9.08,.36-13.59Zm19.75-.16c.26-.72,.55-1.45,.82-2.17,13.66-2.26,27.22-5.72,40.53-9.13,9.67-2.47,19.51-4.99,29.4-7.05-.83,2.03-1.66,4.06-2.46,6.09-3.62,9.94-5.16,18.85-4.73,27.54-21.33-.63-43.32-1.12-65.82-1.38-.4-4.21,.4-9.25,2.26-13.9Zm69-11.99c.85-2.18,1.74-4.36,2.64-6.54,8.55-1.75,17.14-3.15,25.69-3.87,12.94-1.48,22.28-1.82,31.31-2.15l.69-.03h5.95v42.21c-2.36,0-4.72-.02-7.08-.03-20.46-.85-41.82-1.65-63.87-2.31-.43-8.6,1.09-17.43,4.68-27.3Zm67.03-12.58h44.25v42.25h-26.17c-5.84,0-11.93-.01-18.08-.03v-42.22Zm45,0h44.25v42.25h-44.25v-42.25Zm45,0h44.25v42.25h-44.25v-42.25Zm45,0h44.25v42.25h-44.25v-42.25Zm45,0h44.25v42.25h-44.25v-42.25Zm45,0h44.25v42.25h-44.25v-42.25Zm45,0h44.25v42.25h-44.25v-42.25Zm45,0h44.25v42.25h-44.25v-42.25Zm45,0h44.25v42.25h-44.25v-42.25Zm45,0h44.25v42.25h-44.25v-42.25Zm45,0h44.25v42.25h-44.25v-42.25Zm45,0h44.25v42.25h-44.25v-42.25Zm45,0h44.25v42.25h-44.25v-42.25Zm45,0h44.25v42.25h-44.25v-42.25Zm0-.75v-19.62c.09-7.65,.15-14.52,.21-21.35,0-.43,0-.86,.01-1.28h43.39c.17,7.12,.34,14.48,.63,22.63v19.62h-44.25Zm44.37-42.25h44.88v42.25h-44.25v-19.64c-.29-8.15-.47-15.5-.63-22.61Zm.44-155.88c-4.66-2.62-10.18-5.42-16.27-7.51-1.79-14.49-3.56-29.2-5.2-43.92,6.58,1.24,13.11,3.38,19.5,5.91,4.87,18.15,10.38,35.96,15.81,53.44-4.6-2.68-9.23-5.35-13.84-7.92Zm-21.56-52.21c-.43-3.83-.85-7.67-1.25-11.5-.33-3.31-.6-6.62-.83-9.93,3.54,.62,6.98,1.48,10.37,2.33,1.76,.45,3.51,.93,5.27,1.39,1.78,7.89,3.72,15.73,5.8,23.5-6.34-2.48-12.82-4.58-19.34-5.79Zm8.46-19.83c-3.46-.87-6.98-1.74-10.6-2.37-.27-3.96-.46-7.93-.59-11.89,4.33,.1,8.65,.28,12.97,.51,.96,5.04,2.01,10.05,3.12,15.04-1.63-.43-3.26-.87-4.9-1.29Zm-11.42-27.41c0-3.08,.03-6.16,.09-9.24,3.98-.56,7.96-1.14,11.93-1.75-.57,3.62-.87,7.3-.75,11.05-3.76-.02-7.52-.04-11.27-.06Zm.11-10c.1-4.56,.27-9.12,.5-13.67,1.6-.31,3.21-.7,4.84-1.19,3.61-1.1,7.21-2.25,10.81-3.4-1.6,5.39-3.17,10.88-4.11,16.5-4.01,.62-8.02,1.21-12.04,1.77Zm5.11-15.58c-1.54,.46-3.06,.84-4.58,1.14,.45-8.57,1.1-17.12,1.91-25.64,.64-.24,1.28-.5,1.91-.79,7.17-2.87,14.27-5.99,21.3-9.23-1.96,6.24-3.91,12.52-5.81,18.8-.95,3.79-2.08,7.58-3.18,11.25-.09,.31-.18,.62-.28,.92-3.76,1.21-7.52,2.41-11.29,3.56Zm12.29-4.27c1.1-3.68,2.23-7.48,3.18-11.26,1.96-6.48,3.98-12.97,6-19.42,12.87-5.97,25.52-12.4,37.92-18.83-7.88,13.47-15.84,27.14-21.4,41.2-8.55,3-17.17,5.94-25.84,8.74,.04-.14,.08-.28,.13-.43Zm9.49-31.65c1.7-5.4,3.4-10.77,5.07-16.06,5.06-15.97,10.04-31.68,14.62-47.32,4.1-2.31,8.16-4.62,12.17-6.92,13-7.43,26.25-14.99,39.96-21.66-1.7,4.64-3.46,9.25-5.21,13.83-1.54,4.02-3.12,8.18-4.64,12.28-5.66,15.97-14.78,31.62-23.65,46.77-12.54,6.5-25.32,13.02-38.33,19.08Zm4.36-16.28c-1.74,5.5-3.51,11.08-5.28,16.71-7.23,3.35-14.53,6.56-21.9,9.51-.51,.23-1.02,.44-1.54,.64,1.79-18.54,4.29-36.97,6.93-55.2,2.98-1.03,5.97-2.29,8.93-3.77,9.24-4.5,18.34-9.45,27.26-14.46-4.52,15.39-9.42,30.85-14.4,46.56Zm-13.19-32.77c-2.81,1.41-5.64,2.59-8.47,3.59,.7-4.84,1.41-9.66,2.12-14.47,3.97-26.98,8.04-54.63,10.25-82.46,14.43-1.05,28.78-3.07,43.04-6.31-3.85,28.78-10.81,56.7-19.05,84.84-9.13,5.14-18.44,10.21-27.89,14.82Zm-7.09-10.99c-.73,4.94-1.46,9.9-2.18,14.87-8.05,2.73-16.11,3.79-23.84,3.2-.84-32.32-2.03-65.53-3.55-99.83,5.16,.2,10.3,.3,15.44,.3,8.15,0,16.28-.27,24.37-.84-2.21,27.77-6.27,55.37-10.24,82.3Zm-26.77,18.01c-5.48-.5-10.79-1.82-15.81-4.02-4.49-2.09-8.98-4.31-13.46-6.59-6.43-31.22-12.33-61.57-16.14-92.68,14.02,1.69,27.98,2.92,41.86,3.48,1.53,34.29,2.71,67.5,3.55,99.8Zm-30.13-11.04c-10.28-5.26-20.49-10.88-30.47-16.39-4.25-2.34-8.51-4.69-12.79-7.03-8.55-24.55-15.35-49.7-18.13-75.71,15.19,2.62,30.31,4.96,45.34,6.79,3.79,31.02,9.65,61.25,16.05,92.33Zm-44.24-23.94c-18.46-10.03-37.3-19.63-56.97-26.52-4.55-15.25-7.56-31.06-8.26-47.61v-5h25.89c7.15,1.31,14.29,2.59,21.41,3.82,2.74,25.87,9.46,50.89,17.92,75.31Zm-57.84-26.83c-16.71-5.78-34.01-9.58-52.17-10.01-.07-1.96-.13-3.92-.2-5.85v-36.44h44.25s0,5.02,0,5.02c.69,16.44,3.64,32.14,8.13,47.28Zm-52.92-10.03c-3.25-.06-6.53-.02-9.84,.15-11.47-.07-23.02-.11-34.62-.14v-42.27h44.25v36.46c.07,1.93,.14,3.87,.2,5.81Zm-45.2,0c-2.11,0-4.21-.01-6.33-.02h-37.92v-42.25h44.25v42.27Zm-45-.02h-44.25v-42.25h44.25v42.25Zm-45,0h-44.25v-42.25h44.25v42.25Zm-45,0h-44.25v-42.25h44.25v42.25Zm-45,0h-44.25v-42.25h44.25v42.25Zm-45,0h-44.25v-42.25h44.25v42.25Zm-45,0h-44.25v-42.25h44.25v42.25Zm-45,0h-44.25v-42.25h44.25v42.25Zm-45,0h-44.25v-42.25h44.25v42.25Zm-45,0h-44.25v-42.25h44.25v42.25Zm-45,0h-44.25v-42.25h44.25v42.25Zm-45,0h-44.25v-42.25h44.25v42.25Zm-45,0h-44.25v-42.25h44.25v42.25Zm0,.75v42.25h-44.25v-42.25h44.25Zm-45,42.25h-44.25v-42.25h44.25v42.25Zm0,.75v42.25s-44.25,0-44.25,0v-42.25h44.25Zm0,43v42.25h-44.25v-42.25h44.25Zm0,43v42.25s-44.25,0-44.25,0v-42.25h44.25Zm0,43v42.25s-44.25,0-44.25,0v-42.25h44.25Zm0,43v42.25h-44.25v-42.25h44.25Zm0,43v42.25s-44.25,0-44.25,0v-42.25h44.25Zm0,43v42.25s-44.25,0-44.25,0v-42.25h44.25Zm0,43v20.15c.6,10.11,2.16,19.81,4.35,29.3-15.06-5.23-30.67-9.12-47.39-7.2h-1.21v-42.25h44.25Zm-28.74,95.8c12.02,3.89,23.71,10.89,35.01,17.66,8.45,5.06,16.71,10.01,25.02,13.74,2.89,7.93,5.63,15.99,8,24.2-15.22-1.98-30.35-5.13-45.21-8.45-3.68-8.58-9.08-16.95-14.61-25.52-4.94-7.64-9.97-15.43-13.77-23.56,1.84,.62,3.69,1.26,5.56,1.95Zm68.26,56.37c.88,3.09,1.72,6.19,2.49,9.32,.25,1.99,.24,3.92,.07,5.81-14.36,.06-28.88,.23-43.52,.54,.84-8.41-.91-16.32-4.11-24.05,14.81,3.31,29.89,6.43,45.07,8.39Zm3.22,9.18c-.75-3.05-1.57-6.07-2.43-9.08,4.55,.57,9.11,1.04,13.67,1.37,.07,4.57,.1,9.1,.11,13.63-3.75,0-7.51,0-11.27,.02,.17-1.92,.17-3.9-.08-5.94Zm11.36,6.67c0,3.31,0,6.6-.02,9.89-.26,.06-.53,.1-.79,.17-4.72,1.18-9.41,2.48-14.06,3.85,.24-.78,.46-1.55,.71-2.33,1.16-3.72,2.35-7.52,2.81-11.55,3.8-.01,7.58-.02,11.36-.02Zm.75,0c4.7,0,9.38,.02,14.04,.04,.02,1.46,.05,2.93,.11,4.39,.1,2.11,.23,4.22,.39,6.33-.98-.24-1.95-.49-2.93-.72-3.57-.89-7.89-1-11.64-.33,.02-3.23,.03-6.47,.02-9.73Zm14.9,4.4c-.06-1.45-.09-2.91-.11-4.36,5.75,.03,11.48,.08,17.17,.15,.06,.45,.12,.91,.2,1.34,1.74,5.38,3.73,10.62,5.83,15.76-7.45-2.3-15.01-4.45-22.69-6.34-.17-2.18-.31-4.37-.41-6.55Zm17.99-3.06c-.07-.37-.12-.76-.17-1.14,22.48,.26,44.45,.75,65.76,1.38,.12,1.98,.35,3.95,.68,5.92,2.49,10.39,7.09,20,11.54,29.3,.55,1.16,1.1,2.31,1.65,3.46-16.62-3.86-32.71-9.25-49.43-14.85-7.86-2.63-15.86-5.3-23.98-7.83-2.19-5.3-4.24-10.7-6.04-16.24Zm78.48,35.14c-4.43-9.26-9.01-18.84-11.48-29.13-.32-1.91-.54-3.83-.66-5.75,22.03,.66,43.37,1.46,63.81,2.3,2.37,0,4.74,.02,7.1,.03v42.29h-5.94c-1.29-.05-2.57-.09-3.85-.14-7.85-.27-15.26-.53-24.74-1.61-7.62-.96-15.03-2.34-22.34-4.01-.63-1.32-1.26-2.65-1.9-3.99Zm59.52-32.54c6.15,.02,12.24,.03,18.08,.03h26.17v42.25h-44.25v-42.28Zm45,.03h44.25v42.25h-44.25v-42.25Zm45,0h44.25v42.25h-44.25v-42.25Zm45,0h44.25v42.25h-44.25v-42.25Zm45,0h44.25v42.25h-44.25v-42.25Zm45,0h44.25v42.25h-44.25v-42.25Zm45,0h44.25v42.25h-44.25v-42.25Zm45,0h44.25v42.25h-44.25v-42.25Zm45,0h44.25v42.25h-44.25v-42.25Zm45,0h44.25v42.25h-44.25v-42.25Zm45,0h44.25v42.25h-44.25v-42.25Zm45,0h44.25v42.25h-44.25v-42.25Zm45,0h44.25v42.25h-44.25v-42.25Zm45,0h44.25v42.25h-44.25v-42.25Zm45,0h44.25v42.25h-44.25v-42.25Zm0-.75v-42.25h44.25v42.25h-44.25Zm45-42.25h44.25v42.25h-44.25v-42.25Zm0-.75v-42.25s44.25,0,44.25,0v42.25h-44.25Zm-5.95-99.71c-5.98-30.42-15.14-59.99-24.11-88.89,4.92,2.88,9.81,5.79,14.62,8.65,11.32,6.73,22.75,13.52,34.4,19.87,10.4,23.67,19.07,47.32,23.01,72.41-16.1-2.42-31.79-7.03-47.92-12.05Zm-9.11-80.88c-5.04-3-10.17-6.04-15.34-9.06-5.45-17.56-11-35.44-15.9-53.65,2.27,.91,4.52,1.86,6.75,2.84,9.27,4.41,18.61,9.13,27.81,13.86,4.97,11.35,10.24,22.51,15.45,33.52,5,10.58,9.93,21.02,14.55,31.45-9.94-5.36-20.98-11.62-33.33-18.95Zm-24.17-60.56c-2.41-1.06-4.85-2.09-7.31-3.06-2.09-7.81-4.06-15.69-5.85-23.62,9.22,2.46,18.38,5.08,27.45,7.79,3.77,10.99,8.12,21.76,12.74,32.36-8.95-4.59-18.02-9.17-27.03-13.46Zm-13.34-27.51c-1.13-5.05-2.19-10.12-3.16-15.22,8.09,.46,16.16,1.13,24.21,1.98,1.82,7.09,3.94,14.08,6.3,20.99-9.04-2.7-18.16-5.3-27.34-7.75Zm-3.31-15.98c-.39-2.07-.77-4.15-1.13-6.23-.35-2-.55-3.96-.65-5.9,7.93,.03,15.86,.06,23.81,.06,.24,4.61,.91,9.27,2.11,13.99,0,.01,0,.02,0,.03-8.03-.84-16.08-1.51-24.15-1.96Zm-1.82-12.88c-.13-3.8,.17-7.51,.76-11.17,8.01-1.23,15.99-2.56,23.93-3.95-.77,5-1.1,10.06-.89,15.18-7.94,0-15.88-.03-23.81-.06Zm.89-11.95c.96-5.56,2.55-11.05,4.22-16.66,8.63-2.79,17.21-5.71,25.73-8.69-2.73,7.03-4.83,14.16-6.02,21.4-7.94,1.39-15.92,2.71-23.93,3.95Zm30.9-25.68c9.91-3.48,19.72-7.03,29.39-10.53,10.86-3.94,21.81-7.9,32.86-11.74-5.75,10.13-11.02,20.57-15.06,31.49-.31,.85-.58,1.7-.86,2.55-.94,.18-1.89,.36-2.83,.54-16.29,3.14-32.9,6.34-49.68,9.28,1.22-7.31,3.39-14.5,6.18-21.6Zm29.13-11.24c-9.46,3.43-19.07,6.9-28.77,10.31,5.62-14.04,13.62-27.71,21.5-41.17,.07-.12,.14-.23,.2-.35,1.93-1,3.86-2,5.77-2.99,21.76-11.3,43.99-22.85,67.3-32.16-5.74,10.9-12.25,21.39-18.67,31.72-4.6,7.41-9.26,14.92-13.67,22.62-11.32,3.93-22.55,7.99-33.68,12.03Zm-1.63-34.86c-1.57,.81-3.14,1.63-4.72,2.45,8.7-14.86,17.55-30.2,23.11-45.87,1.51-4.09,3.1-8.24,4.63-12.27,1.84-4.82,3.69-9.68,5.48-14.57,11.02-5.32,22.35-10.05,34.1-13.66,8.52-2.09,16.35-3.51,23.51-4.52-.55,4.21-1.26,8.5-2.18,12.88-2.9,15.32-8.71,29.51-15.76,43.05-23.63,9.38-46.14,21.07-68.17,32.51Zm86.22-89.21c-7.24,1.01-15.18,2.44-23.81,4.57-11.56,3.55-22.7,8.18-33.54,13.38,6.48-17.82,12.05-36.15,13.03-55.13-.12-2.3-.19-4.68-.22-7.09,8.36-.39,17.14-.56,26.55-.51h19.44v5.01c.36,12.37,.37,25.59-1.44,39.77Zm-45.07-37.18c-.98,19.1-6.68,37.6-13.25,55.59-13.98,6.77-27.47,14.47-40.7,22.03-3.79,2.17-7.63,4.36-11.5,6.54,8.18-28.02,15.08-55.82,18.89-84.5,5.02-1.16,10.02-2.46,15.01-3.93,10.04-1.34,20.31-2.25,31.32-2.79,.04,2.4,.1,4.76,.23,7.06Zm-31.7-5c-4.91,1.45-9.82,2.72-14.75,3.86,1.17-8.93,2.05-17.94,2.56-27.07,.23-5.37,.42-10.53,.61-15.57,.08-2.3,.17-4.56,.25-6.82h44.27c-.14,3.26-.31,6.62-.49,10.12-.56,10.97-1.12,22.23-.99,32.68-11.04,.53-21.36,1.46-31.46,2.81Zm-12.33-38.81c-.19,5.03-.38,10.19-.61,15.56-.52,9.21-1.41,18.29-2.59,27.29-14.28,3.26-28.64,5.31-43.09,6.36,.78-9.9,1.32-19.83,1.53-29.75,.1-7.79,.43-17.04,.78-26.25h44.23c-.09,2.24-.17,4.5-.25,6.79Zm-45.51,19.45c-.21,9.94-.76,19.89-1.54,29.81-13.23,.93-26.54,1.05-39.91,.53-.44-9.89-.91-19.85-1.4-29.92-.08-6.33-.13-11.95-.18-17.46-.03-3.07-.06-6.11-.09-9.2h43.9c-.35,9.21-.68,18.45-.78,26.24Zm-43.78-17.03c.05,5.51,.1,11.14,.18,17.48,.5,10.05,.96,20,1.4,29.87-13.9-.56-27.87-1.78-41.92-3.48-1.15-9.52-2.12-19.1-2.84-28.81,.16-6.31-.33-15.32-.84-24.26h43.93c.03,3.1,.06,6.14,.09,9.21Zm-43.92,15.07c.71,9.68,1.67,19.23,2.82,28.7-15.03-1.83-30.14-4.19-45.33-6.8-.79-7.66-1.25-15.39-1.28-23.21-.5-7.7-1-15.61-1.39-22.97h44.33c.52,8.94,1,17.96,.85,24.28Zm-44.54-1.28c.03,7.76,.48,15.44,1.26,23.05-7.07-1.22-14.16-2.5-21.26-3.8h-25.96v-42.25h44.58c.38,7.39,.89,15.3,1.39,23Zm-46.71,19.25h-44.25v-42.25h44.25v42.25Zm-45,0h-44.25v-42.25h44.25v42.25Zm-45,0h-44.25v-42.25h44.25v42.25Zm-45,0h-44.25v-42.25h44.25v42.25Zm-45,0h-44.25v-42.25h44.25v42.25Zm-45,0h-44.25v-42.25h44.25v42.25Zm-45,0h-44.25v-42.25h44.25v42.25Zm-45,0h-44.25v-42.25h44.25v42.25Zm-45,0h-44.25v-42.25h44.25v42.25Zm-45,0h-44.25v-42.25h44.25v42.25Zm-45,0h-44.25v-42.25h44.25v42.25Zm-45,0h-44.25v-42.25h44.25v42.25Zm-45,0h-44.25v-42.25h44.25v42.25Zm-45,0h-44.25v-42.25h44.25v42.25Zm-45,0h-44.25v-42.25h44.25v42.25Zm-45,0h-44.25v-42.25h44.25v42.25Zm0,.75v42.25s-44.25,0-44.25,0v-42.25h44.25Zm-45,42.25h-44.25v-42.25h44.25v42.25Zm0,.75v42.25s-44.25,0-44.25,0v-42.25h44.25Zm0,43v42.25s-44.25,0-44.25,0v-42.25h44.25Zm0,43v42.25s-44.25,0-44.25,0v-42.25h44.25Zm0,43v42.25s-44.25,0-44.25,0v-42.25h44.25Zm0,43v42.25s-44.25,0-44.25,0v-42.25h44.25Zm0,43v42.25s-44.25,0-44.25,0v-42.25h44.25Zm0,43v42.25s-44.25,0-44.25,0v-42.25h44.25Zm0,43v42.25s-44.25,0-44.25,0v-42.25h44.25Zm0,43v42.25s-44.25,0-44.25,0v-42.25h44.25Zm0,43v3.08c.59,9.24,1.34,18.39,3.99,28.66,.82,6.18,2.75,12.1,5.31,17.86-18.09-5.89-34.71-8.3-50.6-7.35h-2.96v-42.25h44.25Zm-41.27,43c16-.96,32.74,1.51,51,7.53,3.86,8.4,9.03,16.43,14.11,24.29,5.41,8.37,10.68,16.55,14.33,24.91-3.13-.7-6.25-1.41-9.36-2.11-22.74-5.16-46.25-10.5-70.11-12.37h-2.96v-42.25h2.98Zm-.05,43c23.77,1.86,47.26,7.2,69.97,12.35,3.28,.75,6.58,1.49,9.89,2.23,3.29,7.81,5.11,15.8,4.25,24.27-26.3,.57-52.97,1.58-79.81,3.18-2.25,0-4.7,.01-7.24,.03v-42.06h2.93Zm4.33,42.79c26.8-1.59,53.44-2.61,79.71-3.18-.42,3.47-1.28,7.03-2.69,10.69-2.95,6.96-6.49,13.81-10.15,20.54-23.4,7.64-46.39,13.81-71.17,14.41h-2.96v-42.44c2.55-.02,5-.03,7.26-.03Zm77.72,7.79c1.45-3.77,2.33-7.42,2.75-10.99,14.64-.31,29.15-.48,43.51-.54-.46,3.93-1.63,7.66-2.77,11.32-.3,.95-.58,1.88-.86,2.81-11.54,3.42-22.87,7.29-33.92,11.07-6.23,2.13-12.39,4.23-18.51,6.25,3.54-6.52,6.94-13.17,9.81-19.92Zm8.95,14.39c10.9-3.73,22.06-7.54,33.43-10.92-.03,.09-.05,.18-.08,.27-3.3,8.8-6.91,17.72-10.4,26.34-1.76,4.36-3.53,8.73-5.28,13.14-4.51,2.52-8.95,5.14-13.34,7.73-15.51,9.14-31.45,18.52-49.23,23.11,4.64-15.53,12.62-29.82,20.44-43.81,1.73-3.09,3.47-6.21,5.18-9.36,6.38-2.09,12.79-4.27,19.28-6.5Zm23.64,15.97c3.49-8.62,7.1-17.54,10.42-26.39,.07-.25,.16-.51,.23-.76,4.8-1.42,9.63-2.76,14.5-3.98,.2-.05,.4-.08,.6-.13-.08,10.14-.3,20.18-.67,30.12-.38,.09-.76,.18-1.15,.29-10.06,3.26-19.62,7.98-28.88,13.13,1.64-4.11,3.29-8.21,4.94-12.28Zm26.5-31.41c3.68-.68,7.95-.59,11.47,.29,1.06,.25,2.11,.52,3.16,.77,.79,10.06,2.24,20.08,4.01,30.01-6.21-1.86-12.62-2.46-19.3-.98,.36-9.93,.58-19.96,.66-30.1Zm15.4,1.25c7.79,1.92,15.45,4.12,23,6.46,4.47,10.8,9.53,21.14,14.49,31.25,2.56,5.21,5.14,10.48,7.65,15.82-4.41-2.55-8.8-5.45-13.1-8.28-9.06-5.98-18.29-12.08-27.99-15.17-1.78-9.95-3.25-20-4.05-30.08Zm38.17,37.38c-4.87-9.92-9.84-20.07-14.24-30.63,7.92,2.47,15.71,5.07,23.38,7.64,16.94,5.67,33.23,11.12,50.08,15,5.65,11.97,10.55,23.59,10.71,36.93,.03,3.17,.17,6.37,.35,9.56-21.16-2.59-40.85-11.27-58.12-19.53-1.35-.67-2.7-1.4-4.05-2.17-2.65-5.68-5.39-11.27-8.11-16.8Zm70.68,28.92c-.16-13.3-4.95-24.86-10.53-36.72,7.15,1.62,14.4,2.96,21.85,3.9,9.52,1.08,16.94,1.34,24.81,1.61,1.28,.04,2.56,.09,3.87,.14h5.95v42.25h-5.93c-8.65-.43-17.06-.65-25.19-.86h-.29c-4.79,.12-9.51-.12-14.17-.66-.19-3.22-.33-6.45-.36-9.65Zm46.68-31.07h44.25v42.25h-44.25v-42.25Zm45,0h44.25v42.25h-44.25v-42.25Zm45,0h44.25v42.25h-44.25v-42.25Zm45,0h44.25v42.25h-44.25v-42.25Zm45,0h44.25v42.25h-44.25v-42.25Zm45,0h44.25v42.25h-44.25v-42.25Zm45,0h44.25v42.25h-44.25v-42.25Zm45,0h44.25v42.25h-44.25v-42.25Zm45,0h44.25v42.25h-44.25v-42.25Zm45,0h44.25v42.25h-44.25v-42.25Zm45,0h44.25v42.25h-44.25v-42.25Zm45,0h44.25v42.25h-44.25v-42.25Zm45,0h44.25v42.25h-44.25v-42.25Zm45,0h44.25v42.25h-44.25v-42.25Zm45,0h44.25v42.25h-44.25v-42.25Zm45,0h44.25v42.25h-44.25v-42.25Zm0-.75v-42.25s44.25,0,44.25,0v42.25h-44.25Zm45-42.25h44.25v42.25h-44.25v-42.25Zm0-.75v-42.25h44.25v42.25h-44.25Zm0-43v-42.25h44.25v42.25h-44.25Zm0-43v-13.73c.13-10.3-.65-20.28-2.13-30.04,8.81,1.27,17.74,1.88,26.95,1.52h19.44v42.25h-44.25Zm-25.65-118.06c-4.73-10.73-9.8-21.47-14.95-32.35-5.07-10.73-10.21-21.61-15.07-32.66,3.14,1.62,6.27,3.23,9.37,4.83,20.41,10.55,41.12,21.24,62.48,30.02,9.22,16.19,17.5,33.11,22.13,51.6,.49,2.16,.94,4.28,1.35,6.36-15.09-3.83-35.01-11.55-65.31-27.81Zm-20.31-60.85c-3.37-1.74-6.77-3.49-10.18-5.25-4.68-10.69-9.09-21.55-12.91-32.63,12.52,3.75,24.88,7.65,37.02,11.49,6.1,1.93,12.15,3.84,18.17,5.72,5.57,10.52,11.73,20.71,17.77,30.67,3.92,6.46,7.87,12.98,11.67,19.62-21.02-8.7-41.42-19.23-61.52-29.62Zm14.14-27.1c-12.3-3.89-24.84-7.85-37.53-11.65-2.38-6.97-4.53-14.02-6.38-21.16,16.34,1.73,32.6,4.12,48.7,6.71,1.24,5.58,3.01,11.09,5.31,16.45,2.25,5.13,4.74,10.17,7.35,15.15-5.78-1.81-11.59-3.64-17.45-5.5Zm-44.12-33.59c-.03-.1-.06-.2-.08-.31-1.19-4.65-1.85-9.25-2.09-13.81,1,0,2,0,3.01,0,15.29,0,30.6-.07,45.92-.2-.16,7.03,.51,14.08,1.99,21.01-16.12-2.59-32.39-4.98-48.75-6.7Zm-2.2-14.86c-.22-5.17,.12-10.27,.92-15.32,16.87-2.96,33.57-6.17,49.94-9.33,.8-.15,1.61-.31,2.41-.46-2.6,8.13-4.02,16.5-4.28,24.91-16.35,.15-32.68,.21-48.99,.2Zm54.12-25.28c31.04-5.99,62.87-12.04,95.01-16.03-3.31,12.8-5.96,25.84-6.54,39.18-30.93,1.04-61.91,1.64-92.85,1.92,.26-8.46,1.72-16.89,4.38-25.06Zm.28-.82c.24-.71,.46-1.42,.72-2.13,4.12-11.15,9.53-21.8,15.43-32.13,29.53-10.24,59.73-19.53,90.7-24.87-2,8.17-4.33,16.23-6.62,24.17-1.81,6.26-3.63,12.58-5.3,18.96-32.13,3.97-63.93,10.02-94.94,16Zm16.72-35.25c4.27-7.42,8.77-14.68,13.22-21.84,6.58-10.59,13.25-21.34,19.09-32.53,13.5-5.35,27.36-9.95,41.71-13.31,8.77-1.37,16.22-2.06,22.5-2.41-.23,5.76-.74,11.46-1.25,17.05-.85,9.57-2.68,19.04-4.94,28.38-30.87,5.29-60.93,14.5-90.32,24.67Zm96.02-52.98c.51-5.63,1.03-11.36,1.26-17.16,6.08-.32,11.05-.32,15.02-.32h28.97v42.28c-2.23,.2-15.39,1.27-30.68,.63-6.52,.72-13.01,1.64-19.46,2.73,2.24-9.26,4.04-18.66,4.89-28.17Zm45.25-18.23h-28.97c-3.97,0-8.93,0-15,.32,.18-5.11,.14-10.28-.35-15.47,.03-9.25,.04-18.28,.06-27.1h44.26v42.25Zm0-43h-44.26c0-1.94,0-3.89,0-5.81v-36.44h44.25v42.25Zm0-43h-44.25v-42.25h44.25v42.25Zm-45,0h-44.25v-42.25h44.25v42.25Zm-45,0h-19.44c-9.43-.04-18.21,.12-26.57,.51-.13-10.43,.43-21.66,.99-32.61,.18-3.5,.35-6.88,.49-10.15h44.52v42.25Zm-44.48-43c.09-2.13,.18-4.23,.23-6.26V43.75h44.25v42.25h-44.48Zm-.52-6.27c-.06,2.03-.14,4.13-.24,6.27h-44.27c.08-2.09,.16-4.18,.25-6.26V43.75h44.25v35.98Zm-45,0c-.09,2.08-.17,4.17-.25,6.28h-44.23c.05-1.23,.09-2.46,.14-3.69l.1-2.57V43.75h44.25v35.97Zm-45,0l-.1,2.56c-.05,1.23-.09,2.47-.14,3.72h-43.94c-.02-2.05-.04-4.12-.07-6.26V43.75h44.25v35.98Zm-44.93,6.27h-43.96c-.03-.45-.05-.9-.08-1.36l-.28-4.9V43.75h44.25v36c.03,2.14,.05,4.21,.07,6.25Zm-45.07-6.24l.28,4.93c.03,.44,.05,.87,.08,1.31h-44.32c-.11-2.14-.21-4.24-.29-6.26V43.75h44.25v36.01Zm-44.71,6.24h-44.54V43.75h44.25v36.01c.08,2.02,.18,4.11,.29,6.24Zm-45.29,0h-44.25V43.75h44.25v42.25Zm-45,0h-44.25V43.75h44.25v42.25Zm-45,0h-44.25V43.75h44.25v42.25Zm-45,0h-44.25V43.75h44.25v42.25Zm-45,0h-44.25V43.75h44.25v42.25Zm-45,0h-44.25V43.75h44.25v42.25Zm-45,0h-44.25V43.75h44.25v42.25Zm-45,0h-44.25V43.75h44.25v42.25Zm-45,0h-44.25V43.75h44.25v42.25Zm-45,0h-44.25V43.75h44.25v42.25Zm-45,0h-44.25V43.75h44.25v42.25Zm-45,0h-44.25V43.75h44.25v42.25Zm-45,0h-44.25V43.75h44.25v42.25Zm-45,0h-44.25V43.75h44.25v42.25Zm-45,0h-44.25V43.75h44.25v42.25Zm-45,0h-44.25V43.75h44.25v42.25Zm-45,0h-44.25V43.75h44.25v42.25Zm0,.75v42.25s-44.25,0-44.25,0v-42.25h44.25Zm-45,42.25H45.75v-42.25h44.25v42.25Zm0,.75v42.25H45.75v-42.25h44.25Zm0,43v42.25H45.75v-42.25h44.25Zm0,43v42.25H45.75v-42.25h44.25Zm0,43v42.25H45.75v-42.25h44.25Zm0,43v42.25H45.75v-42.25h44.25Zm0,43v42.25H45.75v-42.25h44.25Zm0,43v42.25H45.75v-42.25h44.25Zm0,43v42.25H45.75v-42.25h44.25Zm0,43v42.25H45.75v-42.25h44.25Zm0,43v42.25H45.75v-42.25h44.25Zm0,43v42.25H45.75v-42.25h44.25Zm0,43v42.25H45.75v-42.25h44.25Zm0,43v42.07c-3.31,.02-6.76,.05-10.15,.08-4.76,.04-9.39,.08-13.31,.1h-20.79v-42.25h44.25Zm-23.46,43c3.92-.01,8.56-.06,13.32-.1,3.39-.03,6.84-.06,10.14-.08v42.43H45.75v-42.25h20.79Zm23.46,43v42.25H45.75v-42.25h44.25Zm.75,0h2.97c24.62-.6,47.44-6.66,70.64-14.2-1.59,2.91-3.2,5.8-4.8,8.65-7.92,14.16-16.01,28.63-20.64,44.4-4.15,1.03-8.41,1.8-12.79,2.24-5.28,.06-10.78,.33-16.1,.6-5.81,.29-11.3,.56-16.32,.56h-2.96v-42.25Zm2.96,43c5.04,0,10.54-.27,16.35-.56,5.31-.26,10.81-.54,16.11-.6,4.28-.43,8.45-1.18,12.51-2.17-2.29,8.04-3.68,16.41-3.68,25.25v20.33h-44.25v-42.25h2.96Zm42.04,21.92c0-8.91,1.43-17.35,3.77-25.46,18.07-4.57,34.18-14.06,49.86-23.3,4.12-2.43,8.29-4.89,12.52-7.27-9.61,24.27-18.44,49.34-21.27,76.02-7.1,.44-14.17,.61-21.25,.33h-23.64v-20.33Zm67.19-56.61c9.47-5.3,19.25-10.17,29.54-13.51,.3-.08,.6-.15,.9-.23-1.08,29.19-3.38,57.54-6.9,85.22-1.06,.08-2.12,.17-3.16,.27l-2.28,.31c-13.59,1.85-26.69,3.64-39.65,4.49,2.86-26.85,11.84-52.11,21.55-76.56Zm31.19-13.93c6.73-1.53,13.2-.89,19.48,1.04,1.66,9.22,3.57,18.35,5.46,27.35,4.01,19.09,8.12,38.76,9.68,58.66-4.79-.5-9.62-.98-14.34-1.37-8.73-.87-18.23-.98-27.17-.33,3.52-27.73,5.81-56.12,6.89-85.35Zm25.67,28.24c-1.86-8.87-3.74-17.86-5.38-26.94,9.48,3.1,18.54,9.08,27.43,14.95,4.6,3.04,9.32,6.16,14.07,8.84,5.79,12.44,11.11,25.3,14.62,38.9,2.59,11.26,3.51,19.66,4.05,26.9-12.98-.35-26.27-1.76-39.22-3.14-1.93-.2-3.89-.41-5.84-.62-1.56-20-5.69-39.74-9.71-58.89Zm51.46,35.57c-3.45-13.33-8.61-25.93-14.24-38.11,1.06,.59,2.13,1.16,3.19,1.69,17.37,8.31,37.2,17.03,58.5,19.62,.15,2.49,.32,4.98,.49,7.42,.41,5.75,.79,11.18,.79,16.1v20.33h-32.97c-3.85,.13-7.76,.13-11.69,.04-.53-7.28-1.46-15.73-4.07-27.09Zm48.69-9.43c-.17-2.4-.34-4.84-.48-7.28,4.64,.53,9.35,.77,14.12,.65h.27c8.13,.22,16.53,.44,25.19,.87h5.95v42.25h-44.25v-20.33c0-4.95-.39-10.39-.8-16.16Zm45.8-5.77h44.25v42.25h-44.25v-42.25Zm45,0h44.25v42.25h-44.25v-42.25Zm45,0h44.25v42.25h-44.25v-42.25Zm45,0h44.25v42.25h-44.25v-42.25Zm45,0h44.25v42.25h-44.25v-42.25Zm45,0h44.25v42.25h-44.25v-42.25Zm45,0h44.25v42.25h-44.25v-42.25Zm45,0h44.25v42.25h-44.25v-42.25Zm45,0h44.25v42.25h-44.25v-42.25Zm45,0h44.25v42.25h-44.25v-42.25Zm45,0h44.25v42.25h-44.25v-42.25Zm45,0h44.25v42.25h-44.25v-42.25Zm45,0h44.25v42.25h-44.25v-42.25Zm45,0h44.25v42.25h-44.25v-42.25Zm45,0h44.25v42.25h-44.25v-42.25Zm45,0h44.25v42.25h-44.25v-42.25Zm45,0h44.25v42.25h-44.25v-42.25Zm0-.75v-42.25h44.25v42.25h-44.25Zm45-42.25h44.25v42.25h-44.25v-42.25Zm0-.75v-42.25h44.25v42.25h-44.25Zm0-43v-42.25s44.25,0,44.25,0v42.25h-44.25Zm0-43v-42.25h44.25v42.25h-44.25Zm0-43v-42.25s44.25,0,44.25,0v42.25h-44.25Zm0-43v-9.13c-.78-11.48-1.79-23.78-4.49-37.65,9.79,2.35,19.82,3.9,30.14,4.43,6.71,.05,12.91,.07,18.6,.09v42.26h-44.25Zm42.08-86.97c-24.47-2.48-47.79-9.57-70.38-18.84-3.96-6.94-8.08-13.75-12.17-20.49-5.9-9.74-11.93-19.7-17.4-29.96,30.65,9.56,60.57,18.22,91.95,23.58,3.37,14.15,6.43,28.6,8.02,43.17-.02,.84-.02,1.68-.03,2.53Zm-100.44-70.23c-2.73-5.17-5.33-10.42-7.68-15.76-2.24-5.22-3.96-10.59-5.19-16.02,7.11,1.15,14.2,2.33,21.24,3.5,24.23,4.04,49.05,8.17,73.93,10.68,2,9.14,4.23,18.12,6.41,26.93,1.18,4.76,2.38,9.56,3.53,14.4-31.45-5.4-61.48-14.12-92.25-23.73Zm8.5-29.02c-7.15-1.19-14.33-2.39-21.54-3.55-1.51-6.98-2.19-14.07-2.03-21.15,30.94-.28,61.92-.88,92.85-1.92-.24,6.3-.02,12.66,.82,19.09,1.02,6.12,2.22,12.18,3.53,18.18-24.77-2.51-49.5-6.63-73.64-10.65Zm70.85-7.64c-.84-6.4-1.05-12.74-.81-19.01,9.98-.34,19.96-.71,29.93-1.14,25.81-.22,37.04-.24,39.13-.25v42.24c-2.3-.07-14.99-.45-38.09-1.51-8.85-.39-17.72-1.08-26.59-1.97-1.32-6.06-2.54-12.19-3.57-18.37Zm68.25-21.14c-2.1,0-13.32,.03-39.15,.25-9.95,.43-19.92,.8-29.89,1.14,.59-13.35,3.26-26.42,6.59-39.25,8.43-1.04,16.87-1.94,25.33-2.65,21.19-.95,34.69-1.6,37.12-1.72v42.23Zm0-42.98c-2.3,.11-15.84,.76-37.17,1.72-8.38,.7-16.74,1.59-25.08,2.61,1.64-6.27,3.44-12.49,5.21-18.65,2.32-8.05,4.68-16.23,6.7-24.52,6.52-1.11,13.08-2.05,19.67-2.77,15.12,.64,28.21-.41,30.66-.63v42.23Zm0-215.02h-44.25V43.75h44.25v42.25Zm-45,0h-44.25V43.75h44.25v42.25Zm-44.25-43V.75h44.25V43h-44.25Zm-.75,0h-44.25V.75h44.25V43Zm-45,0h-44.25V.75h44.25V43Zm-45,0h-44.25V.75h44.25V43Zm-45,0h-44.25V.75h44.25V43Zm-45,0h-44.25V.75h44.25V43Zm-45,0h-44.25V.75h44.25V43Zm-45,0h-44.25V.75h44.25V43Zm-45,0h-44.25V.75h44.25V43Zm-45,0h-44.25V.75h44.25V43Zm-45,0h-44.25V.75h44.25V43Zm-45,0h-44.25V.75h44.25V43Zm-45,0h-44.25V.75h44.25V43Zm-45,0h-44.25V.75h44.25V43Zm-45,0h-44.25V.75h44.25V43Zm-45,0h-44.25V.75h44.25V43Zm-45,0h-44.25V.75h44.25V43Zm-45,0h-44.25V.75h44.25V43Zm-45,0h-44.25V.75h44.25V43Zm-45,0h-44.25V.75h44.25V43Zm-45,0h-44.25V.75h44.25V43Zm-45,0h-44.25V.75h44.25V43Zm-45,0h-44.25V.75h44.25V43Zm-45,0h-44.25V.75h44.25V43Zm-45,0h-44.25V.75h44.25V43Zm-45,0H45.75V.75h44.25V43Zm0,.75v42.25H45.75V43.75h44.25Zm-45,42.25H.75V43.75H45v42.25Zm0,.75v42.25H.75v-42.25H45Zm0,43v42.25H.75v-42.25H45Zm0,43v42.25H.75v-42.25H45Zm0,43v42.25H.75v-42.25H45Zm0,43v42.25H.75v-42.25H45Zm0,43v42.25H.75v-42.25H45Zm0,43v42.25H.75v-42.25H45Zm0,43v42.25H.75v-42.25H45Zm0,43v42.25H.75v-42.25H45Zm0,43v42.25H.75v-42.25H45Zm0,43v42.25H.75v-42.25H45Zm0,43v42.25H.75v-42.25H45Zm0,43v42.25H.75v-42.25H45Zm0,43v42.25H.75v-42.25H45Zm0,43v42.25H.75v-42.25H45Zm0,43v42.25H.75v-42.25H45Zm0,43v42.25H.75v-42.25H45Zm.75,0h44.25v42.25H45.75v-42.25Zm44.25,43v42.25H45.75v-42.25h44.25Zm.75,0h44.25v42.25h-44.25v-42.25Zm45,0h23.62c2.4,.09,4.8,.14,7.2,.14,4.65,0,9.31-.17,13.98-.46-.2,1.96-.37,3.92-.5,5.9-.06,8-.06,14.72-.06,20.13v16.55h-44.25v-42.25Zm45,25.7c0-5.4,0-12.13,.06-20.1,.13-2,.31-3.99,.51-5.98,13.03-.85,26.19-2.64,39.83-4.5l2.26-.31c.98-.1,1.97-.18,2.97-.26-.31,2.38-.62,4.76-.94,7.14-.29,10.09-.44,18.39-.44,24v16.55h-44.25v-16.55Zm45,0c0-5.61,.15-13.9,.44-23.94,.33-2.42,.65-4.84,.96-7.27,8.93-.66,18.45-.55,27.2,.32,4.77,.4,9.64,.88,14.47,1.38,.14,1.88,.27,3.76,.36,5.64,.08,4.01,.27,8.34,.45,12.52,.19,4.37,.37,8.51,.37,11.34v16.55h-44.25v-16.55Zm44.63-11.38c-.18-4.18-.37-8.5-.45-12.51-.09-1.85-.21-3.69-.35-5.54,1.91,.2,3.82,.4,5.71,.6,13,1.38,26.33,2.79,39.36,3.14,.13,1.79,.23,3.52,.33,5.2l.03,.44v36.58h-44.25v-16.55c0-2.85-.18-6.99-.37-11.38Zm45.37-8.68l-.03-.47c-.1-1.66-.2-3.37-.33-5.14,3.92,.09,7.81,.09,11.65-.04h32.96v42.25h-44.25v-36.6Zm45-5.65h44.25v42.25h-44.25v-42.25Zm45,0h44.25v42.25h-44.25v-42.25Zm45,0h44.25v42.25h-44.25v-42.25Zm45,0h44.25v42.25h-44.25v-42.25Zm45,0h44.25v42.25h-44.25v-42.25Zm45,0h44.25v42.25h-44.25v-42.25Zm45,0h44.25v42.25h-44.25v-42.25Zm45,0h44.25v42.25h-44.25v-42.25Zm45,0h44.25v42.25h-44.25v-42.25Zm45,0h44.25v42.25h-44.25v-42.25Zm45,0h44.25v42.25h-44.25v-42.25Zm45,0h44.25v42.25h-44.25v-42.25Zm45,0h44.25v42.25h-44.25v-42.25Zm45,0h44.25v42.25h-44.25v-42.25Zm45,0h44.25v42.25h-44.25v-42.25Zm45,0h44.25v42.25h-44.25v-42.25Zm45,0h44.25v42.25h-44.25v-42.25Zm45,0h44.25v42.25h-44.25v-42.25Zm45,0h44.25v42.25h-44.25v-42.25Zm0-.75v-42.25s44.25,0,44.25,0v42.25h-44.25Zm45-42.25h44.25v42.25h-44.25v-42.25Zm0-.75v-42.25h44.25v42.25h-44.25Zm0-43v-42.25h44.25v42.25h-44.25Zm0-43v-42.25h44.25v42.25h-44.25Zm0-43v-42.25h44.25v42.25h-44.25Zm0-43v-42.25h44.25v42.25h-44.25Zm0-43v-42.26c5.62,.01,10.72,.01,15.28,.01h28.97v42.25h-44.25Zm15.28-43c-4.55,0-9.66,0-15.28-.01v-5.43c-.23-4.66-.6-9.49-.96-14.17-.59-7.83-1.21-15.89-1.22-23.53,5.75,.56,11.57,.88,17.45,.89h28.97v42.25h-28.97Zm0-43c-5.88-.02-11.7-.34-17.45-.9,0-.88,0-1.77,.03-2.64-1.59-14.55-4.62-28.92-7.97-43.01,7.3,1.23,14.66,2.3,22.14,3.15,14.62-.77,29.84,.84,32.21,1.1v42.29h-28.97Zm-3.22-44.14c-7.55-.85-14.99-1.94-22.35-3.19-1.18-4.94-2.4-9.85-3.61-14.72-2.17-8.72-4.37-17.62-6.36-26.67,8.8,.88,17.6,1.55,26.38,1.94,23.18,1.06,35.87,1.44,38.13,1.51v42.22c-2.67-.3-17.75-1.86-32.19-1.1Zm32.19-385.86h-44.25V.75h44.25V43ZM45,.75V43H.75V.75H45ZM.75,817.75H45v42.25H.75v-42.25Zm1215,42.25v-42.25h44.25v42.25h-44.25Z"/></g></svg>