<svg width="54" height="54" viewBox="0 0 54 54" fill="none" xmlns="http://www.w3.org/2000/svg">
<g clip-path="url(#clip0_15_29)">
<path d="M13.078 50.1965C17.2735 52.7192 22.0761 54.05 27 54.05C41.916 54.05 54.05 41.916 54.05 27C54.05 12.084 41.916 -0.05 27 -0.05C12.084 -0.05 -0.05 12.084 -0.05 27C-0.05 32.081 1.35974 37.0138 4.03425 41.299C3.07754 44.6518 1.43651 50.6563 1.09138 51.9191C1.05138 52.0655 1.02879 52.1482 1.02668 52.1556L1.02657 52.156C0.922086 52.5391 1.03418 52.9485 1.32053 53.224C1.60672 53.4993 2.02021 53.5972 2.39688 53.4818L2.39693 53.4818L13.078 50.1965ZM12.9082 47.9716L12.9079 47.9717L3.64977 50.8215C4.34064 48.3 5.55404 43.8929 6.26117 41.4287C6.34826 41.1261 6.29925 40.7996 6.12842 40.5352L6.12835 40.5351C3.51049 36.5067 2.12692 31.8265 2.12692 27C2.12692 13.2857 13.2857 2.12692 27 2.12692C40.7143 2.12692 51.8731 13.2857 51.8731 27C51.8731 40.7143 40.7143 51.8731 27 51.8731C22.3165 51.8731 17.7544 50.5641 13.8059 48.0893C13.6305 47.9793 13.4292 47.9238 13.2279 47.9238C13.1201 47.9238 13.0124 47.9402 12.9082 47.9716Z" fill="black" stroke="black" stroke-width="0.1"/>
<path d="M40.2262 32.6982C38.7672 31.9285 37.5246 31.1565 36.618 30.5933C35.9257 30.1638 35.4253 29.8537 35.0586 29.6787C34.0334 29.1929 33.2565 29.536 32.9608 29.8199C32.9237 29.8552 32.8905 29.8935 32.8621 29.934C31.7974 31.4517 30.4071 32.9032 30 32.9813C29.5297 32.9115 25.6878 31.4096 23.5 29.6787C21.2663 27.9103 20.869 25.6154 20.6627 24.462C22.0957 23.0608 22.6118 22.1792 22.6118 21.1759C22.6118 20.1419 20.073 15.8248 19.6138 15.3885C19.153 14.9515 18.1152 14.8832 16.5288 15.1835C16.3763 15.2128 16.2356 15.2842 16.125 15.3885C15.9329 15.571 11.4386 19.9241 13.5743 25.2002C15.9187 30.9906 22.5686 38.6358 30.2403 39.7292C31.1121 39.8531 31.9294 39.9146 32.6945 39.9146C37.2077 39.9146 39.8714 37.7572 40.6214 33.4777C40.6776 33.1645 40.5187 32.8521 40.2262 32.6982Z" fill="black"/>
</g>
<defs>
<clipPath id="clip0_15_29">
<rect width="54" height="54" fill="white"/>
</clipPath>
</defs>
</svg>
