<?xml version="1.0" encoding="UTF-8"?><svg id="Layer_2" xmlns="http://www.w3.org/2000/svg" viewBox="0 0 43.2 43.32"><defs><style>.cls-1{fill:#000;fill-rule:evenodd;stroke-width:0px;}</style></defs><g id="Layer_1-2"><path class="cls-1" d="M3.03,32.65l-.15-.25C1,29.12,0,25.39,0,21.6,0,9.69,9.69,0,21.6,0c5.77,0,11.2,2.25,15.28,6.33,4.08,4.08,6.32,9.51,6.32,15.28,0,11.91-9.69,21.6-21.6,21.6-3.61,0-7.18-.91-10.33-2.63l-.24-.13L.11,43.32l2.92-10.67ZM11.8,38.17c2.96,1.75,6.34,2.68,9.79,2.68,10.61,0,19.24-8.63,19.24-19.23,0-5.14-2-9.97-5.63-13.61-3.63-3.64-8.46-5.64-13.6-5.64C11,2.37,2.37,10.99,2.36,21.6c0,3.63,1.02,7.17,2.94,10.24l.28.44-2.11,7.71,7.9-2.07.42.25ZM31.77,26.27c-.56-.28-3.3-1.63-3.81-1.81-.51-.19-.88-.28-1.25.28-.37.56-1.44,1.81-1.76,2.18-.33.37-.65.42-1.21.14-.56-.28-2.35-.87-4.48-2.76-1.66-1.48-2.77-3.3-3.1-3.86-.33-.56-.03-.86.24-1.14.25-.25.56-.65.84-.98.28-.33.37-.56.56-.93.19-.37.09-.7-.05-.98-.14-.28-1.25-3.02-1.72-4.14-.45-1.09-.91-.94-1.25-.96-.33-.02-.7-.02-1.07-.02s-.98.14-1.49.7c-.51.56-1.95,1.91-1.95,4.65s2,5.39,2.28,5.76c.28.37,3.93,6,9.52,8.41,1.33.57,2.37.92,3.18,1.17,1.33.42,2.55.36,3.51.22,1.07-.16,3.3-1.35,3.76-2.65.46-1.3.46-2.42.33-2.65s-.51-.37-1.07-.65h0Z"/></g></svg>