<svg width="72" height="79" viewBox="0 0 72 79" fill="none" xmlns="http://www.w3.org/2000/svg">
<g clip-path="url(#clip0_504_1074)">
<path d="M51.4441 28.4863L50.1991 25.8867L47.5995 27.1316L48.8444 29.7313L46.2448 30.9762L43.7549 25.777L38.5557 28.2669L41.0456 33.4661L38.4459 34.7111L35.956 29.5118L30.7568 32.0017L33.2467 37.201L30.6471 38.4459L21.9324 20.2486L19.4425 15.0493L16.8428 16.2943L14.2432 17.5392L30.4276 51.3343L27.828 52.5793L24.0931 44.7804L21.4935 46.0254L20.2486 43.4258L15.0493 45.9157L17.5392 51.1149L20.1389 49.87L21.3838 52.4696L23.9834 51.2246L26.4733 56.4239L29.073 55.1789L30.3179 57.7785L32.8078 62.9778L35.4075 61.7328L37.8974 66.9321L40.497 65.6871L41.7419 68.2868L62.5389 58.3271L61.294 55.7275L63.8936 54.4825L61.4037 49.2833L60.1587 46.6837L62.7584 45.4387L54.0437 27.2413L51.4441 28.4863Z" fill="white"/>
<path d="M38.5557 28.2668L35.9561 29.5117L38.446 34.711L41.0456 33.466L38.5557 28.2668Z" fill="#1C1C1A"/>
<path d="M30.647 38.4459L33.2466 37.201L30.7567 32.0017L35.9559 29.5118L34.711 26.9122L29.5117 29.4021L22.042 13.8044L19.4424 15.0493L21.9323 20.2486L30.647 38.4459Z" fill="#1C1C1A"/>
<path d="M24.0931 44.7803L27.828 52.5792L30.4276 51.3343L14.2432 17.5391L11.6436 18.7841L22.8482 42.1807L20.2485 43.4257L21.4935 46.0253L24.0931 44.7803Z" fill="#1C1C1A"/>
<path d="M19.4422 15.0492L18.1973 12.4495L12.998 14.9395L14.243 17.5391L16.8426 16.2941L19.4422 15.0492Z" fill="#1C1C1A"/>
<path d="M42.5098 23.1773L37.3105 25.6672L38.5555 28.2669L43.7547 25.777L42.5098 23.1773Z" fill="#1C1C1A"/>
<path d="M48.8444 29.7311L47.5995 27.1315L50.1991 25.8866L48.9541 23.2869L43.7549 25.7769L46.2448 30.9761L48.8444 29.7311Z" fill="#1C1C1A"/>
<path d="M52.7984 24.6418L50.1987 25.8867L51.4437 28.4863L54.0433 27.2414L52.7984 24.6418Z" fill="#1C1C1A"/>
<path d="M20.1387 49.8698L17.5391 51.1147L18.784 53.7144L21.3836 52.4694L20.1387 49.8698Z" fill="#1C1C1A"/>
<path d="M62.5385 58.3272L41.7416 68.2868L40.4966 65.6872L37.897 66.9321L40.3869 72.1314L66.3831 59.6818L63.8932 54.4826L61.2936 55.7275L62.5385 58.3272Z" fill="#1C1C1A"/>
<path d="M35.4072 61.7328L32.8076 62.9778L35.2975 68.177L37.8972 66.9321L35.4072 61.7328Z" fill="#1C1C1A"/>
<path d="M61.4036 49.2832L63.8936 54.4825L66.4932 53.2375L62.7583 45.4386L60.1587 46.6836L61.4036 49.2832Z" fill="#1C1C1A"/>
<path d="M23.9834 51.2245L21.3838 52.4695L23.8737 57.6687L26.4733 56.4238L23.9834 51.2245Z" fill="#1C1C1A"/>
<path d="M29.0728 55.1789L26.4731 56.4238L30.208 64.2227L32.8076 62.9777L30.3177 57.7785L29.0728 55.1789Z" fill="#1C1C1A"/>
<path d="M56.6431 25.9963L54.0435 27.2412L62.7581 45.4386L65.3578 44.1936L56.6431 25.9963Z" fill="#1C1C1A"/>
<path d="M20.2484 43.4258L19.0035 40.8262L11.2046 44.561L14.9395 52.3599L17.5391 51.115L15.0492 45.9157L20.2484 43.4258Z" fill="#1C1C1A"/>
</g>
<defs>
<clipPath id="clip0_504_1074">
<rect width="49" height="63.4118" fill="white" transform="translate(0 21.1643) rotate(-25.5897)"/>
</clipPath>
</defs>
</svg>
