<svg width="201" height="200" viewBox="0 0 201 200" fill="none" xmlns="http://www.w3.org/2000/svg">
<path d="M44.8769 174.319L57.7013 156.668L59.8388 158.221L47.0144 175.872L44.8769 174.319Z" fill="black"/>
<path d="M44.1276 144.365L29.9563 152.546L28.7418 150.443L30.9561 149.164L30.8495 148.98C29.9225 149.121 29.0599 148.984 28.2617 148.567C27.4573 148.154 26.7888 147.486 26.2561 146.564C25.7164 145.629 25.4794 144.728 25.5451 143.862C25.6011 142.993 25.9062 142.165 26.4603 141.378L26.3751 141.23C25.4337 141.29 24.5381 141.081 23.6885 140.604C22.8328 140.13 22.112 139.386 21.526 138.371C20.7945 137.104 20.5929 135.838 20.9211 134.575C21.2432 133.314 22.2377 132.203 23.9045 131.241L33.389 125.765L34.6461 127.942L25.1616 133.418C24.116 134.022 23.5338 134.739 23.4151 135.57C23.2963 136.402 23.4607 137.205 23.9081 137.98C24.4834 138.976 25.2304 139.574 26.1493 139.773C27.0619 139.976 27.9765 139.813 28.893 139.284L38.1191 133.958L39.3975 136.172L29.6916 141.775C28.8859 142.241 28.3879 142.877 28.1977 143.684C28.0013 144.494 28.1411 145.311 28.6169 146.136C28.9436 146.701 29.3997 147.143 29.9852 147.462C30.5671 147.773 31.2126 147.926 31.9218 147.918C32.6212 147.908 33.3184 147.702 34.0134 147.301L42.8705 142.187L44.1276 144.365Z" fill="black"/>
<path d="M36.6519 113.085L14.2751 115.437L14.0212 113.021L16.6064 112.749L16.5752 112.453C16.2734 112.299 15.8864 112.082 15.4144 111.803C14.9345 111.518 14.4892 111.087 14.0785 110.508C13.66 109.924 13.3951 109.102 13.2837 108.043C13.1397 106.672 13.3553 105.428 13.9306 104.311C14.5059 103.194 15.3913 102.276 16.587 101.557C17.7826 100.839 19.2351 100.39 20.9445 100.21C22.6679 100.029 24.1927 100.165 25.5186 100.619C26.8375 101.073 27.8976 101.782 28.699 102.748C29.4933 103.714 29.9617 104.876 30.1042 106.232C30.2141 107.277 30.129 108.132 29.849 108.797C29.5619 109.463 29.2136 109.989 28.8043 110.375C28.3879 110.761 28.041 111.062 27.7636 111.277L27.7859 111.489L36.3891 110.584L36.6519 113.085ZM22.1538 112.123C23.3828 111.994 24.4481 111.7 25.3497 111.241C26.2442 110.783 26.9199 110.18 27.3769 109.432C27.8268 108.685 27.9991 107.81 27.8937 106.807C27.7838 105.761 27.4167 104.918 26.7922 104.277C26.16 103.629 25.3556 103.178 24.379 102.924C23.3947 102.663 22.3233 102.593 21.1649 102.715C20.0206 102.835 19.008 103.12 18.1268 103.57C17.2379 104.013 16.5622 104.616 16.0996 105.379C15.6292 106.136 15.4497 107.044 15.561 108.103C15.6679 109.12 16.0156 109.948 16.604 110.586C17.1853 111.225 17.9536 111.672 18.909 111.929C19.8573 112.186 20.9389 112.251 22.1538 112.123Z" fill="black"/>
<path d="M12.6102 70.1233L33.3605 76.8655L32.5836 79.2566L11.8333 72.5144L12.6102 70.1233Z" fill="black"/>
<path d="M48.2762 52.3992C47.2212 53.5709 46.0525 54.3488 44.7701 54.7329C43.4872 55.1069 42.1719 55.1029 40.8243 54.7209C39.4761 54.3289 38.1792 53.5721 36.9336 52.4505C35.6879 51.329 34.7945 50.1135 34.2531 48.8042C33.7113 47.4848 33.5421 46.1761 33.7456 44.878C33.9486 43.5699 34.5444 42.367 35.5329 41.2691C36.1032 40.6358 36.7719 40.1054 37.539 39.6779C38.3062 39.2505 39.1554 38.9973 40.0866 38.9183C41.0126 38.8346 41.9989 38.9916 43.0457 39.3894C44.0924 39.7871 45.1832 40.4969 46.318 41.5186L47.1097 42.2315L38.6695 51.6052L37.0544 50.151L43.7838 42.6773C43.0976 42.0595 42.3618 41.6455 41.5763 41.4352C40.7956 41.2196 40.0238 41.2224 39.2609 41.4434C38.5028 41.6591 37.8196 42.1048 37.2113 42.7804C36.5412 43.5246 36.1461 44.3348 36.0261 45.2111C35.9056 46.0774 36.0075 46.9194 36.332 47.7372C36.6565 48.555 37.1539 49.2657 37.8242 49.8693L38.9009 50.8388C39.8193 51.6657 40.7404 52.2083 41.6641 52.4666C42.5874 52.715 43.4719 52.7038 44.3177 52.4332C45.1582 52.1578 45.9182 51.6427 46.5978 50.888C47.0398 50.3971 47.3703 49.892 47.5895 49.3726C47.8082 48.8431 47.9084 48.3073 47.89 47.7652C47.8664 47.2182 47.7147 46.6755 47.435 46.137L49.567 44.7881C50.0082 45.5294 50.259 46.3335 50.3196 47.2003C50.3748 48.0624 50.2347 48.9398 49.8993 49.8324C49.5586 50.7202 49.0176 51.5759 48.2762 52.3992Z" fill="black"/>
<path d="M62.2682 39.3016L55.6125 24.3527L57.8315 23.3648L58.8714 25.7005L59.0661 25.6139C59.0222 24.6771 59.2492 23.8336 59.747 23.0833C60.2419 22.3266 60.976 21.7315 61.9492 21.2982C62.9354 20.8591 63.8558 20.7175 64.7105 20.8734C65.5687 21.02 66.3604 21.41 67.0855 22.0434L67.2413 21.974C67.2803 21.0315 67.5815 20.1627 68.1449 19.3676C68.7054 18.5661 69.521 17.927 70.5915 17.4504C71.9281 16.8553 73.2077 16.787 74.4303 17.2456C75.65 17.6976 76.6513 18.8028 77.4342 20.5612L81.8886 30.566L79.5918 31.5887L75.1373 21.5838C74.6463 20.4808 73.9936 19.8268 73.1793 19.6218C72.365 19.4168 71.5491 19.4963 70.7316 19.8603C69.6805 20.3283 69.0078 21.0087 68.7134 21.9017C68.4162 22.7881 68.4827 23.7147 68.9132 24.6815L73.2463 34.4139L70.9105 35.4538L66.3521 25.2154C65.9736 24.3654 65.3931 23.8037 64.6105 23.5301C63.825 23.2501 62.9976 23.3037 62.1282 23.6908C61.5312 23.9565 61.044 24.3639 60.6665 24.913C60.2955 25.4591 60.0767 26.0852 60.0101 26.7912C59.9471 27.4879 60.0788 28.2028 60.4052 28.9359L64.565 38.279L62.2682 39.3016Z" fill="black"/>
<path d="M100.929 29.3409C99.3522 29.3409 97.9921 28.9929 96.8486 28.2969C95.7123 27.5938 94.8351 26.6136 94.2173 25.3565C93.6065 24.0923 93.3011 22.6222 93.3011 20.946C93.3011 19.2699 93.6065 17.7926 94.2173 16.5142C94.8351 15.2287 95.6945 14.2273 96.7954 13.5099C97.9033 12.7855 99.1959 12.4233 100.673 12.4233C101.525 12.4233 102.367 12.5653 103.198 12.8494C104.029 13.1335 104.785 13.5952 105.467 14.2344C106.149 14.8665 106.692 15.7045 107.097 16.7486C107.502 17.7926 107.704 19.0781 107.704 20.6051V21.6705L95.0908 21.6705V19.4972L105.148 19.4972C105.148 18.5739 104.963 17.75 104.594 17.0256C104.231 16.3011 103.713 15.7294 103.038 15.3104C102.371 14.8913 101.582 14.6818 100.673 14.6818C99.6718 14.6818 98.8053 14.9304 98.0738 15.4276C97.3494 15.9176 96.7918 16.5568 96.4012 17.3452C96.0106 18.1335 95.8153 18.9787 95.8153 19.8807V21.3295C95.8153 22.5653 96.0283 23.6129 96.4545 24.4723C96.8877 25.3246 97.4878 25.9744 98.2549 26.4219C99.0219 26.8622 99.9133 27.0824 100.929 27.0824C101.589 27.0824 102.186 26.9901 102.719 26.8054C103.258 26.6136 103.724 26.3295 104.114 25.9531C104.505 25.5696 104.807 25.0937 105.02 24.5256L107.449 25.2074C107.193 26.0313 106.763 26.7557 106.16 27.3807C105.556 27.9986 104.81 28.4815 103.923 28.8295C103.035 29.1705 102.037 29.3409 100.929 29.3409Z" fill="black"/>
<path d="M129.763 24.5352L125.759 33.5279L123.462 32.5053L130.118 17.5564L132.337 18.5444L131.297 20.8801L131.491 20.9668C132.18 20.3637 132.983 19.9906 133.902 19.8477C134.824 19.6983 135.849 19.875 136.978 20.3776C137.99 20.8283 138.784 21.4302 139.358 22.1834C139.935 22.9302 140.248 23.8159 140.297 24.8407C140.349 25.8589 140.092 27.0039 139.526 28.2756L135.297 37.7744L133 36.7518L137.16 27.4087C137.683 26.2343 137.785 25.1837 137.467 24.2569C137.152 23.3235 136.462 22.62 135.398 22.1462C134.665 21.8198 133.939 21.687 133.22 21.7478C132.507 21.8115 131.85 22.0747 131.247 22.5372C130.645 22.9998 130.15 23.6658 129.763 24.5352Z" fill="black"/>
<path d="M168.411 44.863L166.828 46.2887L161.154 39.9867L162.737 38.561L168.411 44.863ZM167.304 37.7745L168.987 39.6429L157.396 50.0791C156.868 50.5543 156.541 50.9873 156.415 51.3779C156.299 51.7691 156.306 52.1265 156.434 52.4501C156.573 52.7742 156.766 53.0735 157.014 53.3479C157.199 53.5538 157.361 53.7132 157.501 53.8261C157.647 53.9343 157.763 54.0209 157.85 54.0858L156.514 55.977C156.352 55.8931 156.145 55.7591 155.894 55.5749C155.636 55.3955 155.351 55.1316 155.037 54.7832C154.562 54.2554 154.21 53.636 153.981 52.925C153.756 52.2192 153.726 51.491 153.891 50.7403C154.061 49.9948 154.5 49.3037 155.207 48.6669L167.304 37.7745Z" fill="black"/>
<path d="M167.399 77.3836C167.079 76.3974 166.974 75.442 167.084 74.5175C167.201 73.5908 167.538 72.7758 168.093 72.0725C168.656 71.3671 169.444 70.8497 170.457 70.5205C171.348 70.2308 172.128 70.1716 172.796 70.3429C173.471 70.512 174.063 70.8388 174.571 71.3233C175.079 71.8078 175.526 72.3794 175.912 73.0382C176.307 73.7015 176.669 74.3792 176.998 75.0712C177.427 75.9773 177.768 76.7143 178.019 77.2823C178.28 77.8547 178.532 78.2508 178.775 78.4705C179.02 78.697 179.336 78.7477 179.721 78.6226L179.802 78.5962C180.801 78.2714 181.489 77.7454 181.865 77.0183C182.244 76.298 182.254 75.3873 181.896 74.2863C181.525 73.1448 180.985 72.331 180.274 71.845C179.564 71.3589 178.882 71.0764 178.229 70.9973L178.302 68.4644C179.379 68.5624 180.291 68.8635 181.037 69.3678C181.793 69.8766 182.406 70.4989 182.876 71.2347C183.356 71.975 183.723 72.737 183.977 73.5205C184.14 74.0204 184.266 74.6143 184.355 75.3022C184.453 75.9947 184.418 76.7042 184.251 77.4306C184.086 78.1638 183.701 78.8527 183.096 79.4972C182.492 80.1417 181.572 80.6647 180.335 81.0664L170.082 84.398L169.305 82.0068L171.412 81.3221L171.373 81.2005C170.982 81.1481 170.533 80.9953 170.025 80.7422C169.517 80.489 169.026 80.0922 168.552 79.5518C168.078 79.0114 167.694 78.2887 167.399 77.3836ZM169.666 77.0504C169.973 77.996 170.418 78.7327 171 79.2605C171.585 79.795 172.224 80.1322 172.92 80.2723C173.617 80.4191 174.29 80.3871 174.938 80.1764L177.127 79.4653C176.972 79.4035 176.788 79.2168 176.575 78.9053C176.371 78.5982 176.159 78.2339 175.94 77.8122C175.73 77.3951 175.53 76.986 175.34 76.5847C175.158 76.1881 175.009 75.8669 174.892 75.6212C174.609 75.0261 174.289 74.488 173.931 74.0069C173.582 73.5303 173.174 73.1847 172.709 72.97C172.252 72.7599 171.72 72.7537 171.112 72.9512C170.281 73.2211 169.753 73.7326 169.527 74.4855C169.31 75.243 169.357 76.098 169.666 77.0504Z" fill="black"/>
<path d="M170.658 108.45C170.818 106.924 171.316 105.648 172.153 104.622C172.989 103.596 174.07 102.853 175.397 102.392C176.724 101.932 178.199 101.787 179.824 101.958C181.477 102.132 182.903 102.589 184.104 103.329C185.311 104.077 186.213 105.036 186.812 106.206C187.416 107.383 187.641 108.707 187.487 110.176C187.367 111.32 187.046 112.329 186.526 113.203C186.006 114.077 185.333 114.767 184.509 115.273C183.685 115.779 182.756 116.049 181.724 116.083L181.987 113.583C182.749 113.47 183.45 113.115 184.091 112.519C184.739 111.93 185.121 111.084 185.236 109.982C185.339 109.008 185.174 108.126 184.743 107.338C184.318 106.558 183.668 105.915 182.793 105.408C181.924 104.91 180.875 104.596 179.646 104.467C178.389 104.335 177.273 104.418 176.299 104.715C175.324 105.02 174.541 105.509 173.949 106.182C173.356 106.863 173.008 107.697 172.904 108.686C172.835 109.336 172.887 109.938 173.057 110.491C173.227 111.045 173.505 111.527 173.89 111.939C174.275 112.351 174.756 112.666 175.333 112.884L175.071 115.384C174.125 115.142 173.296 114.701 172.585 114.062C171.88 113.431 171.35 112.636 170.993 111.677C170.643 110.727 170.531 109.651 170.658 108.45Z" fill="black"/>
<path d="M162.614 134.41L176.786 142.592L175.529 144.769L161.357 136.588L162.614 134.41ZM178.508 145.063C178.753 144.638 179.109 144.356 179.576 144.215C180.039 144.081 180.474 144.131 180.88 144.365C181.285 144.599 181.546 144.951 181.661 145.419C181.773 145.893 181.706 146.343 181.461 146.767C181.216 147.192 180.862 147.471 180.399 147.606C179.932 147.746 179.496 147.699 179.09 147.465C178.684 147.231 178.425 146.876 178.314 146.402C178.198 145.933 178.263 145.487 178.508 145.063Z" fill="black"/>
<path d="M142.031 157.164C143.226 156.295 144.481 155.818 145.797 155.731C147.106 155.649 148.386 155.935 149.634 156.591C150.877 157.25 151.995 158.264 152.989 159.631C153.991 161.01 154.616 162.396 154.863 163.787C155.105 165.183 154.984 166.491 154.501 167.711C154.012 168.936 153.17 169.982 151.975 170.85C150.78 171.719 149.527 172.194 148.218 172.276C146.902 172.363 145.621 172.074 144.374 171.408C143.121 170.747 141.994 169.727 140.992 168.348C139.998 166.98 139.383 165.602 139.145 164.212C138.902 162.826 139.025 161.52 139.514 160.296C139.997 159.076 140.836 158.032 142.031 157.164ZM143.358 158.991C142.451 159.65 141.873 160.426 141.625 161.317C141.377 162.208 141.388 163.135 141.657 164.098C141.927 165.061 142.383 165.985 143.026 166.87C143.669 167.755 144.408 168.477 145.245 169.037C146.082 169.597 146.965 169.899 147.893 169.944C148.821 169.99 149.739 169.683 150.647 169.023C151.555 168.363 152.131 167.585 152.375 166.688C152.618 165.791 152.604 164.858 152.33 163.89C152.056 162.921 151.598 161.994 150.955 161.109C150.312 160.224 149.574 159.505 148.742 158.951C147.909 158.397 147.031 158.1 146.107 158.061C145.182 158.021 144.266 158.331 143.358 158.991ZM154.083 171.794L154.885 177.321L152.507 179.05L152.29 173.097L154.083 171.794Z" fill="black"/>
<path d="M121.178 178.254L119.132 168.625L121.591 168.103L124.993 184.109L122.617 184.614L122.086 182.113L121.877 182.157C121.675 183.05 121.244 183.824 120.585 184.479C119.927 185.142 118.994 185.602 117.785 185.859C116.701 186.089 115.705 186.068 114.798 185.796C113.892 185.532 113.118 184.999 112.476 184.199C111.836 183.406 111.371 182.328 111.081 180.967L108.92 170.796L111.379 170.273L113.505 180.277C113.772 181.534 114.307 182.445 115.109 183.007C115.913 183.577 116.884 183.741 118.024 183.499C118.809 183.332 119.474 183.013 120.02 182.541C120.559 182.071 120.936 181.471 121.152 180.743C121.367 180.014 121.376 179.185 121.178 178.254Z" fill="black"/>
</svg>
