<svg width="95" height="31" viewBox="0 0 95 31" fill="none" xmlns="http://www.w3.org/2000/svg">
<g clip-path="url(#clip0_3_18)">
<path d="M0 23.296H5.586C5.586 25.7475 7.35933 27.1964 10.355 27.1964C13.3507 27.1964 14.9403 26.1449 14.9403 24.3048C14.9403 21.9816 12.2613 21.5415 9.26567 21.0646C5.31367 20.4533 0.595333 19.7074 0.595333 14.67C0.595333 10.5067 4.22433 8.01239 10.355 8.01239C16.4857 8.01239 20.0703 10.684 20.0703 15.2446H14.4843C14.4843 12.9215 12.9833 11.6071 10.355 11.6071C7.85967 11.6071 6.35867 12.573 6.35867 14.1931C6.35867 16.1677 8.854 16.559 11.761 17.042C15.8017 17.7022 20.7037 18.4909 20.7037 23.6567C20.7037 28.1685 16.8467 30.889 10.355 30.889C3.86333 30.889 0 28.0707 0 23.296Z" fill="#5B4CFF"/>
<path d="M46.2523 8.44032V30.4366H40.261V22.8559H40.1723C40.1723 27.8934 37.1323 30.8767 32.0467 30.8767C26.3277 30.8767 22.971 26.6279 22.971 19.4384C22.971 12.249 26.3277 8.00015 32.0467 8.00015C37.1323 8.00015 40.1723 10.9774 40.1723 15.9721H40.261V8.44032H46.2523ZM40.5777 19.4384C40.5777 15.3608 38.4433 12.5608 34.8143 12.5608C31.1853 12.5608 29.051 15.1468 29.051 19.4384C29.051 23.7301 31.1853 26.2733 34.8143 26.2733C38.4433 26.2733 40.5777 23.4672 40.5777 19.4384Z" fill="#5B4CFF"/>
<path d="M70.8954 26.4078V30.4366H49.97V21.1013L69.445 12.5119V12.4263H50.2424V8.44034H70.034V17.7756L50.559 26.3222V26.4078H70.8954V26.4078Z" fill="#5B4CFF"/>
<path d="M95 8.44034V30.4366H89.0087V22.6786H88.92C88.92 27.8078 86.2854 30.8706 81.795 30.8706C76.893 30.8706 73.986 27.496 73.986 21.8472V8.44034H79.9774V21.5843C79.9774 24.5615 81.567 26.2733 84.246 26.2733C87.2417 26.2733 89.015 24.0847 89.015 20.3127V8.44034H95.0064H95Z" fill="#5B4CFF"/>
<path d="M89.8383 0.945221L80.0977 5.23687V7.84732H80.3953L90.1297 3.57401V0.945221H89.8383Z" fill="#5B4CFF"/>
</g>
<defs>
<clipPath id="clip0_3_18">
<rect width="95" height="29.9315" fill="white" transform="translate(0 0.945221)"/>
</clipPath>
</defs>
</svg>
