<svg width="298" height="136" viewBox="0 0 298 136" fill="none" xmlns="http://www.w3.org/2000/svg">
<path d="M164.447 15.0985C167.381 18.1524 170.104 20.7647 172.56 23.6071C175.007 26.4494 177.187 29.5309 179.532 32.5664C181.354 31.251 182.356 29.4205 183.046 27.3784C183.221 26.8725 183.304 26.339 183.506 25.8515C184.012 24.6097 185.015 24.2142 186.238 24.5545C187.425 24.8857 187.968 25.7595 187.765 27.0013C187.204 30.4047 185.879 33.4494 183.359 35.841C182.264 36.8805 182.044 37.6899 182.761 39.1157C186.689 46.9344 188.86 55.2222 188.924 64.016C188.924 64.3839 188.961 64.7519 188.979 65.1198C189.136 65.2026 189.292 65.2762 189.448 65.359C190.221 63.878 191.233 62.4706 191.72 60.8977C192.87 57.1723 193.174 53.3366 193.211 49.4088C193.266 43.7057 192.134 38.3246 190.175 33.0447C189.743 31.8765 189.642 30.7175 190.58 29.7609C191.638 28.6754 193.597 29.2641 194.351 30.9843C196.531 35.9514 197.81 41.1762 198.15 46.5757C198.684 55.0199 197.212 63.1237 193.643 70.8321C190.571 77.4642 186.165 83.0844 180.627 87.8125C173.121 94.233 164.392 98.0044 154.632 99.191C142.656 100.654 131.498 98.078 121.407 91.4091C108.41 82.8177 100.922 70.6481 99.101 55.2222C97.5464 42.1052 101.014 30.1656 109.017 19.6609C117.746 8.19962 129.484 1.60431 143.732 0.288923C156.913 -0.934475 169.377 1.57671 179.689 10.72C181.464 12.2929 182.862 14.289 184.389 16.1287C185.254 17.1681 185.383 18.4835 184.297 19.2562C183.598 19.7529 182.182 19.9277 181.427 19.5597C177.509 17.6281 173.397 16.4139 169.129 15.678C167.685 15.4296 166.213 15.3192 164.429 15.0985H164.447ZM157.842 50.9266C157.842 49.3812 157.796 47.8359 157.861 46.2997C157.907 45.0947 157.447 44.6348 156.214 44.5244C150.833 44.0645 145.553 43.0343 140.586 40.8358C139.179 40.2103 138.563 40.5967 138.011 41.8109C136.732 44.6164 135.205 47.3299 134.147 50.2183C132.004 56.0501 130.109 61.9739 128.104 67.861C127.736 68.9464 128.003 69.6087 129.134 70.1146C137.118 73.6376 145.489 75.4957 154.145 76.204C155.202 76.2868 155.837 75.9648 155.948 74.7506C156.702 66.8215 157.99 50.945 157.852 50.9266H157.842ZM183.902 63.8504C183.883 56.6296 182.08 49.8319 179.266 43.2642C177.739 39.6952 177.932 40.1735 174.85 41.6821C174.611 41.8017 174.372 41.9212 174.115 41.9856C170.969 42.7675 167.823 43.5402 164.677 44.3036C163.776 44.5244 162.709 44.4232 162.736 45.8766C162.782 48.5809 162.865 51.2945 162.708 53.9897C162.304 60.7689 161.807 67.5482 161.283 74.3275C161.145 76.0936 161.182 76.296 163.003 76.2224C169.525 75.9556 175.733 74.4287 181.621 71.5863C182.862 70.9884 183.515 70.2158 183.534 68.7808C183.552 67.1343 183.782 65.4969 183.92 63.8596L183.902 63.8504ZM122.796 67.2079C123.459 64.8898 123.937 63.1053 124.489 61.3392C126.807 53.8977 129.714 46.6953 133.365 39.8056C134.083 38.4534 134.11 37.6348 132.583 36.7425C129.401 34.866 126.623 32.456 124.369 29.4941C123.707 28.6202 123.054 27.7372 122.401 26.8725C116.238 30.5059 108.962 39.7688 106.644 46.4469C105.889 48.6269 106.046 50.4022 107.177 52.3339C109.229 55.8201 111.795 58.8648 114.913 61.4036C117.332 63.3721 119.926 65.1198 122.796 67.2171V67.2079ZM127.028 74.8334C126.844 75.1186 126.65 75.2841 126.632 75.4589C126.2 79.3315 125.795 83.1948 126.972 87.0214C127.46 88.6035 128.481 89.6338 129.98 90.3236C135.582 92.8992 141.497 94.1226 147.623 94.3434C148.405 94.371 149.518 93.9295 149.959 93.3316C152.507 89.8821 153.538 85.8164 154.577 81.4655C144.974 80.6376 135.849 78.7152 127.028 74.8334ZM154.632 17.5453C154.135 17.904 153.887 18.0144 153.731 18.1892C149.224 23.2575 145.342 28.7674 141.938 34.6269C141.46 35.4455 141.764 35.9882 142.591 36.1906C146.97 37.2852 151.339 38.389 155.736 39.4009C157.125 39.7228 157.658 38.9777 157.493 37.5796C157.042 33.7254 156.711 29.8528 156.187 26.0171C155.81 23.2483 155.184 20.5164 154.632 17.5453ZM180.94 77.5654C174.317 79.9938 167.731 81.3551 160.915 81.4655C160.556 81.4655 159.995 81.8978 159.885 82.2382C158.689 85.9636 157.566 89.7073 156.435 93.3959C163.729 93.028 178.189 86.4695 180.94 77.5562V77.5654ZM136.484 33.1459C140.559 27.3049 144.495 21.6662 148.423 16.0275C148.377 16.0091 148.276 15.9355 148.184 15.9447C141.018 17.1313 134.313 19.5965 127.957 23.0828C127.018 23.5979 126.917 24.1958 127.487 25.0144C129.861 28.4363 132.887 31.113 136.484 33.1367V33.1459ZM175.412 35.7215C171.429 29.1446 166.636 23.4507 160.354 19.0354C160.225 19.6701 160.308 20.176 160.372 20.682C161.034 25.8975 161.807 31.0946 162.322 36.3194C162.616 39.3549 162.552 39.548 165.523 39.0789C168.936 38.5454 172.275 37.6991 175.412 35.7123V35.7215ZM105.163 59.3892C107.278 69.5719 112.632 77.8505 120.763 84.5838C121.076 80.6009 121.407 76.8939 121.6 73.1869C121.628 72.681 121.021 71.9911 120.524 71.6415C118.648 70.3261 116.569 69.2867 114.812 67.8426C111.5 65.129 108.355 62.2039 105.163 59.38V59.3892ZM125.087 18.134C125.252 18.2444 125.418 18.3455 125.593 18.4559C132.032 15.0985 138.746 12.5137 145.866 11.0235C141.331 9.33103 136.741 8.97229 132.022 9.5334C128.987 9.90133 127.331 11.8606 126.145 14.3258C125.583 15.494 125.427 16.8646 125.087 18.134ZM106.957 34.5349C110.673 29.8344 114.886 25.6675 119.779 22.1997C120.064 21.9973 120.267 21.4822 120.267 21.1143C120.239 19.2838 120.129 17.4533 120.037 15.5492C114.012 20.7555 109.431 26.9001 106.957 34.5349ZM171.907 11.1707C168.844 8.3192 166.277 7.91446 163.794 9.89214C166.507 10.3245 169.147 10.7384 171.907 11.1707ZM155.828 5.59645C155.727 5.72522 155.626 5.854 155.515 5.99198C155.938 6.68187 156.444 7.98805 156.775 7.95126C157.714 7.83168 158.578 7.16019 159.471 6.70946C159.443 6.53469 159.415 6.36912 159.388 6.19435C158.201 5.99198 157.015 5.79881 155.828 5.59645ZM150.539 7.02221C149.435 4.86977 147.733 5.18251 145.627 5.32969C147.457 5.96439 148.874 6.4519 150.539 7.02221Z" fill="#5B4CFF"/>
<path d="M0.179688 113.135C0.409649 113.08 0.510918 113.044 0.612101 113.034C3.82544 112.887 5.79076 114.374 6.50825 117.496C7.24412 120.715 7.98004 123.935 8.73432 127.145C8.8171 127.485 8.99183 127.798 9.25858 128.469C10.5372 123.87 11.7146 119.63 12.892 115.38C13.5267 113.071 14.5845 112.409 16.8473 113.08C17.2153 113.191 17.5648 113.789 17.6844 114.23C18.8526 118.434 19.9656 122.656 21.1062 126.869C21.2166 127.264 21.3546 127.66 21.7869 128.092C22.1273 126.758 22.4861 125.434 22.808 124.1C23.5899 120.835 24.3809 117.578 25.126 114.304C25.3283 113.402 25.6872 112.915 26.7174 112.998C27.9224 113.09 29.1457 113.016 30.5807 113.016C30.314 114.037 30.1116 114.856 29.8816 115.656C28.2351 121.442 26.5426 127.218 24.9512 133.023C24.5925 134.329 24.013 134.789 22.6332 134.752C19.2206 134.66 19.2298 134.724 18.3008 131.348C17.4269 128.184 16.5346 125.029 15.2744 121.819C15.1089 122.334 14.9248 122.84 14.7777 123.355C13.8302 126.685 12.846 130.006 11.963 133.354C11.6962 134.347 11.2823 134.724 10.2245 134.734C6.4163 134.752 6.39786 134.798 5.34923 131.165C3.61991 125.186 1.92741 119.206 0.188895 113.117L0.179688 113.135Z" fill="#5B4CFF"/>
<path d="M166.737 125.664V113.108H171.171C171.208 113.605 171.281 114.065 171.281 114.525C171.281 120.706 171.254 126.887 171.318 133.06C171.337 134.403 170.877 134.642 169.607 134.78C167.298 135.037 166.066 134.145 165.026 132.131C163.334 128.837 161.329 125.71 159.213 122.086C159.121 122.96 159.047 123.337 159.047 123.723C159.038 126.915 159.011 130.116 159.047 133.308C159.057 134.292 158.817 134.761 157.714 134.734C153.777 134.642 154.503 135.175 154.476 131.569C154.43 126.032 154.466 120.485 154.466 114.948C154.466 114.377 154.466 113.798 154.466 113.025C155.892 113.025 157.171 112.915 158.403 113.08C158.891 113.145 159.452 113.715 159.728 114.203C161.715 117.606 163.628 121.056 165.569 124.487C165.817 124.919 166.066 125.342 166.314 125.774L166.728 125.664H166.737Z" fill="#5B4CFF"/>
<path d="M128.765 123.3C131.672 125.103 132.61 127.062 132.058 129.914C131.57 132.434 129.869 134.173 126.787 134.467C123.356 134.798 119.879 134.66 116.43 134.725C115.335 134.743 115.482 133.933 115.482 133.262C115.482 129.113 115.482 124.965 115.482 120.816C115.482 118.636 115.436 116.447 115.528 114.276C115.547 113.844 116.135 113.099 116.476 113.09C119.346 113.016 122.225 112.989 125.095 113.145C127.367 113.264 129.501 113.991 130.31 116.401C131.138 118.885 131.092 121.332 128.774 123.309L128.765 123.3ZM120.035 125.443C120.035 126.979 119.98 128.46 120.081 129.923C120.109 130.263 120.652 130.824 120.983 130.843C122.243 130.935 123.531 130.935 124.791 130.788C126.217 130.622 127.072 129.767 127.127 128.24C127.183 126.74 126.465 125.673 125.049 125.48C123.457 125.269 121.811 125.434 120.035 125.434V125.443ZM120.035 119.335C120.035 119.915 119.971 120.513 120.063 121.074C120.109 121.359 120.431 121.828 120.633 121.837C121.949 121.847 123.329 121.966 124.552 121.608C125.196 121.414 125.941 120.311 125.95 119.611C125.959 118.83 125.325 117.901 124.708 117.312C124.285 116.907 123.43 116.889 122.749 116.843C120.017 116.659 120.008 116.677 120.026 119.345L120.035 119.335Z" fill="#5B4CFF"/>
<path d="M53.5117 113.237C56.9336 113.237 60.2819 113.08 63.6025 113.283C66.2241 113.448 68.2477 114.764 68.9652 117.533C69.7931 120.761 69.0297 123.07 66.5001 124.992C66.3345 125.112 66.1965 125.268 65.9022 125.544C67.889 127.301 67.5302 131.1 71.3476 131.174C71.412 131.385 71.5132 131.569 71.5224 131.763C71.7248 134.899 70.5749 135.838 67.5854 134.605C66.316 134.081 65.2399 132.885 64.3108 131.799C63.6118 130.972 63.3542 129.785 62.7931 128.828C62.4251 128.203 61.9651 127.421 61.358 127.2C60.4106 126.851 59.3068 126.814 58.2858 126.897C58.111 126.915 57.9731 128.212 57.9547 128.92C57.8995 130.41 57.8995 131.901 57.9547 133.391C57.9823 134.329 57.6879 134.78 56.6853 134.724C55.6826 134.669 54.6707 134.715 53.5209 134.715V113.228L53.5117 113.237ZM57.9454 123.364C59.7943 123.125 61.3949 123.088 62.885 122.674C64.1636 122.325 64.8075 121.203 64.7247 119.823C64.6419 118.471 63.9428 117.422 62.6182 117.137C61.3396 116.87 59.9875 116.87 58.6722 116.861C58.433 116.861 57.9915 117.376 57.9823 117.671C57.9179 119.418 57.9454 121.157 57.9454 123.364Z" fill="#5B4CFF"/>
<path d="M218.956 113.2C222.525 113.2 225.772 113.062 229 113.246C231.677 113.393 233.802 114.635 234.575 117.468C235.458 120.706 234.685 123.024 232.054 125.075C231.935 125.167 231.833 125.296 231.732 125.406C234.041 130.42 234.17 130.567 237.067 131.312C237.095 131.505 237.15 131.707 237.159 131.919C237.288 134.899 236.285 135.626 233.342 134.743C231.769 134.265 230.628 133.299 229.892 131.864C229.451 131.008 229.083 130.125 228.66 129.27C227.501 126.906 226.452 126.4 223.546 126.933C223.546 128.948 223.472 131.008 223.573 133.069C223.637 134.421 223.141 134.807 221.835 134.761C218.459 134.651 218.983 135.138 218.965 131.864C218.937 126.271 218.956 120.688 218.956 115.095C218.956 114.469 218.956 113.853 218.956 113.218V113.2ZM225.799 116.797C224.297 116.791 223.546 117.536 223.546 119.032C223.546 119.667 223.546 120.31 223.546 120.945C223.546 122.423 224.294 123.162 225.79 123.162C228.66 123.162 230.343 122.012 230.371 120.053C230.398 117.928 228.825 116.815 225.799 116.797Z" fill="#5B4CFF"/>
<path d="M31.334 123.318C31.426 122.619 31.4812 121.442 31.7388 120.311C32.7966 115.546 36.1172 112.915 40.9832 112.906C45.8308 112.897 49.3079 115.518 50.2461 120.265C50.6508 122.316 50.706 124.523 50.4392 126.602C49.7494 131.919 45.9228 135.065 40.652 134.955C35.7585 134.853 32.0883 131.358 31.4996 126.198C31.4076 125.407 31.4168 124.606 31.3524 123.328L31.334 123.318ZM35.8597 123.935C36.2 125.351 36.3931 126.897 36.9542 128.295C37.6717 130.089 39.2171 130.935 41.158 130.88C43.1081 130.824 44.5155 129.84 45.2238 128.046C46.3 125.315 46.2723 122.518 45.2421 119.786C44.5338 117.91 43.0345 116.953 41.0292 116.935C39.0056 116.916 37.5246 117.901 36.8256 119.768C36.3472 121.037 36.2 122.426 35.8597 123.935Z" fill="#5B4CFF"/>
<path d="M237.914 124.156C238.052 119.777 238.981 115.831 243.387 113.761C249.504 110.891 256.145 114.442 257.065 121.12C257.304 122.831 257.304 124.625 257.102 126.354C256.495 131.551 252.806 134.927 247.885 134.964C242.67 135.001 238.926 131.763 238.144 126.52C238.024 125.728 237.988 124.937 237.914 124.165V124.156ZM242.495 123.824C242.78 125.204 242.909 126.547 243.332 127.78C244.022 129.803 245.714 130.907 247.701 130.88C249.725 130.852 251.316 129.73 252.006 127.679C252.862 125.131 252.862 122.546 251.969 120.007C251.289 118.075 249.716 116.962 247.747 116.916C245.806 116.87 244.105 117.91 243.415 119.823C242.955 121.102 242.789 122.491 242.504 123.815L242.495 123.824Z" fill="#5B4CFF"/>
<path d="M211.671 121.028C211.514 120.807 211.422 120.725 211.404 120.633C210.659 117.928 209.638 116.944 207.541 116.916C205.397 116.889 203.429 118.287 203.043 120.697C202.711 122.748 202.693 124.947 203.043 126.989C203.502 129.61 205.765 131.064 208.166 130.797C210.309 130.567 211.376 129.27 211.284 126.768C210.199 126.768 209.086 126.694 208 126.786C206.538 126.915 206.648 125.968 206.685 125.048C206.713 124.211 206.354 123.162 207.899 123.208C210.447 123.282 212.995 123.227 216.031 123.227C215.709 125.728 215.746 128.111 215.056 130.263C213.934 133.805 209.509 135.7 205.526 134.789C201.304 133.823 198.857 131.211 198.14 126.97C197.523 123.364 197.625 119.814 199.685 116.631C201.957 113.117 205.471 112.483 209.27 113.007C212.572 113.467 214.504 115.61 215.442 118.747C215.792 119.924 215.617 120.568 214.237 120.633C213.354 120.669 212.471 120.881 211.661 121.01L211.671 121.028Z" fill="#5B4CFF"/>
<path d="M90.16 113.08C92.754 113.08 95.21 112.915 97.6384 113.117C103.562 113.605 106.975 117.45 107.15 123.659C107.186 124.928 107.067 126.225 106.818 127.458C105.917 131.91 102.67 134.55 97.9603 134.706C95.7251 134.78 93.4898 134.706 91.2546 134.724C90.4359 134.734 89.9668 134.559 89.9668 133.593C89.9944 126.998 89.9944 120.402 90.0036 113.807C90.0036 113.605 90.0865 113.412 90.16 113.08ZM94.5017 123.815C94.5017 125.783 94.4649 127.743 94.5385 129.711C94.5569 130.107 94.934 130.751 95.2559 130.833C98.6778 131.707 101.631 129.904 102.32 126.446C102.587 125.112 102.624 123.686 102.458 122.334C101.998 118.544 99.6161 116.659 95.7895 116.769C94.8421 116.797 94.4557 117.091 94.4833 118.066C94.5385 119.979 94.5017 121.893 94.5017 123.806V123.815Z" fill="#5B4CFF"/>
<path d="M180.185 125.471C180.185 128.074 180.14 130.677 180.204 133.281C180.232 134.412 179.836 134.762 178.732 134.734C174.832 134.633 175.559 135.203 175.531 131.542C175.485 126.005 175.522 120.458 175.522 114.911V113.108H180.139V122.031C180.259 122.077 180.369 122.123 180.489 122.169C180.765 121.847 181.069 121.534 181.326 121.194C183.037 118.885 184.794 116.595 186.422 114.231C187.084 113.274 187.82 112.915 188.952 112.989C190.101 113.072 191.26 113.007 192.806 113.007C189.973 116.76 187.36 120.219 184.693 123.76C187.388 127.292 190.065 130.797 192.751 134.329C190.111 135.405 187.563 134.771 186.045 132.72C184.224 130.254 182.402 127.789 180.59 125.324L180.195 125.48L180.185 125.471Z" fill="#5B4CFF"/>
<path d="M260.268 113.081H264.692C264.729 113.743 264.802 114.359 264.802 114.966C264.812 118.59 264.766 122.215 264.83 125.83C264.885 128.957 265.915 130.42 268.114 130.742C270.156 131.045 271.711 130.079 272.198 128.074C272.4 127.255 272.456 126.391 272.456 125.544C272.483 121.451 272.465 117.358 272.465 113.025C273.799 113.025 275.004 112.952 276.19 113.071C276.503 113.099 276.981 113.743 276.981 114.102C277.009 118.572 277.119 123.052 276.88 127.513C276.641 132.029 273.688 134.78 269.402 134.927C264.306 135.102 261.27 132.83 260.461 128.203C260.295 127.265 260.277 126.299 260.277 125.342C260.258 121.304 260.277 117.275 260.277 113.071L260.268 113.081Z" fill="#5B4CFF"/>
<path d="M153.058 134.706C151.632 134.706 150.372 134.752 149.121 134.678C148.79 134.66 148.459 134.283 148.173 134.016C148.035 133.887 148.008 133.63 147.925 133.436C147.382 132.13 147.088 129.932 146.242 129.693C144.218 129.122 141.937 129.444 139.766 129.481C139.518 129.481 139.205 129.886 139.039 130.171C138.846 130.484 138.782 130.87 138.662 131.22C137.356 135.157 137.31 135.193 132.867 134.559C132.987 134.099 133.07 133.657 133.226 133.234C135.507 126.988 137.825 120.761 140.07 114.497C140.474 113.365 141.008 112.795 142.231 113.016C142.544 113.071 142.875 113.071 143.188 113.016C144.724 112.731 145.423 113.439 145.92 114.874C148.063 120.945 150.317 126.97 152.524 133.023C152.699 133.51 152.837 134.007 153.058 134.724V134.706ZM143.105 119.501C142.958 119.519 142.811 119.528 142.664 119.547C141.992 121.552 141.321 123.548 140.631 125.627H145.248C144.485 123.447 143.795 121.478 143.105 119.501Z" fill="#5B4CFF"/>
<path d="M281 123.76C281 120.669 281.037 117.579 280.981 114.497C280.963 113.439 281.221 112.943 282.398 112.998C285.167 113.117 287.963 112.887 290.695 113.255C296.039 113.964 298.615 119.032 296.306 123.889C295.193 126.244 293.179 127.311 290.723 127.614C289.407 127.78 288.064 127.752 286.73 127.734C285.829 127.725 285.498 128.065 285.525 128.957C285.571 130.502 285.516 132.048 285.544 133.593C285.562 134.393 285.277 134.697 284.44 134.743C281 134.955 281 134.982 281 131.597C281 128.985 281 126.382 281 123.769V123.76ZM285.535 120.375C285.535 124.441 285.709 124.597 289.518 123.88C291.642 123.484 292.608 122.058 292.305 119.795C292.01 117.597 290.18 116.576 286.767 116.806C284.532 116.962 285.921 118.747 285.544 119.74C285.47 119.924 285.535 120.163 285.535 120.375Z" fill="#5B4CFF"/>
<path d="M73.9523 113.108H78.2571C78.2847 113.743 78.34 114.359 78.34 114.985C78.34 119.777 78.3768 124.57 78.3216 129.362C78.3124 130.53 78.6527 130.963 79.8669 130.917C82.4148 130.834 84.9629 130.889 87.4189 130.889C87.5753 131.11 87.6764 131.193 87.6856 131.285C87.9247 133.578 86.916 134.722 84.6593 134.716C81.4583 134.716 78.2664 134.697 75.0653 134.716C74.2558 134.716 73.7683 134.578 73.7775 133.593C73.8051 126.989 73.7959 120.384 73.8051 113.78C73.8051 113.577 73.8879 113.375 73.9523 113.099V113.108Z" fill="#5B4CFF"/>
</svg>
