<svg width="147" height="163" viewBox="0 0 147 163" fill="none" xmlns="http://www.w3.org/2000/svg">
<path d="M0.574219 9.07388C4.33941 6.36107 8.07341 3.67944 11.9555 0.888672C13.5536 2.86092 15.1439 4.72402 16.6172 6.68068C17.2097 7.47581 17.6228 7.54598 18.3634 6.93014C20.0394 5.52696 21.7778 4.18613 23.4694 2.79075C24.7868 1.70718 26.268 1.49671 27.905 1.72278C33.8451 2.55689 37.587 6.04924 39.7229 11.4671C40.9078 14.4761 41.4613 17.6489 41.204 20.845C41.0637 22.599 40.4791 24.3997 39.7151 25.99C37.5636 30.4646 34.3986 34.1518 30.4073 37.1141C28.1233 38.8135 25.621 39.8347 22.6899 39.6164C21.2477 39.5073 19.7822 39.6008 18.2075 39.6008V50.2104H3.94963C3.92625 49.7661 3.87948 49.2827 3.87948 48.7994C3.87948 38.4237 3.80931 28.0402 3.91844 17.6644C3.94963 14.6554 3.34938 12.0439 1.19004 9.8846C0.979564 9.67412 0.83146 9.39349 0.589801 9.06608L0.574219 9.07388ZM18.1607 28.009C19.7354 28.009 21.0762 27.9778 22.417 28.0168C23.5785 28.048 24.4438 27.5491 24.9817 26.5746C26.6266 23.6124 26.7981 20.4942 25.6287 17.3604C24.9427 15.5207 22.9627 14.8035 21.1386 15.5363C20.4292 15.8169 19.7588 16.2067 19.0416 16.4873C18.379 16.7524 18.1217 17.1577 18.1451 17.8827C18.1919 19.5665 18.1607 21.2581 18.1607 22.9497C18.1607 24.6258 18.1607 26.3096 18.1607 28.009Z" fill="#5B4CFF"/>
<path d="M0.636719 119.847C4.36294 117.165 8.07357 114.499 11.9479 111.708C13.5226 113.634 15.0661 115.474 16.555 117.368C17.3813 118.428 17.4515 118.475 18.5273 117.586C19.8915 116.464 21.318 115.404 22.6199 114.211C24.5765 112.41 26.7826 112.168 29.2694 112.761C34.5313 114.008 37.8132 117.391 39.7308 122.271C40.9157 125.28 41.477 128.453 41.212 131.649C41.0638 133.434 40.4714 135.282 39.6763 136.903C37.5481 141.292 34.4299 144.933 30.5088 147.856C28.1936 149.587 25.6757 150.654 22.69 150.421C21.2479 150.304 19.7901 150.397 18.1765 150.397C18.1765 151.785 18.1765 153.001 18.1765 154.225C18.1765 156.189 18.2076 158.146 18.1453 160.11C18.1375 160.446 17.7633 161.054 17.5528 161.061C13.0627 161.116 8.56468 161.1 3.87962 161.1V159.565C3.87962 149.22 3.80945 138.876 3.91859 128.539C3.94977 125.491 3.35733 122.84 1.15122 120.658C1.0187 120.525 0.909552 120.361 0.800416 120.206C0.753644 120.143 0.738067 120.065 0.644522 119.839L0.636719 119.847ZM18.2544 138.844C19.6732 138.844 21.014 138.829 22.347 138.844C23.5943 138.868 24.5064 138.33 25.0754 137.262C26.6111 134.354 26.7904 131.306 25.6757 128.25C24.9897 126.356 22.994 125.608 21.1153 126.364C20.4059 126.652 19.7356 127.042 19.0184 127.315C18.3246 127.572 18.1453 128.024 18.1531 128.726C18.1842 131.758 18.1609 134.791 18.1686 137.815C18.1686 138.151 18.2154 138.486 18.2466 138.837L18.2544 138.844Z" fill="#5B4CFF"/>
<path d="M38.9985 98.7213C35.3658 101.419 31.7643 104.085 28.0693 106.829C26.6739 105.192 25.2707 103.656 24.0157 102.019C23.3063 101.099 22.8386 101.185 22.1214 101.941C20.9833 103.141 19.7438 104.241 18.5901 105.425C17.4129 106.626 16.0487 106.977 14.3961 106.751C8.88474 106.018 5.07277 103.017 2.70295 98.0977C1.01914 94.5976 0.395502 90.8402 0.629365 86.9892C0.715115 85.6094 1.19065 84.1906 1.76752 82.9122C3.88787 78.196 7.06839 74.2826 11.1766 71.1489C11.9639 70.5486 12.8448 70.0497 13.7257 69.5742C15.5265 68.6076 17.374 68.4673 19.2761 69.3248C20.1492 69.7145 21.0456 70.0497 22.0512 70.4551C22.3631 67.298 22.441 64.3513 19.4242 62.1607C23.1972 59.9001 26.7831 57.7563 30.5015 55.519C32.9025 59.1673 35.9739 62.2777 35.8258 67.1966C35.5919 74.8751 35.8414 82.577 35.7244 90.2633C35.6777 93.2022 36.3325 95.7201 38.4216 97.8249C38.5854 97.9886 38.7101 98.1835 38.8504 98.3706C38.8972 98.4329 38.9128 98.5109 39.0141 98.7213H38.9985ZM21.8018 87.2309C21.8018 85.3522 21.8018 83.4735 21.8018 81.587C21.8018 81.548 21.8096 81.509 21.8018 81.47C21.6926 81.1738 21.6615 80.7295 21.451 80.6048C20.4376 80.0123 17.8027 80.2929 16.9608 81.0569C15.6902 82.2106 14.895 83.6294 14.856 85.3834C14.8249 86.958 14.7859 88.5327 14.8716 90.0996C14.934 91.1598 15.0977 92.2434 15.4251 93.2568C15.9786 94.9873 17.257 95.5564 18.9642 94.9795C19.6892 94.7301 20.4298 94.4806 21.0768 94.0909C21.412 93.8882 21.755 93.3737 21.7628 92.9839C21.833 91.0662 21.794 89.1486 21.794 87.2309H21.8018Z" fill="#5B4CFF"/>
<path d="M97.4172 129.163C98.0564 128.781 98.4618 128.609 98.7814 128.337C100.013 127.292 101.229 126.224 102.414 125.133C103.326 124.299 104.355 124.01 105.587 124.104C110.669 124.486 114.481 126.926 116.68 131.447C120.001 138.284 120.445 145.159 115.682 151.606C113.983 153.913 112.018 156.057 109.983 158.076C105.205 162.808 99.5922 163.128 93.6598 160.672C87.4547 158.1 84.4378 153.11 83.6972 146.664C83.3854 143.966 83.4868 141.215 83.4634 138.486C83.4322 134.526 83.3932 130.566 83.479 126.606C83.5335 124.244 82.8865 122.217 81.2885 120.487C80.8987 120.066 80.5713 119.598 80.1191 119.037C83.8064 116.3 87.4313 113.611 91.2432 110.781C92.9972 113.05 94.8214 115.147 96.3103 117.462C97.0119 118.553 97.2847 120.05 97.3704 121.383C97.5342 123.823 97.4172 126.286 97.4172 129.155V129.163ZM97.4172 142.953C97.4172 142.953 97.4484 142.953 97.464 142.953C97.464 143.912 97.3393 144.894 97.4952 145.83C97.6745 146.905 97.9161 148.059 98.4774 148.971C99.787 151.107 102.835 151.091 103.817 148.971C105.213 145.946 105.244 142.774 104.215 139.64C103.724 138.159 102.126 137.348 100.668 137.808C99.5844 138.151 98.4072 138.603 97.6355 139.367C97.1911 139.804 97.464 140.965 97.4328 141.807C97.4172 142.189 97.4328 142.579 97.4328 142.961L97.4172 142.953Z" fill="#5B4CFF"/>
<path d="M69.8602 162.192C68.3635 160.391 66.9291 158.739 65.5961 157.008C64.9803 156.213 64.5281 156.213 63.8421 156.883C62.4156 158.279 60.911 159.604 59.4923 161.015C58.2684 162.223 56.9276 162.387 55.3685 161.802C51.6734 160.415 48.7658 157.959 46.0296 155.207C42.8256 151.996 42.0695 148.223 42.7945 143.873C43.9404 136.974 44.8836 130.044 45.9204 123.121C45.9516 122.895 46.0218 122.685 46.1075 122.334C50.7926 123.355 55.4309 124.376 60.2328 125.421C59.8275 127.534 59.4299 129.592 59.0323 131.65C58.2528 135.649 57.4577 139.648 56.7015 143.647C56.2026 146.266 57.6759 148.807 60.2017 149.766C61.6594 150.32 63.6161 149.026 63.6161 147.498C63.6161 140.536 63.6161 133.575 63.6161 126.614C63.6161 126.162 63.6161 125.709 63.6161 125.179H77.5777C77.5777 125.624 77.5777 126.068 77.5777 126.512C77.5777 132.897 77.6712 139.281 77.5387 145.666C77.4763 148.573 78.1545 151.052 80.1969 153.126C80.384 153.313 80.5322 153.547 80.6881 153.765C80.727 153.82 80.7426 153.906 80.805 154.085C77.2269 156.735 73.6254 159.409 69.868 162.2L69.8602 162.192Z" fill="#5B4CFF"/>
<path d="M41.1174 32.5539C40.9303 30.8155 41.6553 28.8043 42.6765 26.8788C44.9138 22.6693 48.1255 19.3328 51.7426 16.2536C58.852 10.2121 69.8124 14.4217 73.2502 20.0734C75.7213 24.1426 76.6178 28.5626 76.3372 33.2087C76.2436 34.721 75.5654 36.2723 74.8638 37.6521C72.7123 41.9006 69.4538 45.2215 65.8445 48.3084C58.6571 54.4513 47.3459 50.1716 43.9471 43.9898C42.0606 40.5598 41.2421 36.9115 41.1096 32.5539H41.1174ZM62.1495 32.4447C62.0637 31.2053 62.0637 30.1996 61.9156 29.2174C61.7753 28.2742 61.596 27.3075 61.2374 26.4422C60.5124 24.7039 58.9221 24.3687 57.5346 25.6159C57.0045 26.0992 56.412 26.6527 56.1782 27.2997C54.8218 31.1039 55.1336 34.9159 56.5913 38.5953C57.1292 39.9439 58.6415 40.0921 59.803 39.1644C61.2842 37.9795 62.1417 36.4438 62.1495 34.5027C62.1495 33.7388 62.1495 32.967 62.1495 32.4447Z" fill="#5B4CFF"/>
<path d="M54.0739 90.3647C54.4247 91.5807 54.6118 92.563 54.986 93.4672C55.8825 95.65 57.5273 96.4607 59.827 95.8448C62.9452 95.0029 66.04 94.0831 69.1425 93.2022C69.5089 93.1009 69.8831 93.0073 70.421 92.867C71.3019 96.5542 72.1672 100.187 73.0948 104.108C69.7818 104.864 66.5934 105.706 63.3583 106.299C60.0219 106.907 56.6309 107.109 53.2554 106.501C46.0135 105.192 41.6324 100.413 40.2293 92.8124C39.2782 87.6752 40.2994 83.1617 43.3942 79.0067C45.7328 75.8652 48.3287 73.0042 51.6184 70.8449C60.0764 65.279 72.058 70.8995 73.2351 80.9478C73.5548 83.6918 73.3287 86.389 72.7908 89.0784C72.6271 89.9125 72.2919 90.201 71.4344 90.201C66.2426 90.2243 61.0509 90.3023 55.8591 90.3569C55.368 90.3569 54.8769 90.3569 54.0739 90.3569V90.3647ZM53.9492 84.7909C56.1709 84.5259 58.3692 84.2842 60.5676 83.988C60.7391 83.9646 61.0041 83.5281 60.9651 83.3332C60.7391 82.2106 60.5909 81.0413 60.1232 80.0201C59.3671 78.3597 57.4026 77.9777 55.9526 79.0769C54.0739 80.4956 53.4971 82.3899 53.9492 84.7909Z" fill="#5B4CFF"/>
<path d="M117.38 30.3478C117.162 28.968 117.217 27.7129 116.733 26.7073C116.196 25.5848 115.042 25.1638 113.678 25.4289C111.238 25.9122 108.774 26.2942 106.163 26.7463C105.695 22.755 105.235 18.8573 104.76 14.8115C107.917 14.4139 110.918 14.0241 113.919 13.6656C115.065 13.5252 116.227 13.5252 117.365 13.3303C119.017 13.0497 120.467 13.4785 121.871 14.3204C124.755 16.0587 127.39 18.0934 129.557 20.6892C130.407 21.7026 130.812 22.8096 130.789 24.1738C130.718 27.7051 130.859 31.2521 130.734 34.7834C130.633 37.6677 131.311 40.1778 133.377 42.2514C133.618 42.4931 133.79 42.7971 134.102 43.2103C130.578 45.9075 127.086 48.5813 123.476 51.3487C122.143 49.7896 120.834 48.3007 119.571 46.7728C118.534 45.5177 118.558 45.5021 117.248 46.5545C115.689 47.8018 114.122 49.0412 112.563 50.2963C110.988 51.567 109.351 51.6215 107.652 50.577C104.003 48.3397 101.119 45.3462 99.0066 41.6434C98.609 40.9496 98.4453 40.0375 98.4453 39.2268C98.4531 36.3659 99.2638 33.7076 100.644 31.1975C101.033 30.4959 101.493 30.262 102.281 30.2698C106.74 30.3244 111.199 30.3244 115.658 30.34C116.11 30.34 116.562 30.34 117.373 30.34L117.38 30.3478ZM117.186 35.5707C115.471 35.8436 113.95 36.0618 112.446 36.3503C112.142 36.4126 111.729 36.7244 111.659 36.9895C111.464 37.7612 111.347 38.5798 111.347 39.3749C111.347 40.4585 112.423 41.7525 113.186 41.4952C114.481 41.0509 115.697 40.3727 116.928 39.7569C117.076 39.6789 117.17 39.3671 117.178 39.1644C117.201 38.0185 117.186 36.8804 117.186 35.5707Z" fill="#5B4CFF"/>
<path d="M73.5859 63.6262C77.2498 60.9056 80.8279 58.2473 84.5619 55.4722C87.3137 59.0503 91.0633 61.8099 90.8762 67.1341C90.6034 74.8126 90.8762 82.5067 90.7671 90.193C90.7281 93.1163 91.3595 95.6576 93.4487 97.7624C93.6825 98.0041 93.8541 98.3081 94.1191 98.6745C90.4708 101.387 86.8693 104.061 83.1665 106.813C81.1319 104.396 78.8011 102.276 77.5148 99.3917C77.0939 98.4484 76.9379 97.3103 76.9302 96.2579C76.8834 88.2208 76.8366 80.1915 76.9458 72.1544C76.9847 69.1843 76.3455 66.6118 74.2251 64.4759C74.0147 64.2654 73.8666 63.9926 73.5781 63.6106L73.5859 63.6262Z" fill="#5B4CFF"/>
<path d="M97.4237 43.2023C93.7443 45.9307 90.1506 48.6045 86.3074 51.4577C84.4911 49.0411 82.6202 46.757 81.0144 44.2937C80.4141 43.366 80.227 42.033 80.2192 40.8793C80.1568 32.7642 80.1101 24.657 80.2192 16.5419C80.2582 13.6498 79.6112 11.1553 77.561 9.08168C77.3193 8.84002 77.1478 8.536 76.8594 8.15402C80.492 5.4568 84.0935 2.78297 87.8431 0C89.9245 2.58029 92.4659 4.763 93.6819 7.92016C94.0171 8.78545 94.0873 9.79886 94.0873 10.7499C94.1185 18.6311 94.1886 26.5123 94.0639 34.3935C94.0171 37.5194 94.6096 40.2556 96.8937 42.4851C97.0574 42.641 97.1665 42.8515 97.4159 43.2101L97.4237 43.2023Z" fill="#5B4CFF"/>
<path d="M134.819 131.026C134.6 131.143 134.577 131.174 134.538 131.182C132.542 131.41 131.545 130.542 131.545 128.578C131.545 127.268 131.591 125.959 131.529 124.657C131.482 123.737 131.28 122.817 131.116 121.671C131.669 121.297 132.449 120.767 133.345 120.159C133.798 120.642 134.234 121.102 134.694 121.593C134.873 121.476 135.029 121.383 135.177 121.274C136.713 120.151 138.108 120.159 139.161 121.289C140.252 122.466 140.338 124.743 139.106 125.803C138.249 126.543 138.397 127.019 138.943 127.775C139.699 128.827 140.361 129.942 141.086 131.065C143.191 128.5 143.035 122.989 140.884 120.502C138.904 118.218 134.398 117.703 131.498 119.481C128.894 121.079 128.302 123.659 128.278 126.465C128.278 127.073 128.341 127.697 128.465 128.297C129.112 131.377 130.866 133.31 134.218 133.59V136.989C130.633 137.48 126.758 135.095 125.176 131.431C122.026 124.135 126.01 114.273 136.76 114.842C143.511 115.201 147.783 120.767 146.535 127.557C146.114 129.825 145.194 131.868 143.822 133.723C143.347 134.362 142.918 134.471 142.092 134.331C139.574 133.894 137.828 132.671 136.916 130.246C136.619 129.467 136.019 128.804 135.692 128.032C135.357 127.237 134.865 126.419 136.113 125.725C136.456 125.53 136.245 124.322 136.23 123.581C136.23 123.55 135.606 123.402 135.419 123.527C135.154 123.698 134.858 124.072 134.85 124.368C134.795 126.177 134.827 127.978 134.819 129.786C134.819 130.199 134.819 130.62 134.819 131.01V131.026Z" fill="#5B4CFF"/>
</svg>
