<?xml version="1.0" encoding="UTF-8"?><svg id="Layer_2" xmlns="http://www.w3.org/2000/svg" viewBox="0 0 1828.15 627.4"><defs><style>.cls-1{fill:#5b4cff;}</style></defs><g id="Layer_1-2"><g><g><path d="M5.96,376.14h12.72l41.48,63.61,5.17,8.88v-72.49h12.19v90.11h-12.72l-41.35-63.21-5.3-9.28v72.49H5.96v-90.11Z"/><path d="M93.56,431.13c0-23.85,12.46-36.97,32.2-36.97s32.2,14.05,32.2,36.97-12.46,36.71-32.2,36.71-32.2-13.78-32.2-36.71Zm52.48,0c0-17.09-7.29-26.9-20.28-26.9s-20.27,9.54-20.27,26.9,7.29,26.64,20.27,26.64,20.28-9.41,20.28-26.64Z"/><path d="M195.87,431.13c0-23.85,11.53-36.97,29.95-36.97,8.35,0,15.11,3.45,19.75,9.94v-8.22h11.66v99.52h-11.66v-38.03c-4.64,6.63-11.4,10.47-19.75,10.47-18.69,0-29.95-13.78-29.95-36.71Zm49.7,0c0-17.09-6.89-26.9-18.95-26.9s-18.82,9.54-18.82,26.9,6.89,26.64,18.82,26.64,18.95-9.41,18.95-26.64Z"/><path d="M320.7,395.88h11.66v70.37h-11.66v-9.54c-4.77,7.42-12.19,11.13-21.34,11.13-14.71,0-23.46-8.61-23.46-24.91v-47.04h11.66v44.66c0,10.6,4.64,17.36,14.98,17.36,11.4,0,18.15-10.34,18.15-20.41v-41.61Z"/><path d="M380.08,467.84c-20.41,0-32.73-13.78-32.73-36.71s12.32-36.97,32.07-36.97,31.8,13.65,31.8,36.05v2.92h-51.95c.66,15.77,8.08,24.65,20.81,24.65,9.94,0,16.96-4.77,19.48-14.44h12.19c-3.84,16.43-15.64,24.52-31.67,24.52Zm-20.41-43.47h39.36c-1.59-12.99-8.61-20.14-19.61-20.14s-18.02,7.02-19.74,20.14Z"/><path d="M426.72,395.88h11.66v10.87c4.77-8.61,12.32-12.59,20.81-12.59,2.78,0,5.3,.66,6.63,1.72v10.47c-1.99-.66-4.51-.93-7.29-.93-14.05,0-20.14,8.75-20.14,21.47v39.36h-11.66v-70.37Z"/><path d="M503.98,467.84c-20.41,0-32.73-13.78-32.73-36.71s12.32-36.97,32.07-36.97,31.8,13.65,31.8,36.05v2.92h-51.95c.66,15.77,8.08,24.65,20.81,24.65,9.94,0,16.96-4.77,19.48-14.44h12.19c-3.84,16.43-15.64,24.52-31.67,24.52Zm-20.41-43.47h39.36c-1.59-12.99-8.61-20.14-19.61-20.14s-18.02,7.02-19.74,20.14Z"/><path d="M550.63,395.88h11.66v9.01c4.51-7.16,11.53-10.73,20.14-10.73,9.67,0,16.7,4.24,20.01,12.46,4.64-8.22,12.32-12.46,21.73-12.46,14.31,0,22.93,8.75,22.93,25.05v47.04h-11.66v-44.66c0-10.6-4.24-17.49-13.78-17.49-10.6,0-16.96,10.47-16.96,20.54v41.61h-11.66v-44.66c0-10.6-4.24-17.49-13.78-17.49-10.6,0-16.96,10.47-16.96,20.54v41.61h-11.66v-70.37Z"/><path d="M662.08,431.13c0-23.85,12.46-36.97,32.2-36.97s32.2,14.05,32.2,36.97-12.46,36.71-32.2,36.71-32.2-13.78-32.2-36.71Zm52.48,0c0-17.09-7.29-26.9-20.28-26.9s-20.28,9.54-20.28,26.9,7.29,26.64,20.28,26.64,20.28-9.41,20.28-26.64Z"/><path d="M795.8,446.37c0,13.12-11.66,21.47-28.23,21.47s-28.36-7.95-31.01-24.52h11.66c1.59,9.81,8.88,15.24,19.74,15.24s16.17-4.77,16.17-11.4c0-19.22-45.19-3.31-45.19-32.47,0-10.73,8.35-20.54,25.58-20.54,15.24,0,26.5,7.16,28.76,24.65h-11.66c-1.72-11-7.82-15.11-17.76-15.11-8.75,0-13.78,4.37-13.78,10.2,0,19.61,45.72,3.45,45.72,32.47Z"/><path d="M836.22,370.84h11.66v95.41h-11.66v-95.41Z"/><path d="M866.43,370.84h11.66v95.41h-11.66v-95.41Z"/><path d="M925.8,467.84c-20.41,0-32.73-13.78-32.73-36.71s12.32-36.97,32.07-36.97,31.8,13.65,31.8,36.05v2.92h-51.95c.66,15.77,8.08,24.65,20.8,24.65,9.94,0,16.96-4.77,19.48-14.44h12.19c-3.84,16.43-15.64,24.52-31.67,24.52Zm-20.41-43.47h39.36c-1.59-12.99-8.61-20.14-19.61-20.14s-18.02,7.02-19.75,20.14Z"/><path d="M968.88,430.6c0-23.59,11-36.44,28.62-36.44,9.41,0,16.43,3.31,21.07,9.41v-7.69h11.66v72.49c0,19.61-12.59,28.76-28.76,28.76s-28.23-7.95-30.74-23.99h11.66c1.46,9.28,8.75,14.31,18.95,14.31s17.23-5.57,17.23-18.69v-12.06c-4.9,6.63-12.06,10.07-21.07,10.07-17.89,0-28.62-13.65-28.62-36.18Zm49.69-.13c0-16.56-6.89-26.24-18.95-26.24s-18.82,9.28-18.82,26.37,6.76,26.11,18.82,26.11,18.95-9.28,18.95-26.24Z"/><path d="M1047.99,418.81c2.25-15.5,12.46-24.65,29.68-24.65,18.82,0,27.96,11,27.96,27.43v27.7c0,8.08,.66,13.12,2.52,16.96h-12.32c-1.32-2.78-1.72-6.89-1.85-11.13-5.96,8.88-15.5,12.72-23.99,12.72-14.58,0-24.38-6.76-24.38-20.14,0-9.67,5.3-16.7,15.64-20.14,9.54-3.18,19.22-3.98,32.73-4.11v-1.59c0-11.4-5.3-17.62-17.36-17.62-10.07,0-15.51,5.57-16.96,14.58h-11.66Zm23.19,38.96c12.99,0,22.79-10.2,22.79-22.26v-3.31c-29.95,.26-36.44,6.63-36.44,15.24,0,6.49,5.43,10.34,13.65,10.34Z"/><path d="M1124.72,395.88h11.66v10.87c4.77-8.61,12.32-12.59,20.8-12.59,2.78,0,5.3,.66,6.63,1.72v10.47c-1.99-.66-4.51-.93-7.29-.93-14.05,0-20.14,8.75-20.14,21.47v39.36h-11.66v-70.37Z"/><path d="M1199.73,418.81c2.25-15.5,12.46-24.65,29.68-24.65,18.82,0,27.96,11,27.96,27.43v27.7c0,8.08,.66,13.12,2.52,16.96h-12.32c-1.32-2.78-1.72-6.89-1.85-11.13-5.96,8.88-15.5,12.72-23.99,12.72-14.58,0-24.38-6.76-24.38-20.14,0-9.67,5.3-16.7,15.64-20.14,9.54-3.18,19.22-3.98,32.73-4.11v-1.59c0-11.4-5.3-17.62-17.36-17.62-10.07,0-15.51,5.57-16.96,14.58h-11.66Zm23.19,38.96c12.99,0,22.79-10.2,22.79-22.26v-3.31c-29.95,.26-36.44,6.63-36.44,15.24,0,6.49,5.43,10.34,13.65,10.34Z"/><path d="M1302.96,370.84h11.66v95.41h-11.66v-95.41Z"/><path d="M1332.25,418.81c2.25-15.5,12.46-24.65,29.68-24.65,18.82,0,27.96,11,27.96,27.43v27.7c0,8.08,.66,13.12,2.52,16.96h-12.32c-1.32-2.78-1.72-6.89-1.85-11.13-5.96,8.88-15.5,12.72-23.99,12.72-14.58,0-24.38-6.76-24.38-20.14,0-9.67,5.3-16.7,15.64-20.14,9.54-3.18,19.22-3.98,32.73-4.11v-1.59c0-11.4-5.3-17.62-17.36-17.62-10.07,0-15.51,5.57-16.96,14.58h-11.66Zm23.19,38.96c12.99,0,22.79-10.2,22.79-22.26v-3.31c-29.95,.26-36.44,6.63-36.44,15.24,0,6.49,5.43,10.34,13.65,10.34Z"/><path d="M1435.48,395.88h11.66v9.01c4.51-7.16,11.53-10.73,20.14-10.73,9.67,0,16.7,4.24,20.01,12.46,4.64-8.22,12.32-12.46,21.73-12.46,14.31,0,22.93,8.75,22.93,25.05v47.04h-11.66v-44.66c0-10.6-4.24-17.49-13.78-17.49-10.6,0-16.96,10.47-16.96,20.54v41.61h-11.66v-44.66c0-10.6-4.24-17.49-13.78-17.49-10.6,0-16.96,10.47-16.96,20.54v41.61h-11.66v-70.37Z"/><path d="M1579.67,467.84c-20.41,0-32.73-13.78-32.73-36.71s12.32-36.97,32.07-36.97,31.8,13.65,31.8,36.05v2.92h-51.95c.66,15.77,8.08,24.65,20.8,24.65,9.94,0,16.96-4.77,19.48-14.44h12.19c-3.84,16.43-15.64,24.52-31.67,24.52Zm-20.41-43.47h39.36c-1.59-12.99-8.61-20.14-19.61-20.14s-18.02,7.02-19.75,20.14Z"/><path d="M1626.32,395.88h11.66v9.54c4.77-7.42,12.46-11.26,21.73-11.26,14.98,0,23.85,8.75,23.85,25.05v47.04h-11.66v-44.66c0-10.6-4.77-17.49-15.37-17.49-11.66,0-18.55,10.47-18.55,20.54v41.61h-11.66v-70.37Z"/><path d="M1703.71,405.16h-9.81v-9.28h9.81v-16.17h11.66v16.17h15.5v9.28h-15.5v40.82c0,8.48,2.52,12.46,12.85,12.46h2.39v8.35c-1.33,.66-4.24,1.06-7.55,1.06-13.12,0-19.35-7.02-19.35-21.87v-40.82Z"/><path d="M1771.16,467.84c-20.41,0-32.73-13.78-32.73-36.71s12.32-36.97,32.07-36.97,31.8,13.65,31.8,36.05v2.92h-51.95c.66,15.77,8.08,24.65,20.8,24.65,9.94,0,16.96-4.77,19.48-14.44h12.19c-3.84,16.43-15.64,24.52-31.67,24.52Zm-20.41-43.47h39.36c-1.59-12.99-8.61-20.14-19.61-20.14s-18.02,7.02-19.75,20.14Z"/><path d="M1813.84,451.94h14.31v7.69c0,12.32-1.99,19.88-6.63,28.49h-6.62c3.05-7.95,4.77-13.65,4.77-21.87h-5.83v-14.31Z"/><path d="M59.24,605.4c0,13.12-11.66,21.47-28.23,21.47s-28.36-7.95-31.01-24.52H11.66c1.59,9.81,8.88,15.24,19.74,15.24s16.17-4.77,16.17-11.4c0-19.22-45.19-3.31-45.19-32.47,0-10.73,8.35-20.54,25.58-20.54,15.24,0,26.5,7.16,28.76,24.65h-11.66c-1.72-11-7.82-15.11-17.76-15.11-8.75,0-13.78,4.37-13.78,10.2,0,19.61,45.72,3.45,45.72,32.47Z"/><path d="M73.15,529.87h11.66v15.64h-11.66v-15.64Zm0,25.05h11.66v70.37h-11.66v-70.37Z"/><path d="M103.37,554.91h11.66v9.54c4.77-7.42,12.46-11.26,21.73-11.26,14.97,0,23.85,8.75,23.85,25.05v47.04h-11.66v-44.66c0-10.6-4.77-17.49-15.37-17.49-11.66,0-18.55,10.47-18.55,20.54v41.61h-11.66v-70.37Z"/><path d="M175.59,590.16c0-23.85,12.46-36.97,32.2-36.97s32.2,14.05,32.2,36.97-12.46,36.71-32.2,36.71-32.2-13.78-32.2-36.71Zm52.48,0c0-17.09-7.29-26.9-20.28-26.9s-20.27,9.54-20.27,26.9,7.29,26.64,20.27,26.64,20.28-9.41,20.28-26.64Z"/><path class="cls-1" d="M278.69,577.57c2.12-16.03,14.44-25.84,32.73-25.84,20.41,0,31.01,11.93,31.01,28.49v27.3c0,9.28,.79,14.05,1.99,17.76h-20.94c-.66-2.39-1.06-5.43-1.19-8.88-5.57,7.69-14.05,11-22.53,11-13.52,0-23.59-6.89-23.59-20.54,0-9.67,5.57-17.1,16.83-21.07,9.28-3.05,18.16-3.98,29.15-4.11v-1.59c0-7.82-3.84-11.93-11.66-11.93-6.89,0-10.6,3.84-11.53,9.41h-20.28Zm27.3,35.78c9.01,0,16.17-7.29,16.17-17.09v-2.78c-20.54,.4-25.71,5.43-25.71,12.06,0,4.77,3.58,7.82,9.54,7.82Z"/><path class="cls-1" d="M356.88,529.87h20.28v95.41h-20.28v-95.41Z"/><path class="cls-1" d="M459.06,579.69c-1.33-8.35-6.1-11.53-11.93-11.53-9.01,0-13.65,7.55-13.65,21.47s4.9,21.34,14.18,21.34c6.1,0,10.34-3.45,11.79-10.07h20.28c-3.05,17.89-15.9,26.5-32.47,26.5-21.34,0-34.59-14.44-34.59-37.77s13.52-37.9,34.45-37.9c16.56,0,29.68,9.28,32.2,27.96h-20.28Z"/><path class="cls-1" d="M487.02,589.63c0-24.25,13.78-37.9,34.99-37.9s35.12,14.58,35.12,37.9-13.91,37.77-35.12,37.77-34.99-14.31-34.99-37.77Zm49.3,0c0-13.78-5.04-21.47-14.31-21.47s-14.18,7.55-14.18,21.47,5.04,21.34,14.18,21.34,14.31-7.42,14.31-21.34Z"/><path class="cls-1" d="M567.86,553.99h20.28v9.94c4.51-8.48,11.4-12.19,18.69-12.19,2.91,0,5.57,.79,7.02,2.25v17.09c-2.38-.53-4.9-.8-8.08-.8-12.19,0-17.63,6.89-17.63,18.16v36.84h-20.28v-71.3Z"/><path class="cls-1" d="M621,577.57c2.12-16.03,14.44-25.84,32.73-25.84,20.41,0,31.01,11.93,31.01,28.49v27.3c0,9.28,.8,14.05,1.99,17.76h-20.94c-.66-2.39-1.06-5.43-1.19-8.88-5.56,7.69-14.05,11-22.53,11-13.52,0-23.59-6.89-23.59-20.54,0-9.67,5.56-17.1,16.83-21.07,9.27-3.05,18.15-3.98,29.15-4.11v-1.59c0-7.82-3.84-11.93-11.66-11.93-6.89,0-10.6,3.84-11.53,9.41h-20.28Zm27.3,35.78c9.01,0,16.17-7.29,16.17-17.09v-2.78c-20.54,.4-25.71,5.43-25.71,12.06,0,4.77,3.58,7.82,9.54,7.82Z"/><path class="cls-1" d="M696.27,609.91l36.58-40.55h-35.12v-15.37h59.1v15.37l-36.58,40.55h38.7v15.37h-62.68v-15.37Z"/><path class="cls-1" d="M764.79,589.63c0-24.25,13.78-37.9,34.98-37.9s35.12,14.58,35.12,37.9-13.91,37.77-35.12,37.77-34.98-14.31-34.98-37.77Zm49.3,0c0-13.78-5.04-21.47-14.31-21.47s-14.18,7.55-14.18,21.47,5.04,21.34,14.18,21.34,14.31-7.42,14.31-21.34Zm-13.92-59.77h21.6l-13.52,16.96h-17.76l9.67-16.96Z"/><path class="cls-1" d="M845.62,553.99h20.28v9.41c4.64-7.95,11.93-11.66,20.67-11.66,13.65,0,23.85,8.35,23.85,25.97v47.57h-20.28v-43.47c0-9.01-3.58-13.65-11-13.65-8.08,0-13.25,7.02-13.25,16.17v40.95h-20.28v-71.3Z"/><path class="cls-1" d="M923.68,603.94h21.2v21.34h-21.2v-21.34Z"/></g><path class="cls-1" d="M157.98,0V71.57C77.68,75.06,24.44,104.74,7.86,152.74H157.1v150.99H0v-123.94C0,75.94,58.48,7.86,157.98,0Zm52.36,152.74h149.25v150.99H202.49v-123.94C202.49,75.94,260.97,7.86,360.46,0V71.57c-80.3,3.49-133.54,33.17-150.12,81.17Z"/></g></g></svg>