<svg width="1003" height="1333" viewBox="0 0 1003 1333" fill="none" xmlns="http://www.w3.org/2000/svg">
<g opacity="0.25">
<g clip-path="url(#clip0_573_1619)">
<path d="M334.383 998.221L334.383 0.287109L0.288788 0.287095L0.288744 998.221L334.383 998.221Z" stroke="black" stroke-width="0.75" stroke-miterlimit="10"/>
<path d="M286.657 998.221L286.657 0.287109" stroke="black" stroke-width="0.75" stroke-miterlimit="10"/>
<path d="M238.932 998.221L238.932 0.287109" stroke="black" stroke-width="0.75" stroke-miterlimit="10"/>
<path d="M191.206 998.221L191.206 0.287109" stroke="black" stroke-width="0.75" stroke-miterlimit="10"/>
<path d="M143.473 998.221L143.473 0.287109" stroke="black" stroke-width="0.75" stroke-miterlimit="10"/>
<path d="M95.7475 998.221L95.7476 0.287109" stroke="black" stroke-width="0.75" stroke-miterlimit="10"/>
<path d="M48.0221 998.221L48.0221 0.287109" stroke="black" stroke-width="0.75" stroke-miterlimit="10"/>
<path d="M0.296576 47.8037L334.383 47.8037" stroke="black" stroke-width="0.75" stroke-miterlimit="10"/>
<path d="M0.296576 95.3213L334.383 95.3213" stroke="black" stroke-width="0.75" stroke-miterlimit="10"/>
<path d="M0.296576 142.846L334.383 142.846" stroke="black" stroke-width="0.75" stroke-miterlimit="10"/>
<path d="M0.296576 190.362L334.383 190.362" stroke="black" stroke-width="0.75" stroke-miterlimit="10"/>
<path d="M0.296576 237.888L334.383 237.888" stroke="black" stroke-width="0.75" stroke-miterlimit="10"/>
<path d="M0.296576 285.404L334.383 285.404" stroke="black" stroke-width="0.75" stroke-miterlimit="10"/>
<path d="M0.296576 332.929L334.383 332.929" stroke="black" stroke-width="0.75" stroke-miterlimit="10"/>
<path d="M0.296576 380.446L334.383 380.446" stroke="black" stroke-width="0.75" stroke-miterlimit="10"/>
<path d="M0.296576 427.971L334.383 427.971" stroke="black" stroke-width="0.75" stroke-miterlimit="10"/>
<path d="M0.296576 475.487L334.383 475.487" stroke="black" stroke-width="0.75" stroke-miterlimit="10"/>
<path d="M0.296576 523.013L334.383 523.013" stroke="black" stroke-width="0.75" stroke-miterlimit="10"/>
<path d="M0.296576 570.529L334.383 570.529" stroke="black" stroke-width="0.75" stroke-miterlimit="10"/>
<path d="M0.296576 618.054L334.383 618.054" stroke="black" stroke-width="0.75" stroke-miterlimit="10"/>
<path d="M0.296576 665.571L334.383 665.571" stroke="black" stroke-width="0.75" stroke-miterlimit="10"/>
<path d="M0.296576 713.096L334.383 713.096" stroke="black" stroke-width="0.75" stroke-miterlimit="10"/>
<path d="M0.296576 760.612L334.383 760.612" stroke="black" stroke-width="0.75" stroke-miterlimit="10"/>
<path d="M0.296576 808.137L334.383 808.137" stroke="black" stroke-width="0.75" stroke-miterlimit="10"/>
<path d="M0.296576 855.654L334.383 855.654" stroke="black" stroke-width="0.75" stroke-miterlimit="10"/>
<path d="M0.296576 903.179L334.383 903.179" stroke="black" stroke-width="0.75" stroke-miterlimit="10"/>
<path d="M0.296576 950.696L334.383 950.696" stroke="black" stroke-width="0.75" stroke-miterlimit="10"/>
</g>
</g>
<g opacity="0.25">
<g clip-path="url(#clip1_573_1619)">
<path d="M1001.72 998.207L0.377808 998.207L0.377808 1332.3L1001.72 1332.3V998.207Z" stroke="black" stroke-width="0.75" stroke-miterlimit="10"/>
<path d="M1001.72 1045.93L0.377808 1045.93" stroke="black" stroke-width="0.75" stroke-miterlimit="10"/>
<path d="M1001.72 1093.66L0.377808 1093.66" stroke="black" stroke-width="0.75" stroke-miterlimit="10"/>
<path d="M1001.72 1141.38L0.377808 1141.38" stroke="black" stroke-width="0.75" stroke-miterlimit="10"/>
<path d="M1001.72 1189.12L0.377808 1189.12" stroke="black" stroke-width="0.75" stroke-miterlimit="10"/>
<path d="M1001.72 1236.84L0.377808 1236.84" stroke="black" stroke-width="0.75" stroke-miterlimit="10"/>
<path d="M1001.72 1284.57L0.377808 1284.57" stroke="black" stroke-width="0.75" stroke-miterlimit="10"/>
<path d="M48.0566 1332.29L48.0566 998.207" stroke="black" stroke-width="0.75" stroke-miterlimit="10"/>
<path d="M95.7365 1332.29L95.7365 998.207" stroke="black" stroke-width="0.75" stroke-miterlimit="10"/>
<path d="M143.423 1332.29L143.423 998.207" stroke="black" stroke-width="0.75" stroke-miterlimit="10"/>
<path d="M191.102 1332.29L191.102 998.207" stroke="black" stroke-width="0.75" stroke-miterlimit="10"/>
<path d="M238.79 1332.29L238.79 998.207" stroke="black" stroke-width="0.75" stroke-miterlimit="10"/>
<path d="M286.469 1332.29L286.469 998.207" stroke="black" stroke-width="0.75" stroke-miterlimit="10"/>
<path d="M334.156 1332.29L334.156 998.207" stroke="black" stroke-width="0.75" stroke-miterlimit="10"/>
<path d="M381.835 1332.29L381.835 998.207" stroke="black" stroke-width="0.75" stroke-miterlimit="10"/>
<path d="M429.522 1332.29L429.522 998.207" stroke="black" stroke-width="0.75" stroke-miterlimit="10"/>
<path d="M477.201 1332.29L477.201 998.207" stroke="black" stroke-width="0.75" stroke-miterlimit="10"/>
<path d="M524.889 1332.29V998.207" stroke="black" stroke-width="0.75" stroke-miterlimit="10"/>
<path d="M572.568 1332.29V998.207" stroke="black" stroke-width="0.75" stroke-miterlimit="10"/>
<path d="M620.254 1332.29V998.207" stroke="black" stroke-width="0.75" stroke-miterlimit="10"/>
<path d="M667.934 1332.29V998.207" stroke="black" stroke-width="0.75" stroke-miterlimit="10"/>
<path d="M715.621 1332.29V998.207" stroke="black" stroke-width="0.75" stroke-miterlimit="10"/>
<path d="M763.3 1332.29V998.207" stroke="black" stroke-width="0.75" stroke-miterlimit="10"/>
<path d="M810.987 1332.29V998.207" stroke="black" stroke-width="0.75" stroke-miterlimit="10"/>
<path d="M858.667 1332.29V998.207" stroke="black" stroke-width="0.75" stroke-miterlimit="10"/>
<path d="M906.353 1332.29V998.207" stroke="black" stroke-width="0.75" stroke-miterlimit="10"/>
<path d="M954.033 1332.29V998.207" stroke="black" stroke-width="0.75" stroke-miterlimit="10"/>
</g>
</g>
<g opacity="0.25">
<g clip-path="url(#clip2_573_1619)">
<path d="M668.271 998.221L668.271 0.287109L334.177 0.287095L334.177 998.221L668.271 998.221Z" stroke="black" stroke-width="0.75" stroke-miterlimit="10"/>
<path d="M620.546 998.221L620.546 0.287109" stroke="black" stroke-width="0.75" stroke-miterlimit="10"/>
<path d="M572.82 998.221L572.82 0.287109" stroke="black" stroke-width="0.75" stroke-miterlimit="10"/>
<path d="M525.095 998.221L525.095 0.287109" stroke="black" stroke-width="0.75" stroke-miterlimit="10"/>
<path d="M477.361 998.221L477.361 0.287109" stroke="black" stroke-width="0.75" stroke-miterlimit="10"/>
<path d="M429.636 998.221L429.636 0.287109" stroke="black" stroke-width="0.75" stroke-miterlimit="10"/>
<path d="M381.91 998.221L381.91 0.287109" stroke="black" stroke-width="0.75" stroke-miterlimit="10"/>
<path d="M334.185 47.8037L668.271 47.8037" stroke="black" stroke-width="0.75" stroke-miterlimit="10"/>
<path d="M334.185 95.3213L668.271 95.3213" stroke="black" stroke-width="0.75" stroke-miterlimit="10"/>
<path d="M334.185 142.846L668.271 142.846" stroke="black" stroke-width="0.75" stroke-miterlimit="10"/>
<path d="M334.185 190.362L668.271 190.362" stroke="black" stroke-width="0.75" stroke-miterlimit="10"/>
<path d="M334.185 237.888L668.271 237.888" stroke="black" stroke-width="0.75" stroke-miterlimit="10"/>
<path d="M334.185 285.404L668.271 285.404" stroke="black" stroke-width="0.75" stroke-miterlimit="10"/>
<path d="M334.185 332.929L668.271 332.929" stroke="black" stroke-width="0.75" stroke-miterlimit="10"/>
<path d="M334.185 380.446L668.271 380.446" stroke="black" stroke-width="0.75" stroke-miterlimit="10"/>
<path d="M334.185 427.971L668.271 427.971" stroke="black" stroke-width="0.75" stroke-miterlimit="10"/>
<path d="M334.185 475.487L668.271 475.487" stroke="black" stroke-width="0.75" stroke-miterlimit="10"/>
<path d="M334.185 523.013L668.271 523.013" stroke="black" stroke-width="0.75" stroke-miterlimit="10"/>
<path d="M334.185 570.529L668.271 570.529" stroke="black" stroke-width="0.75" stroke-miterlimit="10"/>
<path d="M334.185 618.054L668.271 618.054" stroke="black" stroke-width="0.75" stroke-miterlimit="10"/>
<path d="M334.185 665.571L668.271 665.571" stroke="black" stroke-width="0.75" stroke-miterlimit="10"/>
<path d="M334.185 713.096L668.271 713.096" stroke="black" stroke-width="0.75" stroke-miterlimit="10"/>
<path d="M334.185 760.612L668.271 760.612" stroke="black" stroke-width="0.75" stroke-miterlimit="10"/>
<path d="M334.185 808.137L668.271 808.137" stroke="black" stroke-width="0.75" stroke-miterlimit="10"/>
<path d="M334.185 855.654L668.271 855.654" stroke="black" stroke-width="0.75" stroke-miterlimit="10"/>
<path d="M334.185 903.179L668.271 903.179" stroke="black" stroke-width="0.75" stroke-miterlimit="10"/>
<path d="M334.185 950.696L668.271 950.696" stroke="black" stroke-width="0.75" stroke-miterlimit="10"/>
</g>
<g clip-path="url(#clip3_573_1619)">
<path d="M1002.38 998.221L1002.38 0.287109L668.289 0.287095L668.289 998.221L1002.38 998.221Z" stroke="black" stroke-width="0.75" stroke-miterlimit="10"/>
<path d="M954.657 998.221L954.657 0.287109" stroke="black" stroke-width="0.75" stroke-miterlimit="10"/>
<path d="M906.932 998.221L906.932 0.287109" stroke="black" stroke-width="0.75" stroke-miterlimit="10"/>
<path d="M859.206 998.221L859.206 0.287109" stroke="black" stroke-width="0.75" stroke-miterlimit="10"/>
<path d="M811.473 998.221L811.473 0.287109" stroke="black" stroke-width="0.75" stroke-miterlimit="10"/>
<path d="M763.748 998.221L763.748 0.287109" stroke="black" stroke-width="0.75" stroke-miterlimit="10"/>
<path d="M716.022 998.221L716.022 0.287109" stroke="black" stroke-width="0.75" stroke-miterlimit="10"/>
<path d="M668.297 47.8037L1002.38 47.8037" stroke="black" stroke-width="0.75" stroke-miterlimit="10"/>
<path d="M668.297 95.3213L1002.38 95.3213" stroke="black" stroke-width="0.75" stroke-miterlimit="10"/>
<path d="M668.297 142.846L1002.38 142.846" stroke="black" stroke-width="0.75" stroke-miterlimit="10"/>
<path d="M668.297 190.362L1002.38 190.362" stroke="black" stroke-width="0.75" stroke-miterlimit="10"/>
<path d="M668.297 237.888L1002.38 237.888" stroke="black" stroke-width="0.75" stroke-miterlimit="10"/>
<path d="M668.297 285.404L1002.38 285.404" stroke="black" stroke-width="0.75" stroke-miterlimit="10"/>
<path d="M668.297 332.929L1002.38 332.929" stroke="black" stroke-width="0.75" stroke-miterlimit="10"/>
<path d="M668.297 380.446L1002.38 380.446" stroke="black" stroke-width="0.75" stroke-miterlimit="10"/>
<path d="M668.297 427.971L1002.38 427.971" stroke="black" stroke-width="0.75" stroke-miterlimit="10"/>
<path d="M668.297 475.487L1002.38 475.487" stroke="black" stroke-width="0.75" stroke-miterlimit="10"/>
<path d="M668.297 523.013L1002.38 523.013" stroke="black" stroke-width="0.75" stroke-miterlimit="10"/>
<path d="M668.297 570.529L1002.38 570.529" stroke="black" stroke-width="0.75" stroke-miterlimit="10"/>
<path d="M668.297 618.054L1002.38 618.054" stroke="black" stroke-width="0.75" stroke-miterlimit="10"/>
<path d="M668.297 665.571L1002.38 665.571" stroke="black" stroke-width="0.75" stroke-miterlimit="10"/>
<path d="M668.297 713.096L1002.38 713.096" stroke="black" stroke-width="0.75" stroke-miterlimit="10"/>
<path d="M668.297 760.612L1002.38 760.612" stroke="black" stroke-width="0.75" stroke-miterlimit="10"/>
<path d="M668.297 808.137L1002.38 808.137" stroke="black" stroke-width="0.75" stroke-miterlimit="10"/>
<path d="M668.297 855.654L1002.38 855.654" stroke="black" stroke-width="0.75" stroke-miterlimit="10"/>
<path d="M668.297 903.179L1002.38 903.179" stroke="black" stroke-width="0.75" stroke-miterlimit="10"/>
<path d="M668.297 950.696L1002.38 950.696" stroke="black" stroke-width="0.75" stroke-miterlimit="10"/>
</g>
</g>
<defs>
<clipPath id="clip0_573_1619">
<rect width="998.5" height="334.679" fill="white" transform="translate(334.679) rotate(90)"/>
</clipPath>
<clipPath id="clip1_573_1619">
<rect width="1001.91" height="334.679" fill="white" transform="translate(0.0897217 997.91)"/>
</clipPath>
<clipPath id="clip2_573_1619">
<rect width="998.5" height="334.679" fill="white" transform="translate(668.568) rotate(90)"/>
</clipPath>
<clipPath id="clip3_573_1619">
<rect width="998.5" height="334.679" fill="white" transform="translate(1002.68) rotate(90)"/>
</clipPath>
</defs>
</svg>
