<svg width="370" height="1262" viewBox="0 0 370 1262" fill="none" xmlns="http://www.w3.org/2000/svg">
<g opacity="0.1">
<g clip-path="url(#clip0_502_682)">
<path d="M369.672 1261.65L369.672 0.362762L1.46701 0.362746L1.46696 1261.65L369.672 1261.65Z" stroke="black" stroke-width="0.75" stroke-miterlimit="10"/>
<path d="M317.074 1261.65L317.074 0.362762" stroke="black" stroke-width="0.75" stroke-miterlimit="10"/>
<path d="M264.476 1261.65L264.476 0.362762" stroke="black" stroke-width="0.75" stroke-miterlimit="10"/>
<path d="M211.877 1261.65L211.877 0.362762" stroke="black" stroke-width="0.75" stroke-miterlimit="10"/>
<path d="M159.271 1261.65L159.271 0.362762" stroke="black" stroke-width="0.75" stroke-miterlimit="10"/>
<path d="M106.672 1261.65L106.672 0.362762" stroke="black" stroke-width="0.75" stroke-miterlimit="10"/>
<path d="M54.0742 1261.65L54.0742 0.362732" stroke="black" stroke-width="0.75" stroke-miterlimit="10"/>
<path d="M1.47561 60.4193L369.672 60.4193" stroke="black" stroke-width="0.75" stroke-miterlimit="10"/>
<path d="M1.47561 120.476L369.672 120.476" stroke="black" stroke-width="0.75" stroke-miterlimit="10"/>
<path d="M1.47561 180.542L369.672 180.542" stroke="black" stroke-width="0.75" stroke-miterlimit="10"/>
<path d="M1.47561 240.599L369.672 240.599" stroke="black" stroke-width="0.75" stroke-miterlimit="10"/>
<path d="M1.47561 300.665L369.672 300.665" stroke="black" stroke-width="0.75" stroke-miterlimit="10"/>
<path d="M1.47561 360.721L369.672 360.721" stroke="black" stroke-width="0.75" stroke-miterlimit="10"/>
<path d="M1.47561 420.788L369.672 420.788" stroke="black" stroke-width="0.75" stroke-miterlimit="10"/>
<path d="M1.47561 480.844L369.672 480.844" stroke="black" stroke-width="0.75" stroke-miterlimit="10"/>
<path d="M1.47561 540.91L369.672 540.91" stroke="black" stroke-width="0.75" stroke-miterlimit="10"/>
<path d="M1.47561 600.967L369.672 600.967" stroke="black" stroke-width="0.75" stroke-miterlimit="10"/>
<path d="M1.47561 661.033L369.672 661.033" stroke="black" stroke-width="0.75" stroke-miterlimit="10"/>
<path d="M1.47561 721.09L369.672 721.09" stroke="black" stroke-width="0.75" stroke-miterlimit="10"/>
<path d="M1.47561 781.156L369.672 781.156" stroke="black" stroke-width="0.75" stroke-miterlimit="10"/>
<path d="M1.47561 841.212L369.672 841.212" stroke="black" stroke-width="0.75" stroke-miterlimit="10"/>
<path d="M1.47561 901.278L369.672 901.279" stroke="black" stroke-width="0.75" stroke-miterlimit="10"/>
<path d="M1.47561 961.335L369.672 961.335" stroke="black" stroke-width="0.75" stroke-miterlimit="10"/>
<path d="M1.47561 1021.4L369.672 1021.4" stroke="black" stroke-width="0.75" stroke-miterlimit="10"/>
<path d="M1.47561 1081.46L369.672 1081.46" stroke="black" stroke-width="0.75" stroke-miterlimit="10"/>
<path d="M1.47561 1141.52L369.672 1141.52" stroke="black" stroke-width="0.75" stroke-miterlimit="10"/>
<path d="M1.47561 1201.58L369.672 1201.58" stroke="black" stroke-width="0.75" stroke-miterlimit="10"/>
</g>
</g>
<defs>
<clipPath id="clip0_502_682">
<rect width="1262" height="370" fill="white" transform="translate(370 -6.10352e-05) rotate(90)"/>
</clipPath>
</defs>
</svg>
