<svg width="245" height="91" viewBox="0 0 245 91" fill="none" xmlns="http://www.w3.org/2000/svg">
<path d="M26.9948 8.78702C24.5557 8.2516 22.2355 8.2176 23.1789 4.54616C23.9693 1.46113 24.6067 -0.383086 28.5076 0.0673451C34.7371 0.781236 36.4284 1.72459 37.2357 7.51221C37.5247 9.5774 38.4681 10.2828 40.1508 10.9287C45.8109 13.1044 49.0404 17.2177 49.4399 23.2858C49.9668 31.2066 43.3208 36.5778 35.553 34.6911C34.3802 34.4021 33.8278 33.8242 33.7173 32.7619C33.5983 31.6485 33.5728 30.5267 33.5218 29.4049C33.3943 26.9148 33.8448 23.9487 30.8192 22.9374C27.6662 21.8835 24.6747 22.7844 22.329 25.266C19.278 28.4955 18.3006 32.6089 17.6802 36.7902C16.8304 42.4419 17.1278 47.9915 19.9494 53.1588C21.3942 55.7934 23.5188 57.6291 26.6889 57.3826C29.7654 57.1446 32.6209 56.0228 33.7513 52.8698C34.9666 49.5043 37.2272 48.7479 40.3718 49.5128C43.8732 50.3627 45.5985 52.6573 45.573 56.2098C45.556 58.0795 44.8846 59.7367 43.7882 61.2835C41.4256 64.632 38.2641 67.2581 34.4312 68.1335C29.6039 69.2298 26.0429 70.7766 26.2214 76.4537C26.2384 76.9551 25.907 77.584 25.533 77.958C24.3942 79.0968 16.8304 78.1874 15.0456 76.4792C12.887 74.414 11.1787 72.0004 13.7793 69.0428C14.8077 67.87 13.7028 67.768 13.0569 67.4366C3.75935 62.6178 1.03126 54.2551 0.742305 44.643C0.614824 40.2917 1.06526 35.9659 2.0766 31.708C5.3656 17.9316 12.904 11.0477 26.9948 8.78702Z" fill="#5B4CFF"/>
<path d="M128.92 63.6972C132.455 70.6406 129.812 77.5416 129.115 84.451C128.486 90.6041 128.469 90.6041 121.849 90.3236C117.37 90.1366 114.557 87.638 114.804 83.2187C115.211 75.8163 116.053 68.4309 116.784 61.0456C117.77 51.0086 118.704 40.9716 119.92 30.9687C120.217 28.504 118.883 24.8666 122.665 23.9317C128.435 22.4954 132.353 24.4416 134.554 29.4984C136.96 27.6032 139.263 25.6315 142.169 24.6541C150.694 21.7646 159.201 26.5918 161.113 35.6004C162.889 43.9547 161.903 52.0879 158.045 59.7283C151.263 73.1392 139.067 74.788 128.937 63.7227L128.92 63.6972ZM146.436 45.8754C146.317 43.1218 146.096 40.6402 144.659 38.4135C142.518 35.099 139.943 34.6401 136.926 37.1132C131.954 41.1841 130.161 52.0199 133.594 57.2891C135.761 60.6121 138.829 61.0626 141.693 58.3005C145.263 54.8585 146.308 50.4137 146.444 45.8754H146.436Z" fill="#5B4CFF"/>
<path d="M67.5507 28.1896C71.4686 24.4161 76.3978 23.4643 81.5566 23.4133C89.1884 23.3283 94.4576 28.436 94.2536 36.5608C94.0497 44.5241 92.9448 52.4704 92.2224 60.4166C92.1459 61.2495 91.942 62.0739 91.874 62.9153C91.4717 67.5782 88.9901 69.7709 84.4291 69.4933C79.4064 69.1788 77.1287 66.7482 77.5197 61.53C78.0126 54.8245 78.82 48.1445 79.4829 41.4475C79.7038 39.1614 79.8398 36.7987 77.2902 35.6344C74.7066 34.4531 72.3695 35.218 70.2873 37.0027C67.7632 39.1784 66.9133 42.1784 66.5393 45.238C65.783 51.357 65.2305 57.5016 64.7121 63.6376C64.4232 67.0286 64.2872 69.9607 59.3749 69.5952C53.6213 69.1703 50.4428 67.3686 50.3833 62.9153C50.3323 59.1503 50.8677 55.3769 51.2417 51.612C52.474 39.2039 53.6638 26.7873 55.0576 14.3962C55.729 8.42157 56.2474 8.18361 62.137 8.72752C66.8368 9.16096 69.7604 11.957 69.4289 16.2829C69.1399 20.1243 69.3354 24.1782 66.7688 27.5267C66.5054 28.0961 66.0719 28.6485 66.6668 29.2604C66.9643 28.9034 67.2617 28.538 67.5592 28.1811L67.5507 28.1896Z" fill="#5B4CFF"/>
<path d="M177.974 52.3005C179.802 59.5924 183.881 61.3942 190.382 58.0032C194.385 55.9125 197.224 56.3119 198.788 59.2015C200.47 62.295 198.975 66.1959 194.921 67.5897C187.442 70.1818 179.793 70.4793 172.263 67.5727C169.688 66.5784 167.742 64.7001 166.467 62.2695C160.807 51.4847 164.087 28.8356 182.895 24.2973C187.127 23.2775 191.317 23.7194 195.38 25.0027C204.125 27.7733 206.564 37.0454 200.623 44.6687C196.51 49.9464 190.714 51.7736 184.348 52.2751C182.258 52.4365 180.142 52.3005 177.983 52.3005H177.974ZM181.467 44.8472C185.453 44.7367 189.286 41.7622 189.133 38.8216C189.023 36.6884 187.697 35.5326 185.521 35.5411C182.615 35.5581 179.207 39.9859 179.207 43.5044C179.207 45.5526 180.677 44.6092 181.459 44.8472H181.467Z" fill="#5B4CFF"/>
<path d="M223.374 30.3057C226.638 26.1498 230.556 23.2943 236.003 24.0081C241.774 24.7645 245.114 29.5663 244.111 35.2264C243.176 40.5296 236.972 45.2804 232.145 44.5325C229.706 44.1586 229.935 42.5268 229.867 40.7931C229.799 39.1188 230.921 36.6797 228.44 36.1273C225.695 35.5154 224.938 38.0735 224.326 40.0112C221.913 47.6855 221.403 55.7083 220.68 63.6376C220.315 67.6405 219.592 69.9521 214.842 69.5782C209.258 69.1448 206.003 67.1051 206.216 62.5158C206.555 55.2494 207.456 48 208.179 40.7506C208.536 37.1216 209.241 33.5182 209.386 29.8892C209.53 26.3708 210.244 23.8552 214.502 23.7872C219.44 23.7107 222.55 25.8014 223.357 30.2972L223.374 30.3057Z" fill="#5B4CFF"/>
<path d="M97.721 60.7992C98.8683 49.5214 100.024 38.2521 101.154 26.9743C101.35 24.9941 102.336 24.0508 104.367 23.8128C111.404 22.9714 115.228 26.2774 114.659 33.3058C113.835 43.4788 112.755 53.6432 111.591 63.7822C111.361 65.7539 112.39 68.8814 109.152 69.2979C105.582 69.7653 101.766 70.2242 99.0383 66.8077C97.5935 64.9975 97.687 62.9068 97.7295 60.7907L97.721 60.7992Z" fill="#5B4CFF"/>
<path d="M107.648 19.8608C103.237 19.8013 101.571 18.348 101.724 14.6766C101.877 10.8522 104.919 8.566 109.747 8.64249C113.852 8.70198 115.874 10.4952 115.738 13.9457C115.585 17.8041 112.679 19.9288 107.656 19.8608H107.648Z" fill="#5B4CFF"/>
</svg>
