<?xml version="1.0" encoding="UTF-8"?><svg id="Layer_2" xmlns="http://www.w3.org/2000/svg" viewBox="0 0 417.8 141.81"><defs><style>.cls-1{fill:#5b4cff;}</style></defs><g id="Layer_1-2"><g><path class="cls-1" d="M291.63,136.92h-9.3v2.89h27.82v-2.89h-7.45v-48.5c-2.32,2.4-6.01,2.65-9.7,2.65h-9.22v2.81h7.86v43.05"/><path class="cls-1" d="M115.59,136.92h-9.3v2.89h27.82v-2.89h-7.45v-48.5c-2.32,2.4-6.01,2.65-9.7,2.65h-9.22v2.81h7.86v43.05"/><path class="cls-1" d="M323.77,136.92h-8.9v2.89h28.3v-2.89h-8.18v-43.05h19.96v43.05h-7.45v2.89h27.5v-2.89h-8.98v-48.5c-2.32,2.4-6.33,2.65-10.1,2.65h-21v-16.19c0-10.82,4.01-19.48,16.35-19.48,4.89,0,8.5,2,8.5,4.09,0,1.36-1.2,1.84-2.16,2.4-1.52,.8-2.97,2.32-2.97,4.57,0,3.05,2.97,5.13,5.53,5.13,3.77,0,6.49-2.97,6.49-7.37,0-5.21-5.37-11.7-16.59-11.7-19.48,0-26.53,15.79-26.53,30.78v7.86h-10.1v2.81h10.1v42.97"/><path class="cls-1" d="M28.7,104.13c12.1,2.49,17.56,9.78,17.56,17.72,0,9.14-7.29,16.51-18.44,16.51s-22.36-9.3-24.13-27.98H.56v30.14H3.69c.24-2,1.04-3.53,3.45-3.53,4.49,0,9.3,4.73,20.84,4.73,16.83,0,26.05-10.18,26.05-25.73,0-12.18-6.09-21.24-22.28-25.17l-6.17-1.44c-14.27-3.29-18.44-9.86-18.44-16.51,0-9.14,7.05-15.31,15.63-15.31,13.39,0,21.32,10.82,22.93,24.37h3.29v-25.01h-2.97c-.32,1.52-1.12,3.05-3.53,3.05-4.09,0-7.45-5.85-20.04-5.85S0,63.25,0,76.87c0,14.59,7.29,22.28,22.53,25.81l6.17,1.44"/><path class="cls-1" d="M253.79,130.58c0,8.18,5.61,11.14,12.99,11.14,8.9,0,11.86-4.89,13.23-7.86l-2.24-1.52c-1.44,2.49-3.69,5.53-7.54,5.53-2.97,0-5.37-1.52-5.37-6.17v-37.84h12.99v-2.81h-12.91v-14.83h-2.16c-1.92,11.54-7.37,14.83-18.2,14.83v2.81h9.3v36.71"/><path class="cls-1" d="M218.52,136.92h8.26v-36.15c0-5.77-3.13-8.18-7.21-8.18-7.29,0-12.75,6.97-15.15,10.34v33.99h8.5v2.89h-28.3v-2.89h8.74v-43.05h-8.74v-2.89h9.14c5.53,0,8.26,0,10.34-2.65v9.7h.24c2.4-2.89,8.1-9.7,17.96-9.7,10.5,0,15.63,6.81,15.63,14.99v33.59h8.74v2.89h-28.14v-2.89"/><path class="cls-1" d="M99.96,123.69c-1.28,6.33-6.25,14.11-14.91,14.11s-12.51-4.97-12.51-16.03v-11.22c0-10.82,4.01-18.6,13.15-18.6,5.45,0,8.5,2.65,8.5,4.73,0,1.12-.72,1.76-1.44,2.57-.72,.88-1.44,1.92-1.44,3.53,0,2.49,1.92,4.97,5.45,4.97,3.29,0,5.93-2.57,5.93-6.57,0-5.93-6.97-12.1-17.88-12.1-13.71,0-24.37,10.5-24.37,26.37,0,14.51,7.45,26.37,23.49,26.37,10.82,0,17.8-8.74,19.24-18.2h-3.21"/><path class="cls-1" d="M414.59,123.53c-1.2,6.33-6.25,14.11-14.91,14.11s-12.51-4.97-12.51-16.03v-11.22c0-10.82,4.01-18.6,13.15-18.6,5.45,0,8.5,2.65,8.5,4.73,0,1.12-.72,1.76-1.44,2.57-.72,.88-1.44,1.92-1.44,3.53,0,2.49,1.92,4.97,5.45,4.97,3.21,0,5.93-2.57,5.93-6.57,0-5.93-6.97-12.1-17.88-12.1-13.71,0-24.37,10.5-24.37,26.37,0,14.51,7.45,26.37,23.49,26.37,10.82,0,17.8-8.74,19.24-18.2h-3.21"/><path class="cls-1" d="M177.56,123.45c-1.28,7.05-6.57,14.35-14.75,14.35s-12.51-5.05-12.51-15.23v-11.54h30.22c.72,0,1.04-.32,1.04-1.04v-1.76c0-7.37-6.65-19.24-21.4-19.24-12.83,0-22.28,12.59-22.28,26.37,0,16.51,9.62,26.37,22.77,26.37,10.34,0,17.96-7.29,19.96-18.28h-3.05Zm-6.97-16.27c0,.48-.24,.8-.8,.8h-19v-3.69c0-7.78,4.01-12.51,10.02-12.51s9.78,4.41,9.78,12.51v2.89"/><path class="cls-1" d="M73.75,2.65h2.97c11.22,0,17.23,6.33,17.23,14.19,0,11.22-7.62,15.07-16.83,15.07h-3.29V2.65h-.08Zm-11.46,66.05h-7.62v2.73h30.94c10.5,0,22.93-6.01,22.93-20.04,0-11.14-9.94-17.15-19.72-17.72v-.48c8.26-.72,16.59-6.01,16.59-17.07,0-9.54-8.1-16.11-22.93-16.11h-27.82V2.65h7.7V68.7h-.08Zm11.46-34.07h5.37c11.38,0,17.48,7.45,17.48,16.67,0,10.1-6.09,17.39-16.51,17.39h-6.41V34.63"/><path class="cls-1" d="M113.27,49.94c0,12.67,8.9,23.17,21.56,23.17s21.56-10.58,21.56-23.17-8.9-23.17-21.56-23.17c-12.67,.08-21.56,10.5-21.56,23.17m32.22,2.65c0,8.82-1.04,17.48-10.66,17.48s-10.66-8.66-10.66-17.48v-5.21c0-8.82,.8-17.48,10.66-17.48s10.66,8.66,10.66,17.48v5.21"/><path class="cls-1" d="M223.81,50.02c0,12.67,8.9,23.17,21.56,23.17s21.56-10.58,21.56-23.17-8.9-23.17-21.56-23.17c-12.67,0-21.56,10.42-21.56,23.17m32.22,2.57c0,8.82-1.04,17.48-10.66,17.48s-10.74-8.66-10.74-17.48v-5.21c0-8.82,.8-17.48,10.74-17.48s10.66,8.66,10.66,17.48v5.21"/><path class="cls-1" d="M297.72,68.7h6.09v-30.3c0-5.13-3.29-7.13-6.81-7.13-4.57,0-9.3,4.41-11.46,9.14v28.38h7.45v2.73h-25.97v-2.73h8.1V31.42h-7.94v-2.73h7.7c4.65,0,8.58,0,10.34-2.32v8.26h.16c4.01-4.89,9.46-8.26,15.79-8.26,9.86,0,13.23,6.97,13.23,12.83v29.5h5.85v2.73h-22.61v-2.73"/><path class="cls-1" d="M176.92,53.95c5.93,.8,8.42,4.33,8.42,8.1,0,5.37-4.33,8.18-9.14,8.18-9.14,0-12.42-8.1-12.99-13.47h-2.32l.32,15.79h2.24c.16-1.6,.72-2.24,1.76-2.24,2.16,0,4.65,2.89,11.14,2.89,9.62,0,15.47-6.01,15.47-15.07,0-6.49-3.69-12.26-11.86-13.47l-4.89-.8c-6.49-1.04-8.74-3.29-8.74-7.13s3.21-6.97,8.66-6.97c6.33,0,10.02,3.93,11.06,10.18h2.24l-.24-12.42h-2c-.08,.96-.48,1.84-1.52,1.84-1.84,0-4.33-2.49-9.7-2.49-7.62,0-13.47,5.29-13.47,12.83,0,9.54,6.25,12.99,12.75,13.87l2.81,.4"/><path class="cls-1" d="M222.69,64.77c-1.04,1.68-3.21,4.33-6.41,4.33-2.73,0-5.05-1.2-5.05-5.45V31.42h11.46v-2.73h-11.46V14.11h-1.92c-1.68,10.26-7.37,14.59-15.71,14.59v2.65h7.29V63.49c0,7.05,4.97,9.78,11.94,9.78,6.41,0,9.78-3.29,11.54-6.01l-1.68-2.49"/></g></g></svg>