<svg width="475" height="68" viewBox="0 0 475 68" fill="none" xmlns="http://www.w3.org/2000/svg">
<path d="M30.7541 0V21.9905L18.5671 30.5389V67.9896L0.548828 63.1117V21.1644L18.5671 8.54837L30.77 0.0159047L30.7541 0ZM48.7724 9.37454L30.7541 21.9905V63.1117L48.7883 67.9896V31.3811L60.9753 22.8327V0.842074L48.7724 9.39044V9.37454ZM73.1781 29.1089L60.9911 22.8327V63.9697L73.1781 67.9896V29.093V29.1089Z" fill="#5B4CFF"/>
<path d="M95.3112 25.2004V32.0805H113.457V36.1481H95.3112V46.619H87.6367V21.1328H114.442V25.2004H95.3112Z" fill="#5B4CFF"/>
<path d="M126.788 21.1328V42.2972H145.759V46.6349H119.113V21.1487H126.788V21.1328Z" fill="#5B4CFF"/>
<path d="M166.464 20.9101C173.82 20.9101 178.555 21.6728 180.668 23.2141C182.782 24.7553 183.846 28.1874 183.846 33.5261C183.846 39.3574 182.782 43.0437 180.653 44.5691C178.523 46.0945 173.391 46.8412 165.224 46.8412C157.867 46.8412 153.117 46.0945 150.972 44.585C148.811 43.0914 147.746 39.7865 147.746 34.6702C147.746 28.5846 148.795 24.7712 150.924 23.2141C153.037 21.6569 158.233 20.8784 166.479 20.8784L166.464 20.9101ZM165.876 25.0573C160.712 25.0573 157.709 25.4704 156.835 26.3125C155.961 27.1387 155.532 30.0306 155.532 34.9721C155.532 38.6425 156.04 40.8351 157.057 41.5819C158.074 42.3287 161.077 42.6942 166.05 42.6942C171.024 42.6942 173.661 42.2811 174.615 41.439C175.568 40.5969 176.045 38.0546 176.045 33.7963C176.045 29.538 175.6 27.0116 174.694 26.2171C173.788 25.4386 170.849 25.0414 165.876 25.0414V25.0573Z" fill="#5B4CFF"/>
<path d="M189.025 46.6349V21.1328H208.982C213.94 21.1328 217.356 21.6731 219.247 22.7535C221.121 23.834 222.059 25.8043 222.059 28.6325C222.059 31.2066 221.598 32.9702 220.645 33.9236C219.707 34.8769 217.785 35.5284 214.877 35.878V36.0527C219.358 36.2275 221.614 37.88 221.614 40.9942V46.619H213.94V41.9635C213.94 39.3418 211.89 38.023 207.775 38.023H196.716V46.619H189.041L189.025 46.6349ZM196.7 33.9713H207.727C210.349 33.9713 212.096 33.6694 212.954 33.0815C213.812 32.4936 214.241 31.3019 214.241 29.5223C214.241 27.7427 213.876 26.5351 213.129 25.9949C212.382 25.4705 210.762 25.2004 208.251 25.2004H196.684V33.9554L196.7 33.9713Z" fill="#5B4CFF"/>
<path d="M275.462 21.1328V46.6349H267.788V32.7478C267.788 31.6355 267.835 30.3803 267.947 28.9662L268.09 27.0594L268.233 25.1686H267.994L267.073 26.9483L266.183 28.7279C265.357 30.3168 264.705 31.4925 264.26 32.2552L255.362 46.6349H248.371L239.394 32.3665C238.901 31.5879 238.25 30.3961 237.439 28.839L236.518 27.0594L235.596 25.3117H235.358L235.517 27.1707L235.66 29.0456C235.771 30.4915 235.835 31.7309 235.835 32.7637V46.6667H228.16V21.1805H240.681L247.91 32.9862C248.403 33.8124 249.054 34.9881 249.865 36.5135L250.755 38.2931L251.676 40.0409H251.946L252.804 38.2931L253.694 36.5453C254.425 35.0676 255.06 33.8918 255.601 33.0338L262.719 21.1963H275.494L275.462 21.1328Z" fill="#5B4CFF"/>
<path d="M299.392 20.9101C306.748 20.9101 311.467 21.6728 313.596 23.2141C315.71 24.7553 316.774 28.1874 316.774 33.5261C316.774 39.3574 315.71 43.0437 313.58 44.5691C311.451 46.0945 306.319 46.8412 298.152 46.8412C290.795 46.8412 286.045 46.0945 283.884 44.585C281.739 43.0914 280.658 39.7865 280.658 34.6702C280.658 28.5846 281.707 24.7712 283.836 23.2141C285.949 21.6569 291.145 20.8784 299.407 20.8784L299.392 20.9101ZM298.804 25.0573C293.64 25.0573 290.637 25.4704 289.763 26.3125C288.889 27.1387 288.46 30.0306 288.46 34.9721C288.46 38.6425 288.968 40.8351 289.985 41.5819C291.002 42.3287 294.005 42.6942 298.978 42.6942C303.952 42.6942 306.589 42.2811 307.543 41.439C308.496 40.5969 308.973 38.0546 308.973 33.7963C308.973 29.538 308.512 27.0116 307.622 26.2171C306.716 25.4386 303.777 25.0414 298.804 25.0414V25.0573Z" fill="#5B4CFF"/>
<path d="M321.953 46.6349V21.1328H341.91C346.867 21.1328 350.283 21.6731 352.174 22.7535C354.049 23.834 354.987 25.8043 354.987 28.6325C354.987 31.2066 354.526 32.9702 353.573 33.9236C352.635 34.8769 350.712 35.5284 347.805 35.878V36.0527C352.286 36.2275 354.542 37.88 354.542 40.9942V46.619H346.867V41.9635C346.867 39.3418 344.818 38.023 340.702 38.023H329.643V46.619H321.969L321.953 46.6349ZM329.628 33.9713H340.655C343.276 33.9713 345.024 33.6694 345.882 33.0815C346.74 32.4936 347.169 31.3019 347.169 29.5223C347.169 27.7427 346.804 26.5351 346.057 25.9949C345.326 25.4705 343.689 25.2004 341.179 25.2004H329.612V33.9554L329.628 33.9713Z" fill="#5B4CFF"/>
<path d="M385.575 41.7411H368.113L365.586 46.6349H357.467L370.925 21.1328H382.46L396.125 46.6349H388.149L385.575 41.7411ZM383.795 38.1818L376.804 24.8985L369.924 38.1818H383.795Z" fill="#5B4CFF"/>
<path d="M399.621 46.6349V21.1328H419.514C425.171 21.1328 429.127 21.9114 431.384 23.4686C433.64 25.0257 434.784 27.7427 434.784 31.6514C434.784 38.023 433.878 42.1065 432.051 43.9179C430.239 45.7293 426.124 46.6349 419.753 46.6349H399.621ZM407.296 42.5673H418.227C421.914 42.5673 424.281 42.0429 425.362 40.9783C426.442 39.9138 426.982 37.5622 426.982 33.9236C426.982 30.2849 426.506 27.7744 425.52 26.7575C424.551 25.7406 422.279 25.2322 418.704 25.2322H407.296V42.5832V42.5673Z" fill="#5B4CFF"/>
<path d="M457.202 20.9101C464.559 20.9101 469.294 21.6728 471.407 23.2141C473.52 24.7553 474.585 28.1874 474.585 33.5261C474.585 39.3574 473.52 43.0437 471.391 44.5691C469.278 46.0945 464.13 46.8412 455.963 46.8412C448.606 46.8412 443.855 46.0945 441.694 44.585C439.533 43.0914 438.469 39.7865 438.469 34.6702C438.469 28.5846 439.517 24.7712 441.647 23.2141C443.76 21.6569 448.94 20.8784 457.202 20.8784V20.9101ZM456.614 25.0573C451.466 25.0573 448.447 25.4704 447.573 26.3125C446.699 27.1387 446.27 30.0306 446.27 34.9721C446.27 38.6425 446.779 40.8351 447.796 41.5819C448.813 42.3287 451.816 42.6942 456.805 42.6942C461.794 42.6942 464.416 42.2811 465.369 41.439C466.322 40.5969 466.799 38.0546 466.799 33.7963C466.799 29.538 466.354 27.0116 465.449 26.2171C464.543 25.4386 461.603 25.0414 456.63 25.0414L456.614 25.0573Z" fill="#5B4CFF"/>
</svg>
