<svg width="504" height="336" viewBox="0 0 504 336" fill="none" xmlns="http://www.w3.org/2000/svg">
<g clip-path="url(#clip0_9_151)">
<path d="M251.203 160.936C252.404 159.809 253.152 158.939 254.071 158.264C259.428 154.404 265.274 153.668 271.365 156.095C275.41 157.701 277.714 161.059 278.217 165.251C279.565 176.527 276.489 186.442 267.897 194.115C262.945 198.527 256.756 199.153 250.394 198.025C247.845 197.571 245.847 196.064 244.229 194.054C243.849 193.6 243.494 193.122 242.967 192.497C242.035 193.514 241.092 194.397 240.319 195.402C239.253 196.812 237.978 197.449 236.213 197.204C235.441 197.106 234.657 197.179 233.627 197.179C234.191 194.569 234.694 192.191 235.221 189.837C240.087 168.511 244.965 147.197 249.806 125.87C250.125 124.461 250.627 123.836 252.147 123.958C253.986 124.105 255.849 124.056 257.675 123.958C259.035 123.897 259.403 124.277 259.072 125.686C257.246 133.396 255.518 141.13 253.765 148.839C252.968 152.344 252.159 155.825 251.375 159.331C251.289 159.698 251.277 160.078 251.191 160.9H251.216L251.203 160.936ZM246.913 185.033C247.183 186.246 247.49 188.685 248.286 190.953C249.242 193.649 251.436 194.949 254.353 194.949C257.908 194.949 260.494 193.11 262.602 190.475C266.414 185.695 268.191 180.093 269 174.125C269.453 170.754 269.601 167.359 268.461 164.086C267.186 160.458 264.048 158.632 260.273 159.061C255.947 159.564 253.275 162.223 251.399 165.827C248.458 171.44 247.257 177.52 246.926 185.033H246.913Z" fill="#5B4CFF"/>
<path d="M77 227.294C77.1716 224.965 77.38 224.585 79.3533 224.352C83.6553 223.85 86.4621 221.251 87.9942 217.574C89.6733 213.554 90.9358 209.313 91.9286 205.06C95.3114 190.561 98.4981 176.012 101.746 161.464C101.869 160.887 101.93 160.311 102.053 159.564C101.317 159.527 100.729 159.466 100.14 159.466C96.5003 159.466 92.8478 159.49 89.2076 159.429C88.6193 159.429 87.6755 159.882 87.5652 158.743C87.4304 157.333 88.3129 156.071 89.4037 156.058C91.7447 156.034 94.0857 156.058 96.4513 156.058C98.0446 156.058 99.6502 155.985 101.244 156.083C102.58 156.169 103.156 155.727 103.45 154.367C105.362 145.861 107.347 137.379 109.37 128.885C110.559 123.885 112.409 119.166 115.927 115.293C120.732 110.035 126.627 107.436 133.822 108.098C134.435 108.147 135.145 108.172 134.9 109.079C134.729 109.741 134.998 110.733 133.662 110.697C127.828 110.501 123.636 113.025 121.59 118.504C120.107 122.451 119.114 126.593 118.145 130.699C116.307 138.507 114.616 146.339 112.875 154.183C112.765 154.698 112.704 155.237 112.569 156.022H127.313C127.35 158.951 127.007 159.306 124.458 159.306H114.125C112.446 159.306 111.429 160.14 111.049 161.819C107.752 176.392 104.467 190.977 101.133 205.538C99.7483 211.605 97.5053 217.256 92.8233 221.631C88.6928 225.48 83.7902 227.392 78.1521 227.416C77.7722 227.416 77.38 227.355 77 227.318V227.294Z" fill="#5B4CFF"/>
<path d="M151.275 192.056C150.111 192.975 149.179 193.735 148.223 194.434C143.014 198.246 137.229 198.956 131.15 197.29C125.769 195.807 123.085 191.786 122.656 186.504C121.908 177.299 123.845 168.707 130.083 161.549C135.17 155.715 141.703 153.533 149.339 154.808C152.011 155.262 154.168 156.61 155.712 158.89C155.884 159.135 156.067 159.368 156.264 159.588C156.325 159.65 156.435 159.674 156.742 159.821C157.011 158.865 157.33 157.946 157.501 157.002C157.673 156.034 158.139 155.654 159.119 155.678C161.497 155.715 163.875 155.678 166.449 155.678C166.289 156.61 166.216 157.296 166.069 157.958C163.385 170.325 160.688 182.68 157.992 195.047C157.845 195.733 157.869 196.75 156.791 196.603C155.479 196.444 153.825 197.461 152.967 195.549C152.452 194.422 151.888 193.343 151.251 192.031V192.056H151.275ZM154.731 168.487C154.67 167.151 154.682 166.158 154.56 165.165C153.947 160.017 150.331 157.468 145.257 158.595C142.573 159.184 140.453 160.716 138.7 162.775C134.692 167.481 132.976 173.205 131.726 179.076C131.003 182.496 130.427 185.94 131.383 189.421C132.388 193.086 135.292 194.936 139.08 194.471C143.026 193.993 145.931 191.897 148.174 188.771C152.587 182.618 154.241 175.559 154.744 168.474H154.719L154.731 168.487Z" fill="#5B4CFF"/>
<path d="M224.79 160.017C225.097 158.877 225.415 158.068 225.526 157.247C225.697 155.985 226.335 155.629 227.56 155.678C229.889 155.764 232.206 155.703 234.743 155.703C234.007 159.098 233.333 162.186 232.659 165.3C230.539 175.08 228.431 184.873 226.286 194.642C226.102 195.463 226.286 196.591 224.815 196.689C222.094 196.86 221.751 196.799 220.966 195.144C220.5 194.164 220.022 193.196 219.471 192.056C218.834 192.546 218.356 192.889 217.914 193.269C212.926 197.596 207.116 198.895 200.743 197.682C195.264 196.628 191.624 193.049 190.974 187.374C189.834 177.605 191.979 168.584 198.708 161.12C203.746 155.543 210.18 153.595 217.559 154.845C220.17 155.286 222.278 156.659 223.834 158.828C224.055 159.135 224.312 159.429 224.79 160.042V160.017ZM199.1 185.266C199.1 186.111 199.039 186.969 199.1 187.803C199.48 192.473 202.765 195.034 207.41 194.421C210.904 193.968 213.637 192.203 215.635 189.47C220.978 182.189 223.234 173.953 222.498 164.993C222.082 159.919 218.074 157.321 213.097 158.509C210.413 159.159 208.293 160.691 206.614 162.824C201.405 169.393 199.787 177.189 199.076 185.266H199.1Z" fill="#5B4CFF"/>
<path d="M395.231 192.019C394.557 192.571 394.091 192.938 393.65 193.306C388.637 197.596 382.839 198.907 376.454 197.645C370.987 196.566 367.457 193.049 366.759 187.435C365.545 177.642 367.788 168.67 374.431 161.169C379.383 155.58 385.757 153.607 393.098 154.759C395.893 155.2 398.111 156.634 399.717 158.975C399.852 159.184 400.023 159.367 400.183 159.551C400.232 159.6 400.354 159.588 400.648 159.662C400.893 158.73 401.065 157.762 401.42 156.867C401.604 156.414 402.107 155.752 402.499 155.727C405.073 155.629 407.659 155.678 410.49 155.678C409.963 158.215 409.485 160.519 408.995 162.836C406.703 173.401 404.423 183.966 402.082 194.507C401.911 195.328 402.082 196.48 400.673 196.627C398.136 196.897 397.523 196.701 396.714 195.034C396.26 194.103 395.807 193.171 395.231 191.982V192.019ZM398.614 168.204C398.503 167.065 398.491 165.863 398.283 164.699C397.376 159.6 393.625 157.161 388.649 158.632C386.945 159.134 385.205 160.091 383.918 161.304C382.288 162.861 380.903 164.76 379.788 166.734C377.25 171.146 376.086 176.061 375.216 181.025C374.738 183.734 374.493 186.455 375.167 189.175C376.111 193.036 379.04 194.961 382.974 194.483C387.35 193.943 390.365 191.418 392.657 187.913C396.555 181.956 398.099 175.264 398.65 168.229L398.614 168.204Z" fill="#5B4CFF"/>
<path d="M313.773 193.919C310.783 196.174 307.608 197.51 304.091 197.964C298.636 198.65 293.538 197.657 289.076 194.323C284.603 190.965 282.923 186.185 282.911 180.829C282.911 174.517 284.272 168.511 288.439 163.522C294.396 156.414 302.068 153.472 311.236 154.955C317.794 156.021 322.451 161.561 322.77 168.401C322.88 170.962 322.463 173.548 322.279 176.122C322.181 177.336 321.544 177.74 320.294 177.74C311.371 177.691 302.436 177.703 293.501 177.716C291.466 177.716 291.368 177.752 291.417 179.812C291.442 181.197 291.552 182.606 291.797 183.967C293.464 192.816 300.892 194.127 306.579 192.681C307.719 192.387 308.858 191.921 309.888 191.333C310.844 190.793 311.408 190.965 312.008 191.811C312.486 192.497 313.087 193.098 313.773 193.919ZM303.282 173.34C306.468 173.34 309.655 173.316 312.842 173.34C313.712 173.34 314.264 173.095 314.411 172.163C314.864 169.491 314.999 166.819 314.178 164.184C313.295 161.329 311.457 159.416 308.454 158.951C305.329 158.473 302.411 159.086 299.85 161.071C296.283 163.829 294.273 167.616 292.802 171.759C292.361 173.009 292.802 173.352 294.003 173.34C297.092 173.303 300.181 173.34 303.269 173.34H303.282Z" fill="#5B4CFF"/>
<path d="M191.71 123.738C191.281 125.588 190.925 127.169 190.57 128.763C186.378 146.707 182.186 164.65 178.044 182.606C177.615 184.445 177.394 186.332 177.173 188.207C176.683 192.277 178.485 194.14 182.554 193.882C183.216 193.845 184.258 193.135 184.393 194.544C184.527 196.052 183.939 196.824 182.566 196.873C180.519 196.934 178.46 197.02 176.438 196.836C171.462 196.383 168.802 193.637 169.084 188.649C169.292 184.898 170.089 181.16 170.91 177.471C174.82 160.078 178.828 142.699 182.762 125.319C183.032 124.142 183.486 123.652 184.748 123.713C186.966 123.811 189.209 123.75 191.697 123.75L191.71 123.738Z" fill="#5B4CFF"/>
<path d="M344.623 123.603C345.984 123.75 347.344 123.897 348.705 124.044C348.46 125.343 348.264 126.667 347.969 127.966C343.839 145.677 339.684 163.375 335.59 181.074C335.039 183.452 334.695 185.866 334.377 188.281C333.862 192.289 335.749 194.152 339.843 193.87C340.456 193.833 341.437 193.183 341.608 194.458C341.792 195.77 341.155 196.799 340.015 196.836C337.772 196.897 335.504 197.032 333.298 196.762C328.432 196.162 326.03 193.49 326.312 188.563C326.52 184.922 327.292 181.258 328.089 177.679C332.011 160.189 336.044 142.711 340.015 125.233C340.26 124.117 340.713 123.59 341.915 123.713C342.797 123.811 343.704 123.737 344.599 123.737C344.599 123.688 344.599 123.639 344.599 123.59L344.623 123.603Z" fill="#5B4CFF"/>
<path d="M368.413 123.737C367.359 128.138 366.379 132.146 365.447 136.153C361.746 152.063 358.057 167.959 354.404 183.881C354.085 185.29 353.938 186.724 353.767 188.158C353.276 192.203 355.213 194.164 359.307 193.833C359.834 193.796 360.373 193.784 360.876 193.747C361.194 196.333 360.851 196.86 358.547 196.885C356.365 196.909 354.147 196.922 351.99 196.603C347.81 195.966 345.567 193.465 345.751 189.2C345.898 185.744 346.486 182.275 347.246 178.892C351.242 161.059 355.372 143.262 359.392 125.429C359.699 124.081 360.226 123.627 361.586 123.701C363.768 123.811 365.938 123.737 368.413 123.737Z" fill="#5B4CFF"/>
<path d="M421.399 196.284C418.224 196.321 415.785 193.931 415.761 190.769C415.736 187.68 418.224 185.119 421.288 185.07C424.304 185.021 426.939 187.594 427 190.622C427.037 193.637 424.463 196.26 421.423 196.272L421.399 196.284Z" fill="#5B4CFF"/>
</g>
<defs>
<clipPath id="clip0_9_151">
<rect width="350" height="119.404" fill="white" transform="translate(77 108)"/>
</clipPath>
</defs>
</svg>
