<svg width="600" height="336" viewBox="0 0 600 336" fill="none" xmlns="http://www.w3.org/2000/svg">
<g clip-path="url(#clip0_9_818)">
<path d="M87.0997 133V155.638L74.5507 164.439V202.992L56 197.969V154.783L74.5507 141.791L87.1099 133.021L87.0894 133H87.0997ZM105.64 142.646L87.0894 155.638V197.969L105.65 202.992V165.304L118.199 156.502V133.865L105.64 142.667V142.646ZM130.769 162.967L118.22 156.502V198.854L130.769 202.992V162.947V162.967Z" fill="#5B4CFF"/>
<path d="M153.551 158.942V166.025H172.235V170.215H153.551V180.993H145.655V154.752H173.254V158.942H153.561H153.551Z" fill="#5B4CFF"/>
<path d="M185.957 154.752V176.535H205.486V181.003H178.051V154.763H185.957V154.742V154.752Z" fill="#5B4CFF"/>
<path d="M226.806 154.526C234.383 154.526 239.252 155.308 241.424 156.894C243.596 158.479 244.698 162.01 244.698 167.507C244.698 173.509 243.607 177.308 241.414 178.872C239.221 180.447 233.94 181.209 225.529 181.209C217.953 181.209 213.063 180.437 210.86 178.883C208.636 177.349 207.535 173.941 207.535 168.681C207.535 162.411 208.616 158.489 210.808 156.883C212.98 155.277 218.334 154.474 226.827 154.474V154.505L226.806 154.526ZM226.199 158.798C220.887 158.798 217.788 159.22 216.892 160.095C215.997 160.95 215.554 163.925 215.554 169.01C215.554 172.788 216.079 175.043 217.129 175.815C218.179 176.587 221.268 176.958 226.384 176.958C231.5 176.958 234.218 176.535 235.206 175.66C236.184 174.796 236.678 172.181 236.678 167.795C236.678 163.41 236.225 160.816 235.289 159.992C234.352 159.189 231.325 158.777 226.209 158.777V158.798H226.199Z" fill="#5B4CFF"/>
<path d="M250.03 181.003V154.752H270.578C275.684 154.752 279.195 155.308 281.14 156.42C283.065 157.532 284.033 159.56 284.033 162.473C284.033 165.119 283.559 166.941 282.581 167.919C281.614 168.897 279.637 169.566 276.642 169.926V170.101C281.253 170.276 283.58 171.985 283.58 175.187V180.972H275.684V176.175C275.684 173.478 273.574 172.119 269.332 172.119H257.947V180.972H250.041L250.02 180.993L250.03 181.003ZM257.926 167.97H269.281C271.978 167.97 273.78 167.661 274.665 167.054C275.55 166.447 275.993 165.222 275.993 163.389C275.993 161.557 275.622 160.311 274.85 159.755C274.078 159.22 272.411 158.942 269.827 158.942H257.916V167.95L257.936 167.97H257.926Z" fill="#5B4CFF"/>
<path d="M339.006 154.752V181.003H331.11V166.704C331.11 165.561 331.162 164.264 331.275 162.813L331.419 160.847L331.563 158.901H331.316L330.369 160.733L329.453 162.566C328.598 164.203 327.929 165.407 327.476 166.2L318.314 181.003H311.118L301.874 166.313C301.369 165.51 300.7 164.285 299.856 162.679L298.909 160.847L297.962 159.045H297.715L297.879 160.96L298.024 162.885C298.137 164.378 298.209 165.654 298.209 166.714V181.024H290.303V154.783H303.191L310.634 166.941C311.139 167.795 311.808 169 312.652 170.575L313.568 172.407L314.515 174.209H314.793L315.679 172.407L316.595 170.606C317.346 169.082 318.005 167.878 318.561 166.992L325.891 154.804H339.037L339.006 154.742V154.752Z" fill="#5B4CFF"/>
<path d="M363.64 154.526C371.217 154.526 376.076 155.308 378.259 156.894C380.431 158.479 381.532 162.01 381.532 167.507C381.532 173.509 380.441 177.308 378.248 178.872C376.056 180.447 370.775 181.209 362.364 181.209C354.787 181.209 349.897 180.437 347.674 178.883C345.471 177.349 344.349 173.941 344.349 168.681C344.349 162.411 345.43 158.489 347.622 156.883C349.794 155.277 355.148 154.474 363.651 154.474L363.63 154.505L363.64 154.526ZM363.043 158.798C357.731 158.798 354.633 159.22 353.737 160.095C352.842 160.95 352.399 163.925 352.399 169.01C352.399 172.788 352.924 175.043 353.964 175.815C355.014 176.587 358.102 176.958 363.218 176.958C368.335 176.958 371.053 176.535 372.041 175.66C373.019 174.796 373.513 172.181 373.513 167.795C373.513 163.41 373.039 160.816 372.123 159.992C371.186 159.189 368.16 158.777 363.043 158.777V158.798Z" fill="#5B4CFF"/>
<path d="M386.865 181.003V154.752H407.413C412.519 154.752 416.029 155.308 417.975 156.42C419.91 157.532 420.867 159.56 420.867 162.473C420.867 165.119 420.394 166.941 419.416 167.919C418.448 168.897 416.472 169.566 413.476 169.926V170.101C418.088 170.276 420.414 171.985 420.414 175.187V180.972H412.519V176.175C412.519 173.478 410.408 172.119 406.167 172.119H394.781V180.972H386.885L386.865 180.993V181.003ZM394.771 167.97H406.126C408.823 167.97 410.624 167.661 411.51 167.054C412.395 166.447 412.838 165.222 412.838 163.389C412.838 161.557 412.457 160.311 411.695 159.755C410.944 159.22 409.255 158.942 406.671 158.942H394.761V167.95L394.781 167.97H394.771Z" fill="#5B4CFF"/>
<path d="M452.369 175.969H434.395L431.79 181.003H423.431L437.288 154.752H449.167L463.24 181.003H455.025L452.379 175.969H452.369ZM450.537 172.304L443.341 158.633L436.258 172.304H450.537Z" fill="#5B4CFF"/>
<path d="M466.822 181.003V154.752H487.298C493.125 154.752 497.191 155.555 499.518 157.161C501.844 158.767 503.018 161.557 503.018 165.582C503.018 172.14 502.081 176.35 500.207 178.213C498.344 180.077 494.103 181.013 487.545 181.013H466.822V181.003ZM474.728 176.824H485.98C489.779 176.824 492.208 176.288 493.331 175.187C494.442 174.096 494.998 171.666 494.998 167.929C494.998 164.192 494.504 161.598 493.495 160.548C492.497 159.498 490.16 158.973 486.474 158.973H474.728V176.834V176.813V176.824Z" fill="#5B4CFF"/>
<path d="M526.098 154.526C533.675 154.526 538.544 155.308 540.726 156.894C542.899 158.479 544 162.01 544 167.507C544 173.509 542.899 177.308 540.716 178.872C538.544 180.447 533.242 181.209 524.832 181.209C517.255 181.209 512.365 180.437 510.142 178.883C507.918 177.349 506.816 173.941 506.816 168.681C506.816 162.411 507.897 158.489 510.09 156.883C512.262 155.277 517.595 154.474 526.098 154.474V154.505V154.526ZM525.501 158.798C520.199 158.798 517.09 159.22 516.195 160.095C515.299 160.95 514.856 163.925 514.856 169.01C514.856 172.788 515.381 175.043 516.431 175.815C517.481 176.587 520.57 176.958 525.707 176.958C530.844 176.958 533.541 176.535 534.519 175.66C535.497 174.796 535.991 172.181 535.991 167.795C535.991 163.41 535.528 160.816 534.601 159.992C533.664 159.189 530.638 158.777 525.521 158.777L525.501 158.798Z" fill="#5B4CFF"/>
</g>
<defs>
<clipPath id="clip0_9_818">
<rect width="488" height="69.9922" fill="white" transform="translate(56 133)"/>
</clipPath>
</defs>
</svg>
