<svg width="504" height="336" viewBox="0 0 504 336" fill="none" xmlns="http://www.w3.org/2000/svg">
<g clip-path="url(#clip0_9_612)">
<path d="M99.4318 165.253C99.4318 173.251 99.4403 181.249 99.4318 189.255C99.4318 194.033 99.0293 198.76 97.4537 203.324C95.7839 208.171 93.155 212.35 88.7707 215.184C83.2561 218.755 77.2534 219.594 70.9082 217.941C66.6866 216.845 63.0644 214.636 59.7762 211.836C59.5193 211.622 59.2881 211.365 59.0826 211.108C58.6031 210.517 58.6116 209.901 59.1168 209.353C60.8723 207.452 62.6534 205.568 64.4174 203.675C65.0511 202.99 65.7104 203.196 66.3783 203.607C67.9796 204.609 69.598 205.576 71.3363 206.347C73.9395 207.503 76.5855 208 79.4199 207.263C82.3998 206.493 84.395 204.6 85.748 201.946C87.3835 198.726 87.923 195.232 88.1628 191.678C88.197 191.199 88.0172 190.814 87.589 190.574C87.1523 190.326 86.7327 190.437 86.356 190.719C85.3027 191.516 84.2751 192.338 83.0506 192.877C80.456 194.016 77.7073 194.11 74.9671 193.939C69.384 193.588 64.5972 191.456 60.8038 187.269C57.6868 183.826 56.1198 179.767 56.077 175.177C56.017 167.856 55.9143 160.517 56.1283 153.205C56.3595 145.147 61.6001 138.459 69.2812 135.95C73.2202 134.666 77.2534 134.426 81.3123 135.274C83.0164 135.633 84.5235 136.421 85.825 137.586C86.2104 137.937 86.6129 138.194 87.1523 137.945C87.7004 137.688 87.8288 137.226 87.8459 136.669C87.8802 135.308 88.2227 135.008 89.5928 135.017C92.2131 135.034 94.8248 135.042 97.4451 135.034C99.1749 135.034 99.4574 135.308 99.4574 137.055C99.4574 146.448 99.4574 155.851 99.4574 165.244C99.4574 165.244 99.4403 165.244 99.4318 165.244V165.253ZM87.8288 164.542C87.8288 161.074 87.8459 157.606 87.8288 154.138C87.8202 151.997 87.2123 150.071 85.6538 148.504C83.2818 146.123 80.4303 145.164 77.0907 145.19C72.1413 145.224 66.8921 149.797 67.1147 155.482C67.3545 161.528 67.1661 167.591 67.1661 173.653C67.1661 174.407 67.2175 175.152 67.3716 175.888C67.9454 178.731 69.8207 180.624 72.1156 182.148C74.4533 183.706 77.0907 183.758 79.7624 183.424C84.4036 182.85 87.8459 178.945 87.8459 174.321C87.8459 171.059 87.8459 167.796 87.8459 164.534L87.8288 164.542Z" fill="#5B4CFF"/>
<path d="M158.954 193.931C152.472 193.931 145.998 193.931 139.516 193.931C137.375 193.931 137.032 193.357 138.043 191.464C145.698 177.173 153.362 162.881 161.017 148.589C161.249 148.161 161.497 147.724 161.66 147.262C161.942 146.44 161.617 145.892 160.752 145.738C160.401 145.669 160.033 145.669 159.673 145.669C153.302 145.669 146.923 145.669 140.552 145.669C139.165 145.669 138.916 145.429 138.916 144.051C138.916 141.696 138.916 139.341 138.916 136.986C138.916 135.668 139.19 135.402 140.517 135.402C153.139 135.402 165.753 135.402 178.375 135.402C178.58 135.402 178.786 135.402 179 135.428C179.925 135.522 180.276 136.061 179.976 136.935C179.856 137.277 179.676 137.594 179.505 137.911C171.884 152.28 164.271 166.657 156.625 181.009C155.725 182.696 155.854 183.646 158.192 183.621C164.956 183.544 171.721 183.595 178.478 183.595C179.976 183.595 180.242 183.86 180.242 185.35C180.242 187.68 180.242 190.009 180.242 192.338C180.242 193.648 179.959 193.914 178.632 193.914C172.072 193.914 165.522 193.914 158.962 193.914L158.954 193.931Z" fill="#5B4CFF"/>
<path d="M113.646 164.636C113.646 155.525 113.646 146.406 113.646 137.294C113.646 135.642 113.946 135.334 115.573 135.325C118.039 135.325 120.497 135.325 122.963 135.325C124.522 135.325 124.813 135.633 124.813 137.2C124.813 155.482 124.813 173.765 124.813 192.038C124.813 193.562 124.462 193.922 122.946 193.922C120.454 193.922 117.971 193.922 115.479 193.922C113.938 193.922 113.655 193.639 113.655 192.124C113.655 182.961 113.655 173.79 113.655 164.628L113.646 164.636Z" fill="#5B4CFF"/>
<path d="M124.839 123.14C124.839 124.587 124.839 126.034 124.839 127.49C124.839 128.723 124.402 129.16 123.152 129.168C120.694 129.185 118.228 129.168 115.77 129.168C115.043 129.168 114.212 129.254 113.886 128.432C113.535 127.524 113.475 126.565 114.109 125.7C114.212 125.554 114.332 125.417 114.452 125.28C116.678 122.789 118.904 120.305 121.139 117.822C121.824 117.068 123.126 116.794 124.059 117.18C124.642 117.42 124.83 117.908 124.839 118.49C124.839 120.04 124.839 121.598 124.839 123.148V123.14Z" fill="#5B4CFF"/>
<path d="M244.49 189.307C244.49 187.988 244.49 186.669 244.49 185.342C244.49 184.948 244.49 184.554 244.927 184.349C245.321 184.16 245.646 184.289 245.886 184.605C246.083 184.871 246.228 184.682 246.4 184.605C247.693 184.032 248.934 184.117 250.047 185.016C250.433 185.325 250.638 185.316 251.015 185.016C252.18 184.075 253.498 184.04 254.826 184.597C255.999 185.094 256.513 186.104 256.53 187.328C256.564 189.349 256.53 191.37 256.547 193.383C256.547 193.896 256.393 194.265 255.828 194.282C255.22 194.299 255.04 193.913 255.04 193.365C255.04 191.473 255.04 189.589 255.04 187.697C255.04 186.378 254.423 185.736 253.182 185.736C252.026 185.736 251.281 186.489 251.263 187.714C251.246 189.555 251.255 191.387 251.263 193.228C251.263 193.759 251.238 194.273 250.544 194.282C249.808 194.29 249.765 193.742 249.765 193.194C249.765 191.405 249.765 189.623 249.765 187.834C249.765 186.464 249.054 185.719 247.838 185.736C246.614 185.761 245.971 186.464 245.971 187.799C245.971 189.563 245.971 191.319 245.971 193.083C245.971 193.622 246.074 194.273 245.252 194.273C244.396 194.273 244.49 193.597 244.481 193.031C244.481 191.79 244.481 190.548 244.481 189.307H244.49Z" fill="#5B4CFF"/>
<path d="M203.071 142.261C203.071 140.292 203.071 138.331 203.071 136.361C203.071 135.351 203.276 135.137 204.312 135.154C205.503 135.171 206.693 135.034 207.875 135.265C209.604 135.599 210.932 137.098 210.966 138.862C211 141.114 211.009 143.366 210.966 145.618C210.923 147.604 209.322 149.189 207.335 149.257C206.222 149.3 205.109 149.257 203.996 149.274C203.345 149.274 203.037 148.966 203.079 148.324C203.079 148.298 203.079 148.272 203.079 148.247C203.079 146.252 203.079 144.265 203.079 142.27L203.071 142.261ZM204.552 142.235C204.552 143.862 204.569 145.489 204.544 147.116C204.535 147.664 204.732 147.844 205.263 147.819C205.905 147.784 206.556 147.844 207.198 147.801C208.534 147.716 209.459 146.748 209.476 145.429C209.493 143.289 209.502 141.139 209.476 138.999C209.459 137.697 208.483 136.721 207.173 136.652C206.53 136.618 205.879 136.678 205.237 136.635C204.664 136.592 204.552 136.849 204.552 137.363C204.578 138.99 204.561 140.617 204.561 142.244L204.552 142.235Z" fill="#5B4CFF"/>
<path d="M260.272 189.324C260.272 187.928 260.272 186.532 260.272 185.136C260.272 184.82 260.306 184.52 260.657 184.366C261.017 184.203 261.342 184.263 261.565 184.546C261.762 184.794 261.908 184.734 262.139 184.623C263.457 184.015 264.716 184.126 265.838 185.059C266.215 185.376 266.395 185.308 266.729 185.034C267.919 184.075 269.255 184.032 270.599 184.614C271.704 185.094 272.226 186.027 272.243 187.217C272.269 189.289 272.243 191.353 272.26 193.425C272.26 193.939 272.098 194.299 271.524 194.29C270.95 194.29 270.787 193.896 270.787 193.4C270.787 191.85 270.787 190.291 270.787 188.741C270.787 188.407 270.787 188.065 270.787 187.731C270.762 186.369 270.197 185.753 268.963 185.736C267.782 185.719 267.028 186.472 267.011 187.757C266.985 189.307 267.011 190.865 267.011 192.415C267.011 192.723 267.011 193.04 267.011 193.348C267.02 193.871 266.9 194.299 266.266 194.29C265.675 194.282 265.564 193.862 265.564 193.374C265.564 192.107 265.564 190.839 265.564 189.572C265.564 188.921 265.59 188.279 265.555 187.628C265.487 186.404 264.725 185.693 263.56 185.736C262.396 185.779 261.753 186.464 261.736 187.697C261.719 189.563 261.728 191.422 261.736 193.288C261.736 193.828 261.659 194.307 260.966 194.282C260.315 194.256 260.281 193.785 260.281 193.288C260.281 191.97 260.281 190.651 260.281 189.332L260.272 189.324Z" fill="#5B4CFF"/>
<path d="M413.482 189.272C413.482 187.928 413.482 186.584 413.482 185.231C413.482 184.888 413.482 184.554 413.859 184.366C414.245 184.177 414.579 184.254 414.827 184.58C415.015 184.828 415.161 184.7 415.349 184.614C416.702 184.006 417.978 184.126 419.117 185.094C419.425 185.359 419.596 185.325 419.888 185.076C420.924 184.177 422.131 184.083 423.398 184.426C424.572 184.751 425.411 185.736 425.445 186.977C425.505 189.152 425.479 191.327 425.488 193.502C425.488 193.999 425.265 194.29 424.743 194.282C424.203 194.273 424.049 193.931 424.049 193.451C424.049 191.533 424.066 189.615 424.041 187.705C424.024 186.447 423.493 185.847 422.405 185.744C421.172 185.633 420.299 186.361 420.264 187.628C420.222 189.332 420.247 191.045 420.247 192.758C420.247 193.014 420.247 193.28 420.23 193.537C420.204 193.982 420.007 194.29 419.519 194.29C418.997 194.29 418.783 193.991 418.783 193.494C418.783 191.679 418.783 189.872 418.783 188.056C418.783 187.722 418.766 187.38 418.68 187.063C418.449 186.164 417.644 185.667 416.659 185.753C415.649 185.847 415.007 186.447 414.99 187.44C414.955 189.204 414.972 190.959 414.972 192.723C414.972 192.98 414.972 193.237 414.972 193.502C414.955 193.982 414.75 194.307 414.227 194.299C413.714 194.29 413.508 193.982 413.517 193.485C413.525 192.09 413.517 190.685 413.517 189.289L413.482 189.272Z" fill="#5B4CFF"/>
<path d="M401.691 187.14C401.691 185.975 401.665 184.811 401.691 183.646C401.734 181.805 403.224 180.195 405.005 180.016C407.223 179.784 409.038 180.898 409.518 182.807C409.62 183.201 409.723 183.638 409.321 183.955C408.858 184.314 408.302 184.023 408.07 183.312C407.617 181.891 406.675 181.274 405.262 181.471C404.046 181.643 403.189 182.559 403.172 183.783C403.147 186.035 403.147 188.287 403.172 190.531C403.189 191.798 404.183 192.749 405.459 192.8C406.872 192.86 407.951 192.03 408.07 190.711C408.139 189.992 408.088 189.264 408.122 188.544C408.139 188.125 407.942 188.013 407.557 188.031C407.043 188.048 406.521 188.039 406.007 188.031C405.519 188.022 405.21 187.782 405.219 187.268C405.227 186.763 405.527 186.541 406.024 186.541C406.906 186.541 407.788 186.541 408.661 186.541C409.321 186.541 409.586 186.866 409.578 187.5C409.56 188.561 409.595 189.623 409.56 190.677C409.492 192.74 407.822 194.273 405.673 194.282C403.472 194.29 401.742 192.766 401.674 190.694C401.631 189.503 401.674 188.313 401.674 187.123L401.691 187.14Z" fill="#5B4CFF"/>
<path d="M440.088 187.166C440.088 185.094 440.088 183.03 440.088 180.958C440.088 180.427 440.199 180.007 440.824 180.007C441.458 180.007 441.569 180.452 441.578 180.966C441.578 182.465 441.604 183.972 441.578 185.47C441.569 186.001 441.732 186.207 442.28 186.19C443.47 186.155 444.661 186.164 445.851 186.19C446.339 186.198 446.536 186.053 446.519 185.53C446.484 184.057 446.519 182.585 446.502 181.103C446.502 180.547 446.553 180.016 447.281 180.016C447.966 180.016 448.009 180.521 448.009 181.06C448.009 185.119 448.009 189.187 448.009 193.246C448.009 193.776 447.983 194.273 447.289 194.282C446.553 194.29 446.51 193.768 446.51 193.211C446.51 191.636 446.476 190.052 446.527 188.476C446.553 187.765 446.305 187.594 445.645 187.628C444.583 187.68 443.522 187.68 442.46 187.628C441.8 187.594 441.552 187.774 441.569 188.485C441.621 190.086 441.586 191.696 441.586 193.297C441.586 193.725 441.544 194.145 441.03 194.282C440.473 194.427 440.105 194.076 440.105 193.391C440.105 191.319 440.105 189.255 440.105 187.183L440.088 187.166Z" fill="#5B4CFF"/>
<path d="M361.213 187.166C361.213 186.001 361.179 184.837 361.213 183.672C361.282 181.763 362.703 180.204 364.493 180.016C366.737 179.776 368.466 180.846 369.014 182.799C369.169 183.338 369.263 183.869 368.569 184.057C367.944 184.229 367.73 183.809 367.576 183.27C367.19 181.942 366.223 181.317 364.878 181.463C363.611 181.6 362.703 182.508 362.669 183.852C362.618 186.053 362.618 188.253 362.669 190.454C362.703 191.935 363.8 192.86 365.281 192.817C366.694 192.775 367.619 191.773 367.627 190.283C367.627 189.718 367.61 189.144 367.627 188.579C367.644 188.168 367.482 188.031 367.088 188.048C366.6 188.074 366.103 188.048 365.615 188.048C365.11 188.048 364.716 187.842 364.716 187.311C364.716 186.78 365.058 186.549 365.589 186.558C366.471 186.566 367.353 186.558 368.235 186.558C368.843 186.558 369.134 186.883 369.134 187.474C369.134 188.536 369.169 189.598 369.126 190.66C369.032 192.775 367.353 194.299 365.17 194.307C362.952 194.307 361.308 192.826 361.222 190.677C361.179 189.512 361.222 188.348 361.213 187.183V187.166Z" fill="#5B4CFF"/>
<path d="M290.457 142.244C290.457 141.079 290.422 139.915 290.457 138.75C290.525 136.815 291.964 135.273 293.822 135.102C296.065 134.888 297.838 136.061 298.3 138.048C298.412 138.519 298.42 138.964 297.872 139.127C297.333 139.281 297.016 139.05 296.845 138.485C296.391 136.986 295.397 136.327 294.019 136.549C292.674 136.763 291.895 137.748 291.887 139.264C291.878 141.31 291.869 143.357 291.887 145.395C291.904 146.585 292.52 147.45 293.522 147.784C294.558 148.135 295.689 147.835 296.339 147.005C297.221 145.883 296.768 144.564 296.827 143.331C296.836 143.1 296.571 143.126 296.399 143.126C295.886 143.126 295.363 143.126 294.841 143.126C294.327 143.126 293.942 142.92 293.942 142.381C293.942 141.85 294.293 141.627 294.824 141.644C295.68 141.662 296.536 141.662 297.393 141.644C298.035 141.636 298.36 141.927 298.36 142.569C298.36 143.631 298.394 144.693 298.352 145.755C298.257 147.904 296.562 149.403 294.31 149.394C292.161 149.377 290.534 147.861 290.457 145.746C290.414 144.582 290.457 143.417 290.457 142.252V142.244Z" fill="#5B4CFF"/>
<path d="M430.882 184.811C433.691 183.441 436.14 184.948 436.157 187.902C436.157 188.913 436.174 189.923 436.157 190.933C436.097 193.494 433.674 195.027 431.328 193.973C431.062 193.853 430.899 193.776 430.677 194.059C430.437 194.359 430.086 194.342 429.752 194.187C429.418 194.033 429.384 193.725 429.384 193.4C429.384 189.229 429.384 185.059 429.384 180.889C429.384 180.375 429.555 180.007 430.112 179.998C430.72 179.99 430.891 180.384 430.882 180.932C430.874 182.191 430.882 183.458 430.882 184.811ZM430.882 189.264C430.882 189.863 430.882 190.454 430.882 191.053C430.899 192.132 431.482 192.74 432.535 192.809C433.691 192.886 434.564 192.269 434.624 191.216C434.693 189.949 434.684 188.681 434.624 187.414C434.582 186.395 433.7 185.71 432.655 185.744C431.542 185.787 430.891 186.446 430.874 187.56C430.874 188.125 430.874 188.699 430.874 189.264H430.882Z" fill="#5B4CFF"/>
<path d="M317.156 184.837C318.133 184.271 318.989 184.143 319.914 184.357C321.224 184.674 322.269 185.779 322.346 187.14C322.423 188.425 322.423 189.726 322.38 191.019C322.303 193.545 319.905 195.027 317.593 193.99C317.345 193.879 317.165 193.776 316.942 194.068C316.711 194.367 316.352 194.35 316.018 194.205C315.667 194.05 315.667 193.734 315.667 193.417C315.667 189.255 315.667 185.093 315.667 180.932C315.667 180.435 315.778 180.041 316.352 180.016C316.968 179.99 317.148 180.392 317.148 180.923C317.148 182.182 317.148 183.449 317.148 184.845L317.156 184.837ZM317.156 189.212C317.156 189.863 317.139 190.505 317.156 191.156C317.191 192.089 317.722 192.672 318.595 192.783C319.717 192.929 320.625 192.501 320.796 191.55C321.061 190.043 321.053 188.51 320.796 187.003C320.642 186.13 319.7 185.633 318.741 185.744C317.764 185.864 317.191 186.464 317.156 187.423C317.139 188.013 317.156 188.613 317.156 189.204V189.212Z" fill="#5B4CFF"/>
<path d="M367.285 139.88C368.227 139.41 369.066 139.213 369.965 139.427C371.472 139.786 372.517 140.977 372.551 142.518C372.585 144.513 372.551 146.5 372.568 148.495C372.568 149.009 372.388 149.368 371.823 149.377C371.207 149.377 371.061 148.974 371.061 148.435C371.061 146.568 371.061 144.71 371.061 142.843C371.061 141.567 370.384 140.848 369.211 140.84C368.013 140.831 367.293 141.576 367.285 142.86C367.285 144.701 367.276 146.534 367.285 148.375C367.285 148.932 367.19 149.385 366.514 149.377C365.889 149.36 365.786 148.915 365.786 148.401C365.786 144.282 365.786 140.172 365.786 136.053C365.786 135.53 365.915 135.102 366.54 135.102C367.165 135.102 367.285 135.522 367.285 136.053C367.276 137.294 367.285 138.528 367.285 139.889V139.88Z" fill="#5B4CFF"/>
<path d="M382.621 194.205C381.739 194.205 380.857 194.205 379.984 194.205C378.708 194.196 378.348 193.614 378.939 192.483C380.677 189.135 382.424 185.787 384.171 182.447C384.479 181.854 384.308 181.557 383.657 181.557C382.416 181.557 381.174 181.548 379.924 181.557C379.393 181.557 378.973 181.454 378.973 180.82C378.973 180.187 379.427 180.075 379.932 180.075C381.722 180.075 383.503 180.058 385.293 180.075C386.372 180.093 386.731 180.701 386.226 181.668C384.925 184.194 383.597 186.712 382.279 189.229C381.791 190.171 381.311 191.113 380.797 192.047C380.515 192.56 380.549 192.757 381.2 192.749C382.596 192.715 384 192.749 385.396 192.74C385.935 192.74 386.415 192.817 386.406 193.502C386.389 194.145 385.909 194.213 385.413 194.213C384.479 194.213 383.546 194.213 382.613 194.213L382.621 194.205Z" fill="#5B4CFF"/>
<path d="M205.982 194.205C205.075 194.205 204.167 194.213 203.259 194.205C202.078 194.188 201.726 193.605 202.274 192.543C204.021 189.17 205.785 185.804 207.541 182.43C207.843 181.848 207.663 181.557 207.001 181.557C205.734 181.557 204.467 181.548 203.191 181.557C202.66 181.557 202.317 181.369 202.317 180.821C202.317 180.307 202.677 180.084 203.139 180.084C205.032 180.076 206.924 180.05 208.808 180.084C209.759 180.101 210.058 180.735 209.579 181.66C208.363 184.023 207.121 186.387 205.897 188.75C205.314 189.872 204.732 191.002 204.133 192.115C203.884 192.578 203.953 192.758 204.509 192.749C205.931 192.732 207.361 192.749 208.782 192.74C209.305 192.74 209.759 192.826 209.776 193.443C209.801 194.119 209.305 194.213 208.765 194.213C207.832 194.213 206.899 194.213 205.965 194.213L205.982 194.205Z" fill="#5B4CFF"/>
<path d="M337.674 167.051C337.674 167.822 337.682 168.447 337.674 169.063C337.656 169.706 337.631 170.305 338.47 170.519C338.847 170.613 338.898 171.024 338.795 171.367C338.684 171.744 338.393 171.889 338.008 171.821C337.802 171.786 337.545 171.786 337.417 171.667C336.809 171.067 336.261 171.29 335.593 171.598C334.557 172.069 333.452 171.941 332.442 171.427C331.337 170.862 330.883 169.92 330.917 168.687C330.943 167.531 331.551 166.811 332.544 166.357C333.349 165.989 334.231 165.887 335.088 165.698C335.533 165.604 336.166 165.655 336.175 164.945C336.184 164.251 335.927 163.677 335.225 163.403C334.308 163.052 333.341 163.326 332.75 164.123C332.707 164.182 332.664 164.251 332.621 164.319C332.33 164.705 331.971 164.833 331.551 164.559C331.14 164.294 331.2 163.926 331.371 163.532C331.928 162.29 333.306 161.631 334.968 161.828C336.244 161.973 337.34 162.984 337.588 164.242C337.776 165.219 337.648 166.203 337.682 167.034L337.674 167.051ZM336.192 167.907C336.012 167.668 336.552 166.974 335.85 167.017C334.985 167.068 334.111 167.231 333.289 167.573C332.716 167.822 332.382 168.207 332.407 168.884C332.433 169.569 332.767 169.997 333.383 170.228C334.745 170.725 336.381 170.022 336.184 167.907H336.192Z" fill="#5B4CFF"/>
<path d="M302.83 189.658C302.83 190.283 302.839 190.899 302.83 191.516C302.813 192.158 302.796 192.757 303.627 192.963C303.995 193.057 304.055 193.468 303.952 193.819C303.849 194.162 303.593 194.316 303.233 194.273C303.027 194.247 302.762 194.256 302.642 194.136C301.948 193.451 301.332 193.836 300.604 194.11C299.551 194.504 298.455 194.402 297.461 193.819C296.382 193.194 296.006 192.209 296.074 190.993C296.143 189.906 296.751 189.255 297.693 188.827C298.523 188.45 299.439 188.365 300.313 188.151C300.724 188.048 301.281 188.108 301.323 187.508C301.366 186.858 301.178 186.275 300.527 185.95C299.594 185.479 298.558 185.736 297.915 186.592C297.821 186.712 297.744 186.858 297.633 186.96C297.35 187.217 297.008 187.226 296.699 187.037C296.357 186.832 296.305 186.489 296.468 186.155C296.614 185.856 296.776 185.547 297.008 185.308C298.052 184.22 299.345 184.006 300.724 184.451C302 184.862 302.711 185.83 302.796 187.174C302.848 187.996 302.805 188.827 302.805 189.658C302.813 189.658 302.822 189.658 302.839 189.658H302.83ZM301.358 190.42C301.161 190.163 301.717 189.444 300.955 189.486C300.116 189.529 299.277 189.7 298.48 190.017C297.787 190.3 297.496 190.788 297.598 191.533C297.701 192.252 298.172 192.612 298.814 192.749C300.407 193.091 301.358 192.235 301.366 190.42H301.358Z" fill="#5B4CFF"/>
<path d="M240.063 189.598C240.063 190.377 240.071 191.147 240.063 191.927C240.054 192.389 240.191 192.74 240.671 192.886C241.15 193.031 241.347 193.348 241.193 193.828C241.031 194.359 240.517 194.444 240.191 194.222C239.275 193.605 238.496 193.93 237.545 194.196C234.985 194.915 232.896 193.023 233.384 190.599C233.589 189.589 234.291 189.084 235.173 188.733C235.944 188.424 236.783 188.356 237.58 188.142C237.982 188.039 238.522 188.108 238.556 187.482C238.59 186.849 238.427 186.301 237.819 185.975C236.903 185.479 235.807 185.719 235.191 186.549C235.036 186.755 234.934 187.02 234.668 187.097C234.36 187.191 234.043 187.191 233.803 186.926C233.529 186.626 233.623 186.309 233.778 185.993C234.377 184.717 235.901 184.023 237.46 184.331C238.958 184.622 239.986 185.744 240.046 187.2C240.08 187.996 240.046 188.801 240.046 189.606L240.063 189.598ZM238.564 190.514C238.564 190.3 238.564 190.034 238.564 189.777C238.564 189.495 238.427 189.409 238.17 189.461C237.366 189.632 236.526 189.692 235.756 190.009C235.113 190.274 234.728 190.694 234.805 191.43C234.874 192.132 235.362 192.629 236.115 192.766C237.614 193.031 238.753 192.192 238.573 190.514H238.564Z" fill="#5B4CFF"/>
<path d="M382.535 144.659C382.535 145.438 382.535 146.208 382.535 146.988C382.535 147.484 382.681 147.835 383.195 147.99C383.64 148.118 383.828 148.435 383.7 148.88C383.563 149.343 383.203 149.437 382.775 149.351C382.724 149.343 382.664 149.343 382.63 149.308C381.782 148.632 380.977 148.94 380.069 149.257C379.127 149.582 378.117 149.42 377.226 148.914C376.173 148.315 375.788 147.365 375.822 146.183C375.856 145.061 376.438 144.359 377.415 143.914C378.245 143.528 379.153 143.443 380.035 143.229C380.463 143.126 381.028 143.194 381.054 142.518C381.08 141.841 380.874 141.302 380.215 140.994C379.281 140.565 378.297 140.814 377.663 141.653C377.569 141.773 377.492 141.91 377.38 142.021C377.132 142.278 376.824 142.287 376.524 142.15C376.19 142.004 376.087 141.704 376.182 141.379C376.25 141.139 376.37 140.899 376.507 140.685C377.252 139.546 378.828 139.05 380.309 139.469C381.619 139.838 382.51 140.994 382.535 142.398C382.552 143.151 382.535 143.896 382.535 144.65V144.659ZM381.054 145.618C381.054 145.489 381.037 145.361 381.054 145.232C381.14 144.65 380.943 144.427 380.335 144.599C379.667 144.778 378.973 144.864 378.305 145.07C377.637 145.275 377.209 145.738 377.278 146.508C377.346 147.236 377.851 147.75 378.631 147.87C380.009 148.075 381.2 147.407 381.045 145.618H381.054Z" fill="#5B4CFF"/>
<path d="M293.642 167.179C293.642 167.959 293.642 168.729 293.642 169.509C293.642 169.954 293.771 170.305 294.276 170.433C294.73 170.545 294.892 170.904 294.773 171.341C294.644 171.786 294.302 171.923 293.856 171.795C293.805 171.778 293.745 171.795 293.702 171.761C292.829 171.05 291.981 171.418 291.073 171.744C290.191 172.052 289.275 171.872 288.436 171.452C287.263 170.862 286.826 169.86 286.895 168.567C286.955 167.402 287.631 166.734 288.624 166.315C289.412 165.981 290.268 165.878 291.099 165.698C291.527 165.604 292.118 165.638 292.135 164.987C292.152 164.371 291.972 163.814 291.356 163.497C290.465 163.044 289.344 163.292 288.727 164.114C288.573 164.319 288.453 164.551 288.196 164.662C287.888 164.79 287.631 164.696 287.408 164.499C287.109 164.225 287.177 163.908 287.314 163.574C287.854 162.316 289.309 161.622 290.971 161.845C292.272 162.016 293.36 163.086 293.557 164.379C293.574 164.508 293.599 164.636 293.599 164.765C293.599 165.57 293.599 166.366 293.599 167.171C293.599 167.171 293.617 167.171 293.625 167.171L293.642 167.179ZM292.161 167.916C292.161 167.779 292.161 167.522 292.161 167.265C292.161 167.042 292.032 166.94 291.81 166.991C290.953 167.188 290.071 167.239 289.249 167.591C288.667 167.839 288.35 168.241 288.385 168.909C288.419 169.551 288.727 169.988 289.309 170.211C290.688 170.75 292.332 170.048 292.161 167.924V167.916Z" fill="#5B4CFF"/>
<path d="M263.235 142.252C263.235 140.206 263.235 138.159 263.235 136.121C263.235 135.599 263.269 135.094 263.971 135.094C264.691 135.094 264.682 135.633 264.682 136.138C264.682 137.175 264.682 138.211 264.682 139.247C264.682 139.624 264.648 139.889 265.222 139.658C267.645 138.647 269.923 140.172 269.948 142.792C269.965 144.659 269.948 146.517 269.948 148.384C269.948 148.889 269.905 149.36 269.263 149.377C268.57 149.394 268.493 148.906 268.493 148.375C268.493 146.483 268.467 144.599 268.493 142.706C268.51 140.985 266.789 140.531 265.744 141.019C264.965 141.379 264.699 142.038 264.699 142.852C264.699 144.479 264.699 146.114 264.699 147.741C264.699 147.973 264.699 148.204 264.699 148.444C264.708 148.966 264.579 149.394 263.946 149.377C263.363 149.36 263.243 148.966 263.243 148.469C263.243 147.433 263.243 146.397 263.243 145.361C263.243 144.325 263.243 143.289 263.243 142.252H263.235Z" fill="#5B4CFF"/>
<path d="M348.351 166.837C348.351 166.238 348.334 165.647 348.351 165.047C348.411 163.189 349.781 161.845 351.631 161.811C353.583 161.776 354.971 163.009 355.108 164.91C355.15 165.45 355.116 165.998 355.125 166.537C355.125 167.214 354.774 167.522 354.106 167.522C352.89 167.522 351.674 167.548 350.449 167.505C349.884 167.488 349.833 167.753 349.833 168.207C349.841 169.329 350.227 169.98 351.109 170.271C352.025 170.571 352.838 170.271 353.421 169.355C353.695 168.926 353.986 168.652 354.483 168.952C354.962 169.243 354.902 169.671 354.688 170.108C354.072 171.401 352.59 172.078 351.015 171.778C349.499 171.487 348.428 170.314 348.343 168.772C348.309 168.13 348.343 167.479 348.343 166.828L348.351 166.837ZM351.717 166.169C351.948 166.169 352.179 166.169 352.41 166.169C353.678 166.169 353.909 165.844 353.549 164.611C353.284 163.72 352.505 163.215 351.528 163.309C350.569 163.403 349.918 164.071 349.859 165.022C349.807 165.787 350.17 166.169 350.946 166.169C351.203 166.169 351.46 166.169 351.725 166.169H351.717Z" fill="#5B4CFF"/>
<path d="M306.025 145.044C305.374 145.044 304.732 145.053 304.081 145.044C303.687 145.036 303.541 145.181 303.516 145.584C303.456 146.68 303.884 147.502 304.714 147.801C305.682 148.153 306.504 147.844 307.155 146.859C307.42 146.457 307.737 146.243 308.183 146.5C308.671 146.774 308.611 147.211 308.405 147.656C307.831 148.889 306.461 149.557 304.886 149.377C303.593 149.223 302.36 148.204 302.171 146.954C301.923 145.258 301.906 143.537 302.171 141.85C302.42 140.275 304.021 139.221 305.708 139.35C307.386 139.478 308.671 140.703 308.782 142.304C308.825 142.946 308.799 143.597 308.79 144.248C308.79 144.779 308.499 145.053 307.96 145.053C307.309 145.053 306.667 145.053 306.016 145.053L306.025 145.044ZM305.408 143.683C305.896 143.683 306.384 143.683 306.881 143.683C307.052 143.683 307.283 143.708 307.292 143.451C307.326 142.732 307.412 141.996 306.838 141.413C306.273 140.84 305.596 140.694 304.851 140.917C304.089 141.148 303.661 141.705 303.55 142.484C303.396 143.606 303.464 143.683 304.56 143.683C304.843 143.683 305.125 143.683 305.408 143.683Z" fill="#5B4CFF"/>
<path d="M277.372 145.044C276.721 145.044 276.079 145.061 275.428 145.044C275.026 145.035 274.906 145.198 274.889 145.592C274.838 146.722 275.249 147.51 276.079 147.801C277.047 148.144 277.86 147.844 278.52 146.842C278.794 146.431 279.11 146.234 279.556 146.5C280.035 146.782 279.967 147.219 279.761 147.656C279.196 148.863 277.877 149.514 276.31 149.368C275.052 149.248 273.793 148.307 273.57 147.073C273.245 145.284 273.219 143.46 273.57 141.679C273.878 140.137 275.505 139.17 277.15 139.35C278.819 139.529 280.027 140.728 280.155 142.389C280.198 142.98 280.172 143.58 280.172 144.171C280.172 144.779 279.847 145.061 279.239 145.044C278.614 145.035 277.997 145.044 277.372 145.044ZM276.79 143.682C277.021 143.682 277.252 143.682 277.483 143.682C278.708 143.682 278.965 143.323 278.605 142.124C278.34 141.259 277.518 140.737 276.559 140.831C275.702 140.917 275.026 141.567 274.915 142.424C274.752 143.614 274.812 143.682 276.019 143.682C276.276 143.682 276.533 143.682 276.79 143.682Z" fill="#5B4CFF"/>
<path d="M326.251 145.044C325.6 145.044 324.957 145.061 324.307 145.044C323.904 145.035 323.776 145.198 323.75 145.592C323.69 146.679 324.127 147.51 324.958 147.801C325.934 148.144 326.747 147.844 327.398 146.851C327.672 146.44 327.989 146.251 328.434 146.5C328.879 146.748 328.871 147.15 328.691 147.579C328.152 148.837 326.739 149.557 325.129 149.368C323.767 149.206 322.534 148.118 322.389 146.791C322.209 145.198 322.2 143.58 322.389 141.987C322.577 140.403 324.101 139.272 325.805 139.332C327.509 139.392 328.888 140.617 329.016 142.227C329.068 142.895 329.042 143.571 329.034 144.248C329.034 144.787 328.734 145.044 328.203 145.044C327.552 145.044 326.91 145.044 326.259 145.044H326.251ZM325.694 143.682C326.156 143.682 326.619 143.682 327.09 143.682C327.295 143.682 327.526 143.691 327.535 143.391C327.561 142.612 327.621 141.833 326.918 141.268C326.293 140.771 325.6 140.685 324.889 140.994C324.118 141.319 323.819 141.961 323.759 142.775C323.716 143.434 323.853 143.811 324.624 143.7C324.975 143.648 325.343 143.691 325.702 143.691L325.694 143.682Z" fill="#5B4CFF"/>
<path d="M325.908 189.324C325.908 188.596 325.848 187.868 325.917 187.157C326.079 185.419 327.561 184.194 329.342 184.254C331.191 184.314 332.544 185.633 332.587 187.431C332.604 187.971 332.587 188.519 332.587 189.058C332.596 189.675 332.305 189.957 331.688 189.949C330.472 189.94 329.256 189.966 328.04 189.94C327.526 189.932 327.295 190.052 327.304 190.625C327.321 191.704 327.749 192.475 328.563 192.732C329.522 193.031 330.327 192.732 330.943 191.781C331.209 191.362 331.543 191.173 331.979 191.404C332.467 191.661 332.442 192.09 332.219 192.543C331.611 193.828 330.172 194.504 328.554 194.265C327.218 194.068 326.062 192.912 325.934 191.567C325.865 190.822 325.917 190.069 325.917 189.324C325.917 189.324 325.908 189.324 325.9 189.324H325.908ZM329.273 188.587C329.736 188.587 330.198 188.587 330.661 188.587C330.866 188.587 331.089 188.587 331.106 188.296C331.132 187.517 331.191 186.729 330.481 186.172C329.856 185.684 329.171 185.59 328.451 185.898C327.681 186.232 327.381 186.866 327.321 187.68C327.27 188.347 327.432 188.707 328.194 188.596C328.545 188.544 328.914 188.587 329.273 188.587Z" fill="#5B4CFF"/>
<path d="M218.63 145.044C217.979 145.044 217.337 145.061 216.686 145.044C216.275 145.036 216.155 145.215 216.138 145.601C216.078 146.688 216.515 147.519 217.354 147.81C218.33 148.152 219.135 147.853 219.794 146.851C220.068 146.431 220.394 146.26 220.831 146.508C221.259 146.757 221.267 147.151 221.079 147.587C220.505 148.872 219.024 149.6 217.44 149.36C216.078 149.154 214.879 148.033 214.759 146.705C214.622 145.155 214.614 143.597 214.759 142.056C214.913 140.48 216.421 139.298 218.116 139.333C219.82 139.358 221.242 140.566 221.387 142.158C221.447 142.852 221.413 143.554 221.413 144.256C221.413 144.796 221.113 145.053 220.582 145.053C219.931 145.053 219.289 145.053 218.638 145.053L218.63 145.044ZM218.056 143.683C218.519 143.683 218.981 143.683 219.443 143.683C219.64 143.683 219.897 143.717 219.906 143.417C219.94 142.672 220.008 141.91 219.366 141.336C218.775 140.805 218.09 140.694 217.354 140.959C216.6 141.234 216.224 141.816 216.147 142.604C216.044 143.648 216.078 143.691 217.123 143.691C217.431 143.691 217.739 143.691 218.048 143.691L218.056 143.683Z" fill="#5B4CFF"/>
<path d="M262.618 167.531C261.993 167.531 261.377 167.531 260.752 167.531C260.529 167.531 260.298 167.479 260.212 167.822C259.972 168.747 260.426 169.817 261.257 170.202C262.147 170.622 263.141 170.339 263.714 169.5C263.774 169.414 263.817 169.32 263.877 169.235C264.117 168.841 264.451 168.704 264.853 168.952C265.239 169.183 265.324 169.517 265.144 169.954C264.622 171.23 263.124 172.052 261.642 171.829C260.058 171.598 258.842 170.459 258.774 169.029C258.705 167.582 258.705 166.126 258.774 164.688C258.851 163.052 260.306 161.828 262.053 161.819C263.851 161.802 265.247 162.941 265.41 164.593C265.478 165.261 265.444 165.938 265.453 166.606C265.461 167.265 265.102 167.531 264.477 167.531C263.851 167.531 263.235 167.531 262.61 167.531H262.618ZM262.113 166.169C262.576 166.169 263.047 166.169 263.509 166.169C263.757 166.169 263.98 166.126 263.997 165.809C264.04 165.022 264.006 164.242 263.321 163.694C262.695 163.198 261.976 163.163 261.274 163.463C260.529 163.78 260.264 164.414 260.204 165.201C260.152 165.904 260.298 166.298 261.103 166.178C261.428 166.126 261.771 166.178 262.105 166.178L262.113 166.169Z" fill="#5B4CFF"/>
<path d="M275.848 189.281C275.848 188.604 275.823 187.937 275.848 187.26C275.942 185.539 277.381 184.246 279.171 184.237C281.02 184.237 282.442 185.522 282.527 187.303C282.553 187.868 282.527 188.442 282.545 189.007C282.562 189.649 282.279 189.957 281.62 189.949C280.429 189.932 279.239 189.983 278.049 189.932C277.39 189.906 277.261 190.18 277.278 190.754C277.321 191.798 277.766 192.526 278.571 192.749C279.547 193.014 280.301 192.732 280.883 191.807C281.166 191.362 281.517 191.156 281.971 191.43C282.442 191.704 282.382 192.141 282.159 192.586C281.491 193.896 279.967 194.573 278.391 194.256C276.987 193.965 275.917 192.749 275.848 191.31C275.814 190.642 275.848 189.966 275.848 189.29V189.281ZM279.154 188.587C279.65 188.587 280.138 188.587 280.635 188.587C280.858 188.587 281.012 188.553 281.089 188.279C281.38 187.174 280.669 185.967 279.59 185.753C278.443 185.53 277.441 186.292 277.313 187.5C277.201 188.536 277.244 188.579 278.306 188.587C278.588 188.587 278.88 188.587 279.162 188.587H279.154Z" fill="#5B4CFF"/>
<path d="M286.012 189.324C286.012 188.031 286.012 186.738 286.012 185.445C286.012 185.033 285.969 184.597 286.44 184.366C286.86 184.16 287.203 184.297 287.468 184.64C287.648 184.871 287.776 184.691 287.93 184.631C290.636 183.509 292.777 184.914 292.786 187.799C292.786 189.64 292.786 191.473 292.786 193.314C292.786 193.836 292.691 194.273 292.066 194.282C291.398 194.29 291.279 193.836 291.287 193.28C291.287 191.439 291.287 189.606 291.287 187.765C291.287 186.515 290.576 185.744 289.446 185.736C288.281 185.719 287.528 186.515 287.519 187.782C287.511 189.623 287.511 191.456 287.519 193.297C287.519 193.811 287.451 194.264 286.817 194.282C286.149 194.299 286.021 193.836 286.021 193.288C286.021 191.97 286.021 190.651 286.021 189.324H286.012Z" fill="#5B4CFF"/>
<path d="M283.598 167.942C283.598 168.952 283.589 169.963 283.598 170.973C283.598 171.504 283.367 171.847 282.844 171.847C282.322 171.847 282.091 171.487 282.091 170.956C282.091 169.064 282.091 167.18 282.091 165.287C282.091 164.046 281.363 163.292 280.215 163.292C279.068 163.292 278.332 164.054 278.323 165.279C278.314 167.12 278.306 168.952 278.323 170.793C278.323 171.341 278.237 171.829 277.587 171.838C276.944 171.838 276.816 171.367 276.816 170.81C276.816 168.173 276.816 165.527 276.816 162.89C276.816 162.487 276.833 162.076 277.261 161.896C277.621 161.742 277.989 161.802 278.237 162.145C278.426 162.41 278.58 162.239 278.76 162.153C281.329 161.023 283.581 162.487 283.589 165.296C283.589 166.178 283.589 167.06 283.589 167.933L283.598 167.942Z" fill="#5B4CFF"/>
<path d="M320.856 166.837C320.856 165.518 320.856 164.2 320.856 162.881C320.856 162.504 320.873 162.127 321.241 161.93C321.626 161.734 322.012 161.793 322.277 162.153C322.483 162.427 322.628 162.222 322.8 162.153C325.334 161.04 327.603 162.487 327.612 165.244C327.612 167.085 327.612 168.918 327.612 170.759C327.612 171.324 327.552 171.864 326.85 171.847C326.156 171.821 326.105 171.273 326.105 170.716C326.113 168.926 326.113 167.145 326.105 165.356C326.105 164.054 325.386 163.292 324.212 163.301C323.039 163.309 322.337 164.08 322.329 165.381C322.32 167.222 322.311 169.055 322.329 170.896C322.329 171.444 322.174 171.855 321.584 171.847C320.993 171.847 320.83 171.41 320.83 170.879C320.83 169.534 320.83 168.19 320.83 166.846L320.856 166.837Z" fill="#5B4CFF"/>
<path d="M317.208 166.82C317.208 167.436 317.216 168.062 317.208 168.678C317.165 170.459 315.795 171.795 313.954 171.864C312.156 171.932 310.623 170.665 310.52 168.892C310.443 167.531 310.434 166.152 310.52 164.782C310.64 162.907 312.096 161.742 314.091 161.819C315.855 161.888 317.174 163.241 317.208 165.03C317.216 165.621 317.208 166.22 317.208 166.811V166.82ZM315.709 166.811C315.709 166.246 315.709 165.672 315.709 165.107C315.709 165.056 315.709 165.004 315.709 164.953C315.632 164.028 314.998 163.395 314.057 163.309C313.055 163.215 312.198 163.694 312.053 164.611C311.813 166.066 311.83 167.548 312.044 169.003C312.173 169.911 313.063 170.451 314.014 170.374C314.956 170.305 315.649 169.611 315.701 168.669C315.735 168.053 315.701 167.428 315.701 166.811H315.709Z" fill="#5B4CFF"/>
<path d="M219.7 189.341C219.7 190.685 219.7 192.03 219.7 193.374C219.7 193.725 219.666 194.059 219.298 194.213C218.964 194.35 218.604 194.333 218.381 194.025C218.142 193.691 217.953 193.905 217.731 194.008C216.318 194.641 214.459 194.256 213.612 193.16C213.124 192.535 212.987 191.807 212.978 191.045C212.978 189.135 212.978 187.217 212.978 185.308C212.978 184.777 213.055 184.263 213.714 184.263C214.374 184.263 214.442 184.768 214.442 185.308C214.434 187.14 214.425 188.981 214.442 190.814C214.459 192.107 215.196 192.817 216.412 192.792C217.491 192.766 218.193 192.09 218.21 190.976C218.236 189.195 218.219 187.406 218.219 185.624C218.219 185.419 218.219 185.213 218.227 185.008C218.261 184.563 218.51 184.263 218.964 184.263C219.452 184.263 219.709 184.554 219.7 185.059C219.7 186.481 219.7 187.902 219.7 189.324V189.341Z" fill="#5B4CFF"/>
<path d="M241.185 166.88C241.185 165.536 241.185 164.191 241.185 162.847C241.185 162.479 241.168 162.093 241.57 161.913C241.93 161.759 242.298 161.785 242.546 162.119C242.803 162.461 242.991 162.179 243.206 162.085C245.055 161.263 247.187 162.102 247.744 163.891C247.847 164.234 247.907 164.602 247.907 164.962C247.924 166.957 247.924 168.944 247.915 170.939C247.915 171.247 247.898 171.564 247.564 171.744C247.016 172.043 246.46 171.684 246.46 170.965C246.442 169.081 246.46 167.188 246.451 165.296C246.442 164.08 245.749 163.335 244.653 163.283C243.514 163.232 242.7 163.951 242.692 165.09C242.666 166.846 242.683 168.61 242.683 170.365C242.683 170.571 242.683 170.776 242.683 170.982C242.675 171.504 242.409 171.847 241.887 171.821C241.399 171.795 241.185 171.478 241.193 170.973C241.21 169.603 241.193 168.233 241.193 166.863L241.185 166.88Z" fill="#5B4CFF"/>
<path d="M216.429 166.794C216.429 168.164 216.429 169.534 216.429 170.904C216.429 171.255 216.403 171.581 216.035 171.752C215.684 171.923 215.35 171.872 215.127 171.581C214.887 171.273 214.725 171.444 214.485 171.547C213.398 172.026 212.31 171.975 211.265 171.452C210.109 170.879 209.715 169.843 209.707 168.627C209.69 166.691 209.707 164.748 209.707 162.812C209.707 162.316 209.784 161.845 210.426 161.836C211.111 161.836 211.171 162.316 211.171 162.855C211.171 164.713 211.145 166.58 211.171 168.438C211.197 169.903 212.49 170.776 213.8 170.236C214.579 169.92 214.947 169.32 214.939 168.472C214.939 166.743 214.939 165.004 214.939 163.275C214.939 163.069 214.939 162.864 214.939 162.658C214.965 162.144 215.187 161.802 215.744 161.836C216.258 161.862 216.429 162.204 216.429 162.684C216.42 164.054 216.429 165.424 216.429 166.794Z" fill="#5B4CFF"/>
<path d="M315.127 149.385C314.176 149.351 313.02 148.88 312.198 147.75C311.907 147.356 311.59 146.876 312.138 146.457C312.626 146.089 313.046 146.328 313.406 146.748C314.099 147.562 314.947 148.041 316.06 147.87C316.848 147.75 317.456 147.245 317.55 146.602C317.653 145.883 317.319 145.344 316.446 145.044C315.692 144.779 314.896 144.642 314.134 144.402C312.772 143.974 312.215 143.169 312.241 141.824C312.258 140.925 312.729 140.291 313.466 139.889C314.973 139.067 316.506 139.161 317.978 140C318.381 140.232 318.8 140.565 318.475 141.122C318.158 141.67 317.679 141.507 317.259 141.276C316.446 140.84 315.606 140.677 314.716 140.942C314.185 141.096 313.774 141.379 313.74 141.996C313.705 142.595 314.082 142.895 314.579 143.057C315.144 143.246 315.718 143.383 316.291 143.528C318.338 144.034 319.229 145.104 319.04 146.851C318.878 148.324 317.447 149.36 315.118 149.377L315.127 149.385Z" fill="#5B4CFF"/>
<path d="M226.671 194.282C225.266 194.256 224.11 193.725 223.297 192.543C223.04 192.167 222.826 191.738 223.297 191.379C223.751 191.028 224.162 191.173 224.513 191.584C225.24 192.441 226.105 192.972 227.296 192.766C228.075 192.629 228.674 192.107 228.743 191.456C228.828 190.634 228.332 190.197 227.655 189.957C226.927 189.7 226.157 189.563 225.412 189.341C223.999 188.913 223.408 188.108 223.434 186.755C223.451 185.744 223.999 185.093 224.847 184.7C226.302 184.015 227.767 184.1 229.154 184.905C229.556 185.136 229.984 185.453 229.668 186.018C229.368 186.566 228.888 186.429 228.452 186.198C227.672 185.77 226.859 185.59 225.985 185.821C225.429 185.967 224.966 186.241 224.915 186.892C224.864 187.534 225.3 187.825 225.814 187.996C226.422 188.202 227.056 188.356 227.672 188.527C229.599 189.058 230.421 190.103 230.233 191.747C230.062 193.177 228.734 194.205 226.97 194.273C226.867 194.273 226.765 194.273 226.662 194.273L226.671 194.282Z" fill="#5B4CFF"/>
<path d="M348.865 149.377C347.435 149.317 346.254 148.786 345.457 147.562C345.217 147.193 345.072 146.774 345.509 146.457C345.92 146.157 346.339 146.234 346.682 146.628C347.41 147.476 348.249 148.05 349.439 147.87C350.235 147.75 350.903 147.21 350.963 146.543C351.032 145.738 350.544 145.284 349.859 145.053C349.122 144.804 348.36 144.65 347.624 144.427C346.331 144.034 345.757 143.366 345.654 142.235C345.551 141.156 345.997 140.351 346.922 139.863C348.411 139.084 349.91 139.178 351.366 139.992C351.802 140.232 352.154 140.591 351.862 141.131C351.563 141.696 351.066 141.507 350.646 141.285C349.859 140.857 349.045 140.703 348.18 140.925C347.615 141.071 347.153 141.37 347.118 142.004C347.076 142.621 347.521 142.929 348.043 143.092C348.66 143.289 349.285 143.434 349.91 143.605C351.785 144.119 352.633 145.172 352.453 146.774C352.282 148.264 350.963 149.317 349.191 149.377C349.088 149.377 348.985 149.377 348.882 149.377H348.865Z" fill="#5B4CFF"/>
<path d="M245.74 149.385C244.738 149.343 243.565 148.846 242.743 147.681C242.469 147.288 242.212 146.834 242.743 146.457C243.197 146.132 243.617 146.294 243.968 146.705C244.679 147.544 245.526 148.058 246.682 147.878C247.487 147.75 248.138 147.202 248.181 146.534C248.241 145.72 247.744 145.284 247.059 145.053C246.348 144.813 245.612 144.667 244.893 144.453C243.522 144.042 242.932 143.34 242.863 142.141C242.795 141.079 243.257 140.317 244.156 139.855C245.62 139.11 247.11 139.17 248.54 139.975C248.969 140.214 249.422 140.548 249.08 141.148C248.763 141.704 248.275 141.507 247.855 141.285C247.042 140.848 246.203 140.703 245.312 140.959C244.773 141.122 244.362 141.43 244.336 142.021C244.31 142.604 244.704 142.92 245.201 143.074C245.937 143.306 246.699 143.468 247.436 143.7C249.277 144.256 250.125 145.806 249.517 147.484C249.106 148.615 247.744 149.385 245.749 149.394L245.74 149.385Z" fill="#5B4CFF"/>
<path d="M231.525 144.419C231.525 145.763 231.525 147.108 231.525 148.452C231.525 148.795 231.517 149.137 231.14 149.308C230.798 149.454 230.447 149.428 230.224 149.137C229.95 148.769 229.736 149.043 229.496 149.146C227.646 149.933 225.489 149.069 224.958 147.313C224.855 146.971 224.821 146.602 224.812 146.243C224.795 144.282 224.812 142.312 224.795 140.351C224.795 139.829 224.906 139.375 225.506 139.367C226.156 139.367 226.251 139.855 226.251 140.394C226.242 142.227 226.234 144.068 226.251 145.9C226.268 147.142 226.944 147.861 228.049 147.895C229.222 147.93 229.984 147.27 230.018 146.097C230.061 144.367 230.036 142.638 230.044 140.899C230.044 140.643 230.044 140.386 230.061 140.12C230.087 139.632 230.344 139.324 230.84 139.358C231.277 139.392 231.517 139.675 231.508 140.146C231.508 141.567 231.508 142.989 231.508 144.41L231.525 144.419Z" fill="#5B4CFF"/>
<path d="M252.882 144.162C252.925 143.546 252.805 142.749 252.976 141.953C253.327 140.326 254.732 139.264 256.436 139.341C258.114 139.418 259.458 140.651 259.638 142.278C259.69 142.783 259.621 143.246 259.005 143.323C258.405 143.391 258.217 143.015 258.131 142.484C257.96 141.353 257.181 140.763 256.067 140.848C255.057 140.925 254.389 141.679 254.372 142.801C254.355 143.862 254.355 144.924 254.372 145.977C254.389 147.074 255.014 147.801 255.999 147.896C257.172 148.007 257.917 147.442 258.123 146.251C258.217 145.729 258.405 145.327 259.005 145.412C259.612 145.498 259.672 145.969 259.63 146.474C259.475 148.204 258.011 149.42 256.136 149.403C254.338 149.377 252.976 148.058 252.882 146.226C252.848 145.609 252.882 144.984 252.882 144.179V144.162Z" fill="#5B4CFF"/>
<path d="M355.673 144.231C355.724 143.528 355.57 142.646 355.793 141.782C356.204 140.206 357.702 139.178 359.381 139.341C361.016 139.495 362.309 140.771 362.429 142.355C362.472 142.852 362.335 143.246 361.77 143.314C361.222 143.374 361.008 143.049 360.922 142.535C360.716 141.328 359.971 140.737 358.833 140.831C357.796 140.917 357.163 141.679 357.154 142.869C357.154 143.905 357.146 144.941 357.154 145.969C357.171 147.065 357.796 147.784 358.79 147.878C359.92 147.981 360.716 147.408 360.905 146.303C360.999 145.755 361.153 145.292 361.795 145.395C362.498 145.507 362.48 146.072 362.386 146.611C362.087 148.401 360.614 149.488 358.67 149.368C357.026 149.274 355.733 147.913 355.664 146.183C355.639 145.592 355.664 144.993 355.664 144.222L355.673 144.231Z" fill="#5B4CFF"/>
<path d="M252.394 166.537C252.394 165.655 252.385 164.773 252.394 163.9C252.394 163.532 252.334 163.301 251.889 163.343C251.358 163.395 250.938 163.206 250.93 162.607C250.93 161.999 251.341 161.811 251.872 161.853C252.3 161.888 252.394 161.691 252.385 161.305C252.368 160.346 252.385 159.387 252.385 158.437C252.385 157.923 252.574 157.538 253.113 157.529C253.696 157.512 253.901 157.914 253.893 158.462C253.884 159.396 253.91 160.329 253.884 161.254C253.867 161.734 254.038 161.913 254.509 161.862C254.715 161.836 254.929 161.845 255.126 161.879C255.537 161.948 255.768 162.213 255.759 162.633C255.742 163.052 255.502 163.292 255.091 163.352C254.715 163.412 254.184 163.164 254.004 163.489C253.815 163.832 253.91 164.337 253.91 164.773C253.91 166.144 253.935 167.514 253.901 168.892C253.875 169.74 254.252 170.228 255.057 170.374C255.639 170.476 255.896 170.802 255.759 171.35C255.614 171.889 255.168 171.915 254.689 171.829C253.319 171.581 252.445 170.588 252.42 169.192C252.403 168.31 252.42 167.428 252.42 166.555L252.394 166.537Z" fill="#5B4CFF"/>
<path d="M298.429 166.632C298.429 165.724 298.412 164.825 298.429 163.917C298.437 163.48 298.309 163.301 297.864 163.343C297.35 163.395 296.973 163.172 296.947 162.641C296.922 162.059 297.316 161.811 297.864 161.853C298.309 161.888 298.446 161.708 298.429 161.28C298.403 160.321 298.429 159.37 298.42 158.411C298.42 157.897 298.617 157.529 299.157 157.521C299.696 157.521 299.91 157.889 299.919 158.403C299.919 159.31 299.953 160.209 299.91 161.117C299.885 161.674 300.022 161.956 300.63 161.862C300.784 161.836 300.938 161.853 301.092 161.862C301.546 161.922 301.803 162.187 301.786 162.641C301.768 163.052 301.512 163.283 301.101 163.352C300.724 163.403 300.21 163.155 300.013 163.498C299.833 163.814 299.927 164.294 299.927 164.705C299.927 166.101 299.953 167.496 299.919 168.892C299.893 169.697 300.236 170.194 300.998 170.348C301.58 170.468 301.94 170.733 301.777 171.341C301.614 171.915 301.135 171.906 300.638 171.812C299.311 171.547 298.472 170.571 298.446 169.201C298.429 168.344 298.446 167.496 298.446 166.64L298.429 166.632Z" fill="#5B4CFF"/>
<path d="M342.588 189.092C342.588 188.21 342.563 187.337 342.597 186.455C342.614 185.958 342.46 185.727 341.946 185.779C341.458 185.821 341.116 185.599 341.107 185.093C341.09 184.554 341.441 184.297 341.963 184.34C342.494 184.374 342.614 184.126 342.597 183.646C342.571 182.713 342.597 181.788 342.588 180.855C342.588 180.367 342.777 180.041 343.282 180.016C343.83 179.99 344.078 180.315 344.087 180.838C344.087 181.771 344.113 182.696 344.087 183.629C344.07 184.16 344.233 184.4 344.781 184.34C344.96 184.323 345.14 184.34 345.32 184.357C345.765 184.4 345.962 184.682 345.954 185.085C345.954 185.496 345.705 185.727 345.269 185.779C344.087 185.924 344.087 185.933 344.087 187.157C344.087 188.579 344.104 190 344.087 191.422C344.078 192.192 344.412 192.646 345.157 192.792C345.671 192.894 346.056 193.126 345.954 193.716C345.842 194.35 345.337 194.324 344.858 194.273C343.607 194.145 342.631 193.049 342.597 191.73C342.571 190.848 342.597 189.974 342.597 189.092H342.588Z" fill="#5B4CFF"/>
<path d="M393.573 187.594C393.513 190.325 392.948 192.92 391.381 195.224C391.15 195.566 390.876 195.874 390.602 196.191C390.285 196.551 389.917 196.782 389.471 196.38C389.052 195.986 389.197 195.609 389.54 195.241C390.602 194.093 391.244 192.715 391.646 191.233C392.528 187.971 392.28 184.785 390.833 181.72C390.508 181.035 390.088 180.418 389.566 179.87C389.24 179.527 389.095 179.159 389.514 178.808C389.9 178.483 390.276 178.577 390.61 178.928C391.629 179.998 392.297 181.274 392.76 182.662C393.299 184.263 393.59 185.907 393.573 187.611V187.594Z" fill="#5B4CFF"/>
<path d="M354.277 187.602C354.337 185.171 354.817 182.91 355.93 180.812C356.238 180.238 356.589 179.699 357.009 179.202C357.369 178.783 357.754 178.277 358.345 178.8C358.919 179.313 358.405 179.707 358.088 180.101C356.761 181.745 356.118 183.672 355.853 185.719C355.485 188.553 355.879 191.285 357.292 193.819C357.617 194.41 358.045 194.932 358.499 195.429C358.764 195.72 358.764 196.029 358.465 196.32C358.165 196.602 357.84 196.696 357.497 196.405C357.06 196.029 356.718 195.583 356.401 195.104C354.885 192.8 354.354 190.223 354.277 187.602Z" fill="#5B4CFF"/>
<path d="M203.379 167.411C203.379 166.272 203.379 165.133 203.379 163.994C203.379 163.635 203.387 163.335 202.874 163.343C202.42 163.352 202.154 163.061 202.154 162.598C202.154 162.136 202.437 161.862 202.882 161.871C203.327 161.871 203.387 161.631 203.379 161.28C203.37 160.817 203.362 160.346 203.396 159.884C203.482 158.634 204.449 157.64 205.674 157.521C206.162 157.478 206.59 157.572 206.676 158.129C206.761 158.659 206.47 158.959 205.939 159.01C205.169 159.088 204.877 159.559 204.86 160.269C204.86 160.526 204.886 160.792 204.852 161.049C204.766 161.682 204.997 161.948 205.657 161.871C206.17 161.802 206.564 162.05 206.573 162.573C206.59 163.138 206.205 163.42 205.648 163.352C204.98 163.266 204.826 163.54 204.835 164.174C204.869 166.246 204.852 168.319 204.852 170.391C204.852 170.596 204.852 170.802 204.852 171.016C204.835 171.53 204.595 171.881 204.055 171.855C203.559 171.829 203.362 171.495 203.37 170.999C203.387 169.809 203.37 168.618 203.37 167.428L203.379 167.411Z" fill="#5B4CFF"/>
<path d="M394.027 144.188C394.027 143.306 394.01 142.424 394.027 141.55C394.044 141.062 393.89 140.823 393.368 140.865C392.888 140.908 392.537 140.703 392.52 140.189C392.503 139.632 392.871 139.41 393.376 139.427C393.899 139.452 394.044 139.213 394.027 138.725C394.002 137.791 394.027 136.858 394.027 135.933C394.027 135.453 394.181 135.111 394.721 135.102C395.303 135.085 395.474 135.445 395.474 135.959C395.474 136.892 395.5 137.825 395.474 138.75C395.457 139.255 395.646 139.47 396.151 139.427C396.356 139.41 396.562 139.435 396.767 139.461C397.23 139.512 397.375 139.829 397.358 140.223C397.341 140.6 397.136 140.823 396.725 140.874C395.483 141.045 395.483 141.054 395.483 142.295C395.483 143.64 395.483 144.984 395.483 146.329C395.483 147.373 395.671 147.604 396.699 147.904C397.161 148.041 397.452 148.29 397.375 148.786C397.298 149.291 396.93 149.411 396.451 149.394C395.209 149.334 394.121 148.332 394.053 147.074C394.002 146.123 394.044 145.164 394.044 144.205C394.044 144.205 394.027 144.205 394.019 144.205L394.027 144.188Z" fill="#5B4CFF"/>
<path d="M236.321 144.188C236.321 143.306 236.304 142.432 236.321 141.55C236.338 141.062 236.184 140.822 235.662 140.865C235.182 140.908 234.839 140.694 234.822 140.18C234.805 139.615 235.173 139.401 235.679 139.427C236.21 139.452 236.338 139.195 236.321 138.716C236.295 137.782 236.321 136.858 236.321 135.924C236.321 135.453 236.484 135.102 237.014 135.094C237.597 135.085 237.768 135.436 237.768 135.95C237.768 136.883 237.794 137.808 237.768 138.742C237.751 139.247 237.931 139.461 238.436 139.418C238.641 139.401 238.847 139.427 239.053 139.452C239.464 139.495 239.635 139.778 239.635 140.146C239.635 140.557 239.446 140.822 238.993 140.874C238.616 140.917 238.145 140.702 237.888 141.028C237.605 141.379 237.777 141.876 237.777 142.312C237.759 143.682 237.777 145.053 237.777 146.423C237.777 147.228 238.093 147.758 238.933 147.904C239.429 147.99 239.755 148.255 239.678 148.803C239.592 149.368 239.155 149.428 238.676 149.394C237.468 149.291 236.432 148.306 236.364 147.073C236.304 146.123 236.355 145.164 236.355 144.205C236.355 144.205 236.338 144.205 236.329 144.205L236.321 144.188Z" fill="#5B4CFF"/>
<path d="M389.814 135.085C390.259 135.068 390.585 135.205 390.627 135.702C390.662 136.104 390.516 136.387 390.079 136.507C388.966 136.815 388.358 138.125 388.821 139.17C388.983 139.529 389.309 139.409 389.566 139.409C390.088 139.409 390.533 139.538 390.533 140.146C390.533 140.745 390.105 140.934 389.574 140.865C388.872 140.78 388.778 141.139 388.778 141.73C388.803 143.974 388.795 146.226 388.778 148.478C388.778 149.197 388.324 149.557 387.767 149.334C387.348 149.171 387.331 148.803 387.331 148.435C387.331 146.243 387.331 144.042 387.331 141.85C387.331 141.31 387.382 140.814 386.586 140.822C386.235 140.822 386.106 140.471 386.115 140.137C386.115 139.786 386.269 139.487 386.637 139.478C387.382 139.478 387.356 138.998 387.339 138.485C387.331 138.074 387.331 137.654 387.373 137.243C387.51 136.01 388.581 135.077 389.814 135.094V135.085Z" fill="#5B4CFF"/>
<path d="M332.63 141.396C332.63 139.615 332.63 137.825 332.63 136.044C332.63 135.522 332.724 135.094 333.366 135.094C334 135.094 334.12 135.53 334.12 136.044C334.12 139.435 334.12 142.818 334.12 146.209C334.12 147.459 334.188 147.553 335.413 147.93C335.858 148.067 336.064 148.358 335.995 148.795C335.927 149.206 335.644 149.377 335.216 149.386C333.846 149.42 332.664 148.281 332.638 146.825C332.613 145.018 332.638 143.203 332.638 141.396H332.63Z" fill="#5B4CFF"/>
<path d="M339.06 141.311C339.06 139.658 339.06 138.005 339.06 136.352C339.06 136.147 339.06 135.941 339.086 135.736C339.155 135.274 339.437 135.059 339.9 135.102C340.336 135.137 340.542 135.393 340.542 135.822C340.542 136.412 340.542 137.012 340.542 137.603C340.542 140.523 340.542 143.443 340.542 146.363C340.542 147.373 340.773 147.664 341.775 147.904C342.272 148.024 342.486 148.307 342.417 148.795C342.357 149.283 342.015 149.394 341.578 149.385C340.396 149.36 339.352 148.495 339.146 147.279C338.941 146.097 339.086 144.907 339.06 143.717C339.043 142.92 339.06 142.115 339.06 141.311Z" fill="#5B4CFF"/>
<path d="M235.439 164.688C235.439 162.65 235.439 160.603 235.439 158.565C235.439 158.017 235.551 157.529 236.193 157.529C236.835 157.529 236.955 158.009 236.946 158.557C236.946 162.641 236.938 166.717 236.946 170.802C236.946 171.358 236.826 171.829 236.193 171.829C235.559 171.829 235.431 171.367 235.431 170.802C235.448 168.764 235.431 166.717 235.431 164.679L235.439 164.688Z" fill="#5B4CFF"/>
<path d="M342.075 163.84C342.075 162.008 342.075 160.166 342.075 158.334C342.075 157.846 342.298 157.521 342.803 157.521C343.3 157.521 343.531 157.837 343.522 158.334C343.522 158.54 343.522 158.745 343.522 158.951C343.522 162.136 343.522 165.313 343.522 168.498C343.522 169.877 343.591 169.963 344.909 170.399C345.32 170.536 345.475 170.845 345.415 171.239C345.346 171.701 345.012 171.872 344.575 171.855C343.197 171.804 342.118 170.725 342.084 169.269C342.041 167.462 342.075 165.647 342.075 163.84Z" fill="#5B4CFF"/>
<path d="M373.364 187.106C373.364 185.068 373.364 183.021 373.364 180.983C373.364 180.469 373.441 180.024 374.075 180.007C374.709 179.99 374.837 180.435 374.837 180.949C374.837 185.085 374.837 189.221 374.837 193.357C374.837 193.871 374.7 194.307 374.067 194.29C373.433 194.273 373.356 193.828 373.364 193.314C373.373 191.25 373.364 189.178 373.364 187.114V187.106Z" fill="#5B4CFF"/>
<path d="M268.878 166.871C268.878 165.527 268.878 164.182 268.878 162.838C268.878 161.905 269.306 161.622 270.154 162.033C270.462 162.187 270.642 161.999 270.873 161.947C271.909 161.708 272.894 161.742 273.69 162.547C274.024 162.881 274.315 163.318 273.887 163.771C273.511 164.165 273.082 164.037 272.723 163.703C272.192 163.215 271.592 163.206 270.993 163.472C270.394 163.737 270.385 164.311 270.385 164.867C270.385 166.837 270.385 168.798 270.385 170.767C270.385 171.307 270.308 171.821 269.666 171.838C268.972 171.855 268.869 171.333 268.878 170.759C268.895 169.466 268.878 168.173 268.878 166.88V166.871Z" fill="#5B4CFF"/>
<path d="M220.197 166.863C220.197 165.493 220.188 164.122 220.197 162.752C220.197 161.93 220.702 161.588 221.396 161.982C221.729 162.17 221.926 161.999 222.175 161.939C223.211 161.699 224.187 161.733 224.992 162.538C225.335 162.881 225.6 163.318 225.18 163.763C224.804 164.157 224.375 164.02 224.016 163.686C223.485 163.198 222.885 163.198 222.286 163.463C221.721 163.711 221.687 164.251 221.695 164.782C221.695 166.666 221.695 168.558 221.695 170.442C221.695 170.622 221.695 170.802 221.695 170.981C221.678 171.504 221.421 171.846 220.899 171.821C220.419 171.795 220.197 171.461 220.205 170.964C220.214 169.594 220.205 168.224 220.205 166.854L220.197 166.863Z" fill="#5B4CFF"/>
<path d="M307.215 189.246C307.215 187.928 307.198 186.609 307.215 185.29C307.223 184.34 307.591 184.1 308.482 184.485C308.782 184.614 308.97 184.451 309.21 184.391C310.255 184.126 311.222 184.22 312.019 185.008C312.361 185.35 312.609 185.796 312.198 186.232C311.813 186.643 311.393 186.463 311.034 186.138C310.537 185.684 309.981 185.624 309.381 185.881C308.739 186.155 308.687 186.738 308.687 187.311C308.679 189.298 308.687 191.293 308.687 193.28C308.687 193.776 308.645 194.256 308.002 194.273C307.309 194.299 307.232 193.802 307.232 193.271C307.232 191.927 307.232 190.582 307.232 189.238L307.215 189.246Z" fill="#5B4CFF"/>
<path d="M336.209 189.29C336.209 187.919 336.218 186.549 336.209 185.188C336.209 184.665 336.389 184.297 336.92 184.28C337.459 184.263 337.699 184.631 337.699 185.136C337.699 187.902 337.699 190.66 337.699 193.425C337.699 193.931 337.494 194.29 336.929 194.282C336.363 194.273 336.201 193.914 336.209 193.4C336.226 192.03 336.209 190.66 336.209 189.298V189.29Z" fill="#5B4CFF"/>
<path d="M305.245 166.82C305.245 165.475 305.245 164.131 305.245 162.787C305.245 162.256 305.356 161.836 305.981 161.836C306.564 161.836 306.709 162.247 306.709 162.735C306.709 165.475 306.709 168.224 306.709 170.964C306.709 171.478 306.504 171.846 305.956 171.838C305.416 171.829 305.236 171.461 305.236 170.939C305.253 169.569 305.236 168.199 305.236 166.82H305.245Z" fill="#5B4CFF"/>
<path d="M215.658 158.479C215.718 159.019 215.513 159.421 214.939 159.421C214.357 159.421 214.177 158.985 214.185 158.471C214.185 157.966 214.331 157.512 214.93 157.52C215.513 157.538 215.71 157.931 215.65 158.479H215.658Z" fill="#5B4CFF"/>
<path d="M211.899 158.496C211.925 159.045 211.685 159.438 211.12 159.421C210.555 159.404 210.383 158.985 210.392 158.445C210.4 157.897 210.597 157.512 211.18 157.529C211.762 157.546 211.933 157.974 211.899 158.505V158.496Z" fill="#5B4CFF"/>
<path d="M336.209 180.915C336.167 180.375 336.355 179.998 336.963 180.007C337.537 180.016 337.691 180.409 337.691 180.906C337.691 181.411 337.579 181.857 336.946 181.865C336.321 181.865 336.175 181.463 336.209 180.923V180.915Z" fill="#5B4CFF"/>
<path d="M306.701 158.505C306.726 158.993 306.547 159.422 305.964 159.422C305.391 159.422 305.219 159.01 305.228 158.471C305.228 157.949 305.356 157.521 305.956 157.512C306.555 157.512 306.701 157.949 306.701 158.497V158.505Z" fill="#5B4CFF"/>
</g>
<defs>
<clipPath id="clip0_9_612">
<rect width="392" height="101.746" fill="white" transform="translate(56 117)"/>
</clipPath>
</defs>
</svg>
