<svg width="504" height="336" viewBox="0 0 504 336" fill="none" xmlns="http://www.w3.org/2000/svg">
<g clip-path="url(#clip0_9_102)">
<path d="M336.73 181.836L336.692 188.026C336.692 189.825 336.176 190.504 334.427 190.693C326.551 191.586 321.494 187.611 321.393 179.798C321.217 165.09 321.343 150.382 321.343 135.675H330.754V138.468C330.754 151.087 330.754 163.706 330.754 176.313C330.754 181.811 331.106 182.138 336.717 181.823" fill="#5B4CFF"/>
<path d="M215.268 164.197H230.467C230.341 160.926 230.819 157.189 228.013 155.843C224.579 154.195 220.905 154.031 217.533 155.943C215.57 157.05 215.256 158.736 215.256 160.611V164.197H215.268ZM238.255 172.173H215.268V174.727C215.268 179.282 216.841 181.521 222.037 181.773C227.271 182.025 232.555 181.157 238.167 180.754C238.167 182.792 238.242 185.321 238.104 187.85C238.079 188.341 237.299 189.07 236.732 189.221C229.397 191.222 221.974 191.612 214.652 189.385C209.078 187.686 206.348 183.446 206.109 177.797C205.87 171.909 205.87 165.996 206.084 160.108C206.323 153.188 210.11 148.42 216.917 147.124C220.741 146.407 224.881 146.369 228.718 146.985C234.807 147.979 238.343 152.458 239.073 158.736C239.689 164.084 239.387 169.305 238.267 172.161L238.255 172.173Z" fill="#5B4CFF"/>
<path d="M305.415 171.972C301.816 172.111 298.281 171.972 294.557 172.74C292.116 173.243 291.323 175.357 291.424 177.709C291.525 179.735 292.619 181.119 294.142 181.962C296.368 183.195 299.514 183.27 301.665 182.503C304.433 181.521 305.754 178.728 305.628 174.061C305.616 173.495 305.515 172.941 305.415 171.96M305.628 164.209V161.592C305.628 156.635 303.942 154.786 298.922 154.71C294.053 154.635 290.392 155.075 286.177 155.792C286.177 153.289 286.102 150.898 286.24 148.533C286.266 148.067 287.121 147.375 287.7 147.25C294.041 145.903 300.395 145.639 306.635 147.69C311.919 149.426 314.712 153.276 314.825 158.913C314.951 165.065 314.926 171.217 314.888 177.37C314.825 185.371 311.718 189.372 303.854 190.379C299.652 190.92 295.324 190.844 290.996 189.926C285.762 188.819 282.994 185.522 282.252 180.138C280.918 170.513 285.901 164.537 295.601 164.235C298.822 164.134 302.055 164.222 305.616 164.222L305.628 164.209Z" fill="#5B4CFF"/>
<path d="M362.773 171.972C359.175 172.111 355.64 171.972 351.916 172.74C349.475 173.243 348.682 175.357 348.783 177.709C348.883 179.735 349.978 181.119 351.5 181.962C353.74 183.195 356.873 183.27 359.024 182.503C361.792 181.521 363.113 178.728 362.987 174.061C362.975 173.495 362.874 172.941 362.773 171.96M363 164.209V161.592C363 156.635 361.314 154.786 356.294 154.71C351.425 154.635 347.764 155.075 343.549 155.792C343.549 153.289 343.473 150.898 343.612 148.533C343.637 148.067 344.492 147.375 345.071 147.25C351.412 145.903 357.766 145.639 364.006 147.69C369.291 149.426 372.084 153.276 372.197 158.913C372.323 165.065 372.297 171.217 372.26 177.37C372.197 185.371 369.089 189.372 361.226 190.379C357.024 190.92 352.696 190.844 348.368 189.926C343.134 188.819 340.366 185.522 339.623 180.138C338.29 170.513 343.272 164.537 352.972 164.235C356.193 164.134 359.439 164.222 362.987 164.222L363 164.209Z" fill="#5B4CFF"/>
<path d="M388.1 174.111C387.798 180.389 390.264 181.962 396.416 182.037C397.158 182.037 397.901 181.874 398.63 181.748C401.952 181.144 403.399 179.81 403.499 176.501C403.663 171.28 403.663 166.046 403.499 160.812C403.399 157.503 401.939 155.855 398.769 155.402C396.756 155.126 394.617 155.188 392.604 155.541C389.509 156.107 388.263 157.743 388.15 160.9C387.999 165.317 388.301 169.707 388.087 174.098M388.087 135.687V150.03C392.264 146.293 396.781 145.752 401.65 146.646C407.563 147.728 411.929 151.49 412.445 157.403C413.036 164.323 413.175 171.343 412.634 178.263C412.067 185.56 408.507 189.133 401.21 190.253C397.36 190.844 393.208 190.706 389.396 189.938C383.08 188.668 378.915 183.786 378.777 177.118C378.488 163.304 378.676 149.489 378.676 135.687H388.087Z" fill="#5B4CFF"/>
<path d="M418.069 180.641C423.164 181.735 428.134 182.327 433.116 182.138C434.638 182.075 438.023 181.962 438.425 179.861C438.602 178.942 437.683 177.382 436.79 176.703C434.16 174.69 431.292 172.991 428.536 171.154C426.876 170.047 425.19 168.978 423.617 167.77C419.113 164.335 417.427 158.611 419.302 153.301C420.421 150.143 422.787 148.243 425.894 147.388C432.739 145.526 439.508 145.903 446.151 148.394V157.164C441.256 155.163 436.337 154.748 431.367 155.251C430.222 155.365 428.612 156.031 428.172 156.925C427.392 158.447 428.26 159.881 429.807 160.875C433.783 163.429 437.721 166.046 441.621 168.713C444.553 170.714 446.956 173.117 447.711 176.841C448.994 183.195 445.987 188.504 439.734 189.938C433.078 191.461 426.398 191.108 419.792 189.284C418.547 188.944 417.993 188.429 418.044 187.082C418.144 184.855 418.069 182.616 418.069 180.653" fill="#5B4CFF"/>
<path d="M268.652 163.228C268.677 156.937 266.513 155.377 260.474 155.302C256.749 155.251 253.629 156.711 253.491 160.85C253.327 166.071 253.327 171.305 253.491 176.527C253.592 179.836 255.026 181.496 258.159 181.937C260.146 182.213 262.248 182.151 264.223 181.786C267.507 181.182 268.488 179.647 268.601 176.426L268.664 163.228H268.652ZM268.538 187.422C264.462 191.058 260.058 191.574 255.328 190.693C249.503 189.611 245.212 185.85 244.709 179.936C244.118 173.016 243.992 165.996 244.52 159.076C245.086 151.779 248.584 148.206 255.756 147.086C259.543 146.495 263.632 146.633 267.393 147.401C273.609 148.671 277.622 153.553 277.773 160.209V194.292V195.6C277.647 201.237 274.691 205.087 269.067 206.823C262.436 208.874 255.667 208.609 248.924 207.263C248.32 207.137 247.401 206.445 247.376 205.98C247.213 203.615 247.301 201.224 247.301 198.72C252.296 199.664 255.756 199.928 260.851 199.802C266.11 199.664 268.563 197.877 268.563 192.908V187.41L268.538 187.422Z" fill="#5B4CFF"/>
<path d="M190.106 189.498H199.24C199.215 181.446 198.472 173.306 197.302 165.342C196.006 156.384 194.132 147.312 191.565 138.606C191.263 137.587 191.288 137.386 190.684 137.335L189.955 137.323H180.77L170.655 172.312L161.005 138.908L160.615 137.549L160.564 137.348H150.65C150.059 137.386 150.071 137.6 149.769 138.619C147.203 147.325 145.341 156.396 144.032 165.354C142.875 173.318 142.133 181.458 142.107 189.511H151.242C151.267 182.93 151.77 176.287 152.575 169.733V169.67C152.764 168.185 152.953 166.7 153.179 165.216C153.758 161.227 154.45 157.252 155.255 153.301L165.71 189.485H175.624L186.08 153.301C186.885 157.252 187.577 161.24 188.155 165.228C189.313 173.23 190.068 181.421 190.093 189.511L190.106 189.498Z" fill="#5B4CFF"/>
<path d="M66.43 137.361C75.4383 128.755 88.7872 125.597 101.016 129.938C92.9265 139.588 79.0995 143.11 67.0591 137.663C66.8452 137.562 66.6313 137.461 66.43 137.373" fill="#5B4CFF"/>
<path d="M106.263 132.315C117.599 138.644 124.028 150.76 123.499 163.203C123.286 163.115 123.072 163.027 122.87 162.926C110.83 157.478 104.35 144.771 106.263 132.315Z" fill="#5B4CFF"/>
<path d="M122.996 167.808C122.506 170.475 121.7 173.117 120.53 175.696C113.157 191.989 94.4363 199.588 77.9295 193.386C78.0049 193.197 78.093 193.021 78.1685 192.845C86.1829 175.143 104.665 165.455 122.996 167.808Z" fill="#5B4CFF"/>
<path d="M73.8279 191.536C58.2772 183.22 51.6342 164.146 59.007 147.841C60.177 145.262 61.6239 142.909 63.2972 140.783C77.162 152.999 82.0813 173.281 74.0669 190.983C73.9789 191.159 73.9034 191.348 73.8153 191.524" fill="#5B4CFF"/>
</g>
<defs>
<clipPath id="clip0_9_102">
<rect width="392" height="80.3325" fill="white" transform="translate(56 128)"/>
</clipPath>
</defs>
</svg>
