<svg width="504" height="336" viewBox="0 0 504 336" fill="none" xmlns="http://www.w3.org/2000/svg">
<g clip-path="url(#clip0_9_491)">
<path d="M151 68.5257C156.206 64.7831 161.358 61.082 166.716 57.229C168.926 59.9496 171.121 62.5321 173.151 65.2251C173.966 66.3299 174.546 66.4265 175.568 65.5703C177.888 63.6369 180.277 61.7863 182.625 59.8529C184.448 58.3614 186.492 58.0714 188.757 58.3752C196.96 59.5215 202.125 64.355 205.08 71.8263C206.71 75.9831 207.483 80.3609 207.124 84.7802C206.931 87.1969 206.13 89.6828 205.067 91.8924C202.097 98.0655 197.72 103.161 192.209 107.249C189.061 109.597 185.594 111.006 181.548 110.702C179.559 110.55 177.529 110.674 175.361 110.674V125.327H155.668C155.64 124.719 155.571 124.042 155.571 123.379C155.571 109.045 155.474 94.7096 155.626 80.3747C155.668 76.2179 154.839 72.6135 151.856 69.6305C151.566 69.3405 151.359 68.9538 151.028 68.4981H151V68.5257ZM175.292 94.682C177.46 94.682 179.325 94.6406 181.175 94.682C182.777 94.7235 183.979 94.0329 184.71 92.6934C186.975 88.6056 187.224 84.2968 185.608 79.9743C184.655 77.4332 181.921 76.4389 179.407 77.4608C178.427 77.8475 177.502 78.3861 176.507 78.7728C175.596 79.1456 175.237 79.6981 175.264 80.7062C175.333 83.0263 175.292 85.374 175.292 87.7079V94.6958V94.682Z" fill="#5B4CFF"/>
<path d="M151.083 221.514C156.234 217.813 161.357 214.126 166.702 210.273C168.87 212.938 171.011 215.479 173.068 218.089C174.215 219.553 174.311 219.622 175.789 218.393C177.667 216.846 179.642 215.382 181.437 213.725C184.144 211.239 187.182 210.908 190.621 211.723C197.885 213.449 202.415 218.117 205.066 224.856C206.696 229.013 207.483 233.391 207.11 237.81C206.903 240.282 206.088 242.823 204.984 245.06C202.042 251.123 197.733 256.15 192.32 260.182C189.116 262.572 185.649 264.049 181.52 263.732C179.532 263.566 177.515 263.704 175.292 263.704V268.993C175.292 271.7 175.333 274.407 175.25 277.114C175.25 277.583 174.726 278.412 174.436 278.426C168.235 278.495 162.02 278.481 155.557 278.481V276.354C155.557 262.061 155.461 247.781 155.612 233.501C155.654 229.289 154.839 225.63 151.787 222.619C151.608 222.439 151.456 222.205 151.304 221.997C151.235 221.915 151.221 221.804 151.083 221.487V221.514ZM175.416 247.74C177.377 247.74 179.228 247.726 181.065 247.74C182.791 247.767 184.048 247.035 184.835 245.558C186.961 241.539 187.21 237.327 185.663 233.115C184.71 230.505 181.962 229.469 179.366 230.505C178.385 230.905 177.46 231.444 176.466 231.816C175.513 232.176 175.264 232.797 175.264 233.764C175.306 237.948 175.264 242.146 175.292 246.317C175.292 246.787 175.361 247.242 175.402 247.726L175.416 247.74Z" fill="#5B4CFF"/>
<path d="M204.059 192.333C199.045 196.062 194.074 199.736 188.964 203.533C187.031 201.269 185.097 199.156 183.371 196.891C182.39 195.62 181.741 195.744 180.761 196.78C179.187 198.437 177.474 199.957 175.886 201.586C174.256 203.243 172.378 203.727 170.099 203.423C162.49 202.415 157.228 198.272 153.955 191.477C151.635 186.644 150.765 181.451 151.097 176.134C151.221 174.228 151.87 172.267 152.671 170.5C155.599 163.981 159.99 158.581 165.666 154.259C166.757 153.43 167.973 152.74 169.188 152.091C171.674 150.751 174.229 150.558 176.853 151.745C178.054 152.284 179.297 152.74 180.692 153.306C181.12 148.942 181.23 144.882 177.06 141.857C182.266 138.736 187.224 135.781 192.361 132.688C195.676 137.728 199.915 142.023 199.708 148.818C199.391 159.424 199.736 170.058 199.57 180.678C199.501 184.738 200.413 188.218 203.299 191.118C203.52 191.339 203.699 191.615 203.893 191.878C203.962 191.961 203.976 192.071 204.114 192.361H204.086L204.059 192.333ZM180.319 176.466V168.677C180.319 168.677 180.319 168.566 180.319 168.511C180.167 168.097 180.126 167.489 179.836 167.309C178.441 166.495 174.795 166.881 173.635 167.931C171.881 169.519 170.776 171.48 170.735 173.911C170.693 176.079 170.638 178.261 170.762 180.429C170.845 181.893 171.08 183.384 171.522 184.793C172.281 187.182 174.049 187.969 176.411 187.168C177.419 186.823 178.441 186.478 179.325 185.939C179.794 185.663 180.264 184.945 180.278 184.406C180.374 181.755 180.319 179.103 180.319 176.466Z" fill="#5B4CFF"/>
<path d="M284.737 234.371C285.621 233.847 286.173 233.612 286.615 233.225C288.314 231.775 289.999 230.311 291.628 228.806C292.885 227.66 294.308 227.259 296.006 227.383C303.022 227.908 308.283 231.278 311.322 237.52C315.907 246.966 316.514 256.454 309.941 265.361C307.593 268.551 304.886 271.507 302.069 274.296C295.468 280.829 287.72 281.271 279.531 277.887C270.955 274.338 266.798 267.447 265.776 258.539C265.348 254.81 265.486 251.013 265.458 247.242C265.417 241.774 265.362 236.305 265.486 230.836C265.555 227.577 264.671 224.773 262.461 222.384C261.923 221.804 261.467 221.155 260.846 220.382C265.942 216.598 270.941 212.883 276.203 208.975C278.619 212.11 281.147 215.01 283.204 218.2C284.171 219.705 284.544 221.777 284.668 223.613C284.889 226.983 284.737 230.38 284.737 234.344V234.371ZM284.737 253.416H284.806C284.806 254.741 284.641 256.095 284.848 257.393C285.096 258.871 285.428 260.473 286.201 261.729C288.01 264.685 292.222 264.657 293.576 261.729C295.509 257.559 295.551 253.167 294.128 248.844C293.451 246.801 291.242 245.682 289.225 246.317C287.734 246.787 286.104 247.408 285.041 248.472C284.433 249.079 284.806 250.681 284.765 251.841C284.737 252.366 284.765 252.905 284.765 253.429H284.737V253.416Z" fill="#5B4CFF"/>
<path d="M246.69 279.986C244.619 277.5 242.644 275.222 240.807 272.833C239.951 271.742 239.329 271.742 238.39 272.667C236.415 274.6 234.344 276.423 232.383 278.37C230.698 280.041 228.848 280.262 226.693 279.461C221.583 277.542 217.578 274.158 213.795 270.347C209.375 265.914 208.326 260.707 209.32 254.7C210.908 245.171 212.206 235.6 213.643 226.044C213.684 225.726 213.781 225.436 213.905 224.953C220.382 226.362 226.776 227.77 233.419 229.22C232.852 232.134 232.314 234.979 231.761 237.824C230.684 243.348 229.593 248.872 228.544 254.396C227.853 258.014 229.883 261.522 233.377 262.848C235.394 263.607 238.087 261.826 238.087 259.713V228.889H257.365V230.726C257.365 239.55 257.49 248.361 257.31 257.172C257.227 261.191 258.166 264.616 260.984 267.474C261.246 267.737 261.453 268.054 261.66 268.358C261.716 268.441 261.729 268.551 261.826 268.8C256.882 272.46 251.91 276.147 246.718 280L246.69 279.986Z" fill="#5B4CFF"/>
<path d="M206.986 100.952C206.724 98.5491 207.732 95.7732 209.141 93.1079C212.234 87.2938 216.667 82.6813 221.666 78.4277C231.485 70.0864 246.621 75.9005 251.372 83.7032C254.783 89.3239 256.026 95.428 255.639 101.85C255.515 103.935 254.576 106.076 253.609 107.981C250.64 113.851 246.138 118.436 241.152 122.703C231.223 131.182 215.604 125.272 210.908 116.737C208.298 112 207.166 106.959 206.986 100.938V100.952ZM236.043 100.8C235.918 99.0877 235.918 97.6928 235.725 96.3395C235.532 95.0413 235.283 93.7017 234.786 92.5002C233.792 90.0973 231.582 89.6416 229.676 91.354C228.944 92.0169 228.13 92.7903 227.798 93.6741C225.92 98.9219 226.362 104.197 228.364 109.28C229.11 111.144 231.195 111.351 232.797 110.067C234.841 108.437 236.029 106.31 236.043 103.631V100.786V100.8Z" fill="#5B4CFF"/>
<path d="M224.884 180.788C225.367 182.473 225.63 183.826 226.141 185.069C227.384 188.08 229.649 189.199 232.825 188.356C237.134 187.196 241.401 185.926 245.696 184.71C246.207 184.572 246.718 184.448 247.464 184.241C248.679 189.337 249.88 194.35 251.151 199.763C246.58 200.813 242.174 201.973 237.7 202.788C233.087 203.63 228.406 203.906 223.752 203.064C213.753 201.255 207.704 194.654 205.757 184.158C204.445 177.059 205.854 170.831 210.121 165.086C213.353 160.75 216.929 156.8 221.473 153.817C233.156 146.125 249.701 153.886 251.33 167.765C251.772 171.549 251.455 175.278 250.723 178.993C250.502 180.139 250.032 180.54 248.845 180.54C241.677 180.567 234.51 180.678 227.328 180.761H224.856L224.884 180.788ZM224.704 173.096C227.77 172.737 230.809 172.392 233.847 171.991C234.082 171.964 234.454 171.356 234.399 171.093C234.082 169.547 233.888 167.931 233.239 166.522C232.19 164.23 229.483 163.705 227.48 165.224C224.884 167.185 224.083 169.795 224.718 173.11L224.704 173.096Z" fill="#5B4CFF"/>
<path d="M312.316 97.9136C312.012 96.0078 312.095 94.2815 311.418 92.8867C310.673 91.34 309.084 90.76 307.192 91.119C303.823 91.7819 300.425 92.3205 296.821 92.9419C296.172 87.4317 295.537 82.0458 294.888 76.4665C299.252 75.9141 303.395 75.3755 307.538 74.8783C309.126 74.685 310.728 74.685 312.302 74.4088C314.581 74.0221 316.583 74.6159 318.531 75.776C322.508 78.1789 326.154 80.9824 329.151 84.573C330.324 85.9678 330.877 87.5008 330.849 89.3789C330.752 94.2539 330.946 99.1565 330.766 104.031C330.628 108.009 331.567 111.475 334.412 114.348C334.744 114.679 334.978 115.107 335.42 115.673C330.559 119.402 325.726 123.089 320.74 126.915C318.903 124.76 317.094 122.703 315.354 120.59C313.918 118.85 313.959 118.836 312.15 120.286C309.996 122.012 307.828 123.725 305.687 125.451C303.505 127.205 301.254 127.288 298.906 125.838C293.866 122.744 289.888 118.615 286.961 113.505C286.408 112.552 286.187 111.282 286.187 110.163C286.187 106.213 287.32 102.54 289.225 99.0736C289.764 98.1069 290.399 97.7755 291.49 97.7893C297.65 97.8583 303.809 97.8583 309.968 97.886H312.344L312.316 97.9136ZM312.04 105.122C309.678 105.495 307.565 105.799 305.494 106.2C305.079 106.283 304.499 106.711 304.403 107.084C304.14 108.147 303.975 109.279 303.975 110.384C303.975 111.876 305.466 113.671 306.516 113.312C308.311 112.704 309.982 111.765 311.681 110.909C311.888 110.798 312.012 110.37 312.026 110.094C312.054 108.506 312.026 106.945 312.026 105.136L312.04 105.122Z" fill="#5B4CFF"/>
<path d="M251.828 143.874C256.882 140.117 261.826 136.444 266.991 132.618C270.789 137.562 275.968 141.374 275.705 148.721C275.332 159.327 275.705 169.947 275.553 180.567C275.498 184.6 276.368 188.107 279.255 191.021C279.572 191.353 279.821 191.781 280.18 192.278C275.139 196.021 270.167 199.722 265.058 203.52C262.254 200.177 259.023 197.25 257.255 193.272C256.675 191.974 256.454 190.4 256.454 188.95C256.385 177.847 256.33 166.757 256.482 155.667C256.537 151.566 255.653 148.017 252.725 145.061C252.435 144.771 252.228 144.398 251.828 143.86V143.887V143.874Z" fill="#5B4CFF"/>
<path d="M284.751 115.66C279.669 119.43 274.711 123.117 269.394 127.067C266.881 123.725 264.298 120.576 262.089 117.179C261.26 115.895 260.998 114.058 260.984 112.47C260.901 101.256 260.832 90.0696 260.984 78.8558C261.039 74.8647 260.141 71.4122 257.31 68.5535C256.979 68.2221 256.744 67.7939 256.344 67.2692C261.357 63.5404 266.328 59.8531 271.507 56.0139C274.38 59.5769 277.887 62.5875 279.572 66.9515C280.042 68.153 280.138 69.5478 280.138 70.8598C280.18 81.7422 280.276 92.6245 280.111 103.507C280.042 107.829 280.87 111.6 284.019 114.679C284.24 114.9 284.392 115.19 284.737 115.674L284.751 115.66Z" fill="#5B4CFF"/>
<path d="M336.387 236.954C336.083 237.12 336.056 237.161 336 237.175C333.238 237.492 331.871 236.291 331.871 233.584C331.871 231.775 331.94 229.966 331.843 228.171C331.774 226.9 331.498 225.63 331.277 224.041C332.037 223.53 333.114 222.798 334.357 221.956C334.978 222.619 335.586 223.254 336.221 223.931C336.47 223.765 336.691 223.641 336.884 223.489C339.011 221.942 340.931 221.942 342.381 223.503C343.886 225.132 344.01 228.267 342.312 229.731C341.124 230.753 341.331 231.416 342.091 232.452C343.14 233.902 344.052 235.449 345.046 236.995C347.946 233.446 347.739 225.837 344.77 222.412C342.035 219.263 335.807 218.545 331.802 221.003C328.211 223.213 327.383 226.776 327.355 230.643C327.355 231.485 327.438 232.341 327.618 233.17C328.515 237.423 330.932 240.089 335.558 240.475V245.171C330.601 245.848 325.256 242.561 323.074 237.492C318.724 227.411 324.22 213.794 339.066 214.581C348.388 215.079 354.285 222.757 352.572 232.134C351.992 235.269 350.722 238.086 348.83 240.655C348.167 241.539 347.587 241.691 346.441 241.497C342.961 240.89 340.558 239.205 339.287 235.863C338.873 234.786 338.044 233.874 337.602 232.811C337.133 231.72 336.456 230.587 338.182 229.621C338.652 229.358 338.362 227.687 338.348 226.665C338.348 226.624 337.492 226.417 337.229 226.596C336.87 226.831 336.456 227.342 336.442 227.756C336.359 230.256 336.415 232.742 336.401 235.241V236.954H336.387Z" fill="#5B4CFF"/>
</g>
<defs>
<clipPath id="clip0_9_491">
<rect width="201.876" height="224" fill="white" transform="translate(151 56)"/>
</clipPath>
</defs>
</svg>
