<svg width="504" height="336" viewBox="0 0 504 336" fill="none" xmlns="http://www.w3.org/2000/svg">
<g clip-path="url(#clip0_9_230)">
<path d="M239.652 125V172.902C237.849 172.902 236.104 172.942 234.36 172.863C234.046 172.863 233.694 172.412 233.458 172.118C224.305 160.79 215.172 149.461 206.018 138.132C205.822 137.897 205.626 137.662 205.254 137.25V172.844H198.531C198.512 172.569 198.453 172.295 198.453 172.02C198.453 156.536 198.453 141.072 198.453 125.588C198.453 125.392 198.472 125.216 198.492 125.02C200.334 125.02 202.196 125.02 204.039 125.02C204.098 125.098 204.137 125.176 204.196 125.255C213.545 136.838 222.894 148.422 232.224 160.006C232.361 160.162 232.498 160.319 232.772 160.613C232.792 160.104 232.831 159.81 232.831 159.496C232.831 148.304 232.831 137.132 232.831 125.941C232.831 125.627 232.792 125.314 232.753 125C235.046 125 237.339 125 239.652 125Z" fill="#5B4CFF"/>
<path d="M137.007 125V130.9H110.076V145.658H134.008V151.46H110.037V166.983H137.889V172.902C137.477 172.902 137.105 172.902 136.732 172.902C125.952 172.902 115.172 172.902 104.373 172.922C103.412 172.922 103.138 172.706 103.138 171.726C103.177 156.556 103.158 141.405 103.158 126.235C103.158 125.823 103.118 125.412 103.079 125C114.369 125 125.678 125 136.968 125H137.007Z" fill="#5B4CFF"/>
<path d="M189.672 125C189.437 125.294 189.221 125.608 188.966 125.882C182.675 132.526 176.383 139.151 170.072 145.796C169.837 146.05 169.602 146.305 169.327 146.599C176.54 155.321 183.714 164.004 191.044 172.844C190.574 172.863 190.28 172.883 189.986 172.883C188.045 172.883 186.085 172.844 184.145 172.902C183.4 172.922 182.91 172.667 182.44 172.118C176.854 165.592 171.228 159.065 165.623 152.538C165.368 152.244 165.113 151.97 164.8 151.597C164.545 151.832 164.31 152.028 164.094 152.244C161.566 154.812 159.018 157.36 156.509 159.947C156.195 160.26 155.98 160.809 155.98 161.26C155.94 165.082 155.96 168.904 155.96 172.804H149.139C149.139 172.393 149.139 172.001 149.139 171.609C149.139 156.478 149.139 141.346 149.139 126.235C149.139 125.823 149.12 125.412 149.1 125C151.393 125 153.686 125 155.999 125V151.774C156.372 151.421 156.607 151.205 156.822 150.99C160.625 147.089 164.427 143.189 168.21 139.269C172.796 134.526 177.402 129.763 182.008 125C184.556 125 187.104 125 189.672 125Z" fill="#5B4CFF"/>
<path opacity="0.7" d="M398.588 125C398.588 126.568 398.53 128.116 398.588 129.684C398.628 130.586 398.373 130.88 397.432 130.88C389.259 130.841 381.086 130.86 372.932 130.86C372.03 130.86 371.58 131.318 371.58 132.232C371.58 136.348 371.58 140.445 371.58 144.561C371.58 145.815 371.599 145.835 372.873 145.835C380.027 145.835 387.162 145.835 394.316 145.835C395.23 145.835 395.688 146.286 395.688 147.187C395.688 148.246 395.648 149.284 395.688 150.343C395.746 151.166 395.433 151.362 394.649 151.362C389.416 151.342 384.182 151.362 378.949 151.362C376.911 151.362 374.872 151.401 372.814 151.362C371.874 151.342 371.54 151.617 371.54 152.597C371.58 157.026 371.54 161.456 371.56 165.886C371.56 167.16 371.56 167.16 372.834 167.16C381.282 167.16 389.749 167.16 398.196 167.16C399.085 167.16 399.529 167.617 399.529 168.532C399.529 169.61 399.49 170.707 399.529 171.785C399.568 172.589 399.274 172.824 398.49 172.824C391.748 172.804 385.025 172.824 378.283 172.824C374.226 172.824 370.168 172.785 366.131 172.844C365.131 172.844 364.916 172.53 364.935 171.589C364.955 156.497 364.955 141.386 364.935 126.294C364.935 125.882 364.896 125.47 364.857 125.059C376.088 125.059 387.318 125.059 398.569 125.059L398.588 125Z" fill="#5B4CFF"/>
<path opacity="0.7" d="M294.983 125C296.237 125.157 297.511 125.274 298.746 125.451C304.018 126.235 308.644 128.214 311.604 132.918C317.601 142.503 312.584 154.674 301.431 157.379C299.04 157.948 296.531 158.104 294.062 158.202C290.455 158.34 286.849 158.261 283.242 158.202C282.341 158.202 282.047 158.457 282.047 159.378C282.086 163.494 282.047 167.591 282.086 171.707C282.086 172.491 281.87 172.765 281.067 172.746C279.538 172.687 278.009 172.687 276.48 172.746C275.657 172.785 275.383 172.452 275.481 171.687C275.52 171.413 275.481 171.119 275.481 170.825C275.481 155.948 275.481 141.092 275.481 126.215C275.481 125.804 275.481 125.392 275.461 124.98C281.968 124.98 288.476 124.98 295.002 124.98L294.983 125ZM282.086 141.68C282.086 145.012 282.086 148.363 282.086 151.695C282.086 152.342 282.262 152.597 282.948 152.597C287.574 152.518 292.18 152.558 296.806 152.362C299.51 152.244 302.058 151.362 304.136 149.5C306.88 147.05 307.586 143.855 307.272 140.386C306.9 136.329 304.822 133.369 300.922 132.017C299.06 131.37 297.041 130.978 295.061 130.9C291.082 130.723 287.084 130.86 283.105 130.821C282.321 130.821 282.066 131.017 282.066 131.821C282.106 135.094 282.066 138.367 282.066 141.66L282.086 141.68Z" fill="#5B4CFF"/>
<path opacity="0.7" d="M446.844 125C444.374 128.41 441.924 131.821 439.435 135.212C436.495 139.249 433.535 143.306 430.556 147.305C430.086 147.932 430.105 148.344 430.556 148.971C436.122 156.536 441.669 164.122 447.236 171.707C447.432 171.981 447.628 172.256 447.961 172.746C446.51 172.746 445.295 172.746 444.06 172.746C442.845 172.746 441.454 173.059 440.493 172.569C439.533 172.079 438.964 170.766 438.259 169.786C434.417 164.533 430.595 159.28 426.773 154.028C426.558 153.734 426.322 153.44 426.009 153.048C425.676 153.479 425.382 153.812 425.127 154.165C420.893 160.025 416.66 165.905 412.485 171.785C411.956 172.53 411.407 172.804 410.505 172.765C408.467 172.706 406.448 172.746 404.253 172.746C404.488 172.373 404.625 172.138 404.782 171.922C410.329 164.376 415.856 156.811 421.422 149.284C421.971 148.54 421.893 148.089 421.403 147.403C416.209 140.268 411.034 133.114 405.86 125.98C405.644 125.666 405.468 125.333 405.252 125.02C407.742 125.02 410.231 125.02 412.72 125.02C412.779 125.137 412.818 125.255 412.896 125.353C417.15 131.194 421.422 137.034 425.695 142.856C425.832 143.052 426.028 143.228 426.244 143.463C426.479 143.169 426.695 142.934 426.871 142.679C430.968 137.034 435.064 131.39 439.141 125.725C439.298 125.51 439.396 125.235 439.513 124.98C441.944 124.98 444.374 124.98 446.785 124.98L446.844 125Z" fill="#5B4CFF"/>
<path d="M95.6312 125V130.9H79.2064V172.844H72.4836V130.958H56V125H95.6312Z" fill="#5B4CFF"/>
<path opacity="0.7" d="M330.988 125C330.968 125.353 330.91 125.686 330.91 126.039C330.91 139.288 330.91 152.538 330.91 165.788C330.91 166.676 331.367 167.12 332.282 167.12C340.063 167.12 347.844 167.12 355.625 167.12C356.527 167.12 356.88 167.336 356.821 168.277C356.742 169.453 356.762 170.629 356.821 171.805C356.86 172.569 356.586 172.785 355.841 172.785C351.94 172.746 348.06 172.785 344.159 172.785C337.946 172.785 331.713 172.765 325.5 172.804C324.5 172.804 324.285 172.491 324.285 171.55C324.304 156.046 324.285 140.543 324.285 125.02C326.519 125 328.754 125 330.988 125Z" fill="#5B4CFF"/>
<path d="M260.898 125V172.883C258.723 172.883 256.626 172.883 254.528 172.863C254.372 172.863 254.156 172.569 254.097 172.393C254.019 172.118 254.078 171.824 254.078 171.53C254.078 156.438 254.078 141.327 254.078 126.235C254.078 125.823 254.038 125.412 254.019 125H260.918H260.898Z" fill="#5B4CFF"/>
<path d="M83.3224 197.069C81.872 199.5 80.4216 201.93 78.9712 204.36C78.2656 205.536 77.5796 206.712 76.874 207.888C76.2664 208.908 75.3844 208.908 74.7768 207.888C72.7384 204.498 70.7 201.126 68.6812 197.736C68.5636 197.54 68.446 197.363 68.152 197.206V210.907H65.5256V191.64C67.4464 191.268 67.6228 191.326 68.544 192.875C70.798 196.658 73.0324 200.421 75.2864 204.204C75.4628 204.498 75.6392 204.772 75.894 205.184C76.1488 204.772 76.3448 204.458 76.5408 204.145C78.7164 200.44 80.9704 196.775 83.0284 192.992C83.7928 191.581 84.7336 191.326 86.1644 191.62V210.926H83.6164V197.128C83.6164 197.128 83.44 197.089 83.3616 197.089L83.3224 197.069Z" fill="#5B4CFF"/>
<path d="M317.405 208.77C317.738 208.045 318.052 207.398 318.405 206.673C320.13 207.967 322.031 208.79 324.148 208.81C325.402 208.829 326.696 208.653 327.891 208.32C328.969 208.026 329.616 207.163 329.694 205.968C329.773 204.733 329.106 203.929 328.048 203.537C326.656 203.008 325.186 202.675 323.775 202.224C322.717 201.891 321.639 201.577 320.62 201.126C316.876 199.48 317.307 194.678 319.698 192.973C320.737 192.248 322.011 191.699 323.246 191.464C326.147 190.954 328.95 191.326 331.596 192.973C331.302 193.698 331.008 194.384 330.694 195.129C328.812 193.972 326.813 193.424 324.696 193.62C323.775 193.698 322.776 193.933 321.972 194.364C320.071 195.403 320.071 197.951 322.011 198.872C323.403 199.539 324.971 199.833 326.46 200.303C327.519 200.636 328.597 200.93 329.616 201.362C333.497 203.008 332.968 207.928 330.282 209.731C328.401 210.985 326.323 211.26 324.148 211.142C321.717 211.005 319.444 210.397 317.405 208.751V208.77Z" fill="#5B4CFF"/>
<path d="M201.158 206.673C203.647 208.476 206.293 209.202 209.194 208.731C209.919 208.614 210.703 208.359 211.31 207.947C212.878 206.928 212.859 204.752 211.252 203.831C210.252 203.263 209.076 202.969 207.959 202.596C206.489 202.106 204.94 201.773 203.51 201.205C201.726 200.499 200.687 199.147 200.609 197.187C200.53 195.188 201.295 193.58 203 192.502C205.842 190.699 211.487 190.954 214.27 193.051C213.996 193.718 213.702 194.404 213.408 195.129C211.075 193.757 208.645 193.247 206.077 193.796C204.803 194.07 203.725 194.658 203.392 196.05C203.078 197.344 203.51 198.402 204.921 198.97C206.293 199.539 207.763 199.852 209.194 200.303C210.193 200.617 211.212 200.891 212.173 201.283C213.839 201.989 214.956 203.184 215.093 205.066C215.25 207.163 214.466 208.79 212.682 209.927C211.114 210.926 209.35 211.162 207.547 211.162C205.215 211.162 203 210.613 200.981 209.398C200.276 208.966 200.06 208.535 200.55 207.81C200.785 207.477 200.922 207.085 201.138 206.634L201.158 206.673Z" fill="#5B4CFF"/>
<path d="M132.714 204.498H120.719C121.013 206.262 121.836 207.555 123.404 208.222C125.894 209.3 128.246 209.006 130.402 207.104C130.852 207.634 131.303 208.143 131.793 208.712C130.735 210.025 129.343 210.77 127.795 210.926C126.364 211.064 124.835 211.064 123.444 210.75C120.151 209.986 118.093 207.104 118.073 203.616C118.073 200.107 120.151 197.246 123.326 196.364C126.678 195.462 130.049 196.677 131.676 199.421C132.577 200.95 132.871 202.596 132.695 204.478L132.714 204.498ZM130.186 202.557C130.01 200.029 128.089 198.324 125.482 198.343C122.895 198.343 120.974 200.048 120.778 202.557H130.166H130.186Z" fill="#5B4CFF"/>
<path d="M253.352 207.104C253.823 207.653 254.274 208.182 254.764 208.751C253.313 210.378 251.51 210.966 249.472 211.122C243.494 211.573 239.397 206.124 241.573 200.597C242.925 197.167 246.649 195.384 250.471 196.344C253.901 197.206 256.077 200.558 255.626 204.458H243.65C243.944 206.34 244.846 207.634 246.453 208.3C248.923 209.319 251.255 209.006 253.333 207.124L253.352 207.104ZM253.137 202.557C252.941 199.99 251.02 198.324 248.413 198.324C245.826 198.324 243.886 200.068 243.729 202.557H253.117H253.137Z" fill="#5B4CFF"/>
<path d="M305.155 207.124C305.606 207.653 306.037 208.163 306.527 208.712C305.528 210.005 304.175 210.75 302.646 210.907C301.118 211.044 299.491 211.083 298.021 210.691C295.12 209.927 293.336 207.869 292.944 204.87C292.513 201.695 293.376 198.931 296.276 197.206C298.962 195.619 301.784 195.638 304.43 197.344C306.762 198.853 307.546 201.185 307.527 203.87C307.527 204.556 307.096 204.517 306.625 204.517C303.313 204.517 299.981 204.517 296.668 204.517C296.316 204.517 295.982 204.517 295.532 204.517C295.708 206.222 296.531 207.438 297.923 208.143C300.49 209.398 302.921 209.104 305.175 207.163L305.155 207.124ZM304.92 202.577C304.783 199.931 302.607 198.167 299.804 198.363C297.413 198.52 295.434 200.48 295.61 202.577H304.92Z" fill="#5B4CFF"/>
<path d="M100.688 202.498C100.943 200.068 99.6884 198.559 97.454 198.402C95.494 198.265 93.73 198.755 92.0836 199.911C91.7308 199.264 91.378 198.676 91.0252 198.01C92.2992 196.952 93.7496 196.383 95.3176 196.285C96.7876 196.207 98.3164 196.226 99.7472 196.52C101.668 196.912 103.04 198.284 103.158 200.205C103.354 203.753 103.216 207.3 103.216 210.926H100.982C100.923 210.397 100.884 209.888 100.806 209.221C99.022 211.064 96.9052 211.338 94.6316 211.005C92.1424 210.652 90.5352 208.927 90.594 206.693C90.6528 204.439 92.1816 202.871 94.7296 202.636C96.3172 202.498 97.9244 202.538 99.512 202.498C99.8844 202.498 100.257 202.498 100.688 202.498ZM98.0812 204.38C98.0812 204.38 98.0812 204.341 98.0812 204.321C97.062 204.4 96.0428 204.419 95.0432 204.556C94.0632 204.694 93.436 205.301 93.24 206.281C93.0636 207.183 93.3772 207.908 94.0828 208.457C95.984 209.907 99.7276 208.986 100.59 206.791C100.845 206.124 100.766 205.282 100.649 204.556C100.629 204.4 99.6688 204.419 99.1396 204.38C98.7868 204.36 98.434 204.38 98.0812 204.38Z" fill="#5B4CFF"/>
<path d="M164.525 202.498C164.8 200.048 163.565 198.539 161.252 198.382C159.331 198.265 157.606 198.735 155.94 199.892C155.588 199.264 155.254 198.657 154.784 197.853C155.764 197.402 156.646 196.912 157.587 196.599C159.331 196.011 161.154 195.932 162.977 196.305C165.29 196.775 166.897 198.147 167.054 200.499C167.269 203.949 167.112 207.418 167.112 210.926H164.819C164.8 210.378 164.76 209.848 164.741 209.104C163.526 210.515 162.075 211.024 160.448 211.122C159.018 211.201 157.646 211.024 156.411 210.24C155.019 209.358 154.353 208.084 154.49 206.458C154.608 204.85 155.411 203.635 156.94 203.126C158.077 202.753 159.292 202.616 160.488 202.538C161.82 202.44 163.153 202.518 164.545 202.518L164.525 202.498ZM164.545 204.537C162.624 204.537 160.742 204.458 158.88 204.576C157.842 204.635 157.195 205.458 157.077 206.399C156.96 207.457 157.371 208.3 158.351 208.731C160.017 209.456 161.664 209.28 163.192 208.32C164.604 207.438 164.819 206.085 164.545 204.556V204.537Z" fill="#5B4CFF"/>
<path d="M334.79 203.635C334.771 199.284 337.926 196.128 342.336 196.109C346.844 196.089 350.078 199.147 350.118 203.518C350.157 207.869 346.942 211.083 342.513 211.122C338.083 211.162 334.83 207.986 334.81 203.635H334.79ZM337.436 203.616C337.436 206.673 339.514 208.829 342.454 208.829C345.394 208.829 347.452 206.673 347.452 203.596C347.452 200.538 345.374 198.382 342.434 198.382C339.494 198.382 337.436 200.558 337.436 203.616Z" fill="#5B4CFF"/>
<path d="M406.174 196.128C410.662 196.128 413.857 199.245 413.857 203.635C413.857 207.986 410.584 211.181 406.154 211.162C401.764 211.142 398.549 207.986 398.53 203.674C398.49 199.304 401.705 196.148 406.174 196.148V196.128ZM401.176 203.635C401.195 206.693 403.292 208.849 406.213 208.829C409.172 208.829 411.211 206.673 411.191 203.596C411.191 200.538 409.114 198.402 406.174 198.402C403.253 198.402 401.156 200.597 401.176 203.635Z" fill="#5B4CFF"/>
<path d="M361.642 196.305H364.132C364.132 197.03 364.132 197.716 364.132 198.402C364.132 200.342 364.132 202.283 364.132 204.223C364.132 207.183 365.445 208.711 367.993 208.751C370.835 208.79 372.658 207.143 372.736 204.301C372.814 201.891 372.756 199.46 372.756 197.049C372.756 196.834 372.756 196.618 372.795 196.324H375.343V210.907H372.932V208.966C372.716 209.084 372.579 209.123 372.52 209.201C370.58 211.416 367.013 211.573 364.641 210.475C362.877 209.652 361.78 208.202 361.682 206.32C361.525 203.027 361.642 199.715 361.642 196.305Z" fill="#5B4CFF"/>
<path d="M417.64 210.927V196.325H420.09V198.441C421.305 197.128 422.579 196.423 424.088 196.207C428.361 195.599 431.556 197.677 431.556 202.244C431.556 205.105 431.556 207.967 431.556 210.907H429.027C429.008 210.593 428.949 210.26 428.949 209.927C428.949 207.928 428.949 205.909 428.949 203.91C428.949 203.498 428.949 203.087 428.949 202.675C428.812 199.323 426.518 197.697 423.265 198.696C421.364 199.284 420.286 200.813 420.246 203.087C420.207 205.341 420.246 207.614 420.246 209.868C420.246 210.201 420.246 210.554 420.246 210.946H417.659L417.64 210.927Z" fill="#5B4CFF"/>
<path d="M262.094 210.946H259.566V196.363H261.957C261.976 196.971 262.016 197.579 262.055 198.343C264.054 196.265 266.426 195.795 269.052 196.324C271.345 196.795 273.109 198.382 273.246 200.695C273.462 204.086 273.305 207.477 273.305 210.946H270.855C270.855 210.573 270.855 210.24 270.855 209.888C270.855 207.477 270.875 205.046 270.855 202.635C270.816 200.009 269.444 198.578 266.994 198.48C264.407 198.382 262.427 199.852 262.251 202.302C262.074 204.713 262.153 207.143 262.114 209.554C262.114 209.985 262.114 210.436 262.114 210.965L262.094 210.946Z" fill="#5B4CFF"/>
<path d="M434.731 209.417C435.123 208.692 435.456 208.045 435.809 207.379C437.886 208.515 440.042 209.143 442.375 208.731C442.865 208.653 443.394 208.496 443.786 208.221C444.903 207.477 444.805 205.967 443.57 205.477C442.571 205.085 441.473 204.948 440.434 204.693C439.513 204.458 438.572 204.282 437.671 203.988C436.26 203.517 435.358 202.557 435.221 201.009C435.064 199.382 435.652 198.069 437.044 197.167C438.827 196.011 440.846 195.913 442.865 196.207C444.158 196.403 445.413 196.834 446.804 197.206C446.314 198.108 445.962 198.755 445.589 199.46C443.982 198.461 442.257 198.206 440.493 198.382C439.846 198.441 439.16 198.637 438.612 198.99C437.436 199.735 437.534 201.263 438.808 201.812C439.729 202.204 440.768 202.341 441.748 202.596C442.845 202.89 444.002 203.047 445.06 203.498C447.471 204.517 447.98 207.575 446.079 209.417C444.57 210.867 442.63 211.122 440.65 211.103C438.592 211.083 436.612 210.632 434.75 209.397L434.731 209.417Z" fill="#5B4CFF"/>
<path d="M190.28 197.206C189.75 198.167 189.417 198.794 189.045 199.5C187.438 198.48 185.713 198.245 183.929 198.422C183.282 198.48 182.596 198.696 182.067 199.029C180.891 199.794 180.989 201.283 182.283 201.832C183.204 202.224 184.243 202.361 185.223 202.616C186.262 202.89 187.359 203.028 188.359 203.439C191.064 204.517 191.514 207.869 189.241 209.711C187.908 210.789 186.301 211.083 184.674 211.122C182.4 211.181 180.244 210.75 178.226 209.437C178.598 208.751 178.931 208.084 179.304 207.379C181.401 208.516 183.537 209.143 185.87 208.751C186.242 208.692 186.614 208.594 186.967 208.437C187.653 208.124 188.026 207.575 188.006 206.771C188.006 206.007 187.516 205.576 186.889 205.399C185.909 205.125 184.909 204.948 183.91 204.713C183.008 204.498 182.087 204.341 181.224 204.047C179.794 203.557 178.833 202.636 178.696 201.028C178.559 199.343 179.147 198.03 180.597 197.148C182.342 196.07 184.302 195.952 186.242 196.226C187.536 196.403 188.81 196.834 190.28 197.206Z" fill="#5B4CFF"/>
<path d="M229.382 206.791C230.009 207.183 230.597 207.555 231.185 207.928C230.322 210.241 227.147 211.534 223.717 211.025C220.17 210.495 217.661 207.575 217.504 203.851C217.367 200.264 219.64 197.226 223.09 196.383C226.579 195.541 230.048 196.756 231.204 199.284C230.597 199.676 229.989 200.068 229.401 200.46C226.5 197.932 223.541 197.755 221.483 200.009C219.64 202.009 219.738 205.595 221.679 207.497C223.776 209.515 226.873 209.28 229.362 206.811L229.382 206.791Z" fill="#5B4CFF"/>
<path d="M290.808 199.284C290.22 199.676 289.612 200.068 289.005 200.46C286.77 197.638 283.046 197.951 281.165 199.931C279.244 201.93 279.322 205.556 281.322 207.477C283.419 209.515 286.496 209.261 289.005 206.791C289.593 207.163 290.2 207.536 290.808 207.928C289.926 210.26 286.633 211.593 283.242 211.005C279.656 210.378 277.206 207.457 277.166 203.753C277.127 200.029 279.401 197.089 282.909 196.344C286.77 195.521 290.083 197.187 290.808 199.304V199.284Z" fill="#5B4CFF"/>
<path d="M108.822 198.402H106.392V196.266C106.803 196.266 107.195 196.266 107.607 196.266C108.417 196.266 108.822 195.848 108.822 195.011C108.822 194.502 108.822 193.992 108.822 193.482C108.822 193.384 108.861 193.306 108.881 193.13H111.409V196.285H115.623V198.402H111.429C111.429 199.754 111.429 200.97 111.429 202.204C111.429 203.537 111.429 204.87 111.429 206.222C111.468 208.535 112.997 209.554 115.153 208.672C115.349 208.594 115.545 208.476 115.839 208.339C116.113 208.927 116.368 209.476 116.662 210.123C114.996 211.338 113.212 211.416 111.39 210.789C109.724 210.221 108.9 208.908 108.861 207.202C108.783 204.694 108.822 202.165 108.822 199.656C108.822 199.284 108.822 198.912 108.822 198.402Z" fill="#5B4CFF"/>
<path d="M378.459 198.441V196.266C378.949 196.266 379.42 196.226 379.87 196.266C380.694 196.364 381.046 196.089 380.968 195.227C380.89 194.541 380.968 193.835 380.968 193.09H383.536V196.226H387.769V198.343H383.575C383.575 199.108 383.575 199.774 383.575 200.421C383.575 202.263 383.575 204.106 383.575 205.968C383.575 208.633 385.182 209.633 387.612 208.496C387.73 208.437 387.828 208.398 388.024 208.32C388.279 208.927 388.534 209.496 388.808 210.123C387.024 211.318 385.182 211.416 383.32 210.672C381.634 210.005 381.007 208.574 380.988 206.85C380.948 204.439 380.988 202.008 380.988 199.598C380.988 199.245 380.988 198.912 380.988 198.441H378.498H378.459Z" fill="#5B4CFF"/>
<path d="M353.9 190.405H356.409V210.907H353.9V190.405Z" fill="#5B4CFF"/>
<path d="M172.326 190.405H174.835V210.926H172.326V190.405Z" fill="#5B4CFF"/>
<path d="M144.416 196.128V198.539C143.906 198.598 143.436 198.618 142.965 198.696C140.79 199.068 139.437 200.382 139.28 202.577C139.124 204.929 139.182 207.281 139.163 209.633C139.163 210.044 139.163 210.436 139.163 210.907H136.634V196.324H139.045V198.618C140.496 196.736 142.26 196.089 144.416 196.109V196.128Z" fill="#5B4CFF"/>
<path d="M147.826 196.305H150.335V210.926H147.826V196.305Z" fill="#5B4CFF"/>
<path d="M394.668 210.926H392.179V196.324H394.668V210.926Z" fill="#5B4CFF"/>
<path d="M237.163 210.985C236.634 210.985 236.183 210.985 235.752 210.985C235.438 210.985 235.124 210.985 234.713 210.985V196.324H237.163V210.985Z" fill="#5B4CFF"/>
<path d="M234.144 191.62C234.144 190.66 234.948 189.935 235.967 189.935C237.006 189.935 237.751 190.66 237.731 191.64C237.712 192.62 236.928 193.365 235.928 193.345C234.928 193.345 234.125 192.561 234.144 191.601V191.62Z" fill="#5B4CFF"/>
<path d="M149.139 189.954C150.178 189.954 150.923 190.719 150.884 191.679C150.844 192.659 150.06 193.384 149.061 193.365C148.042 193.345 147.316 192.6 147.336 191.601C147.336 190.601 148.1 189.935 149.139 189.935V189.954Z" fill="#5B4CFF"/>
<path d="M393.434 189.955C394.492 189.955 395.178 190.66 395.158 191.679C395.139 192.679 394.374 193.385 393.375 193.365C392.375 193.365 391.611 192.581 391.63 191.621C391.63 190.621 392.395 189.935 393.434 189.955Z" fill="#5B4CFF"/>
</g>
<defs>
<clipPath id="clip0_9_230">
<rect width="392" height="86.2008" fill="white" transform="translate(56 125)"/>
</clipPath>
</defs>
</svg>
