<svg width="504" height="336" viewBox="0 0 504 336" fill="none" xmlns="http://www.w3.org/2000/svg">
<g clip-path="url(#clip0_9_564)">
<path d="M272.829 98.9314C276.696 102.957 280.3 106.416 283.534 110.164C286.768 113.913 289.645 117.978 292.734 121.991C295.136 120.249 296.456 117.833 297.367 115.14C297.591 114.467 297.71 113.768 297.974 113.121C298.647 111.484 299.967 110.956 301.577 111.405C303.148 111.841 303.861 112.989 303.597 114.639C302.858 119.127 301.102 123.153 297.776 126.307C296.337 127.68 296.047 128.749 296.984 130.624C302.171 140.946 305.036 151.888 305.115 163.49C305.115 163.979 305.168 164.467 305.194 164.942C305.405 165.048 305.603 165.153 305.814 165.259C306.831 163.306 308.177 161.444 308.811 159.372C310.329 154.449 310.725 149.393 310.778 144.206C310.857 136.682 309.352 129.581 306.765 122.611C306.197 121.067 306.065 119.536 307.293 118.282C308.692 116.843 311.279 117.622 312.269 119.892C315.147 126.452 316.836 133.343 317.285 140.47C317.984 151.611 316.044 162.316 311.332 172.492C307.28 181.244 301.459 188.662 294.146 194.905C284.233 203.379 272.71 208.356 259.84 209.926C244.027 211.853 229.31 208.461 215.978 199.657C198.819 188.319 188.933 172.255 186.53 151.888C184.484 134.57 189.051 118.81 199.624 104.95C211.187 89.8237 226.67 81.112 245.479 79.3829C262.876 77.7725 279.336 81.0856 292.945 93.15C295.294 95.2223 297.129 97.8622 299.149 100.291C300.284 101.664 300.455 103.393 299.03 104.422C298.106 105.082 296.245 105.307 295.242 104.818C290.067 102.271 284.642 100.661 279.006 99.697C277.105 99.367 275.152 99.2218 272.802 98.9314H272.829ZM264.104 146.225C264.104 144.179 264.038 142.147 264.13 140.114C264.196 138.517 263.589 137.923 261.952 137.764C254.851 137.157 247.882 135.798 241.322 132.894C239.46 132.062 238.655 132.577 237.929 134.187C236.24 137.896 234.22 141.474 232.834 145.288C230.01 152.984 227.502 160.811 224.862 168.572C224.373 170.011 224.73 170.882 226.221 171.542C236.754 176.188 247.802 178.643 259.233 179.581C260.632 179.686 261.464 179.264 261.609 177.667C262.599 167.199 264.302 146.239 264.117 146.225H264.104ZM298.502 163.279C298.476 153.749 296.1 144.773 292.377 136.101C290.358 131.389 290.622 132.023 286.543 134.016C286.226 134.174 285.91 134.333 285.566 134.412C281.409 135.441 277.264 136.458 273.106 137.474C271.918 137.764 270.506 137.632 270.545 139.546C270.611 143.11 270.717 146.701 270.506 150.251C269.978 159.201 269.318 168.15 268.631 177.099C268.447 179.435 268.499 179.699 270.902 179.594C279.508 179.237 287.705 177.231 295.479 173.469C297.116 172.677 297.974 171.661 298 169.76C298.027 167.582 298.33 165.431 298.515 163.266H298.489L298.502 163.279ZM217.853 167.714C218.724 164.652 219.357 162.302 220.083 159.966C223.146 150.146 226.987 140.642 231.805 131.547C232.755 129.766 232.781 128.683 230.775 127.508C226.578 125.027 222.908 121.846 219.938 117.939C219.067 116.79 218.196 115.616 217.338 114.48C209.207 119.272 199.598 131.508 196.535 140.312C195.546 143.189 195.744 145.539 197.235 148.086C199.941 152.693 203.333 156.706 207.451 160.058C210.646 162.659 214.064 164.969 217.853 167.727V167.714ZM223.436 177.772C223.199 178.155 222.935 178.366 222.908 178.604C222.341 183.712 221.799 188.82 223.357 193.862C224.004 195.948 225.35 197.308 227.33 198.218C234.722 201.624 242.536 203.234 250.614 203.525C251.644 203.564 253.122 202.983 253.703 202.191C257.069 197.638 258.428 192.265 259.801 186.524C247.129 185.428 235.078 182.894 223.436 177.772ZM259.867 102.165C259.207 102.64 258.877 102.786 258.679 103.01C252.726 109.702 247.604 116.975 243.117 124.71C242.483 125.792 242.892 126.505 243.975 126.769C249.756 128.208 255.524 129.673 261.319 131.006C263.154 131.429 263.853 130.452 263.642 128.604C263.048 123.522 262.612 118.401 261.913 113.345C261.411 109.689 260.593 106.086 259.867 102.165ZM294.595 181.389C285.857 184.596 277.158 186.392 268.156 186.537C267.681 186.537 266.942 187.104 266.797 187.553C265.213 192.477 263.734 197.413 262.243 202.284C271.865 201.795 290.952 193.137 294.595 181.376V181.389ZM235.91 122.757C241.295 115.048 246.483 107.604 251.67 100.159C251.604 100.133 251.472 100.04 251.353 100.053C241.889 101.624 233.045 104.871 224.65 109.478C223.41 110.164 223.278 110.943 224.03 112.025C227.158 116.54 231.158 120.077 235.91 122.743V122.757ZM287.296 126.149C282.042 117.464 275.706 109.953 267.417 104.119C267.245 104.95 267.351 105.624 267.443 106.297C268.315 113.187 269.344 120.037 270.017 126.941C270.4 130.953 270.321 131.204 274.241 130.584C278.742 129.884 283.151 128.762 287.296 126.136V126.149ZM194.569 157.392C197.354 170.829 204.429 181.759 215.16 190.642C215.569 185.388 216.005 180.491 216.269 175.594C216.308 174.921 215.503 174.01 214.843 173.548C212.362 171.806 209.616 170.447 207.306 168.533C202.937 164.956 198.779 161.088 194.569 157.366V157.392ZM220.875 102.931C221.1 103.076 221.311 103.208 221.549 103.353C230.049 98.9182 238.906 95.5127 248.304 93.546C242.311 91.3153 236.266 90.8401 230.036 91.5793C226.023 92.0676 223.845 94.6548 222.275 97.9018C221.535 99.4462 221.324 101.255 220.875 102.931ZM196.945 124.578C201.855 118.374 207.412 112.87 213.866 108.29C214.249 108.026 214.513 107.34 214.513 106.851C214.474 104.436 214.328 102.02 214.21 99.499C206.25 106.376 200.205 114.48 196.945 124.565V124.578ZM282.676 93.744C278.637 89.9821 275.244 89.4409 271.971 92.0544C275.548 92.622 279.033 93.1764 282.676 93.744ZM261.451 86.3918C261.319 86.5634 261.187 86.735 261.042 86.9198C261.596 87.8306 262.269 89.5597 262.705 89.5069C263.946 89.3485 265.081 88.4642 266.269 87.8702C266.229 87.6458 266.189 87.4214 266.163 87.1838C264.592 86.9198 263.035 86.6558 261.464 86.3918H261.451ZM254.468 88.2662C253.016 85.4283 250.759 85.8375 247.987 86.0355C250.403 86.867 252.277 87.5138 254.468 88.2662Z" fill="#5B4CFF"/>
<path d="M56 228.34C56.3036 228.261 56.4356 228.221 56.5676 228.208C60.8046 228.01 63.4049 229.976 64.3553 234.095C65.3321 238.345 66.2956 242.595 67.2988 246.832C67.4044 247.281 67.642 247.69 67.9852 248.575C69.6747 242.503 71.2323 236.906 72.7766 231.296C73.6082 228.247 75.0073 227.376 78.0036 228.261C78.492 228.406 78.954 229.198 79.1124 229.778C80.6567 235.322 82.1219 240.906 83.6266 246.463C83.7718 246.977 83.9566 247.505 84.5242 248.073C84.973 246.318 85.4482 244.562 85.8706 242.806C86.9001 238.503 87.9429 234.2 88.9329 229.871C89.1968 228.683 89.672 228.036 91.0316 228.142C92.6155 228.261 94.2391 228.168 96.1266 228.168C95.7702 229.514 95.5062 230.597 95.2026 231.653C93.0247 239.295 90.794 246.911 88.6953 254.58C88.2201 256.31 87.4545 256.917 85.633 256.864C81.1319 256.745 81.1451 256.824 79.9176 252.376C78.7692 248.205 77.5813 244.034 75.9181 239.797C75.6937 240.47 75.4561 241.143 75.2581 241.83C74.0042 246.225 72.7106 250.607 71.5491 255.029C71.1927 256.336 70.6515 256.838 69.2523 256.851C64.2233 256.877 64.1969 256.93 62.811 252.139C60.5274 244.245 58.2967 236.352 56 228.313V228.34Z" fill="#5B4CFF"/>
<path d="M275.852 244.865V228.287H281.699C281.752 228.947 281.844 229.554 281.844 230.161C281.844 238.318 281.805 246.476 281.897 254.62C281.924 256.389 281.316 256.705 279.64 256.89C276.591 257.233 274.967 256.059 273.595 253.392C271.364 249.05 268.711 244.918 265.926 240.14C265.807 241.288 265.701 241.79 265.701 242.305C265.701 246.515 265.649 250.739 265.701 254.95C265.715 256.243 265.398 256.864 263.946 256.837C258.745 256.719 259.709 257.418 259.669 252.666C259.603 245.354 259.669 238.041 259.669 230.729V228.194C261.557 228.194 263.246 228.049 264.87 228.274C265.517 228.353 266.256 229.105 266.612 229.752C269.239 234.24 271.76 238.794 274.321 243.321C274.651 243.889 274.981 244.456 275.297 245.024L275.839 244.879L275.852 244.865Z" fill="#5B4CFF"/>
<path d="M225.733 241.75C229.574 244.126 230.815 246.713 230.076 250.475C229.429 253.802 227.185 256.098 223.119 256.481C218.592 256.917 213.999 256.732 209.445 256.824C207.993 256.851 208.191 255.782 208.191 254.897V238.464C208.191 235.586 208.125 232.696 208.257 229.831C208.283 229.264 209.062 228.274 209.511 228.261C213.299 228.168 217.101 228.129 220.889 228.34C223.885 228.498 226.71 229.462 227.766 232.643C228.861 235.916 228.795 239.15 225.733 241.764V241.75ZM214.21 244.575C214.21 246.608 214.131 248.561 214.276 250.489C214.315 250.937 215.028 251.677 215.464 251.703C217.127 251.822 218.83 251.822 220.493 251.624C222.38 251.399 223.502 250.277 223.581 248.258C223.661 246.278 222.71 244.866 220.836 244.615C218.737 244.338 216.559 244.549 214.223 244.549L214.21 244.575ZM214.21 236.51C214.21 237.276 214.131 238.068 214.249 238.807C214.315 239.19 214.738 239.797 215.002 239.81C216.744 239.823 218.566 239.982 220.176 239.507C221.021 239.256 222.011 237.791 222.024 236.867C222.024 235.837 221.206 234.61 220.387 233.831C219.833 233.303 218.698 233.276 217.8 233.21C214.197 232.973 214.183 232.986 214.21 236.51Z" fill="#5B4CFF"/>
<path d="M126.393 228.472C130.907 228.472 135.329 228.26 139.711 228.538C143.17 228.762 145.849 230.491 146.786 234.147C147.882 238.411 146.866 241.46 143.526 243.994C143.302 244.153 143.13 244.364 142.734 244.72C145.361 247.043 144.886 252.059 149.928 252.151C150.007 252.429 150.152 252.679 150.152 252.93C150.416 257.075 148.898 258.302 144.952 256.679C143.275 255.993 141.85 254.409 140.635 252.97C139.711 251.874 139.368 250.317 138.629 249.05C138.141 248.231 137.533 247.188 136.728 246.898C135.474 246.436 134.022 246.383 132.676 246.502C132.452 246.528 132.267 248.244 132.24 249.168C132.161 251.135 132.161 253.102 132.24 255.069C132.28 256.309 131.884 256.903 130.564 256.824C129.244 256.758 127.911 256.824 126.393 256.824V228.458V228.472ZM132.254 241.829C134.696 241.513 136.808 241.46 138.774 240.919C140.464 240.457 141.309 238.978 141.203 237.157C141.097 235.375 140.173 233.989 138.418 233.606C136.728 233.25 134.946 233.25 133.204 233.237C132.887 233.237 132.306 233.91 132.293 234.306C132.214 236.616 132.24 238.912 132.24 241.816L132.254 241.829Z" fill="#5B4CFF"/>
<path d="M344.78 228.419C349.492 228.419 353.782 228.234 358.032 228.485C361.57 228.683 364.368 230.32 365.384 234.055C366.546 238.332 365.529 241.394 362.058 244.1C361.9 244.219 361.768 244.39 361.636 244.536C364.685 251.148 364.856 251.346 368.684 252.336C368.724 252.587 368.79 252.864 368.803 253.142C368.975 257.075 367.655 258.039 363.761 256.864C361.688 256.23 360.184 254.963 359.207 253.062C358.626 251.927 358.138 250.766 357.583 249.644C356.052 246.529 354.666 245.855 350.838 246.555C350.838 249.208 350.746 251.927 350.878 254.66C350.957 256.441 350.31 256.956 348.581 256.89C344.12 256.745 344.819 257.392 344.793 253.062C344.753 245.684 344.793 238.305 344.793 230.927V228.419H344.78ZM353.808 233.171C351.828 233.171 350.838 234.147 350.838 236.127V238.648C350.838 240.602 351.828 241.579 353.795 241.579C357.583 241.579 359.801 240.061 359.84 237.474C359.88 234.675 357.795 233.197 353.808 233.171Z" fill="#5B4CFF"/>
<path d="M97.1167 241.777C97.2355 240.853 97.3147 239.295 97.6447 237.804C99.0439 231.521 103.426 228.036 109.841 228.036C116.243 228.036 120.823 231.481 122.064 237.751C122.592 240.457 122.671 243.374 122.315 246.12C121.404 253.142 116.348 257.286 109.392 257.141C102.938 257.009 98.0935 252.389 97.3147 245.578C97.1959 244.536 97.2091 243.48 97.1167 241.79H97.0903L97.1167 241.777ZM103.096 242.582C103.545 244.456 103.796 246.489 104.535 248.337C105.485 250.7 107.518 251.822 110.079 251.756C112.653 251.677 114.514 250.383 115.451 248.02C116.876 244.417 116.837 240.721 115.477 237.117C114.54 234.636 112.56 233.382 109.92 233.356C107.254 233.329 105.3 234.636 104.376 237.091C103.743 238.767 103.545 240.602 103.096 242.595V242.582Z" fill="#5B4CFF"/>
<path d="M369.792 242.886C369.977 237.104 371.205 231.904 377.013 229.171C385.091 225.383 393.855 230.069 395.07 238.886C395.386 241.143 395.386 243.506 395.122 245.789C394.317 252.653 389.447 257.101 382.952 257.154C376.075 257.207 371.126 252.93 370.096 246.014C369.938 244.971 369.885 243.928 369.792 242.912V242.886ZM375.851 242.437C376.234 244.258 376.392 246.027 376.96 247.664C377.871 250.33 380.101 251.795 382.728 251.756C385.394 251.716 387.493 250.238 388.404 247.532C389.539 244.166 389.539 240.76 388.351 237.408C387.453 234.86 385.381 233.382 382.781 233.329C380.22 233.263 377.976 234.636 377.065 237.17C376.458 238.86 376.234 240.694 375.864 242.437H375.851Z" fill="#5B4CFF"/>
<path d="M335.157 238.754C334.946 238.464 334.827 238.358 334.801 238.239C333.811 234.662 332.464 233.369 329.705 233.329C326.881 233.29 324.28 235.137 323.766 238.319C323.33 241.024 323.304 243.928 323.766 246.621C324.373 250.079 327.356 251.993 330.524 251.65C333.349 251.347 334.761 249.631 334.642 246.331C333.217 246.331 331.738 246.238 330.313 246.357C328.386 246.529 328.531 245.275 328.57 244.06C328.61 242.952 328.135 241.566 330.167 241.632C333.533 241.724 336.899 241.658 340.899 241.658C340.476 244.958 340.516 248.099 339.605 250.951C338.127 255.623 332.279 258.131 327.026 256.93C321.456 255.65 318.222 252.205 317.272 246.608C316.453 241.843 316.598 237.157 319.304 232.96C322.301 228.327 326.947 227.482 331.963 228.181C336.318 228.789 338.866 231.613 340.107 235.758C340.569 237.315 340.344 238.16 338.51 238.253C337.348 238.305 336.173 238.583 335.104 238.754V238.781L335.157 238.754Z" fill="#5B4CFF"/>
<path d="M174.769 228.26C178.188 228.26 181.435 228.036 184.643 228.313C192.457 228.96 196.971 234.029 197.195 242.225C197.248 243.902 197.09 245.618 196.76 247.241C195.572 253.115 191.282 256.6 185.065 256.811C182.108 256.903 179.165 256.811 176.208 256.837C175.126 256.837 174.505 256.626 174.505 255.346C174.545 246.634 174.545 237.936 174.558 229.224C174.558 228.96 174.664 228.709 174.769 228.26ZM180.498 242.437C180.498 245.037 180.445 247.624 180.551 250.224C180.577 250.752 181.079 251.597 181.501 251.703C186.015 252.851 189.922 250.475 190.82 245.908C191.176 244.153 191.216 242.265 191.005 240.483C190.398 235.48 187.256 232.986 182.201 233.131C180.947 233.171 180.445 233.553 180.472 234.847C180.551 237.368 180.498 239.902 180.498 242.423V242.437Z" fill="#5B4CFF"/>
<path d="M293.605 244.615C293.605 248.047 293.552 251.492 293.631 254.924C293.671 256.415 293.143 256.877 291.691 256.837C286.543 256.705 287.507 257.458 287.467 252.627C287.401 245.314 287.467 238.002 287.467 230.676V228.3H293.565V240.074C293.724 240.14 293.869 240.193 294.027 240.259C294.397 239.836 294.793 239.414 295.136 238.978C297.393 235.929 299.716 232.907 301.868 229.792C302.739 228.524 303.716 228.049 305.207 228.155C306.725 228.26 308.256 228.181 310.289 228.181C306.553 233.131 303.095 237.698 299.584 242.371C303.148 247.03 306.672 251.663 310.223 256.323C306.738 257.748 303.372 256.903 301.366 254.198C298.964 250.937 296.561 247.69 294.159 244.43L293.644 244.641H293.631L293.605 244.615Z" fill="#5B4CFF"/>
<path d="M399.307 228.261H405.141C405.194 229.132 405.286 229.95 405.286 230.755C405.299 235.533 405.233 240.325 405.326 245.09C405.405 249.221 406.764 251.149 409.655 251.571C412.348 251.967 414.407 250.7 415.041 248.047C415.305 246.964 415.384 245.829 415.384 244.707C415.423 239.309 415.384 233.897 415.384 228.181C417.139 228.181 418.736 228.089 420.307 228.247C420.716 228.287 421.35 229.132 421.35 229.607C421.39 235.507 421.535 241.42 421.218 247.307C420.901 253.274 417.007 256.904 411.345 257.088C404.613 257.326 400.613 254.316 399.544 248.218C399.32 246.977 399.307 245.71 399.307 244.443C399.28 239.111 399.307 233.791 399.307 228.247V228.261Z" fill="#5B4CFF"/>
<path d="M257.794 256.811C255.907 256.811 254.244 256.877 252.594 256.771C252.158 256.745 251.723 256.257 251.34 255.9C251.155 255.729 251.115 255.385 251.01 255.135C250.297 253.406 249.901 250.515 248.792 250.198C246.126 249.446 243.103 249.868 240.239 249.921C239.909 249.921 239.5 250.449 239.275 250.832C239.025 251.241 238.932 251.756 238.774 252.218C237.045 257.418 236.992 257.458 231.131 256.626C231.29 256.019 231.395 255.438 231.607 254.871C234.616 246.621 237.678 238.411 240.635 230.135C241.163 228.643 241.876 227.891 243.486 228.181C243.895 228.26 244.331 228.26 244.753 228.181C246.786 227.812 247.71 228.736 248.357 230.636C251.181 238.648 254.165 246.608 257.068 254.594C257.306 255.24 257.478 255.887 257.768 256.837V256.811H257.794ZM244.661 236.735C244.463 236.761 244.278 236.774 244.08 236.801C243.196 239.454 242.311 242.08 241.401 244.826H247.499C246.496 241.948 245.585 239.348 244.674 236.735H244.661Z" fill="#5B4CFF"/>
<path d="M426.669 242.357C426.669 238.279 426.722 234.2 426.643 230.135C426.617 228.736 426.96 228.089 428.517 228.155C432.174 228.313 435.869 228.01 439.473 228.498C446.521 229.435 449.927 236.127 446.878 242.529C445.413 245.644 442.746 247.043 439.513 247.439C437.77 247.664 436.001 247.624 434.246 247.598C433.058 247.598 432.622 248.033 432.649 249.208C432.715 251.241 432.649 253.287 432.675 255.333C432.702 256.389 432.319 256.785 431.223 256.851C426.683 257.128 426.683 257.167 426.683 252.693V242.357H426.669ZM432.662 237.883C432.662 243.255 432.886 243.453 437.915 242.503C440.714 241.975 441.994 240.1 441.598 237.117C441.215 234.213 438.8 232.867 434.286 233.171C431.342 233.382 433.164 235.731 432.675 237.038C432.583 237.276 432.675 237.592 432.675 237.883H432.662Z" fill="#5B4CFF"/>
<path d="M153.373 228.3H159.049C159.088 229.132 159.154 229.95 159.154 230.782C159.154 237.104 159.207 243.427 159.128 249.762C159.128 251.307 159.564 251.874 161.174 251.822C164.54 251.716 167.906 251.782 171.14 251.782C171.351 252.072 171.483 252.178 171.496 252.31C171.813 255.333 170.48 256.851 167.497 256.837C163.273 256.837 159.062 256.811 154.838 256.837C153.769 256.837 153.122 256.653 153.135 255.359C153.175 246.647 153.162 237.923 153.175 229.211C153.175 228.947 153.281 228.683 153.373 228.313V228.3Z" fill="#5B4CFF"/>
</g>
<defs>
<clipPath id="clip0_9_564">
<rect width="392" height="178.365" fill="white" transform="translate(56 79)"/>
</clipPath>
</defs>
</svg>
