<svg width="504" height="336" viewBox="0 0 504 336" fill="none" xmlns="http://www.w3.org/2000/svg">
<g clip-path="url(#clip0_9_718)">
<path d="M80.2306 174.062L110.665 150.172H86.1095L88.7023 137.014H133.945L130.7 153.514L101.791 176.031H127.095L124.391 189.799H77.1387L80.2306 174.048V174.062Z" fill="#5B4CFF"/>
<path d="M138.035 137.014H157.46L147.089 189.799H127.664L138.035 137.014Z" fill="#5B4CFF"/>
<path d="M198.64 139.454C195.035 137.25 190.223 137.014 184.039 137.014H161.564L151.276 189.799H169.8L172.781 174.519H179.325C192.927 174.519 201.218 167.906 203.631 155.496C205.115 147.898 203.187 142.269 198.667 139.454H198.64ZM187.256 155.732C186.244 160.931 183.013 162.221 177.204 162.346C176.899 162.346 175.443 162.346 175.124 162.346L177.703 149.118C178.063 149.118 179.533 149.118 179.866 149.118C185.565 149.257 188.254 150.63 187.256 155.732Z" fill="#5B4CFF"/>
<path d="M302.574 139.454C298.969 137.25 294.144 137.014 287.974 137.014H265.498L255.21 189.799H273.734L276.715 174.519H283.245C296.861 174.519 305.139 167.906 307.551 155.496C309.035 147.898 307.121 142.269 302.587 139.454H302.574ZM291.19 155.732C290.178 160.931 286.934 162.221 281.138 162.346C280.833 162.346 279.377 162.346 279.058 162.346L281.637 149.118C281.998 149.118 283.467 149.118 283.814 149.118C289.513 149.257 292.202 150.63 291.204 155.732H291.19Z" fill="#5B4CFF"/>
<path d="M313.915 189.799H294.116L322.65 137.014H344.779L352.488 189.799H333.451L332.342 178.388H319.281L313.915 189.799ZM332.439 165.84L331.76 148.12L324.481 165.84H332.439Z" fill="#5B4CFF"/>
<path d="M427 143.697C427 147.343 424.074 150.241 420.456 150.241C416.837 150.241 413.87 147.343 413.87 143.697C413.87 140.05 416.809 137.139 420.456 137.139C424.102 137.139 427 140.078 427 143.697ZM414.937 143.655C414.937 146.733 417.391 149.201 420.456 149.201C423.52 149.201 425.946 146.733 425.946 143.655C425.946 140.577 423.506 138.165 420.456 138.165C417.405 138.165 414.937 140.633 414.937 143.655ZM423.714 147.357H422.563L420.456 144.141H419.027V147.357H418.001V140.023H421.19C422.522 140.023 423.811 140.383 423.811 141.978C423.811 143.42 422.827 144.016 421.523 144.057L423.714 147.371V147.357ZM419.041 143.281H420.969C422.438 143.281 422.799 142.671 422.799 141.95C422.799 140.993 421.787 140.91 421.01 140.91H419.041V143.281Z" fill="#5B4CFF"/>
<path d="M404.622 196.302H77V199.685H404.622V196.302Z" fill="#5B4CFF"/>
<path d="M228.311 161.375C218.384 161.375 215.458 156.037 215.139 154.553C213.309 157.202 211.992 160.196 211.382 163.358C210.772 166.561 210.952 169.583 211.798 172.273C212.533 171.053 217.538 165.41 227.535 165.41H250.412C250.606 164.73 250.773 164.051 250.911 163.358C251.036 162.692 251.133 162.027 251.189 161.375C247.847 161.375 236.991 161.375 228.311 161.375ZM229.24 158.602C230.363 158.671 246.197 158.644 251.244 158.574C250.759 149.964 244.215 143.586 234.939 143.586C229.226 143.586 223.625 146.012 219.271 149.881C221.115 156.938 227.299 158.463 229.24 158.602ZM227.299 168.224C224.928 168.419 218.661 169.722 214.099 176.821C216.969 180.703 221.642 183.13 227.354 183.13C236.589 183.13 245.573 176.793 249.372 168.224C244.326 168.183 228.505 168.141 227.299 168.238V168.224Z" fill="#5B4CFF"/>
<path d="M413.065 137H393.363L379.539 154.221L382.936 137H364.177L353.792 189.799H372.551L376.309 170.72L385.39 189.799H404.621L390.992 162.193L413.065 137Z" fill="#5B4CFF"/>
</g>
<defs>
<clipPath id="clip0_9_718">
<rect width="350" height="62.6847" fill="white" transform="translate(77 137)"/>
</clipPath>
</defs>
</svg>
