<svg width="206" height="206" viewBox="0 0 206 206" fill="none" xmlns="http://www.w3.org/2000/svg">
<path d="M33.6858 26.8089C49.7277 12.1427 70.349 2.52343 93.0331 0.460681L101.972 18.1041L92.3455 37.1226C79.7417 39.1854 68.5131 44.6861 59.3473 52.7033L52.705 33.224L33.6858 26.8089ZM18.1047 89.3652L36.4363 98.5307C37.3508 85.7004 41.7033 74.0115 48.8063 64.1584L42.164 43.9916L23.6055 37.8033C9.62649 54.3053 1.1483 75.3867 0 98.2969L18.1047 89.3652ZM116.866 18.1041L107.7 36.435C120.531 37.3495 132.22 41.7019 142.073 48.8047L162.241 42.1626L168.429 23.6047C151.927 9.62617 130.845 1.14826 107.934 0L116.866 18.1041ZM205.773 93.0369C203.483 70.3535 193.857 49.726 179.424 33.6916L173.009 52.7101L153.529 59.3522C161.553 68.5177 167.047 79.7459 169.11 92.3493L188.129 101.976L205.773 93.0369ZM188.129 116.869L169.798 107.703C168.883 120.533 164.53 132.222 157.427 142.075L164.07 162.242L182.628 168.43C196.38 151.702 204.859 130.854 206 107.937L188.129 116.869ZM153.529 173.01L146.886 153.531C137.721 161.555 126.492 167.048 113.888 169.111L104.262 188.13L113.201 205.773C135.885 203.483 156.513 193.857 172.548 179.425L153.529 173.01ZM33.2251 153.531L52.705 147.115C44.6807 137.95 39.1867 126.722 37.1239 114.118L18.1047 104.492L0.460696 113.424C2.75043 136.107 12.3769 156.735 26.8098 172.769L33.2251 153.524V153.531ZM89.3682 188.13L98.534 169.799C85.7033 168.884 74.014 164.532 64.1606 157.429L43.9931 164.071L37.8046 182.629C54.5341 196.381 75.3823 204.859 98.3002 206L89.3682 188.13Z" fill="#5FFC46"/>
</svg>
