<svg width="529" height="529" viewBox="0 0 529 529" fill="none" xmlns="http://www.w3.org/2000/svg">
<path d="M508.2 161.54C494.88 130.04 475.81 101.76 451.52 77.47C427.23 53.18 398.94 34.11 367.45 20.79C334.84 6.99 300.2 0 264.5 0C221.78 0 181.01 9.87 143.31 29.34C111.14 45.95 81.96 69.73 58.95 98.09C56.24 101.43 53.9 104.44 51.8 107.27C49.26 105.59 46.3 104.7 43.24 104.7C34.67 104.7 27.71 111.67 27.71 120.24C27.71 125.53 30.36 130.39 34.82 133.28C33.17 136.16 31.56 139.12 29.88 142.33C10.33 179.8 0 222.05 0 264.49C0 300.2 6.99 334.83 20.79 367.44C34.11 398.94 53.18 427.22 77.47 451.51C101.76 475.8 130.05 494.87 161.54 508.19C194.15 521.98 228.79 528.98 264.49 528.98C300.19 528.98 334.84 521.99 367.44 508.19C398.94 494.87 427.22 475.8 451.51 451.51C475.8 427.22 494.87 398.93 508.19 367.44C521.98 334.83 528.98 300.19 528.98 264.49C528.98 228.79 521.99 194.14 508.19 161.54H508.2ZM264.49 528C228.92 528 194.41 521.03 161.92 507.29C130.54 494.02 102.36 475.02 78.16 450.82C53.96 426.62 34.96 398.44 21.69 367.06C7.96 334.58 0.99 300.07 0.99 264.49C0.99 222.18 11.29 180.06 30.78 142.7C32.4 139.59 34.04 136.58 35.65 133.77C37.97 135.07 40.59 135.76 43.23 135.76C51.8 135.76 58.77 128.79 58.77 120.23C58.77 115.32 56.52 110.82 52.6 107.85C54.74 104.96 57.12 101.91 59.87 98.53C82.78 70.36 111.79 46.74 143.77 30.22C181.31 10.82 221.93 0.99 264.5 0.99C300.07 0.99 334.58 7.96 367.07 21.7C398.45 34.97 426.63 53.97 450.83 78.17C475.03 102.37 494.03 130.55 507.3 161.93C521.04 194.42 528.01 228.93 528.01 264.5C528.01 300.07 521.04 334.58 507.3 367.07C494.03 398.45 475.03 426.63 450.83 450.83C426.63 475.03 398.45 494.03 367.07 507.3C334.58 521.04 300.07 528.01 264.5 528.01L264.49 528ZM43.23 105.68C51.25 105.68 57.78 112.21 57.78 120.23C57.78 128.25 51.25 134.78 43.23 134.78C35.21 134.78 28.68 128.25 28.68 120.23C28.68 112.21 35.21 105.68 43.23 105.68Z" fill="black"/>
</svg>
