<svg width="200" height="200" viewBox="0 0 200 200" fill="none" xmlns="http://www.w3.org/2000/svg">
<path d="M78.671 168.015L70.3216 188.172L58.1563 183.133L59.0532 180.968L68.7776 184.996L71.5988 178.185L62.5043 174.418L63.4012 172.253L72.4957 176.02L75.3332 169.169L65.4514 165.076L66.3483 162.911L78.671 168.015Z" fill="black"/>
<path d="M35.0649 158.616L36.5715 157.109L42.5679 163.106L41.0613 164.612L35.0649 158.616ZM36.5414 165.637L34.7636 163.859L45.7921 152.83C46.2943 152.328 46.5981 151.879 46.7036 151.482C46.799 151.085 46.7739 150.729 46.6282 150.412C46.4725 150.096 46.2641 149.807 46.003 149.546C45.8071 149.35 45.6364 149.199 45.4907 149.094C45.3401 148.994 45.2195 148.913 45.1291 148.853L46.3646 146.894C46.5303 146.97 46.7437 147.093 47.0049 147.263C47.2711 147.429 47.5699 147.678 47.9013 148.009C48.4035 148.511 48.7877 149.112 49.0539 149.81C49.315 150.503 49.3828 151.228 49.2573 151.987C49.1267 152.74 48.7249 153.453 48.052 154.126L36.5414 165.637Z" fill="black"/>
<path d="M35.0786 127.796C35.4754 128.754 35.6551 129.698 35.6177 130.628C35.5736 131.561 35.3023 132.4 34.8036 133.145C34.2983 133.892 33.5535 134.47 32.5693 134.878C31.7031 135.236 30.9304 135.357 30.251 135.238C29.565 135.123 28.9496 134.843 28.4048 134.4C27.8599 133.957 27.3693 133.422 26.933 132.796C26.4875 132.165 26.0733 131.518 25.6907 130.854C25.192 129.984 24.795 129.276 24.4995 128.73C24.1947 128.18 23.9124 127.805 23.6528 127.605C23.3905 127.398 23.0723 127.372 22.6983 127.527L22.6195 127.56C21.6484 127.962 21.0039 128.541 20.686 129.295C20.3654 130.043 20.4266 130.951 20.8696 132.021C21.3289 133.13 21.9318 133.899 22.6783 134.327C23.4248 134.756 24.1266 134.984 24.7838 135.012L24.9096 137.543C23.8279 137.53 22.8953 137.301 22.1117 136.857C21.3188 136.409 20.6589 135.837 20.1321 135.14C19.5959 134.44 19.1702 133.709 18.855 132.948C18.6538 132.462 18.4819 131.88 18.3391 131.201C18.187 130.518 18.1658 129.808 18.2755 129.071C18.3825 128.327 18.7121 127.61 19.2642 126.92C19.8164 126.23 20.6928 125.637 21.8936 125.139L31.8542 121.013L32.8163 123.336L30.7691 124.184L30.818 124.302C31.2113 124.324 31.6711 124.441 32.1973 124.654C32.7235 124.866 33.2442 125.223 33.7595 125.725C34.2747 126.226 34.7144 126.917 35.0786 127.796ZM32.8453 128.306C32.4647 127.387 31.9636 126.688 31.3418 126.207C30.7172 125.72 30.053 125.434 29.3489 125.349C28.6422 125.257 27.9738 125.342 27.3439 125.603L25.2179 126.484C25.3768 126.533 25.5748 126.705 25.8118 126.999C26.0396 127.289 26.2792 127.635 26.5308 128.039C26.7731 128.438 27.0047 128.83 27.2257 129.215C27.4374 129.596 27.6113 129.905 27.7474 130.141C28.0762 130.712 28.4379 131.223 28.8325 131.675C29.2178 132.122 29.651 132.435 30.1319 132.612C30.6036 132.786 31.1347 132.75 31.7252 132.506C32.5323 132.171 33.0189 131.62 33.1849 130.852C33.3417 130.08 33.2285 129.231 32.8453 128.306Z" fill="black"/>
<path d="M35.1364 106.339L12.6364 106.339L12.6364 103.911H15.2358V103.612C14.9517 103.428 14.5895 103.172 14.1491 102.845C13.7017 102.511 13.304 102.036 12.956 101.418C12.6009 100.793 12.4233 99.9474 12.4233 98.8821C12.4233 97.5043 12.7678 96.2898 13.4567 95.2386C14.1456 94.1875 15.1222 93.3672 16.3864 92.7777C17.6506 92.1882 19.142 91.8935 20.8608 91.8935C22.5938 91.8935 24.0959 92.1882 25.3672 92.7777C26.6314 93.3672 27.6115 94.1839 28.3075 95.228C28.9964 96.272 29.3409 97.4759 29.3409 98.8395C29.3409 99.8906 29.1669 100.732 28.8189 101.364C28.4638 101.996 28.0625 102.483 27.6151 102.824C27.1605 103.165 26.7841 103.428 26.4858 103.612V103.825H35.1364V106.339ZM20.8182 103.868C22.054 103.868 23.1442 103.687 24.0888 103.325C25.0263 102.962 25.7614 102.433 26.294 101.737C26.8196 101.041 27.0824 100.189 27.0824 99.1804C27.0824 98.1293 26.8054 97.2521 26.2514 96.549C25.6903 95.8388 24.9375 95.3061 23.9929 94.951C23.0412 94.5888 21.983 94.4077 20.8182 94.4077C19.6676 94.4077 18.6307 94.5852 17.7074 94.9403C16.777 95.2884 16.0419 95.8175 15.5021 96.5277C14.9553 97.2308 14.6818 98.1151 14.6818 99.1804C14.6818 100.203 14.9411 101.062 15.4595 101.759C15.9709 102.455 16.6882 102.98 17.6115 103.335C18.5277 103.69 19.5966 103.868 20.8182 103.868Z" fill="black"/>
<path d="M34.439 73.7483C34.0422 74.7063 33.5017 75.501 32.8173 76.1323C32.1264 76.7609 31.3414 77.1622 30.4622 77.3362C29.5764 77.5074 28.6414 77.3891 27.6571 76.9815C26.791 76.6227 26.1595 76.1613 25.7628 75.5972C25.3595 75.0304 25.1219 74.3977 25.05 73.6991C24.978 73.0005 25.0093 72.2754 25.1438 71.524C25.2744 70.7632 25.4392 70.0127 25.6381 69.2726C25.9005 68.305 26.1204 67.5236 26.2978 66.9283C26.4714 66.3237 26.5371 65.8589 26.4949 65.5339C26.4554 65.2024 26.2487 64.9591 25.8746 64.8042L25.7959 64.7716C24.8248 64.3693 23.9601 64.3225 23.2019 64.6312C22.4464 64.9332 21.8472 65.619 21.4041 66.6886C20.9448 67.7975 20.8275 68.7675 21.0521 69.5985C21.2767 70.4296 21.6117 71.0872 22.0568 71.5714L20.3562 73.45C19.6007 72.6757 19.1029 71.8546 18.8629 70.9864C18.619 70.109 18.5571 69.2377 18.6771 68.3726C18.7933 67.4982 19.009 66.6805 19.3243 65.9193C19.5254 65.4338 19.8155 64.9005 20.1945 64.3195C20.5697 63.7292 21.0568 63.2122 21.6557 62.7684C22.2574 62.3181 22.9974 62.0442 23.8757 61.9467C24.7539 61.8493 25.7935 62.0492 26.9943 62.5466L36.9548 66.6724L35.9927 68.9952L33.9455 68.1473L33.8965 68.2654C34.1594 68.5587 34.4017 68.9666 34.6235 69.489C34.8453 70.0114 34.9611 70.632 34.9708 71.351C34.9805 72.0699 34.8032 72.869 34.439 73.7483ZM32.4992 72.5297C32.8797 71.611 33.02 70.762 32.92 69.9826C32.8228 69.1966 32.5553 68.5247 32.1176 67.9667C31.6826 67.4022 31.1502 66.9894 30.5203 66.7285L28.3943 65.8479C28.4717 65.9952 28.4902 66.2566 28.45 66.632C28.406 66.9982 28.3304 67.4127 28.2232 67.8757C28.1121 68.3294 27.9986 68.7705 27.8826 69.1991C27.7627 69.6183 27.6676 69.9595 27.5971 70.2224C27.4258 70.8587 27.32 71.476 27.2797 72.0743C27.2356 72.6633 27.3208 73.1906 27.5354 73.6562C27.7462 74.1125 28.1468 74.4629 28.7374 74.7076C29.5444 75.0419 30.2783 74.9961 30.9391 74.5702C31.5959 74.135 32.116 73.4549 32.4992 72.5297Z" fill="black"/>
<path d="M72.6493 34.8482C71.3894 35.3701 70.1454 35.5125 68.9172 35.2756C67.6863 35.0321 66.5566 34.4391 65.5282 33.4967C64.4971 32.5478 63.6499 31.2728 62.9868 29.6717C62.329 28.0838 62.0306 26.5931 62.0914 25.1995C62.1522 23.806 62.5364 22.5898 63.2439 21.5511C63.9513 20.5124 64.9416 19.7294 66.2145 19.2021C67.1988 18.7944 68.0443 18.6364 68.751 18.728C69.4616 18.8103 70.0535 18.9957 70.5265 19.284C71.0034 19.5631 71.3816 19.7986 71.6609 19.9904L71.8577 19.9088L68.7756 12.4679L71.0984 11.5058L79.4479 31.6631L77.2038 32.5927L76.2417 30.2698L75.9661 30.384C75.9096 30.7303 75.8109 31.1786 75.6699 31.729C75.5261 32.2728 75.2302 32.8297 74.7821 33.3997C74.3313 33.9631 73.6204 34.446 72.6493 34.8482ZM72.0999 32.6312C73.0317 32.2452 73.7185 31.6763 74.1604 30.9244C74.5996 30.1659 74.8071 29.2843 74.783 28.2795C74.7562 27.2682 74.5063 26.1917 74.0334 25.05C73.5659 23.9214 72.9928 23.0018 72.3141 22.2912C71.6327 21.5741 70.8726 21.1125 70.0339 20.9064C69.1925 20.6938 68.2993 20.7831 67.3544 21.1745C66.3702 21.5822 65.6546 22.1746 65.2077 22.9516C64.7647 23.7194 64.5571 24.601 64.5851 25.5965C64.6169 26.5827 64.853 27.6072 65.2933 28.6702C65.739 29.7463 66.308 30.6561 67.0003 31.3994C67.6964 32.1335 68.4767 32.6252 69.341 32.8745C70.2091 33.1145 71.1288 33.0334 72.0999 32.6312Z" fill="black"/>
<path d="M100.431 29.3409C98.8548 29.3409 97.4947 28.9929 96.3512 28.2969C95.2148 27.5938 94.3377 26.6136 93.7198 25.3565C93.109 24.0923 92.8036 22.6222 92.8036 20.946C92.8036 19.2699 93.109 17.7926 93.7198 16.5142C94.3377 15.2287 95.1971 14.2273 96.2979 13.5099C97.4059 12.7855 98.6985 12.4233 100.176 12.4233C101.028 12.4233 101.87 12.5653 102.701 12.8494C103.532 13.1335 104.288 13.5952 104.97 14.2344C105.652 14.8665 106.195 15.7045 106.6 16.7486C107.005 17.7926 107.207 19.0781 107.207 20.6051V21.6705L94.5934 21.6705V19.4972L104.65 19.4972C104.65 18.5739 104.466 17.75 104.096 17.0256C103.734 16.3011 103.216 15.7294 102.541 15.3104C101.873 14.8913 101.085 14.6818 100.176 14.6818C99.1744 14.6818 98.3079 14.9304 97.5763 15.4276C96.8519 15.9176 96.2944 16.5568 95.9038 17.3452C95.5131 18.1335 95.3178 18.9787 95.3178 19.8807V21.3295C95.3178 22.5653 95.5309 23.6129 95.957 24.4723C96.3903 25.3246 96.9904 25.9744 97.7575 26.4219C98.5245 26.8622 99.4158 27.0824 100.431 27.0824C101.092 27.0824 101.689 26.9901 102.221 26.8054C102.761 26.6136 103.226 26.3295 103.617 25.9531C104.007 25.5696 104.309 25.0937 104.522 24.5256L106.951 25.2074C106.696 26.0313 106.266 26.7557 105.662 27.3807C105.059 27.9986 104.313 28.4815 103.425 28.8295C102.537 29.1705 101.539 29.3409 100.431 29.3409Z" fill="black"/>
<path d="M149.726 49.7987C148.761 48.8344 148.154 47.7396 147.903 46.5142C147.657 45.2838 147.772 44.0133 148.249 42.7025C148.731 41.3867 149.585 40.1161 150.81 38.8908C152.026 37.6754 153.289 36.8292 154.6 36.3521C155.91 35.875 157.181 35.7645 158.411 36.0206C159.642 36.2768 160.744 36.892 161.718 37.8663C162.472 38.6196 162.941 39.3402 163.127 40.0282C163.323 40.7163 163.378 41.334 163.293 41.8814C163.217 42.4288 163.145 42.8682 163.074 43.1997L163.225 43.3503L168.92 37.6553L170.698 39.4331L155.27 54.8609L153.553 53.1434L155.33 51.3656L155.119 51.1546C154.778 51.235 154.326 51.3153 153.763 51.3957C153.206 51.471 152.578 51.4108 151.88 51.2149C151.187 51.014 150.469 50.5419 149.726 49.7987ZM151.564 48.4427C152.277 49.1559 153.065 49.5727 153.929 49.6932C154.798 49.8087 155.692 49.6631 156.611 49.2563C157.535 48.8445 158.434 48.2017 159.308 47.3278C160.172 46.464 160.802 45.5827 161.199 44.6837C161.6 43.7797 161.736 42.9009 161.605 42.0471C161.48 41.1883 161.055 40.3974 160.332 39.6742C159.579 38.9209 158.758 38.4865 157.869 38.371C156.99 38.2555 156.096 38.4011 155.187 38.8079C154.288 39.2147 153.432 39.8249 152.618 40.6384C151.795 41.462 151.172 42.3359 150.75 43.2599C150.338 44.184 150.183 45.093 150.283 45.9869C150.394 46.8809 150.82 47.6995 151.564 48.4427Z" fill="black"/>
<path d="M165.114 71.6668L180.232 65.4047L181.194 67.7276L166.076 73.9897L165.114 71.6668ZM183.241 65.5422C183.053 65.0894 183.046 64.6351 183.218 64.1793C183.393 63.73 183.698 63.4157 184.131 63.2363C184.564 63.0569 185.001 63.0641 185.443 63.2579C185.887 63.4582 186.203 63.7848 186.39 64.2375C186.578 64.6903 186.584 65.1413 186.409 65.5906C186.236 66.0464 185.934 66.364 185.5 66.5434C185.067 66.7228 184.629 66.7123 184.184 66.5119C183.743 66.3182 183.428 65.9949 183.241 65.5422Z" fill="black"/>
<path d="M183.699 106.055L183.06 103.797C183.436 103.655 183.802 103.445 184.157 103.168C184.519 102.898 184.817 102.529 185.052 102.06C185.286 101.591 185.403 100.991 185.403 100.26C185.403 99.2583 185.173 98.4237 184.711 97.7561C184.256 97.0956 183.678 96.7654 182.974 96.7654C182.349 96.7654 181.856 96.9926 181.494 97.4472C181.131 97.9017 180.83 98.6119 180.588 99.5779L179.991 102.007C179.636 103.47 179.093 104.56 178.362 105.277C177.637 105.995 176.703 106.353 175.56 106.353C174.622 106.353 173.784 106.084 173.045 105.544C172.307 105.011 171.724 104.265 171.298 103.307C170.872 102.348 170.659 101.233 170.659 99.9614C170.659 98.2923 171.021 96.911 171.746 95.8172C172.47 94.7235 173.528 94.031 174.92 93.7398L175.517 96.1262C174.636 96.3534 173.976 96.7831 173.536 97.4152C173.095 98.0544 172.875 98.8889 172.875 99.9188C172.875 101.091 173.124 102.021 173.621 102.71C174.125 103.406 174.729 103.754 175.432 103.754C176 103.754 176.476 103.555 176.859 103.157C177.25 102.76 177.541 102.149 177.733 101.325L178.372 98.5977C178.727 97.0992 179.278 95.9983 180.023 95.2952C180.776 94.5992 181.717 94.2512 182.847 94.2512C183.77 94.2512 184.587 94.5104 185.297 95.0289C186.007 95.5544 186.565 96.2682 186.969 97.1702C187.374 98.0793 187.577 99.1091 187.577 100.26C187.577 101.879 187.222 103.15 186.511 104.074C185.801 105.004 184.864 105.665 183.699 106.055Z" fill="black"/>
<path d="M165.115 127.439C165.719 125.982 166.561 124.859 167.641 124.069C168.726 123.288 169.967 122.852 171.365 122.763C172.767 122.682 174.242 122.963 175.79 123.604C177.339 124.245 178.587 125.093 179.534 126.146C180.485 127.209 181.082 128.386 181.323 129.678C181.568 130.979 181.408 132.312 180.843 133.677C180.517 134.464 180.064 135.187 179.483 135.846C178.903 136.505 178.187 137.027 177.335 137.413C176.49 137.801 175.508 137.982 174.389 137.956C173.269 137.931 172.004 137.626 170.593 137.042L169.609 136.634L174.436 124.98L176.444 125.812L172.595 135.103C173.448 135.457 174.28 135.601 175.091 135.537C175.899 135.48 176.625 135.22 177.271 134.757C177.913 134.3 178.409 133.652 178.757 132.812C179.14 131.887 179.242 130.991 179.062 130.125C178.887 129.268 178.51 128.509 177.931 127.846C177.352 127.184 176.646 126.68 175.812 126.335L174.474 125.78C173.332 125.307 172.283 125.103 171.326 125.168C170.373 125.242 169.542 125.548 168.836 126.085C168.135 126.625 167.591 127.365 167.202 128.303C166.949 128.913 166.806 129.5 166.773 130.063C166.744 130.635 166.828 131.173 167.026 131.678C167.231 132.186 167.555 132.647 167.999 133.061L166.439 135.044C165.776 134.493 165.271 133.818 164.925 133.021C164.585 132.227 164.424 131.353 164.442 130.4C164.467 129.449 164.691 128.462 165.115 127.439Z" fill="black"/>
<path d="M159.965 154.366L153.004 147.405L154.782 145.627L166.353 157.198L164.635 158.916L162.827 157.108L162.677 157.258C162.993 158.117 163.053 159.001 162.857 159.91C162.667 160.824 162.134 161.718 161.26 162.592C160.477 163.375 159.631 163.9 158.722 164.166C157.818 164.437 156.879 164.412 155.904 164.091C154.935 163.774 153.958 163.124 152.974 162.14L145.622 154.787L147.4 153.01L154.631 160.241C155.54 161.15 156.484 161.623 157.464 161.658C158.448 161.698 159.352 161.306 160.176 160.483C160.743 159.915 161.127 159.285 161.328 158.592C161.524 157.904 161.514 157.196 161.298 156.467C161.082 155.739 160.638 155.039 159.965 154.366ZM165.479 160.844L166.925 159.518C167.694 160.287 168.103 161.133 168.153 162.057C168.203 162.991 167.905 163.782 167.257 164.43C166.971 164.716 166.667 164.92 166.345 165.04C166.029 165.166 165.707 165.266 165.381 165.341C165.055 165.417 164.736 165.51 164.424 165.62C164.113 165.741 163.822 165.936 163.55 166.208C163.264 166.494 163.134 166.845 163.159 167.262C163.184 167.689 163.355 168.061 163.671 168.377L162.195 169.613C161.411 168.829 161.009 167.985 160.989 167.082C160.964 166.183 161.275 165.409 161.923 164.761C162.27 164.415 162.604 164.176 162.925 164.046C163.252 163.92 163.566 163.832 163.867 163.782C164.168 163.732 164.464 163.656 164.756 163.556C165.052 163.461 165.343 163.27 165.63 162.984C165.916 162.697 166.041 162.346 166.006 161.929C165.971 161.522 165.795 161.16 165.479 160.844Z" fill="black"/>
<path d="M127.041 165.28C128.406 164.715 129.738 164.543 131.037 164.766C132.33 164.992 133.507 165.569 134.568 166.498C135.623 167.429 136.474 168.676 137.121 170.238C137.773 171.812 138.057 173.305 137.972 174.716C137.882 176.13 137.459 177.374 136.704 178.447C135.943 179.524 134.88 180.344 133.515 180.91C132.151 181.475 130.822 181.645 129.529 181.419C128.23 181.196 127.052 180.616 125.994 179.678C124.93 178.743 124.072 177.488 123.42 175.913C122.773 174.351 122.496 172.867 122.59 171.459C122.677 170.055 123.101 168.815 123.862 167.738C124.617 166.665 125.676 165.845 127.041 165.28ZM127.906 167.367C126.869 167.796 126.126 168.415 125.677 169.224C125.228 170.033 125.022 170.937 125.059 171.936C125.096 172.935 125.324 173.94 125.743 174.951C126.161 175.961 126.712 176.836 127.395 177.576C128.078 178.315 128.866 178.815 129.758 179.076C130.65 179.337 131.614 179.253 132.651 178.823C133.688 178.394 134.429 177.771 134.876 176.956C135.322 176.141 135.525 175.23 135.485 174.224C135.446 173.219 135.216 172.21 134.798 171.2C134.379 170.189 133.83 169.318 133.149 168.585C132.469 167.852 131.684 167.358 130.795 167.104C129.905 166.85 128.942 166.937 127.906 167.367Z" fill="black"/>
</svg>
