<svg width="178" height="180" viewBox="0 0 178 180" fill="none" xmlns="http://www.w3.org/2000/svg">
<path d="M64.947 160.212L55.4805 179.87L43.6169 174.156L44.6338 172.045L54.117 176.612L57.3156 169.97L48.4467 165.699L49.4636 163.587L58.3326 167.858L61.5497 161.177L51.9129 156.537L52.9298 154.425L64.947 160.212Z" fill="black"/>
<path d="M29.3183 147.001L37.0144 140.863L38.582 142.829L25.7884 153.031L24.274 151.132L26.273 149.538L26.1401 149.372C25.2513 149.59 24.3663 149.551 23.4849 149.254C22.598 148.962 21.7693 148.333 20.9988 147.367C20.308 146.501 19.8812 145.601 19.7185 144.668C19.5502 143.739 19.6803 142.809 20.1088 141.877C20.5317 140.949 21.2874 140.051 22.3757 139.183L30.505 132.701L32.0726 134.666L24.0766 141.043C23.0715 141.844 22.4967 142.73 22.3521 143.699C22.202 144.672 22.49 145.615 23.2163 146.525C23.7166 147.153 24.2999 147.605 24.9661 147.882C25.6279 148.154 26.3327 148.223 27.0805 148.09C27.8283 147.957 28.5742 147.594 29.3183 147.001Z" fill="black"/>
<path d="M3.88853 108.584L5.96579 108.11L7.85279 116.377L5.77553 116.851L3.88853 108.584ZM1.40339 115.314L0.843925 112.863L16.0495 109.392C16.7419 109.234 17.2383 109.015 17.5387 108.736C17.8306 108.45 17.999 108.135 18.044 107.79C18.0805 107.439 18.0577 107.084 17.9755 106.724C17.9139 106.454 17.8494 106.235 17.7822 106.068C17.7081 105.903 17.6488 105.771 17.6043 105.672L19.6924 104.671C19.7927 104.823 19.9079 105.04 20.0382 105.324C20.1754 105.606 20.2962 105.975 20.4005 106.432C20.5585 107.125 20.5645 107.837 20.4185 108.57C20.2709 109.296 19.9422 109.946 19.4324 110.522C18.9211 111.09 18.2015 111.48 17.2737 111.692L1.40339 115.314Z" fill="black"/>
<path d="M21.2645 77.3562C20.9137 78.8934 20.2718 80.142 19.3387 81.1019C18.4004 82.0533 17.2497 82.6903 15.8866 83.013C14.5182 83.3272 13.0169 83.2978 11.3828 82.9248C9.74866 82.5518 8.37639 81.9254 7.26594 81.0454C6.15016 80.157 5.36507 79.0963 4.91069 77.8634C4.45097 76.622 4.38547 75.2812 4.71419 73.841C4.90384 73.0101 5.2296 72.2212 5.69148 71.4743C6.15335 70.7273 6.77174 70.0926 7.54664 69.5702C8.31461 69.0461 9.25256 68.7029 10.3605 68.5405C11.4684 68.3782 12.7668 68.4669 14.2555 68.8067L15.2941 69.0437L12.4873 81.3411L10.3685 80.8575L12.6064 71.0528C11.7062 70.8474 10.8619 70.8441 10.0735 71.0429C9.28659 71.2349 8.61382 71.6131 8.05515 72.1777C7.49807 72.7353 7.11838 73.4573 6.91609 74.3436C6.69325 75.3199 6.74279 76.2199 7.0647 77.0438C7.38127 77.8591 7.88038 78.5449 8.56205 79.1011C9.24371 79.6574 10.0242 80.0359 10.9036 80.2366L12.3161 80.559C13.521 80.834 14.5897 80.8594 15.5223 80.6351C16.4497 80.4024 17.2168 79.9619 17.8237 79.3137C18.4237 78.6638 18.8366 77.8438 19.0626 76.8537C19.2096 76.2097 19.2524 75.6076 19.1909 75.0471C19.124 74.4782 18.9506 73.9615 18.6705 73.4969C18.3835 73.0307 17.9868 72.6306 17.4802 72.2964L18.6855 70.08C19.4318 70.5126 20.0424 71.0927 20.5174 71.8204C20.9855 72.5464 21.2904 73.3809 21.4321 74.3239C21.5669 75.2653 21.5111 76.2761 21.2645 77.3562Z" fill="black"/>
<path d="M24.3814 46.1901L32.0776 52.3275L30.51 54.2932L17.7164 44.0907L19.2308 42.1916L21.2298 43.7858L21.3627 43.6192C20.9521 42.8012 20.7933 41.9297 20.8861 41.0045C20.9734 40.0748 21.4023 39.1269 22.1728 38.1607C22.8636 37.2945 23.6458 36.6782 24.5193 36.312C25.3872 35.9413 26.3232 35.8611 27.3273 36.0714C28.3259 36.2773 29.3694 36.8142 30.4578 37.6821L38.587 44.165L37.0194 46.1306L29.0234 39.754C28.0184 38.9525 27.0273 38.5891 26.0502 38.6639C25.0676 38.7341 24.2132 39.2246 23.4869 40.1353C22.9866 40.7627 22.6754 41.4321 22.5533 42.1432C22.4357 42.8489 22.525 43.5514 22.8211 44.2508C23.1173 44.9503 23.6373 45.5967 24.3814 46.1901Z" fill="black"/>
<path d="M59.095 29.9843C57.8664 30.5759 56.6324 30.7879 55.3928 30.6202C54.1502 30.4461 52.989 29.9174 51.9094 29.0342C50.8267 28.1445 49.9094 26.9191 49.1575 25.3577C48.4118 23.8092 48.0302 22.3375 48.0128 20.9427C47.9954 19.548 48.3107 18.3122 48.9589 17.2354C49.607 16.1587 50.5518 15.3214 51.7931 14.7235C52.753 14.2613 53.5883 14.0561 54.2991 14.108C55.0132 14.1503 55.6145 14.3022 56.103 14.5636C56.5948 14.8155 56.9855 15.0294 57.2751 15.2052L57.4671 15.1127L53.9726 7.85636L56.2378 6.76549L65.7044 26.423L63.516 27.4769L62.4251 25.2117L62.1563 25.3411C62.1194 25.69 62.0459 26.1431 61.936 26.7006C61.823 27.2516 61.5588 27.8242 61.1434 28.4185C60.7248 29.0063 60.0421 29.5282 59.095 29.9843ZM58.4222 27.8015C59.3309 27.3639 59.9847 26.7574 60.3838 25.9819C60.7798 25.1999 60.9376 24.3081 60.8571 23.3063C60.7736 22.298 60.4638 21.2372 59.9276 20.1238C59.3976 19.0232 58.7738 18.1372 58.0564 17.4658C57.3358 16.788 56.551 16.3698 55.7021 16.211C54.85 16.0459 53.9633 16.1852 53.0418 16.629C52.082 17.0912 51.4008 17.7228 50.9982 18.5236C50.5989 19.315 50.4411 20.2069 50.5248 21.1992C50.6119 22.1821 50.905 23.1918 51.4042 24.2285C51.9096 25.2779 52.5287 26.1543 53.2616 26.8577C53.9978 27.5516 54.8044 27.9987 55.6813 28.1992C56.5616 28.3901 57.4752 28.2576 58.4222 27.8015Z" fill="black"/>
<path d="M88.7975 22.5V6.13636L91.3117 6.13636V22.5H88.7975ZM90.0759 3.40909C89.5858 3.40909 89.1633 3.24219 88.8082 2.90838C88.4601 2.57457 88.2861 2.1733 88.2861 1.70455C88.2861 1.2358 88.4601 0.834517 88.8082 0.50071C89.1633 0.166903 89.5858 0 90.0759 0C90.566 0 90.985 0.166903 91.333 0.50071C91.6881 0.834517 91.8657 1.2358 91.8657 1.70455C91.8657 2.1733 91.6881 2.57457 91.333 2.90838C90.985 3.24219 90.566 3.40909 90.0759 3.40909Z" fill="black"/>
<path d="M111.639 25.09L118.739 10.3469L120.928 11.4008L119.818 13.7044L120.01 13.7968C120.697 13.1577 121.487 12.7854 122.381 12.68C123.278 12.5682 124.207 12.7434 125.167 13.2057C126.139 13.674 126.843 14.2846 127.276 15.0374C127.719 15.7868 127.934 16.6429 127.919 17.6056L128.073 17.6796C128.817 17.0999 129.675 16.768 130.646 16.6837C131.619 16.593 132.634 16.8018 133.69 17.3103C135.008 17.9451 135.888 18.8771 136.328 20.1062C136.772 21.329 136.577 22.8074 135.742 24.5415L130.99 34.4086L128.725 33.3178L133.476 23.4506C134 22.3628 134.077 21.442 133.707 20.6883C133.337 19.9346 132.749 19.3636 131.942 18.9754C130.906 18.4762 129.952 18.403 129.08 18.7558C128.212 19.1022 127.548 19.7522 127.089 20.7056L122.466 30.304L120.163 29.1946L125.025 19.0971C125.429 18.2589 125.482 17.4528 125.185 16.679C124.891 15.8987 124.315 15.3021 123.457 14.8892C122.869 14.6057 122.243 14.4975 121.58 14.5645C120.923 14.6346 120.304 14.8725 119.723 15.2782C119.15 15.6806 118.69 16.2433 118.342 16.9664L113.905 26.1809L111.639 25.09Z" fill="black"/>
<path d="M144.781 48.2483L157.575 38.0458L159.143 40.0115L146.349 50.214L144.781 48.2483ZM160.504 37.3448C160.199 36.9617 160.066 36.5272 160.105 36.0415C160.149 35.5613 160.355 35.175 160.721 34.8828C161.088 34.5905 161.51 34.4764 161.988 34.5403C162.47 34.6098 162.864 34.8362 163.17 35.2193C163.475 35.6024 163.606 36.0341 163.562 36.5143C163.522 37.0001 163.319 37.3891 162.953 37.6814C162.586 37.9736 162.162 38.085 161.68 38.0155C161.202 37.9515 160.81 37.728 160.504 37.3448Z" fill="black"/>
<path d="M159.04 78.1975C158.689 76.6603 158.725 75.2569 159.15 73.9872C159.582 72.7229 160.343 71.6497 161.431 70.7675C162.527 69.8907 163.893 69.2659 165.527 68.8929C167.161 68.5199 168.669 68.4889 170.051 68.7999C171.442 69.1163 172.61 69.7313 173.554 70.6449C174.507 71.5639 175.147 72.7435 175.476 74.1837C175.666 75.0146 175.715 75.8668 175.623 76.7401C175.53 77.6135 175.249 78.4536 174.777 79.2606C174.313 80.0659 173.617 80.7821 172.689 81.4091C171.761 82.0361 170.553 82.5195 169.064 82.8593L168.025 83.0964L165.219 70.799L167.337 70.3154L169.575 80.1201C170.475 79.9146 171.238 79.5512 171.862 79.03C172.487 78.5157 172.929 77.883 173.188 77.1319C173.448 76.3878 173.477 75.5726 173.274 74.6863C173.051 73.71 172.616 72.9205 171.969 72.318C171.33 71.7208 170.583 71.3194 169.727 71.114C168.872 70.9086 168.004 70.9063 167.125 71.107L165.712 71.4294C164.507 71.7044 163.533 72.1452 162.79 72.7519C162.056 73.3639 161.556 74.0936 161.29 74.941C161.032 75.7868 161.015 76.7048 161.241 77.6949C161.388 78.3389 161.611 78.9 161.91 79.3782C162.217 79.8618 162.597 80.2521 163.051 80.5492C163.512 80.8447 164.043 81.0331 164.645 81.1143L164.52 83.6341C163.66 83.5682 162.858 83.3105 162.115 82.861C161.378 82.4099 160.741 81.7904 160.204 81.0023C159.674 80.2126 159.286 79.2777 159.04 78.1975Z" fill="black"/>
<path d="M169.754 107.63L160.157 105.439L160.716 102.988L176.67 106.629L176.129 108.997L173.637 108.428L173.589 108.636C174.314 109.195 174.835 109.911 175.153 110.785C175.478 111.661 175.502 112.701 175.227 113.906C174.981 114.986 174.544 115.88 173.916 116.589C173.294 117.3 172.486 117.778 171.49 118.024C170.501 118.272 169.328 118.241 167.971 117.931L157.834 115.618L158.393 113.167L168.364 115.442C169.617 115.728 170.668 115.626 171.516 115.135C172.371 114.645 172.928 113.832 173.187 112.697C173.365 111.914 173.355 111.176 173.157 110.483C172.957 109.796 172.571 109.202 172.001 108.7C171.431 108.198 170.682 107.841 169.754 107.63Z" fill="black"/>
<path d="M155.574 151.464L153.908 150.135L159.195 143.505L160.861 144.834L155.574 151.464ZM162.385 149.211L160.817 151.176L148.624 141.452C148.068 141.009 147.588 140.758 147.182 140.697C146.777 140.647 146.425 140.712 146.127 140.892C145.83 141.082 145.566 141.321 145.336 141.61C145.163 141.827 145.033 142.013 144.944 142.17C144.861 142.331 144.795 142.459 144.745 142.556L142.661 141.548C142.717 141.375 142.815 141.149 142.956 140.87C143.091 140.587 143.304 140.262 143.596 139.896C144.039 139.34 144.593 138.891 145.257 138.549C145.916 138.212 146.63 138.063 147.397 138.103C148.16 138.148 148.914 138.468 149.658 139.061L162.385 149.211Z" fill="black"/>
<path d="M120.715 157.161C122.046 156.52 123.366 156.274 124.676 156.424C125.979 156.577 127.187 157.087 128.299 157.955C129.404 158.826 130.323 160.023 131.056 161.546C131.796 163.082 132.163 164.556 132.158 165.97C132.147 167.386 131.794 168.652 131.101 169.766C130.402 170.883 129.386 171.762 128.055 172.403C126.724 173.044 125.407 173.288 124.104 173.136C122.794 172.986 121.585 172.472 120.477 171.595C119.362 170.721 118.435 169.516 117.695 167.98C116.962 166.457 116.603 164.991 116.617 163.58C116.625 162.173 116.979 160.911 117.679 159.794C118.372 158.68 119.384 157.802 120.715 157.161ZM121.695 159.196C120.684 159.683 119.977 160.343 119.574 161.175C119.171 162.008 119.016 162.922 119.109 163.918C119.202 164.913 119.486 165.904 119.961 166.889C120.435 167.875 121.034 168.717 121.758 169.418C122.481 170.118 123.295 170.573 124.201 170.783C125.106 170.994 126.064 170.855 127.075 170.368C128.086 169.882 128.792 169.219 129.192 168.38C129.592 167.541 129.744 166.62 129.648 165.618C129.551 164.616 129.266 163.622 128.791 162.637C128.317 161.651 127.719 160.812 126.999 160.118C126.279 159.424 125.467 158.976 124.565 158.772C123.663 158.568 122.706 158.709 121.695 159.196Z" fill="black"/>
</svg>
