<svg width="199" height="200" viewBox="0 0 199 200" fill="none" xmlns="http://www.w3.org/2000/svg">
<path d="M73.4607 166.266L63.9942 185.924L61.6138 184.778L70.0634 167.232L60.9258 162.831L61.9427 160.72L73.4607 166.266Z" fill="black"/>
<path d="M44.8064 144.682C45.4529 145.493 45.8869 146.35 46.1085 147.255C46.3245 148.163 46.2959 149.045 46.0229 149.898C45.7442 150.756 45.1885 151.517 44.3556 152.182C43.6226 152.766 42.9133 153.096 42.2277 153.17C41.5366 153.249 40.8679 153.151 40.2217 152.876C39.5754 152.601 38.956 152.223 38.3633 151.741C37.7606 151.259 37.1835 150.752 36.632 150.22C35.9121 149.522 35.3345 148.952 34.8993 148.508C34.4541 148.064 34.079 147.782 33.7742 147.661C33.4649 147.536 33.152 147.599 32.8355 147.851L32.7689 147.904C31.9471 148.56 31.4879 149.294 31.3912 150.107C31.2902 150.914 31.6005 151.77 32.3223 152.676C33.0707 153.614 33.8629 154.186 34.6989 154.391C35.5349 154.597 36.2725 154.622 36.9116 154.466L37.7331 156.863C36.6901 157.15 35.7305 157.189 34.8546 156.979C33.9687 156.768 33.1762 156.4 32.4771 155.877C31.768 155.352 31.1566 154.768 30.643 154.124C30.3153 153.713 29.9889 153.201 29.6637 152.588C29.3286 151.974 29.1117 151.298 29.013 150.559C28.9099 149.815 29.0281 149.035 29.3676 148.219C29.7072 147.403 30.3851 146.59 31.4012 145.779L39.8303 139.057L41.3979 141.023L39.6655 142.405L39.7452 142.505C40.1291 142.416 40.6033 142.402 41.1678 142.46C41.7323 142.519 42.3315 142.718 42.9654 143.057C43.5993 143.396 44.213 143.938 44.8064 144.682ZM42.8015 145.79C42.1815 145.013 41.5063 144.479 40.7758 144.19C40.0408 143.895 39.3233 143.804 38.6233 143.917C37.9188 144.025 37.3 144.291 36.7669 144.716L34.9678 146.151C35.1342 146.155 35.3719 146.265 35.6811 146.481C35.9802 146.697 36.3065 146.964 36.6598 147.282C37.0032 147.598 37.3343 147.911 37.6533 148.22C37.9623 148.528 38.2148 148.776 38.4108 148.965C38.8849 149.422 39.374 149.814 39.8781 150.138C40.3723 150.462 40.8751 150.642 41.3864 150.68C41.8877 150.716 42.3882 150.535 42.8879 150.136C43.5709 149.592 43.8858 148.927 43.8327 148.143C43.7696 147.357 43.4258 146.573 42.8015 145.79Z" fill="black"/>
<path d="M30.704 83.8562C30.3531 85.3934 29.7112 86.642 28.7782 87.6019C27.8398 88.5533 26.6891 89.1903 25.326 89.513C23.9576 89.8272 22.4563 89.7978 20.8222 89.4248C19.1881 89.0518 17.8158 88.4254 16.7054 87.5454C15.5896 86.657 14.8045 85.5963 14.3501 84.3634C13.8904 83.122 13.8249 81.7812 14.1536 80.341C14.3433 79.5101 14.669 78.7212 15.1309 77.9743C15.5928 77.2273 16.2112 76.5926 16.9861 76.0702C17.754 75.5461 18.692 75.2029 19.7999 75.0405C20.9079 74.8782 22.2062 74.9669 23.6949 75.3067L24.7335 75.5437L21.9267 87.8411L19.8079 87.3575L22.0458 77.5528C21.1456 77.3474 20.3013 77.3441 19.5129 77.5429C18.726 77.7349 18.0533 78.1131 17.4946 78.6777C16.9375 79.2353 16.5578 79.9573 16.3555 80.8436C16.1327 81.8199 16.1822 82.7199 16.5041 83.5438C16.8207 84.3591 17.3198 85.0449 18.0015 85.6011C18.6831 86.1574 19.4637 86.5359 20.343 86.7366L21.7556 87.059C22.9604 87.334 24.0291 87.3594 24.9618 87.1351C25.8891 86.9024 26.6562 86.4619 27.2631 85.8137C27.8631 85.1638 28.2761 84.3438 28.5021 83.3537C28.6491 82.7097 28.6918 82.1075 28.6303 81.5471C28.5634 80.9782 28.39 80.4615 28.1099 79.9969C27.823 79.5307 27.4262 79.1305 26.9197 78.7964L28.1249 76.58C28.8712 77.0126 29.4819 77.5927 29.9569 78.3204C30.4249 79.0464 30.7298 79.8809 30.8716 80.8239C31.0064 81.7653 30.9505 82.7761 30.704 83.8562Z" fill="black"/>
<path d="M37.8324 43.0805L36.924 45.2448C36.5412 45.1212 36.1246 45.0569 35.6742 45.0521C35.2228 45.0372 34.7593 45.14 34.2838 45.3604C33.8083 45.5807 33.3425 45.9769 32.8864 46.5488C32.262 47.3317 31.9221 48.1281 31.8668 48.9379C31.8104 49.7377 32.057 50.3568 32.6067 50.7952C33.0954 51.1849 33.623 51.315 34.1896 51.1854C34.7562 51.0559 35.435 50.6888 36.226 50.0842L38.2069 48.5571C39.3968 47.6346 40.5013 47.121 41.5205 47.0163C42.5341 46.9071 43.4879 47.209 44.3819 47.922C45.1149 48.5065 45.6018 49.24 45.8428 50.1226C46.0882 50.9996 46.0785 51.9457 45.8139 52.961C45.5492 53.9764 45.0206 54.981 44.228 55.9749C43.1873 57.2798 42.0428 58.134 40.7945 58.5375C39.5462 58.9409 38.2871 58.8225 37.0172 58.1823L38.0386 55.9446C38.8689 56.316 39.6532 56.3918 40.3916 56.1722C41.1344 55.947 41.8268 55.4318 42.4689 54.6267C43.1996 53.7104 43.5853 52.828 43.6262 51.9795C43.6659 51.1209 43.4109 50.4724 42.8611 50.034C42.4169 49.6798 41.9209 49.5385 41.3731 49.6104C40.8197 49.6778 40.2112 49.9738 39.5476 50.4983L37.3474 52.2321C36.1354 53.1823 35.0187 53.6998 33.9973 53.7845C32.9747 53.8593 32.022 53.5447 31.1391 52.8406C30.4172 52.2649 29.9403 51.553 29.7083 50.7048C29.4807 49.8511 29.4898 48.9454 29.7357 47.9878C29.986 47.0247 30.4698 46.0933 31.1872 45.1938C32.1968 43.9277 33.2671 43.1552 34.3981 42.8761C35.5334 42.5916 36.6782 42.6597 37.8324 43.0805Z" fill="black"/>
<path d="M65.6157 19.3493L66.5402 21.269L58.8999 24.9484L57.9754 23.0287L65.6157 19.3493ZM58.5012 18.4241L60.7664 17.3332L67.5336 31.3853C67.8417 32.0252 68.1656 32.4604 68.5053 32.691C68.8482 32.9121 69.1931 33.0061 69.5398 32.9732C69.8899 32.9307 70.2313 32.8294 70.564 32.6691C70.8136 32.5489 71.0122 32.4375 71.1598 32.3349C71.3044 32.2259 71.42 32.1386 71.5068 32.0732L72.9474 33.8862C72.8216 34.0178 72.635 34.1786 72.3875 34.3687C72.1432 34.5652 71.8099 34.7651 71.3875 34.9685C70.7476 35.2767 70.0543 35.4411 69.3075 35.4617C68.5671 35.4793 67.8597 35.3037 67.1854 34.9347C66.5175 34.5626 65.9771 33.9479 65.5642 33.0904L58.5012 18.4241Z" fill="black"/>
<path d="M96.2156 29V12.6364L98.6445 12.6364V15.108H98.815C99.1133 14.2983 99.6531 13.6413 100.434 13.1371C101.216 12.6328 102.096 12.3807 103.076 12.3807C103.261 12.3807 103.492 12.3842 103.769 12.3913C104.046 12.3984 104.255 12.4091 104.397 12.4233V14.9801C104.312 14.9588 104.117 14.9268 103.811 14.8842C103.513 14.8345 103.197 14.8097 102.863 14.8097C102.068 14.8097 101.358 14.9766 100.733 15.3104C100.115 15.6371 99.6247 16.0916 99.2624 16.674C98.9073 17.2493 98.7298 17.9062 98.7298 18.6449V29H96.2156Z" fill="black"/>
<path d="M129.382 36.0142C128.448 35.5643 127.685 34.98 127.093 34.2614C126.504 33.5363 126.147 32.73 126.023 31.8424C125.901 30.9484 126.072 30.0215 126.534 29.0616C126.941 28.217 127.437 27.6124 128.022 27.248C128.611 26.8771 129.256 26.6753 129.958 26.6427C130.659 26.61 131.381 26.6819 132.124 26.8583C132.876 27.0313 133.616 27.2379 134.344 27.4781C135.295 27.7943 136.063 28.0577 136.648 28.2682C137.242 28.4754 137.702 28.567 138.029 28.5431C138.362 28.5223 138.617 28.3295 138.792 27.9648L138.829 27.888C139.285 26.9409 139.38 26.0803 139.115 25.3059C138.856 24.5347 138.204 23.8979 137.161 23.3956C136.08 22.8749 135.118 22.7033 134.276 22.881C133.433 23.0587 132.758 23.3562 132.25 23.7735L130.469 21.9703C131.285 21.2593 132.133 20.8083 133.013 20.6174C133.903 20.4231 134.776 20.4101 135.633 20.5785C136.499 20.7435 137.304 21.0047 138.046 21.3622C138.52 21.5902 139.036 21.9098 139.595 22.3208C140.163 22.7285 140.652 23.2437 141.061 23.8666C141.477 24.4926 141.709 25.2468 141.757 26.1291C141.805 27.0115 141.547 28.0382 140.983 29.2092L136.306 38.9228L134.04 37.8319L135.002 35.8354L134.887 35.78C134.579 36.026 134.158 36.245 133.624 36.4372C133.09 36.6294 132.464 36.7102 131.746 36.6795C131.027 36.6489 130.239 36.4271 129.382 36.0142ZM130.707 34.1457C131.603 34.5772 132.443 34.7648 133.227 34.7087C134.017 34.6557 134.703 34.4263 135.285 34.0206C135.873 33.618 136.315 33.1095 136.61 32.4952L137.609 30.4219C137.457 30.4909 137.195 30.4948 136.823 30.4336C136.46 30.3691 136.05 30.2704 135.594 30.1374C135.147 30.0011 134.713 29.863 134.292 29.7231C133.88 29.5799 133.545 29.4658 133.286 29.3807C132.66 29.174 132.05 29.0337 131.455 28.96C130.869 28.8829 130.338 28.9385 129.861 29.1266C129.394 29.3114 129.021 29.6918 128.744 30.2677C128.365 31.0548 128.369 31.7901 128.758 32.4736C129.155 33.1539 129.805 33.7112 130.707 34.1457Z" fill="black"/>
<path d="M170.585 49.0232L168.919 50.3517L163.632 43.7217L165.298 42.3932L170.585 49.0232ZM169.904 41.8812L171.472 43.8469L159.278 53.5712C158.722 54.014 158.37 54.4266 158.221 54.8091C158.082 55.1927 158.067 55.5498 158.176 55.8805C158.295 56.2123 158.47 56.5226 158.7 56.8114C158.873 57.0279 159.026 57.1968 159.159 57.3179C159.297 57.4345 159.408 57.5279 159.491 57.5979L158.044 59.4059C157.888 59.3124 157.69 59.1663 157.449 58.9674C157.203 58.7729 156.934 58.4924 156.642 58.1259C156.199 57.5706 155.884 56.9312 155.698 56.2078C155.516 55.4898 155.53 54.7611 155.74 54.0216C155.954 53.2877 156.433 52.624 157.177 52.0306L169.904 41.8812Z" fill="black"/>
<path d="M168.479 84.6975C168.128 83.1604 168.165 81.7569 168.589 80.4873C169.022 79.2229 169.782 78.1497 170.87 77.2676C171.967 76.3908 173.332 75.7659 174.966 75.3929C176.6 75.0199 178.108 74.9889 179.491 75.3C180.881 75.6163 182.049 76.2313 182.993 77.1449C183.946 78.0639 184.587 79.2435 184.916 80.6837C185.105 81.5146 185.154 82.3668 185.062 83.2401C184.97 84.1135 184.688 84.9536 184.217 85.7606C183.752 86.566 183.056 87.2822 182.128 87.9092C181.2 88.5361 179.992 89.0195 178.503 89.3593L177.465 89.5964L174.658 77.299L176.777 76.8154L179.015 86.6201C179.915 86.4146 180.677 86.0513 181.301 85.53C181.927 85.0157 182.369 84.383 182.627 83.6319C182.887 82.8878 182.916 82.0726 182.714 81.1863C182.491 80.21 182.056 79.4206 181.408 78.818C180.769 78.2208 180.022 77.8195 179.166 77.6141C178.311 77.4086 177.444 77.4063 176.564 77.607L175.152 77.9294C173.947 78.2044 172.973 78.6452 172.23 79.2519C171.495 79.8639 170.995 80.5936 170.73 81.441C170.471 82.2868 170.455 83.2048 170.681 84.195C170.828 84.8389 171.051 85.4 171.349 85.8782C171.656 86.3618 172.037 86.7521 172.491 87.0492C172.952 87.3447 173.483 87.5331 174.084 87.6144L173.96 90.1342C173.1 90.0682 172.298 89.8105 171.554 89.361C170.817 88.91 170.181 88.2904 169.644 87.5023C169.114 86.7126 168.726 85.7777 168.479 84.6975Z" fill="black"/>
<path d="M162.341 114.617C162.612 113.433 162.996 112.449 163.495 111.667C163.987 110.884 164.544 110.264 165.165 109.808C165.778 109.358 166.399 109.03 167.029 108.824L167.954 111.09C167.613 111.245 167.217 111.449 166.765 111.703C166.307 111.956 165.872 112.345 165.461 112.87C165.041 113.401 164.721 114.147 164.502 115.11C164.208 116.398 164.277 117.532 164.709 118.512C165.141 119.492 166.021 120.133 167.351 120.437L170.591 121.177L170.639 120.969C170.389 120.722 170.087 120.384 169.734 119.954C169.386 119.532 169.116 118.975 168.924 118.283C168.738 117.599 168.763 116.738 169 115.699C169.294 114.411 169.863 113.325 170.706 112.439C171.548 111.56 172.618 110.956 173.917 110.626C175.215 110.303 176.695 110.331 178.356 110.71C179.991 111.083 181.348 111.695 182.429 112.547C183.516 113.399 184.275 114.414 184.706 115.591C185.144 116.769 185.209 118.029 184.903 119.373C184.666 120.411 184.304 121.196 183.819 121.726C183.339 122.265 182.844 122.647 182.334 122.873C181.828 123.108 181.417 123.283 181.099 123.4L181.042 123.649L183.576 124.228L183.036 126.596L166.625 122.85C165.254 122.537 164.211 121.971 163.494 121.152C162.769 120.338 162.325 119.363 162.162 118.225C161.991 117.094 162.051 115.891 162.341 114.617ZM171.126 116.534C170.902 117.518 170.937 118.4 171.233 119.181C171.528 119.962 172.057 120.626 172.822 121.172C173.586 121.718 174.556 122.125 175.733 122.394C176.883 122.656 177.937 122.715 178.895 122.569C179.854 122.424 180.659 122.069 181.313 121.504C181.966 120.939 182.407 120.158 182.634 119.161C182.871 118.122 182.806 117.197 182.438 116.384C182.068 115.579 181.479 114.902 180.672 114.353C179.863 113.811 178.919 113.417 177.839 113.171C176.731 112.918 175.711 112.867 174.781 113.019C173.855 113.18 173.072 113.547 172.431 114.122C171.795 114.705 171.36 115.51 171.126 116.534Z" fill="black"/>
<path d="M155.79 143.284L168.584 153.486L167.016 155.452L154.223 145.25L155.79 143.284ZM169.919 156.186C170.224 155.803 170.618 155.577 171.101 155.507C171.579 155.443 172.001 155.558 172.368 155.85C172.734 156.142 172.939 156.528 172.983 157.009C173.023 157.494 172.89 157.929 172.584 158.312C172.279 158.695 171.887 158.919 171.409 158.983C170.927 159.052 170.502 158.941 170.136 158.648C169.769 158.356 169.566 157.967 169.527 157.481C169.483 157.001 169.613 156.57 169.919 156.186Z" fill="black"/>
<path d="M130.888 163.261C131.822 162.811 132.755 162.578 133.685 162.564C134.62 162.555 135.472 162.779 136.244 163.235C137.018 163.698 137.637 164.409 138.099 165.369C138.506 166.214 138.669 166.978 138.589 167.663C138.512 168.355 138.268 168.985 137.856 169.554C137.444 170.123 136.937 170.642 136.336 171.113C135.732 171.593 135.109 172.043 134.468 172.462C133.627 173.009 132.943 173.445 132.414 173.771C131.881 174.106 131.523 174.409 131.338 174.679C131.146 174.953 131.138 175.272 131.314 175.637L131.351 175.713C131.807 176.66 132.42 177.272 133.191 177.547C133.956 177.825 134.86 177.713 135.903 177.21C136.984 176.69 137.718 176.045 138.104 175.275C138.491 174.506 138.679 173.792 138.67 173.135L141.19 172.867C141.237 173.948 141.061 174.892 140.662 175.699C140.259 176.516 139.724 177.207 139.058 177.772C138.389 178.347 137.683 178.813 136.941 179.17C136.468 179.398 135.896 179.602 135.226 179.783C134.553 179.973 133.845 180.034 133.103 179.966C132.354 179.901 131.62 179.612 130.9 179.099C130.18 178.587 129.539 177.745 128.975 176.574L124.297 166.86L126.562 165.769L127.523 167.766L127.639 167.71C127.638 167.317 127.729 166.851 127.912 166.314C128.095 165.776 128.422 165.236 128.894 164.694C129.366 164.151 130.03 163.674 130.888 163.261ZM131.522 165.462C130.626 165.893 129.956 166.433 129.511 167.081C129.06 167.732 128.812 168.411 128.766 169.119C128.714 169.829 128.836 170.492 129.132 171.106L130.13 173.179C130.171 173.018 130.331 172.811 130.611 172.558C130.888 172.314 131.221 172.055 131.609 171.781C131.994 171.517 132.373 171.264 132.745 171.022C133.114 170.789 133.412 170.598 133.64 170.449C134.192 170.089 134.682 169.699 135.111 169.28C135.536 168.87 135.824 168.42 135.974 167.93C136.121 167.449 136.056 166.921 135.778 166.345C135.399 165.558 134.822 165.103 134.045 164.98C133.265 164.867 132.424 165.027 131.522 165.462Z" fill="black"/>
</svg>
