<svg width="1262" height="763" viewBox="0 0 1262 763" fill="none" xmlns="http://www.w3.org/2000/svg">
<g clip-path="url(#clip0_160_300)">
<path d="M1261.5 0.5H0.5V762.5H1261.5V0.5Z" stroke="black" stroke-opacity="0.3" stroke-miterlimit="10"/>
<path d="M0.5 703.88H124.99C136.31 703.46 147.99 703.31 161.43 701.11C191.8 695.45 215.8 669.45 246.8 674.45C274.8 678.45 297.8 698.45 326.11 702C334.52 703.01 342.45 703.12 351.01 703.87H1261.5" stroke="black" stroke-opacity="0.3" stroke-miterlimit="10"/>
<path d="M0.5 645.27H93.91C142.8 644.46 185.8 618.46 232.8 604.46C237.8 603.46 241.8 603.46 246.8 604.46C289.8 615.46 326.8 638.46 370.83 643.31C379.17 643.57 390.65 644.98 399.48 645.26H1261.49" stroke="black" stroke-opacity="0.3" stroke-miterlimit="10"/>
<path d="M0.5 586.65H98.36C198.8 586.46 298.8 586.46 398.34 586.65H1261.5" stroke="black" stroke-opacity="0.3" stroke-miterlimit="10"/>
<path d="M0.5 528.04H80.43C88.8 528.04 101.64 529.64 111.03 529.75C155.8 534.47 193.8 564.47 237.8 566.47C281.8 569.47 318.8 536.47 362.92 531.15C373.72 529.44 381.95 529.08 391.95 528.04H882.54C931.8 527.46 981.8 526.46 1031.28 528.04H1261.5" stroke="black" stroke-opacity="0.3" stroke-miterlimit="10"/>
<path d="M0.5 469.42H139.75C169.81 469.46 196.81 484.46 223.81 497.46C236.81 503.46 250.81 500.46 262.81 495.46C284.81 484.46 305.81 472.46 330.64 470.6C337.86 470.55 345.96 469.6 353.49 469.42H759.18C773.54 469.08 788.34 468.19 802.15 468.07C842.81 467.46 881.81 453.46 920.81 440.46C946.81 432.46 972.81 430.46 999.81 436.46C1051.81 449.46 1098.81 470.46 1151.61 469.42H1261.51" stroke="black" stroke-opacity="0.3" stroke-miterlimit="10"/>
<path d="M0.5 410.81H716.74C781.8 413.47 843.8 392.47 904.8 369.47C931.8 359.47 958.8 350.47 988.8 357.47C1060.8 373.47 1122.8 408.47 1196.24 410.03C1210.37 410.42 1222.65 410.82 1232.13 410.82H1261.5" stroke="black" stroke-opacity="0.3" stroke-miterlimit="10"/>
<path d="M0.5 352.19H716.74C794.8 350.46 867.8 328.46 946.8 315.46C958.8 313.46 969.8 313.46 980.8 314.46C1053.8 322.46 1121.8 347.46 1193.54 350.94C1209.47 351.75 1222.65 352.19 1232.12 352.19H1261.49" stroke="black" stroke-opacity="0.3" stroke-miterlimit="10"/>
<path d="M0.5 293.58H716.74C888.8 288.47 1059.8 288.47 1232.13 293.58H1261.5" stroke="black" stroke-opacity="0.3" stroke-miterlimit="10"/>
<path d="M0.5 234.96H716.74C798.8 237.46 878.8 256.46 960.8 264.46C970.8 265.46 979.8 264.46 989.8 263.46C1071.8 253.46 1149.8 235.46 1232.13 234.96H1261.5" stroke="black" stroke-opacity="0.3" stroke-miterlimit="10"/>
<path d="M0.5 176.35H716.74C786.8 174.47 853.8 198.47 919.8 221.47C977.8 242.47 1033.8 214.47 1089.8 197.47C1125.8 187.47 1160.8 177.47 1197.36 176.48C1211.03 176.36 1222.65 176.35 1232.12 176.35H1261.49" stroke="black" stroke-opacity="0.3" stroke-miterlimit="10"/>
<path d="M0.5 117.73H759.17C774.05 118.56 788.43 119.02 803.9 120.96C858.8 127.47 905.8 157.47 961.8 164.47C973.8 165.47 984.8 163.47 996.8 160.47C1049.8 148.47 1095.8 121.47 1149.44 119.72C1166.29 119.72 1183.58 118.12 1197.55 117.74H1261.5" stroke="black" stroke-opacity="0.3" stroke-miterlimit="10"/>
<path d="M0.5 59.12H842.24C856.14 59.78 869.66 60 883.08 60.64C953.8 70.47 1024.8 61.47 1095.58 59.4C1115.76 59.26 1134.54 59.12 1151.6 59.12H1261.5" stroke="black" stroke-opacity="0.3" stroke-miterlimit="10"/>
<path d="M1201.45 0.5V151.57C1200.8 228.47 1196.8 304.47 1201.41 381.5C1201.42 395.11 1201.43 408.72 1201.45 422.26V762.51" stroke="black" stroke-opacity="0.3" stroke-miterlimit="10"/>
<path d="M1141.4 0.5V42.71C1141.4 56.04 1141.4 72.15 1141.26 90.55C1141.8 115.47 1136.8 138.47 1130.8 162.47C1115.8 216.47 1085.8 268.47 1103.8 325.47C1117.8 370.47 1136.8 412.47 1138.81 459.93C1138.81 473.06 1140.13 487.66 1141.4 502.09V762.5" stroke="black" stroke-opacity="0.3" stroke-miterlimit="10"/>
<path d="M1081.36 0.5V42.71C1081.8 118.46 1048.8 184.46 1030.8 258.46C1026.8 273.46 1025.8 288.46 1028.8 304.46C1041.8 371.46 1072.8 428.46 1077.22 494.53C1078.3 509.2 1079.57 524.42 1081.36 540.34V762.5" stroke="black" stroke-opacity="0.3" stroke-miterlimit="10"/>
<path d="M1021.31 0.5C1021.31 0.5 1020.63 19.54 1020.63 45.85C1017.8 122.46 997.8 197.46 990.8 274.46C989.8 289.46 991.8 303.46 992.8 318.46C1003.8 393.46 1020.8 464.46 1021.14 539.91C1021.22 552.6 1021.26 564.92 1021.3 576.92V762.49" stroke="black" stroke-opacity="0.3" stroke-miterlimit="10"/>
<path d="M961.26 0.5C961.26 0.5 961.43 22.18 961.43 48.23C965.8 212.46 965.8 375.46 961.29 539.78C961.28 552.51 961.27 564.87 961.26 576.92V762.49" stroke="black" stroke-opacity="0.3" stroke-miterlimit="10"/>
<path d="M901.21 0.5V42.71C904.8 118.46 926.8 190.46 937.8 266.46C940.8 284.46 939.8 300.46 936.8 318.46C922.8 394.46 901.8 465.46 901.4 539.98C901.31 552.64 901.27 564.95 901.22 576.92V762.49" stroke="black" stroke-opacity="0.3" stroke-miterlimit="10"/>
<path d="M841.17 0.5V42.71C841.17 56.04 841.32 72.36 844.13 94.55C852.8 154.46 882.8 205.46 895.8 267.46C900.8 291.46 894.8 312.46 887.8 334.46C869.8 388.46 846.8 440.46 844.37 496.91C844.01 510.23 842.76 525.15 841.16 540.34V762.5" stroke="black" stroke-opacity="0.3" stroke-miterlimit="10"/>
<path d="M781.12 0.5V90.47C782.01 100.41 782.52 110.57 782.92 121.02C782.8 129.46 783.8 138.46 784.8 146.46C792.8 201.46 821.8 249.46 811.8 306.46C803.8 360.46 780.8 408.46 781.12 462.58V762.49" stroke="black" stroke-opacity="0.3" stroke-miterlimit="10"/>
<path d="M721.07 0.5V222.66C721.07 235.16 721.11 247.94 721.11 260.92C721.11 273.9 721.12 287.09 721.11 300.42C721.09 313.75 721.09 327.22 721.08 340.76V762.51" stroke="black" stroke-opacity="0.3" stroke-miterlimit="10"/>
<path d="M661.02 0.5V762.5" stroke="black" stroke-opacity="0.3" stroke-miterlimit="10"/>
<path d="M600.98 0.5V762.5" stroke="black" stroke-opacity="0.3" stroke-miterlimit="10"/>
<path d="M540.93 0.5V762.5" stroke="black" stroke-opacity="0.3" stroke-miterlimit="10"/>
<path d="M480.88 0.5V762.5" stroke="black" stroke-opacity="0.3" stroke-miterlimit="10"/>
<path d="M420.83 0.5V762.5" stroke="black" stroke-opacity="0.3" stroke-miterlimit="10"/>
<path d="M360.79 0.5V458.95C360.77 467.45 360.75 475.9 360.72 484.28C362.81 513.46 348.81 540.46 337.81 566.46C332.81 579.46 332.81 593.46 337.81 606.46C350.81 635.46 363.81 664.46 360.79 696.09V762.5" stroke="black" stroke-opacity="0.3" stroke-miterlimit="10"/>
<path d="M300.74 0.5V433.31C300.8 484.46 275.8 529.46 259.8 576.46C257.8 581.46 257.8 586.46 258.8 591.46C269.8 637.46 296.8 676.46 300.06 722.36C300.14 730.56 300.74 739.02 300.74 744.75V762.5" stroke="black" stroke-opacity="0.3" stroke-miterlimit="10"/>
<path d="M240.69 0.5V433.31C240.8 537.46 240.8 640.46 240.69 744.75V762.5" stroke="black" stroke-opacity="0.3" stroke-miterlimit="10"/>
<path d="M180.64 0.5V433.31C178.8 487.46 216.8 533.46 219.8 584.46C221.8 632.46 183.8 673.46 181.32 722.36C181.24 730.56 180.64 739.02 180.64 744.75V762.5" stroke="black" stroke-opacity="0.3" stroke-miterlimit="10"/>
<path d="M120.6 0.5V458.95C120.62 467.45 120.64 475.9 120.67 484.28C117.8 518.46 137.8 545.46 146.8 577.46C147.8 583.46 147.8 588.46 146.8 594.46C137.8 629.46 115.8 659.46 120.59 696.09V762.5" stroke="black" stroke-opacity="0.3" stroke-miterlimit="10"/>
<path d="M60.55 0.5V762.5" stroke="black" stroke-opacity="0.3" stroke-miterlimit="10"/>
</g>
<defs>
<clipPath id="clip0_160_300">
<rect width="1262" height="763" fill="white"/>
</clipPath>
</defs>
</svg>
