<svg width="36" height="36" viewBox="0 0 36 36" fill="none" xmlns="http://www.w3.org/2000/svg">
<path d="M31.16 0H4.46C2 0 0 2 0 4.45V31.15C0 33.61 1.99 35.6 4.45 35.6H31.16C33.62 35.6 35.61 33.61 35.61 31.15V4.45C35.61 1.99 33.62 0 31.16 0ZM28.62 15.31C26.41 15.31 24.36 14.6 22.69 13.4V22.07C22.69 26.4 19.17 29.92 14.84 29.92C13.17 29.92 11.62 29.39 10.34 28.5C8.32 27.08 6.99 24.73 6.99 22.07C6.99 17.74 10.51 14.22 14.84 14.22C15.2 14.22 15.55 14.25 15.9 14.3V18.65C15.56 18.54 15.21 18.48 14.84 18.48C12.86 18.48 11.26 20.09 11.26 22.06C11.26 23.44 12.04 24.63 13.18 25.23C13.68 25.49 14.24 25.64 14.84 25.64C16.77 25.64 18.35 24.1 18.42 22.19V5.1H22.69C22.69 5.47 22.73 5.83 22.79 6.18C23.09 7.81 24.06 9.2 25.39 10.07C26.32 10.68 27.43 11.03 28.62 11.03V15.29V15.31Z" fill="#5B4CFF"/>
</svg>
