<?xml version="1.0" encoding="UTF-8"?><svg id="Layer_2" xmlns="http://www.w3.org/2000/svg" viewBox="0 0 54 53.72"><g id="Layer_1-2"><path d="M38.39,37.73c-2.08-2.21-5.32-2.62-7.88-1l-2.45,1.55c-1.44,.91-3.21,.8-4.53-.28-1.58-1.3-3.1-2.72-4.52-4.23-1.42-1.51-2.74-3.11-3.94-4.77-1-1.38-.99-3.16,0-4.54l1.7-2.35c1.78-2.46,1.57-5.72-.51-7.93l-2.58-2.74c-1.14-1.21-2.68-1.91-4.35-1.96-1.67-.05-3.25,.55-4.46,1.69l-2.9,2.72C.3,15.48-.35,17.67,.18,19.91c1.8,7.47,5.78,14.65,11.51,20.75,5.73,6.1,12.65,10.52,19.99,12.77,.63,.19,1.27,.29,1.89,.29,1.54,0,3.01-.59,4.21-1.71l2.9-2.72c1.21-1.14,1.91-2.68,1.96-4.35,.05-1.67-.55-3.25-1.69-4.46l-2.57-2.74Zm.68,9.83l-2.9,2.72c-1.06,.99-2.4,1.3-3.79,.88-6.96-2.14-13.52-6.33-18.97-12.13-5.45-5.8-9.23-12.61-10.93-19.68-.34-1.41,.06-2.73,1.11-3.72l2.9-2.72c.75-.71,1.73-1.08,2.77-1.04,1.04,.03,1.99,.46,2.7,1.21l2.58,2.74c1.29,1.37,1.42,3.39,.31,4.92l-1.7,2.35c-1.61,2.22-1.61,5.09,0,7.31,1.26,1.74,2.65,3.42,4.14,5.01,1.49,1.58,3.08,3.08,4.74,4.44,2.12,1.74,4.98,1.92,7.3,.45l2.45-1.55c1.59-1.01,3.6-.75,4.89,.62l2.58,2.74c.71,.75,1.08,1.73,1.04,2.77-.03,1.04-.47,2-1.22,2.7h0Zm14.92-18.78c-.02,.64-.55,1.15-1.18,1.15-.01,0-.02,0-.04,0-.65-.02-1.17-.57-1.15-1.22,.21-6.82-2.25-13.32-6.92-18.3-4.68-4.98-11.01-7.83-17.83-8.04-.65-.02-1.17-.57-1.15-1.22,.02-.65,.57-1.17,1.22-1.15,7.46,.23,14.38,3.35,19.48,8.79,5.11,5.44,7.79,12.54,7.56,19.99h0Zm-6.55-.2c-.02,.64-.55,1.15-1.18,1.15-.01,0-.02,0-.04,0-.65-.02-1.17-.57-1.15-1.22,.16-5.08-1.67-9.91-5.15-13.61-3.48-3.7-8.19-5.82-13.26-5.98-.65-.02-1.17-.57-1.15-1.22,.02-.65,.57-1.17,1.22-1.15,11.78,.37,21.07,10.25,20.7,22.03h0Zm-8.91-.28c.21-6.87-5.2-12.63-12.07-12.84-.65-.02-1.17-.57-1.15-1.22,.02-.65,.57-1.17,1.22-1.15,8.17,.25,14.61,7.11,14.36,15.28-.02,.64-.55,1.15-1.18,1.15-.01,0-.02,0-.04,0-.65-.02-1.17-.57-1.15-1.22h0Zm-13.42-7.52c.02-.65,.57-1.17,1.22-1.15,4.56,.14,8.16,3.97,8.02,8.53-.02,.64-.55,1.15-1.18,1.15-.01,0-.02,0-.04,0-.65-.02-1.17-.57-1.15-1.22,.1-3.26-2.47-5.99-5.73-6.09-.65-.02-1.17-.57-1.15-1.22h0Z"/></g></svg>