<svg width="297" height="69" viewBox="0 0 297 69" fill="none" xmlns="http://www.w3.org/2000/svg">
<path d="M226.73 0H0V67.91H226.73V0Z" fill="#333333"/>
<path d="M296 0H226V68H296V0Z" fill="#EC111A"/>
<path d="M269.48 34.37C269.77 38.83 265.63 43.56 260.09 43.18C255.58 42.87 251.83 39.31 251.8 34.41C251.76 29.46 255.64 25.37 260.9 25.47C265.57 25.56 269.68 29.42 269.48 34.37Z" fill="white"/>
<path d="M249.839 33.36C249.039 31.88 248.599 30.52 248.439 29.03C248.249 27.31 248.459 25.67 249.029 24.07C249.899 21.62 251.469 19.75 253.689 18.4C255.529 17.28 257.509 16.82 259.639 16.83C265.019 16.85 270.389 16.83 275.769 16.83H276.499C275.979 17.82 275.119 18.45 274.459 19.23C273.299 20.61 271.999 21.88 270.819 23.24C270.579 23.52 270.359 23.43 270.139 23.43C267.119 23.44 264.089 23.45 261.069 23.43C257.469 23.41 254.529 24.81 252.229 27.53C250.869 29.14 250.119 31.06 249.829 33.35L249.839 33.36Z" fill="white"/>
<path d="M271.54 35.51C272.29 36.48 272.59 37.55 272.77 38.61C273.18 41.09 273.03 43.53 271.82 45.81C270.09 49.07 267.47 51.09 263.78 51.69C263.28 51.77 262.79 51.81 262.3 51.81C256.52 51.81 250.74 51.81 244.91 51.81C245.33 50.87 246.17 50.29 246.78 49.55C247.99 48.09 249.33 46.74 250.6 45.33C250.81 45.09 251.04 45.2 251.25 45.2C254.39 45.19 257.53 45.23 260.68 45.18C265.16 45.12 268.35 42.91 270.46 39.06C271.04 38 271.31 36.79 271.54 35.51Z" fill="white"/>
<path d="M17.6499 43.8L20.7099 40.22C22.3999 42.03 24.5199 42.94 27.0799 42.94C29.9399 42.94 31.3599 41.93 31.3599 39.92C31.3599 39.13 31.0799 38.5 30.5199 38.04C29.9599 37.58 29.0199 37.2 27.7099 36.9L25.3999 36.38C23.2099 35.88 21.4999 34.96 20.2599 33.6C19.0199 32.25 18.3999 30.61 18.3999 28.7C18.3999 27.11 18.7999 25.72 19.5899 24.53C20.3799 23.34 21.4899 22.4 22.9099 21.72C24.3299 21.04 25.9499 20.7 27.7899 20.7C29.5299 20.7 31.1099 20.99 32.5199 21.58C33.9399 22.16 35.0499 22.98 35.8699 24.02L32.9299 27.48C32.4099 26.93 31.7199 26.49 30.8599 26.16C29.9999 25.82 29.0799 25.66 28.0799 25.66C26.7899 25.66 25.7899 25.91 25.0799 26.42C24.3699 26.93 24.0199 27.64 24.0199 28.56C24.0199 30.03 25.0599 30.99 27.1499 31.47L29.5699 32.03C34.4599 33.12 36.9099 35.68 36.9099 39.71C36.9099 41.35 36.5099 42.78 35.6999 44.01C34.8899 45.24 33.7599 46.2 32.2899 46.88C30.8199 47.56 29.0999 47.9 27.1099 47.9C25.1199 47.9 23.2999 47.54 21.6499 46.82C19.9999 46.1 18.6599 45.09 17.6399 43.8H17.6499Z" fill="white"/>
<path d="M54.31 40.96L57.33 44.24C55.29 46.67 52.61 47.89 49.28 47.89C47.27 47.89 45.49 47.46 43.93 46.59C42.38 45.72 41.16 44.52 40.28 42.98C39.4 41.44 38.96 39.69 38.96 37.73C38.96 35.77 39.39 34.02 40.26 32.49C41.13 30.96 42.33 29.76 43.86 28.88C45.39 28 47.12 27.56 49.06 27.56C52.36 27.56 54.98 28.68 56.92 30.91L53.94 34.19C52.7 33.05 51.21 32.48 49.47 32.48C47.95 32.48 46.73 32.96 45.78 33.93C44.84 34.9 44.36 36.17 44.36 37.73C44.36 39.29 44.83 40.59 45.78 41.55C46.72 42.51 47.98 42.98 49.54 42.98C51.3 42.98 52.89 42.31 54.31 40.97V40.96Z" fill="white"/>
<path d="M69.1799 47.89C67.1199 47.89 65.2899 47.46 63.6999 46.59C62.1099 45.72 60.8699 44.52 59.9699 42.99C59.0799 41.46 58.6299 39.71 58.6299 37.72C58.6299 35.73 59.0799 33.98 59.9899 32.45C60.8999 30.92 62.1499 29.72 63.7299 28.85C65.3199 27.98 67.1299 27.55 69.1699 27.55C71.2099 27.55 73.0499 27.98 74.6299 28.85C76.2099 29.72 77.4499 30.92 78.3599 32.45C79.2699 33.98 79.7199 35.73 79.7199 37.72C79.7199 39.71 79.2699 41.46 78.3799 42.99C77.4899 44.52 76.2399 45.72 74.6499 46.59C73.0599 47.46 71.2299 47.89 69.1699 47.89H69.1799ZM69.1799 43.16C70.6999 43.16 71.9299 42.65 72.8899 41.63C73.8499 40.61 74.3199 39.31 74.3199 37.72C74.3199 36.13 73.8399 34.83 72.8899 33.81C71.9299 32.79 70.6999 32.28 69.1799 32.28C67.6599 32.28 66.4299 32.79 65.4699 33.81C64.5099 34.83 64.0299 36.13 64.0299 37.72C64.0299 39.31 64.5099 40.58 65.4699 41.61C66.4299 42.64 67.6599 43.16 69.1799 43.16Z" fill="white"/>
<path d="M83.9 47.34V32.59H80.96V28.12H83.9V23.13H89.12V28.12H92.44V32.59H89.12V47.34H83.9Z" fill="white"/>
<path d="M94.4399 23.45C94.4399 22.53 94.7299 21.8 95.3199 21.27C95.8999 20.74 96.6799 20.47 97.6499 20.47C98.6199 20.47 99.3999 20.74 99.9799 21.27C100.56 21.8 100.86 22.53 100.86 23.45C100.86 24.37 100.57 25.06 99.9799 25.59C99.3899 26.12 98.6199 26.39 97.6499 26.39C96.6799 26.39 95.8999 26.12 95.3199 25.59C94.7399 25.06 94.4399 24.34 94.4399 23.45ZM95.0399 47.33V28.11H100.26V47.34H95.0399V47.33Z" fill="white"/>
<path d="M119.78 47.34L119.52 45.03C118.85 45.92 117.96 46.63 116.86 47.14C115.75 47.65 114.54 47.9 113.23 47.9C111.37 47.9 109.7 47.47 108.24 46.6C106.77 45.73 105.63 44.53 104.79 42.99C103.96 41.45 103.54 39.7 103.54 37.74C103.54 35.78 103.96 34 104.79 32.47C105.62 30.94 106.77 29.74 108.24 28.87C109.71 28 111.37 27.57 113.23 27.57C114.55 27.57 115.75 27.82 116.84 28.33C117.93 28.84 118.83 29.54 119.52 30.44L119.78 28.13H124.44V47.36H119.78V47.34ZM114.08 43.17C115.6 43.17 116.83 42.66 117.79 41.64C118.75 40.62 119.22 39.32 119.22 37.73C119.22 36.14 118.74 34.84 117.79 33.82C116.83 32.8 115.6 32.29 114.08 32.29C112.56 32.29 111.33 32.8 110.37 33.82C109.41 34.84 108.93 36.14 108.93 37.73C108.93 39.32 109.41 40.62 110.37 41.64C111.33 42.66 112.56 43.17 114.08 43.17Z" fill="white"/>
<path d="M134.79 47.34V26.36H127.23V21.26H148.13V26.36H140.57V47.34H134.8H134.79Z" fill="white"/>
<path d="M165.64 44.24C164.47 45.51 163.2 46.43 161.82 47.02C160.44 47.6 158.83 47.9 157 47.9C154.91 47.9 153.07 47.47 151.47 46.61C149.87 45.75 148.62 44.55 147.72 43.01C146.83 41.47 146.38 39.71 146.38 37.72C146.38 35.73 146.81 33.98 147.68 32.45C148.55 30.92 149.74 29.72 151.26 28.85C152.78 27.98 154.51 27.55 156.48 27.55C158.32 27.55 159.93 27.95 161.32 28.74C162.71 29.54 163.8 30.64 164.6 32.06C165.39 33.48 165.79 35.12 165.79 36.98C165.79 37.65 165.72 38.53 165.57 39.63H151.82C152.14 40.8 152.77 41.7 153.7 42.33C154.63 42.96 155.84 43.28 157.33 43.28C159.47 43.28 161.27 42.55 162.73 41.08L165.64 44.25V44.24ZM156.44 32.02C155.25 32.02 154.25 32.36 153.44 33.04C152.63 33.72 152.08 34.66 151.78 35.85H160.57C160.45 34.61 160.03 33.66 159.32 33C158.61 32.34 157.65 32.01 156.43 32.01L156.44 32.02Z" fill="white"/>
<path d="M183.6 40.96L186.62 44.24C184.58 46.67 181.9 47.89 178.57 47.89C176.56 47.89 174.78 47.46 173.22 46.59C171.67 45.72 170.45 44.52 169.57 42.98C168.69 41.44 168.25 39.69 168.25 37.73C168.25 35.77 168.68 34.02 169.55 32.49C170.42 30.96 171.62 29.76 173.15 28.88C174.68 28 176.41 27.56 178.35 27.56C181.65 27.56 184.27 28.68 186.21 30.91L183.23 34.19C181.99 33.05 180.5 32.48 178.76 32.48C177.24 32.48 176.02 32.96 175.07 33.93C174.13 34.9 173.65 36.17 173.65 37.73C173.65 39.29 174.12 40.59 175.07 41.55C176.01 42.51 177.27 42.98 178.83 42.98C180.59 42.98 182.18 42.31 183.6 40.97V40.96Z" fill="white"/>
<path d="M189.12 47.34V21.25H194.34V29.89C195.63 28.32 197.46 27.54 199.82 27.54C202.18 27.54 204.17 28.3 205.56 29.81C206.95 31.33 207.65 33.41 207.65 36.07V47.32H202.43V36.66C202.43 33.7 201.15 32.23 198.59 32.23C197.37 32.23 196.36 32.65 195.55 33.5C194.74 34.34 194.34 35.42 194.34 36.74V47.32H189.12V47.34Z" fill="white"/>
</svg>
