<svg width="1003" height="1854" viewBox="0 0 1003 1854" fill="none" xmlns="http://www.w3.org/2000/svg">
<g opacity="0.25">
<g clip-path="url(#clip0_600_1662)">
<path d="M334.383 998.221L334.383 0.287109L0.288788 0.287095L0.288744 998.221L334.383 998.221Z" stroke="black" stroke-width="0.75" stroke-miterlimit="10"/>
<path d="M286.657 998.221L286.657 0.287109" stroke="black" stroke-width="0.75" stroke-miterlimit="10"/>
<path d="M238.932 998.221L238.932 0.287109" stroke="black" stroke-width="0.75" stroke-miterlimit="10"/>
<path d="M191.206 998.221L191.206 0.287109" stroke="black" stroke-width="0.75" stroke-miterlimit="10"/>
<path d="M143.473 998.221L143.473 0.287109" stroke="black" stroke-width="0.75" stroke-miterlimit="10"/>
<path d="M95.7475 998.221L95.7476 0.287109" stroke="black" stroke-width="0.75" stroke-miterlimit="10"/>
<path d="M48.0219 998.221L48.022 0.287109" stroke="black" stroke-width="0.75" stroke-miterlimit="10"/>
<path d="M0.296576 47.8037L334.383 47.8037" stroke="black" stroke-width="0.75" stroke-miterlimit="10"/>
<path d="M0.296576 95.321L334.383 95.321" stroke="black" stroke-width="0.75" stroke-miterlimit="10"/>
<path d="M0.296576 142.846L334.383 142.846" stroke="black" stroke-width="0.75" stroke-miterlimit="10"/>
<path d="M0.296576 190.362L334.383 190.362" stroke="black" stroke-width="0.75" stroke-miterlimit="10"/>
<path d="M0.296576 237.888L334.383 237.888" stroke="black" stroke-width="0.75" stroke-miterlimit="10"/>
<path d="M0.296576 285.404L334.383 285.404" stroke="black" stroke-width="0.75" stroke-miterlimit="10"/>
<path d="M0.296576 332.929L334.383 332.929" stroke="black" stroke-width="0.75" stroke-miterlimit="10"/>
<path d="M0.296576 380.446L334.383 380.446" stroke="black" stroke-width="0.75" stroke-miterlimit="10"/>
<path d="M0.296576 427.971L334.383 427.971" stroke="black" stroke-width="0.75" stroke-miterlimit="10"/>
<path d="M0.296576 475.487L334.383 475.487" stroke="black" stroke-width="0.75" stroke-miterlimit="10"/>
<path d="M0.296576 523.013L334.383 523.013" stroke="black" stroke-width="0.75" stroke-miterlimit="10"/>
<path d="M0.296576 570.529L334.383 570.529" stroke="black" stroke-width="0.75" stroke-miterlimit="10"/>
<path d="M0.296576 618.054L334.383 618.054" stroke="black" stroke-width="0.75" stroke-miterlimit="10"/>
<path d="M0.296576 665.571L334.383 665.571" stroke="black" stroke-width="0.75" stroke-miterlimit="10"/>
<path d="M0.296576 713.095L334.383 713.095" stroke="black" stroke-width="0.75" stroke-miterlimit="10"/>
<path d="M0.296576 760.612L334.383 760.612" stroke="black" stroke-width="0.75" stroke-miterlimit="10"/>
<path d="M0.296576 808.137L334.383 808.137" stroke="black" stroke-width="0.75" stroke-miterlimit="10"/>
<path d="M0.296576 855.654L334.383 855.654" stroke="black" stroke-width="0.75" stroke-miterlimit="10"/>
<path d="M0.296576 903.179L334.383 903.179" stroke="black" stroke-width="0.75" stroke-miterlimit="10"/>
<path d="M0.296576 950.696L334.383 950.696" stroke="black" stroke-width="0.75" stroke-miterlimit="10"/>
</g>
</g>
<g opacity="0.25">
<g clip-path="url(#clip1_600_1662)">
<path d="M668.271 998.221L668.271 0.287109L334.177 0.287095L334.177 998.221L668.271 998.221Z" stroke="black" stroke-width="0.75" stroke-miterlimit="10"/>
<path d="M620.545 998.221L620.545 0.287109" stroke="black" stroke-width="0.75" stroke-miterlimit="10"/>
<path d="M572.82 998.221L572.82 0.287109" stroke="black" stroke-width="0.75" stroke-miterlimit="10"/>
<path d="M525.094 998.221L525.094 0.287109" stroke="black" stroke-width="0.75" stroke-miterlimit="10"/>
<path d="M477.361 998.221L477.361 0.287109" stroke="black" stroke-width="0.75" stroke-miterlimit="10"/>
<path d="M429.636 998.221L429.636 0.287109" stroke="black" stroke-width="0.75" stroke-miterlimit="10"/>
<path d="M381.91 998.221L381.91 0.287109" stroke="black" stroke-width="0.75" stroke-miterlimit="10"/>
<path d="M334.185 47.8037L668.271 47.8037" stroke="black" stroke-width="0.75" stroke-miterlimit="10"/>
<path d="M334.185 95.321L668.271 95.321" stroke="black" stroke-width="0.75" stroke-miterlimit="10"/>
<path d="M334.185 142.846L668.271 142.846" stroke="black" stroke-width="0.75" stroke-miterlimit="10"/>
<path d="M334.185 190.362L668.271 190.362" stroke="black" stroke-width="0.75" stroke-miterlimit="10"/>
<path d="M334.185 237.888L668.271 237.888" stroke="black" stroke-width="0.75" stroke-miterlimit="10"/>
<path d="M334.185 285.404L668.271 285.404" stroke="black" stroke-width="0.75" stroke-miterlimit="10"/>
<path d="M334.185 332.929L668.271 332.929" stroke="black" stroke-width="0.75" stroke-miterlimit="10"/>
<path d="M334.185 380.446L668.271 380.446" stroke="black" stroke-width="0.75" stroke-miterlimit="10"/>
<path d="M334.185 427.971L668.271 427.971" stroke="black" stroke-width="0.75" stroke-miterlimit="10"/>
<path d="M334.185 475.487L668.271 475.487" stroke="black" stroke-width="0.75" stroke-miterlimit="10"/>
<path d="M334.185 523.013L668.271 523.013" stroke="black" stroke-width="0.75" stroke-miterlimit="10"/>
<path d="M334.185 570.529L668.271 570.529" stroke="black" stroke-width="0.75" stroke-miterlimit="10"/>
<path d="M334.185 618.054L668.271 618.054" stroke="black" stroke-width="0.75" stroke-miterlimit="10"/>
<path d="M334.185 665.571L668.271 665.571" stroke="black" stroke-width="0.75" stroke-miterlimit="10"/>
<path d="M334.185 713.095L668.271 713.095" stroke="black" stroke-width="0.75" stroke-miterlimit="10"/>
<path d="M334.185 760.612L668.271 760.612" stroke="black" stroke-width="0.75" stroke-miterlimit="10"/>
<path d="M334.185 808.137L668.271 808.137" stroke="black" stroke-width="0.75" stroke-miterlimit="10"/>
<path d="M334.185 855.654L668.271 855.654" stroke="black" stroke-width="0.75" stroke-miterlimit="10"/>
<path d="M334.185 903.179L668.271 903.179" stroke="black" stroke-width="0.75" stroke-miterlimit="10"/>
<path d="M334.185 950.696L668.271 950.696" stroke="black" stroke-width="0.75" stroke-miterlimit="10"/>
</g>
<g clip-path="url(#clip2_600_1662)">
<path d="M1002.38 998.221L1002.38 0.287109L668.289 0.287095L668.289 998.221L1002.38 998.221Z" stroke="black" stroke-width="0.75" stroke-miterlimit="10"/>
<path d="M954.657 998.221L954.657 0.287109" stroke="black" stroke-width="0.75" stroke-miterlimit="10"/>
<path d="M906.932 998.221L906.932 0.287109" stroke="black" stroke-width="0.75" stroke-miterlimit="10"/>
<path d="M859.206 998.221L859.206 0.287109" stroke="black" stroke-width="0.75" stroke-miterlimit="10"/>
<path d="M811.473 998.221L811.473 0.287109" stroke="black" stroke-width="0.75" stroke-miterlimit="10"/>
<path d="M763.748 998.221L763.748 0.287109" stroke="black" stroke-width="0.75" stroke-miterlimit="10"/>
<path d="M716.022 998.221L716.022 0.287109" stroke="black" stroke-width="0.75" stroke-miterlimit="10"/>
<path d="M668.297 47.8037L1002.38 47.8037" stroke="black" stroke-width="0.75" stroke-miterlimit="10"/>
<path d="M668.297 95.321L1002.38 95.321" stroke="black" stroke-width="0.75" stroke-miterlimit="10"/>
<path d="M668.297 142.846L1002.38 142.846" stroke="black" stroke-width="0.75" stroke-miterlimit="10"/>
<path d="M668.297 190.362L1002.38 190.362" stroke="black" stroke-width="0.75" stroke-miterlimit="10"/>
<path d="M668.297 237.888L1002.38 237.888" stroke="black" stroke-width="0.75" stroke-miterlimit="10"/>
<path d="M668.297 285.404L1002.38 285.404" stroke="black" stroke-width="0.75" stroke-miterlimit="10"/>
<path d="M668.297 332.929L1002.38 332.929" stroke="black" stroke-width="0.75" stroke-miterlimit="10"/>
<path d="M668.297 380.446L1002.38 380.446" stroke="black" stroke-width="0.75" stroke-miterlimit="10"/>
<path d="M668.297 427.971L1002.38 427.971" stroke="black" stroke-width="0.75" stroke-miterlimit="10"/>
<path d="M668.297 475.487L1002.38 475.487" stroke="black" stroke-width="0.75" stroke-miterlimit="10"/>
<path d="M668.297 523.013L1002.38 523.013" stroke="black" stroke-width="0.75" stroke-miterlimit="10"/>
<path d="M668.297 570.529L1002.38 570.529" stroke="black" stroke-width="0.75" stroke-miterlimit="10"/>
<path d="M668.297 618.054L1002.38 618.054" stroke="black" stroke-width="0.75" stroke-miterlimit="10"/>
<path d="M668.297 665.571L1002.38 665.571" stroke="black" stroke-width="0.75" stroke-miterlimit="10"/>
<path d="M668.297 713.095L1002.38 713.095" stroke="black" stroke-width="0.75" stroke-miterlimit="10"/>
<path d="M668.297 760.612L1002.38 760.612" stroke="black" stroke-width="0.75" stroke-miterlimit="10"/>
<path d="M668.297 808.137L1002.38 808.137" stroke="black" stroke-width="0.75" stroke-miterlimit="10"/>
<path d="M668.297 855.654L1002.38 855.654" stroke="black" stroke-width="0.75" stroke-miterlimit="10"/>
<path d="M668.297 903.179L1002.38 903.179" stroke="black" stroke-width="0.75" stroke-miterlimit="10"/>
<path d="M668.297 950.696L1002.38 950.696" stroke="black" stroke-width="0.75" stroke-miterlimit="10"/>
</g>
</g>
<g opacity="0.25">
<g clip-path="url(#clip3_600_1662)">
<path d="M334.383 1853.22L334.383 855.287L0.288788 855.287L0.288744 1853.22L334.383 1853.22Z" stroke="black" stroke-width="0.75" stroke-miterlimit="10"/>
<path d="M286.657 1853.22L286.657 855.287" stroke="black" stroke-width="0.75" stroke-miterlimit="10"/>
<path d="M238.932 1853.22L238.932 855.287" stroke="black" stroke-width="0.75" stroke-miterlimit="10"/>
<path d="M191.206 1853.22L191.206 855.287" stroke="black" stroke-width="0.75" stroke-miterlimit="10"/>
<path d="M143.473 1853.22L143.473 855.287" stroke="black" stroke-width="0.75" stroke-miterlimit="10"/>
<path d="M95.7475 1853.22L95.7476 855.287" stroke="black" stroke-width="0.75" stroke-miterlimit="10"/>
<path d="M48.0219 1853.22L48.022 855.287" stroke="black" stroke-width="0.75" stroke-miterlimit="10"/>
<path d="M0.296576 902.804L334.383 902.804" stroke="black" stroke-width="0.75" stroke-miterlimit="10"/>
<path d="M0.296576 950.321L334.383 950.321" stroke="black" stroke-width="0.75" stroke-miterlimit="10"/>
<path d="M0.296576 997.846L334.383 997.846" stroke="black" stroke-width="0.75" stroke-miterlimit="10"/>
<path d="M0.296576 1045.36L334.383 1045.36" stroke="black" stroke-width="0.75" stroke-miterlimit="10"/>
<path d="M0.296576 1092.89L334.383 1092.89" stroke="black" stroke-width="0.75" stroke-miterlimit="10"/>
<path d="M0.296576 1140.4L334.383 1140.4" stroke="black" stroke-width="0.75" stroke-miterlimit="10"/>
<path d="M0.296576 1187.93L334.383 1187.93" stroke="black" stroke-width="0.75" stroke-miterlimit="10"/>
<path d="M0.296576 1235.45L334.383 1235.45" stroke="black" stroke-width="0.75" stroke-miterlimit="10"/>
<path d="M0.296576 1282.97L334.383 1282.97" stroke="black" stroke-width="0.75" stroke-miterlimit="10"/>
<path d="M0.296576 1330.49L334.383 1330.49" stroke="black" stroke-width="0.75" stroke-miterlimit="10"/>
<path d="M0.296576 1378.01L334.383 1378.01" stroke="black" stroke-width="0.75" stroke-miterlimit="10"/>
<path d="M0.296576 1425.53L334.383 1425.53" stroke="black" stroke-width="0.75" stroke-miterlimit="10"/>
<path d="M0.296576 1473.05L334.383 1473.05" stroke="black" stroke-width="0.75" stroke-miterlimit="10"/>
<path d="M0.296576 1520.57L334.383 1520.57" stroke="black" stroke-width="0.75" stroke-miterlimit="10"/>
<path d="M0.296576 1568.1L334.383 1568.1" stroke="black" stroke-width="0.75" stroke-miterlimit="10"/>
<path d="M0.296576 1615.61L334.383 1615.61" stroke="black" stroke-width="0.75" stroke-miterlimit="10"/>
<path d="M0.296576 1663.14L334.383 1663.14" stroke="black" stroke-width="0.75" stroke-miterlimit="10"/>
<path d="M0.296576 1710.65L334.383 1710.65" stroke="black" stroke-width="0.75" stroke-miterlimit="10"/>
<path d="M0.296576 1758.18L334.383 1758.18" stroke="black" stroke-width="0.75" stroke-miterlimit="10"/>
<path d="M0.296576 1805.7L334.383 1805.7" stroke="black" stroke-width="0.75" stroke-miterlimit="10"/>
</g>
</g>
<g opacity="0.25">
<g clip-path="url(#clip4_600_1662)">
<path d="M668.271 1853.22L668.271 855.287L334.177 855.287L334.177 1853.22L668.271 1853.22Z" stroke="black" stroke-width="0.75" stroke-miterlimit="10"/>
<path d="M620.545 1853.22L620.545 855.287" stroke="black" stroke-width="0.75" stroke-miterlimit="10"/>
<path d="M572.82 1853.22L572.82 855.287" stroke="black" stroke-width="0.75" stroke-miterlimit="10"/>
<path d="M525.094 1853.22L525.094 855.287" stroke="black" stroke-width="0.75" stroke-miterlimit="10"/>
<path d="M477.361 1853.22L477.361 855.287" stroke="black" stroke-width="0.75" stroke-miterlimit="10"/>
<path d="M429.636 1853.22L429.636 855.287" stroke="black" stroke-width="0.75" stroke-miterlimit="10"/>
<path d="M381.91 1853.22L381.91 855.287" stroke="black" stroke-width="0.75" stroke-miterlimit="10"/>
<path d="M334.185 902.804L668.271 902.804" stroke="black" stroke-width="0.75" stroke-miterlimit="10"/>
<path d="M334.185 950.321L668.271 950.321" stroke="black" stroke-width="0.75" stroke-miterlimit="10"/>
<path d="M334.185 997.846L668.271 997.846" stroke="black" stroke-width="0.75" stroke-miterlimit="10"/>
<path d="M334.185 1045.36L668.271 1045.36" stroke="black" stroke-width="0.75" stroke-miterlimit="10"/>
<path d="M334.185 1092.89L668.271 1092.89" stroke="black" stroke-width="0.75" stroke-miterlimit="10"/>
<path d="M334.185 1140.4L668.271 1140.4" stroke="black" stroke-width="0.75" stroke-miterlimit="10"/>
<path d="M334.185 1187.93L668.271 1187.93" stroke="black" stroke-width="0.75" stroke-miterlimit="10"/>
<path d="M334.185 1235.45L668.271 1235.45" stroke="black" stroke-width="0.75" stroke-miterlimit="10"/>
<path d="M334.185 1282.97L668.271 1282.97" stroke="black" stroke-width="0.75" stroke-miterlimit="10"/>
<path d="M334.185 1330.49L668.271 1330.49" stroke="black" stroke-width="0.75" stroke-miterlimit="10"/>
<path d="M334.185 1378.01L668.271 1378.01" stroke="black" stroke-width="0.75" stroke-miterlimit="10"/>
<path d="M334.185 1425.53L668.271 1425.53" stroke="black" stroke-width="0.75" stroke-miterlimit="10"/>
<path d="M334.185 1473.05L668.271 1473.05" stroke="black" stroke-width="0.75" stroke-miterlimit="10"/>
<path d="M334.185 1520.57L668.271 1520.57" stroke="black" stroke-width="0.75" stroke-miterlimit="10"/>
<path d="M334.185 1568.1L668.271 1568.1" stroke="black" stroke-width="0.75" stroke-miterlimit="10"/>
<path d="M334.185 1615.61L668.271 1615.61" stroke="black" stroke-width="0.75" stroke-miterlimit="10"/>
<path d="M334.185 1663.14L668.271 1663.14" stroke="black" stroke-width="0.75" stroke-miterlimit="10"/>
<path d="M334.185 1710.65L668.271 1710.65" stroke="black" stroke-width="0.75" stroke-miterlimit="10"/>
<path d="M334.185 1758.18L668.271 1758.18" stroke="black" stroke-width="0.75" stroke-miterlimit="10"/>
<path d="M334.185 1805.7L668.271 1805.7" stroke="black" stroke-width="0.75" stroke-miterlimit="10"/>
</g>
<g clip-path="url(#clip5_600_1662)">
<path d="M1002.38 1853.22L1002.38 855.287L668.289 855.287L668.289 1853.22L1002.38 1853.22Z" stroke="black" stroke-width="0.75" stroke-miterlimit="10"/>
<path d="M954.657 1853.22L954.657 855.287" stroke="black" stroke-width="0.75" stroke-miterlimit="10"/>
<path d="M906.932 1853.22L906.932 855.287" stroke="black" stroke-width="0.75" stroke-miterlimit="10"/>
<path d="M859.206 1853.22L859.206 855.287" stroke="black" stroke-width="0.75" stroke-miterlimit="10"/>
<path d="M811.473 1853.22L811.473 855.287" stroke="black" stroke-width="0.75" stroke-miterlimit="10"/>
<path d="M763.748 1853.22L763.748 855.287" stroke="black" stroke-width="0.75" stroke-miterlimit="10"/>
<path d="M716.022 1853.22L716.022 855.287" stroke="black" stroke-width="0.75" stroke-miterlimit="10"/>
<path d="M668.297 902.804L1002.38 902.804" stroke="black" stroke-width="0.75" stroke-miterlimit="10"/>
<path d="M668.297 950.321L1002.38 950.321" stroke="black" stroke-width="0.75" stroke-miterlimit="10"/>
<path d="M668.297 997.846L1002.38 997.846" stroke="black" stroke-width="0.75" stroke-miterlimit="10"/>
<path d="M668.297 1045.36L1002.38 1045.36" stroke="black" stroke-width="0.75" stroke-miterlimit="10"/>
<path d="M668.297 1092.89L1002.38 1092.89" stroke="black" stroke-width="0.75" stroke-miterlimit="10"/>
<path d="M668.297 1140.4L1002.38 1140.4" stroke="black" stroke-width="0.75" stroke-miterlimit="10"/>
<path d="M668.297 1187.93L1002.38 1187.93" stroke="black" stroke-width="0.75" stroke-miterlimit="10"/>
<path d="M668.297 1235.45L1002.38 1235.45" stroke="black" stroke-width="0.75" stroke-miterlimit="10"/>
<path d="M668.297 1282.97L1002.38 1282.97" stroke="black" stroke-width="0.75" stroke-miterlimit="10"/>
<path d="M668.297 1330.49L1002.38 1330.49" stroke="black" stroke-width="0.75" stroke-miterlimit="10"/>
<path d="M668.297 1378.01L1002.38 1378.01" stroke="black" stroke-width="0.75" stroke-miterlimit="10"/>
<path d="M668.297 1425.53L1002.38 1425.53" stroke="black" stroke-width="0.75" stroke-miterlimit="10"/>
<path d="M668.297 1473.05L1002.38 1473.05" stroke="black" stroke-width="0.75" stroke-miterlimit="10"/>
<path d="M668.297 1520.57L1002.38 1520.57" stroke="black" stroke-width="0.75" stroke-miterlimit="10"/>
<path d="M668.297 1568.1L1002.38 1568.1" stroke="black" stroke-width="0.75" stroke-miterlimit="10"/>
<path d="M668.297 1615.61L1002.38 1615.61" stroke="black" stroke-width="0.75" stroke-miterlimit="10"/>
<path d="M668.297 1663.14L1002.38 1663.14" stroke="black" stroke-width="0.75" stroke-miterlimit="10"/>
<path d="M668.297 1710.65L1002.38 1710.65" stroke="black" stroke-width="0.75" stroke-miterlimit="10"/>
<path d="M668.297 1758.18L1002.38 1758.18" stroke="black" stroke-width="0.75" stroke-miterlimit="10"/>
<path d="M668.297 1805.7L1002.38 1805.7" stroke="black" stroke-width="0.75" stroke-miterlimit="10"/>
</g>
</g>
<defs>
<clipPath id="clip0_600_1662">
<rect width="998.5" height="334.679" fill="white" transform="translate(334.679) rotate(90)"/>
</clipPath>
<clipPath id="clip1_600_1662">
<rect width="998.5" height="334.679" fill="white" transform="translate(668.568) rotate(90)"/>
</clipPath>
<clipPath id="clip2_600_1662">
<rect width="998.5" height="334.679" fill="white" transform="translate(1002.68) rotate(90)"/>
</clipPath>
<clipPath id="clip3_600_1662">
<rect width="998.5" height="334.679" fill="white" transform="translate(334.679 855) rotate(90)"/>
</clipPath>
<clipPath id="clip4_600_1662">
<rect width="998.5" height="334.679" fill="white" transform="translate(668.568 855) rotate(90)"/>
</clipPath>
<clipPath id="clip5_600_1662">
<rect width="998.5" height="334.679" fill="white" transform="translate(1002.68 855) rotate(90)"/>
</clipPath>
</defs>
</svg>
