<svg width="264" height="1262" viewBox="0 0 264 1262" fill="none" xmlns="http://www.w3.org/2000/svg">
<g opacity="0.15">
<g clip-path="url(#clip0_537_1183)">
<path d="M263.673 1261.65L263.673 0.362793L-104.532 0.362777L-104.532 1261.65L263.673 1261.65Z" stroke="black" stroke-width="0.75" stroke-miterlimit="10"/>
<path d="M211.075 1261.65L211.075 0.362793" stroke="black" stroke-width="0.75" stroke-miterlimit="10"/>
<path d="M158.476 1261.65L158.476 0.362793" stroke="black" stroke-width="0.75" stroke-miterlimit="10"/>
<path d="M105.878 1261.65L105.878 0.362793" stroke="black" stroke-width="0.75" stroke-miterlimit="10"/>
<path d="M53.2712 1261.65L53.2712 0.362793" stroke="black" stroke-width="0.75" stroke-miterlimit="10"/>
<path d="M0.672919 1261.65L0.672974 0.362793" stroke="black" stroke-width="0.75" stroke-miterlimit="10"/>
<path d="M-104.524 60.4194L263.673 60.4194" stroke="black" stroke-width="0.75" stroke-miterlimit="10"/>
<path d="M-104.524 120.476L263.673 120.476" stroke="black" stroke-width="0.75" stroke-miterlimit="10"/>
<path d="M-104.524 180.542L263.673 180.542" stroke="black" stroke-width="0.75" stroke-miterlimit="10"/>
<path d="M-104.524 240.599L263.673 240.599" stroke="black" stroke-width="0.75" stroke-miterlimit="10"/>
<path d="M-104.524 300.665L263.673 300.665" stroke="black" stroke-width="0.75" stroke-miterlimit="10"/>
<path d="M-104.524 360.721L263.673 360.721" stroke="black" stroke-width="0.75" stroke-miterlimit="10"/>
<path d="M-104.524 420.788L263.673 420.788" stroke="black" stroke-width="0.75" stroke-miterlimit="10"/>
<path d="M-104.524 480.844L263.673 480.844" stroke="black" stroke-width="0.75" stroke-miterlimit="10"/>
<path d="M-104.524 540.91L263.673 540.91" stroke="black" stroke-width="0.75" stroke-miterlimit="10"/>
<path d="M-104.524 600.967L263.673 600.967" stroke="black" stroke-width="0.75" stroke-miterlimit="10"/>
<path d="M-104.524 661.033L263.673 661.033" stroke="black" stroke-width="0.75" stroke-miterlimit="10"/>
<path d="M-104.524 721.09L263.673 721.09" stroke="black" stroke-width="0.75" stroke-miterlimit="10"/>
<path d="M-104.524 781.156L263.673 781.156" stroke="black" stroke-width="0.75" stroke-miterlimit="10"/>
<path d="M-104.524 841.212L263.673 841.212" stroke="black" stroke-width="0.75" stroke-miterlimit="10"/>
<path d="M-104.524 901.279L263.673 901.279" stroke="black" stroke-width="0.75" stroke-miterlimit="10"/>
<path d="M-104.524 961.335L263.673 961.335" stroke="black" stroke-width="0.75" stroke-miterlimit="10"/>
<path d="M-104.524 1021.4L263.673 1021.4" stroke="black" stroke-width="0.75" stroke-miterlimit="10"/>
<path d="M-104.524 1081.46L263.673 1081.46" stroke="black" stroke-width="0.75" stroke-miterlimit="10"/>
<path d="M-104.524 1141.52L263.673 1141.52" stroke="black" stroke-width="0.75" stroke-miterlimit="10"/>
<path d="M-104.524 1201.58L263.673 1201.58" stroke="black" stroke-width="0.75" stroke-miterlimit="10"/>
</g>
</g>
<defs>
<clipPath id="clip0_537_1183">
<rect width="1262" height="264" fill="white" transform="translate(264) rotate(90)"/>
</clipPath>
</defs>
</svg>
