<svg width="575" height="188" viewBox="0 0 575 188" fill="none" xmlns="http://www.w3.org/2000/svg">
<path d="M0.439973 45H10.88V0.600003H0.439973V45Z" fill="black"/>
<path d="M19.7759 45H35.1359C49.6559 45 58.2959 36.72 58.2959 22.8C58.2959 8.88 49.6559 0.600003 35.1359 0.600003H19.7759V45ZM30.2159 37.02V8.58H35.6759C43.1159 8.58 47.4959 13.86 47.4959 22.8C47.4959 31.74 43.1159 37.02 35.6759 37.02H30.2159Z" fill="black"/>
<path d="M75.2745 37.02V26.28H95.3745V18.3H75.2745V8.58H97.4745V0.600003H64.8345V45H98.1345V37.02H75.2745Z" fill="black"/>
<path d="M132.455 0.600003L132.935 44.16H132.815L121.715 0.600003H104.795V45H114.695L114.215 1.44H114.335L125.435 45H142.295V0.600003H132.455Z" fill="black"/>
<path d="M183.182 0.600003H147.722V8.58H160.202V45H170.642V8.58H183.182V0.600003Z" fill="black"/>
<path d="M188.526 45H198.966V0.600003H188.526V45Z" fill="black"/>
<path d="M207.862 45H223.222C237.742 45 246.382 36.72 246.382 22.8C246.382 8.88 237.742 0.600003 223.222 0.600003H207.862V45ZM218.302 37.02V8.58H223.762C231.202 8.58 235.582 13.86 235.582 22.8C235.582 31.74 231.202 37.02 223.762 37.02H218.302Z" fill="black"/>
<path d="M280.9 45H291.88L279.1 0.600003H260.8L247.9 45H258.28L260.98 34.68H278.26L280.9 45ZM263.02 26.76L269.56 1.44H269.68L276.22 26.76H263.02Z" fill="black"/>
<path d="M296.631 45H311.991C326.511 45 335.151 36.72 335.151 22.8C335.151 8.88 326.511 0.600003 311.991 0.600003H296.631V45ZM307.071 37.02V8.58H312.531C319.971 8.58 324.351 13.86 324.351 22.8C324.351 31.74 319.971 37.02 312.531 37.02H307.071Z" fill="black"/>
<path d="M380.126 0.600003L370.046 44.16H369.926L359.906 0.600003H348.866L360.446 45H378.866L390.446 0.600003H380.126Z" fill="black"/>
<path d="M395.538 45H405.978V0.600003H395.538V45Z" fill="black"/>
<path d="M431.254 45.6C443.134 45.6 450.154 40.08 450.154 30.78C450.154 20.4 440.914 19.02 433.414 17.94C428.314 17.22 423.934 16.56 423.934 13.02C423.934 9.96 426.454 8.16 430.654 8.16C435.334 8.16 438.274 10.92 438.634 15.66H448.894C447.874 5.82 441.334 0 431.254 0C420.034 0 413.374 4.8 413.374 13.92C413.374 24.18 422.254 25.38 429.514 26.4C434.914 27.12 439.594 27.84 439.594 31.98C439.594 35.4 436.594 37.44 431.494 37.44C426.334 37.44 422.974 34.38 422.374 29.22H412.114C413.134 39.54 420.214 45.6 431.254 45.6Z" fill="black"/>
<path d="M482.812 29.52C482.812 34.5 479.812 37.44 474.712 37.44C469.612 37.44 466.612 34.5 466.612 29.52V0.600003H456.232V29.04C456.232 39.48 463.012 45.6 474.412 45.6C485.932 45.6 492.712 39.48 492.712 29.04V0.600003H482.812V29.52Z" fill="black"/>
<path d="M529.279 45H540.259L527.479 0.600003H509.179L496.279 45H506.659L509.359 34.68H526.639L529.279 45ZM511.399 26.76L517.939 1.44H518.059L524.599 26.76H511.399Z" fill="black"/>
<path d="M555.45 36.78V0.600003H545.01V45H574.29V36.78H555.45Z" fill="black"/>
<path d="M187.86 78.58L189.18 70.6H156.6L148.8 115H182.04L183.48 107.02H160.62L162.54 96.28H182.64L183.96 88.3H163.92L165.66 78.58H187.86Z" fill="black"/>
<path d="M204.609 115.6C217.989 115.6 226.389 108.94 226.389 98.68C226.389 90.16 218.229 88.9 211.569 87.94C206.949 87.22 202.989 86.56 202.989 83.56C202.989 80.26 205.869 78.16 210.669 78.16C214.989 78.16 217.329 80.5 217.329 84.64V85.66H227.649V84.04C227.649 75.22 222.189 70 212.649 70C199.929 70 192.069 75.82 192.069 86.02C192.069 94.36 199.809 95.44 206.349 96.4C211.209 97.12 215.469 97.78 215.469 101.26C215.469 105.04 211.929 107.44 206.289 107.44C201.429 107.44 198.609 104.68 198.609 100.06C198.609 99.82 198.609 99.46 198.669 99.22H188.349C188.289 99.82 188.289 100.48 188.289 101.02C188.289 110.26 194.229 115.6 204.609 115.6Z" fill="black"/>
<path d="M268.44 70.6H232.98L231.6 78.58H244.08L237.66 115H248.1L254.52 78.58H267.06L268.44 70.6Z" fill="black"/>
<path d="M287.167 97.66V97.54C299.647 97.54 307.447 91.3 307.447 81.64C307.447 74.74 301.807 70.6 291.847 70.6H273.787L265.987 115H276.367L279.427 97.66H286.207L291.847 115H303.427L299.527 104.26C298.027 100.06 293.287 97.66 287.167 97.66ZM280.747 90.16L282.847 78.58H290.947C294.487 78.58 296.467 80.32 296.467 83.26C296.467 87.46 293.527 90.16 288.907 90.16H280.747Z" fill="black"/>
<path d="M337.558 115H348.598L343.618 70.6H325.258L304.618 115H314.998L319.498 104.68H336.718L337.558 115ZM322.918 96.76L333.898 71.44H334.018L336.058 96.76H322.918Z" fill="black"/>
<path d="M389.261 70.6H353.801L352.421 78.58H364.901L358.481 115H368.921L375.341 78.58H387.881L389.261 70.6Z" fill="black"/>
<path d="M425.868 78.58L427.188 70.6H394.608L386.808 115H420.048L421.488 107.02H398.628L400.548 96.28H420.648L421.968 88.3H401.928L403.668 78.58H425.868Z" fill="black"/>
<path d="M469.807 87.34C469.867 86.68 469.927 86.08 469.927 85.48C469.927 75.76 463.807 70 453.307 70C437.467 70 427.207 80.92 427.207 98.62C427.207 109.24 431.887 115.6 440.287 115.6C449.647 115.6 456.307 109.54 458.167 99.34H458.287L455.527 115H465.307L469.507 91.24H449.167L447.907 97.96H458.287C456.667 103.9 452.407 107.44 446.587 107.44C441.187 107.44 438.187 103.36 438.187 96.52C438.187 85.78 443.587 78.16 451.927 78.16C456.967 78.16 459.907 81.34 459.907 86.68V87.34H469.807Z" fill="black"/>
<path d="M472.648 115H483.028L490.828 70.6H480.448L472.648 115Z" fill="black"/>
<path d="M520.664 115H531.704L526.724 70.6H508.364L487.724 115H498.104L502.604 104.68H519.824L520.664 115ZM506.024 96.76L517.004 71.44H517.124L519.164 96.76H506.024Z" fill="black"/>
<path d="M551.836 115.6C565.216 115.6 573.616 108.94 573.616 98.68C573.616 90.16 565.456 88.9 558.796 87.94C554.176 87.22 550.216 86.56 550.216 83.56C550.216 80.26 553.096 78.16 557.896 78.16C562.216 78.16 564.556 80.5 564.556 84.64V85.66H574.876V84.04C574.876 75.22 569.416 70 559.876 70C547.156 70 539.296 75.82 539.296 86.02C539.296 94.36 547.036 95.44 553.576 96.4C558.436 97.12 562.696 97.78 562.696 101.26C562.696 105.04 559.156 107.44 553.516 107.44C548.656 107.44 545.836 104.68 545.836 100.06C545.836 99.82 545.836 99.46 545.896 99.22H535.576C535.516 99.82 535.516 100.48 535.516 101.02C535.516 110.26 541.456 115.6 551.836 115.6Z" fill="black"/>
<path d="M148.8 187H164.16C180.9 187 191.64 176.56 191.64 160.6C191.64 149.32 184.56 142.6 171.96 142.6H156.6L148.8 187ZM160.62 179.02L165.6 150.58H171.12C177.3 150.58 180.78 154.66 180.78 161.5C180.78 171.94 174.96 179.02 166.08 179.02H160.62Z" fill="black"/>
<path d="M233.094 150.58L234.414 142.6H201.834L194.034 187H227.274L228.714 179.02H205.854L207.774 168.28H227.874L229.194 160.3H209.154L210.894 150.58H233.094Z" fill="black"/>
<path d="M286.926 142.6L272.886 186.16H272.766L274.626 142.6H254.706L245.226 187H255.066L264.186 143.44H264.306L263.286 187H281.346L296.466 143.44H296.586L290.346 187H300.726L306.846 142.6H286.926Z" fill="black"/>
<path d="M337.5 187H348.54L343.56 142.6H325.199L304.56 187H314.94L319.44 176.68H336.66L337.5 187ZM322.859 168.76L333.84 143.44H333.96L336 168.76H322.859Z" fill="black"/>
<path d="M374.414 169.66V169.54C386.894 169.54 394.694 163.3 394.694 153.64C394.694 146.74 389.054 142.6 379.094 142.6H361.034L353.234 187H363.614L366.674 169.66H373.454L379.094 187H390.674L386.774 176.26C385.274 172.06 380.534 169.66 374.414 169.66ZM367.994 162.16L370.094 150.58H378.194C381.734 150.58 383.714 152.32 383.714 155.26C383.714 159.46 380.774 162.16 376.154 162.16H367.994Z" fill="black"/>
<path d="M438.011 169.48H428.111C426.071 175.72 421.811 179.44 416.411 179.44C410.891 179.44 407.951 175.3 407.951 168.58C407.951 157.78 413.351 150.16 421.571 150.16C426.731 150.16 429.731 153.58 429.791 159.34V160H439.691C439.751 159.34 439.811 158.74 439.811 158.14C439.811 147.94 433.631 142 422.951 142C407.231 142 397.091 152.92 397.091 169.54C397.091 180.88 403.451 187.6 414.911 187.6C426.191 187.6 434.771 180.82 438.011 169.48Z" fill="black"/>
<path d="M469.277 187H480.317L475.337 142.6H456.977L436.337 187H446.717L451.217 176.68H468.437L469.277 187ZM454.637 168.76L465.617 143.44H465.737L467.777 168.76H454.637Z" fill="black"/>
<path d="M124.48 117.52L109.12 111.92C93.12 148.4 68.8 170 43.84 170C30.4 170 22.88 164.24 22.88 155.28C22.88 139.6 39.52 133.84 56.96 127.44C77.28 119.92 99.52 112.08 99.52 89.84C99.52 74.48 87.2 66 65.6 66C39.04 66 22.72 76.72 22.72 92.88C22.72 104.08 35.52 111.12 57.44 111.12C54.4 112.24 51.2 113.2 47.84 114.32C26.24 121.2 0.159973 129.36 0.159973 158.32C0.159973 176.4 14.08 187.6 38.72 187.6C55.84 187.6 72.48 180.88 87.36 168.24L105.92 187.6L120.16 174.48L100.96 154.8C109.76 144.56 117.76 131.92 124.48 117.52ZM43.52 98.48C43.52 89.2 50.88 83.6 62.72 83.6C71.52 83.6 76.48 87.44 76.48 94C76.48 102.48 68.8 106.96 58.4 110.8C49.12 110.8 43.52 106 43.52 98.48Z" fill="black"/>
</svg>
